<svg width="746" height="611" viewBox="0 0 746 611" fill="none" xmlns="http://www.w3.org/2000/svg">
<rect y="589" width="746" height="22" fill="#0043EF"/>
<rect x="91" y="420" width="566" height="22" fill="#0043EF"/>
<rect x="191" y="251" width="364" height="22" fill="#0043EF"/>
<rect x="288" y="81" width="172" height="22" fill="#0043EF"/>
<path d="M311.477 536V514.672H318.039C319.914 514.672 321.589 515.097 323.063 515.946C324.548 516.786 325.705 517.987 326.535 519.55C327.365 521.103 327.78 522.87 327.78 524.853V525.834C327.78 527.816 327.37 529.579 326.55 531.122C325.739 532.665 324.592 533.861 323.107 534.711C321.623 535.561 319.948 535.99 318.083 536H311.477ZM315.871 518.231V532.47H317.995C319.714 532.47 321.027 531.908 321.936 530.785C322.844 529.662 323.308 528.056 323.327 525.966V524.838C323.327 522.67 322.878 521.029 321.979 519.916C321.081 518.793 319.768 518.231 318.039 518.231H315.871ZM338.005 536.293C335.681 536.293 333.786 535.58 332.321 534.154C330.866 532.729 330.139 530.829 330.139 528.456V528.046C330.139 526.454 330.446 525.033 331.062 523.783C331.677 522.523 332.546 521.557 333.669 520.883C334.802 520.199 336.091 519.857 337.536 519.857C339.704 519.857 341.408 520.541 342.648 521.908C343.898 523.275 344.523 525.214 344.523 527.724V529.452H334.431C334.567 530.487 334.978 531.317 335.661 531.942C336.354 532.567 337.229 532.88 338.283 532.88C339.914 532.88 341.188 532.289 342.106 531.107L344.187 533.437C343.552 534.335 342.692 535.038 341.608 535.546C340.524 536.044 339.323 536.293 338.005 536.293ZM337.521 523.285C336.682 523.285 335.998 523.568 335.471 524.135C334.953 524.701 334.621 525.512 334.475 526.566H340.363V526.229C340.344 525.292 340.09 524.569 339.602 524.062C339.113 523.544 338.42 523.285 337.521 523.285ZM355.524 531.62C355.524 531.103 355.266 530.697 354.748 530.404C354.24 530.102 353.42 529.833 352.287 529.599C348.518 528.808 346.633 527.206 346.633 524.794C346.633 523.388 347.214 522.216 348.376 521.278C349.548 520.331 351.076 519.857 352.961 519.857C354.973 519.857 356.579 520.331 357.78 521.278C358.991 522.226 359.597 523.456 359.597 524.97H355.363C355.363 524.364 355.168 523.866 354.777 523.476C354.387 523.075 353.776 522.875 352.946 522.875C352.233 522.875 351.682 523.036 351.291 523.358C350.9 523.681 350.705 524.091 350.705 524.589C350.705 525.058 350.925 525.438 351.364 525.731C351.813 526.015 352.565 526.264 353.62 526.479C354.675 526.684 355.563 526.918 356.286 527.182C358.522 528.002 359.641 529.423 359.641 531.444C359.641 532.89 359.021 534.062 357.78 534.96C356.54 535.849 354.938 536.293 352.976 536.293C351.647 536.293 350.466 536.059 349.431 535.59C348.405 535.111 347.6 534.462 347.014 533.642C346.428 532.812 346.135 531.918 346.135 530.961H350.148C350.188 531.713 350.466 532.289 350.983 532.689C351.501 533.09 352.194 533.29 353.063 533.29C353.874 533.29 354.484 533.139 354.895 532.836C355.314 532.523 355.524 532.118 355.524 531.62ZM366.848 536H362.6V520.15H366.848V536ZM362.351 516.049C362.351 515.414 362.561 514.892 362.98 514.481C363.41 514.071 363.991 513.866 364.724 513.866C365.446 513.866 366.022 514.071 366.452 514.481C366.882 514.892 367.097 515.414 367.097 516.049C367.097 516.693 366.877 517.221 366.438 517.631C366.008 518.041 365.437 518.246 364.724 518.246C364.011 518.246 363.435 518.041 362.995 517.631C362.565 517.221 362.351 516.693 362.351 516.049ZM379.255 524.12C378.679 524.042 378.171 524.003 377.731 524.003C376.13 524.003 375.08 524.545 374.582 525.629V536H370.349V520.15H374.348L374.465 522.04C375.314 520.585 376.491 519.857 377.995 519.857C378.464 519.857 378.903 519.921 379.313 520.048L379.255 524.12ZM390.051 536C389.855 535.619 389.714 535.146 389.626 534.579C388.601 535.722 387.268 536.293 385.627 536.293C384.074 536.293 382.785 535.844 381.76 534.945C380.744 534.047 380.236 532.914 380.236 531.547C380.236 529.867 380.856 528.578 382.097 527.68C383.347 526.781 385.148 526.327 387.502 526.317H389.45V525.409C389.45 524.677 389.26 524.091 388.879 523.651C388.508 523.212 387.917 522.992 387.106 522.992C386.394 522.992 385.832 523.163 385.422 523.505C385.021 523.847 384.821 524.315 384.821 524.911H380.588C380.588 523.993 380.871 523.144 381.438 522.362C382.004 521.581 382.805 520.971 383.84 520.531C384.875 520.082 386.037 519.857 387.326 519.857C389.279 519.857 390.827 520.351 391.97 521.337C393.122 522.313 393.698 523.69 393.698 525.468V532.338C393.708 533.842 393.918 534.979 394.328 535.751V536H390.051ZM386.55 533.056C387.175 533.056 387.751 532.919 388.278 532.646C388.806 532.362 389.196 531.986 389.45 531.518V528.793H387.868C385.749 528.793 384.621 529.525 384.484 530.99L384.47 531.239C384.47 531.767 384.655 532.201 385.026 532.543C385.397 532.885 385.905 533.056 386.55 533.056ZM411.232 528.222C411.232 530.761 410.69 532.743 409.606 534.169C408.522 535.585 407.009 536.293 405.065 536.293C403.347 536.293 401.975 535.634 400.949 534.315L400.759 536H396.95V513.5H401.184V521.571C402.16 520.429 403.444 519.857 405.036 519.857C406.97 519.857 408.483 520.57 409.577 521.996C410.681 523.412 411.232 525.409 411.232 527.987V528.222ZM406.999 527.914C406.999 526.312 406.745 525.146 406.237 524.413C405.729 523.671 404.973 523.3 403.967 523.3C402.619 523.3 401.691 523.852 401.184 524.955V531.21C401.701 532.323 402.639 532.88 403.996 532.88C405.363 532.88 406.262 532.206 406.691 530.858C406.896 530.214 406.999 529.232 406.999 527.914ZM418.322 536H414.074V513.5H418.322V536ZM429.118 536.293C426.794 536.293 424.899 535.58 423.435 534.154C421.979 532.729 421.252 530.829 421.252 528.456V528.046C421.252 526.454 421.56 525.033 422.175 523.783C422.79 522.523 423.659 521.557 424.782 520.883C425.915 520.199 427.204 519.857 428.649 519.857C430.817 519.857 432.521 520.541 433.762 521.908C435.012 523.275 435.637 525.214 435.637 527.724V529.452H425.544C425.681 530.487 426.091 531.317 426.774 531.942C427.468 532.567 428.342 532.88 429.396 532.88C431.027 532.88 432.302 532.289 433.22 531.107L435.3 533.437C434.665 534.335 433.806 535.038 432.722 535.546C431.638 536.044 430.437 536.293 429.118 536.293ZM428.635 523.285C427.795 523.285 427.111 523.568 426.584 524.135C426.066 524.701 425.734 525.512 425.588 526.566H431.477V526.229C431.457 525.292 431.203 524.569 430.715 524.062C430.227 523.544 429.533 523.285 428.635 523.285Z" fill="#0043EF"/>
<path d="M345.86 345.672V359.72C345.86 362.054 345.128 363.899 343.663 365.257C342.208 366.614 340.216 367.293 337.687 367.293C335.196 367.293 333.219 366.634 331.754 365.315C330.289 363.997 329.542 362.186 329.513 359.881V345.672H333.907V359.749C333.907 361.146 334.239 362.166 334.903 362.811C335.577 363.445 336.505 363.763 337.687 363.763C340.157 363.763 341.412 362.464 341.451 359.866V345.672H345.86ZM357.77 362.62C357.77 362.103 357.511 361.697 356.993 361.404C356.485 361.102 355.665 360.833 354.532 360.599C350.763 359.808 348.878 358.206 348.878 355.794C348.878 354.388 349.459 353.216 350.621 352.278C351.793 351.331 353.321 350.857 355.206 350.857C357.218 350.857 358.824 351.331 360.025 352.278C361.236 353.226 361.842 354.456 361.842 355.97H357.608C357.608 355.364 357.413 354.866 357.022 354.476C356.632 354.075 356.021 353.875 355.191 353.875C354.479 353.875 353.927 354.036 353.536 354.358C353.146 354.681 352.95 355.091 352.95 355.589C352.95 356.058 353.17 356.438 353.609 356.731C354.059 357.015 354.811 357.264 355.865 357.479C356.92 357.684 357.809 357.918 358.531 358.182C360.768 359.002 361.886 360.423 361.886 362.444C361.886 363.89 361.266 365.062 360.025 365.96C358.785 366.849 357.184 367.293 355.221 367.293C353.893 367.293 352.711 367.059 351.676 366.59C350.65 366.111 349.845 365.462 349.259 364.642C348.673 363.812 348.38 362.918 348.38 361.961H352.394C352.433 362.713 352.711 363.289 353.229 363.689C353.746 364.09 354.439 364.29 355.309 364.29C356.119 364.29 356.729 364.139 357.14 363.836C357.56 363.523 357.77 363.118 357.77 362.62ZM373.81 367C373.614 366.619 373.473 366.146 373.385 365.579C372.359 366.722 371.026 367.293 369.386 367.293C367.833 367.293 366.544 366.844 365.519 365.945C364.503 365.047 363.995 363.914 363.995 362.547C363.995 360.867 364.615 359.578 365.855 358.68C367.105 357.781 368.907 357.327 371.261 357.317H373.209V356.409C373.209 355.677 373.019 355.091 372.638 354.651C372.267 354.212 371.676 353.992 370.865 353.992C370.152 353.992 369.591 354.163 369.181 354.505C368.78 354.847 368.58 355.315 368.58 355.911H364.347C364.347 354.993 364.63 354.144 365.196 353.362C365.763 352.581 366.563 351.971 367.599 351.531C368.634 351.082 369.796 350.857 371.085 350.857C373.038 350.857 374.586 351.351 375.729 352.337C376.881 353.313 377.457 354.69 377.457 356.468V363.338C377.467 364.842 377.677 365.979 378.087 366.751V367H373.81ZM370.309 364.056C370.934 364.056 371.51 363.919 372.037 363.646C372.564 363.362 372.955 362.986 373.209 362.518V359.793H371.627C369.508 359.793 368.38 360.525 368.243 361.99L368.229 362.239C368.229 362.767 368.414 363.201 368.785 363.543C369.156 363.885 369.664 364.056 370.309 364.056ZM394.991 359.222C394.991 361.761 394.449 363.743 393.365 365.169C392.281 366.585 390.768 367.293 388.824 367.293C387.105 367.293 385.733 366.634 384.708 365.315L384.518 367H380.709V344.5H384.942V352.571C385.919 351.429 387.203 350.857 388.795 350.857C390.729 350.857 392.242 351.57 393.336 352.996C394.439 354.412 394.991 356.409 394.991 358.987V359.222ZM390.758 358.914C390.758 357.312 390.504 356.146 389.996 355.413C389.488 354.671 388.731 354.3 387.726 354.3C386.378 354.3 385.45 354.852 384.942 355.955V362.21C385.46 363.323 386.397 363.88 387.755 363.88C389.122 363.88 390.021 363.206 390.45 361.858C390.655 361.214 390.758 360.232 390.758 358.914ZM402.081 367H397.833V344.5H402.081V367ZM412.877 367.293C410.553 367.293 408.658 366.58 407.193 365.154C405.738 363.729 405.011 361.829 405.011 359.456V359.046C405.011 357.454 405.318 356.033 405.934 354.783C406.549 353.523 407.418 352.557 408.541 351.883C409.674 351.199 410.963 350.857 412.408 350.857C414.576 350.857 416.28 351.541 417.521 352.908C418.771 354.275 419.396 356.214 419.396 358.724V360.452H409.303C409.439 361.487 409.85 362.317 410.533 362.942C411.227 363.567 412.101 363.88 413.155 363.88C414.786 363.88 416.061 363.289 416.979 362.107L419.059 364.437C418.424 365.335 417.564 366.038 416.48 366.546C415.396 367.044 414.195 367.293 412.877 367.293ZM412.394 354.285C411.554 354.285 410.87 354.568 410.343 355.135C409.825 355.701 409.493 356.512 409.347 357.566H415.235V357.229C415.216 356.292 414.962 355.569 414.474 355.062C413.985 354.544 413.292 354.285 412.394 354.285Z" fill="#0043EF"/>
<path d="M314.86 189.896C314.694 192.19 313.845 193.997 312.312 195.315C310.788 196.634 308.776 197.293 306.276 197.293C303.542 197.293 301.389 196.375 299.816 194.539C298.254 192.693 297.473 190.164 297.473 186.951V185.647C297.473 183.597 297.834 181.79 298.557 180.228C299.279 178.665 300.31 177.469 301.647 176.639C302.995 175.799 304.558 175.379 306.335 175.379C308.796 175.379 310.778 176.038 312.282 177.356C313.786 178.675 314.655 180.525 314.89 182.908H310.495C310.388 181.531 310.002 180.535 309.338 179.92C308.684 179.295 307.683 178.982 306.335 178.982C304.87 178.982 303.771 179.51 303.039 180.564C302.316 181.609 301.945 183.235 301.926 185.442V187.054C301.926 189.358 302.272 191.043 302.966 192.107C303.669 193.172 304.772 193.704 306.276 193.704C307.634 193.704 308.645 193.396 309.309 192.781C309.982 192.156 310.368 191.194 310.466 189.896H314.86ZM316.809 188.929C316.809 187.356 317.111 185.955 317.717 184.725C318.322 183.494 319.191 182.542 320.324 181.868C321.467 181.194 322.79 180.857 324.294 180.857C326.433 180.857 328.176 181.512 329.523 182.82C330.881 184.129 331.638 185.906 331.794 188.152L331.823 189.236C331.823 191.668 331.145 193.621 329.787 195.096C328.43 196.561 326.608 197.293 324.323 197.293C322.038 197.293 320.212 196.561 318.845 195.096C317.487 193.631 316.809 191.639 316.809 189.119V188.929ZM321.042 189.236C321.042 190.74 321.325 191.893 321.892 192.693C322.458 193.484 323.269 193.88 324.323 193.88C325.349 193.88 326.149 193.489 326.726 192.708C327.302 191.917 327.59 190.657 327.59 188.929C327.59 187.454 327.302 186.312 326.726 185.501C326.149 184.69 325.339 184.285 324.294 184.285C323.259 184.285 322.458 184.69 321.892 185.501C321.325 186.302 321.042 187.547 321.042 189.236ZM338.4 181.15L338.532 182.923C339.655 181.546 341.174 180.857 343.088 180.857C345.129 180.857 346.53 181.663 347.292 183.274C348.405 181.663 349.992 180.857 352.053 180.857C353.771 180.857 355.051 181.36 355.891 182.366C356.73 183.362 357.15 184.866 357.15 186.878V197H352.902V186.893C352.902 185.994 352.727 185.34 352.375 184.93C352.023 184.51 351.403 184.3 350.515 184.3C349.245 184.3 348.366 184.905 347.878 186.116L347.893 197H343.659V186.907C343.659 185.989 343.479 185.325 343.117 184.915C342.756 184.505 342.141 184.3 341.271 184.3C340.07 184.3 339.201 184.798 338.664 185.794V197H334.431V181.15H338.4ZM374.685 189.222C374.685 191.663 374.128 193.621 373.015 195.096C371.911 196.561 370.417 197.293 368.532 197.293C366.931 197.293 365.637 196.736 364.65 195.623V203.094H360.417V181.15H364.343L364.489 182.703C365.515 181.473 366.853 180.857 368.503 180.857C370.456 180.857 371.975 181.58 373.059 183.025C374.143 184.471 374.685 186.463 374.685 189.002V189.222ZM370.451 188.914C370.451 187.439 370.188 186.302 369.66 185.501C369.143 184.7 368.386 184.3 367.39 184.3C366.062 184.3 365.148 184.808 364.65 185.823V192.312C365.168 193.357 366.091 193.88 367.419 193.88C369.44 193.88 370.451 192.225 370.451 188.914ZM384.616 197.293C382.292 197.293 380.397 196.58 378.933 195.154C377.478 193.729 376.75 191.829 376.75 189.456V189.046C376.75 187.454 377.058 186.033 377.673 184.783C378.288 183.523 379.157 182.557 380.28 181.883C381.413 181.199 382.702 180.857 384.147 180.857C386.315 180.857 388.02 181.541 389.26 182.908C390.51 184.275 391.135 186.214 391.135 188.724V190.452H381.042C381.179 191.487 381.589 192.317 382.272 192.942C382.966 193.567 383.84 193.88 384.895 193.88C386.525 193.88 387.8 193.289 388.718 192.107L390.798 194.437C390.163 195.335 389.304 196.038 388.22 196.546C387.136 197.044 385.935 197.293 384.616 197.293ZM384.133 184.285C383.293 184.285 382.609 184.568 382.082 185.135C381.564 185.701 381.232 186.512 381.086 187.566H386.975V187.229C386.955 186.292 386.701 185.569 386.213 185.062C385.725 184.544 385.031 184.285 384.133 184.285ZM398.02 197H393.771V174.5H398.02V197ZM405.988 197H401.74V174.5H405.988V197ZM413.957 197H409.709V181.15H413.957V197ZM409.46 177.049C409.46 176.414 409.67 175.892 410.09 175.481C410.52 175.071 411.101 174.866 411.833 174.866C412.556 174.866 413.132 175.071 413.562 175.481C413.991 175.892 414.206 176.414 414.206 177.049C414.206 177.693 413.986 178.221 413.547 178.631C413.117 179.041 412.546 179.246 411.833 179.246C411.12 179.246 410.544 179.041 410.104 178.631C409.675 178.221 409.46 177.693 409.46 177.049ZM421.354 181.15L421.486 182.981C422.619 181.565 424.138 180.857 426.042 180.857C427.722 180.857 428.972 181.351 429.792 182.337C430.612 183.323 431.032 184.798 431.052 186.761V197H426.818V186.863C426.818 185.965 426.623 185.315 426.232 184.915C425.842 184.505 425.192 184.3 424.284 184.3C423.093 184.3 422.199 184.808 421.604 185.823V197H417.37V181.15H421.354ZM433.659 188.958C433.659 186.526 434.235 184.568 435.388 183.084C436.55 181.6 438.112 180.857 440.075 180.857C441.813 180.857 443.166 181.453 444.133 182.645L444.309 181.15H448.146V196.473C448.146 197.859 447.829 199.065 447.194 200.091C446.569 201.116 445.686 201.897 444.543 202.435C443.4 202.972 442.062 203.24 440.529 203.24C439.367 203.24 438.234 203.006 437.131 202.537C436.027 202.078 435.192 201.482 434.626 200.75L436.501 198.172C437.556 199.354 438.835 199.944 440.339 199.944C441.462 199.944 442.336 199.642 442.961 199.036C443.586 198.44 443.898 197.591 443.898 196.487V195.638C442.922 196.741 441.638 197.293 440.046 197.293C438.142 197.293 436.599 196.551 435.417 195.066C434.245 193.572 433.659 191.595 433.659 189.134V188.958ZM437.893 189.266C437.893 190.701 438.181 191.829 438.757 192.649C439.333 193.46 440.124 193.865 441.13 193.865C442.419 193.865 443.342 193.382 443.898 192.415V185.75C443.332 184.783 442.419 184.3 441.159 184.3C440.144 184.3 439.343 184.715 438.757 185.545C438.181 186.375 437.893 187.615 437.893 189.266Z" fill="#0043EF"/>
<path d="M320.855 18.7568H312.418V24.4697H322.32V28H308.023V6.67188H322.291V10.2314H312.418V15.3145H320.855V18.7568ZM328.59 12.1504L328.722 13.9229C329.845 12.5459 331.363 11.8574 333.277 11.8574C335.318 11.8574 336.72 12.6631 337.481 14.2744C338.595 12.6631 340.182 11.8574 342.242 11.8574C343.961 11.8574 345.24 12.3604 346.08 13.3662C346.92 14.3623 347.34 15.8662 347.34 17.8779V28H343.092V17.8926C343.092 16.9941 342.916 16.3398 342.564 15.9297C342.213 15.5098 341.593 15.2998 340.704 15.2998C339.435 15.2998 338.556 15.9053 338.067 17.1162L338.082 28H333.849V17.9072C333.849 16.9893 333.668 16.3252 333.307 15.915C332.945 15.5049 332.33 15.2998 331.461 15.2998C330.26 15.2998 329.391 15.7979 328.854 16.7939V28H324.62V12.1504H328.59ZM349.947 19.9287C349.947 18.3564 350.25 16.9551 350.855 15.7246C351.461 14.4941 352.33 13.542 353.463 12.8682C354.605 12.1943 355.929 11.8574 357.433 11.8574C359.571 11.8574 361.314 12.5117 362.662 13.8203C364.02 15.1289 364.776 16.9062 364.933 19.1523L364.962 20.2363C364.962 22.668 364.283 24.6211 362.926 26.0957C361.568 27.5605 359.747 28.293 357.462 28.293C355.177 28.293 353.351 27.5605 351.983 26.0957C350.626 24.6309 349.947 22.6387 349.947 20.1191V19.9287ZM354.181 20.2363C354.181 21.7402 354.464 22.8926 355.03 23.6934C355.597 24.4844 356.407 24.8799 357.462 24.8799C358.487 24.8799 359.288 24.4893 359.864 23.708C360.44 22.917 360.729 21.6572 360.729 19.9287C360.729 18.4541 360.44 17.3115 359.864 16.501C359.288 15.6904 358.478 15.2852 357.433 15.2852C356.397 15.2852 355.597 15.6904 355.03 16.501C354.464 17.3018 354.181 18.5469 354.181 20.2363ZM372.638 8.25391V12.1504H375.348V15.2559H372.638V23.166C372.638 23.752 372.75 24.1719 372.975 24.4258C373.199 24.6797 373.629 24.8066 374.264 24.8066C374.732 24.8066 375.147 24.7725 375.509 24.7041V27.9121C374.679 28.166 373.824 28.293 372.945 28.293C369.977 28.293 368.463 26.7939 368.404 23.7959V15.2559H366.09V12.1504H368.404V8.25391H372.638ZM382.174 28H377.926V12.1504H382.174V28ZM377.677 8.04883C377.677 7.41406 377.887 6.8916 378.307 6.48145C378.736 6.07129 379.317 5.86621 380.05 5.86621C380.772 5.86621 381.349 6.07129 381.778 6.48145C382.208 6.8916 382.423 7.41406 382.423 8.04883C382.423 8.69336 382.203 9.2207 381.764 9.63086C381.334 10.041 380.763 10.2461 380.05 10.2461C379.337 10.2461 378.761 10.041 378.321 9.63086C377.892 9.2207 377.677 8.69336 377.677 8.04883ZM385.016 19.9287C385.016 18.3564 385.318 16.9551 385.924 15.7246C386.529 14.4941 387.398 13.542 388.531 12.8682C389.674 12.1943 390.997 11.8574 392.501 11.8574C394.64 11.8574 396.383 12.5117 397.73 13.8203C399.088 15.1289 399.845 16.9062 400.001 19.1523L400.03 20.2363C400.03 22.668 399.352 24.6211 397.994 26.0957C396.637 27.5605 394.815 28.293 392.53 28.293C390.245 28.293 388.419 27.5605 387.052 26.0957C385.694 24.6309 385.016 22.6387 385.016 20.1191V19.9287ZM389.249 20.2363C389.249 21.7402 389.532 22.8926 390.099 23.6934C390.665 24.4844 391.476 24.8799 392.53 24.8799C393.556 24.8799 394.356 24.4893 394.933 23.708C395.509 22.917 395.797 21.6572 395.797 19.9287C395.797 18.4541 395.509 17.3115 394.933 16.501C394.356 15.6904 393.546 15.2852 392.501 15.2852C391.466 15.2852 390.665 15.6904 390.099 16.501C389.532 17.3018 389.249 18.5469 389.249 20.2363ZM406.534 12.1504L406.666 13.9814C407.799 12.5654 409.317 11.8574 411.222 11.8574C412.901 11.8574 414.151 12.3506 414.972 13.3369C415.792 14.3232 416.212 15.7979 416.231 17.7607V28H411.998V17.8633C411.998 16.9648 411.803 16.3154 411.412 15.915C411.021 15.5049 410.372 15.2998 409.464 15.2998C408.272 15.2998 407.379 15.8076 406.783 16.8232V28H402.55V12.1504H406.534ZM428.639 28C428.443 27.6191 428.302 27.1455 428.214 26.5791C427.188 27.7217 425.855 28.293 424.215 28.293C422.662 28.293 421.373 27.8438 420.348 26.9453C419.332 26.0469 418.824 24.9141 418.824 23.5469C418.824 21.8672 419.444 20.5781 420.685 19.6797C421.935 18.7812 423.736 18.3271 426.09 18.3174H428.038V17.4092C428.038 16.6768 427.848 16.0908 427.467 15.6514C427.096 15.2119 426.505 14.9922 425.694 14.9922C424.981 14.9922 424.42 15.1631 424.01 15.5049C423.609 15.8467 423.409 16.3154 423.409 16.9111H419.176C419.176 15.9932 419.459 15.1436 420.025 14.3623C420.592 13.5811 421.393 12.9707 422.428 12.5312C423.463 12.082 424.625 11.8574 425.914 11.8574C427.867 11.8574 429.415 12.3506 430.558 13.3369C431.71 14.3135 432.286 15.6904 432.286 17.4678V24.3379C432.296 25.8418 432.506 26.9795 432.916 27.751V28H428.639ZM425.138 25.0557C425.763 25.0557 426.339 24.9189 426.866 24.6455C427.394 24.3623 427.784 23.9863 428.038 23.5176V20.793H426.456C424.337 20.793 423.209 21.5254 423.072 22.9902L423.058 23.2393C423.058 23.7666 423.243 24.2012 423.614 24.543C423.985 24.8848 424.493 25.0557 425.138 25.0557ZM440.006 28H435.758V5.5H440.006V28Z" fill="#0043EF"/>
</svg>
