<svg width="325" height="286" viewBox="0 0 325 286" fill="none" xmlns="http://www.w3.org/2000/svg">
<g clip-path="url(#clip0)">
<path d="M28.3249 15.7365H26.3421C25.7534 13.4564 24.5369 11.3871 22.8309 9.76377C21.1248 8.14045 18.9977 7.02821 16.6911 6.55343C14.3845 6.07865 11.991 6.26037 9.78254 7.07793C7.57408 7.8955 5.63922 9.31614 4.19782 11.1784C2.75642 13.0407 1.86627 15.2699 1.62853 17.6128C1.39078 19.9557 1.81497 22.3184 2.8529 24.4322C3.89082 26.5461 5.50086 28.3264 7.50007 29.571C9.49928 30.8155 11.8075 31.4743 14.1624 31.4726H28.3249C30.4116 31.4726 32.4129 30.6436 33.8884 29.1681C35.3639 27.6926 36.1929 25.6913 36.1929 23.6046C36.1929 21.5178 35.3639 19.5166 33.8884 18.041C32.4129 16.5655 30.4116 15.7365 28.3249 15.7365Z" stroke="black" stroke-width="3.14721" stroke-linecap="round" stroke-linejoin="round"/>
</g>
<g clip-path="url(#clip1)">
<path d="M84.5888 29.8984V33.0456" stroke="black" stroke-width="3.14721" stroke-linecap="round" stroke-linejoin="round"/>
<path d="M84.5888 20.457V23.6042" stroke="black" stroke-width="3.14721" stroke-linecap="round" stroke-linejoin="round"/>
<path d="M97.1777 29.8984V33.0456" stroke="black" stroke-width="3.14721" stroke-linecap="round" stroke-linejoin="round"/>
<path d="M97.1777 20.457V23.6042" stroke="black" stroke-width="3.14721" stroke-linecap="round" stroke-linejoin="round"/>
<path d="M90.8832 33.0449V36.1921" stroke="black" stroke-width="3.14721" stroke-linecap="round" stroke-linejoin="round"/>
<path d="M90.8832 23.6035V26.7507" stroke="black" stroke-width="3.14721" stroke-linecap="round" stroke-linejoin="round"/>
<path d="M103.472 26.0905C105.126 25.366 106.481 24.0945 107.309 22.4894C108.136 20.8843 108.387 19.0433 108.018 17.2755C107.649 15.5077 106.683 13.9206 105.282 12.7807C103.881 11.6408 102.131 11.0175 100.325 11.0154H98.3421C97.8433 9.08382 96.8926 7.29846 95.5684 5.80645C94.2441 4.31444 92.5842 3.15851 90.7255 2.43393C88.8668 1.70936 86.8625 1.43689 84.8779 1.63898C82.8932 1.84108 80.985 2.51195 79.3105 3.59629C77.636 4.68064 76.2432 6.14742 75.2468 7.87573C74.2505 9.60404 73.6791 11.5444 73.5799 13.5369C73.4807 15.5293 73.8564 17.5168 74.6761 19.3356C75.4958 21.1543 76.7359 22.7523 78.2944 23.9976" stroke="black" stroke-width="3.14721" stroke-linecap="round" stroke-linejoin="round"/>
</g>
<g clip-path="url(#clip2)">
<path d="M174.898 26.5935C176.811 26.2052 178.51 25.1202 179.668 23.5493C180.825 21.9783 181.357 20.0334 181.161 18.0921C180.965 16.1508 180.054 14.3516 178.606 13.0437C177.158 11.7359 175.276 11.0128 173.325 11.0148H171.342C170.821 8.99635 169.806 7.13898 168.39 5.60943C166.973 4.07988 165.199 2.92603 163.227 2.25148C161.254 1.57692 159.145 1.40278 157.089 1.74469C155.032 2.08659 153.093 2.93384 151.445 4.21037C149.797 5.4869 148.491 7.15274 147.646 9.05833C146.801 10.9639 146.442 13.0496 146.602 15.1282C146.761 17.2067 147.435 19.213 148.562 20.967C149.688 22.7209 151.233 24.1677 153.057 25.1772" stroke="black" stroke-width="3.14721" stroke-linecap="round" stroke-linejoin="round"/>
<path d="M165.457 17.3105L159.162 26.7522H168.604L162.31 36.1938" stroke="black" stroke-width="3.14721" stroke-linecap="round" stroke-linejoin="round"/>
</g>
<g clip-path="url(#clip3)">
<path d="M25.1777 85.457V98.0459" stroke="black" stroke-width="3.14721" stroke-linecap="round" stroke-linejoin="round"/>
<path d="M12.5888 85.457V98.0459" stroke="black" stroke-width="3.14721" stroke-linecap="round" stroke-linejoin="round"/>
<path d="M18.8832 88.6035V101.192" stroke="black" stroke-width="3.14721" stroke-linecap="round" stroke-linejoin="round"/>
<path d="M31.4721 91.0905C33.1263 90.366 34.481 89.0945 35.3087 87.4894C36.1363 85.8843 36.3867 84.0433 36.0176 82.2755C35.6485 80.5077 34.6825 78.9206 33.2818 77.7807C31.8811 76.6408 30.1308 76.0175 28.3249 76.0154H26.3421C25.8433 74.0838 24.8926 72.2985 23.5684 70.8064C22.2441 69.3144 20.5842 68.1585 18.7255 67.4339C16.8668 66.7094 14.8626 66.4369 12.8779 66.639C10.8932 66.8411 8.98499 67.5119 7.31049 68.5963C5.63599 69.6806 4.24317 71.1474 3.24683 72.8757C2.25049 74.604 1.67916 76.5444 1.57992 78.5369C1.48069 80.5293 1.8564 82.5168 2.67609 84.3356C3.49577 86.1543 4.73596 87.7523 6.29442 88.9976" stroke="black" stroke-width="3.14721" stroke-linecap="round" stroke-linejoin="round"/>
</g>
<g clip-path="url(#clip4)">
<path d="M103.472 92.6628C105.126 91.9383 106.481 90.6668 107.309 89.0617C108.136 87.4565 108.387 85.6156 108.018 83.8477C107.649 82.0799 106.683 80.4929 105.282 79.353C103.881 78.2131 102.131 77.5898 100.325 77.5877H98.3421C97.8433 75.6561 96.8926 73.8707 95.5684 72.3787C94.2441 70.8867 92.5842 69.7308 90.7255 69.0062C88.8668 68.2816 86.8625 68.0092 84.8779 68.2112C82.8932 68.4133 80.985 69.0842 79.3105 70.1686C77.636 71.2529 76.2432 72.7197 75.2468 74.448C74.2505 76.1763 73.6791 78.1167 73.5799 80.1091C73.4807 82.1016 73.8564 84.0891 74.6761 85.9079C75.4958 87.7266 76.7359 89.3245 78.2944 90.5699" stroke="black" stroke-width="3.14721" stroke-linecap="round" stroke-linejoin="round"/>
<path d="M84.5888 90.1777H84.6046" stroke="black" stroke-width="3.14721" stroke-linecap="round" stroke-linejoin="round"/>
<path d="M84.5888 96.4727H84.6046" stroke="black" stroke-width="3.14721" stroke-linecap="round" stroke-linejoin="round"/>
<path d="M90.8832 93.3242H90.899" stroke="black" stroke-width="3.14721" stroke-linecap="round" stroke-linejoin="round"/>
<path d="M90.8832 99.6191H90.899" stroke="black" stroke-width="3.14721" stroke-linecap="round" stroke-linejoin="round"/>
<path d="M97.1777 90.1777H97.1934" stroke="black" stroke-width="3.14721" stroke-linecap="round" stroke-linejoin="round"/>
<path d="M97.1777 96.4727H97.1934" stroke="black" stroke-width="3.14721" stroke-linecap="round" stroke-linejoin="round"/>
</g>
<path d="M18.8832 134.232L27.7898 143.139C29.5512 144.899 30.751 147.142 31.2375 149.585C31.7239 152.027 31.475 154.558 30.5225 156.859C29.5699 159.16 27.9564 161.127 25.886 162.51C23.8156 163.894 21.3813 164.632 18.8911 164.632C16.4009 164.632 13.9667 163.894 11.8963 162.51C9.82587 161.127 8.21234 159.16 7.25976 156.859C6.30718 154.558 6.05837 152.027 6.54478 149.585C7.03119 147.142 8.23098 144.899 9.99238 143.139L18.8832 134.232Z" stroke="black" stroke-width="3.14721" stroke-linecap="round" stroke-linejoin="round"/>
<g clip-path="url(#clip5)">
<path d="M178.046 145.737C178.046 156.752 163.883 166.194 163.883 166.194C163.883 166.194 149.721 156.752 149.721 145.737C149.721 141.981 151.213 138.378 153.869 135.722C156.525 133.066 160.127 131.574 163.883 131.574C167.639 131.574 171.242 133.066 173.898 135.722C176.554 138.378 178.046 141.981 178.046 145.737Z" stroke="black" stroke-width="3.14721" stroke-linecap="round" stroke-linejoin="round"/>
<path d="M163.883 150.457C166.49 150.457 168.604 148.344 168.604 145.736C168.604 143.129 166.49 141.016 163.883 141.016C161.276 141.016 159.162 143.129 159.162 145.736C159.162 148.344 161.276 150.457 163.883 150.457Z" stroke="black" stroke-width="3.14721" stroke-linecap="round" stroke-linejoin="round"/>
</g>
<g clip-path="url(#clip6)">
<path d="M73.5736 139.441V164.619L84.5888 158.324L97.1777 164.619L108.193 158.324V133.146L97.1777 139.441L84.5888 133.146L73.5736 139.441Z" stroke="black" stroke-width="3.14721" stroke-linecap="round" stroke-linejoin="round"/>
<path d="M84.5888 133.146V158.324" stroke="black" stroke-width="3.14721" stroke-linecap="round" stroke-linejoin="round"/>
<path d="M97.1777 139.441V164.619" stroke="black" stroke-width="3.14721" stroke-linecap="round" stroke-linejoin="round"/>
</g>
<g clip-path="url(#clip7)">
<path d="M163.883 91.7517C168.229 91.7517 171.751 88.229 171.751 83.8836C171.751 79.5383 168.229 76.0156 163.883 76.0156C159.538 76.0156 156.015 79.5383 156.015 83.8836C156.015 88.229 159.538 91.7517 163.883 91.7517Z" stroke="black" stroke-width="3.14721" stroke-linecap="round" stroke-linejoin="round"/>
<path d="M163.883 66.5742V69.7214" stroke="black" stroke-width="3.14721" stroke-linecap="round" stroke-linejoin="round"/>
<path d="M163.883 98.0449V101.192" stroke="black" stroke-width="3.14721" stroke-linecap="round" stroke-linejoin="round"/>
<path d="M151.641 71.6426L153.875 73.8771" stroke="black" stroke-width="3.14721" stroke-linecap="round" stroke-linejoin="round"/>
<path d="M173.891 93.8906L176.126 96.1251" stroke="black" stroke-width="3.14721" stroke-linecap="round" stroke-linejoin="round"/>
<path d="M146.574 83.8828H149.721" stroke="black" stroke-width="3.14721" stroke-linecap="round" stroke-linejoin="round"/>
<path d="M178.046 83.8828H181.193" stroke="black" stroke-width="3.14721" stroke-linecap="round" stroke-linejoin="round"/>
<path d="M151.641 96.1251L153.875 93.8906" stroke="black" stroke-width="3.14721" stroke-linecap="round" stroke-linejoin="round"/>
<path d="M173.891 73.8771L176.126 71.6426" stroke="black" stroke-width="3.14721" stroke-linecap="round" stroke-linejoin="round"/>
</g>
<path d="M89.3096 218.898C96.2623 218.898 101.898 213.262 101.898 206.31C101.898 199.357 96.2623 193.721 89.3096 193.721C82.357 193.721 76.7208 199.357 76.7208 206.31C76.7208 213.262 82.357 218.898 89.3096 218.898Z" stroke="black" stroke-width="3.14721" stroke-linecap="round" stroke-linejoin="round"/>
<path d="M105.046 222.046L98.2005 215.201" stroke="black" stroke-width="3.14721" stroke-linecap="round" stroke-linejoin="round"/>
<path d="M29.8985 266.883H7.86802" stroke="black" stroke-width="3.14721" stroke-linecap="round" stroke-linejoin="round"/>
<path d="M18.8832 277.898L7.86802 266.882L18.8832 255.867" stroke="black" stroke-width="3.14721" stroke-linecap="round" stroke-linejoin="round"/>
<g clip-path="url(#clip8)">
<path d="M313.751 28.3251C313.751 26.2383 312.922 24.2371 311.447 22.7615C309.971 21.286 307.97 20.457 305.883 20.457C303.797 20.457 301.795 21.286 300.32 22.7615C298.844 24.2371 298.015 26.2383 298.015 28.3251" stroke="black" stroke-width="3.14721" stroke-linecap="round" stroke-linejoin="round"/>
<path d="M305.883 3.14648V14.1617" stroke="black" stroke-width="3.14721" stroke-linecap="round" stroke-linejoin="round"/>
<path d="M293.641 16.084L295.875 18.3185" stroke="black" stroke-width="3.14721" stroke-linecap="round" stroke-linejoin="round"/>
<path d="M288.574 28.3242H291.721" stroke="black" stroke-width="3.14721" stroke-linecap="round" stroke-linejoin="round"/>
<path d="M320.046 28.3242H323.193" stroke="black" stroke-width="3.14721" stroke-linecap="round" stroke-linejoin="round"/>
<path d="M315.891 18.3185L318.126 16.084" stroke="black" stroke-width="3.14721" stroke-linecap="round" stroke-linejoin="round"/>
<path d="M323.193 34.6191H288.574" stroke="black" stroke-width="3.14721" stroke-linecap="round" stroke-linejoin="round"/>
<path d="M299.589 9.4409L305.883 3.14648L312.178 9.4409" stroke="black" stroke-width="3.14721" stroke-linecap="round" stroke-linejoin="round"/>
</g>
<g clip-path="url(#clip9)">
<path d="M22.0305 212.227V194.508C22.0305 193.465 21.616 192.464 20.8782 191.726C20.1404 190.989 19.1398 190.574 18.0964 190.574C17.0531 190.574 16.0525 190.989 15.3147 191.726C14.5769 192.464 14.1624 193.465 14.1624 194.508V212.227C12.8993 213.071 11.941 214.299 11.4292 215.729C10.9174 217.16 10.8791 218.717 11.3201 220.17C11.7611 221.624 12.6579 222.898 13.8781 223.803C15.0984 224.708 16.5773 225.196 18.0964 225.196C19.6156 225.196 21.0945 224.708 22.3147 223.803C23.535 222.898 24.4318 221.624 24.8728 220.17C25.3137 218.717 25.2755 217.16 24.7637 215.729C24.2519 214.299 23.2936 213.071 22.0305 212.227Z" stroke="black" stroke-width="3.14721" stroke-linecap="round" stroke-linejoin="round"/>
</g>
<path d="M245.898 195.295H223.868C222.13 195.295 220.721 196.704 220.721 198.442V220.473C220.721 222.211 222.13 223.62 223.868 223.62H245.898C247.637 223.62 249.046 222.211 249.046 220.473V198.442C249.046 196.704 247.637 195.295 245.898 195.295Z" stroke="black" stroke-width="3.14721" stroke-linecap="round" stroke-linejoin="round"/>
<path d="M241.178 192.146V198.441" stroke="black" stroke-width="3.14721" stroke-linecap="round" stroke-linejoin="round"/>
<path d="M228.589 192.146V198.441" stroke="black" stroke-width="3.14721" stroke-linecap="round" stroke-linejoin="round"/>
<path d="M220.721 204.736H249.046" stroke="black" stroke-width="3.14721" stroke-linecap="round" stroke-linejoin="round"/>
<path d="M250.619 18.8831H244.325L239.604 33.0456L230.162 4.7207L225.442 18.8831H219.147" stroke="black" stroke-width="3.14721" stroke-linecap="round" stroke-linejoin="round"/>
<path d="M310.132 204.913C309.844 205.207 309.682 205.602 309.682 206.014C309.682 206.426 309.844 206.822 310.132 207.116L312.65 209.634C312.944 209.922 313.339 210.083 313.751 210.083C314.163 210.083 314.559 209.922 314.853 209.634L320.785 203.701C321.577 205.45 321.816 207.398 321.472 209.286C321.128 211.174 320.217 212.913 318.86 214.27C317.502 215.627 315.764 216.538 313.876 216.882C311.988 217.226 310.039 216.987 308.291 216.196L297.417 227.069C296.791 227.695 295.942 228.047 295.057 228.047C294.172 228.047 293.322 227.695 292.696 227.069C292.07 226.443 291.719 225.594 291.719 224.709C291.719 223.823 292.07 222.974 292.696 222.348L303.57 211.475C302.779 209.726 302.539 207.778 302.883 205.89C303.227 204.002 304.139 202.263 305.496 200.906C306.853 199.549 308.591 198.638 310.48 198.294C312.368 197.95 314.316 198.189 316.064 198.98L310.148 204.897L310.132 204.913Z" stroke="black" stroke-width="3.14721" stroke-linecap="round" stroke-linejoin="round"/>
<path d="M156.015 200.016L171.751 215.752" stroke="black" stroke-width="3.14721" stroke-linecap="round" stroke-linejoin="round"/>
<path d="M171.751 200.016V215.752H156.015" stroke="black" stroke-width="3.14721" stroke-linecap="round" stroke-linejoin="round"/>
<path d="M315.325 142.588C315.325 140.084 314.33 137.683 312.559 135.912C310.789 134.141 308.387 133.146 305.883 133.146C303.379 133.146 300.978 134.141 299.207 135.912C297.436 137.683 296.442 140.084 296.442 142.588C296.442 153.603 291.721 156.751 291.721 156.751H320.046C320.046 156.751 315.325 153.603 315.325 142.588Z" stroke="black" stroke-width="3.14721" stroke-linecap="round" stroke-linejoin="round"/>
<path d="M308.606 163.045C308.329 163.522 307.932 163.918 307.454 164.193C306.976 164.468 306.435 164.613 305.883 164.613C305.332 164.613 304.79 164.468 304.312 164.193C303.835 163.918 303.438 163.522 303.161 163.045" stroke="black" stroke-width="3.14721" stroke-linecap="round" stroke-linejoin="round"/>
<g clip-path="url(#clip10)">
<path d="M313.751 93.3251C313.751 91.2383 312.922 89.2371 311.447 87.7615C309.971 86.286 307.97 85.457 305.883 85.457C303.797 85.457 301.795 86.286 300.32 87.7615C298.844 89.2371 298.015 91.2383 298.015 93.3251" stroke="black" stroke-width="3.14721" stroke-linecap="round" stroke-linejoin="round"/>
<path d="M305.883 79.1617V68.1465" stroke="black" stroke-width="3.14721" stroke-linecap="round" stroke-linejoin="round"/>
<path d="M293.641 81.084L295.875 83.3185" stroke="black" stroke-width="3.14721" stroke-linecap="round" stroke-linejoin="round"/>
<path d="M288.574 93.3242H291.721" stroke="black" stroke-width="3.14721" stroke-linecap="round" stroke-linejoin="round"/>
<path d="M320.046 93.3242H323.193" stroke="black" stroke-width="3.14721" stroke-linecap="round" stroke-linejoin="round"/>
<path d="M315.891 83.3185L318.126 81.084" stroke="black" stroke-width="3.14721" stroke-linecap="round" stroke-linejoin="round"/>
<path d="M323.193 99.6191H288.574" stroke="black" stroke-width="3.14721" stroke-linecap="round" stroke-linejoin="round"/>
<path d="M312.178 72.8672L305.883 79.1616L299.589 72.8672" stroke="black" stroke-width="3.14721" stroke-linecap="round" stroke-linejoin="round"/>
</g>
<path d="M234.883 68.1465V74.4409" stroke="black" stroke-width="3.14721" stroke-linecap="round" stroke-linejoin="round"/>
<path d="M234.883 93.3242V99.6186" stroke="black" stroke-width="3.14721" stroke-linecap="round" stroke-linejoin="round"/>
<path d="M223.758 72.7578L228.211 77.2111" stroke="black" stroke-width="3.14721" stroke-linecap="round" stroke-linejoin="round"/>
<path d="M241.555 90.5566L246.009 95.0099" stroke="black" stroke-width="3.14721" stroke-linecap="round" stroke-linejoin="round"/>
<path d="M219.147 83.8828H225.442" stroke="black" stroke-width="3.14721" stroke-linecap="round" stroke-linejoin="round"/>
<path d="M244.325 83.8828H250.619" stroke="black" stroke-width="3.14721" stroke-linecap="round" stroke-linejoin="round"/>
<path d="M223.758 95.0099L228.211 90.5566" stroke="black" stroke-width="3.14721" stroke-linecap="round" stroke-linejoin="round"/>
<path d="M241.555 77.2111L246.009 72.7578" stroke="black" stroke-width="3.14721" stroke-linecap="round" stroke-linejoin="round"/>
<path d="M95.6041 276.325L86.1624 266.883L95.6041 257.441" stroke="black" stroke-width="3.14721" stroke-linecap="round" stroke-linejoin="round"/>
<path d="M249.046 150.126C248.798 152.805 247.793 155.358 246.147 157.486C244.502 159.614 242.285 161.229 239.755 162.143C237.225 163.057 234.487 163.231 231.861 162.646C229.236 162.061 226.831 160.74 224.929 158.837C223.027 156.935 221.706 154.531 221.12 151.905C220.535 149.28 220.709 146.542 221.623 144.012C222.537 141.482 224.153 139.264 226.281 137.619C228.409 135.974 230.962 134.968 233.64 134.721C232.072 136.842 231.317 139.456 231.513 142.087C231.71 144.718 232.844 147.192 234.709 149.057C236.575 150.923 239.048 152.057 241.679 152.253C244.31 152.449 246.924 151.695 249.046 150.126V150.126Z" stroke="black" stroke-width="3.14721" stroke-linecap="round" stroke-linejoin="round"/>
<path d="M159.162 276.325L168.604 266.883L159.162 257.441" stroke="black" stroke-width="3.14721" stroke-linecap="round" stroke-linejoin="round"/>
<defs>
<clipPath id="clip0">
<rect width="37.7665" height="37.7665" fill="white"/>
</clipPath>
<clipPath id="clip1">
<rect width="37.7665" height="37.7665" fill="white" transform="translate(72)"/>
</clipPath>
<clipPath id="clip2">
<rect width="37.7665" height="37.7665" fill="white" transform="translate(145)"/>
</clipPath>
<clipPath id="clip3">
<rect width="37.7665" height="37.7665" fill="white" transform="translate(0 65)"/>
</clipPath>
<clipPath id="clip4">
<rect width="37.7665" height="37.7665" fill="white" transform="translate(72 65)"/>
</clipPath>
<clipPath id="clip5">
<rect width="37.7665" height="37.7665" fill="white" transform="translate(145 130)"/>
</clipPath>
<clipPath id="clip6">
<rect width="37.7665" height="37.7665" fill="white" transform="translate(72 130)"/>
</clipPath>
<clipPath id="clip7">
<rect width="37.7665" height="37.7665" fill="white" transform="translate(145 65)"/>
</clipPath>
<clipPath id="clip8">
<rect width="37.7665" height="37.7665" fill="white" transform="translate(287)"/>
</clipPath>
<clipPath id="clip9">
<rect width="37.7665" height="37.7665" fill="white" transform="translate(0 189)"/>
</clipPath>
<clipPath id="clip10">
<rect width="37.7665" height="37.7665" fill="white" transform="translate(287 65)"/>
</clipPath>
</defs>
</svg>
