<svg width="391" height="723" viewBox="0 0 391 723" fill="none" xmlns="http://www.w3.org/2000/svg">
<g filter="url(#filter0_d)">
<path d="M33.9079 41.712C33.9079 29.7208 43.6287 20 55.6199 20L334.989 20C346.98 20 356.701 29.7208 356.701 41.712V166.547C359.075 166.547 361 168.471 361 170.845V223.993C361 226.367 359.075 228.292 356.701 228.292V661.069C356.701 673.061 346.98 682.781 334.989 682.781H55.6199C43.6287 682.781 33.9079 673.061 33.9079 661.07L33.9079 256.038H31.737C30.7777 256.038 30 255.26 30 254.301V205.409C30 204.449 30.7777 203.672 31.737 203.672H33.9079V193.902H31.737C30.7777 193.902 30 193.124 30 192.165L30 141.71C30 140.75 30.7777 139.973 31.737 139.973H33.9079V41.712Z" fill="white"/>
<path d="M109.725 34.0684H73.772C59.959 34.0684 48.7614 45.266 48.7614 59.079L48.7614 643.702C48.7614 657.515 59.959 668.713 73.772 668.713H316.844C330.657 668.713 341.855 657.515 341.855 643.702V59.079C341.855 45.266 330.657 34.0684 316.844 34.0684L281.673 34.0684V37.9763C281.673 46.6094 274.674 53.6079 266.041 53.6079H125.356C116.723 53.6079 109.725 46.6094 109.725 37.9763V34.0684Z" fill="#E7EDF3"/>
<mask id="mask0" mask-type="alpha" maskUnits="userSpaceOnUse" x="48" y="33" width="294" height="636">
<path d="M109.73 33.6494H73.7772C59.9642 33.6494 48.7665 44.8471 48.7665 58.66L48.7665 643.283C48.7665 657.096 59.9642 668.294 73.7772 668.294H316.849C330.662 668.294 341.86 657.096 341.86 643.283V58.66C341.86 44.8471 330.662 33.6494 316.849 33.6494L281.678 33.6494V37.5573C281.678 46.1904 274.679 53.189 266.046 53.189H125.362C116.728 53.189 109.73 46.1904 109.73 37.5573V33.6494Z" fill="#E7EDF3"/>
</mask>
<g mask="url(#mask0)">
<path d="M159.799 79.1148C159.422 76.3972 157.332 74.8204 154.62 74.8204C151.425 74.8204 149.018 77.1498 149.018 81.1037C149.018 85.0516 151.395 87.387 154.62 87.387C157.529 87.387 159.458 85.5056 159.799 83.1702L157.565 83.1583C157.284 84.5917 156.113 85.3981 154.65 85.3981C152.667 85.3981 151.246 83.9109 151.246 81.1037C151.246 78.3443 152.655 76.8093 154.656 76.8093C156.143 76.8093 157.308 77.6515 157.565 79.1148H159.799ZM161.858 87.2197H164.02V81.8264C164.02 80.6617 164.898 79.8375 166.087 79.8375C166.451 79.8375 166.905 79.9032 167.09 79.9629V77.974C166.893 77.9382 166.553 77.9143 166.314 77.9143C165.263 77.9143 164.385 78.5115 164.05 79.5747H163.955V78.0457H161.858V87.2197ZM172.337 87.3989C174.475 87.3989 175.944 86.3537 176.326 84.759L174.308 84.532C174.015 85.3085 173.298 85.7146 172.367 85.7146C170.969 85.7146 170.043 84.7948 170.025 83.224H176.416V82.561C176.416 79.3417 174.481 77.9262 172.223 77.9262C169.595 77.9262 167.881 79.8554 167.881 82.6865C167.881 85.5653 169.571 87.3989 172.337 87.3989ZM170.031 81.7667C170.097 80.596 170.963 79.6105 172.253 79.6105C173.495 79.6105 174.332 80.5184 174.343 81.7667H170.031ZM181.011 87.4049C182.451 87.4049 183.311 86.73 183.705 85.9595H183.777V87.2197H185.855V81.0798C185.855 78.6549 183.878 77.9262 182.128 77.9262C180.199 77.9262 178.718 78.7863 178.24 80.4586L180.259 80.7453C180.474 80.1182 181.083 79.5807 182.14 79.5807C183.143 79.5807 183.693 80.0943 183.693 80.9962V81.032C183.693 81.6532 183.042 81.683 181.423 81.8563C179.643 82.0474 177.941 82.5789 177.941 84.6455C177.941 86.4492 179.261 87.4049 181.011 87.4049ZM181.573 85.8161C180.671 85.8161 180.026 85.404 180.026 84.6097C180.026 83.7795 180.748 83.433 181.716 83.2957C182.283 83.218 183.418 83.0747 183.699 82.8477V83.9288C183.699 84.9501 182.875 85.8161 181.573 85.8161ZM192.736 78.0457H190.927V75.8477H188.764V78.0457H187.462V79.718H188.764V84.8187C188.753 86.5448 190.007 87.3929 191.631 87.3452C192.247 87.3272 192.671 87.2078 192.904 87.1301L192.539 85.4399C192.42 85.4697 192.175 85.5235 191.906 85.5235C191.363 85.5235 190.927 85.3324 190.927 84.4603V79.718H192.736V78.0457ZM198.634 87.3989C200.772 87.3989 202.241 86.3537 202.623 84.759L200.605 84.532C200.312 85.3085 199.595 85.7146 198.663 85.7146C197.266 85.7146 196.34 84.7948 196.322 83.224H202.713V82.561C202.713 79.3417 200.778 77.9262 198.52 77.9262C195.892 77.9262 194.178 79.8554 194.178 82.6865C194.178 85.5653 195.868 87.3989 198.634 87.3989ZM196.328 81.7667C196.394 80.596 197.26 79.6105 198.55 79.6105C199.792 79.6105 200.628 80.5184 200.64 81.7667H196.328ZM217.256 78.8938H219.514C219.138 76.4928 217.059 74.8204 214.354 74.8204C211.152 74.8204 208.751 77.1737 208.751 81.1156C208.751 84.9859 211.045 87.387 214.419 87.387C217.447 87.387 219.616 85.4399 219.616 82.2863V80.817H214.652V82.5491H217.471C217.436 84.2931 216.271 85.3981 214.431 85.3981C212.383 85.3981 210.979 83.8631 210.979 81.0917C210.979 78.3383 212.407 76.8093 214.383 76.8093C215.859 76.8093 216.862 77.5977 217.256 78.8938ZM225.791 87.3989C228.478 87.3989 230.186 85.5056 230.186 82.6685C230.186 79.8255 228.478 77.9262 225.791 77.9262C223.103 77.9262 221.395 79.8255 221.395 82.6685C221.395 85.5056 223.103 87.3989 225.791 87.3989ZM225.802 85.6668C224.315 85.6668 223.587 84.3409 223.587 82.6626C223.587 80.9842 224.315 79.6404 225.802 79.6404C227.266 79.6404 227.994 80.9842 227.994 82.6626C227.994 84.3409 227.266 85.6668 225.802 85.6668ZM234.788 87.4049C236.227 87.4049 237.087 86.73 237.481 85.9595H237.553V87.2197H239.631V81.0798C239.631 78.6549 237.655 77.9262 235.905 77.9262C233.975 77.9262 232.494 78.7863 232.016 80.4586L234.035 80.7453C234.25 80.1182 234.859 79.5807 235.916 79.5807C236.92 79.5807 237.469 80.0943 237.469 80.9962V81.032C237.469 81.6532 236.818 81.683 235.2 81.8563C233.42 82.0474 231.718 82.5789 231.718 84.6455C231.718 86.4492 233.038 87.4049 234.788 87.4049ZM235.349 85.8161C234.447 85.8161 233.802 85.404 233.802 84.6097C233.802 83.7795 234.525 83.433 235.492 83.2957C236.06 83.218 237.195 83.0747 237.475 82.8477V83.9288C237.475 84.9501 236.651 85.8161 235.349 85.8161ZM244.094 74.9877H241.932V87.2197H244.094V74.9877Z" fill="#0F1C26"/>
<path d="M65.3965 85.4829L61.5449 80.8822L65.3965 76.2815L64.2107 74.8682L59.165 80.8822L64.2107 86.8962L65.3965 85.4829Z" fill="#0F1C26"/>
<g clip-path="url(#clip0)">
<path d="M325.748 77.6294C326.673 77.6294 327.429 76.8726 327.429 75.9475C327.429 75.0225 326.673 74.2656 325.748 74.2656C324.823 74.2656 324.066 75.0225 324.066 75.9475C324.066 76.8726 324.823 77.6294 325.748 77.6294ZM325.748 79.3114C324.823 79.3114 324.066 80.0682 324.066 80.9933C324.066 81.9183 324.823 82.6752 325.748 82.6752C326.673 82.6752 327.429 81.9183 327.429 80.9933C327.429 80.0682 326.673 79.3114 325.748 79.3114ZM325.748 84.3571C324.823 84.3571 324.066 85.1139 324.066 86.039C324.066 86.964 324.823 87.7209 325.748 87.7209C326.673 87.7209 327.429 86.964 327.429 86.039C327.429 85.1139 326.673 84.3571 325.748 84.3571Z" fill="#979797"/>
</g>
<rect x="193.636" y="610.86" width="191.453" height="63.1389" fill="white"/>
<path d="M264.478 631.5H265.625C265.572 630.023 264.21 628.919 262.318 628.919C260.445 628.919 258.974 630.009 258.974 631.653C258.974 632.971 259.929 633.755 261.458 634.195L262.662 634.539C263.694 634.825 264.612 635.188 264.612 636.163C264.612 637.233 263.58 637.941 262.223 637.941C261.057 637.941 260.025 637.425 259.929 636.316H258.706C258.821 637.921 260.12 639.011 262.223 639.011C264.478 639.011 265.759 637.769 265.759 636.182C265.759 634.347 264.019 633.755 263.006 633.487L262.012 633.22C261.286 633.029 260.12 632.646 260.12 631.595C260.12 630.659 260.98 629.971 262.28 629.971C263.465 629.971 264.363 630.534 264.478 631.5ZM269.84 639.011C271.12 639.011 271.789 638.323 272.019 637.845H272.076V638.839H273.204V634.003C273.204 631.672 271.426 631.404 270.49 631.404C269.381 631.404 268.12 631.786 267.546 633.124L268.617 633.506C268.865 632.971 269.453 632.398 270.528 632.398C271.565 632.398 272.076 632.947 272.076 633.889V633.927C272.076 634.472 271.522 634.424 270.184 634.596C268.822 634.773 267.336 635.074 267.336 636.756C267.336 638.189 268.445 639.011 269.84 639.011ZM270.012 637.998C269.114 637.998 268.464 637.597 268.464 636.813C268.464 635.953 269.247 635.685 270.127 635.571C270.604 635.513 271.885 635.379 272.076 635.15V636.182C272.076 637.1 271.35 637.998 270.012 637.998ZM281.127 631.5H279.903L277.877 637.348H277.801L275.775 631.5H274.552L277.266 638.839H278.413L281.127 631.5ZM285.555 638.992C287.046 638.992 288.136 638.246 288.48 637.138L287.39 636.832C287.104 637.597 286.439 637.979 285.555 637.979C284.232 637.979 283.319 637.124 283.267 635.551H288.594V635.074C288.594 632.341 286.97 631.404 285.441 631.404C283.453 631.404 282.134 632.971 282.134 635.227C282.134 637.482 283.434 638.992 285.555 638.992ZM283.267 634.577C283.343 633.435 284.151 632.417 285.441 632.417C286.664 632.417 287.448 633.334 287.448 634.577H283.267Z" fill="#0F1C26"/>
<rect x="3.19696" y="610.86" width="191.453" height="63.1389" fill="#D3DDE7"/>
<path d="M101.945 632.111C101.582 630.104 99.9763 628.919 98.0077 628.919C95.5039 628.919 93.6882 630.85 93.6882 633.946C93.6882 637.042 95.5039 638.973 98.0077 638.973C99.9763 638.973 101.582 637.788 101.945 635.781H100.76C100.473 637.138 99.3074 637.864 98.0077 637.864C96.2302 637.864 94.835 636.488 94.835 633.946C94.835 631.404 96.2302 630.028 98.0077 630.028C99.3074 630.028 100.473 630.754 100.76 632.111H101.945ZM105.993 639.011C107.273 639.011 107.942 638.323 108.172 637.845H108.229V638.839H109.357V634.003C109.357 631.672 107.579 631.404 106.643 631.404C105.534 631.404 104.273 631.786 103.699 633.124L104.769 633.506C105.018 632.971 105.606 632.398 106.681 632.398C107.718 632.398 108.229 632.947 108.229 633.889V633.927C108.229 634.472 107.675 634.424 106.337 634.596C104.975 634.773 103.489 635.074 103.489 636.756C103.489 638.189 104.597 639.011 105.993 639.011ZM106.165 637.998C105.266 637.998 104.617 637.597 104.617 636.813C104.617 635.953 105.4 635.685 106.279 635.571C106.757 635.513 108.038 635.379 108.229 635.15V636.182C108.229 637.1 107.503 637.998 106.165 637.998ZM112.668 634.424C112.668 633.143 113.462 632.417 114.542 632.417C115.588 632.417 116.223 633.1 116.223 634.252V638.839H117.351V634.175C117.351 632.302 116.352 631.404 114.866 631.404C113.758 631.404 113.07 631.901 112.726 632.646H112.63V631.5H111.541V638.839H112.668V634.424ZM122.519 638.992C124.144 638.992 125.214 637.998 125.405 636.698H124.278C124.067 637.501 123.399 637.979 122.519 637.979C121.181 637.979 120.321 636.87 120.321 635.169C120.321 633.506 121.201 632.417 122.519 632.417C123.513 632.417 124.106 633.029 124.278 633.698H125.405C125.214 632.321 124.048 631.404 122.5 631.404C120.513 631.404 119.194 632.971 119.194 635.207C119.194 637.405 120.455 638.992 122.519 638.992ZM130.257 638.992C131.748 638.992 132.837 638.246 133.181 637.138L132.092 636.832C131.805 637.597 131.141 637.979 130.257 637.979C128.934 637.979 128.021 637.124 127.968 635.551H133.296V635.074C133.296 632.341 131.671 631.404 130.142 631.404C128.155 631.404 126.836 632.971 126.836 635.227C126.836 637.482 128.136 638.992 130.257 638.992ZM127.968 634.577C128.045 633.435 128.852 632.417 130.142 632.417C131.366 632.417 132.149 633.334 132.149 634.577H127.968ZM136.265 629.053H135.138V638.839H136.265V629.053Z" fill="#0F1C26"/>
<rect x="56.6454" y="123.882" width="276.674" height="103.437" rx="4.20477" fill="white"/>
<rect x="218.106" y="176.862" width="105.96" height="28.5925" rx="14.2962" fill="#0043EF"/>
<path d="M80.585 187.083L83.5168 194.4L86.4487 187.083H87.9823V196.051H86.7998V192.558L86.9106 188.789L83.9665 196.051H83.061L80.123 188.807L80.2401 192.558V196.051H79.0575V187.083H80.585Z" fill="#0F1C26"/>
<path d="M121.961 188.056H119.078V196.051H117.902V188.056H115.025V187.083H121.961V188.056Z" fill="#0F1C26"/>
<path d="M157.03 193.224L157.202 194.406L157.455 193.341L159.229 187.083H160.227L161.957 193.341L162.204 194.425L162.395 193.217L163.787 187.083H164.975L162.801 196.051H161.723L159.876 189.516L159.734 188.832L159.592 189.516L157.677 196.051H156.599L154.431 187.083H155.613L157.03 193.224Z" fill="#0F1C26"/>
<path d="M198.03 188.056H195.148V196.051H193.971V188.056H191.095V187.083H198.03V188.056Z" fill="#0F1C26"/>
<path d="M236.309 192.386H232.762V196.051H230.914V187.083H236.753V188.58H232.762V190.895H236.309V192.386Z" fill="white"/>
<path d="M273.95 193.698C273.95 193.349 273.827 193.082 273.581 192.897C273.334 192.708 272.891 192.511 272.25 192.306C271.61 192.096 271.103 191.891 270.729 191.69C269.711 191.14 269.201 190.399 269.201 189.466C269.201 188.982 269.337 188.551 269.608 188.173C269.883 187.791 270.275 187.493 270.784 187.28C271.298 187.066 271.872 186.96 272.509 186.96C273.15 186.96 273.72 187.077 274.221 187.311C274.722 187.541 275.11 187.867 275.385 188.29C275.665 188.713 275.804 189.193 275.804 189.731H273.956C273.956 189.321 273.827 189.002 273.568 188.777C273.31 188.547 272.946 188.432 272.478 188.432C272.026 188.432 271.675 188.528 271.425 188.721C271.174 188.91 271.049 189.161 271.049 189.473C271.049 189.764 271.195 190.008 271.486 190.206C271.782 190.403 272.215 190.587 272.786 190.76C273.837 191.076 274.603 191.468 275.084 191.936C275.564 192.404 275.804 192.988 275.804 193.686C275.804 194.462 275.511 195.071 274.923 195.515C274.336 195.954 273.546 196.174 272.552 196.174C271.862 196.174 271.234 196.049 270.667 195.798C270.101 195.544 269.667 195.197 269.368 194.757C269.072 194.318 268.924 193.809 268.924 193.23H270.778C270.778 194.219 271.369 194.714 272.552 194.714C272.991 194.714 273.334 194.626 273.581 194.449C273.827 194.269 273.95 194.018 273.95 193.698Z" fill="white"/>
<path d="M311.642 193.698C311.642 193.349 311.518 193.082 311.272 192.897C311.026 192.708 310.582 192.511 309.942 192.306C309.301 192.096 308.794 191.891 308.42 191.69C307.402 191.14 306.893 190.399 306.893 189.466C306.893 188.982 307.028 188.551 307.299 188.173C307.574 187.791 307.967 187.493 308.476 187.28C308.989 187.066 309.564 186.96 310.2 186.96C310.841 186.96 311.412 187.077 311.913 187.311C312.414 187.541 312.802 187.867 313.077 188.29C313.356 188.713 313.496 189.193 313.496 189.731H311.648C311.648 189.321 311.518 189.002 311.26 188.777C311.001 188.547 310.638 188.432 310.17 188.432C309.718 188.432 309.367 188.528 309.116 188.721C308.866 188.91 308.741 189.161 308.741 189.473C308.741 189.764 308.886 190.008 309.178 190.206C309.474 190.403 309.907 190.587 310.478 190.76C311.529 191.076 312.295 191.468 312.775 191.936C313.255 192.404 313.496 192.988 313.496 193.686C313.496 194.462 313.202 195.071 312.615 195.515C312.028 195.954 311.237 196.174 310.243 196.174C309.554 196.174 308.925 196.049 308.359 195.798C307.792 195.544 307.359 195.197 307.059 194.757C306.763 194.318 306.616 193.809 306.616 193.23H308.47C308.47 194.219 309.061 194.714 310.243 194.714C310.683 194.714 311.026 194.626 311.272 194.449C311.518 194.269 311.642 194.018 311.642 193.698Z" fill="white"/>
<path d="M171.803 146.551L173.252 138.894H175.462L173.075 149.655H170.842L169.091 142.456L167.339 149.655H165.107L162.719 138.894H164.929L166.386 146.536L168.159 138.894H170.037L171.803 146.551ZM179.971 149.803C178.798 149.803 177.842 149.443 177.103 148.724C176.369 148.005 176.001 147.046 176.001 145.849V145.642C176.001 144.839 176.157 144.122 176.467 143.491C176.778 142.855 177.216 142.368 177.783 142.028C178.354 141.683 179.005 141.51 179.734 141.51C180.828 141.51 181.688 141.855 182.314 142.545C182.944 143.235 183.26 144.213 183.26 145.479V146.351H178.167C178.236 146.874 178.443 147.293 178.788 147.608C179.138 147.923 179.579 148.081 180.111 148.081C180.934 148.081 181.577 147.783 182.04 147.187L183.09 148.362C182.769 148.815 182.336 149.17 181.789 149.426C181.242 149.677 180.636 149.803 179.971 149.803ZM179.727 143.24C179.303 143.24 178.958 143.383 178.692 143.668C178.431 143.954 178.263 144.363 178.189 144.895H181.161V144.725C181.151 144.252 181.023 143.888 180.776 143.631C180.53 143.37 180.18 143.24 179.727 143.24ZM188.16 149.803C186.987 149.803 186.031 149.443 185.292 148.724C184.558 148.005 184.191 147.046 184.191 145.849V145.642C184.191 144.839 184.346 144.122 184.657 143.491C184.967 142.855 185.406 142.368 185.972 142.028C186.544 141.683 187.194 141.51 187.923 141.51C189.017 141.51 189.877 141.855 190.503 142.545C191.134 143.235 191.449 144.213 191.449 145.479V146.351H186.357C186.426 146.874 186.632 147.293 186.977 147.608C187.327 147.923 187.768 148.081 188.3 148.081C189.123 148.081 189.766 147.783 190.23 147.187L191.279 148.362C190.959 148.815 190.525 149.17 189.978 149.426C189.431 149.677 188.825 149.803 188.16 149.803ZM187.916 143.24C187.492 143.24 187.147 143.383 186.881 143.668C186.62 143.954 186.453 144.363 186.379 144.895H189.35V144.725C189.34 144.252 189.212 143.888 188.966 143.631C188.719 143.37 188.369 143.24 187.916 143.24ZM195.573 146.447L194.805 147.216V149.655H192.669V138.302H194.805V144.592L195.219 144.06L197.266 141.658H199.831L196.941 144.991L200.082 149.655H197.628L195.573 146.447ZM200.274 145.598C200.274 144.351 200.553 143.358 201.109 142.619C201.671 141.88 202.437 141.51 203.408 141.51C204.187 141.51 204.83 141.801 205.337 142.382V138.302H207.481V149.655H205.552L205.448 148.805C204.916 149.47 204.231 149.803 203.393 149.803C202.452 149.803 201.696 149.434 201.124 148.694C200.558 147.95 200.274 146.918 200.274 145.598ZM202.41 145.753C202.41 146.502 202.541 147.076 202.802 147.475C203.063 147.874 203.443 148.074 203.94 148.074C204.601 148.074 205.066 147.795 205.337 147.238V144.082C205.071 143.526 204.61 143.247 203.955 143.247C202.925 143.247 202.41 144.082 202.41 145.753ZM213.771 149.655C213.672 149.463 213.601 149.224 213.556 148.938C213.039 149.515 212.366 149.803 211.538 149.803C210.755 149.803 210.104 149.576 209.587 149.123C209.075 148.67 208.818 148.098 208.818 147.408C208.818 146.561 209.131 145.91 209.757 145.457C210.388 145.004 211.297 144.775 212.484 144.77H213.467V144.311C213.467 143.942 213.371 143.646 213.179 143.424C212.992 143.203 212.694 143.092 212.285 143.092C211.925 143.092 211.642 143.178 211.435 143.351C211.233 143.523 211.132 143.76 211.132 144.06H208.996C208.996 143.597 209.139 143.168 209.425 142.774C209.71 142.38 210.114 142.072 210.637 141.85C211.159 141.623 211.745 141.51 212.396 141.51C213.381 141.51 214.162 141.759 214.739 142.257C215.32 142.749 215.611 143.444 215.611 144.341V147.807C215.616 148.566 215.722 149.14 215.929 149.53V149.655H213.771ZM212.004 148.17C212.319 148.17 212.61 148.101 212.876 147.963C213.142 147.82 213.339 147.63 213.467 147.394V146.019H212.669C211.6 146.019 211.031 146.388 210.962 147.127L210.954 147.253C210.954 147.519 211.048 147.738 211.235 147.911C211.423 148.083 211.679 148.17 212.004 148.17ZM220.12 146.632L221.598 141.658H223.889L220.674 150.897L220.497 151.318C220.019 152.363 219.23 152.885 218.131 152.885C217.821 152.885 217.506 152.838 217.185 152.745V151.126L217.51 151.134C217.915 151.134 218.215 151.072 218.412 150.949C218.614 150.826 218.772 150.621 218.885 150.335L219.137 149.677L216.335 141.658H218.634L220.12 146.632ZM229.063 147.445C229.063 147.184 228.932 146.98 228.671 146.832C228.415 146.679 228.001 146.544 227.429 146.425C225.527 146.026 224.576 145.218 224.576 144.001C224.576 143.291 224.87 142.7 225.456 142.227C226.047 141.749 226.818 141.51 227.769 141.51C228.785 141.51 229.595 141.749 230.201 142.227C230.812 142.705 231.118 143.326 231.118 144.09H228.982C228.982 143.784 228.883 143.533 228.686 143.336C228.489 143.134 228.181 143.033 227.762 143.033C227.402 143.033 227.124 143.114 226.927 143.277C226.73 143.439 226.631 143.646 226.631 143.898C226.631 144.134 226.742 144.326 226.964 144.474C227.19 144.617 227.57 144.743 228.102 144.851C228.634 144.954 229.083 145.073 229.447 145.206C230.576 145.62 231.14 146.337 231.14 147.357C231.14 148.086 230.827 148.677 230.201 149.13C229.575 149.579 228.767 149.803 227.777 149.803C227.107 149.803 226.51 149.685 225.988 149.448C225.471 149.207 225.064 148.879 224.769 148.465C224.473 148.046 224.325 147.596 224.325 147.113H226.35C226.37 147.492 226.51 147.783 226.772 147.985C227.033 148.187 227.383 148.288 227.821 148.288C228.23 148.288 228.538 148.212 228.745 148.059C228.957 147.901 229.063 147.697 229.063 147.445Z" fill="#0F1C26"/>
<path d="M309.77 150.636L313.302 146.3L309.77 141.963" stroke="#0043EF" stroke-width="1.68191" stroke-linecap="round" stroke-linejoin="round"/>
<path d="M84.5642 150.636L81.0322 146.3L84.5642 141.963" stroke="#0043EF" stroke-width="1.68191" stroke-linecap="round" stroke-linejoin="round"/>
<rect x="56.6454" y="234.047" width="276.674" height="52.1392" rx="4.20477" fill="white"/>
<rect x="56.6454" y="292.914" width="276.674" height="113.529" rx="4.20477" fill="white"/>
<rect x="56.6454" y="472.037" width="276.674" height="52.1392" rx="4.20477" fill="white"/>
<rect x="56.6454" y="413.17" width="276.674" height="52.1392" rx="4.20477" fill="white"/>
<path d="M75.7421 252.194H73.979V258.864H73.893L69.2868 252.194H67.7005V261.979H69.4732V255.314H69.5544L74.1653 261.979H75.7421V252.194ZM79.8353 262.128C80.9868 262.128 81.6749 261.588 81.9903 260.971H82.0476V261.979H83.7104V257.068C83.7104 255.128 82.1288 254.545 80.7288 254.545C79.1855 254.545 78.0005 255.233 77.6182 256.571L79.2333 256.8C79.4053 256.298 79.8926 255.868 80.7384 255.868C81.5411 255.868 81.9807 256.279 81.9807 257.001V257.029C81.9807 257.526 81.4599 257.55 80.165 257.689C78.7411 257.842 77.3793 258.267 77.3793 259.92C77.3793 261.363 78.4353 262.128 79.8353 262.128ZM80.2845 260.857C79.563 260.857 79.0469 260.527 79.0469 259.891C79.0469 259.227 79.6251 258.95 80.3991 258.84C80.8531 258.778 81.7609 258.663 81.9855 258.482V259.347C81.9855 260.164 81.3261 260.857 80.2845 260.857ZM85.5758 261.979H87.3055V257.517C87.3055 256.614 87.9075 256.002 88.6529 256.002C89.384 256.002 89.8857 256.494 89.8857 257.249V261.979H91.5819V257.402C91.5819 256.575 92.0741 256.002 92.9102 256.002C93.6079 256.002 94.1621 256.413 94.1621 257.321V261.979H95.8966V257.053C95.8966 255.414 94.9505 254.545 93.6031 254.545C92.5375 254.545 91.7253 255.07 91.4003 255.887H91.3239C91.042 255.056 90.33 254.545 89.341 254.545C88.3567 254.545 87.6208 255.051 87.315 255.887H87.229V254.64H85.5758V261.979ZM101.027 262.123C102.737 262.123 103.913 261.287 104.218 260.011L102.603 259.829C102.369 260.45 101.796 260.775 101.051 260.775C99.9325 260.775 99.1918 260.04 99.1775 258.783H104.29V258.253C104.29 255.677 102.742 254.545 100.936 254.545C98.8335 254.545 97.4621 256.088 97.4621 258.353C97.4621 260.656 98.8144 262.123 101.027 262.123ZM99.1823 257.617C99.2348 256.681 99.9277 255.892 100.96 255.892C101.954 255.892 102.623 256.618 102.632 257.617H99.1823ZM112.545 262.123C114.695 262.123 116.061 260.608 116.061 258.339C116.061 256.064 114.695 254.545 112.545 254.545C110.394 254.545 109.028 256.064 109.028 258.339C109.028 260.608 110.394 262.123 112.545 262.123ZM112.554 260.737C111.364 260.737 110.781 259.676 110.781 258.334C110.781 256.991 111.364 255.916 112.554 255.916C113.725 255.916 114.308 256.991 114.308 258.334C114.308 259.676 113.725 260.737 112.554 260.737ZM121.373 254.64H119.849V254.062C119.849 253.489 120.088 253.169 120.733 253.169C121.005 253.169 121.234 253.231 121.378 253.274L121.727 251.936C121.502 251.859 121.01 251.735 120.413 251.735C119.137 251.735 118.119 252.466 118.119 253.947V254.64H117.034V255.978H118.119V261.979H119.849V255.978H121.373V254.64ZM129.982 254.64H128.534V252.882H126.805V254.64H125.763V255.978H126.805V260.059C126.795 261.44 127.799 262.118 129.098 262.08C129.59 262.065 129.93 261.97 130.116 261.908L129.825 260.556C129.729 260.579 129.533 260.622 129.318 260.622C128.883 260.622 128.534 260.47 128.534 259.772V255.978H129.982V254.64ZM133.442 257.679C133.442 256.618 134.102 256.007 135.029 256.007C135.937 256.007 136.472 256.585 136.472 257.574V261.979H138.201V257.306C138.201 255.534 137.198 254.545 135.674 254.545C134.546 254.545 133.829 255.056 133.49 255.887H133.404V252.194H131.713V261.979H133.442V257.679ZM143.34 262.123C145.05 262.123 146.226 261.287 146.532 260.011L144.917 259.829C144.682 260.45 144.109 260.775 143.364 260.775C142.246 260.775 141.505 260.04 141.491 258.783H146.603V258.253C146.603 255.677 145.055 254.545 143.249 254.545C141.147 254.545 139.775 256.088 139.775 258.353C139.775 260.656 141.128 262.123 143.34 262.123ZM141.495 257.617C141.548 256.681 142.241 255.892 143.273 255.892C144.267 255.892 144.936 256.618 144.945 257.617H141.495ZM154.848 264.885C156.831 264.885 158.293 263.977 158.293 262.099V254.64H156.587V255.854H156.492C156.229 255.324 155.68 254.545 154.385 254.545C152.688 254.545 151.355 255.873 151.355 258.286C151.355 260.68 152.688 261.874 154.38 261.874C155.637 261.874 156.224 261.201 156.492 260.661H156.578V262.051C156.578 263.131 155.861 263.575 154.877 263.575C153.835 263.575 153.377 263.083 153.166 262.653L151.609 263.031C151.924 264.058 152.98 264.885 154.848 264.885ZM154.863 260.517C153.721 260.517 153.119 259.629 153.119 258.276C153.119 256.943 153.711 255.964 154.863 255.964C155.976 255.964 156.587 256.886 156.587 258.276C156.587 259.676 155.966 260.517 154.863 260.517ZM163.393 262.123C165.544 262.123 166.91 260.608 166.91 258.339C166.91 256.064 165.544 254.545 163.393 254.545C161.243 254.545 159.877 256.064 159.877 258.339C159.877 260.608 161.243 262.123 163.393 262.123ZM163.403 260.737C162.213 260.737 161.63 259.676 161.63 258.334C161.63 256.991 162.213 255.916 163.403 255.916C164.574 255.916 165.157 256.991 165.157 258.334C165.157 259.676 164.574 260.737 163.403 260.737ZM170.616 262.128C171.768 262.128 172.456 261.588 172.771 260.971H172.829V261.979H174.491V257.068C174.491 255.128 172.91 254.545 171.51 254.545C169.967 254.545 168.782 255.233 168.399 256.571L170.014 256.8C170.186 256.298 170.674 255.868 171.519 255.868C172.322 255.868 172.762 256.279 172.762 257.001V257.029C172.762 257.526 172.241 257.55 170.946 257.689C169.522 257.842 168.16 258.267 168.16 259.92C168.16 261.363 169.216 262.128 170.616 262.128ZM171.066 260.857C170.344 260.857 169.828 260.527 169.828 259.891C169.828 259.227 170.406 258.95 171.18 258.84C171.634 258.778 172.542 258.663 172.767 258.482V259.347C172.767 260.164 172.107 260.857 171.066 260.857ZM178.087 252.194H176.357V261.979H178.087V252.194Z" fill="#0F1C26"/>
<path d="M67.7005 320.847H69.4732V317.54H71.3462C73.6063 317.54 74.8199 316.183 74.8199 314.301C74.8199 312.432 73.6206 311.061 71.3701 311.061H67.7005V320.847ZM69.4732 316.083V312.542H71.0977C72.4261 312.542 73.0138 313.259 73.0138 314.301C73.0138 315.342 72.4261 316.083 71.1073 316.083H69.4732ZM78.1391 311.061H76.4094V320.847H78.1391V311.061ZM82.1558 320.995C83.3074 320.995 83.9954 320.455 84.3108 319.838H84.3681V320.847H86.0309V315.935C86.0309 313.995 84.4493 313.412 83.0493 313.412C81.506 313.412 80.321 314.1 79.9388 315.438L81.5538 315.667C81.7258 315.165 82.2132 314.735 83.0589 314.735C83.8616 314.735 84.3012 315.146 84.3012 315.868V315.897C84.3012 316.393 83.7804 316.417 82.4855 316.556C81.0616 316.709 79.6998 317.134 79.6998 318.787C79.6998 320.23 80.7558 320.995 82.1558 320.995ZM82.605 319.724C81.8835 319.724 81.3674 319.394 81.3674 318.759C81.3674 318.094 81.9456 317.817 82.7196 317.707C83.1736 317.645 84.0814 317.531 84.306 317.349V318.214C84.306 319.031 83.6466 319.724 82.605 319.724ZM91.0977 320.99C92.942 320.99 94.1174 319.896 94.2417 318.338H92.5884C92.4403 319.127 91.8717 319.58 91.112 319.58C90.0321 319.58 89.3345 318.677 89.3345 317.177C89.3345 315.696 90.0465 314.807 91.112 314.807C91.9434 314.807 92.4546 315.342 92.5884 316.049H94.2417C94.1222 314.458 92.8799 313.412 91.0881 313.412C88.9379 313.412 87.5809 314.965 87.5809 317.206C87.5809 319.428 88.9045 320.99 91.0977 320.99ZM99.0373 320.99C100.748 320.99 101.923 320.154 102.229 318.878L100.614 318.697C100.38 319.318 99.8065 319.643 99.0612 319.643C97.9431 319.643 97.2025 318.907 97.1881 317.65H102.301V317.12C102.301 314.544 100.753 313.412 98.9465 313.412C96.8441 313.412 95.4728 314.955 95.4728 317.22C95.4728 319.523 96.825 320.99 99.0373 320.99ZM97.1929 316.484C97.2455 315.548 97.9383 314.759 98.9704 314.759C99.9642 314.759 100.633 315.486 100.643 316.484H97.1929Z" fill="#0F1C26"/>
<path d="M75.7421 490.184H73.979V496.854H73.893L69.2868 490.184H67.7005V499.97H69.4732V493.304H69.5544L74.1653 499.97H75.7421V490.184ZM80.9247 500.113C83.0749 500.113 84.4414 498.598 84.4414 496.329C84.4414 494.054 83.0749 492.535 80.9247 492.535C78.7746 492.535 77.408 494.054 77.408 496.329C77.408 498.598 78.7746 500.113 80.9247 500.113ZM80.9343 498.727C79.7445 498.727 79.1616 497.667 79.1616 496.324C79.1616 494.981 79.7445 493.906 80.9343 493.906C82.1049 493.906 82.6879 494.981 82.6879 496.324C82.6879 497.667 82.1049 498.727 80.9343 498.727ZM89.7005 492.63H88.2527V490.872H86.523V492.63H85.4814V493.968H86.523V498.049C86.5135 499.43 87.5169 500.108 88.8166 500.07C89.3087 500.056 89.648 499.96 89.8343 499.898L89.5428 498.546C89.4473 498.57 89.2514 498.613 89.0364 498.613C88.6015 498.613 88.2527 498.46 88.2527 497.762V493.968H89.7005V492.63ZM91.2732 499.97H93.0029V492.63H91.2732V499.97ZM92.1429 491.589C92.6924 491.589 93.1415 491.168 93.1415 490.652C93.1415 490.132 92.6924 489.711 92.1429 489.711C91.5886 489.711 91.1395 490.132 91.1395 490.652C91.1395 491.168 91.5886 491.589 92.1429 491.589ZM98.6252 492.63H97.1009V492.052C97.1009 491.479 97.3398 491.159 97.9849 491.159C98.2572 491.159 98.4866 491.221 98.6299 491.264L98.9787 489.926C98.7542 489.85 98.262 489.725 97.6647 489.725C96.389 489.725 95.3712 490.456 95.3712 491.938V492.63H94.2866V493.968H95.3712V499.97H97.1009V493.968H98.6252V492.63ZM100.106 499.97H101.836V492.63H100.106V499.97ZM100.976 491.589C101.525 491.589 101.974 491.168 101.974 490.652C101.974 490.132 101.525 489.711 100.976 489.711C100.421 489.711 99.9721 490.132 99.9721 490.652C99.9721 491.168 100.421 491.589 100.976 491.589ZM106.942 500.113C108.786 500.113 109.962 499.019 110.086 497.461H108.433C108.284 498.25 107.716 498.704 106.956 498.704C105.876 498.704 105.179 497.8 105.179 496.3C105.179 494.819 105.891 493.93 106.956 493.93C107.787 493.93 108.299 494.465 108.433 495.172H110.086C109.966 493.581 108.724 492.535 106.932 492.535C104.782 492.535 103.425 494.088 103.425 496.329C103.425 498.551 104.749 500.113 106.942 500.113ZM113.744 500.118C114.896 500.118 115.584 499.578 115.899 498.962H115.956V499.97H117.619V495.058C117.619 493.118 116.038 492.535 114.638 492.535C113.094 492.535 111.909 493.223 111.527 494.561L113.142 494.79C113.314 494.289 113.802 493.858 114.647 493.858C115.45 493.858 115.89 494.269 115.89 494.991V495.02C115.89 495.516 115.369 495.54 114.074 495.679C112.65 495.832 111.288 496.257 111.288 497.91C111.288 499.353 112.344 500.118 113.744 500.118ZM114.193 498.847C113.472 498.847 112.956 498.517 112.956 497.882C112.956 497.218 113.534 496.94 114.308 496.83C114.762 496.768 115.67 496.654 115.894 496.472V497.337C115.894 498.154 115.235 498.847 114.193 498.847ZM123.149 492.63H121.702V490.872H119.972V492.63H118.93V493.968H119.972V498.049C119.962 499.43 120.966 500.108 122.266 500.07C122.758 500.056 123.097 499.96 123.283 499.898L122.992 498.546C122.896 498.57 122.7 498.613 122.485 498.613C122.051 498.613 121.702 498.46 121.702 497.762V493.968H123.149V492.63ZM124.722 499.97H126.452V492.63H124.722V499.97ZM125.592 491.589C126.141 491.589 126.59 491.168 126.59 490.652C126.59 490.132 126.141 489.711 125.592 489.711C125.038 489.711 124.588 490.132 124.588 490.652C124.588 491.168 125.038 491.589 125.592 491.589ZM131.558 500.113C133.708 500.113 135.075 498.598 135.075 496.329C135.075 494.054 133.708 492.535 131.558 492.535C129.408 492.535 128.041 494.054 128.041 496.329C128.041 498.598 129.408 500.113 131.558 500.113ZM131.568 498.727C130.378 498.727 129.795 497.667 129.795 496.324C129.795 494.981 130.378 493.906 131.568 493.906C132.738 493.906 133.321 494.981 133.321 496.324C133.321 497.667 132.738 498.727 131.568 498.727ZM138.399 495.669C138.399 494.609 139.039 493.997 139.952 493.997C140.845 493.997 141.38 494.585 141.38 495.564V499.97H143.11V495.297C143.115 493.538 142.111 492.535 140.597 492.535C139.498 492.535 138.743 493.061 138.408 493.878H138.322V492.63H136.669V499.97H138.399V495.669Z" fill="#0F1C26"/>
<path d="M68.9571 441.104L69.7646 438.691H73.4438L74.2561 441.104H76.1482L72.6984 431.318H70.51L67.065 441.104H68.9571ZM70.2425 437.267L71.566 433.325H71.6425L72.966 437.267H70.2425ZM80.4648 441.247C82.3092 441.247 83.4846 440.153 83.6089 438.595H81.9556C81.8075 439.383 81.2389 439.837 80.4792 439.837C79.3993 439.837 78.7017 438.934 78.7017 437.434C78.7017 435.953 79.4136 435.064 80.4792 435.064C81.3106 435.064 81.8218 435.599 81.9556 436.306H83.6089C83.4894 434.715 82.2471 433.669 80.4553 433.669C78.3051 433.669 76.9481 435.222 76.9481 437.463C76.9481 439.684 78.2717 441.247 80.4648 441.247ZM88.8201 433.764H87.3724V432.006H85.6427V433.764H84.601V435.102H85.6427V439.183C85.6331 440.564 86.6365 441.242 87.9362 441.204C88.4283 441.19 88.7676 441.094 88.9539 441.032L88.6625 439.68C88.5669 439.704 88.371 439.747 88.156 439.747C87.7212 439.747 87.3724 439.594 87.3724 438.896V435.102H88.8201V433.764ZM90.3929 441.104H92.1226V433.764H90.3929V441.104ZM91.2625 432.723C91.812 432.723 92.2611 432.302 92.2611 431.786C92.2611 431.265 91.812 430.845 91.2625 430.845C90.7082 430.845 90.2591 431.265 90.2591 431.786C90.2591 432.302 90.7082 432.723 91.2625 432.723ZM100.583 433.764H98.7434L97.0519 439.216H96.9755L95.2888 433.764H93.4444L96.0581 441.104H97.9693L100.583 433.764ZM101.906 441.104H103.636V433.764H101.906V441.104ZM102.776 432.723C103.325 432.723 103.774 432.302 103.774 431.786C103.774 431.265 103.325 430.845 102.776 430.845C102.221 430.845 101.772 431.265 101.772 431.786C101.772 432.302 102.221 432.723 102.776 432.723ZM109.205 433.764H107.758V432.006H106.028V433.764H104.986V435.102H106.028V439.183C106.018 440.564 107.022 441.242 108.321 441.204C108.814 441.19 109.153 441.094 109.339 441.032L109.048 439.68C108.952 439.704 108.756 439.747 108.541 439.747C108.106 439.747 107.758 439.594 107.758 438.896V435.102H109.205V433.764ZM111.853 443.856C113.201 443.856 113.979 443.163 114.395 441.992L117.343 433.774L115.494 433.764L113.798 439.307H113.721L112.03 433.764H110.195L112.857 441.256L112.709 441.653C112.388 442.489 111.882 442.547 111.127 442.327L110.726 443.674C110.96 443.77 111.38 443.856 111.853 443.856Z" fill="#0F1C26"/>
<rect x="68.4189" y="334.121" width="255.65" height="29.4334" fill="#D3DDE7"/>
<rect x="70.9384" y="375.327" width="14.2962" height="13.4553" fill="#D3DDE7"/>
<path d="M96.2628 377.942H95.374V385.281H96.2628V377.942ZM98.9019 381.97C98.9019 381.01 99.4968 380.465 100.307 380.465C101.092 380.465 101.568 380.977 101.568 381.841V385.281H102.414V381.784C102.414 380.379 101.665 379.705 100.55 379.705C99.719 379.705 99.2029 380.078 98.9449 380.637H98.8732V379.777H98.0562V385.281H98.9019V381.97ZM106.322 385.396C107.54 385.396 108.343 384.651 108.486 383.676H107.64C107.483 384.278 106.981 384.636 106.322 384.636C105.318 384.636 104.673 383.805 104.673 382.529C104.673 381.282 105.333 380.465 106.322 380.465C107.067 380.465 107.511 380.924 107.64 381.425H108.486C108.343 380.393 107.468 379.705 106.307 379.705C104.816 379.705 103.827 380.881 103.827 382.558C103.827 384.206 104.773 385.396 106.322 385.396ZM110.694 377.942H109.849V385.281H110.694V377.942ZM115.838 383.031C115.838 384.063 115.05 384.536 114.419 384.536C113.717 384.536 113.215 384.02 113.215 383.217V379.777H112.369V383.274C112.369 384.679 113.115 385.353 114.147 385.353C114.978 385.353 115.523 384.909 115.781 384.35H115.838V385.281H116.684V379.777H115.838V383.031ZM120.438 385.396C121.499 385.396 121.857 384.737 122.043 384.436H122.144V385.281H122.961V377.942H122.115V380.651H122.043C121.857 380.365 121.527 379.705 120.452 379.705C119.062 379.705 118.101 380.809 118.101 382.543C118.101 384.292 119.062 385.396 120.438 385.396ZM120.552 384.636C119.492 384.636 118.947 383.704 118.947 382.529C118.947 381.368 119.477 380.465 120.552 380.465C121.585 380.465 122.129 381.296 122.129 382.529C122.129 383.776 121.57 384.636 120.552 384.636ZM127.061 385.396C128.179 385.396 128.996 384.837 129.254 384.005L128.437 383.776C128.222 384.35 127.724 384.636 127.061 384.636C126.068 384.636 125.384 383.995 125.345 382.816H129.34V382.457C129.34 380.408 128.122 379.705 126.975 379.705C125.484 379.705 124.495 380.881 124.495 382.572C124.495 384.264 125.47 385.396 127.061 385.396ZM125.345 382.085C125.402 381.228 126.007 380.465 126.975 380.465C127.892 380.465 128.48 381.153 128.48 382.085H125.345ZM134.563 381.97C134.563 381.01 135.158 380.465 135.968 380.465C136.753 380.465 137.229 380.977 137.229 381.841V385.281H138.075V381.784C138.075 380.379 137.326 379.705 136.211 379.705C135.38 379.705 134.864 380.078 134.606 380.637H134.534V379.777H133.717V385.281H134.563V381.97ZM142.054 385.396C143.172 385.396 143.99 384.837 144.248 384.005L143.43 383.776C143.215 384.35 142.717 384.636 142.054 384.636C141.062 384.636 140.377 383.995 140.338 382.816H144.334V382.457C144.334 380.408 143.115 379.705 141.968 379.705C140.478 379.705 139.488 380.881 139.488 382.572C139.488 384.264 140.463 385.396 142.054 385.396ZM140.338 382.085C140.395 381.228 141.001 380.465 141.968 380.465C142.886 380.465 143.473 381.153 143.473 382.085H140.338ZM147.366 385.41C148.326 385.41 148.828 384.894 149 384.536H149.043V385.281H149.889V381.655C149.889 379.906 148.556 379.705 147.853 379.705C147.022 379.705 146.076 379.992 145.646 380.995L146.449 381.282C146.635 380.881 147.076 380.451 147.882 380.451C148.66 380.451 149.043 380.863 149.043 381.569V381.597C149.043 382.006 148.627 381.97 147.624 382.099C146.603 382.232 145.488 382.457 145.488 383.719C145.488 384.794 146.32 385.41 147.366 385.41ZM147.495 384.651C146.821 384.651 146.334 384.35 146.334 383.762C146.334 383.117 146.922 382.916 147.581 382.83C147.939 382.787 148.9 382.687 149.043 382.515V383.289C149.043 383.977 148.498 384.651 147.495 384.651ZM151.559 385.281H152.404V381.798C152.404 381.053 152.992 380.508 153.795 380.508C154.021 380.508 154.254 380.551 154.311 380.565V379.705C154.214 379.698 153.992 379.691 153.866 379.691C153.207 379.691 152.634 380.064 152.433 380.608H152.376V379.777H151.559V385.281ZM155.554 385.281H156.371V384.436H156.472C156.658 384.737 157.016 385.396 158.077 385.396C159.453 385.396 160.414 384.292 160.414 382.543C160.414 380.809 159.453 379.705 158.063 379.705C156.988 379.705 156.658 380.365 156.472 380.651H156.4V377.942H155.554V385.281ZM156.386 382.529C156.386 381.296 156.93 380.465 157.962 380.465C159.037 380.465 159.568 381.368 159.568 382.529C159.568 383.704 159.023 384.636 157.962 384.636C156.945 384.636 156.386 383.776 156.386 382.529ZM162.181 387.345C162.944 387.345 163.482 386.94 163.801 386.084L166.144 379.791L165.22 379.777L163.7 384.163H163.643L162.124 379.777H161.206L163.242 385.31L163.084 385.74C162.776 386.579 162.396 386.657 161.78 386.5L161.565 387.245C161.651 387.288 161.894 387.345 162.181 387.345ZM170.354 387.345H171.2V384.436H171.271C171.458 384.737 171.816 385.396 172.877 385.396C174.253 385.396 175.213 384.292 175.213 382.543C175.213 380.809 174.253 379.705 172.863 379.705C171.787 379.705 171.458 380.365 171.271 380.651H171.171V379.777H170.354V387.345ZM171.185 382.529C171.185 381.296 171.73 380.465 172.762 380.465C173.837 380.465 174.368 381.368 174.368 382.529C174.368 383.704 173.823 384.636 172.762 384.636C171.744 384.636 171.185 383.776 171.185 382.529ZM177.475 377.942H176.63V385.281H177.475V377.942ZM180.77 385.41C181.731 385.41 182.232 384.894 182.404 384.536H182.447V385.281H183.293V381.655C183.293 379.906 181.96 379.705 181.258 379.705C180.426 379.705 179.48 379.992 179.05 380.995L179.853 381.282C180.039 380.881 180.48 380.451 181.286 380.451C182.064 380.451 182.447 380.863 182.447 381.569V381.597C182.447 382.006 182.032 381.97 181.028 382.099C180.007 382.232 178.892 382.457 178.892 383.719C178.892 384.794 179.724 385.41 180.77 385.41ZM180.899 384.651C180.226 384.651 179.738 384.35 179.738 383.762C179.738 383.117 180.326 382.916 180.985 382.83C181.344 382.787 182.304 382.687 182.447 382.515V383.289C182.447 383.977 181.903 384.651 180.899 384.651ZM187.199 385.396C188.418 385.396 189.22 384.651 189.364 383.676H188.518C188.36 384.278 187.858 384.636 187.199 384.636C186.196 384.636 185.551 383.805 185.551 382.529C185.551 381.282 186.21 380.465 187.199 380.465C187.944 380.465 188.389 380.924 188.518 381.425H189.364C189.22 380.393 188.346 379.705 187.185 379.705C185.694 379.705 184.705 380.881 184.705 382.558C184.705 384.206 185.651 385.396 187.199 385.396ZM193.034 385.396C194.152 385.396 194.969 384.837 195.227 384.005L194.41 383.776C194.195 384.35 193.697 384.636 193.034 384.636C192.041 384.636 191.357 383.995 191.317 382.816H195.313V382.457C195.313 380.408 194.095 379.705 192.948 379.705C191.457 379.705 190.468 380.881 190.468 382.572C190.468 384.264 191.443 385.396 193.034 385.396ZM191.317 382.085C191.375 381.228 191.98 380.465 192.948 380.465C193.865 380.465 194.453 381.153 194.453 382.085H191.317ZM200.625 381.01C200.36 380.228 199.765 379.705 198.675 379.705C197.514 379.705 196.654 380.365 196.654 381.296C196.654 382.056 197.106 382.565 198.116 382.801L199.034 383.016C199.589 383.145 199.851 383.411 199.851 383.79C199.851 384.264 199.349 384.651 198.561 384.651C197.869 384.651 197.435 384.353 197.285 383.762L196.482 383.962C196.679 384.898 197.45 385.396 198.575 385.396C199.854 385.396 200.725 384.697 200.725 383.747C200.725 382.981 200.245 382.497 199.263 382.257L198.446 382.056C197.794 381.895 197.5 381.676 197.5 381.253C197.5 380.78 198.002 380.436 198.675 380.436C199.413 380.436 199.718 380.845 199.865 381.225L200.625 381.01Z" fill="#0F1C26"/>
</g>
<rect opacity="0.4" x="165.215" y="34.0684" width="67.2161" height="6.25266" rx="1.73696" fill="#D3DDE7"/>
<rect opacity="0.5" x="243.373" y="30.1611" width="14.0685" height="14.0685" rx="4.77664" fill="#E7EDF3"/>
<rect opacity="0.5" x="246.499" y="33.2881" width="7.81582" height="7.81582" rx="3.90791" fill="white"/>
<rect opacity="0.5" x="127.699" y="34.0684" width="6.25266" height="6.25266" rx="1.73696" fill="#D3DDE7"/>
</g>
<defs>
<filter id="filter0_d" x="0" y="0" width="391" height="722.781" filterUnits="userSpaceOnUse" color-interpolation-filters="sRGB">
<feFlood flood-opacity="0" result="BackgroundImageFix"/>
<feColorMatrix in="SourceAlpha" type="matrix" values="0 0 0 0 0 0 0 0 0 0 0 0 0 0 0 0 0 0 127 0" result="hardAlpha"/>
<feOffset dy="10"/>
<feGaussianBlur stdDeviation="15"/>
<feColorMatrix type="matrix" values="0 0 0 0 0.0207639 0 0 0 0 0.0756167 0 0 0 0 0.216667 0 0 0 0.1 0"/>
<feBlend mode="normal" in2="BackgroundImageFix" result="effect1_dropShadow"/>
<feBlend mode="normal" in="SourceGraphic" in2="effect1_dropShadow" result="shape"/>
</filter>
<clipPath id="clip0">
<rect width="33.6382" height="33.6382" fill="white" transform="translate(308.931 64.1738)"/>
</clipPath>
</defs>
</svg>
