<svg width="391" height="723" viewBox="0 0 391 723" fill="none" xmlns="http://www.w3.org/2000/svg">
<g filter="url(#filter0_d)">
<path d="M33.9079 41.712C33.9079 29.7208 43.6287 20 55.6199 20L334.989 20C346.98 20 356.701 29.7208 356.701 41.712V166.547C359.075 166.547 361 168.471 361 170.845V223.993C361 226.367 359.075 228.292 356.701 228.292V661.069C356.701 673.061 346.98 682.781 334.989 682.781H55.6199C43.6287 682.781 33.9079 673.061 33.9079 661.07L33.9079 256.038H31.737C30.7777 256.038 30 255.26 30 254.301V205.409C30 204.449 30.7777 203.672 31.737 203.672H33.9079V193.902H31.737C30.7777 193.902 30 193.124 30 192.165L30 141.71C30 140.75 30.7777 139.973 31.737 139.973H33.9079V41.712Z" fill="white"/>
<path d="M109.725 34.0684H73.772C59.959 34.0684 48.7614 45.266 48.7614 59.079L48.7614 643.702C48.7614 657.515 59.959 668.713 73.772 668.713H316.844C330.657 668.713 341.855 657.515 341.855 643.702V59.079C341.855 45.266 330.657 34.0684 316.844 34.0684L281.673 34.0684V37.9763C281.673 46.6094 274.674 53.6079 266.041 53.6079H125.356C116.723 53.6079 109.725 46.6094 109.725 37.9763V34.0684Z" fill="#E7EDF3"/>
<mask id="mask0" mask-type="alpha" maskUnits="userSpaceOnUse" x="48" y="33" width="294" height="636">
<path d="M109.73 33.6494H73.7772C59.9642 33.6494 48.7665 44.8471 48.7665 58.66L48.7665 643.283C48.7665 657.096 59.9642 668.294 73.7772 668.294H316.849C330.662 668.294 341.86 657.096 341.86 643.283V58.66C341.86 44.8471 330.662 33.6494 316.849 33.6494L281.678 33.6494V37.5573C281.678 46.1904 274.679 53.189 266.046 53.189H125.362C116.728 53.189 109.73 46.1904 109.73 37.5573V33.6494Z" fill="#E7EDF3"/>
</mask>
<g mask="url(#mask0)">
<rect x="29.0009" y="33" width="332" height="445" fill="#D3DDE7"/>
<path d="M111.565 283.361C111.324 284.846 110.657 286.031 109.563 286.916C108.47 287.795 107.138 288.221 105.569 288.195C104.664 288.176 103.87 287.961 103.186 287.551C102.509 287.141 101.979 286.545 101.595 285.764C101.211 284.976 100.996 284.087 100.95 283.098C100.911 282.355 101.002 281.346 101.224 280.07C101.445 278.788 101.868 277.639 102.493 276.623C103.125 275.607 103.896 274.842 104.808 274.328C105.726 273.814 106.744 273.566 107.864 273.586C109.277 273.612 110.393 274.058 111.214 274.924C112.041 275.783 112.48 276.971 112.532 278.488H110.14C110.107 277.473 109.892 276.74 109.495 276.291C109.104 275.835 108.522 275.598 107.747 275.578C106.686 275.546 105.797 275.926 105.081 276.721C104.365 277.515 103.883 278.671 103.636 280.188L103.44 281.486L103.352 282.482C103.3 283.153 103.346 283.785 103.489 284.377C103.639 284.963 103.899 285.412 104.27 285.725C104.642 286.031 105.114 286.193 105.686 286.213C107.503 286.285 108.668 285.34 109.183 283.381L111.565 283.361ZM113.392 282.678C113.502 281.643 113.805 280.702 114.3 279.855C114.801 279.009 115.442 278.355 116.224 277.893C117.005 277.43 117.871 277.212 118.821 277.238C119.726 277.251 120.507 277.492 121.165 277.961C121.823 278.43 122.301 279.071 122.601 279.885C122.907 280.699 123.014 281.604 122.923 282.6C122.819 283.719 122.513 284.709 122.005 285.568C121.504 286.428 120.859 287.089 120.071 287.551C119.29 288.007 118.421 288.221 117.464 288.195C116.565 288.182 115.787 287.945 115.13 287.482C114.479 287.014 114 286.376 113.694 285.568C113.388 284.755 113.278 283.859 113.362 282.883L113.392 282.678ZM115.667 284.016C115.699 284.699 115.879 285.249 116.204 285.666C116.536 286.076 116.995 286.291 117.581 286.311C118.375 286.33 119.039 286.024 119.573 285.393C120.114 284.761 120.452 283.898 120.589 282.805L120.647 281.848C120.647 281.014 120.481 280.36 120.149 279.885C119.817 279.41 119.336 279.159 118.704 279.133C117.714 279.107 116.933 279.592 116.36 280.588C116.015 281.193 115.797 281.89 115.706 282.678C115.654 283.225 115.641 283.671 115.667 284.016ZM127.962 277.424L127.727 278.664C128.632 277.688 129.677 277.212 130.862 277.238C131.852 277.258 132.584 277.613 133.06 278.303C133.535 278.986 133.711 279.943 133.587 281.174L132.444 288H130.13L131.282 281.145C131.315 280.865 131.318 280.604 131.292 280.363C131.207 279.589 130.745 279.191 129.905 279.172C129.026 279.159 128.255 279.592 127.591 280.471L126.272 288H123.958L125.784 277.434L127.962 277.424ZM135.501 288L137.024 279.191H135.462L135.774 277.434L137.259 277.443L137.395 276.652C137.623 275.415 138.147 274.455 138.968 273.771C139.788 273.088 140.833 272.759 142.102 272.785C142.61 272.792 143.105 272.857 143.587 272.98C144.075 273.104 144.56 273.241 145.042 273.391L144.485 275.344C143.665 275.012 142.89 274.846 142.161 274.846C140.781 274.833 139.961 275.484 139.7 276.799L139.573 277.443L141.673 277.434L141.36 279.191H139.349L137.815 288H135.501ZM143.645 288H141.321L143.157 277.434H145.472L143.645 288ZM146.8 282.707C146.923 281.652 147.207 280.699 147.649 279.846C148.099 278.993 148.662 278.342 149.339 277.893C150.016 277.437 150.791 277.215 151.663 277.229C152.822 277.255 153.698 277.681 154.29 278.508L154.651 277.424L156.761 277.434L155.013 287.707C154.817 289.087 154.235 290.184 153.265 290.998C152.301 291.818 151.126 292.209 149.739 292.17C148.997 292.157 148.294 291.988 147.63 291.662C146.966 291.337 146.432 290.907 146.028 290.373L147.259 288.977C147.877 289.829 148.685 290.269 149.681 290.295C150.436 290.321 151.084 290.113 151.624 289.67C152.171 289.234 152.535 288.609 152.718 287.795L152.884 287.053C152.07 287.84 151.145 288.221 150.11 288.195C149.121 288.182 148.326 287.808 147.727 287.072C147.135 286.337 146.81 285.347 146.751 284.104C146.731 283.713 146.748 283.247 146.8 282.707ZM149.095 282.912C149.056 283.244 149.043 283.602 149.056 283.986C149.069 284.676 149.225 285.223 149.524 285.627C149.824 286.031 150.25 286.242 150.804 286.262C151.683 286.294 152.451 285.887 153.108 285.041L153.938 280.373C153.6 279.598 152.998 279.198 152.132 279.172C151.351 279.152 150.693 279.455 150.159 280.08C149.625 280.705 149.277 281.581 149.114 282.707L149.095 282.912ZM163.899 286.955C163.099 287.808 162.096 288.221 160.892 288.195C160.208 288.182 159.638 288.013 159.183 287.688C158.733 287.362 158.411 286.91 158.216 286.33C158.027 285.744 157.972 285.057 158.05 284.27L159.192 277.434H161.507L160.354 284.299C160.328 284.54 160.325 284.774 160.345 285.002C160.41 285.809 160.817 286.229 161.565 286.262C162.588 286.301 163.414 285.891 164.046 285.031L165.374 277.434H167.688L165.862 288H163.694L163.899 286.955ZM175.159 279.602C174.86 279.536 174.557 279.504 174.251 279.504C173.235 279.478 172.428 279.898 171.829 280.764L170.56 288H168.245L170.071 277.434L172.268 277.424L172.034 278.625C172.757 277.668 173.59 277.199 174.534 277.219C174.749 277.219 175.045 277.268 175.423 277.365L175.159 279.602ZM179.749 288.195C178.831 288.176 178.033 287.945 177.356 287.502C176.686 287.059 176.188 286.454 175.862 285.686C175.543 284.917 175.423 284.061 175.501 283.117L175.53 282.717C175.647 281.643 175.96 280.679 176.468 279.826C176.982 278.967 177.62 278.316 178.382 277.873C179.143 277.43 179.97 277.219 180.862 277.238C182.184 277.264 183.173 277.756 183.831 278.713C184.495 279.67 184.746 280.917 184.583 282.453L184.446 283.469H177.796C177.737 284.309 177.907 284.986 178.304 285.5C178.701 286.014 179.248 286.278 179.944 286.291C180.94 286.324 181.858 285.891 182.698 284.992L183.87 286.223C183.427 286.854 182.845 287.346 182.122 287.697C181.399 288.042 180.608 288.208 179.749 288.195ZM180.735 279.133C179.511 279.094 178.593 279.96 177.981 281.73L182.366 281.74L182.405 281.535C182.451 281.236 182.454 280.943 182.415 280.656C182.343 280.194 182.161 279.829 181.868 279.562C181.575 279.296 181.198 279.152 180.735 279.133ZM194.554 284.582L197.874 277.434H200.433L194.173 289.826C193.3 291.493 192.151 292.316 190.726 292.297C190.374 292.284 189.974 292.219 189.524 292.102L189.72 290.266L190.14 290.305C190.699 290.324 191.162 290.217 191.526 289.982C191.891 289.755 192.197 289.396 192.444 288.908L193.001 287.814L191.233 277.434H193.636L194.554 284.582ZM200.364 282.678C200.475 281.643 200.778 280.702 201.272 279.855C201.774 279.009 202.415 278.355 203.196 277.893C203.977 277.43 204.843 277.212 205.794 277.238C206.699 277.251 207.48 277.492 208.138 277.961C208.795 278.43 209.274 279.071 209.573 279.885C209.879 280.699 209.987 281.604 209.895 282.6C209.791 283.719 209.485 284.709 208.977 285.568C208.476 286.428 207.832 287.089 207.044 287.551C206.263 288.007 205.393 288.221 204.436 288.195C203.538 288.182 202.76 287.945 202.102 287.482C201.451 287.014 200.973 286.376 200.667 285.568C200.361 284.755 200.25 283.859 200.335 282.883L200.364 282.678ZM202.64 284.016C202.672 284.699 202.851 285.249 203.177 285.666C203.509 286.076 203.968 286.291 204.554 286.311C205.348 286.33 206.012 286.024 206.546 285.393C207.086 284.761 207.425 283.898 207.561 282.805L207.62 281.848C207.62 281.014 207.454 280.36 207.122 279.885C206.79 279.41 206.308 279.159 205.677 279.133C204.687 279.107 203.906 279.592 203.333 280.588C202.988 281.193 202.77 281.89 202.679 282.678C202.627 283.225 202.614 283.671 202.64 284.016ZM217.493 286.955C216.692 287.808 215.69 288.221 214.485 288.195C213.802 288.182 213.232 288.013 212.776 287.688C212.327 287.362 212.005 286.91 211.81 286.33C211.621 285.744 211.565 285.057 211.643 284.27L212.786 277.434H215.101L213.948 284.299C213.922 284.54 213.919 284.774 213.938 285.002C214.004 285.809 214.41 286.229 215.159 286.262C216.181 286.301 217.008 285.891 217.64 285.031L218.968 277.434H221.282L219.456 288H217.288L217.493 286.955ZM228.753 279.602C228.453 279.536 228.151 279.504 227.845 279.504C226.829 279.478 226.022 279.898 225.423 280.764L224.153 288H221.839L223.665 277.434L225.862 277.424L225.628 278.625C226.351 277.668 227.184 277.199 228.128 277.219C228.343 277.219 228.639 277.268 229.017 277.365L228.753 279.602ZM243.587 282.756C243.457 283.811 243.173 284.768 242.737 285.627C242.308 286.486 241.757 287.137 241.087 287.58C240.423 288.016 239.677 288.225 238.851 288.205C237.75 288.179 236.884 287.788 236.253 287.033L235.306 292.062H232.981L235.52 277.434L237.64 277.424L237.464 278.518C238.271 277.639 239.231 277.212 240.345 277.238C241.015 277.245 241.598 277.417 242.093 277.756C242.588 278.088 242.965 278.573 243.226 279.211C243.492 279.849 243.636 280.559 243.655 281.34C243.662 281.737 243.639 282.209 243.587 282.756ZM241.302 282.551L241.351 281.838C241.37 280.998 241.23 280.347 240.931 279.885C240.638 279.423 240.195 279.185 239.602 279.172C238.73 279.146 237.975 279.546 237.337 280.373L236.517 285.09C236.81 285.878 237.405 286.285 238.304 286.311C239.072 286.33 239.716 286.031 240.237 285.412C240.765 284.794 241.119 283.84 241.302 282.551ZM247.171 288H244.856L247.464 273H249.778L247.171 288ZM256.048 288C255.97 287.74 255.937 287.411 255.95 287.014C255.078 287.827 254.137 288.221 253.128 288.195C252.21 288.182 251.448 287.889 250.843 287.316C250.244 286.737 249.964 286.005 250.003 285.119C250.055 284.006 250.537 283.13 251.448 282.492C252.36 281.854 253.584 281.535 255.12 281.535L256.624 281.555L256.761 280.832C256.8 280.578 256.8 280.34 256.761 280.119C256.63 279.416 256.165 279.055 255.364 279.035C254.869 279.022 254.433 279.149 254.056 279.416C253.685 279.676 253.457 280.028 253.372 280.471L251.058 280.49C251.103 279.839 251.334 279.27 251.751 278.781C252.168 278.286 252.721 277.902 253.411 277.629C254.101 277.355 254.83 277.225 255.599 277.238C256.751 277.264 257.649 277.613 258.294 278.283C258.938 278.947 259.205 279.81 259.095 280.871L258.284 285.822L258.206 286.701C258.186 287.085 258.235 287.46 258.352 287.824L258.343 288H256.048ZM253.665 286.301C254.153 286.314 254.606 286.203 255.022 285.969C255.439 285.728 255.794 285.419 256.087 285.041L256.448 283.039L255.345 283.029C254.472 283.029 253.776 283.195 253.255 283.527C252.734 283.853 252.438 284.302 252.366 284.875C252.314 285.311 252.408 285.656 252.649 285.91C252.897 286.158 253.235 286.288 253.665 286.301ZM264.983 286.311C265.537 286.324 266.025 286.164 266.448 285.832C266.878 285.493 267.151 285.054 267.268 284.514L269.456 284.504C269.384 285.201 269.13 285.835 268.694 286.408C268.265 286.981 267.711 287.427 267.034 287.746C266.357 288.065 265.651 288.215 264.915 288.195C264.01 288.182 263.239 287.948 262.601 287.492C261.963 287.036 261.497 286.408 261.204 285.607C260.911 284.8 260.813 283.902 260.911 282.912L260.94 282.57C261.051 281.548 261.347 280.624 261.829 279.797C262.317 278.964 262.946 278.322 263.714 277.873C264.482 277.424 265.335 277.212 266.272 277.238C267.418 277.264 268.333 277.645 269.017 278.381C269.7 279.11 270.042 280.061 270.042 281.232H267.874C267.874 280.627 267.724 280.132 267.425 279.748C267.132 279.364 266.705 279.159 266.145 279.133C265.24 279.107 264.528 279.491 264.007 280.285C263.486 281.079 263.206 282.199 263.167 283.645C263.121 285.396 263.727 286.285 264.983 286.311ZM275.413 288.195C274.495 288.176 273.698 287.945 273.02 287.502C272.35 287.059 271.852 286.454 271.526 285.686C271.207 284.917 271.087 284.061 271.165 283.117L271.194 282.717C271.311 281.643 271.624 280.679 272.132 279.826C272.646 278.967 273.284 278.316 274.046 277.873C274.808 277.43 275.634 277.219 276.526 277.238C277.848 277.264 278.838 277.756 279.495 278.713C280.159 279.67 280.41 280.917 280.247 282.453L280.11 283.469H273.46C273.401 284.309 273.571 284.986 273.968 285.5C274.365 286.014 274.912 286.278 275.608 286.291C276.604 286.324 277.522 285.891 278.362 284.992L279.534 286.223C279.091 286.854 278.509 287.346 277.786 287.697C277.063 288.042 276.272 288.208 275.413 288.195ZM276.399 279.133C275.175 279.094 274.257 279.96 273.645 281.73L278.03 281.74L278.069 281.535C278.115 281.236 278.118 280.943 278.079 280.656C278.007 280.194 277.825 279.829 277.532 279.562C277.239 279.296 276.862 279.152 276.399 279.133ZM287.454 285.07C287.565 284.426 287.145 283.98 286.194 283.732C285.25 283.479 284.606 283.277 284.261 283.127C282.92 282.554 282.272 281.682 282.317 280.51C282.35 279.559 282.78 278.775 283.606 278.156C284.44 277.531 285.436 277.225 286.595 277.238C287.714 277.251 288.626 277.567 289.329 278.186C290.039 278.804 290.387 279.615 290.374 280.617L288.079 280.607C288.092 280.119 287.959 279.738 287.679 279.465C287.399 279.185 287.015 279.038 286.526 279.025C286.012 279.025 285.569 279.152 285.198 279.406C284.834 279.66 284.622 279.992 284.563 280.402C284.472 280.995 284.889 281.408 285.813 281.643C286.738 281.87 287.421 282.082 287.864 282.277C289.153 282.844 289.775 283.729 289.729 284.934C289.697 285.604 289.476 286.19 289.065 286.691C288.662 287.186 288.118 287.567 287.435 287.834C286.751 288.094 286.025 288.215 285.257 288.195C284.104 288.182 283.147 287.847 282.386 287.189C281.63 286.532 281.259 285.689 281.272 284.66L283.509 284.67C283.522 285.236 283.691 285.666 284.017 285.959C284.342 286.252 284.788 286.402 285.354 286.408C285.927 286.408 286.403 286.291 286.78 286.057C287.164 285.816 287.389 285.487 287.454 285.07ZM101.565 305.766C101.435 306.84 101.145 307.813 100.696 308.686C100.254 309.551 99.7001 310.193 99.0361 310.609C98.3785 311.026 97.6363 311.225 96.8095 311.205C95.6311 311.179 94.7425 310.727 94.1435 309.848L93.7724 311H91.6533L94.2509 296H96.5751L95.5204 301.459C96.3082 300.619 97.2425 300.212 98.3232 300.238C99.3453 300.264 100.143 300.639 100.716 301.361C101.295 302.084 101.601 303.074 101.634 304.33C101.64 304.721 101.617 305.199 101.565 305.766ZM99.3388 304.457C99.3388 303.747 99.1923 303.194 98.8994 302.797C98.6064 302.393 98.1832 302.185 97.6298 302.172C96.6988 302.146 95.9111 302.595 95.2665 303.52L94.5048 307.895C94.7913 308.78 95.4065 309.239 96.3505 309.271C97.1318 309.291 97.7731 308.992 98.2744 308.373C98.7822 307.755 99.1077 306.882 99.2509 305.756C99.303 305.202 99.3323 304.77 99.3388 304.457ZM108.948 311C108.87 310.74 108.838 310.411 108.851 310.014C107.978 310.827 107.037 311.221 106.028 311.195C105.11 311.182 104.349 310.889 103.743 310.316C103.144 309.737 102.864 309.005 102.903 308.119C102.955 307.006 103.437 306.13 104.349 305.492C105.26 304.854 106.484 304.535 108.02 304.535L109.524 304.555L109.661 303.832C109.7 303.578 109.7 303.34 109.661 303.119C109.531 302.416 109.065 302.055 108.265 302.035C107.77 302.022 107.334 302.149 106.956 302.416C106.585 302.676 106.357 303.028 106.272 303.471L103.958 303.49C104.004 302.839 104.235 302.27 104.651 301.781C105.068 301.286 105.621 300.902 106.311 300.629C107.002 300.355 107.731 300.225 108.499 300.238C109.651 300.264 110.55 300.613 111.194 301.283C111.839 301.947 112.106 302.81 111.995 303.871L111.185 308.822L111.106 309.701C111.087 310.085 111.136 310.46 111.253 310.824L111.243 311H108.948ZM106.565 309.301C107.054 309.314 107.506 309.203 107.923 308.969C108.339 308.728 108.694 308.419 108.987 308.041L109.349 306.039L108.245 306.029C107.373 306.029 106.676 306.195 106.155 306.527C105.634 306.853 105.338 307.302 105.267 307.875C105.214 308.311 105.309 308.656 105.55 308.91C105.797 309.158 106.136 309.288 106.565 309.301ZM119.593 308.07C119.703 307.426 119.283 306.98 118.333 306.732C117.389 306.479 116.744 306.277 116.399 306.127C115.058 305.554 114.41 304.682 114.456 303.51C114.489 302.559 114.918 301.775 115.745 301.156C116.578 300.531 117.574 300.225 118.733 300.238C119.853 300.251 120.765 300.567 121.468 301.186C122.177 301.804 122.526 302.615 122.513 303.617L120.218 303.607C120.231 303.119 120.097 302.738 119.817 302.465C119.537 302.185 119.153 302.038 118.665 302.025C118.151 302.025 117.708 302.152 117.337 302.406C116.972 302.66 116.761 302.992 116.702 303.402C116.611 303.995 117.028 304.408 117.952 304.643C118.877 304.87 119.56 305.082 120.003 305.277C121.292 305.844 121.914 306.729 121.868 307.934C121.836 308.604 121.614 309.19 121.204 309.691C120.8 310.186 120.257 310.567 119.573 310.834C118.89 311.094 118.164 311.215 117.395 311.195C116.243 311.182 115.286 310.847 114.524 310.189C113.769 309.532 113.398 308.689 113.411 307.66L115.647 307.67C115.66 308.236 115.83 308.666 116.155 308.959C116.481 309.252 116.927 309.402 117.493 309.408C118.066 309.408 118.541 309.291 118.919 309.057C119.303 308.816 119.528 308.487 119.593 308.07ZM128.177 311.195C127.259 311.176 126.461 310.945 125.784 310.502C125.114 310.059 124.615 309.454 124.29 308.686C123.971 307.917 123.851 307.061 123.929 306.117L123.958 305.717C124.075 304.643 124.388 303.679 124.895 302.826C125.41 301.967 126.048 301.316 126.81 300.873C127.571 300.43 128.398 300.219 129.29 300.238C130.612 300.264 131.601 300.756 132.259 301.713C132.923 302.67 133.173 303.917 133.011 305.453L132.874 306.469H126.224C126.165 307.309 126.334 307.986 126.731 308.5C127.129 309.014 127.675 309.278 128.372 309.291C129.368 309.324 130.286 308.891 131.126 307.992L132.298 309.223C131.855 309.854 131.272 310.346 130.55 310.697C129.827 311.042 129.036 311.208 128.177 311.195ZM129.163 302.133C127.939 302.094 127.021 302.96 126.409 304.73L130.794 304.74L130.833 304.535C130.879 304.236 130.882 303.943 130.843 303.656C130.771 303.194 130.589 302.829 130.296 302.562C130.003 302.296 129.625 302.152 129.163 302.133ZM134.407 305.707C134.537 304.62 134.83 303.643 135.286 302.777C135.742 301.911 136.305 301.267 136.976 300.844C137.646 300.414 138.392 300.209 139.212 300.229C140.286 300.255 141.126 300.655 141.731 301.43L142.747 296H145.071L142.464 311H140.393L140.55 309.906C139.729 310.798 138.766 311.231 137.659 311.205C136.676 311.192 135.888 310.814 135.296 310.072C134.71 309.324 134.394 308.331 134.349 307.094C134.329 306.69 134.339 306.296 134.378 305.912L134.407 305.707ZM136.653 306.615C136.608 307.423 136.731 308.064 137.024 308.539C137.324 309.014 137.767 309.258 138.352 309.271C139.244 309.298 140.016 308.865 140.667 307.973L141.458 303.432C141.152 302.618 140.56 302.198 139.681 302.172C138.795 302.146 138.082 302.536 137.542 303.344C137.002 304.151 136.705 305.242 136.653 306.615ZM150.452 305.678C150.563 304.643 150.865 303.702 151.36 302.855C151.862 302.009 152.503 301.355 153.284 300.893C154.065 300.43 154.931 300.212 155.882 300.238C156.787 300.251 157.568 300.492 158.226 300.961C158.883 301.43 159.362 302.071 159.661 302.885C159.967 303.699 160.074 304.604 159.983 305.6C159.879 306.719 159.573 307.709 159.065 308.568C158.564 309.428 157.92 310.089 157.132 310.551C156.351 311.007 155.481 311.221 154.524 311.195C153.626 311.182 152.848 310.945 152.19 310.482C151.539 310.014 151.061 309.376 150.755 308.568C150.449 307.755 150.338 306.859 150.423 305.883L150.452 305.678ZM152.727 307.016C152.76 307.699 152.939 308.249 153.265 308.666C153.597 309.076 154.056 309.291 154.642 309.311C155.436 309.33 156.1 309.024 156.634 308.393C157.174 307.761 157.513 306.898 157.649 305.805L157.708 304.848C157.708 304.014 157.542 303.36 157.21 302.885C156.878 302.41 156.396 302.159 155.765 302.133C154.775 302.107 153.994 302.592 153.421 303.588C153.076 304.193 152.858 304.89 152.767 305.678C152.714 306.225 152.701 306.671 152.727 307.016ZM165.022 300.424L164.788 301.664C165.693 300.688 166.738 300.212 167.923 300.238C168.912 300.258 169.645 300.613 170.12 301.303C170.595 301.986 170.771 302.943 170.647 304.174L169.505 311H167.19L168.343 304.145C168.375 303.865 168.379 303.604 168.352 303.363C168.268 302.589 167.806 302.191 166.966 302.172C166.087 302.159 165.315 302.592 164.651 303.471L163.333 311H161.018L162.845 300.434L165.022 300.424ZM181.028 307.582L184.349 300.434H186.907L180.647 312.826C179.775 314.493 178.626 315.316 177.2 315.297C176.849 315.284 176.448 315.219 175.999 315.102L176.194 313.266L176.614 313.305C177.174 313.324 177.636 313.217 178.001 312.982C178.365 312.755 178.671 312.396 178.919 311.908L179.476 310.814L177.708 300.434H180.11L181.028 307.582ZM186.839 305.678C186.949 304.643 187.252 303.702 187.747 302.855C188.248 302.009 188.89 301.355 189.671 300.893C190.452 300.43 191.318 300.212 192.268 300.238C193.173 300.251 193.955 300.492 194.612 300.961C195.27 301.43 195.748 302.071 196.048 302.885C196.354 303.699 196.461 304.604 196.37 305.6C196.266 306.719 195.96 307.709 195.452 308.568C194.951 309.428 194.306 310.089 193.518 310.551C192.737 311.007 191.868 311.221 190.911 311.195C190.013 311.182 189.235 310.945 188.577 310.482C187.926 310.014 187.448 309.376 187.142 308.568C186.836 307.755 186.725 306.859 186.81 305.883L186.839 305.678ZM189.114 307.016C189.147 307.699 189.326 308.249 189.651 308.666C189.983 309.076 190.442 309.291 191.028 309.311C191.823 309.33 192.487 309.024 193.02 308.393C193.561 307.761 193.899 306.898 194.036 305.805L194.095 304.848C194.095 304.014 193.929 303.36 193.597 302.885C193.265 302.41 192.783 302.159 192.151 302.133C191.162 302.107 190.38 302.592 189.808 303.588C189.463 304.193 189.244 304.89 189.153 305.678C189.101 306.225 189.088 306.671 189.114 307.016ZM203.968 309.955C203.167 310.808 202.164 311.221 200.96 311.195C200.276 311.182 199.707 311.013 199.251 310.688C198.802 310.362 198.479 309.91 198.284 309.33C198.095 308.744 198.04 308.057 198.118 307.27L199.261 300.434H201.575L200.423 307.299C200.397 307.54 200.393 307.774 200.413 308.002C200.478 308.809 200.885 309.229 201.634 309.262C202.656 309.301 203.483 308.891 204.114 308.031L205.442 300.434H207.757L205.931 311H203.763L203.968 309.955ZM215.227 302.602C214.928 302.536 214.625 302.504 214.319 302.504C213.304 302.478 212.496 302.898 211.897 303.764L210.628 311H208.313L210.14 300.434L212.337 300.424L212.102 301.625C212.825 300.668 213.658 300.199 214.602 300.219C214.817 300.219 215.114 300.268 215.491 300.365L215.227 302.602ZM226.448 311C226.37 310.74 226.338 310.411 226.351 310.014C225.478 310.827 224.537 311.221 223.528 311.195C222.61 311.182 221.849 310.889 221.243 310.316C220.644 309.737 220.364 309.005 220.403 308.119C220.455 307.006 220.937 306.13 221.849 305.492C222.76 304.854 223.984 304.535 225.52 304.535L227.024 304.555L227.161 303.832C227.2 303.578 227.2 303.34 227.161 303.119C227.031 302.416 226.565 302.055 225.765 302.035C225.27 302.022 224.834 302.149 224.456 302.416C224.085 302.676 223.857 303.028 223.772 303.471L221.458 303.49C221.504 302.839 221.735 302.27 222.151 301.781C222.568 301.286 223.121 300.902 223.811 300.629C224.502 300.355 225.231 300.225 225.999 300.238C227.151 300.264 228.05 300.613 228.694 301.283C229.339 301.947 229.606 302.81 229.495 303.871L228.685 308.822L228.606 309.701C228.587 310.085 228.636 310.46 228.753 310.824L228.743 311H226.448ZM224.065 309.301C224.554 309.314 225.006 309.203 225.423 308.969C225.839 308.728 226.194 308.419 226.487 308.041L226.849 306.039L225.745 306.029C224.873 306.029 224.176 306.195 223.655 306.527C223.134 306.853 222.838 307.302 222.767 307.875C222.714 308.311 222.809 308.656 223.05 308.91C223.297 309.158 223.636 309.288 224.065 309.301ZM235.384 309.311C235.937 309.324 236.425 309.164 236.849 308.832C237.278 308.493 237.552 308.054 237.669 307.514L239.856 307.504C239.785 308.201 239.531 308.835 239.095 309.408C238.665 309.981 238.112 310.427 237.435 310.746C236.757 311.065 236.051 311.215 235.315 311.195C234.41 311.182 233.639 310.948 233.001 310.492C232.363 310.036 231.897 309.408 231.604 308.607C231.311 307.8 231.214 306.902 231.311 305.912L231.341 305.57C231.451 304.548 231.748 303.624 232.229 302.797C232.718 301.964 233.346 301.322 234.114 300.873C234.882 300.424 235.735 300.212 236.673 300.238C237.819 300.264 238.733 300.645 239.417 301.381C240.101 302.11 240.442 303.061 240.442 304.232H238.274C238.274 303.627 238.125 303.132 237.825 302.748C237.532 302.364 237.106 302.159 236.546 302.133C235.641 302.107 234.928 302.491 234.407 303.285C233.886 304.079 233.606 305.199 233.567 306.645C233.522 308.396 234.127 309.285 235.384 309.311ZM246.214 297.865L245.765 300.434H247.571L247.268 302.191H245.452L244.456 308.109C244.436 308.272 244.433 308.419 244.446 308.549C244.485 308.972 244.746 309.193 245.227 309.213C245.468 309.213 245.742 309.184 246.048 309.125L245.892 310.98C245.41 311.117 244.925 311.186 244.436 311.186C243.629 311.173 243.024 310.899 242.62 310.365C242.223 309.825 242.067 309.112 242.151 308.227L243.138 302.191H241.448L241.761 300.434H243.44L243.89 297.865H246.214ZM250.052 311H247.737L249.573 300.434H251.888L250.052 311ZM249.905 297.729C249.905 297.37 250.022 297.064 250.257 296.811C250.491 296.557 250.807 296.423 251.204 296.41C251.582 296.397 251.894 296.514 252.142 296.762C252.395 297.003 252.522 297.299 252.522 297.65C252.522 298.021 252.399 298.327 252.151 298.568C251.91 298.809 251.601 298.936 251.224 298.949C250.852 298.962 250.54 298.852 250.286 298.617C250.032 298.376 249.905 298.08 249.905 297.729ZM256.81 307.963L260.149 300.434H262.62L257.415 311H255.403L253.47 300.434H255.794L256.81 307.963ZM264.817 311H262.503L264.339 300.434H266.653L264.817 311ZM264.671 297.729C264.671 297.37 264.788 297.064 265.022 296.811C265.257 296.557 265.573 296.423 265.97 296.41C266.347 296.397 266.66 296.514 266.907 296.762C267.161 297.003 267.288 297.299 267.288 297.65C267.288 298.021 267.164 298.327 266.917 298.568C266.676 298.809 266.367 298.936 265.989 298.949C265.618 298.962 265.306 298.852 265.052 298.617C264.798 298.376 264.671 298.08 264.671 297.729ZM272.601 297.865L272.151 300.434H273.958L273.655 302.191H271.839L270.843 308.109C270.823 308.272 270.82 308.419 270.833 308.549C270.872 308.972 271.132 309.193 271.614 309.213C271.855 309.213 272.129 309.184 272.435 309.125L272.278 310.98C271.796 311.117 271.311 311.186 270.823 311.186C270.016 311.173 269.41 310.899 269.007 310.365C268.61 309.825 268.453 309.112 268.538 308.227L269.524 302.191H267.835L268.147 300.434H269.827L270.276 297.865H272.601ZM276.438 311H274.124L275.96 300.434H278.274L276.438 311ZM276.292 297.729C276.292 297.37 276.409 297.064 276.643 296.811C276.878 296.557 277.194 296.423 277.591 296.41C277.968 296.397 278.281 296.514 278.528 296.762C278.782 297.003 278.909 297.299 278.909 297.65C278.909 298.021 278.785 298.327 278.538 298.568C278.297 298.809 277.988 298.936 277.61 298.949C277.239 298.962 276.927 298.852 276.673 298.617C276.419 298.376 276.292 298.08 276.292 297.729ZM283.821 311.195C282.903 311.176 282.106 310.945 281.429 310.502C280.758 310.059 280.26 309.454 279.935 308.686C279.615 307.917 279.495 307.061 279.573 306.117L279.602 305.717C279.72 304.643 280.032 303.679 280.54 302.826C281.054 301.967 281.692 301.316 282.454 300.873C283.216 300.43 284.043 300.219 284.935 300.238C286.256 300.264 287.246 300.756 287.903 301.713C288.567 302.67 288.818 303.917 288.655 305.453L288.518 306.469H281.868C281.81 307.309 281.979 307.986 282.376 308.5C282.773 309.014 283.32 309.278 284.017 309.291C285.013 309.324 285.931 308.891 286.77 307.992L287.942 309.223C287.5 309.854 286.917 310.346 286.194 310.697C285.472 311.042 284.681 311.208 283.821 311.195ZM284.808 302.133C283.584 302.094 282.666 302.96 282.054 304.73L286.438 304.74L286.477 304.535C286.523 304.236 286.526 303.943 286.487 303.656C286.416 303.194 286.233 302.829 285.94 302.562C285.647 302.296 285.27 302.152 284.808 302.133ZM295.862 308.07C295.973 307.426 295.553 306.98 294.602 306.732C293.658 306.479 293.014 306.277 292.669 306.127C291.328 305.554 290.68 304.682 290.726 303.51C290.758 302.559 291.188 301.775 292.015 301.156C292.848 300.531 293.844 300.225 295.003 300.238C296.123 300.251 297.034 300.567 297.737 301.186C298.447 301.804 298.795 302.615 298.782 303.617L296.487 303.607C296.5 303.119 296.367 302.738 296.087 302.465C295.807 302.185 295.423 302.038 294.935 302.025C294.42 302.025 293.977 302.152 293.606 302.406C293.242 302.66 293.03 302.992 292.972 303.402C292.88 303.995 293.297 304.408 294.222 304.643C295.146 304.87 295.83 305.082 296.272 305.277C297.561 305.844 298.183 306.729 298.138 307.934C298.105 308.604 297.884 309.19 297.474 309.691C297.07 310.186 296.526 310.567 295.843 310.834C295.159 311.094 294.433 311.215 293.665 311.195C292.513 311.182 291.556 310.847 290.794 310.189C290.039 309.532 289.668 308.689 289.681 307.66L291.917 307.67C291.93 308.236 292.099 308.666 292.425 308.959C292.75 309.252 293.196 309.402 293.763 309.408C294.336 309.408 294.811 309.291 295.188 309.057C295.573 308.816 295.797 308.487 295.862 308.07Z" fill="#0F1C26"/>
<circle cx="173.001" cy="527" r="7" fill="#0043EF"/>
<circle cx="195.001" cy="527" r="7" fill="#D3DDE7"/>
<circle cx="217.001" cy="527" r="7" fill="#D3DDE7"/>
<rect x="135.001" y="560" width="135" height="46" fill="#D3DDE7"/>
<path d="M190.858 585.27C190.858 584.716 190.663 584.293 190.272 584C189.882 583.701 189.179 583.388 188.163 583.062C187.147 582.73 186.343 582.405 185.751 582.086C184.136 581.214 183.329 580.038 183.329 578.561C183.329 577.792 183.544 577.109 183.974 576.51C184.41 575.904 185.032 575.432 185.839 575.094C186.653 574.755 187.564 574.586 188.573 574.586C189.589 574.586 190.494 574.771 191.288 575.143C192.082 575.507 192.698 576.025 193.134 576.695C193.576 577.366 193.798 578.128 193.798 578.98H190.868C190.868 578.329 190.663 577.825 190.253 577.467C189.843 577.102 189.267 576.92 188.524 576.92C187.808 576.92 187.252 577.073 186.854 577.379C186.457 577.678 186.259 578.076 186.259 578.57C186.259 579.033 186.49 579.42 186.952 579.732C187.421 580.045 188.108 580.338 189.013 580.611C190.679 581.113 191.893 581.734 192.655 582.477C193.417 583.219 193.798 584.143 193.798 585.25C193.798 586.48 193.332 587.447 192.401 588.15C191.47 588.847 190.217 589.195 188.642 589.195C187.548 589.195 186.552 588.997 185.653 588.6C184.755 588.196 184.068 587.646 183.593 586.949C183.124 586.253 182.89 585.445 182.89 584.527H185.829C185.829 586.096 186.767 586.881 188.642 586.881C189.338 586.881 189.882 586.741 190.272 586.461C190.663 586.174 190.858 585.777 190.858 585.27ZM199.442 584.762L198.427 585.777V589H195.604V574H198.427V582.311L198.974 581.607L201.679 578.434H205.067L201.249 582.838L205.399 589H202.157L199.442 584.762ZM209.267 589H206.435V578.434H209.267V589ZM206.268 575.699C206.268 575.276 206.408 574.928 206.688 574.654C206.975 574.381 207.362 574.244 207.851 574.244C208.332 574.244 208.716 574.381 209.003 574.654C209.289 574.928 209.433 575.276 209.433 575.699C209.433 576.129 209.286 576.48 208.993 576.754C208.707 577.027 208.326 577.164 207.851 577.164C207.375 577.164 206.991 577.027 206.698 576.754C206.412 576.48 206.268 576.129 206.268 575.699ZM221.112 583.814C221.112 585.442 220.741 586.747 219.999 587.73C219.263 588.707 218.267 589.195 217.011 589.195C215.943 589.195 215.08 588.824 214.423 588.082V593.062H211.601V578.434H214.218L214.315 579.469C214.999 578.648 215.891 578.238 216.991 578.238C218.293 578.238 219.306 578.72 220.028 579.684C220.751 580.647 221.112 581.975 221.112 583.668V583.814ZM218.29 583.609C218.29 582.626 218.114 581.868 217.763 581.334C217.418 580.8 216.913 580.533 216.249 580.533C215.364 580.533 214.755 580.872 214.423 581.549V585.875C214.768 586.572 215.383 586.92 216.268 586.92C217.616 586.92 218.29 585.816 218.29 583.609Z" fill="#0F1C26"/>
</g>
<rect opacity="0.4" x="165.215" y="34.0684" width="67.2161" height="6.25266" rx="1.73696" fill="#D3DDE7"/>
<rect opacity="0.5" x="243.373" y="30.1611" width="14.0685" height="14.0685" rx="4.77664" fill="#E7EDF3"/>
<rect opacity="0.5" x="246.499" y="33.2881" width="7.81582" height="7.81582" rx="3.90791" fill="white"/>
<rect opacity="0.5" x="127.699" y="34.0684" width="6.25266" height="6.25266" rx="1.73696" fill="#D3DDE7"/>
</g>
<defs>
<filter id="filter0_d" x="0" y="0" width="391" height="722.781" filterUnits="userSpaceOnUse" color-interpolation-filters="sRGB">
<feFlood flood-opacity="0" result="BackgroundImageFix"/>
<feColorMatrix in="SourceAlpha" type="matrix" values="0 0 0 0 0 0 0 0 0 0 0 0 0 0 0 0 0 0 127 0" result="hardAlpha"/>
<feOffset dy="10"/>
<feGaussianBlur stdDeviation="15"/>
<feColorMatrix type="matrix" values="0 0 0 0 0.0207639 0 0 0 0 0.0756167 0 0 0 0 0.216667 0 0 0 0.1 0"/>
<feBlend mode="normal" in2="BackgroundImageFix" result="effect1_dropShadow"/>
<feBlend mode="normal" in="SourceGraphic" in2="effect1_dropShadow" result="shape"/>
</filter>
</defs>
</svg>
