<svg width="391" height="723" viewBox="0 0 391 723" fill="none" xmlns="http://www.w3.org/2000/svg">
<g filter="url(#filter0_d)">
<path d="M33.9079 41.712C33.9079 29.7208 43.6287 20 55.6199 20L334.989 20C346.98 20 356.701 29.7208 356.701 41.712V166.547C359.075 166.547 361 168.471 361 170.845V223.993C361 226.367 359.075 228.292 356.701 228.292V661.069C356.701 673.061 346.98 682.781 334.989 682.781H55.6199C43.6287 682.781 33.9079 673.061 33.9079 661.07L33.9079 256.038H31.737C30.7777 256.038 30 255.26 30 254.301V205.409C30 204.449 30.7777 203.672 31.737 203.672H33.9079V193.902H31.737C30.7777 193.902 30 193.124 30 192.165L30 141.71C30 140.75 30.7777 139.973 31.737 139.973H33.9079V41.712Z" fill="white"/>
<path d="M109.725 34.0684H73.772C59.959 34.0684 48.7614 45.266 48.7614 59.079L48.7614 643.702C48.7614 657.515 59.959 668.713 73.772 668.713H316.844C330.657 668.713 341.855 657.515 341.855 643.702V59.079C341.855 45.266 330.657 34.0684 316.844 34.0684L281.673 34.0684V37.9763C281.673 46.6094 274.674 53.6079 266.041 53.6079H125.356C116.723 53.6079 109.725 46.6094 109.725 37.9763V34.0684Z" fill="#E7EDF3"/>
<mask id="mask0" mask-type="alpha" maskUnits="userSpaceOnUse" x="48" y="33" width="294" height="636">
<path d="M109.73 33.6494H73.7772C59.9642 33.6494 48.7666 44.8471 48.7666 58.66L48.7666 643.283C48.7666 657.096 59.9642 668.294 73.7772 668.294H316.849C330.662 668.294 341.86 657.096 341.86 643.283V58.66C341.86 44.8471 330.662 33.6494 316.849 33.6494L281.678 33.6494V37.5573C281.678 46.1904 274.679 53.189 266.046 53.189H125.362C116.728 53.189 109.73 46.1904 109.73 37.5573V33.6494Z" fill="#E7EDF3"/>
</mask>
<g mask="url(#mask0)">
<path d="M156.669 79.1911C156.296 76.4962 154.223 74.9325 151.534 74.9325C148.365 74.9325 145.978 77.2424 145.978 81.1634C145.978 85.0785 148.335 87.3944 151.534 87.3944C154.418 87.3944 156.331 85.5286 156.669 83.2128L154.454 83.2009C154.175 84.6224 153.014 85.422 151.563 85.422C149.597 85.422 148.187 83.9472 148.187 81.1634C148.187 78.427 149.585 76.9048 151.569 76.9048C153.044 76.9048 154.199 77.74 154.454 79.1911H156.669ZM158.711 87.2285H160.856V81.8801C160.856 80.7251 161.726 79.9078 162.905 79.9078C163.266 79.9078 163.716 79.9729 163.9 80.0321V78.0598C163.705 78.0243 163.367 78.0006 163.13 78.0006C162.088 78.0006 161.217 78.5929 160.885 79.6472H160.79V78.1309H158.711V87.2285ZM169.102 87.4062C171.223 87.4062 172.68 86.3697 173.059 84.7883L171.057 84.5632C170.767 85.3332 170.056 85.7359 169.132 85.7359C167.746 85.7359 166.828 84.8238 166.81 83.2661H173.148V82.6086C173.148 79.4162 171.229 78.0124 168.99 78.0124C166.384 78.0124 164.684 79.9255 164.684 82.733C164.684 85.5879 166.36 87.4062 169.102 87.4062ZM166.816 81.8209C166.881 80.66 167.74 79.6827 169.02 79.6827C170.252 79.6827 171.081 80.583 171.093 81.8209H166.816ZM177.705 87.4121C179.132 87.4121 179.985 86.7428 180.376 85.9788H180.447V87.2285H182.508V81.1397C182.508 78.735 180.548 78.0124 178.812 78.0124C176.899 78.0124 175.43 78.8653 174.957 80.5238L176.959 80.8081C177.172 80.1861 177.776 79.6531 178.824 79.6531C179.819 79.6531 180.364 80.1625 180.364 81.0568V81.0924C180.364 81.7083 179.719 81.738 178.113 81.9097C176.348 82.0993 174.66 82.6264 174.66 84.6757C174.66 86.4645 175.969 87.4121 177.705 87.4121ZM178.262 85.8366C177.367 85.8366 176.728 85.4279 176.728 84.6402C176.728 83.8169 177.444 83.4734 178.404 83.3371C178.966 83.2601 180.092 83.118 180.37 82.8929V83.965C180.37 84.9778 179.553 85.8366 178.262 85.8366ZM189.332 78.1309H187.538V75.9512H185.393V78.1309H184.102V79.7893H185.393V84.8475C185.382 86.5592 186.625 87.4003 188.236 87.3529C188.847 87.3351 189.267 87.2167 189.498 87.1397L189.137 85.4635C189.018 85.4931 188.775 85.5464 188.509 85.5464C187.97 85.5464 187.538 85.3569 187.538 84.4921V79.7893H189.332V78.1309ZM195.18 87.4062C197.301 87.4062 198.758 86.3697 199.137 84.7883L197.135 84.5632C196.845 85.3332 196.134 85.7359 195.21 85.7359C193.824 85.7359 192.906 84.8238 192.888 83.2661H199.226V82.6086C199.226 79.4162 197.307 78.0124 195.068 78.0124C192.462 78.0124 190.762 79.9255 190.762 82.733C190.762 85.5879 192.438 87.4062 195.18 87.4062ZM192.894 81.8209C192.959 80.66 193.818 79.6827 195.097 79.6827C196.329 79.6827 197.159 80.583 197.17 81.8209H192.894ZM205.522 87.2285H213.458V85.3865H207.719V82.0756H213.002V80.2335H207.719V76.9404H213.411V75.0983H205.522V87.2285ZM223.81 78.1309H221.529L219.432 84.889H219.338L217.247 78.1309H214.961L218.2 87.2285H220.57L223.81 78.1309ZM229.136 87.4062C231.257 87.4062 232.714 86.3697 233.093 84.7883L231.091 84.5632C230.801 85.3332 230.09 85.7359 229.166 85.7359C227.78 85.7359 226.862 84.8238 226.844 83.2661H233.182V82.6086C233.182 79.4162 231.263 78.0124 229.024 78.0124C226.418 78.0124 224.718 79.9255 224.718 82.733C224.718 85.5879 226.394 87.4062 229.136 87.4062ZM226.85 81.8209C226.915 80.66 227.774 79.6827 229.054 79.6827C230.285 79.6827 231.115 80.583 231.127 81.8209H226.85ZM237.265 81.8979C237.265 80.583 238.059 79.8248 239.19 79.8248C240.297 79.8248 240.961 80.5534 240.961 81.7676V87.2285H243.105V81.4359C243.111 79.2562 241.867 78.0124 239.989 78.0124C238.627 78.0124 237.691 78.6639 237.277 79.6768H237.17V78.1309H235.121V87.2285H237.265V81.8979ZM249.953 78.1309H248.158V75.9512H246.014V78.1309H244.723V79.7893H246.014V84.8475C246.002 86.5592 247.246 87.4003 248.857 87.3529C249.467 87.3351 249.887 87.2167 250.118 87.1397L249.757 85.4635C249.639 85.4931 249.396 85.5464 249.129 85.5464C248.59 85.5464 248.158 85.3569 248.158 84.4921V79.7893H249.953V78.1309Z" fill="#0F1C26"/>
<path d="M67.696 85.3554L63.8766 80.793L67.696 76.2306L66.5202 74.8291L61.5165 80.793L66.5202 86.757L67.696 85.3554Z" fill="#0F1C26"/>
<g clip-path="url(#clip0)">
<path d="M325.88 77.5672C326.798 77.5672 327.548 76.8167 327.548 75.8993C327.548 74.982 326.798 74.2314 325.88 74.2314C324.963 74.2314 324.212 74.982 324.212 75.8993C324.212 76.8167 324.963 77.5672 325.88 77.5672ZM325.88 79.2351C324.963 79.2351 324.212 79.9857 324.212 80.903C324.212 81.8204 324.963 82.5709 325.88 82.5709C326.798 82.5709 327.548 81.8204 327.548 80.903C327.548 79.9857 326.798 79.2351 325.88 79.2351ZM325.88 84.2388C324.963 84.2388 324.212 84.9894 324.212 85.9067C324.212 86.8241 324.963 87.5746 325.88 87.5746C326.798 87.5746 327.548 86.8241 327.548 85.9067C327.548 84.9894 326.798 84.2388 325.88 84.2388Z" fill="#979797"/>
</g>
<rect x="194.835" y="611.295" width="199.235" height="65.7051" fill="white"/>
<path d="M265.118 631.863H266.256C266.204 630.398 264.853 629.304 262.977 629.304C261.119 629.304 259.66 630.384 259.66 632.014C259.66 633.322 260.608 634.099 262.124 634.535L263.318 634.876C264.341 635.16 265.251 635.521 265.251 636.487C265.251 637.549 264.228 638.25 262.882 638.25C261.726 638.25 260.702 637.738 260.608 636.639H259.395C259.508 638.231 260.797 639.311 262.882 639.311C265.118 639.311 266.388 638.079 266.388 636.506C266.388 634.687 264.664 634.099 263.659 633.834L262.673 633.568C261.953 633.379 260.797 633 260.797 631.957C260.797 631.029 261.65 630.346 262.939 630.346C264.114 630.346 265.005 630.905 265.118 631.863ZM270.436 639.311C271.705 639.311 272.369 638.629 272.596 638.155H272.653V639.141H273.771V634.345C273.771 632.033 272.009 631.768 271.08 631.768C269.981 631.768 268.73 632.147 268.161 633.474L269.223 633.853C269.469 633.322 270.052 632.753 271.118 632.753C272.146 632.753 272.653 633.298 272.653 634.232V634.27C272.653 634.81 272.104 634.762 270.777 634.933C269.426 635.108 267.953 635.407 267.953 637.075C267.953 638.496 269.052 639.311 270.436 639.311ZM270.606 638.307C269.715 638.307 269.071 637.909 269.071 637.132C269.071 636.279 269.848 636.013 270.72 635.9C271.194 635.843 272.464 635.71 272.653 635.483V636.506C272.653 637.416 271.933 638.307 270.606 638.307ZM281.628 631.863H280.415L278.406 637.662H278.33L276.321 631.863H275.108L277.8 639.141H278.937L281.628 631.863ZM286.02 639.292C287.499 639.292 288.579 638.553 288.92 637.454L287.84 637.151C287.556 637.909 286.897 638.288 286.02 638.288C284.708 638.288 283.803 637.44 283.751 635.881H289.034V635.407C289.034 632.696 287.423 631.768 285.907 631.768C283.935 631.768 282.628 633.322 282.628 635.558C282.628 637.795 283.916 639.292 286.02 639.292ZM283.751 634.914C283.826 633.782 284.627 632.772 285.907 632.772C287.12 632.772 287.897 633.682 287.897 634.914H283.751Z" fill="#0F1C26"/>
<rect x="-3.34045" y="611.295" width="199.235" height="65.7051" fill="#D3DDE7"/>
<path d="M103.938 632.469C103.578 630.479 101.986 629.304 100.033 629.304C97.5505 629.304 95.75 631.218 95.75 634.289C95.75 637.359 97.5505 639.273 100.033 639.273C101.986 639.273 103.578 638.098 103.938 636.108H102.763C102.478 637.454 101.322 638.174 100.033 638.174C98.2708 638.174 96.8872 636.809 96.8872 634.289C96.8872 631.768 98.2708 630.403 100.033 630.403C101.322 630.403 102.478 631.123 102.763 632.469H103.938ZM107.952 639.311C109.222 639.311 109.885 638.629 110.113 638.155H110.169V639.141H111.288V634.345C111.288 632.033 109.525 631.768 108.596 631.768C107.497 631.768 106.246 632.147 105.678 633.474L106.739 633.853C106.985 633.322 107.568 632.753 108.634 632.753C109.662 632.753 110.169 633.298 110.169 634.232V634.27C110.169 634.81 109.62 634.762 108.293 634.933C106.943 635.108 105.469 635.407 105.469 637.075C105.469 638.496 106.568 639.311 107.952 639.311ZM108.122 638.307C107.232 638.307 106.587 637.909 106.587 637.132C106.587 636.279 107.364 636.013 108.236 635.9C108.71 635.843 109.98 635.71 110.169 635.483V636.506C110.169 637.416 109.449 638.307 108.122 638.307ZM114.572 634.762C114.572 633.493 115.359 632.772 116.43 632.772C117.467 632.772 118.097 633.45 118.097 634.592V639.141H119.216V634.516C119.216 632.659 118.225 631.768 116.752 631.768C115.652 631.768 114.97 632.261 114.629 633H114.534V631.863H113.454V639.141H114.572V634.762ZM124.341 639.292C125.952 639.292 127.013 638.307 127.203 637.018H126.085C125.876 637.814 125.213 638.288 124.341 638.288C123.014 638.288 122.161 637.188 122.161 635.502C122.161 633.853 123.033 632.772 124.341 632.772C125.326 632.772 125.914 633.379 126.085 634.042H127.203C127.013 632.678 125.857 631.768 124.322 631.768C122.351 631.768 121.043 633.322 121.043 635.539C121.043 637.719 122.294 639.292 124.341 639.292ZM132.014 639.292C133.493 639.292 134.573 638.553 134.914 637.454L133.834 637.151C133.549 637.909 132.891 638.288 132.014 638.288C130.702 638.288 129.797 637.44 129.745 635.881H135.028V635.407C135.028 632.696 133.417 631.768 131.9 631.768C129.929 631.768 128.622 633.322 128.622 635.558C128.622 637.795 129.91 639.292 132.014 639.292ZM129.745 634.914C129.82 633.782 130.621 632.772 131.9 632.772C133.113 632.772 133.891 633.682 133.891 634.914H129.745ZM137.972 629.436H136.854V639.141H137.972V629.436Z" fill="#0F1C26"/>
<rect x="59.0148" y="123.435" width="274.369" height="234.34" rx="4.16975" fill="white"/>
<circle cx="275.424" cy="277.298" r="12.9262" fill="#0043EF"/>
<path d="M82.7591 186.209L85.6665 193.466L88.5739 186.209H90.0948V195.103H88.9221V191.639L89.032 187.901L86.1124 195.103H85.2145L82.301 187.919L82.4171 191.639V195.103H81.2443V186.209H82.7591Z" fill="#0043EF"/>
<path d="M123.794 187.174H120.935V195.103H119.768V187.174H116.916V186.209H123.794V187.174Z" fill="#0043EF"/>
<path d="M158.57 192.299L158.741 193.472L158.991 192.415L160.75 186.209H161.74L163.456 192.415L163.701 193.49L163.89 192.293L165.27 186.209H166.449L164.293 195.103H163.224L161.392 188.622L161.251 187.944L161.111 188.622L159.211 195.103H158.142L155.992 186.209H157.165L158.57 192.299Z" fill="#0043EF"/>
<path d="M199.228 187.174H196.37V195.103H195.203V187.174H192.351V186.209H199.228V187.174Z" fill="#0043EF"/>
<path d="M236.98 191.175H233.248V195.103H232.075V186.209H237.584V187.174H233.248V190.216H236.98V191.175Z" fill="#0043EF"/>
<path d="M272.766 191.138C271.761 190.849 271.028 190.495 270.568 190.076C270.112 189.652 269.883 189.131 269.883 188.512C269.883 187.812 270.162 187.233 270.72 186.777C271.282 186.317 272.011 186.087 272.907 186.087C273.518 186.087 274.061 186.205 274.538 186.441C275.018 186.678 275.389 187.003 275.649 187.419C275.914 187.834 276.046 188.288 276.046 188.781H274.868C274.868 188.243 274.697 187.822 274.355 187.516C274.012 187.207 273.53 187.052 272.907 187.052C272.329 187.052 271.877 187.18 271.551 187.437C271.229 187.689 271.068 188.042 271.068 188.494C271.068 188.856 271.221 189.163 271.527 189.416C271.836 189.664 272.359 189.892 273.096 190.1C273.837 190.308 274.416 190.538 274.831 190.79C275.25 191.039 275.56 191.33 275.759 191.664C275.963 191.998 276.065 192.391 276.065 192.843C276.065 193.563 275.784 194.142 275.222 194.577C274.66 195.009 273.909 195.225 272.968 195.225C272.357 195.225 271.787 195.109 271.258 194.877C270.728 194.64 270.319 194.319 270.03 193.911C269.745 193.504 269.603 193.042 269.603 192.525H270.781C270.781 193.062 270.979 193.488 271.374 193.802C271.773 194.111 272.304 194.266 272.968 194.266C273.587 194.266 274.061 194.14 274.391 193.887C274.721 193.635 274.886 193.29 274.886 192.855C274.886 192.419 274.733 192.083 274.428 191.847C274.122 191.607 273.569 191.371 272.766 191.138Z" fill="#0043EF"/>
<path d="M310.142 191.138C309.136 190.849 308.403 190.495 307.943 190.076C307.487 189.652 307.259 189.131 307.259 188.512C307.259 187.812 307.538 187.233 308.095 186.777C308.657 186.317 309.386 186.087 310.282 186.087C310.893 186.087 311.436 186.205 311.913 186.441C312.393 186.678 312.764 187.003 313.025 187.419C313.289 187.834 313.422 188.288 313.422 188.781H312.243C312.243 188.243 312.072 187.822 311.73 187.516C311.388 187.207 310.905 187.052 310.282 187.052C309.704 187.052 309.252 187.18 308.926 187.437C308.604 187.689 308.444 188.042 308.444 188.494C308.444 188.856 308.596 189.163 308.902 189.416C309.211 189.664 309.734 189.892 310.471 190.1C311.213 190.308 311.791 190.538 312.206 190.79C312.626 191.039 312.935 191.33 313.135 191.664C313.338 191.998 313.44 192.391 313.44 192.843C313.44 193.563 313.159 194.142 312.597 194.577C312.035 195.009 311.284 195.225 310.343 195.225C309.732 195.225 309.162 195.109 308.633 194.877C308.104 194.64 307.694 194.319 307.405 193.911C307.12 193.504 306.978 193.042 306.978 192.525H308.156C308.156 193.062 308.354 193.488 308.749 193.802C309.148 194.111 309.679 194.266 310.343 194.266C310.962 194.266 311.436 194.14 311.766 193.887C312.096 193.635 312.261 193.29 312.261 192.855C312.261 192.419 312.108 192.083 311.803 191.847C311.498 191.607 310.944 191.371 310.142 191.138Z" fill="#0043EF"/>
<path d="M275.121 222.222H273.643V215.081L271.462 215.827V214.574L274.932 213.298H275.121V222.222Z" fill="#0F1C26"/>
<path d="M314.793 222.222H308.814V221.202L311.776 217.97C312.204 217.494 312.507 217.097 312.686 216.779C312.869 216.458 312.961 216.136 312.961 215.814C312.961 215.391 312.841 215.049 312.601 214.788C312.364 214.528 312.045 214.397 311.642 214.397C311.161 214.397 310.789 214.544 310.524 214.837C310.259 215.13 310.127 215.531 310.127 216.04H308.643C308.643 215.499 308.765 215.012 309.009 214.581C309.257 214.145 309.61 213.807 310.066 213.567C310.526 213.326 311.055 213.206 311.654 213.206C312.517 213.206 313.197 213.424 313.694 213.86C314.195 214.291 314.445 214.89 314.445 215.656C314.445 216.099 314.319 216.566 314.066 217.054C313.818 217.539 313.409 218.091 312.839 218.71L310.664 221.037H314.793V222.222Z" fill="#0F1C26"/>
<path d="M84.2027 247.2H85.0517C85.5852 247.192 86.0046 247.051 86.31 246.778C86.6154 246.506 86.7681 246.137 86.7681 245.673C86.7681 244.63 86.2489 244.109 85.2105 244.109C84.7219 244.109 84.331 244.25 84.0378 244.531C83.7487 244.808 83.6041 245.176 83.6041 245.636H82.4741C82.4741 244.932 82.7307 244.347 83.2438 243.883C83.7609 243.415 84.4165 243.181 85.2105 243.181C86.0494 243.181 86.707 243.403 87.1834 243.847C87.6599 244.29 87.8981 244.907 87.8981 245.697C87.8981 246.084 87.7718 246.459 87.5194 246.821C87.271 247.184 86.931 247.454 86.4993 247.634C86.988 247.788 87.3646 248.045 87.6293 248.403C87.8981 248.762 88.0325 249.199 88.0325 249.716C88.0325 250.515 87.7718 251.148 87.2506 251.616C86.7294 252.084 86.0514 252.318 85.2167 252.318C84.3819 252.318 83.7019 252.092 83.1766 251.64C82.6554 251.188 82.3947 250.592 82.3947 249.851H83.5308C83.5308 250.319 83.6835 250.694 83.9889 250.975C84.2943 251.256 84.7036 251.396 85.2167 251.396C85.7623 251.396 86.1797 251.254 86.4688 250.969C86.7579 250.684 86.9025 250.274 86.9025 249.741C86.9025 249.224 86.7437 248.827 86.426 248.55C86.1084 248.273 85.6503 248.13 85.0517 248.122H84.2027V247.2Z" fill="#0F1C26"/>
<path d="M125.042 249.209H126.275V250.132H125.042V252.196H123.905V250.132H119.856V249.466L123.838 243.303H125.042V249.209ZM121.139 249.209H123.905V244.848L123.771 245.093L121.139 249.209Z" fill="#0F1C26"/>
<path d="M158.506 247.737L158.958 243.303H163.514V244.347H159.917L159.648 246.772C160.084 246.516 160.578 246.388 161.132 246.388C161.943 246.388 162.586 246.656 163.062 247.194C163.539 247.727 163.777 248.45 163.777 249.362C163.777 250.278 163.529 251.001 163.032 251.531C162.539 252.056 161.849 252.318 160.961 252.318C160.175 252.318 159.534 252.101 159.037 251.665C158.54 251.229 158.257 250.627 158.188 249.857H159.257C159.326 250.366 159.507 250.751 159.801 251.011C160.094 251.268 160.481 251.396 160.961 251.396C161.486 251.396 161.898 251.217 162.195 250.859C162.496 250.5 162.647 250.006 162.647 249.374C162.647 248.78 162.484 248.303 162.158 247.945C161.837 247.583 161.407 247.401 160.87 247.401C160.377 247.401 159.99 247.509 159.709 247.725L159.41 247.97L158.506 247.737Z" fill="#0F1C26"/>
<path d="M200.133 243.297V244.256H199.925C199.045 244.272 198.345 244.533 197.824 245.038C197.302 245.543 197.001 246.253 196.92 247.169C197.388 246.632 198.027 246.363 198.838 246.363C199.611 246.363 200.228 246.636 200.688 247.182C201.153 247.727 201.385 248.432 201.385 249.295C201.385 250.211 201.134 250.944 200.633 251.494C200.137 252.044 199.469 252.318 198.63 252.318C197.779 252.318 197.089 251.993 196.559 251.341C196.03 250.686 195.765 249.843 195.765 248.812V248.379C195.765 246.742 196.113 245.492 196.81 244.628C197.51 243.761 198.551 243.317 199.931 243.297H200.133ZM198.648 247.304C198.261 247.304 197.905 247.42 197.579 247.652C197.254 247.884 197.028 248.175 196.901 248.525V248.941C196.901 249.674 197.066 250.264 197.396 250.712C197.726 251.16 198.137 251.384 198.63 251.384C199.139 251.384 199.538 251.197 199.827 250.822C200.12 250.447 200.267 249.957 200.267 249.35C200.267 248.739 200.118 248.246 199.821 247.872C199.528 247.493 199.137 247.304 198.648 247.304Z" fill="#0F1C26"/>
<path d="M239.147 243.938L235.464 252.196H234.279L237.95 244.231H233.137V243.303H239.147V243.938Z" fill="#0F1C26"/>
<path d="M276.649 245.648C276.649 246.084 276.537 246.473 276.313 246.815C276.089 247.153 275.784 247.42 275.397 247.615C275.861 247.831 276.217 248.126 276.466 248.501C276.718 248.876 276.844 249.299 276.844 249.771C276.844 250.553 276.58 251.174 276.05 251.634C275.521 252.09 274.817 252.318 273.937 252.318C273.053 252.318 272.345 252.088 271.811 251.628C271.282 251.168 271.017 250.549 271.017 249.771C271.017 249.295 271.144 248.867 271.396 248.489C271.649 248.11 272.003 247.819 272.459 247.615C272.076 247.42 271.773 247.153 271.549 246.815C271.329 246.473 271.219 246.084 271.219 245.648C271.219 244.891 271.463 244.29 271.952 243.847C272.441 243.403 273.1 243.181 273.931 243.181C274.766 243.181 275.427 243.403 275.916 243.847C276.405 244.29 276.649 244.891 276.649 245.648ZM275.36 249.698C275.36 249.258 275.228 248.904 274.963 248.635C274.703 248.362 274.356 248.226 273.925 248.226C273.493 248.226 273.147 248.36 272.886 248.629C272.63 248.898 272.502 249.254 272.502 249.698C272.502 250.134 272.628 250.482 272.88 250.743C273.137 251.003 273.489 251.133 273.937 251.133C274.385 251.133 274.733 251.007 274.981 250.755C275.234 250.502 275.36 250.15 275.36 249.698ZM275.171 245.703C275.171 245.317 275.059 244.999 274.835 244.751C274.611 244.498 274.31 244.372 273.931 244.372C273.552 244.372 273.253 244.492 273.033 244.732C272.813 244.968 272.703 245.292 272.703 245.703C272.703 246.111 272.813 246.434 273.033 246.675C273.257 246.915 273.558 247.035 273.937 247.035C274.316 247.035 274.615 246.915 274.835 246.675C275.059 246.434 275.171 246.111 275.171 245.703Z" fill="#0F1C26"/>
<path d="M313.022 248.477C312.525 249.002 311.945 249.264 311.281 249.264C310.499 249.264 309.876 248.992 309.412 248.446C308.948 247.896 308.716 247.175 308.716 246.284C308.716 245.697 308.834 245.166 309.07 244.69C309.306 244.213 309.642 243.843 310.078 243.578C310.514 243.313 311.019 243.181 311.593 243.181C312.489 243.181 313.199 243.515 313.724 244.183C314.25 244.85 314.512 245.744 314.512 246.864V247.279C314.512 248.884 314.15 250.107 313.425 250.95C312.7 251.793 311.619 252.221 310.182 252.233H310.005V251.005H310.218C311.094 250.993 311.766 250.783 312.234 250.376C312.702 249.965 312.965 249.332 313.022 248.477ZM311.593 248.104C311.89 248.104 312.169 248.018 312.43 247.847C312.69 247.676 312.892 247.44 313.034 247.139V246.559C313.034 245.903 312.9 245.376 312.631 244.977C312.362 244.578 312.014 244.378 311.587 244.378C311.159 244.378 310.817 244.555 310.56 244.909C310.308 245.26 310.182 245.703 310.182 246.241C310.182 246.799 310.31 247.249 310.567 247.591C310.823 247.933 311.165 248.104 311.593 248.104Z" fill="#0F1C26"/>
<path d="M83.7176 282.17H82.2394V275.03L80.0589 275.775V274.523L83.5282 273.246H83.7176V282.17ZM92.6048 278.426C92.6048 279.704 92.3645 280.669 91.884 281.321C91.4076 281.968 90.6807 282.292 89.7035 282.292C88.7425 282.292 88.0176 281.977 87.529 281.345C87.0444 280.71 86.796 279.772 86.7838 278.53V276.99C86.7838 275.712 87.022 274.753 87.4985 274.113C87.979 273.474 88.7099 273.154 89.6912 273.154C90.6644 273.154 91.3893 273.466 91.8657 274.089C92.3462 274.712 92.5925 275.645 92.6048 276.886V278.426ZM91.1205 276.764C91.1205 275.93 91.0065 275.319 90.7785 274.932C90.5504 274.541 90.188 274.346 89.6912 274.346C89.2067 274.346 88.8504 274.531 88.6223 274.901C88.3943 275.268 88.2742 275.842 88.262 276.624V278.639C88.262 279.47 88.378 280.089 88.6101 280.496C88.8422 280.904 89.2067 281.107 89.7035 281.107C90.1799 281.107 90.5321 280.92 90.7601 280.545C90.9882 280.166 91.1083 279.576 91.1205 278.774V276.764Z" fill="#0F1C26"/>
<path d="M121.429 282.17H119.951V275.03L117.77 275.775V274.523L121.24 273.246H121.429V282.17ZM128.539 282.17H127.061V275.03L124.88 275.775V274.523L128.35 273.246H128.539V282.17Z" fill="#0F1C26"/>
<path d="M159.141 282.17H157.663V275.03L155.482 275.775V274.523L158.951 273.246H159.141V282.17ZM168.211 282.17H162.231V281.15L165.194 277.919C165.621 277.442 165.925 277.045 166.104 276.728C166.287 276.406 166.379 276.084 166.379 275.763C166.379 275.339 166.259 274.997 166.018 274.736C165.782 274.476 165.462 274.346 165.059 274.346C164.579 274.346 164.206 274.492 163.942 274.785C163.677 275.079 163.545 275.48 163.545 275.989H162.06C162.06 275.447 162.182 274.96 162.427 274.529C162.675 274.093 163.027 273.755 163.483 273.515C163.944 273.275 164.473 273.154 165.072 273.154C165.935 273.154 166.615 273.372 167.112 273.808C167.612 274.24 167.863 274.838 167.863 275.604C167.863 276.048 167.737 276.514 167.484 277.003C167.236 277.487 166.827 278.039 166.257 278.658L164.082 280.985H168.211V282.17Z" fill="#0F1C26"/>
<path d="M196.852 282.17H195.374V275.03L193.193 275.775V274.523L196.663 273.246H196.852V282.17ZM201.659 277.045H202.563C203.019 277.041 203.38 276.923 203.644 276.691C203.913 276.459 204.047 276.123 204.047 275.683C204.047 275.26 203.935 274.932 203.712 274.7C203.492 274.464 203.154 274.346 202.698 274.346C202.299 274.346 201.971 274.462 201.714 274.694C201.458 274.922 201.329 275.221 201.329 275.592H199.845C199.845 275.136 199.965 274.72 200.205 274.346C200.45 273.971 200.788 273.68 201.219 273.472C201.655 273.26 202.142 273.154 202.679 273.154C203.567 273.154 204.263 273.378 204.768 273.826C205.277 274.27 205.532 274.889 205.532 275.683C205.532 276.082 205.403 276.459 205.147 276.813C204.894 277.163 204.567 277.428 204.163 277.607C204.652 277.774 205.023 278.037 205.275 278.395C205.532 278.753 205.66 279.181 205.66 279.678C205.66 280.476 205.385 281.111 204.835 281.584C204.29 282.056 203.571 282.292 202.679 282.292C201.824 282.292 201.124 282.064 200.578 281.608C200.032 281.152 199.76 280.545 199.76 279.788H201.244C201.244 280.179 201.374 280.496 201.635 280.741C201.899 280.985 202.254 281.107 202.698 281.107C203.158 281.107 203.52 280.985 203.785 280.741C204.049 280.496 204.182 280.142 204.182 279.678C204.182 279.21 204.043 278.849 203.766 278.597C203.49 278.344 203.078 278.218 202.533 278.218H201.659V277.045Z" fill="#0F1C26"/>
<path d="M234.564 282.17H233.086V275.03L230.905 275.775V274.523L234.374 273.246H234.564V282.17ZM242.675 279H243.781V280.191H242.675V282.17H241.191V280.191H237.349L237.306 279.287L241.142 273.277H242.675V279ZM238.864 279H241.191V275.286L241.081 275.482L238.864 279Z" fill="#0F1C26"/>
<path d="M272.487 282.17H270.722V275.366L268.614 276.019V274.584L272.297 273.264H272.487V282.17ZM275.645 277.797L276.158 273.277H281.142V274.749H277.605L277.385 276.66C277.805 276.437 278.251 276.325 278.723 276.325C279.57 276.325 280.234 276.587 280.714 277.112C281.195 277.638 281.435 278.373 281.435 279.317C281.435 279.892 281.313 280.407 281.069 280.863C280.828 281.315 280.482 281.667 280.03 281.919C279.578 282.168 279.045 282.292 278.43 282.292C277.892 282.292 277.394 282.184 276.933 281.968C276.473 281.748 276.109 281.441 275.84 281.046C275.575 280.651 275.435 280.201 275.419 279.696H277.166C277.202 280.067 277.33 280.356 277.55 280.564C277.774 280.767 278.065 280.869 278.424 280.869C278.823 280.869 279.13 280.726 279.346 280.441C279.562 280.152 279.67 279.745 279.67 279.22C279.67 278.715 279.546 278.328 279.297 278.059C279.049 277.79 278.697 277.656 278.241 277.656C277.821 277.656 277.481 277.766 277.221 277.986L277.049 278.145L275.645 277.797Z" fill="white"/>
<path d="M309.991 282.17H308.513V275.03L306.332 275.775V274.523L309.801 273.246H309.991V282.17ZM317.699 273.234V274.462H317.516C316.685 274.474 316.021 274.702 315.525 275.146C315.028 275.59 314.733 276.219 314.639 277.033C315.115 276.532 315.724 276.282 316.465 276.282C317.251 276.282 317.87 276.559 318.322 277.112C318.778 277.666 319.006 278.381 319.006 279.256C319.006 280.16 318.739 280.893 318.206 281.455C317.677 282.013 316.98 282.292 316.117 282.292C315.229 282.292 314.509 281.964 313.955 281.309C313.405 280.653 313.13 279.794 313.13 278.731V278.224C313.13 276.665 313.509 275.443 314.266 274.559C315.028 273.676 316.121 273.234 317.546 273.234H317.699ZM316.105 277.479C315.779 277.479 315.48 277.571 315.207 277.754C314.938 277.937 314.741 278.181 314.614 278.487V278.939C314.614 279.598 314.753 280.124 315.03 280.515C315.307 280.901 315.665 281.095 316.105 281.095C316.545 281.095 316.893 280.93 317.149 280.6C317.406 280.27 317.534 279.837 317.534 279.299C317.534 278.762 317.404 278.324 317.143 277.986C316.883 277.648 316.536 277.479 316.105 277.479Z" fill="#0F1C26"/>
<path d="M83.7176 312.144H82.2394V305.003L80.0589 305.748V304.496L83.5282 303.22H83.7176V312.144ZM92.7269 304.075L89.1721 312.144H87.6145L91.1633 304.441H86.5639V303.25H92.7269V304.075Z" fill="#0F1C26"/>
<path d="M121.429 312.144H119.951V305.003L117.77 305.748V304.496L121.24 303.22H121.429V312.144ZM130.121 305.596C130.121 306.031 130.009 306.42 129.785 306.762C129.561 307.1 129.256 307.367 128.869 307.563C129.333 307.778 129.689 308.074 129.938 308.448C130.19 308.823 130.316 309.246 130.316 309.719C130.316 310.5 130.052 311.121 129.522 311.582C128.993 312.038 128.288 312.266 127.409 312.266C126.525 312.266 125.817 312.036 125.283 311.576C124.754 311.115 124.489 310.496 124.489 309.719C124.489 309.242 124.615 308.815 124.868 308.436C125.12 308.057 125.475 307.766 125.931 307.563C125.548 307.367 125.245 307.1 125.021 306.762C124.801 306.42 124.691 306.031 124.691 305.596C124.691 304.838 124.935 304.238 125.424 303.794C125.912 303.35 126.572 303.128 127.403 303.128C128.238 303.128 128.899 303.35 129.388 303.794C129.877 304.238 130.121 304.838 130.121 305.596ZM128.832 309.645C128.832 309.206 128.7 308.851 128.435 308.583C128.174 308.31 127.828 308.173 127.397 308.173C126.965 308.173 126.619 308.308 126.358 308.576C126.102 308.845 125.973 309.202 125.973 309.645C125.973 310.081 126.1 310.429 126.352 310.69C126.609 310.95 126.961 311.081 127.409 311.081C127.857 311.081 128.205 310.955 128.453 310.702C128.706 310.45 128.832 310.097 128.832 309.645ZM128.643 305.651C128.643 305.264 128.531 304.946 128.307 304.698C128.083 304.445 127.781 304.319 127.403 304.319C127.024 304.319 126.725 304.439 126.505 304.68C126.285 304.916 126.175 305.239 126.175 305.651C126.175 306.058 126.285 306.382 126.505 306.622C126.729 306.862 127.03 306.982 127.409 306.982C127.788 306.982 128.087 306.862 128.307 306.622C128.531 306.382 128.643 306.058 128.643 305.651Z" fill="#0F1C26"/>
<path d="M159.141 312.144H157.663V305.003L155.482 305.748V304.496L158.951 303.22H159.141V312.144ZM166.44 308.424C165.943 308.949 165.363 309.212 164.699 309.212C163.917 309.212 163.294 308.939 162.83 308.393C162.366 307.844 162.134 307.123 162.134 306.231C162.134 305.645 162.252 305.113 162.488 304.637C162.724 304.16 163.06 303.79 163.496 303.525C163.931 303.26 164.436 303.128 165.01 303.128C165.906 303.128 166.617 303.462 167.142 304.13C167.667 304.798 167.93 305.691 167.93 306.811V307.227C167.93 308.831 167.568 310.055 166.843 310.898C166.118 311.74 165.037 312.168 163.6 312.18H163.422V310.952H163.636C164.512 310.94 165.184 310.731 165.652 310.323C166.12 309.912 166.383 309.279 166.44 308.424ZM165.01 308.051C165.308 308.051 165.587 307.966 165.847 307.795C166.108 307.624 166.309 307.387 166.452 307.086V306.506C166.452 305.85 166.318 305.323 166.049 304.924C165.78 304.525 165.432 304.325 165.004 304.325C164.577 304.325 164.235 304.502 163.978 304.857C163.726 305.207 163.6 305.651 163.6 306.188C163.6 306.746 163.728 307.196 163.984 307.538C164.241 307.88 164.583 308.051 165.01 308.051Z" fill="#0F1C26"/>
<path d="M198.813 312.144H192.833V311.124L195.795 307.892C196.223 307.416 196.526 307.019 196.706 306.701C196.889 306.38 196.98 306.058 196.98 305.736C196.98 305.313 196.86 304.971 196.62 304.71C196.384 304.449 196.064 304.319 195.661 304.319C195.181 304.319 194.808 304.466 194.543 304.759C194.279 305.052 194.146 305.453 194.146 305.962H192.662C192.662 305.421 192.784 304.934 193.029 304.502C193.277 304.067 193.629 303.729 194.085 303.488C194.545 303.248 195.075 303.128 195.673 303.128C196.537 303.128 197.217 303.346 197.713 303.782C198.214 304.213 198.465 304.812 198.465 305.577C198.465 306.021 198.338 306.488 198.086 306.976C197.838 307.461 197.428 308.012 196.858 308.631L194.684 310.959H198.813V312.144ZM205.739 308.399C205.739 309.678 205.499 310.643 205.019 311.295C204.542 311.942 203.815 312.266 202.838 312.266C201.877 312.266 201.152 311.95 200.664 311.319C200.179 310.684 199.931 309.745 199.918 308.503V306.964C199.918 305.685 200.157 304.726 200.633 304.087C201.114 303.448 201.844 303.128 202.826 303.128C203.799 303.128 204.524 303.44 205 304.063C205.481 304.686 205.727 305.618 205.739 306.86V308.399ZM204.255 306.738C204.255 305.903 204.141 305.292 203.913 304.906C203.685 304.515 203.323 304.319 202.826 304.319C202.341 304.319 201.985 304.504 201.757 304.875C201.529 305.241 201.409 305.816 201.397 306.597V308.613C201.397 309.444 201.513 310.063 201.745 310.47C201.977 310.877 202.341 311.081 202.838 311.081C203.314 311.081 203.667 310.893 203.895 310.519C204.123 310.14 204.243 309.55 204.255 308.747V306.738Z" fill="#0F1C26"/>
<path d="M236.524 312.144H230.545V311.124L233.507 307.892C233.935 307.416 234.238 307.019 234.417 306.701C234.6 306.38 234.692 306.058 234.692 305.736C234.692 305.313 234.572 304.971 234.332 304.71C234.095 304.449 233.776 304.319 233.373 304.319C232.892 304.319 232.52 304.466 232.255 304.759C231.99 305.052 231.858 305.453 231.858 305.962H230.374C230.374 305.421 230.496 304.934 230.74 304.502C230.989 304.067 231.341 303.729 231.797 303.488C232.257 303.248 232.786 303.128 233.385 303.128C234.248 303.128 234.928 303.346 235.425 303.782C235.926 304.213 236.176 304.812 236.176 305.577C236.176 306.021 236.05 306.488 235.798 306.976C235.549 307.461 235.14 308.012 234.57 308.631L232.395 310.959H236.524V312.144ZM241.673 312.144H240.195V305.003L238.015 305.748V304.496L241.484 303.22H241.673V312.144Z" fill="#0F1C26"/>
<path d="M274.24 312.144H268.26V311.124L271.222 307.892C271.65 307.416 271.953 307.019 272.133 306.701C272.316 306.38 272.407 306.058 272.407 305.736C272.407 305.313 272.287 304.971 272.047 304.71C271.811 304.449 271.491 304.319 271.088 304.319C270.608 304.319 270.235 304.466 269.97 304.759C269.706 305.052 269.573 305.453 269.573 305.962H268.089C268.089 305.421 268.211 304.934 268.456 304.502C268.704 304.067 269.056 303.729 269.512 303.488C269.972 303.248 270.502 303.128 271.1 303.128C271.964 303.128 272.644 303.346 273.14 303.782C273.641 304.213 273.892 304.812 273.892 305.577C273.892 306.021 273.765 306.488 273.513 306.976C273.265 307.461 272.855 308.012 272.285 308.631L270.111 310.959H274.24V312.144ZM281.35 312.144H275.37V311.124L278.332 307.892C278.76 307.416 279.063 307.019 279.242 306.701C279.426 306.38 279.517 306.058 279.517 305.736C279.517 305.313 279.397 304.971 279.157 304.71C278.921 304.449 278.601 304.319 278.198 304.319C277.717 304.319 277.345 304.466 277.08 304.759C276.815 305.052 276.683 305.453 276.683 305.962H275.199C275.199 305.421 275.321 304.934 275.565 304.502C275.814 304.067 276.166 303.729 276.622 303.488C277.082 303.248 277.611 303.128 278.21 303.128C279.073 303.128 279.753 303.346 280.25 303.782C280.751 304.213 281.001 304.812 281.001 305.577C281.001 306.021 280.875 306.488 280.623 306.976C280.374 307.461 279.965 308.012 279.395 308.631L277.221 310.959H281.35V312.144Z" fill="#0F1C26"/>
<path d="M311.951 312.144H305.972V311.124L308.934 307.892C309.362 307.416 309.665 307.019 309.844 306.701C310.027 306.38 310.119 306.058 310.119 305.736C310.119 305.313 309.999 304.971 309.759 304.71C309.522 304.449 309.203 304.319 308.8 304.319C308.319 304.319 307.947 304.466 307.682 304.759C307.417 305.052 307.285 305.453 307.285 305.962H305.801C305.801 305.421 305.923 304.934 306.167 304.502C306.415 304.067 306.768 303.729 307.224 303.488C307.684 303.248 308.213 303.128 308.812 303.128C309.675 303.128 310.355 303.346 310.852 303.782C311.353 304.213 311.603 304.812 311.603 305.577C311.603 306.021 311.477 306.488 311.224 306.976C310.976 307.461 310.567 308.012 309.997 308.631L307.822 310.959H311.951V312.144ZM314.798 307.019H315.702C316.158 307.015 316.518 306.897 316.783 306.665C317.052 306.433 317.186 306.097 317.186 305.657C317.186 305.233 317.074 304.906 316.85 304.673C316.63 304.437 316.292 304.319 315.836 304.319C315.437 304.319 315.109 304.435 314.853 304.667C314.596 304.895 314.468 305.195 314.468 305.565H312.984C312.984 305.109 313.104 304.694 313.344 304.319C313.588 303.945 313.926 303.653 314.358 303.446C314.794 303.234 315.28 303.128 315.818 303.128C316.705 303.128 317.402 303.352 317.907 303.8C318.416 304.244 318.67 304.863 318.67 305.657C318.67 306.056 318.542 306.433 318.285 306.787C318.033 307.137 317.705 307.402 317.302 307.581C317.791 307.748 318.161 308.01 318.414 308.369C318.67 308.727 318.798 309.155 318.798 309.651C318.798 310.45 318.524 311.085 317.974 311.557C317.428 312.03 316.709 312.266 315.818 312.266C314.963 312.266 314.262 312.038 313.717 311.582C313.171 311.126 312.898 310.519 312.898 309.761H314.382C314.382 310.152 314.513 310.47 314.773 310.714C315.038 310.959 315.392 311.081 315.836 311.081C316.296 311.081 316.659 310.959 316.923 310.714C317.188 310.47 317.32 310.116 317.32 309.651C317.32 309.183 317.182 308.823 316.905 308.57C316.628 308.318 316.217 308.192 315.671 308.192H314.798V307.019Z" fill="#0F1C26"/>
<path d="M85.6783 342.118H79.6985V341.098L82.6609 337.867C83.0885 337.391 83.3918 336.994 83.571 336.676C83.7542 336.354 83.8459 336.033 83.8459 335.711C83.8459 335.287 83.7257 334.945 83.4855 334.685C83.2493 334.424 82.9296 334.294 82.5265 334.294C82.046 334.294 81.6734 334.44 81.4087 334.734C81.1441 335.027 81.0117 335.428 81.0117 335.937H79.5275C79.5275 335.395 79.6496 334.909 79.894 334.477C80.1424 334.041 80.4946 333.703 80.9506 333.463C81.4108 333.223 81.9401 333.103 82.5387 333.103C83.402 333.103 84.082 333.321 84.5788 333.756C85.0797 334.188 85.3301 334.786 85.3301 335.552C85.3301 335.996 85.2039 336.462 84.9514 336.951C84.703 337.435 84.2938 337.987 83.7237 338.606L81.5492 340.933H85.6783V342.118ZM91.829 338.948H92.9346V340.139H91.829V342.118H90.3448V340.139H86.5028L86.4601 339.235L90.2959 333.225H91.829V338.948ZM88.0176 338.948H90.3448V335.234L90.2348 335.43L88.0176 338.948Z" fill="#0F1C26"/>
<path d="M123.39 342.118H117.41V341.098L120.372 337.867C120.8 337.391 121.103 336.994 121.283 336.676C121.466 336.354 121.557 336.033 121.557 335.711C121.557 335.287 121.437 334.945 121.197 334.685C120.961 334.424 120.641 334.294 120.238 334.294C119.758 334.294 119.385 334.44 119.12 334.734C118.856 335.027 118.723 335.428 118.723 335.937H117.239C117.239 335.395 117.361 334.909 117.605 334.477C117.854 334.041 118.206 333.703 118.662 333.463C119.122 333.223 119.652 333.103 120.25 333.103C121.114 333.103 121.794 333.321 122.29 333.756C122.791 334.188 123.042 334.786 123.042 335.552C123.042 335.996 122.915 336.462 122.663 336.951C122.415 337.435 122.005 337.987 121.435 338.606L119.261 340.933H123.39V342.118ZM124.917 337.708L125.399 333.225H130.176V334.508H126.633L126.389 336.633C126.8 336.397 127.264 336.279 127.781 336.279C128.628 336.279 129.286 336.55 129.754 337.091C130.227 337.633 130.463 338.362 130.463 339.278C130.463 340.182 130.202 340.903 129.681 341.44C129.16 341.974 128.445 342.24 127.537 342.24C126.723 342.24 126.047 342.01 125.509 341.55C124.976 341.086 124.687 340.475 124.642 339.718H126.077C126.134 340.149 126.289 340.481 126.542 340.713C126.794 340.941 127.124 341.055 127.531 341.055C127.987 341.055 128.341 340.892 128.594 340.567C128.85 340.241 128.979 339.797 128.979 339.235C128.979 338.694 128.838 338.266 128.557 337.952C128.276 337.635 127.889 337.476 127.397 337.476C127.128 337.476 126.9 337.513 126.713 337.586C126.525 337.655 126.322 337.794 126.102 338.001L124.917 337.708Z" fill="#0F1C26"/>
<path d="M161.101 342.118H155.122V341.098L158.084 337.867C158.512 337.391 158.815 336.994 158.994 336.676C159.177 336.354 159.269 336.033 159.269 335.711C159.269 335.287 159.149 334.945 158.909 334.685C158.672 334.424 158.353 334.294 157.95 334.294C157.469 334.294 157.096 334.44 156.832 334.734C156.567 335.027 156.435 335.428 156.435 335.937H154.951C154.951 335.395 155.073 334.909 155.317 334.477C155.565 334.041 155.918 333.703 156.374 333.463C156.834 333.223 157.363 333.103 157.962 333.103C158.825 333.103 159.505 333.321 160.002 333.756C160.503 334.188 160.753 334.786 160.753 335.552C160.753 335.996 160.627 336.462 160.374 336.951C160.126 337.435 159.717 337.987 159.147 338.606L156.972 340.933H161.101V342.118ZM166.849 333.182V334.41H166.666C165.835 334.422 165.171 334.65 164.675 335.094C164.178 335.538 163.883 336.167 163.789 336.981C164.265 336.48 164.874 336.23 165.615 336.23C166.401 336.23 167.02 336.507 167.472 337.061C167.928 337.615 168.156 338.329 168.156 339.205C168.156 340.109 167.889 340.842 167.356 341.404C166.827 341.961 166.13 342.24 165.267 342.24C164.379 342.24 163.659 341.913 163.105 341.257C162.555 340.601 162.28 339.742 162.28 338.679V338.172C162.28 336.613 162.659 335.391 163.416 334.508C164.178 333.624 165.271 333.182 166.696 333.182H166.849ZM165.255 337.427C164.929 337.427 164.63 337.519 164.357 337.702C164.088 337.885 163.891 338.13 163.764 338.435V338.887C163.764 339.547 163.903 340.072 164.18 340.463C164.457 340.85 164.815 341.043 165.255 341.043C165.695 341.043 166.043 340.878 166.299 340.548C166.556 340.219 166.684 339.785 166.684 339.247C166.684 338.71 166.554 338.272 166.293 337.934C166.033 337.596 165.686 337.427 165.255 337.427Z" fill="#0F1C26"/>
<path d="M198.813 342.118H192.833V341.098L195.795 337.867C196.223 337.391 196.526 336.994 196.706 336.676C196.889 336.354 196.98 336.033 196.98 335.711C196.98 335.287 196.86 334.945 196.62 334.685C196.384 334.424 196.064 334.294 195.661 334.294C195.181 334.294 194.808 334.44 194.543 334.734C194.279 335.027 194.146 335.428 194.146 335.937H192.662C192.662 335.395 192.784 334.909 193.029 334.477C193.277 334.041 193.629 333.703 194.085 333.463C194.545 333.223 195.075 333.103 195.673 333.103C196.537 333.103 197.217 333.321 197.713 333.756C198.214 334.188 198.465 334.786 198.465 335.552C198.465 335.996 198.338 336.462 198.086 336.951C197.838 337.435 197.428 337.987 196.858 338.606L194.684 340.933H198.813V342.118ZM205.862 334.049L202.307 342.118H200.749L204.298 334.416H199.699V333.225H205.862V334.049Z" fill="#0F1C26"/>
<path d="M236.524 342.118H230.545V341.098L233.507 337.867C233.935 337.391 234.238 336.994 234.417 336.676C234.6 336.354 234.692 336.033 234.692 335.711C234.692 335.287 234.572 334.945 234.332 334.685C234.095 334.424 233.776 334.294 233.373 334.294C232.892 334.294 232.52 334.44 232.255 334.734C231.99 335.027 231.858 335.428 231.858 335.937H230.374C230.374 335.395 230.496 334.909 230.74 334.477C230.989 334.041 231.341 333.703 231.797 333.463C232.257 333.223 232.786 333.103 233.385 333.103C234.248 333.103 234.928 333.321 235.425 333.756C235.926 334.188 236.176 334.786 236.176 335.552C236.176 335.996 236.05 336.462 235.798 336.951C235.549 337.435 235.14 337.987 234.57 338.606L232.395 340.933H236.524V342.118ZM243.255 335.57C243.255 336.006 243.143 336.395 242.92 336.737C242.696 337.075 242.39 337.342 242.003 337.537C242.468 337.753 242.824 338.048 243.072 338.423C243.325 338.797 243.451 339.221 243.451 339.693C243.451 340.475 243.186 341.096 242.657 341.556C242.128 342.012 241.423 342.24 240.543 342.24C239.66 342.24 238.951 342.01 238.418 341.55C237.889 341.09 237.624 340.471 237.624 339.693C237.624 339.217 237.75 338.789 238.003 338.411C238.255 338.032 238.609 337.741 239.065 337.537C238.683 337.342 238.379 337.075 238.155 336.737C237.935 336.395 237.825 336.006 237.825 335.57C237.825 334.813 238.07 334.212 238.558 333.768C239.047 333.325 239.707 333.103 240.537 333.103C241.372 333.103 242.034 333.325 242.522 333.768C243.011 334.212 243.255 334.813 243.255 335.57ZM241.967 339.62C241.967 339.18 241.834 338.826 241.57 338.557C241.309 338.284 240.963 338.148 240.531 338.148C240.1 338.148 239.754 338.282 239.493 338.551C239.236 338.82 239.108 339.176 239.108 339.62C239.108 340.056 239.234 340.404 239.487 340.664C239.743 340.925 240.096 341.055 240.543 341.055C240.991 341.055 241.34 340.929 241.588 340.677C241.84 340.424 241.967 340.072 241.967 339.62ZM241.777 335.625C241.777 335.238 241.665 334.921 241.441 334.672C241.217 334.42 240.916 334.294 240.537 334.294C240.159 334.294 239.859 334.414 239.64 334.654C239.42 334.89 239.31 335.214 239.31 335.625C239.31 336.033 239.42 336.356 239.64 336.597C239.863 336.837 240.165 336.957 240.543 336.957C240.922 336.957 241.221 336.837 241.441 336.597C241.665 336.356 241.777 336.033 241.777 335.625Z" fill="#0F1C26"/>
<path d="M274.24 342.118H268.26V341.098L271.222 337.867C271.65 337.391 271.953 336.994 272.133 336.676C272.316 336.354 272.407 336.033 272.407 335.711C272.407 335.287 272.287 334.945 272.047 334.685C271.811 334.424 271.491 334.294 271.088 334.294C270.608 334.294 270.235 334.44 269.97 334.734C269.706 335.027 269.573 335.428 269.573 335.937H268.089C268.089 335.395 268.211 334.909 268.456 334.477C268.704 334.041 269.056 333.703 269.512 333.463C269.972 333.223 270.502 333.103 271.1 333.103C271.964 333.103 272.644 333.321 273.14 333.756C273.641 334.188 273.892 334.786 273.892 335.552C273.892 335.996 273.765 336.462 273.513 336.951C273.265 337.435 272.855 337.987 272.285 338.606L270.111 340.933H274.24V342.118ZM279.578 338.398C279.081 338.924 278.501 339.186 277.837 339.186C277.056 339.186 276.433 338.913 275.968 338.368C275.504 337.818 275.272 337.097 275.272 336.206C275.272 335.619 275.39 335.088 275.626 334.611C275.863 334.135 276.198 333.764 276.634 333.5C277.07 333.235 277.575 333.103 278.149 333.103C279.045 333.103 279.755 333.437 280.281 334.104C280.806 334.772 281.069 335.666 281.069 336.786V337.201C281.069 338.806 280.706 340.029 279.981 340.872C279.257 341.715 278.175 342.143 276.738 342.155H276.561V340.927H276.775C277.65 340.915 278.322 340.705 278.79 340.298C279.259 339.887 279.521 339.253 279.578 338.398ZM278.149 338.026C278.446 338.026 278.725 337.94 278.986 337.769C279.246 337.598 279.448 337.362 279.59 337.061V336.48C279.59 335.825 279.456 335.298 279.187 334.898C278.919 334.499 278.57 334.3 278.143 334.3C277.715 334.3 277.373 334.477 277.117 334.831C276.864 335.181 276.738 335.625 276.738 336.163C276.738 336.721 276.866 337.171 277.123 337.513C277.379 337.855 277.721 338.026 278.149 338.026Z" fill="#0F1C26"/>
<path d="M307.688 336.994H308.592C309.048 336.989 309.408 336.871 309.673 336.639C309.942 336.407 310.076 336.071 310.076 335.631C310.076 335.208 309.964 334.88 309.74 334.648C309.52 334.412 309.182 334.294 308.726 334.294C308.327 334.294 307.999 334.41 307.743 334.642C307.486 334.87 307.358 335.169 307.358 335.54H305.874C305.874 335.084 305.994 334.668 306.234 334.294C306.479 333.919 306.817 333.628 307.248 333.42C307.684 333.209 308.17 333.103 308.708 333.103C309.596 333.103 310.292 333.327 310.797 333.775C311.306 334.218 311.56 334.837 311.56 335.631C311.56 336.03 311.432 336.407 311.176 336.761C310.923 337.112 310.595 337.376 310.192 337.555C310.681 337.722 311.051 337.985 311.304 338.343C311.56 338.702 311.689 339.129 311.689 339.626C311.689 340.424 311.414 341.059 310.864 341.532C310.318 342.004 309.6 342.24 308.708 342.24C307.853 342.24 307.152 342.012 306.607 341.556C306.061 341.1 305.788 340.493 305.788 339.736H307.273C307.273 340.127 307.403 340.445 307.664 340.689C307.928 340.933 308.282 341.055 308.726 341.055C309.186 341.055 309.549 340.933 309.814 340.689C310.078 340.445 310.211 340.09 310.211 339.626C310.211 339.158 310.072 338.797 309.795 338.545C309.518 338.293 309.107 338.166 308.561 338.166H307.688V336.994ZM318.878 338.374C318.878 339.653 318.638 340.618 318.157 341.269C317.681 341.917 316.954 342.24 315.977 342.24C315.016 342.24 314.291 341.925 313.802 341.294C313.317 340.658 313.069 339.72 313.057 338.478V336.939C313.057 335.66 313.295 334.701 313.772 334.062C314.252 333.422 314.983 333.103 315.964 333.103C316.938 333.103 317.662 333.414 318.139 334.037C318.619 334.66 318.866 335.593 318.878 336.835V338.374ZM317.394 336.713C317.394 335.878 317.28 335.267 317.052 334.88C316.824 334.489 316.461 334.294 315.964 334.294C315.48 334.294 315.123 334.479 314.895 334.85C314.667 335.216 314.547 335.79 314.535 336.572V338.588C314.535 339.418 314.651 340.037 314.883 340.445C315.115 340.852 315.48 341.055 315.977 341.055C316.453 341.055 316.805 340.868 317.033 340.493C317.261 340.115 317.381 339.524 317.394 338.722V336.713Z" fill="#0F1C26"/>
<path d="M85.6783 222.222H79.6985V221.202L82.6609 217.97C83.0885 217.494 83.3918 217.097 83.571 216.779C83.7542 216.458 83.8459 216.136 83.8459 215.814C83.8459 215.391 83.7257 215.049 83.4855 214.788C83.2493 214.528 82.9296 214.397 82.5265 214.397C82.046 214.397 81.6734 214.544 81.4087 214.837C81.1441 215.13 81.0117 215.531 81.0117 216.04H79.5275C79.5275 215.499 79.6496 215.012 79.894 214.581C80.1424 214.145 80.4946 213.807 80.9506 213.567C81.4108 213.326 81.9401 213.206 82.5387 213.206C83.402 213.206 84.082 213.424 84.5788 213.86C85.0797 214.291 85.3301 214.89 85.3301 215.656C85.3301 216.099 85.2039 216.566 84.9514 217.054C84.703 217.539 84.2938 218.091 83.7237 218.71L81.5492 221.037H85.6783V222.222ZM92.7269 214.153L89.1721 222.222H87.6145L91.1633 214.519H86.5639V213.328H92.7269V214.153Z" fill="#D3DDE7"/>
<path d="M123.39 222.222H117.41V221.202L120.372 217.97C120.8 217.494 121.103 217.097 121.283 216.779C121.466 216.458 121.557 216.136 121.557 215.814C121.557 215.391 121.437 215.049 121.197 214.788C120.961 214.528 120.641 214.397 120.238 214.397C119.758 214.397 119.385 214.544 119.12 214.837C118.856 215.13 118.723 215.531 118.723 216.04H117.239C117.239 215.499 117.361 215.012 117.605 214.581C117.854 214.145 118.206 213.807 118.662 213.567C119.122 213.326 119.652 213.206 120.25 213.206C121.114 213.206 121.794 213.424 122.29 213.86C122.791 214.291 123.042 214.89 123.042 215.656C123.042 216.099 122.915 216.566 122.663 217.054C122.415 217.539 122.005 218.091 121.435 218.71L119.261 221.037H123.39V222.222ZM130.121 215.674C130.121 216.11 130.009 216.498 129.785 216.841C129.561 217.178 129.256 217.445 128.869 217.641C129.333 217.856 129.689 218.152 129.938 218.526C130.19 218.901 130.316 219.324 130.316 219.797C130.316 220.579 130.052 221.2 129.522 221.66C128.993 222.116 128.288 222.344 127.409 222.344C126.525 222.344 125.817 222.114 125.283 221.654C124.754 221.193 124.489 220.575 124.489 219.797C124.489 219.32 124.615 218.893 124.868 218.514C125.12 218.135 125.475 217.844 125.931 217.641C125.548 217.445 125.245 217.178 125.021 216.841C124.801 216.498 124.691 216.11 124.691 215.674C124.691 214.916 124.935 214.316 125.424 213.872C125.912 213.428 126.572 213.206 127.403 213.206C128.238 213.206 128.899 213.428 129.388 213.872C129.877 214.316 130.121 214.916 130.121 215.674ZM128.832 219.723C128.832 219.284 128.7 218.929 128.435 218.661C128.174 218.388 127.828 218.251 127.397 218.251C126.965 218.251 126.619 218.386 126.358 218.655C126.102 218.923 125.973 219.28 125.973 219.723C125.973 220.159 126.1 220.507 126.352 220.768C126.609 221.029 126.961 221.159 127.409 221.159C127.857 221.159 128.205 221.033 128.453 220.78C128.706 220.528 128.832 220.175 128.832 219.723ZM128.643 215.729C128.643 215.342 128.531 215.024 128.307 214.776C128.083 214.524 127.781 214.397 127.403 214.397C127.024 214.397 126.725 214.517 126.505 214.758C126.285 214.994 126.175 215.318 126.175 215.729C126.175 216.136 126.285 216.46 126.505 216.7C126.729 216.94 127.03 217.06 127.409 217.06C127.788 217.06 128.087 216.94 128.307 216.7C128.531 216.46 128.643 216.136 128.643 215.729Z" fill="#D3DDE7"/>
<path d="M161.101 222.222H155.122V221.202L158.084 217.97C158.512 217.494 158.815 217.097 158.994 216.779C159.177 216.458 159.269 216.136 159.269 215.814C159.269 215.391 159.149 215.049 158.909 214.788C158.672 214.528 158.353 214.397 157.95 214.397C157.469 214.397 157.096 214.544 156.832 214.837C156.567 215.13 156.435 215.531 156.435 216.04H154.951C154.951 215.499 155.073 215.012 155.317 214.581C155.565 214.145 155.918 213.807 156.374 213.567C156.834 213.326 157.363 213.206 157.962 213.206C158.825 213.206 159.505 213.424 160.002 213.86C160.503 214.291 160.753 214.89 160.753 215.656C160.753 216.099 160.627 216.566 160.374 217.054C160.126 217.539 159.717 218.091 159.147 218.71L156.972 221.037H161.101V222.222ZM166.44 218.502C165.943 219.027 165.363 219.29 164.699 219.29C163.917 219.29 163.294 219.017 162.83 218.471C162.366 217.922 162.134 217.201 162.134 216.309C162.134 215.723 162.252 215.191 162.488 214.715C162.724 214.238 163.06 213.868 163.496 213.603C163.931 213.339 164.436 213.206 165.01 213.206C165.906 213.206 166.617 213.54 167.142 214.208C167.667 214.876 167.93 215.77 167.93 216.889V217.305C167.93 218.909 167.568 220.133 166.843 220.976C166.118 221.819 165.037 222.246 163.6 222.258H163.422V221.031H163.636C164.512 221.018 165.184 220.809 165.652 220.401C166.12 219.99 166.383 219.357 166.44 218.502ZM165.01 218.129C165.308 218.129 165.587 218.044 165.847 217.873C166.108 217.702 166.309 217.466 166.452 217.164V216.584C166.452 215.928 166.318 215.401 166.049 215.002C165.78 214.603 165.432 214.403 165.004 214.403C164.577 214.403 164.235 214.581 163.978 214.935C163.726 215.285 163.6 215.729 163.6 216.266C163.6 216.824 163.728 217.274 163.984 217.616C164.241 217.958 164.583 218.129 165.01 218.129Z" fill="#D3DDE7"/>
<path d="M194.549 217.097H195.453C195.91 217.093 196.27 216.975 196.535 216.743C196.803 216.511 196.938 216.175 196.938 215.735C196.938 215.311 196.826 214.984 196.602 214.752C196.382 214.515 196.044 214.397 195.588 214.397C195.189 214.397 194.861 214.513 194.604 214.745C194.348 214.973 194.22 215.273 194.22 215.643H192.735C192.735 215.187 192.855 214.772 193.096 214.397C193.34 214.023 193.678 213.732 194.11 213.524C194.545 213.312 195.032 213.206 195.569 213.206C196.457 213.206 197.154 213.43 197.658 213.878C198.167 214.322 198.422 214.941 198.422 215.735C198.422 216.134 198.294 216.511 198.037 216.865C197.785 217.215 197.457 217.48 197.054 217.659C197.542 217.826 197.913 218.089 198.165 218.447C198.422 218.805 198.55 219.233 198.55 219.73C198.55 220.528 198.275 221.163 197.726 221.635C197.18 222.108 196.461 222.344 195.569 222.344C194.714 222.344 194.014 222.116 193.468 221.66C192.923 221.204 192.65 220.597 192.65 219.84H194.134C194.134 220.23 194.264 220.548 194.525 220.792C194.79 221.037 195.144 221.159 195.588 221.159C196.048 221.159 196.41 221.037 196.675 220.792C196.94 220.548 197.072 220.194 197.072 219.73C197.072 219.261 196.934 218.901 196.657 218.648C196.38 218.396 195.969 218.27 195.423 218.27H194.549V217.097ZM205.739 218.477C205.739 219.756 205.499 220.721 205.019 221.373C204.542 222.02 203.815 222.344 202.838 222.344C201.877 222.344 201.152 222.028 200.664 221.397C200.179 220.762 199.931 219.823 199.918 218.581V217.042C199.918 215.763 200.157 214.804 200.633 214.165C201.114 213.526 201.844 213.206 202.826 213.206C203.799 213.206 204.524 213.518 205 214.141C205.481 214.764 205.727 215.696 205.739 216.938V218.477ZM204.255 216.816C204.255 215.981 204.141 215.371 203.913 214.984C203.685 214.593 203.323 214.397 202.826 214.397C202.341 214.397 201.985 214.583 201.757 214.953C201.529 215.32 201.409 215.894 201.397 216.676V218.691C201.397 219.522 201.513 220.141 201.745 220.548C201.977 220.955 202.341 221.159 202.838 221.159C203.314 221.159 203.667 220.972 203.895 220.597C204.123 220.218 204.243 219.628 204.255 218.826V216.816Z" fill="#D3DDE7"/>
<path d="M232.261 217.097H233.165C233.621 217.093 233.981 216.975 234.246 216.743C234.515 216.511 234.649 216.175 234.649 215.735C234.649 215.311 234.537 214.984 234.313 214.752C234.093 214.515 233.755 214.397 233.299 214.397C232.9 214.397 232.573 214.513 232.316 214.745C232.059 214.973 231.931 215.273 231.931 215.643H230.447C230.447 215.187 230.567 214.772 230.807 214.397C231.052 214.023 231.39 213.732 231.821 213.524C232.257 213.312 232.744 213.206 233.281 213.206C234.169 213.206 234.865 213.43 235.37 213.878C235.879 214.322 236.133 214.941 236.133 215.735C236.133 216.134 236.005 216.511 235.749 216.865C235.496 217.215 235.168 217.48 234.765 217.659C235.254 217.826 235.624 218.089 235.877 218.447C236.133 218.805 236.262 219.233 236.262 219.73C236.262 220.528 235.987 221.163 235.437 221.635C234.892 222.108 234.173 222.344 233.281 222.344C232.426 222.344 231.726 222.116 231.18 221.66C230.634 221.204 230.361 220.597 230.361 219.84H231.846C231.846 220.23 231.976 220.548 232.237 220.792C232.501 221.037 232.856 221.159 233.299 221.159C233.76 221.159 234.122 221.037 234.387 220.792C234.651 220.548 234.784 220.194 234.784 219.73C234.784 219.261 234.645 218.901 234.368 218.648C234.091 218.396 233.68 218.27 233.134 218.27H232.261V217.097ZM241.673 222.222H240.195V215.081L238.015 215.827V214.574L241.484 213.298H241.673V222.222Z" fill="#D3DDE7"/>
<path d="M184.599 138.438L187.34 146.178L190.067 138.438H192.954V149.11H190.748V146.193L190.968 141.158L188.088 149.11H186.578L183.704 141.165L183.924 146.193V149.11H181.725V138.438H184.599ZM199.331 149.11C199.234 148.92 199.163 148.683 199.119 148.399C198.606 148.971 197.939 149.257 197.118 149.257C196.341 149.257 195.696 149.032 195.183 148.583C194.674 148.133 194.42 147.566 194.42 146.882C194.42 146.042 194.731 145.397 195.351 144.947C195.977 144.498 196.878 144.27 198.056 144.265H199.031V143.811C199.031 143.445 198.935 143.151 198.745 142.931C198.559 142.712 198.264 142.602 197.858 142.602C197.501 142.602 197.22 142.687 197.015 142.858C196.815 143.029 196.715 143.264 196.715 143.562H194.596C194.596 143.102 194.738 142.677 195.021 142.286C195.305 141.896 195.706 141.59 196.223 141.37C196.741 141.145 197.323 141.033 197.968 141.033C198.945 141.033 199.72 141.28 200.291 141.773C200.868 142.262 201.156 142.951 201.156 143.84V147.278C201.161 148.03 201.266 148.6 201.471 148.986V149.11H199.331ZM197.579 147.637C197.892 147.637 198.18 147.569 198.444 147.432C198.708 147.29 198.904 147.102 199.031 146.867V145.504H198.239C197.179 145.504 196.614 145.871 196.546 146.604L196.539 146.728C196.539 146.992 196.631 147.21 196.817 147.381C197.003 147.552 197.257 147.637 197.579 147.637ZM207.24 143.166C206.952 143.127 206.698 143.107 206.478 143.107C205.676 143.107 205.151 143.379 204.902 143.921V149.11H202.784V141.18H204.784L204.843 142.125C205.268 141.397 205.857 141.033 206.61 141.033C206.844 141.033 207.064 141.065 207.269 141.128L207.24 143.166ZM211.418 147.549C211.809 147.549 212.126 147.442 212.371 147.227C212.615 147.012 212.742 146.726 212.752 146.369H214.738C214.733 146.907 214.587 147.4 214.298 147.85C214.01 148.294 213.614 148.641 213.111 148.89C212.613 149.135 212.06 149.257 211.454 149.257C210.321 149.257 209.427 148.898 208.772 148.179C208.117 147.456 207.79 146.459 207.79 145.189V145.05C207.79 143.828 208.115 142.853 208.764 142.125C209.414 141.397 210.306 141.033 211.44 141.033C212.432 141.033 213.226 141.317 213.822 141.883C214.423 142.445 214.728 143.195 214.738 144.134H212.752C212.742 143.723 212.615 143.391 212.371 143.137C212.126 142.878 211.804 142.748 211.403 142.748C210.91 142.748 210.536 142.929 210.282 143.291C210.033 143.647 209.908 144.229 209.908 145.035V145.255C209.908 146.071 210.033 146.657 210.282 147.014C210.531 147.371 210.91 147.549 211.418 147.549ZM218.014 142.045C218.576 141.37 219.283 141.033 220.133 141.033C221.853 141.033 222.725 142.032 222.749 144.031V149.11H220.631V144.09C220.631 143.635 220.533 143.3 220.338 143.085C220.143 142.866 219.818 142.756 219.363 142.756C218.743 142.756 218.293 142.995 218.014 143.474V149.11H215.896V137.852H218.014V142.045Z" fill="#0F1C26"/>
<path d="M310.031 149.967L313.534 145.666L310.031 141.365" stroke="#0043EF" stroke-width="1.6679" stroke-linecap="round" stroke-linejoin="round"/>
<path d="M86.7 149.967L83.1975 145.666L86.7 141.365" stroke="#0043EF" stroke-width="1.6679" stroke-linecap="round" stroke-linejoin="round"/>
<rect x="59.0148" y="364.446" width="274.369" height="51.7049" rx="4.16975" fill="white"/>
<rect x="59.0148" y="422.822" width="274.369" height="51.7049" rx="4.16975" fill="white"/>
<rect x="59.0148" y="481.199" width="274.369" height="51.7049" rx="4.16975" fill="white"/>
<rect x="59.0148" y="539.575" width="274.369" height="51.7049" rx="4.16975" fill="white"/>
<path d="M80.0448 382.583H78.2964V389.198H78.2111L73.6433 382.583H72.0702V392.287H73.8281V385.677H73.9086L78.4812 392.287H80.0448V382.583ZM84.1039 392.434C85.2459 392.434 85.9282 391.899 86.2409 391.287H86.2978V392.287H87.9467V387.416C87.9467 385.492 86.3783 384.914 84.99 384.914C83.4595 384.914 82.2844 385.597 81.9053 386.923L83.5069 387.151C83.6775 386.653 84.1608 386.227 84.9995 386.227C85.7955 386.227 86.2314 386.634 86.2314 387.35V387.378C86.2314 387.871 85.715 387.895 84.4309 388.032C83.0188 388.184 81.6684 388.605 81.6684 390.245C81.6684 391.676 82.7156 392.434 84.1039 392.434ZM84.5493 391.174C83.8338 391.174 83.3221 390.847 83.3221 390.216C83.3221 389.558 83.8954 389.283 84.663 389.174C85.1132 389.112 86.0135 388.999 86.2362 388.819V389.676C86.2362 390.487 85.5823 391.174 84.5493 391.174ZM89.7966 392.287H91.5118V387.861C91.5118 386.966 92.1089 386.359 92.8481 386.359C93.573 386.359 94.0706 386.847 94.0706 387.596V392.287H95.7527V387.748C95.7527 386.928 96.2407 386.359 97.0699 386.359C97.7617 386.359 98.3114 386.767 98.3114 387.667V392.287H100.031V387.402C100.031 385.777 99.0932 384.914 97.757 384.914C96.7003 384.914 95.8948 385.435 95.5726 386.246H95.4968C95.2172 385.421 94.5112 384.914 93.5304 384.914C92.5543 384.914 91.8246 385.417 91.5213 386.246H91.436V385.009H89.7966V392.287ZM105.119 392.429C106.815 392.429 107.981 391.6 108.284 390.335L106.682 390.155C106.45 390.771 105.882 391.093 105.142 391.093C104.034 391.093 103.299 390.363 103.285 389.117H108.355V388.591C108.355 386.037 106.82 384.914 105.029 384.914C102.944 384.914 101.584 386.445 101.584 388.691C101.584 390.975 102.925 392.429 105.119 392.429ZM103.29 387.961C103.342 387.032 104.029 386.25 105.052 386.25C106.038 386.25 106.701 386.971 106.711 387.961H103.29ZM116.541 392.429C118.673 392.429 120.028 390.927 120.028 388.676C120.028 386.421 118.673 384.914 116.541 384.914C114.408 384.914 113.053 386.421 113.053 388.676C113.053 390.927 114.408 392.429 116.541 392.429ZM116.55 391.055C115.37 391.055 114.792 390.003 114.792 388.672C114.792 387.34 115.37 386.274 116.55 386.274C117.711 386.274 118.289 387.34 118.289 388.672C118.289 390.003 117.711 391.055 116.55 391.055ZM125.296 385.009H123.784V384.436C123.784 383.867 124.021 383.55 124.661 383.55C124.931 383.55 125.158 383.611 125.3 383.654L125.646 382.327C125.424 382.251 124.935 382.128 124.343 382.128C123.078 382.128 122.069 382.853 122.069 384.322V385.009H120.993V386.336H122.069V392.287H123.784V386.336H125.296V385.009ZM133.833 385.009H132.397V383.265H130.682V385.009H129.649V386.336H130.682V390.382C130.673 391.752 131.668 392.425 132.957 392.387C133.445 392.372 133.781 392.278 133.966 392.216L133.677 390.875C133.582 390.899 133.388 390.941 133.174 390.941C132.743 390.941 132.397 390.79 132.397 390.098V386.336H133.833V385.009ZM137.264 388.023C137.264 386.971 137.918 386.364 138.838 386.364C139.738 386.364 140.269 386.938 140.269 387.918V392.287H141.984V387.653C141.984 385.895 140.989 384.914 139.477 384.914C138.359 384.914 137.648 385.421 137.312 386.246H137.226V382.583H135.549V392.287H137.264V388.023ZM147.079 392.429C148.776 392.429 149.941 391.6 150.245 390.335L148.643 390.155C148.411 390.771 147.842 391.093 147.103 391.093C145.994 391.093 145.26 390.363 145.246 389.117H150.316V388.591C150.316 386.037 148.78 384.914 146.989 384.914C144.905 384.914 143.545 386.445 143.545 388.691C143.545 390.975 144.886 392.429 147.079 392.429ZM145.25 387.961C145.303 387.032 145.99 386.25 147.013 386.25C147.999 386.25 148.662 386.971 148.672 387.961H145.25ZM158.549 392.429C160.245 392.429 161.411 391.6 161.714 390.335L160.112 390.155C159.88 390.771 159.312 391.093 158.573 391.093C157.464 391.093 156.729 390.363 156.715 389.117H161.785V388.591C161.785 386.037 160.25 384.914 158.459 384.914C156.374 384.914 155.014 386.445 155.014 388.691C155.014 390.975 156.355 392.429 158.549 392.429ZM156.72 387.961C156.772 387.032 157.459 386.25 158.482 386.25C159.468 386.25 160.131 386.971 160.141 387.961H156.72ZM169.654 385.009H167.83L166.152 390.415H166.076L164.404 385.009H162.575L165.167 392.287H167.062L169.654 385.009ZM173.94 392.429C175.637 392.429 176.802 391.6 177.106 390.335L175.504 390.155C175.272 390.771 174.703 391.093 173.964 391.093C172.855 391.093 172.121 390.363 172.107 389.117H177.177V388.591C177.177 386.037 175.641 384.914 173.85 384.914C171.766 384.914 170.406 386.445 170.406 388.691C170.406 390.975 171.747 392.429 173.94 392.429ZM172.111 387.961C172.164 387.032 172.851 386.25 173.874 386.25C174.86 386.25 175.523 386.971 175.532 387.961H172.111ZM180.468 388.023C180.468 386.971 181.103 386.364 182.008 386.364C182.894 386.364 183.425 386.947 183.425 387.918V392.287H185.14V387.653C185.145 385.909 184.15 384.914 182.648 384.914C181.558 384.914 180.809 385.435 180.478 386.246H180.392V385.009H178.753V392.287H180.468V388.023ZM190.643 385.009H189.208V383.265H187.492V385.009H186.459V386.336H187.492V390.382C187.483 391.752 188.478 392.425 189.767 392.387C190.255 392.372 190.591 392.278 190.776 392.216L190.487 390.875C190.392 390.899 190.198 390.941 189.985 390.941C189.554 390.941 189.208 390.79 189.208 390.098V386.336H190.643V385.009Z" fill="#0F1C26"/>
<path d="M69.9572 450H71.7151V446.721H73.5725C75.8138 446.721 77.0173 445.375 77.0173 443.508C77.0173 441.656 75.828 440.296 73.5962 440.296H69.9572V450ZM71.7151 445.276V441.765H73.3261C74.6434 441.765 75.2262 442.476 75.2262 443.508C75.2262 444.541 74.6434 445.276 73.3356 445.276H71.7151ZM80.3088 440.296H78.5935V450H80.3088V440.296ZM84.2921 450.147C85.434 450.147 86.1163 449.611 86.4291 449H86.4859V450H88.1349V445.129C88.1349 443.205 86.5665 442.627 85.1781 442.627C83.6477 442.627 82.4726 443.309 82.0935 444.636L83.695 444.864C83.8656 444.366 84.3489 443.94 85.1876 443.94C85.9837 443.94 86.4196 444.347 86.4196 445.063V445.091C86.4196 445.584 85.9031 445.608 84.619 445.745C83.207 445.897 81.8566 446.318 81.8566 447.958C81.8566 449.389 82.9037 450.147 84.2921 450.147ZM84.7375 448.886C84.022 448.886 83.5103 448.56 83.5103 447.929C83.5103 447.271 84.0836 446.996 84.8512 446.887C85.3013 446.825 86.2016 446.712 86.4243 446.532V447.389C86.4243 448.199 85.7704 448.886 84.7375 448.886ZM93.1594 450.142C94.9884 450.142 96.1541 449.057 96.2773 447.512H94.6378C94.4909 448.294 93.927 448.744 93.1736 448.744C92.1028 448.744 91.411 447.849 91.411 446.361C91.411 444.892 92.117 444.011 93.1736 444.011C93.9981 444.011 94.5051 444.541 94.6378 445.243H96.2773C96.1588 443.665 94.9268 442.627 93.1499 442.627C91.0177 442.627 89.672 444.167 89.672 446.389C89.672 448.593 90.9845 450.142 93.1594 450.142ZM101.033 450.142C102.729 450.142 103.895 449.313 104.198 448.048L102.597 447.868C102.364 448.484 101.796 448.806 101.057 448.806C99.9478 448.806 99.2134 448.076 99.1992 446.83H104.269V446.304C104.269 443.75 102.734 442.627 100.943 442.627C98.858 442.627 97.4981 444.158 97.4981 446.404C97.4981 448.687 98.839 450.142 101.033 450.142ZM99.2039 445.674C99.256 444.745 99.9431 443.963 100.967 443.963C101.952 443.963 102.616 444.684 102.625 445.674H99.2039ZM112.455 450.142C114.587 450.142 115.942 448.64 115.942 446.389C115.942 444.134 114.587 442.627 112.455 442.627C110.323 442.627 108.968 444.134 108.968 446.389C108.968 448.64 110.323 450.142 112.455 450.142ZM112.464 448.768C111.285 448.768 110.706 447.716 110.706 446.385C110.706 445.053 111.285 443.987 112.464 443.987C113.625 443.987 114.203 445.053 114.203 446.385C114.203 447.716 113.625 448.768 112.464 448.768ZM121.21 442.722H119.698V442.149C119.698 441.58 119.935 441.262 120.575 441.262C120.845 441.262 121.072 441.324 121.214 441.367L121.56 440.04C121.338 439.964 120.85 439.841 120.257 439.841C118.992 439.841 117.983 440.566 117.983 442.035V442.722H116.907V444.049H117.983V450H119.698V444.049H121.21V442.722ZM129.747 442.722H128.312V440.978H126.596V442.722H125.563V444.049H126.596V448.095C126.587 449.465 127.582 450.137 128.871 450.1C129.359 450.085 129.695 449.991 129.88 449.929L129.591 448.588C129.496 448.612 129.302 448.654 129.089 448.654C128.657 448.654 128.312 448.503 128.312 447.811V444.049H129.747V442.722ZM133.179 445.735C133.179 444.684 133.832 444.077 134.752 444.077C135.652 444.077 136.183 444.65 136.183 445.631V450H137.898V445.366C137.898 443.608 136.903 442.627 135.391 442.627C134.273 442.627 133.562 443.134 133.226 443.959H133.141V440.296H131.463V450H133.179V445.735ZM142.994 450.142C144.69 450.142 145.856 449.313 146.159 448.048L144.557 447.868C144.325 448.484 143.756 448.806 143.017 448.806C141.909 448.806 141.174 448.076 141.16 446.83H146.23V446.304C146.23 443.75 144.695 442.627 142.904 442.627C140.819 442.627 139.459 444.158 139.459 446.404C139.459 448.687 140.8 450.142 142.994 450.142ZM141.165 445.674C141.217 444.745 141.904 443.963 142.927 443.963C143.913 443.963 144.576 444.684 144.586 445.674H141.165ZM154.463 450.142C156.159 450.142 157.325 449.313 157.628 448.048L156.027 447.868C155.794 448.484 155.226 448.806 154.487 448.806C153.378 448.806 152.643 448.076 152.629 446.83H157.699V446.304C157.699 443.75 156.164 442.627 154.373 442.627C152.288 442.627 150.928 444.158 150.928 446.404C150.928 448.687 152.269 450.142 154.463 450.142ZM152.634 445.674C152.686 444.745 153.373 443.963 154.397 443.963C155.382 443.963 156.046 444.684 156.055 445.674H152.634ZM165.568 442.722H163.744L162.066 448.128H161.991L160.318 442.722H158.489L161.081 450H162.976L165.568 442.722ZM169.855 450.142C171.551 450.142 172.717 449.313 173.02 448.048L171.418 447.868C171.186 448.484 170.617 448.806 169.878 448.806C168.769 448.806 168.035 448.076 168.021 446.83H173.091V446.304C173.091 443.75 171.556 442.627 169.765 442.627C167.68 442.627 166.32 444.158 166.32 446.404C166.32 448.687 167.661 450.142 169.855 450.142ZM168.026 445.674C168.078 444.745 168.765 443.963 169.788 443.963C170.774 443.963 171.437 444.684 171.447 445.674H168.026ZM176.382 445.735C176.382 444.684 177.017 444.077 177.922 444.077C178.808 444.077 179.339 444.66 179.339 445.631V450H181.054V445.366C181.059 443.622 180.064 442.627 178.562 442.627C177.472 442.627 176.724 443.148 176.392 443.959H176.307V442.722H174.667V450H176.382V445.735ZM186.557 442.722H185.122V440.978H183.406V442.722H182.374V444.049H183.406V448.095C183.397 449.465 184.392 450.137 185.681 450.1C186.169 450.085 186.505 449.991 186.69 449.929L186.401 448.588C186.306 448.612 186.112 448.654 185.899 448.654C185.468 448.654 185.122 448.503 185.122 447.811V444.049H186.557V442.722Z" fill="#0F1C26"/>
<path d="M72.0602 509.04L72.861 506.647H76.5095L77.315 509.04H79.1914L75.7703 499.336H73.6002L70.1838 509.04H72.0602ZM73.3348 505.235L74.6473 501.326H74.7231L76.0357 505.235H73.3348ZM82.9982 509.168C84.2491 509.168 84.813 508.424 85.0831 507.893H85.1873V509.04H86.8742V499.336H85.1541V502.965H85.0831C84.8225 502.44 84.287 501.667 83.0029 501.667C81.3208 501.667 79.9988 502.984 79.9988 505.41C79.9988 507.808 81.2829 509.168 82.9982 509.168ZM83.4768 507.761C82.3443 507.761 81.7473 506.766 81.7473 505.401C81.7473 504.046 82.3348 503.074 83.4768 503.074C84.5808 503.074 85.1873 503.989 85.1873 505.401C85.1873 506.813 84.5713 507.761 83.4768 507.761ZM91.5279 509.168C92.7789 509.168 93.3427 508.424 93.6128 507.893H93.7171V509.04H95.4039V499.336H93.6839V502.965H93.6128C93.3522 502.44 92.8168 501.667 91.5327 501.667C89.8506 501.667 88.5286 502.984 88.5286 505.41C88.5286 507.808 89.8127 509.168 91.5279 509.168ZM92.0065 507.761C90.874 507.761 90.277 506.766 90.277 505.401C90.277 504.046 90.8646 503.074 92.0065 503.074C93.1105 503.074 93.7171 503.989 93.7171 505.401C93.7171 506.813 93.1011 507.761 92.0065 507.761ZM100.792 511.769H102.507V507.893H102.578C102.848 508.424 103.412 509.168 104.663 509.168C106.378 509.168 107.662 507.808 107.662 505.41C107.662 502.984 106.34 501.667 104.658 501.667C103.374 501.667 102.839 502.44 102.578 502.965H102.478V501.762H100.792V511.769ZM102.474 505.401C102.474 503.989 103.08 503.074 104.184 503.074C105.326 503.074 105.914 504.046 105.914 505.401C105.914 506.766 105.317 507.761 104.184 507.761C103.09 507.761 102.474 506.813 102.474 505.401ZM112.478 509.182C114.175 509.182 115.34 508.353 115.644 507.088L114.042 506.908C113.81 507.524 113.241 507.846 112.502 507.846C111.393 507.846 110.659 507.116 110.645 505.87H115.715V505.344C115.715 502.79 114.179 501.667 112.388 501.667C110.303 501.667 108.944 503.198 108.944 505.444C108.944 507.728 110.284 509.182 112.478 509.182ZM110.649 504.714C110.701 503.785 111.388 503.003 112.412 503.003C113.398 503.003 114.061 503.724 114.07 504.714H110.649ZM120.466 509.182C122.598 509.182 123.953 507.68 123.953 505.429C123.953 503.174 122.598 501.667 120.466 501.667C118.333 501.667 116.978 503.174 116.978 505.429C116.978 507.68 118.333 509.182 120.466 509.182ZM120.475 507.808C119.295 507.808 118.717 506.756 118.717 505.425C118.717 504.093 119.295 503.027 120.475 503.027C121.636 503.027 122.214 504.093 122.214 505.425C122.214 506.756 121.636 507.808 120.475 507.808ZM125.534 511.769H127.249V507.893H127.32C127.59 508.424 128.154 509.168 129.405 509.168C131.12 509.168 132.404 507.808 132.404 505.41C132.404 502.984 131.082 501.667 129.4 501.667C128.116 501.667 127.581 502.44 127.32 502.965H127.221V501.762H125.534V511.769ZM127.216 505.401C127.216 503.989 127.823 503.074 128.927 503.074C130.068 503.074 130.656 504.046 130.656 505.401C130.656 506.766 130.059 507.761 128.927 507.761C127.832 507.761 127.216 506.813 127.216 505.401ZM135.714 499.336H133.998V509.04H135.714V499.336ZM140.825 509.182C142.521 509.182 143.687 508.353 143.99 507.088L142.388 506.908C142.156 507.524 141.588 507.846 140.848 507.846C139.74 507.846 139.005 507.116 138.991 505.87H144.061V505.344C144.061 502.79 142.526 501.667 140.735 501.667C138.65 501.667 137.29 503.198 137.29 505.444C137.29 507.728 138.631 509.182 140.825 509.182ZM138.996 504.714C139.048 503.785 139.735 503.003 140.758 503.003C141.744 503.003 142.407 503.724 142.417 504.714H138.996Z" fill="#0F1C26"/>
<path d="M70.814 567.417H72.5719V563.863H74.363L76.2678 567.417H78.2295L76.1304 563.569C77.2724 563.11 77.8741 562.134 77.8741 560.816C77.8741 558.964 76.6801 557.713 74.4531 557.713H70.814V567.417ZM72.5719 562.404V559.182H74.183C75.4955 559.182 76.0831 559.784 76.0831 560.816C76.0831 561.849 75.4955 562.404 74.1925 562.404H72.5719ZM82.6594 567.559C84.3557 567.559 85.5214 566.73 85.8246 565.465L84.2231 565.285C83.9909 565.901 83.4223 566.223 82.6831 566.223C81.5743 566.223 80.8399 565.493 80.8257 564.247H85.8957V563.721C85.8957 561.167 84.3605 560.044 82.5694 560.044C80.4845 560.044 79.1246 561.575 79.1246 563.821C79.1246 566.104 80.4656 567.559 82.6594 567.559ZM80.8304 563.091C80.8825 562.162 81.5696 561.38 82.5931 561.38C83.5786 561.38 84.242 562.101 84.2515 563.091H80.8304ZM87.4719 570.146H89.1872V566.27H89.2583C89.5284 566.801 90.0922 567.545 91.3431 567.545C93.0584 567.545 94.3425 566.185 94.3425 563.787C94.3425 561.361 93.0205 560.044 91.3384 560.044C90.0543 560.044 89.5189 560.816 89.2583 561.342H89.1588V560.139H87.4719V570.146ZM89.154 563.778C89.154 562.366 89.7605 561.451 90.8646 561.451C92.0065 561.451 92.5941 562.423 92.5941 563.778C92.5941 565.143 91.997 566.138 90.8646 566.138C89.77 566.138 89.154 565.19 89.154 563.778ZM99.1586 567.559C100.855 567.559 102.021 566.73 102.324 565.465L100.722 565.285C100.49 565.901 99.9214 566.223 99.1823 566.223C98.0735 566.223 97.339 565.493 97.3248 564.247H102.395V563.721C102.395 561.167 100.86 560.044 99.0685 560.044C96.9837 560.044 95.6238 561.575 95.6238 563.821C95.6238 566.104 96.9647 567.559 99.1586 567.559ZM97.3296 563.091C97.3817 562.162 98.0688 561.38 99.0922 561.38C100.078 561.38 100.741 562.101 100.751 563.091H97.3296ZM106.065 567.564C107.207 567.564 107.89 567.028 108.202 566.417H108.259V567.417H109.908V562.546C109.908 560.622 108.34 560.044 106.951 560.044C105.421 560.044 104.246 560.726 103.867 562.053L105.468 562.281C105.639 561.783 106.122 561.357 106.961 561.357C107.757 561.357 108.193 561.764 108.193 562.48V562.508C108.193 563.001 107.676 563.025 106.392 563.162C104.98 563.314 103.63 563.735 103.63 565.375C103.63 566.806 104.677 567.564 106.065 567.564ZM106.511 566.303C105.795 566.303 105.284 565.977 105.284 565.346C105.284 564.688 105.857 564.413 106.625 564.304C107.075 564.242 107.975 564.129 108.198 563.949V564.806C108.198 565.616 107.544 566.303 106.511 566.303ZM115.392 560.139H113.957V558.395H112.241V560.139H111.208V561.466H112.241V565.512C112.232 566.882 113.227 567.554 114.516 567.516C115.004 567.502 115.34 567.408 115.525 567.346L115.236 566.005C115.141 566.029 114.947 566.071 114.734 566.071C114.303 566.071 113.957 565.92 113.957 565.228V561.466H115.392V560.139Z" fill="#0F1C26"/>
</g>
<rect opacity="0.4" x="165.215" y="34.0684" width="67.2161" height="6.25266" rx="1.73696" fill="#D3DDE7"/>
<rect opacity="0.5" x="243.373" y="30.1611" width="14.0685" height="14.0685" rx="4.77664" fill="#E7EDF3"/>
<rect opacity="0.5" x="246.499" y="33.2881" width="7.81582" height="7.81582" rx="3.90791" fill="white"/>
<rect opacity="0.5" x="127.699" y="34.0684" width="6.25266" height="6.25266" rx="1.73696" fill="#D3DDE7"/>
</g>
<defs>
<filter id="filter0_d" x="0" y="0" width="391" height="722.781" filterUnits="userSpaceOnUse" color-interpolation-filters="sRGB">
<feFlood flood-opacity="0" result="BackgroundImageFix"/>
<feColorMatrix in="SourceAlpha" type="matrix" values="0 0 0 0 0 0 0 0 0 0 0 0 0 0 0 0 0 0 127 0" result="hardAlpha"/>
<feOffset dy="10"/>
<feGaussianBlur stdDeviation="15"/>
<feColorMatrix type="matrix" values="0 0 0 0 0.0207639 0 0 0 0 0.0756167 0 0 0 0 0.216667 0 0 0 0.1 0"/>
<feBlend mode="normal" in2="BackgroundImageFix" result="effect1_dropShadow"/>
<feBlend mode="normal" in="SourceGraphic" in2="effect1_dropShadow" result="shape"/>
</filter>
<clipPath id="clip0">
<rect width="33.358" height="33.358" fill="white" transform="translate(309.203 64.2246)"/>
</clipPath>
</defs>
</svg>
