<svg width="391" height="723" viewBox="0 0 391 723" fill="none" xmlns="http://www.w3.org/2000/svg">
<g filter="url(#filter0_d)">
<path d="M33.9079 41.712C33.9079 29.7208 43.6287 20 55.6199 20L334.989 20C346.98 20 356.701 29.7208 356.701 41.712V166.547C359.075 166.547 361 168.471 361 170.845V223.993C361 226.367 359.075 228.292 356.701 228.292V661.069C356.701 673.061 346.98 682.781 334.989 682.781H55.6199C43.6287 682.781 33.9079 673.061 33.9079 661.07L33.9079 256.038H31.737C30.7777 256.038 30 255.26 30 254.301V205.409C30 204.449 30.7777 203.672 31.737 203.672H33.9079V193.902H31.737C30.7777 193.902 30 193.124 30 192.165L30 141.71C30 140.75 30.7777 139.973 31.737 139.973H33.9079V41.712Z" fill="white"/>
<path d="M109.725 34.0684H73.772C59.959 34.0684 48.7614 45.266 48.7614 59.079L48.7614 643.702C48.7614 657.515 59.959 668.713 73.772 668.713H316.844C330.657 668.713 341.855 657.515 341.855 643.702V59.079C341.855 45.266 330.657 34.0684 316.844 34.0684L281.673 34.0684V37.9763C281.673 46.6094 274.674 53.6079 266.041 53.6079H125.356C116.723 53.6079 109.725 46.6094 109.725 37.9763V34.0684Z" fill="#E7EDF3"/>
<mask id="mask0" mask-type="alpha" maskUnits="userSpaceOnUse" x="48" y="33" width="294" height="636">
<path d="M109.73 33.6494H73.7772C59.9642 33.6494 48.7666 44.8471 48.7666 58.66L48.7666 643.283C48.7666 657.096 59.9642 668.294 73.7772 668.294H316.849C330.662 668.294 341.86 657.096 341.86 643.283V58.66C341.86 44.8471 330.662 33.6494 316.849 33.6494L281.678 33.6494V37.5573C281.678 46.1904 274.679 53.189 266.046 53.189H125.362C116.728 53.189 109.73 46.1904 109.73 37.5573V33.6494Z" fill="#E7EDF3"/>
</mask>
<g mask="url(#mask0)">
<rect x="29.0009" y="33" width="332" height="445" fill="#D3DDE7"/>
<path d="M87.0996 283.361C86.8587 284.846 86.1914 286.031 85.0977 286.916C84.0039 287.795 82.6725 288.221 81.1035 288.195C80.1986 288.176 79.4043 287.961 78.7207 287.551C78.0436 287.141 77.513 286.545 77.1289 285.764C76.7448 284.976 76.5299 284.087 76.4844 283.098C76.4453 282.355 76.5365 281.346 76.7578 280.07C76.9792 278.788 77.4023 277.639 78.0273 276.623C78.6589 275.607 79.4303 274.842 80.3418 274.328C81.2598 273.814 82.2786 273.566 83.3984 273.586C84.8112 273.612 85.9277 274.058 86.748 274.924C87.5749 275.783 88.0143 276.971 88.0664 278.488H85.6738C85.6413 277.473 85.4264 276.74 85.0293 276.291C84.6387 275.835 84.056 275.598 83.2812 275.578C82.2201 275.546 81.3314 275.926 80.6152 276.721C79.8991 277.515 79.4173 278.671 79.1699 280.188L78.9746 281.486L78.8867 282.482C78.8346 283.153 78.8802 283.785 79.0234 284.377C79.1732 284.963 79.4336 285.412 79.8047 285.725C80.1758 286.031 80.6478 286.193 81.2207 286.213C83.0371 286.285 84.2025 285.34 84.7168 283.381L87.0996 283.361ZM88.9258 282.678C89.0365 281.643 89.3392 280.702 89.834 279.855C90.3353 279.009 90.9766 278.355 91.7578 277.893C92.5391 277.43 93.4049 277.212 94.3555 277.238C95.2604 277.251 96.0417 277.492 96.6992 277.961C97.3568 278.43 97.8353 279.071 98.1348 279.885C98.4408 280.699 98.5482 281.604 98.457 282.6C98.3529 283.719 98.0469 284.709 97.5391 285.568C97.0378 286.428 96.3932 287.089 95.6055 287.551C94.8242 288.007 93.9551 288.221 92.998 288.195C92.0996 288.182 91.3216 287.945 90.6641 287.482C90.013 287.014 89.5345 286.376 89.2285 285.568C88.9225 284.755 88.8118 283.859 88.8965 282.883L88.9258 282.678ZM91.2012 284.016C91.2337 284.699 91.4128 285.249 91.7383 285.666C92.0703 286.076 92.5293 286.291 93.1152 286.311C93.9095 286.33 94.5736 286.024 95.1074 285.393C95.6478 284.761 95.9863 283.898 96.123 282.805L96.1816 281.848C96.1816 281.014 96.0156 280.36 95.6836 279.885C95.3516 279.41 94.8698 279.159 94.2383 279.133C93.2487 279.107 92.4674 279.592 91.8945 280.588C91.5495 281.193 91.3314 281.89 91.2402 282.678C91.1882 283.225 91.1751 283.671 91.2012 284.016ZM103.496 277.424L103.262 278.664C104.167 277.688 105.212 277.212 106.396 277.238C107.386 277.258 108.118 277.613 108.594 278.303C109.069 278.986 109.245 279.943 109.121 281.174L107.979 288H105.664L106.816 281.145C106.849 280.865 106.852 280.604 106.826 280.363C106.742 279.589 106.279 279.191 105.439 279.172C104.561 279.159 103.789 279.592 103.125 280.471L101.807 288H99.4922L101.318 277.434L103.496 277.424ZM114.395 277.424L114.16 278.664C115.065 277.688 116.11 277.212 117.295 277.238C118.285 277.258 119.017 277.613 119.492 278.303C119.967 278.986 120.143 279.943 120.02 281.174L118.877 288H116.562L117.715 281.145C117.747 280.865 117.751 280.604 117.725 280.363C117.64 279.589 117.178 279.191 116.338 279.172C115.459 279.159 114.688 279.592 114.023 280.471L112.705 288H110.391L112.217 277.434L114.395 277.424ZM126.104 288.195C125.186 288.176 124.388 287.945 123.711 287.502C123.04 287.059 122.542 286.454 122.217 285.686C121.898 284.917 121.777 284.061 121.855 283.117L121.885 282.717C122.002 281.643 122.314 280.679 122.822 279.826C123.337 278.967 123.975 278.316 124.736 277.873C125.498 277.43 126.325 277.219 127.217 277.238C128.538 277.264 129.528 277.756 130.186 278.713C130.85 279.67 131.1 280.917 130.938 282.453L130.801 283.469H124.15C124.092 284.309 124.261 284.986 124.658 285.5C125.055 286.014 125.602 286.278 126.299 286.291C127.295 286.324 128.213 285.891 129.053 284.992L130.225 286.223C129.782 286.854 129.199 287.346 128.477 287.697C127.754 288.042 126.963 288.208 126.104 288.195ZM127.09 279.133C125.866 279.094 124.948 279.96 124.336 281.73L128.721 281.74L128.76 281.535C128.805 281.236 128.809 280.943 128.77 280.656C128.698 280.194 128.516 279.829 128.223 279.562C127.93 279.296 127.552 279.152 127.09 279.133ZM136.436 286.311C136.989 286.324 137.477 286.164 137.9 285.832C138.33 285.493 138.604 285.054 138.721 284.514L140.908 284.504C140.837 285.201 140.583 285.835 140.146 286.408C139.717 286.981 139.163 287.427 138.486 287.746C137.809 288.065 137.103 288.215 136.367 288.195C135.462 288.182 134.691 287.948 134.053 287.492C133.415 287.036 132.949 286.408 132.656 285.607C132.363 284.8 132.266 283.902 132.363 282.912L132.393 282.57C132.503 281.548 132.799 280.624 133.281 279.797C133.77 278.964 134.398 278.322 135.166 277.873C135.934 277.424 136.787 277.212 137.725 277.238C138.87 277.264 139.785 277.645 140.469 278.381C141.152 279.11 141.494 280.061 141.494 281.232H139.326C139.326 280.627 139.176 280.132 138.877 279.748C138.584 279.364 138.158 279.159 137.598 279.133C136.693 279.107 135.98 279.491 135.459 280.285C134.938 281.079 134.658 282.199 134.619 283.645C134.574 285.396 135.179 286.285 136.436 286.311ZM147.266 274.865L146.816 277.434H148.623L148.32 279.191H146.504L145.508 285.109C145.488 285.272 145.485 285.419 145.498 285.549C145.537 285.972 145.798 286.193 146.279 286.213C146.52 286.213 146.794 286.184 147.1 286.125L146.943 287.98C146.462 288.117 145.977 288.186 145.488 288.186C144.681 288.173 144.076 287.899 143.672 287.365C143.275 286.825 143.118 286.112 143.203 285.227L144.189 279.191H142.5L142.812 277.434H144.492L144.941 274.865H147.266ZM163.125 284.709L166.025 277.434H168.35L163.721 288H161.816L160.889 280.773L157.471 288H155.557L154.59 277.434H156.777L157.178 284.602L160.518 277.434H162.266L163.125 284.709ZM170.557 288H168.242L170.078 277.434H172.393L170.557 288ZM170.41 274.729C170.41 274.37 170.527 274.064 170.762 273.811C170.996 273.557 171.312 273.423 171.709 273.41C172.087 273.397 172.399 273.514 172.646 273.762C172.9 274.003 173.027 274.299 173.027 274.65C173.027 275.021 172.904 275.327 172.656 275.568C172.415 275.809 172.106 275.936 171.729 275.949C171.357 275.962 171.045 275.852 170.791 275.617C170.537 275.376 170.41 275.08 170.41 274.729ZM178.34 274.865L177.891 277.434H179.697L179.395 279.191H177.578L176.582 285.109C176.562 285.272 176.559 285.419 176.572 285.549C176.611 285.972 176.872 286.193 177.354 286.213C177.594 286.213 177.868 286.184 178.174 286.125L178.018 287.98C177.536 288.117 177.051 288.186 176.562 288.186C175.755 288.173 175.15 287.899 174.746 287.365C174.349 286.825 174.193 286.112 174.277 285.227L175.264 279.191H173.574L173.887 277.434H175.566L176.016 274.865H178.34ZM183.535 278.596C184.414 277.671 185.413 277.222 186.533 277.248C187.536 277.261 188.278 277.616 188.76 278.312C189.248 279.009 189.43 279.973 189.307 281.203L188.174 288H185.859L187.012 281.174C187.044 280.894 187.051 280.633 187.031 280.393C186.947 279.598 186.478 279.191 185.625 279.172C184.766 279.159 183.997 279.582 183.32 280.441L182.002 288H179.688L182.285 273H184.609L183.535 278.596ZM199.678 284.582L202.998 277.434H205.557L199.297 289.826C198.424 291.493 197.275 292.316 195.85 292.297C195.498 292.284 195.098 292.219 194.648 292.102L194.844 290.266L195.264 290.305C195.824 290.324 196.286 290.217 196.65 289.982C197.015 289.755 197.321 289.396 197.568 288.908L198.125 287.814L196.357 277.434H198.76L199.678 284.582ZM205.488 282.678C205.599 281.643 205.902 280.702 206.396 279.855C206.898 279.009 207.539 278.355 208.32 277.893C209.102 277.43 209.967 277.212 210.918 277.238C211.823 277.251 212.604 277.492 213.262 277.961C213.919 278.43 214.398 279.071 214.697 279.885C215.003 280.699 215.111 281.604 215.02 282.6C214.915 283.719 214.609 284.709 214.102 285.568C213.6 286.428 212.956 287.089 212.168 287.551C211.387 288.007 210.518 288.221 209.561 288.195C208.662 288.182 207.884 287.945 207.227 287.482C206.576 287.014 206.097 286.376 205.791 285.568C205.485 284.755 205.374 283.859 205.459 282.883L205.488 282.678ZM207.764 284.016C207.796 284.699 207.975 285.249 208.301 285.666C208.633 286.076 209.092 286.291 209.678 286.311C210.472 286.33 211.136 286.024 211.67 285.393C212.21 284.761 212.549 283.898 212.686 282.805L212.744 281.848C212.744 281.014 212.578 280.36 212.246 279.885C211.914 279.41 211.432 279.159 210.801 279.133C209.811 279.107 209.03 279.592 208.457 280.588C208.112 281.193 207.894 281.89 207.803 282.678C207.751 283.225 207.738 283.671 207.764 284.016ZM222.617 286.955C221.816 287.808 220.814 288.221 219.609 288.195C218.926 288.182 218.356 288.013 217.9 287.688C217.451 287.362 217.129 286.91 216.934 286.33C216.745 285.744 216.689 285.057 216.768 284.27L217.91 277.434H220.225L219.072 284.299C219.046 284.54 219.043 284.774 219.062 285.002C219.128 285.809 219.535 286.229 220.283 286.262C221.305 286.301 222.132 285.891 222.764 285.031L224.092 277.434H226.406L224.58 288H222.412L222.617 286.955ZM233.877 279.602C233.577 279.536 233.275 279.504 232.969 279.504C231.953 279.478 231.146 279.898 230.547 280.764L229.277 288H226.963L228.789 277.434L230.986 277.424L230.752 278.625C231.475 277.668 232.308 277.199 233.252 277.219C233.467 277.219 233.763 277.268 234.141 277.365L233.877 279.602ZM243.428 286.311C243.981 286.324 244.469 286.164 244.893 285.832C245.322 285.493 245.596 285.054 245.713 284.514L247.9 284.504C247.829 285.201 247.575 285.835 247.139 286.408C246.709 286.981 246.156 287.427 245.479 287.746C244.801 288.065 244.095 288.215 243.359 288.195C242.454 288.182 241.683 287.948 241.045 287.492C240.407 287.036 239.941 286.408 239.648 285.607C239.355 284.8 239.258 283.902 239.355 282.912L239.385 282.57C239.495 281.548 239.792 280.624 240.273 279.797C240.762 278.964 241.39 278.322 242.158 277.873C242.926 277.424 243.779 277.212 244.717 277.238C245.863 277.264 246.777 277.645 247.461 278.381C248.145 279.11 248.486 280.061 248.486 281.232H246.318C246.318 280.627 246.169 280.132 245.869 279.748C245.576 279.364 245.15 279.159 244.59 279.133C243.685 279.107 242.972 279.491 242.451 280.285C241.93 281.079 241.65 282.199 241.611 283.645C241.566 285.396 242.171 286.285 243.428 286.311ZM255.352 288C255.273 287.74 255.241 287.411 255.254 287.014C254.382 287.827 253.441 288.221 252.432 288.195C251.514 288.182 250.752 287.889 250.146 287.316C249.548 286.737 249.268 286.005 249.307 285.119C249.359 284.006 249.84 283.13 250.752 282.492C251.663 281.854 252.887 281.535 254.424 281.535L255.928 281.555L256.064 280.832C256.104 280.578 256.104 280.34 256.064 280.119C255.934 279.416 255.469 279.055 254.668 279.035C254.173 279.022 253.737 279.149 253.359 279.416C252.988 279.676 252.76 280.028 252.676 280.471L250.361 280.49C250.407 279.839 250.638 279.27 251.055 278.781C251.471 278.286 252.025 277.902 252.715 277.629C253.405 277.355 254.134 277.225 254.902 277.238C256.055 277.264 256.953 277.613 257.598 278.283C258.242 278.947 258.509 279.81 258.398 280.871L257.588 285.822L257.51 286.701C257.49 287.085 257.539 287.46 257.656 287.824L257.646 288H255.352ZM252.969 286.301C253.457 286.314 253.91 286.203 254.326 285.969C254.743 285.728 255.098 285.419 255.391 285.041L255.752 283.039L254.648 283.029C253.776 283.029 253.079 283.195 252.559 283.527C252.038 283.853 251.742 284.302 251.67 284.875C251.618 285.311 251.712 285.656 251.953 285.91C252.201 286.158 252.539 286.288 252.969 286.301ZM262.139 288H259.824L262.432 273H264.746L262.139 288ZM269.521 288.195C268.604 288.176 267.806 287.945 267.129 287.502C266.458 287.059 265.96 286.454 265.635 285.686C265.316 284.917 265.195 284.061 265.273 283.117L265.303 282.717C265.42 281.643 265.732 280.679 266.24 279.826C266.755 278.967 267.393 278.316 268.154 277.873C268.916 277.43 269.743 277.219 270.635 277.238C271.956 277.264 272.946 277.756 273.604 278.713C274.268 279.67 274.518 280.917 274.355 282.453L274.219 283.469H267.568C267.51 284.309 267.679 284.986 268.076 285.5C268.473 286.014 269.02 286.278 269.717 286.291C270.713 286.324 271.631 285.891 272.471 284.992L273.643 286.223C273.2 286.854 272.617 287.346 271.895 287.697C271.172 288.042 270.381 288.208 269.521 288.195ZM270.508 279.133C269.284 279.094 268.366 279.96 267.754 281.73L272.139 281.74L272.178 281.535C272.223 281.236 272.227 280.943 272.188 280.656C272.116 280.194 271.934 279.829 271.641 279.562C271.348 279.296 270.97 279.152 270.508 279.133ZM279.219 277.424L278.984 278.664C279.889 277.688 280.934 277.212 282.119 277.238C283.109 277.258 283.841 277.613 284.316 278.303C284.792 278.986 284.967 279.943 284.844 281.174L283.701 288H281.387L282.539 281.145C282.572 280.865 282.575 280.604 282.549 280.363C282.464 279.589 282.002 279.191 281.162 279.172C280.283 279.159 279.512 279.592 278.848 280.471L277.529 288H275.215L277.041 277.434L279.219 277.424ZM286.65 282.707C286.781 281.62 287.074 280.643 287.529 279.777C287.985 278.911 288.548 278.267 289.219 277.844C289.889 277.414 290.635 277.209 291.455 277.229C292.529 277.255 293.369 277.655 293.975 278.43L294.99 273H297.314L294.707 288H292.637L292.793 286.906C291.973 287.798 291.009 288.231 289.902 288.205C288.919 288.192 288.132 287.814 287.539 287.072C286.953 286.324 286.637 285.331 286.592 284.094C286.572 283.69 286.582 283.296 286.621 282.912L286.65 282.707ZM288.896 283.615C288.851 284.423 288.975 285.064 289.268 285.539C289.567 286.014 290.01 286.258 290.596 286.271C291.488 286.298 292.259 285.865 292.91 284.973L293.701 280.432C293.395 279.618 292.803 279.198 291.924 279.172C291.038 279.146 290.326 279.536 289.785 280.344C289.245 281.151 288.949 282.242 288.896 283.615ZM303.477 288C303.398 287.74 303.366 287.411 303.379 287.014C302.507 287.827 301.566 288.221 300.557 288.195C299.639 288.182 298.877 287.889 298.271 287.316C297.673 286.737 297.393 286.005 297.432 285.119C297.484 284.006 297.965 283.13 298.877 282.492C299.788 281.854 301.012 281.535 302.549 281.535L304.053 281.555L304.189 280.832C304.229 280.578 304.229 280.34 304.189 280.119C304.059 279.416 303.594 279.055 302.793 279.035C302.298 279.022 301.862 279.149 301.484 279.416C301.113 279.676 300.885 280.028 300.801 280.471L298.486 280.49C298.532 279.839 298.763 279.27 299.18 278.781C299.596 278.286 300.15 277.902 300.84 277.629C301.53 277.355 302.259 277.225 303.027 277.238C304.18 277.264 305.078 277.613 305.723 278.283C306.367 278.947 306.634 279.81 306.523 280.871L305.713 285.822L305.635 286.701C305.615 287.085 305.664 287.46 305.781 287.824L305.771 288H303.477ZM301.094 286.301C301.582 286.314 302.035 286.203 302.451 285.969C302.868 285.728 303.223 285.419 303.516 285.041L303.877 283.039L302.773 283.029C301.901 283.029 301.204 283.195 300.684 283.527C300.163 283.853 299.867 284.302 299.795 284.875C299.743 285.311 299.837 285.656 300.078 285.91C300.326 286.158 300.664 286.288 301.094 286.301ZM314.717 279.602C314.417 279.536 314.115 279.504 313.809 279.504C312.793 279.478 311.986 279.898 311.387 280.764L310.117 288H307.803L309.629 277.434L311.826 277.424L311.592 278.625C312.314 277.668 313.148 277.199 314.092 277.219C314.307 277.219 314.603 277.268 314.98 277.365L314.717 279.602ZM82.8809 308.07C82.9915 307.426 82.5716 306.98 81.6211 306.732C80.6771 306.479 80.0326 306.277 79.6875 306.127C78.3464 305.554 77.6986 304.682 77.7441 303.51C77.7767 302.559 78.2064 301.775 79.0332 301.156C79.8665 300.531 80.8626 300.225 82.0215 300.238C83.1413 300.251 84.0527 300.567 84.7559 301.186C85.4655 301.804 85.8138 302.615 85.8008 303.617L83.5059 303.607C83.5189 303.119 83.3854 302.738 83.1055 302.465C82.8255 302.185 82.4414 302.038 81.9531 302.025C81.4388 302.025 80.9961 302.152 80.625 302.406C80.2604 302.66 80.0488 302.992 79.9902 303.402C79.8991 303.995 80.3158 304.408 81.2402 304.643C82.1647 304.87 82.8483 305.082 83.291 305.277C84.5801 305.844 85.2018 306.729 85.1562 307.934C85.1237 308.604 84.9023 309.19 84.4922 309.691C84.0885 310.186 83.5449 310.567 82.8613 310.834C82.1777 311.094 81.4518 311.215 80.6836 311.195C79.5312 311.182 78.5742 310.847 77.8125 310.189C77.0573 309.532 76.6862 308.689 76.6992 307.66L78.9355 307.67C78.9486 308.236 79.1178 308.666 79.4434 308.959C79.7689 309.252 80.2148 309.402 80.7812 309.408C81.3542 309.408 81.8294 309.291 82.207 309.057C82.5911 308.816 82.8158 308.487 82.8809 308.07ZM91.2891 309.311C91.8424 309.324 92.3307 309.164 92.7539 308.832C93.1836 308.493 93.457 308.054 93.5742 307.514L95.7617 307.504C95.6901 308.201 95.4362 308.835 95 309.408C94.5703 309.981 94.0169 310.427 93.3398 310.746C92.6628 311.065 91.9564 311.215 91.2207 311.195C90.3158 311.182 89.5443 310.948 88.9062 310.492C88.2682 310.036 87.8027 309.408 87.5098 308.607C87.2168 307.8 87.1191 306.902 87.2168 305.912L87.2461 305.57C87.3568 304.548 87.653 303.624 88.1348 302.797C88.623 301.964 89.2513 301.322 90.0195 300.873C90.7878 300.424 91.6406 300.212 92.5781 300.238C93.724 300.264 94.6387 300.645 95.3223 301.381C96.0059 302.11 96.3477 303.061 96.3477 304.232H94.1797C94.1797 303.627 94.0299 303.132 93.7305 302.748C93.4375 302.364 93.0111 302.159 92.4512 302.133C91.5462 302.107 90.8333 302.491 90.3125 303.285C89.7917 304.079 89.5117 305.199 89.4727 306.645C89.4271 308.396 90.0326 309.285 91.2891 309.311ZM100.752 301.596C101.631 300.671 102.63 300.222 103.75 300.248C104.753 300.261 105.495 300.616 105.977 301.312C106.465 302.009 106.647 302.973 106.523 304.203L105.391 311H103.076L104.229 304.174C104.261 303.894 104.268 303.633 104.248 303.393C104.163 302.598 103.695 302.191 102.842 302.172C101.982 302.159 101.214 302.582 100.537 303.441L99.2188 311H96.9043L99.502 296H101.826L100.752 301.596ZM112.598 311.195C111.68 311.176 110.882 310.945 110.205 310.502C109.535 310.059 109.036 309.454 108.711 308.686C108.392 307.917 108.271 307.061 108.35 306.117L108.379 305.717C108.496 304.643 108.809 303.679 109.316 302.826C109.831 301.967 110.469 301.316 111.23 300.873C111.992 300.43 112.819 300.219 113.711 300.238C115.033 300.264 116.022 300.756 116.68 301.713C117.344 302.67 117.594 303.917 117.432 305.453L117.295 306.469H110.645C110.586 307.309 110.755 307.986 111.152 308.5C111.549 309.014 112.096 309.278 112.793 309.291C113.789 309.324 114.707 308.891 115.547 307.992L116.719 309.223C116.276 309.854 115.693 310.346 114.971 310.697C114.248 311.042 113.457 311.208 112.598 311.195ZM113.584 302.133C112.36 302.094 111.442 302.96 110.83 304.73L115.215 304.74L115.254 304.535C115.299 304.236 115.303 303.943 115.264 303.656C115.192 303.194 115.01 302.829 114.717 302.562C114.424 302.296 114.046 302.152 113.584 302.133ZM118.828 305.707C118.958 304.62 119.251 303.643 119.707 302.777C120.163 301.911 120.726 301.267 121.396 300.844C122.067 300.414 122.812 300.209 123.633 300.229C124.707 300.255 125.547 300.655 126.152 301.43L127.168 296H129.492L126.885 311H124.814L124.971 309.906C124.15 310.798 123.187 311.231 122.08 311.205C121.097 311.192 120.309 310.814 119.717 310.072C119.131 309.324 118.815 308.331 118.77 307.094C118.75 306.69 118.76 306.296 118.799 305.912L118.828 305.707ZM121.074 306.615C121.029 307.423 121.152 308.064 121.445 308.539C121.745 309.014 122.188 309.258 122.773 309.271C123.665 309.298 124.437 308.865 125.088 307.973L125.879 303.432C125.573 302.618 124.98 302.198 124.102 302.172C123.216 302.146 122.503 302.536 121.963 303.344C121.423 304.151 121.126 305.242 121.074 306.615ZM135.908 309.955C135.107 310.808 134.105 311.221 132.9 311.195C132.217 311.182 131.647 311.013 131.191 310.688C130.742 310.362 130.42 309.91 130.225 309.33C130.036 308.744 129.98 308.057 130.059 307.27L131.201 300.434H133.516L132.363 307.299C132.337 307.54 132.334 307.774 132.354 308.002C132.419 308.809 132.826 309.229 133.574 309.262C134.596 309.301 135.423 308.891 136.055 308.031L137.383 300.434H139.697L137.871 311H135.703L135.908 309.955ZM142.715 311H140.4L143.008 296H145.322L142.715 311ZM150.098 311.195C149.18 311.176 148.382 310.945 147.705 310.502C147.035 310.059 146.536 309.454 146.211 308.686C145.892 307.917 145.771 307.061 145.85 306.117L145.879 305.717C145.996 304.643 146.309 303.679 146.816 302.826C147.331 301.967 147.969 301.316 148.73 300.873C149.492 300.43 150.319 300.219 151.211 300.238C152.533 300.264 153.522 300.756 154.18 301.713C154.844 302.67 155.094 303.917 154.932 305.453L154.795 306.469H148.145C148.086 307.309 148.255 307.986 148.652 308.5C149.049 309.014 149.596 309.278 150.293 309.291C151.289 309.324 152.207 308.891 153.047 307.992L154.219 309.223C153.776 309.854 153.193 310.346 152.471 310.697C151.748 311.042 150.957 311.208 150.098 311.195ZM151.084 302.133C149.86 302.094 148.942 302.96 148.33 304.73L152.715 304.74L152.754 304.535C152.799 304.236 152.803 303.943 152.764 303.656C152.692 303.194 152.51 302.829 152.217 302.562C151.924 302.296 151.546 302.152 151.084 302.133ZM164.902 307.582L168.223 300.434H170.781L164.521 312.826C163.649 314.493 162.5 315.316 161.074 315.297C160.723 315.284 160.322 315.219 159.873 315.102L160.068 313.266L160.488 313.305C161.048 313.324 161.51 313.217 161.875 312.982C162.24 312.755 162.546 312.396 162.793 311.908L163.35 310.814L161.582 300.434H163.984L164.902 307.582ZM170.713 305.678C170.824 304.643 171.126 303.702 171.621 302.855C172.122 302.009 172.764 301.355 173.545 300.893C174.326 300.43 175.192 300.212 176.143 300.238C177.048 300.251 177.829 300.492 178.486 300.961C179.144 301.43 179.622 302.071 179.922 302.885C180.228 303.699 180.335 304.604 180.244 305.6C180.14 306.719 179.834 307.709 179.326 308.568C178.825 309.428 178.18 310.089 177.393 310.551C176.611 311.007 175.742 311.221 174.785 311.195C173.887 311.182 173.109 310.945 172.451 310.482C171.8 310.014 171.322 309.376 171.016 308.568C170.71 307.755 170.599 306.859 170.684 305.883L170.713 305.678ZM172.988 307.016C173.021 307.699 173.2 308.249 173.525 308.666C173.857 309.076 174.316 309.291 174.902 309.311C175.697 309.33 176.361 309.024 176.895 308.393C177.435 307.761 177.773 306.898 177.91 305.805L177.969 304.848C177.969 304.014 177.803 303.36 177.471 302.885C177.139 302.41 176.657 302.159 176.025 302.133C175.036 302.107 174.255 302.592 173.682 303.588C173.337 304.193 173.118 304.89 173.027 305.678C172.975 306.225 172.962 306.671 172.988 307.016ZM187.842 309.955C187.041 310.808 186.038 311.221 184.834 311.195C184.15 311.182 183.581 311.013 183.125 310.688C182.676 310.362 182.354 309.91 182.158 309.33C181.969 308.744 181.914 308.057 181.992 307.27L183.135 300.434H185.449L184.297 307.299C184.271 307.54 184.268 307.774 184.287 308.002C184.352 308.809 184.759 309.229 185.508 309.262C186.53 309.301 187.357 308.891 187.988 308.031L189.316 300.434H191.631L189.805 311H187.637L187.842 309.955ZM199.102 302.602C198.802 302.536 198.499 302.504 198.193 302.504C197.178 302.478 196.37 302.898 195.771 303.764L194.502 311H192.188L194.014 300.434L196.211 300.424L195.977 301.625C196.699 300.668 197.533 300.199 198.477 300.219C198.691 300.219 198.988 300.268 199.365 300.365L199.102 302.602ZM208.018 300.424L207.783 301.664C208.688 300.688 209.733 300.212 210.918 300.238C211.908 300.258 212.64 300.613 213.115 301.303C213.59 301.986 213.766 302.943 213.643 304.174L212.5 311H210.186L211.338 304.145C211.37 303.865 211.374 303.604 211.348 303.363C211.263 302.589 210.801 302.191 209.961 302.172C209.082 302.159 208.311 302.592 207.646 303.471L206.328 311H204.014L205.84 300.434L208.018 300.424ZM215.498 305.678C215.609 304.643 215.911 303.702 216.406 302.855C216.908 302.009 217.549 301.355 218.33 300.893C219.111 300.43 219.977 300.212 220.928 300.238C221.833 300.251 222.614 300.492 223.271 300.961C223.929 301.43 224.408 302.071 224.707 302.885C225.013 303.699 225.12 304.604 225.029 305.6C224.925 306.719 224.619 307.709 224.111 308.568C223.61 309.428 222.965 310.089 222.178 310.551C221.396 311.007 220.527 311.221 219.57 311.195C218.672 311.182 217.894 310.945 217.236 310.482C216.585 310.014 216.107 309.376 215.801 308.568C215.495 307.755 215.384 306.859 215.469 305.883L215.498 305.678ZM217.773 307.016C217.806 307.699 217.985 308.249 218.311 308.666C218.643 309.076 219.102 309.291 219.688 309.311C220.482 309.33 221.146 309.024 221.68 308.393C222.22 307.761 222.559 306.898 222.695 305.805L222.754 304.848C222.754 304.014 222.588 303.36 222.256 302.885C221.924 302.41 221.442 302.159 220.811 302.133C219.821 302.107 219.04 302.592 218.467 303.588C218.122 304.193 217.904 304.89 217.812 305.678C217.76 306.225 217.747 306.671 217.773 307.016ZM231.279 297.865L230.83 300.434H232.637L232.334 302.191H230.518L229.521 308.109C229.502 308.272 229.499 308.419 229.512 308.549C229.551 308.972 229.811 309.193 230.293 309.213C230.534 309.213 230.807 309.184 231.113 309.125L230.957 310.98C230.475 311.117 229.99 311.186 229.502 311.186C228.695 311.173 228.089 310.899 227.686 310.365C227.288 309.825 227.132 309.112 227.217 308.227L228.203 302.191H226.514L226.826 300.434H228.506L228.955 297.865H231.279ZM235.117 311H232.803L234.639 300.434H236.953L235.117 311ZM234.971 297.729C234.971 297.37 235.088 297.064 235.322 296.811C235.557 296.557 235.872 296.423 236.27 296.41C236.647 296.397 236.96 296.514 237.207 296.762C237.461 297.003 237.588 297.299 237.588 297.65C237.588 298.021 237.464 298.327 237.217 298.568C236.976 298.809 236.667 298.936 236.289 298.949C235.918 298.962 235.605 298.852 235.352 298.617C235.098 298.376 234.971 298.08 234.971 297.729ZM238.33 311L239.854 302.191H238.291L238.604 300.434L240.088 300.443L240.225 299.652C240.452 298.415 240.977 297.455 241.797 296.771C242.617 296.088 243.662 295.759 244.932 295.785C245.439 295.792 245.934 295.857 246.416 295.98C246.904 296.104 247.389 296.241 247.871 296.391L247.314 298.344C246.494 298.012 245.719 297.846 244.99 297.846C243.61 297.833 242.79 298.484 242.529 299.799L242.402 300.443L244.502 300.434L244.189 302.191H242.178L240.645 311H238.33ZM246.475 311H244.15L245.986 300.434H248.301L246.475 311ZM253.711 309.311C254.264 309.324 254.753 309.164 255.176 308.832C255.605 308.493 255.879 308.054 255.996 307.514L258.184 307.504C258.112 308.201 257.858 308.835 257.422 309.408C256.992 309.981 256.439 310.427 255.762 310.746C255.085 311.065 254.378 311.215 253.643 311.195C252.738 311.182 251.966 310.948 251.328 310.492C250.69 310.036 250.225 309.408 249.932 308.607C249.639 307.8 249.541 306.902 249.639 305.912L249.668 305.57C249.779 304.548 250.075 303.624 250.557 302.797C251.045 301.964 251.673 301.322 252.441 300.873C253.21 300.424 254.062 300.212 255 300.238C256.146 300.264 257.061 300.645 257.744 301.381C258.428 302.11 258.77 303.061 258.77 304.232H256.602C256.602 303.627 256.452 303.132 256.152 302.748C255.859 302.364 255.433 302.159 254.873 302.133C253.968 302.107 253.255 302.491 252.734 303.285C252.214 304.079 251.934 305.199 251.895 306.645C251.849 308.396 252.454 309.285 253.711 309.311ZM265.635 311C265.557 310.74 265.524 310.411 265.537 310.014C264.665 310.827 263.724 311.221 262.715 311.195C261.797 311.182 261.035 310.889 260.43 310.316C259.831 309.737 259.551 309.005 259.59 308.119C259.642 307.006 260.124 306.13 261.035 305.492C261.947 304.854 263.171 304.535 264.707 304.535L266.211 304.555L266.348 303.832C266.387 303.578 266.387 303.34 266.348 303.119C266.217 302.416 265.752 302.055 264.951 302.035C264.456 302.022 264.02 302.149 263.643 302.416C263.271 302.676 263.044 303.028 262.959 303.471L260.645 303.49C260.69 302.839 260.921 302.27 261.338 301.781C261.755 301.286 262.308 300.902 262.998 300.629C263.688 300.355 264.417 300.225 265.186 300.238C266.338 300.264 267.236 300.613 267.881 301.283C268.525 301.947 268.792 302.81 268.682 303.871L267.871 308.822L267.793 309.701C267.773 310.085 267.822 310.46 267.939 310.824L267.93 311H265.635ZM263.252 309.301C263.74 309.314 264.193 309.203 264.609 308.969C265.026 308.728 265.381 308.419 265.674 308.041L266.035 306.039L264.932 306.029C264.059 306.029 263.363 306.195 262.842 306.527C262.321 306.853 262.025 307.302 261.953 307.875C261.901 308.311 261.995 308.656 262.236 308.91C262.484 309.158 262.822 309.288 263.252 309.301ZM275.146 297.865L274.697 300.434H276.504L276.201 302.191H274.385L273.389 308.109C273.369 308.272 273.366 308.419 273.379 308.549C273.418 308.972 273.678 309.193 274.16 309.213C274.401 309.213 274.674 309.184 274.98 309.125L274.824 310.98C274.342 311.117 273.857 311.186 273.369 311.186C272.562 311.173 271.956 310.899 271.553 310.365C271.156 309.825 270.999 309.112 271.084 308.227L272.07 302.191H270.381L270.693 300.434H272.373L272.822 297.865H275.146ZM278.984 311H276.67L278.506 300.434H280.82L278.984 311ZM278.838 297.729C278.838 297.37 278.955 297.064 279.189 296.811C279.424 296.557 279.74 296.423 280.137 296.41C280.514 296.397 280.827 296.514 281.074 296.762C281.328 297.003 281.455 297.299 281.455 297.65C281.455 298.021 281.331 298.327 281.084 298.568C280.843 298.809 280.534 298.936 280.156 298.949C279.785 298.962 279.473 298.852 279.219 298.617C278.965 298.376 278.838 298.08 278.838 297.729ZM282.139 305.678C282.249 304.643 282.552 303.702 283.047 302.855C283.548 302.009 284.189 301.355 284.971 300.893C285.752 300.43 286.618 300.212 287.568 300.238C288.473 300.251 289.255 300.492 289.912 300.961C290.57 301.43 291.048 302.071 291.348 302.885C291.654 303.699 291.761 304.604 291.67 305.6C291.566 306.719 291.26 307.709 290.752 308.568C290.251 309.428 289.606 310.089 288.818 310.551C288.037 311.007 287.168 311.221 286.211 311.195C285.312 311.182 284.535 310.945 283.877 310.482C283.226 310.014 282.747 309.376 282.441 308.568C282.135 307.755 282.025 306.859 282.109 305.883L282.139 305.678ZM284.414 307.016C284.447 307.699 284.626 308.249 284.951 308.666C285.283 309.076 285.742 309.291 286.328 309.311C287.122 309.33 287.786 309.024 288.32 308.393C288.861 307.761 289.199 306.898 289.336 305.805L289.395 304.848C289.395 304.014 289.229 303.36 288.896 302.885C288.564 302.41 288.083 302.159 287.451 302.133C286.462 302.107 285.68 302.592 285.107 303.588C284.762 304.193 284.544 304.89 284.453 305.678C284.401 306.225 284.388 306.671 284.414 307.016ZM296.709 300.424L296.475 301.664C297.38 300.688 298.424 300.212 299.609 300.238C300.599 300.258 301.331 300.613 301.807 301.303C302.282 301.986 302.458 302.943 302.334 304.174L301.191 311H298.877L300.029 304.145C300.062 303.865 300.065 303.604 300.039 303.363C299.954 302.589 299.492 302.191 298.652 302.172C297.773 302.159 297.002 302.592 296.338 303.471L295.02 311H292.705L294.531 300.434L296.709 300.424ZM309.951 308.07C310.062 307.426 309.642 306.98 308.691 306.732C307.747 306.479 307.103 306.277 306.758 306.127C305.417 305.554 304.769 304.682 304.814 303.51C304.847 302.559 305.277 301.775 306.104 301.156C306.937 300.531 307.933 300.225 309.092 300.238C310.212 300.251 311.123 300.567 311.826 301.186C312.536 301.804 312.884 302.615 312.871 303.617L310.576 303.607C310.589 303.119 310.456 302.738 310.176 302.465C309.896 302.185 309.512 302.038 309.023 302.025C308.509 302.025 308.066 302.152 307.695 302.406C307.331 302.66 307.119 302.992 307.061 303.402C306.969 303.995 307.386 304.408 308.311 304.643C309.235 304.87 309.919 305.082 310.361 305.277C311.65 305.844 312.272 306.729 312.227 307.934C312.194 308.604 311.973 309.19 311.562 309.691C311.159 310.186 310.615 310.567 309.932 310.834C309.248 311.094 308.522 311.215 307.754 311.195C306.602 311.182 305.645 310.847 304.883 310.189C304.128 309.532 303.757 308.689 303.77 307.66L306.006 307.67C306.019 308.236 306.188 308.666 306.514 308.959C306.839 309.252 307.285 309.402 307.852 309.408C308.424 309.408 308.9 309.291 309.277 309.057C309.661 308.816 309.886 308.487 309.951 308.07Z" fill="#0F1C26"/>
<circle cx="173.001" cy="527" r="7" fill="#D3DDE7"/>
<circle cx="195.001" cy="527" r="7" fill="#0043EF"/>
<circle cx="217.001" cy="527" r="7" fill="#D3DDE7"/>
<rect x="135.001" y="560" width="135" height="46" fill="#D3DDE7"/>
<path d="M190.858 585.27C190.858 584.716 190.663 584.293 190.272 584C189.882 583.701 189.179 583.388 188.163 583.062C187.147 582.73 186.343 582.405 185.751 582.086C184.136 581.214 183.329 580.038 183.329 578.561C183.329 577.792 183.544 577.109 183.974 576.51C184.41 575.904 185.032 575.432 185.839 575.094C186.653 574.755 187.564 574.586 188.573 574.586C189.589 574.586 190.494 574.771 191.288 575.143C192.082 575.507 192.698 576.025 193.134 576.695C193.576 577.366 193.798 578.128 193.798 578.98H190.868C190.868 578.329 190.663 577.825 190.253 577.467C189.843 577.102 189.267 576.92 188.524 576.92C187.808 576.92 187.252 577.073 186.854 577.379C186.457 577.678 186.259 578.076 186.259 578.57C186.259 579.033 186.49 579.42 186.952 579.732C187.421 580.045 188.108 580.338 189.013 580.611C190.679 581.113 191.893 581.734 192.655 582.477C193.417 583.219 193.798 584.143 193.798 585.25C193.798 586.48 193.332 587.447 192.401 588.15C191.47 588.847 190.217 589.195 188.642 589.195C187.548 589.195 186.552 588.997 185.653 588.6C184.755 588.196 184.068 587.646 183.593 586.949C183.124 586.253 182.89 585.445 182.89 584.527H185.829C185.829 586.096 186.767 586.881 188.642 586.881C189.338 586.881 189.882 586.741 190.272 586.461C190.663 586.174 190.858 585.777 190.858 585.27ZM199.442 584.762L198.427 585.777V589H195.604V574H198.427V582.311L198.974 581.607L201.679 578.434H205.067L201.249 582.838L205.399 589H202.157L199.442 584.762ZM209.267 589H206.435V578.434H209.267V589ZM206.268 575.699C206.268 575.276 206.408 574.928 206.688 574.654C206.975 574.381 207.362 574.244 207.851 574.244C208.332 574.244 208.716 574.381 209.003 574.654C209.289 574.928 209.433 575.276 209.433 575.699C209.433 576.129 209.286 576.48 208.993 576.754C208.707 577.027 208.326 577.164 207.851 577.164C207.375 577.164 206.991 577.027 206.698 576.754C206.412 576.48 206.268 576.129 206.268 575.699ZM221.112 583.814C221.112 585.442 220.741 586.747 219.999 587.73C219.263 588.707 218.267 589.195 217.011 589.195C215.943 589.195 215.08 588.824 214.423 588.082V593.062H211.601V578.434H214.218L214.315 579.469C214.999 578.648 215.891 578.238 216.991 578.238C218.293 578.238 219.306 578.72 220.028 579.684C220.751 580.647 221.112 581.975 221.112 583.668V583.814ZM218.29 583.609C218.29 582.626 218.114 581.868 217.763 581.334C217.418 580.8 216.913 580.533 216.249 580.533C215.364 580.533 214.755 580.872 214.423 581.549V585.875C214.768 586.572 215.383 586.92 216.268 586.92C217.616 586.92 218.29 585.816 218.29 583.609Z" fill="#0F1C26"/>
</g>
<rect opacity="0.4" x="165.215" y="34.0684" width="67.2161" height="6.25266" rx="1.73696" fill="#D3DDE7"/>
<rect opacity="0.5" x="243.373" y="30.1611" width="14.0685" height="14.0685" rx="4.77664" fill="#E7EDF3"/>
<rect opacity="0.5" x="246.499" y="33.2881" width="7.81582" height="7.81582" rx="3.90791" fill="white"/>
<rect opacity="0.5" x="127.699" y="34.0684" width="6.25266" height="6.25266" rx="1.73696" fill="#D3DDE7"/>
</g>
<defs>
<filter id="filter0_d" x="0" y="0" width="391" height="722.781" filterUnits="userSpaceOnUse" color-interpolation-filters="sRGB">
<feFlood flood-opacity="0" result="BackgroundImageFix"/>
<feColorMatrix in="SourceAlpha" type="matrix" values="0 0 0 0 0 0 0 0 0 0 0 0 0 0 0 0 0 0 127 0" result="hardAlpha"/>
<feOffset dy="10"/>
<feGaussianBlur stdDeviation="15"/>
<feColorMatrix type="matrix" values="0 0 0 0 0.0207639 0 0 0 0 0.0756167 0 0 0 0 0.216667 0 0 0 0.1 0"/>
<feBlend mode="normal" in2="BackgroundImageFix" result="effect1_dropShadow"/>
<feBlend mode="normal" in="SourceGraphic" in2="effect1_dropShadow" result="shape"/>
</filter>
</defs>
</svg>
