<svg width="391" height="723" viewBox="0 0 391 723" fill="none" xmlns="http://www.w3.org/2000/svg">
<g filter="url(#filter0_d)">
<path d="M33.9079 41.712C33.9079 29.7208 43.6287 20 55.6199 20L334.989 20C346.98 20 356.701 29.7208 356.701 41.712V166.547C359.075 166.547 361 168.471 361 170.845V223.993C361 226.367 359.075 228.292 356.701 228.292V661.069C356.701 673.061 346.98 682.781 334.989 682.781H55.6199C43.6287 682.781 33.9079 673.061 33.9079 661.07L33.9079 256.038H31.737C30.7777 256.038 30 255.26 30 254.301V205.409C30 204.449 30.7777 203.672 31.737 203.672H33.9079V193.902H31.737C30.7777 193.902 30 193.124 30 192.165L30 141.71C30 140.75 30.7777 139.973 31.737 139.973H33.9079V41.712Z" fill="white"/>
<path d="M109.725 34.0684H73.772C59.959 34.0684 48.7614 45.266 48.7614 59.079L48.7614 643.702C48.7614 657.515 59.959 668.713 73.772 668.713H316.844C330.657 668.713 341.855 657.515 341.855 643.702V59.079C341.855 45.266 330.657 34.0684 316.844 34.0684L281.673 34.0684V37.9763C281.673 46.6094 274.674 53.6079 266.041 53.6079H125.356C116.723 53.6079 109.725 46.6094 109.725 37.9763V34.0684Z" fill="#E7EDF3"/>
<mask id="mask0" mask-type="alpha" maskUnits="userSpaceOnUse" x="48" y="33" width="294" height="636">
<path d="M109.73 33.6494H73.7772C59.9642 33.6494 48.7665 44.8471 48.7665 58.66L48.7665 643.283C48.7665 657.096 59.9642 668.294 73.7772 668.294H316.849C330.662 668.294 341.86 657.096 341.86 643.283V58.66C341.86 44.8471 330.662 33.6494 316.849 33.6494L281.678 33.6494V37.5573C281.678 46.1904 274.679 53.189 266.046 53.189H125.362C116.728 53.189 109.73 46.1904 109.73 37.5573V33.6494Z" fill="#E7EDF3"/>
</mask>
<g mask="url(#mask0)">
<rect x="29.0009" y="33" width="332" height="445" fill="#D3DDE7"/>
<path d="M112.435 283.361C112.194 284.846 111.526 286.031 110.433 286.916C109.339 287.795 108.007 288.221 106.438 288.195C105.533 288.176 104.739 287.961 104.056 287.551C103.379 287.141 102.848 286.545 102.464 285.764C102.08 284.976 101.865 284.087 101.819 283.098C101.78 282.355 101.871 281.346 102.093 280.07C102.314 278.788 102.737 277.639 103.362 276.623C103.994 275.607 104.765 274.842 105.677 274.328C106.595 273.814 107.614 273.566 108.733 273.586C110.146 273.612 111.263 274.058 112.083 274.924C112.91 275.783 113.349 276.971 113.401 278.488H111.009C110.976 277.473 110.761 276.74 110.364 276.291C109.974 275.835 109.391 275.598 108.616 275.578C107.555 275.546 106.666 275.926 105.95 276.721C105.234 277.515 104.752 278.671 104.505 280.188L104.31 281.486L104.222 282.482C104.17 283.153 104.215 283.785 104.358 284.377C104.508 284.963 104.768 285.412 105.14 285.725C105.511 286.031 105.983 286.193 106.556 286.213C108.372 286.285 109.537 285.34 110.052 283.381L112.435 283.361ZM114.261 282.678C114.371 281.643 114.674 280.702 115.169 279.855C115.67 279.009 116.311 278.355 117.093 277.893C117.874 277.43 118.74 277.212 119.69 277.238C120.595 277.251 121.377 277.492 122.034 277.961C122.692 278.43 123.17 279.071 123.47 279.885C123.776 280.699 123.883 281.604 123.792 282.6C123.688 283.719 123.382 284.709 122.874 285.568C122.373 286.428 121.728 287.089 120.94 287.551C120.159 288.007 119.29 288.221 118.333 288.195C117.435 288.182 116.657 287.945 115.999 287.482C115.348 287.014 114.869 286.376 114.563 285.568C114.257 284.755 114.147 283.859 114.231 282.883L114.261 282.678ZM116.536 284.016C116.569 284.699 116.748 285.249 117.073 285.666C117.405 286.076 117.864 286.291 118.45 286.311C119.244 286.33 119.908 286.024 120.442 285.393C120.983 284.761 121.321 283.898 121.458 282.805L121.517 281.848C121.517 281.014 121.351 280.36 121.018 279.885C120.686 279.41 120.205 279.159 119.573 279.133C118.584 279.107 117.802 279.592 117.229 280.588C116.884 281.193 116.666 281.89 116.575 282.678C116.523 283.225 116.51 283.671 116.536 284.016ZM128.831 277.424L128.597 278.664C129.502 277.688 130.546 277.212 131.731 277.238C132.721 277.258 133.453 277.613 133.929 278.303C134.404 278.986 134.58 279.943 134.456 281.174L133.313 288H130.999L132.151 281.145C132.184 280.865 132.187 280.604 132.161 280.363C132.076 279.589 131.614 279.191 130.774 279.172C129.895 279.159 129.124 279.592 128.46 280.471L127.142 288H124.827L126.653 277.434L128.831 277.424ZM140.94 274.865L140.491 277.434H142.298L141.995 279.191H140.179L139.183 285.109C139.163 285.272 139.16 285.419 139.173 285.549C139.212 285.972 139.472 286.193 139.954 286.213C140.195 286.213 140.468 286.184 140.774 286.125L140.618 287.98C140.136 288.117 139.651 288.186 139.163 288.186C138.356 288.173 137.75 287.899 137.347 287.365C136.949 286.825 136.793 286.112 136.878 285.227L137.864 279.191H136.175L136.487 277.434H138.167L138.616 274.865H140.94ZM149.231 279.602C148.932 279.536 148.629 279.504 148.323 279.504C147.308 279.478 146.5 279.898 145.901 280.764L144.632 288H142.317L144.143 277.434L146.341 277.424L146.106 278.625C146.829 277.668 147.662 277.199 148.606 277.219C148.821 277.219 149.117 277.268 149.495 277.365L149.231 279.602ZM155.218 288C155.14 287.74 155.107 287.411 155.12 287.014C154.248 287.827 153.307 288.221 152.298 288.195C151.38 288.182 150.618 287.889 150.013 287.316C149.414 286.737 149.134 286.005 149.173 285.119C149.225 284.006 149.707 283.13 150.618 282.492C151.53 281.854 152.754 281.535 154.29 281.535L155.794 281.555L155.931 280.832C155.97 280.578 155.97 280.34 155.931 280.119C155.8 279.416 155.335 279.055 154.534 279.035C154.039 279.022 153.603 279.149 153.226 279.416C152.854 279.676 152.627 280.028 152.542 280.471L150.227 280.49C150.273 279.839 150.504 279.27 150.921 278.781C151.338 278.286 151.891 277.902 152.581 277.629C153.271 277.355 154 277.225 154.768 277.238C155.921 277.264 156.819 277.613 157.464 278.283C158.108 278.947 158.375 279.81 158.265 280.871L157.454 285.822L157.376 286.701C157.356 287.085 157.405 287.46 157.522 287.824L157.513 288H155.218ZM152.835 286.301C153.323 286.314 153.776 286.203 154.192 285.969C154.609 285.728 154.964 285.419 155.257 285.041L155.618 283.039L154.515 283.029C153.642 283.029 152.946 283.195 152.425 283.527C151.904 283.853 151.608 284.302 151.536 284.875C151.484 285.311 151.578 285.656 151.819 285.91C152.067 286.158 152.405 286.288 152.835 286.301ZM165.862 285.07C165.973 284.426 165.553 283.98 164.602 283.732C163.658 283.479 163.014 283.277 162.669 283.127C161.328 282.554 160.68 281.682 160.726 280.51C160.758 279.559 161.188 278.775 162.015 278.156C162.848 277.531 163.844 277.225 165.003 277.238C166.123 277.251 167.034 277.567 167.737 278.186C168.447 278.804 168.795 279.615 168.782 280.617L166.487 280.607C166.5 280.119 166.367 279.738 166.087 279.465C165.807 279.185 165.423 279.038 164.935 279.025C164.42 279.025 163.977 279.152 163.606 279.406C163.242 279.66 163.03 279.992 162.972 280.402C162.88 280.995 163.297 281.408 164.222 281.643C165.146 281.87 165.83 282.082 166.272 282.277C167.561 282.844 168.183 283.729 168.138 284.934C168.105 285.604 167.884 286.19 167.474 286.691C167.07 287.186 166.526 287.567 165.843 287.834C165.159 288.094 164.433 288.215 163.665 288.195C162.513 288.182 161.556 287.847 160.794 287.189C160.039 286.532 159.668 285.689 159.681 284.66L161.917 284.67C161.93 285.236 162.099 285.666 162.425 285.959C162.75 286.252 163.196 286.402 163.763 286.408C164.336 286.408 164.811 286.291 165.188 286.057C165.573 285.816 165.797 285.487 165.862 285.07ZM174.847 274.865L174.397 277.434H176.204L175.901 279.191H174.085L173.089 285.109C173.069 285.272 173.066 285.419 173.079 285.549C173.118 285.972 173.379 286.193 173.86 286.213C174.101 286.213 174.375 286.184 174.681 286.125L174.524 287.98C174.043 288.117 173.558 288.186 173.069 288.186C172.262 288.173 171.657 287.899 171.253 287.365C170.856 286.825 170.699 286.112 170.784 285.227L171.77 279.191H170.081L170.393 277.434H172.073L172.522 274.865H174.847ZM186.351 274.865L185.901 277.434H187.708L187.405 279.191H185.589L184.593 285.109C184.573 285.272 184.57 285.419 184.583 285.549C184.622 285.972 184.882 286.193 185.364 286.213C185.605 286.213 185.879 286.184 186.185 286.125L186.028 287.98C185.546 288.117 185.061 288.186 184.573 288.186C183.766 288.173 183.16 287.899 182.757 287.365C182.36 286.825 182.203 286.112 182.288 285.227L183.274 279.191H181.585L181.897 277.434H183.577L184.026 274.865H186.351ZM191.546 278.596C192.425 277.671 193.424 277.222 194.544 277.248C195.546 277.261 196.289 277.616 196.77 278.312C197.259 279.009 197.441 279.973 197.317 281.203L196.185 288H193.87L195.022 281.174C195.055 280.894 195.061 280.633 195.042 280.393C194.957 279.598 194.489 279.191 193.636 279.172C192.776 279.159 192.008 279.582 191.331 280.441L190.013 288H187.698L190.296 273H192.62L191.546 278.596ZM203.392 288.195C202.474 288.176 201.676 287.945 200.999 287.502C200.328 287.059 199.83 286.454 199.505 285.686C199.186 284.917 199.065 284.061 199.143 283.117L199.173 282.717C199.29 281.643 199.602 280.679 200.11 279.826C200.625 278.967 201.263 278.316 202.024 277.873C202.786 277.43 203.613 277.219 204.505 277.238C205.826 277.264 206.816 277.756 207.474 278.713C208.138 279.67 208.388 280.917 208.226 282.453L208.089 283.469H201.438C201.38 284.309 201.549 284.986 201.946 285.5C202.343 286.014 202.89 286.278 203.587 286.291C204.583 286.324 205.501 285.891 206.341 284.992L207.513 286.223C207.07 286.854 206.487 287.346 205.765 287.697C205.042 288.042 204.251 288.208 203.392 288.195ZM204.378 279.133C203.154 279.094 202.236 279.96 201.624 281.73L206.009 281.74L206.048 281.535C206.093 281.236 206.097 280.943 206.058 280.656C205.986 280.194 205.804 279.829 205.511 279.562C205.218 279.296 204.84 279.152 204.378 279.133ZM214.563 282.707C214.694 281.62 214.987 280.643 215.442 279.777C215.898 278.911 216.461 278.267 217.132 277.844C217.802 277.414 218.548 277.209 219.368 277.229C220.442 277.255 221.282 277.655 221.888 278.43L222.903 273H225.227L222.62 288H220.55L220.706 286.906C219.886 287.798 218.922 288.231 217.815 288.205C216.832 288.192 216.045 287.814 215.452 287.072C214.866 286.324 214.55 285.331 214.505 284.094C214.485 283.69 214.495 283.296 214.534 282.912L214.563 282.707ZM216.81 283.615C216.764 284.423 216.888 285.064 217.181 285.539C217.48 286.014 217.923 286.258 218.509 286.271C219.401 286.298 220.172 285.865 220.823 284.973L221.614 280.432C221.308 279.618 220.716 279.198 219.837 279.172C218.951 279.146 218.239 279.536 217.698 280.344C217.158 281.151 216.862 282.242 216.81 283.615ZM231.39 288C231.311 287.74 231.279 287.411 231.292 287.014C230.42 287.827 229.479 288.221 228.47 288.195C227.552 288.182 226.79 287.889 226.185 287.316C225.586 286.737 225.306 286.005 225.345 285.119C225.397 284.006 225.879 283.13 226.79 282.492C227.701 281.854 228.925 281.535 230.462 281.535L231.966 281.555L232.102 280.832C232.142 280.578 232.142 280.34 232.102 280.119C231.972 279.416 231.507 279.055 230.706 279.035C230.211 279.022 229.775 279.149 229.397 279.416C229.026 279.676 228.798 280.028 228.714 280.471L226.399 280.49C226.445 279.839 226.676 279.27 227.093 278.781C227.509 278.286 228.063 277.902 228.753 277.629C229.443 277.355 230.172 277.225 230.94 277.238C232.093 277.264 232.991 277.613 233.636 278.283C234.28 278.947 234.547 279.81 234.436 280.871L233.626 285.822L233.548 286.701C233.528 287.085 233.577 287.46 233.694 287.824L233.685 288H231.39ZM229.007 286.301C229.495 286.314 229.948 286.203 230.364 285.969C230.781 285.728 231.136 285.419 231.429 285.041L231.79 283.039L230.686 283.029C229.814 283.029 229.117 283.195 228.597 283.527C228.076 283.853 227.78 284.302 227.708 284.875C227.656 285.311 227.75 285.656 227.991 285.91C228.239 286.158 228.577 286.288 229.007 286.301ZM240.901 274.865L240.452 277.434H242.259L241.956 279.191H240.14L239.143 285.109C239.124 285.272 239.121 285.419 239.134 285.549C239.173 285.972 239.433 286.193 239.915 286.213C240.156 286.213 240.429 286.184 240.735 286.125L240.579 287.98C240.097 288.117 239.612 288.186 239.124 288.186C238.317 288.173 237.711 287.899 237.308 287.365C236.91 286.825 236.754 286.112 236.839 285.227L237.825 279.191H236.136L236.448 277.434H238.128L238.577 274.865H240.901ZM248.558 288C248.479 287.74 248.447 287.411 248.46 287.014C247.588 287.827 246.647 288.221 245.638 288.195C244.72 288.182 243.958 287.889 243.352 287.316C242.754 286.737 242.474 286.005 242.513 285.119C242.565 284.006 243.046 283.13 243.958 282.492C244.869 281.854 246.093 281.535 247.63 281.535L249.134 281.555L249.27 280.832C249.31 280.578 249.31 280.34 249.27 280.119C249.14 279.416 248.675 279.055 247.874 279.035C247.379 279.022 246.943 279.149 246.565 279.416C246.194 279.676 245.966 280.028 245.882 280.471L243.567 280.49C243.613 279.839 243.844 279.27 244.261 278.781C244.677 278.286 245.231 277.902 245.921 277.629C246.611 277.355 247.34 277.225 248.108 277.238C249.261 277.264 250.159 277.613 250.804 278.283C251.448 278.947 251.715 279.81 251.604 280.871L250.794 285.822L250.716 286.701C250.696 287.085 250.745 287.46 250.862 287.824L250.852 288H248.558ZM246.175 286.301C246.663 286.314 247.115 286.203 247.532 285.969C247.949 285.728 248.304 285.419 248.597 285.041L248.958 283.039L247.854 283.029C246.982 283.029 246.285 283.195 245.765 283.527C245.244 283.853 244.948 284.302 244.876 284.875C244.824 285.311 244.918 285.656 245.159 285.91C245.407 286.158 245.745 286.288 246.175 286.301ZM264.104 288C264.026 287.74 263.994 287.411 264.007 287.014C263.134 287.827 262.194 288.221 261.185 288.195C260.267 288.182 259.505 287.889 258.899 287.316C258.3 286.737 258.02 286.005 258.06 285.119C258.112 284.006 258.593 283.13 259.505 282.492C260.416 281.854 261.64 281.535 263.177 281.535L264.681 281.555L264.817 280.832C264.856 280.578 264.856 280.34 264.817 280.119C264.687 279.416 264.222 279.055 263.421 279.035C262.926 279.022 262.49 279.149 262.112 279.416C261.741 279.676 261.513 280.028 261.429 280.471L259.114 280.49C259.16 279.839 259.391 279.27 259.808 278.781C260.224 278.286 260.778 277.902 261.468 277.629C262.158 277.355 262.887 277.225 263.655 277.238C264.808 277.264 265.706 277.613 266.351 278.283C266.995 278.947 267.262 279.81 267.151 280.871L266.341 285.822L266.263 286.701C266.243 287.085 266.292 287.46 266.409 287.824L266.399 288H264.104ZM261.722 286.301C262.21 286.314 262.662 286.203 263.079 285.969C263.496 285.728 263.851 285.419 264.143 285.041L264.505 283.039L263.401 283.029C262.529 283.029 261.832 283.195 261.311 283.527C260.791 283.853 260.494 284.302 260.423 284.875C260.371 285.311 260.465 285.656 260.706 285.91C260.953 286.158 261.292 286.288 261.722 286.301ZM272.405 277.424L272.171 278.664C273.076 277.688 274.121 277.212 275.306 277.238C276.295 277.258 277.028 277.613 277.503 278.303C277.978 278.986 278.154 279.943 278.03 281.174L276.888 288H274.573L275.726 281.145C275.758 280.865 275.761 280.604 275.735 280.363C275.651 279.589 275.188 279.191 274.349 279.172C273.47 279.159 272.698 279.592 272.034 280.471L270.716 288H268.401L270.227 277.434L272.405 277.424ZM279.837 282.707C279.967 281.62 280.26 280.643 280.716 279.777C281.171 278.911 281.735 278.267 282.405 277.844C283.076 277.414 283.821 277.209 284.642 277.229C285.716 277.255 286.556 277.655 287.161 278.43L288.177 273H290.501L287.893 288H285.823L285.979 286.906C285.159 287.798 284.196 288.231 283.089 288.205C282.106 288.192 281.318 287.814 280.726 287.072C280.14 286.324 279.824 285.331 279.778 284.094C279.759 283.69 279.768 283.296 279.808 282.912L279.837 282.707ZM282.083 283.615C282.037 284.423 282.161 285.064 282.454 285.539C282.754 286.014 283.196 286.258 283.782 286.271C284.674 286.298 285.446 285.865 286.097 284.973L286.888 280.432C286.582 279.618 285.989 279.198 285.11 279.172C284.225 279.146 283.512 279.536 282.972 280.344C282.431 281.151 282.135 282.242 282.083 283.615ZM111.409 311C111.331 310.74 111.298 310.411 111.311 310.014C110.439 310.827 109.498 311.221 108.489 311.195C107.571 311.182 106.81 310.889 106.204 310.316C105.605 309.737 105.325 309.005 105.364 308.119C105.416 307.006 105.898 306.13 106.81 305.492C107.721 304.854 108.945 304.535 110.481 304.535L111.985 304.555L112.122 303.832C112.161 303.578 112.161 303.34 112.122 303.119C111.992 302.416 111.526 302.055 110.726 302.035C110.231 302.022 109.795 302.149 109.417 302.416C109.046 302.676 108.818 303.028 108.733 303.471L106.419 303.49C106.464 302.839 106.696 302.27 107.112 301.781C107.529 301.286 108.082 300.902 108.772 300.629C109.463 300.355 110.192 300.225 110.96 300.238C112.112 300.264 113.011 300.613 113.655 301.283C114.3 301.947 114.567 302.81 114.456 303.871L113.645 308.822L113.567 309.701C113.548 310.085 113.597 310.46 113.714 310.824L113.704 311H111.409ZM109.026 309.301C109.515 309.314 109.967 309.203 110.384 308.969C110.8 308.728 111.155 308.419 111.448 308.041L111.81 306.039L110.706 306.029C109.834 306.029 109.137 306.195 108.616 306.527C108.095 306.853 107.799 307.302 107.727 307.875C107.675 308.311 107.77 308.656 108.011 308.91C108.258 309.158 108.597 309.288 109.026 309.301ZM120.345 309.311C120.898 309.324 121.386 309.164 121.81 308.832C122.239 308.493 122.513 308.054 122.63 307.514L124.817 307.504C124.746 308.201 124.492 308.835 124.056 309.408C123.626 309.981 123.073 310.427 122.395 310.746C121.718 311.065 121.012 311.215 120.276 311.195C119.371 311.182 118.6 310.948 117.962 310.492C117.324 310.036 116.858 309.408 116.565 308.607C116.272 307.8 116.175 306.902 116.272 305.912L116.302 305.57C116.412 304.548 116.709 303.624 117.19 302.797C117.679 301.964 118.307 301.322 119.075 300.873C119.843 300.424 120.696 300.212 121.634 300.238C122.78 300.264 123.694 300.645 124.378 301.381C125.061 302.11 125.403 303.061 125.403 304.232H123.235C123.235 303.627 123.086 303.132 122.786 302.748C122.493 302.364 122.067 302.159 121.507 302.133C120.602 302.107 119.889 302.491 119.368 303.285C118.847 304.079 118.567 305.199 118.528 306.645C118.483 308.396 119.088 309.285 120.345 309.311ZM130.599 309.311C131.152 309.324 131.64 309.164 132.063 308.832C132.493 308.493 132.767 308.054 132.884 307.514L135.071 307.504C135 308.201 134.746 308.835 134.31 309.408C133.88 309.981 133.326 310.427 132.649 310.746C131.972 311.065 131.266 311.215 130.53 311.195C129.625 311.182 128.854 310.948 128.216 310.492C127.578 310.036 127.112 309.408 126.819 308.607C126.526 307.8 126.429 306.902 126.526 305.912L126.556 305.57C126.666 304.548 126.963 303.624 127.444 302.797C127.933 301.964 128.561 301.322 129.329 300.873C130.097 300.424 130.95 300.212 131.888 300.238C133.033 300.264 133.948 300.645 134.632 301.381C135.315 302.11 135.657 303.061 135.657 304.232H133.489C133.489 303.627 133.339 303.132 133.04 302.748C132.747 302.364 132.321 302.159 131.761 302.133C130.856 302.107 130.143 302.491 129.622 303.285C129.101 304.079 128.821 305.199 128.782 306.645C128.737 308.396 129.342 309.285 130.599 309.311ZM141.028 311.195C140.11 311.176 139.313 310.945 138.636 310.502C137.965 310.059 137.467 309.454 137.142 308.686C136.823 307.917 136.702 307.061 136.78 306.117L136.81 305.717C136.927 304.643 137.239 303.679 137.747 302.826C138.261 301.967 138.899 301.316 139.661 300.873C140.423 300.43 141.25 300.219 142.142 300.238C143.463 300.264 144.453 300.756 145.11 301.713C145.774 302.67 146.025 303.917 145.862 305.453L145.726 306.469H139.075C139.017 307.309 139.186 307.986 139.583 308.5C139.98 309.014 140.527 309.278 141.224 309.291C142.22 309.324 143.138 308.891 143.977 307.992L145.149 309.223C144.707 309.854 144.124 310.346 143.401 310.697C142.679 311.042 141.888 311.208 141.028 311.195ZM142.015 302.133C140.791 302.094 139.873 302.96 139.261 304.73L143.645 304.74L143.685 304.535C143.73 304.236 143.733 303.943 143.694 303.656C143.623 303.194 143.44 302.829 143.147 302.562C142.854 302.296 142.477 302.152 142.015 302.133ZM153.069 308.07C153.18 307.426 152.76 306.98 151.81 306.732C150.865 306.479 150.221 306.277 149.876 306.127C148.535 305.554 147.887 304.682 147.933 303.51C147.965 302.559 148.395 301.775 149.222 301.156C150.055 300.531 151.051 300.225 152.21 300.238C153.33 300.251 154.241 300.567 154.944 301.186C155.654 301.804 156.002 302.615 155.989 303.617L153.694 303.607C153.707 303.119 153.574 302.738 153.294 302.465C153.014 302.185 152.63 302.038 152.142 302.025C151.627 302.025 151.185 302.152 150.813 302.406C150.449 302.66 150.237 302.992 150.179 303.402C150.088 303.995 150.504 304.408 151.429 304.643C152.353 304.87 153.037 305.082 153.479 305.277C154.768 305.844 155.39 306.729 155.345 307.934C155.312 308.604 155.091 309.19 154.681 309.691C154.277 310.186 153.733 310.567 153.05 310.834C152.366 311.094 151.64 311.215 150.872 311.195C149.72 311.182 148.763 310.847 148.001 310.189C147.246 309.532 146.875 308.689 146.888 307.66L149.124 307.67C149.137 308.236 149.306 308.666 149.632 308.959C149.957 309.252 150.403 309.402 150.97 309.408C151.543 309.408 152.018 309.291 152.395 309.057C152.78 308.816 153.004 308.487 153.069 308.07ZM163.186 308.07C163.297 307.426 162.877 306.98 161.927 306.732C160.983 306.479 160.338 306.277 159.993 306.127C158.652 305.554 158.004 304.682 158.05 303.51C158.082 302.559 158.512 301.775 159.339 301.156C160.172 300.531 161.168 300.225 162.327 300.238C163.447 300.251 164.358 300.567 165.061 301.186C165.771 301.804 166.119 302.615 166.106 303.617L163.811 303.607C163.824 303.119 163.691 302.738 163.411 302.465C163.131 302.185 162.747 302.038 162.259 302.025C161.744 302.025 161.302 302.152 160.931 302.406C160.566 302.66 160.354 302.992 160.296 303.402C160.205 303.995 160.621 304.408 161.546 304.643C162.47 304.87 163.154 305.082 163.597 305.277C164.886 305.844 165.507 306.729 165.462 307.934C165.429 308.604 165.208 309.19 164.798 309.691C164.394 310.186 163.851 310.567 163.167 310.834C162.483 311.094 161.757 311.215 160.989 311.195C159.837 311.182 158.88 310.847 158.118 310.189C157.363 309.532 156.992 308.689 157.005 307.66L159.241 307.67C159.254 308.236 159.423 308.666 159.749 308.959C160.074 309.252 160.52 309.402 161.087 309.408C161.66 309.408 162.135 309.291 162.513 309.057C162.897 308.816 163.121 308.487 163.186 308.07ZM177.112 297.865L176.663 300.434H178.47L178.167 302.191H176.351L175.354 308.109C175.335 308.272 175.332 308.419 175.345 308.549C175.384 308.972 175.644 309.193 176.126 309.213C176.367 309.213 176.64 309.184 176.946 309.125L176.79 310.98C176.308 311.117 175.823 311.186 175.335 311.186C174.528 311.173 173.922 310.899 173.518 310.365C173.121 309.825 172.965 309.112 173.05 308.227L174.036 302.191H172.347L172.659 300.434H174.339L174.788 297.865H177.112ZM182.308 301.596C183.186 300.671 184.186 300.222 185.306 300.248C186.308 300.261 187.05 300.616 187.532 301.312C188.02 302.009 188.203 302.973 188.079 304.203L186.946 311H184.632L185.784 304.174C185.817 303.894 185.823 303.633 185.804 303.393C185.719 302.598 185.25 302.191 184.397 302.172C183.538 302.159 182.77 302.582 182.093 303.441L180.774 311H178.46L181.058 296H183.382L182.308 301.596ZM194.153 311.195C193.235 311.176 192.438 310.945 191.761 310.502C191.09 310.059 190.592 309.454 190.267 308.686C189.948 307.917 189.827 307.061 189.905 306.117L189.935 305.717C190.052 304.643 190.364 303.679 190.872 302.826C191.386 301.967 192.024 301.316 192.786 300.873C193.548 300.43 194.375 300.219 195.267 300.238C196.588 300.264 197.578 300.756 198.235 301.713C198.899 302.67 199.15 303.917 198.987 305.453L198.851 306.469H192.2C192.142 307.309 192.311 307.986 192.708 308.5C193.105 309.014 193.652 309.278 194.349 309.291C195.345 309.324 196.263 308.891 197.102 307.992L198.274 309.223C197.832 309.854 197.249 310.346 196.526 310.697C195.804 311.042 195.013 311.208 194.153 311.195ZM195.14 302.133C193.916 302.094 192.998 302.96 192.386 304.73L196.77 304.74L196.81 304.535C196.855 304.236 196.858 303.943 196.819 303.656C196.748 303.194 196.565 302.829 196.272 302.562C195.979 302.296 195.602 302.152 195.14 302.133ZM208.636 301.596C209.515 300.671 210.514 300.222 211.634 300.248C212.636 300.261 213.379 300.616 213.86 301.312C214.349 302.009 214.531 302.973 214.407 304.203L213.274 311H210.96L212.112 304.174C212.145 303.894 212.151 303.633 212.132 303.393C212.047 302.598 211.578 302.191 210.726 302.172C209.866 302.159 209.098 302.582 208.421 303.441L207.102 311H204.788L207.386 296H209.71L208.636 301.596ZM218.157 311H215.843L217.679 300.434H219.993L218.157 311ZM218.011 297.729C218.011 297.37 218.128 297.064 218.362 296.811C218.597 296.557 218.912 296.423 219.31 296.41C219.687 296.397 220 296.514 220.247 296.762C220.501 297.003 220.628 297.299 220.628 297.65C220.628 298.021 220.504 298.327 220.257 298.568C220.016 298.809 219.707 298.936 219.329 298.949C218.958 298.962 218.645 298.852 218.392 298.617C218.138 298.376 218.011 298.08 218.011 297.729ZM227.073 308.07C227.184 307.426 226.764 306.98 225.813 306.732C224.869 306.479 224.225 306.277 223.88 306.127C222.539 305.554 221.891 304.682 221.936 303.51C221.969 302.559 222.399 301.775 223.226 301.156C224.059 300.531 225.055 300.225 226.214 300.238C227.334 300.251 228.245 300.567 228.948 301.186C229.658 301.804 230.006 302.615 229.993 303.617L227.698 303.607C227.711 303.119 227.578 302.738 227.298 302.465C227.018 302.185 226.634 302.038 226.145 302.025C225.631 302.025 225.188 302.152 224.817 302.406C224.453 302.66 224.241 302.992 224.183 303.402C224.091 303.995 224.508 304.408 225.433 304.643C226.357 304.87 227.041 305.082 227.483 305.277C228.772 305.844 229.394 306.729 229.349 307.934C229.316 308.604 229.095 309.19 228.685 309.691C228.281 310.186 227.737 310.567 227.054 310.834C226.37 311.094 225.644 311.215 224.876 311.195C223.724 311.182 222.767 310.847 222.005 310.189C221.25 309.532 220.879 308.689 220.892 307.66L223.128 307.67C223.141 308.236 223.31 308.666 223.636 308.959C223.961 309.252 224.407 309.402 224.974 309.408C225.546 309.408 226.022 309.291 226.399 309.057C226.783 308.816 227.008 308.487 227.073 308.07ZM236.058 297.865L235.608 300.434H237.415L237.112 302.191H235.296L234.3 308.109C234.28 308.272 234.277 308.419 234.29 308.549C234.329 308.972 234.589 309.193 235.071 309.213C235.312 309.213 235.586 309.184 235.892 309.125L235.735 310.98C235.254 311.117 234.768 311.186 234.28 311.186C233.473 311.173 232.867 310.899 232.464 310.365C232.067 309.825 231.91 309.112 231.995 308.227L232.981 302.191H231.292L231.604 300.434H233.284L233.733 297.865H236.058ZM237.698 305.678C237.809 304.643 238.112 303.702 238.606 302.855C239.108 302.009 239.749 301.355 240.53 300.893C241.311 300.43 242.177 300.212 243.128 300.238C244.033 300.251 244.814 300.492 245.472 300.961C246.129 301.43 246.608 302.071 246.907 302.885C247.213 303.699 247.321 304.604 247.229 305.6C247.125 306.719 246.819 307.709 246.311 308.568C245.81 309.428 245.166 310.089 244.378 310.551C243.597 311.007 242.727 311.221 241.77 311.195C240.872 311.182 240.094 310.945 239.436 310.482C238.785 310.014 238.307 309.376 238.001 308.568C237.695 307.755 237.584 306.859 237.669 305.883L237.698 305.678ZM239.974 307.016C240.006 307.699 240.185 308.249 240.511 308.666C240.843 309.076 241.302 309.291 241.888 309.311C242.682 309.33 243.346 309.024 243.88 308.393C244.42 307.761 244.759 306.898 244.895 305.805L244.954 304.848C244.954 304.014 244.788 303.36 244.456 302.885C244.124 302.41 243.642 302.159 243.011 302.133C242.021 302.107 241.24 302.592 240.667 303.588C240.322 304.193 240.104 304.89 240.013 305.678C239.961 306.225 239.948 306.671 239.974 307.016ZM255.208 302.602C254.908 302.536 254.606 302.504 254.3 302.504C253.284 302.478 252.477 302.898 251.878 303.764L250.608 311H248.294L250.12 300.434L252.317 300.424L252.083 301.625C252.806 300.668 253.639 300.199 254.583 300.219C254.798 300.219 255.094 300.268 255.472 300.365L255.208 302.602ZM257.669 311H255.354L257.19 300.434H259.505L257.669 311ZM257.522 297.729C257.522 297.37 257.64 297.064 257.874 296.811C258.108 296.557 258.424 296.423 258.821 296.41C259.199 296.397 259.511 296.514 259.759 296.762C260.013 297.003 260.14 297.299 260.14 297.65C260.14 298.021 260.016 298.327 259.768 298.568C259.528 298.809 259.218 298.936 258.841 298.949C258.47 298.962 258.157 298.852 257.903 298.617C257.649 298.376 257.522 298.08 257.522 297.729ZM264.876 309.311C265.429 309.324 265.918 309.164 266.341 308.832C266.77 308.493 267.044 308.054 267.161 307.514L269.349 307.504C269.277 308.201 269.023 308.835 268.587 309.408C268.157 309.981 267.604 310.427 266.927 310.746C266.25 311.065 265.543 311.215 264.808 311.195C263.903 311.182 263.131 310.948 262.493 310.492C261.855 310.036 261.39 309.408 261.097 308.607C260.804 307.8 260.706 306.902 260.804 305.912L260.833 305.57C260.944 304.548 261.24 303.624 261.722 302.797C262.21 301.964 262.838 301.322 263.606 300.873C264.375 300.424 265.227 300.212 266.165 300.238C267.311 300.264 268.226 300.645 268.909 301.381C269.593 302.11 269.935 303.061 269.935 304.232H267.767C267.767 303.627 267.617 303.132 267.317 302.748C267.024 302.364 266.598 302.159 266.038 302.133C265.133 302.107 264.42 302.491 263.899 303.285C263.379 304.079 263.099 305.199 263.06 306.645C263.014 308.396 263.619 309.285 264.876 309.311ZM276.8 311C276.722 310.74 276.689 310.411 276.702 310.014C275.83 310.827 274.889 311.221 273.88 311.195C272.962 311.182 272.2 310.889 271.595 310.316C270.996 309.737 270.716 309.005 270.755 308.119C270.807 307.006 271.289 306.13 272.2 305.492C273.112 304.854 274.336 304.535 275.872 304.535L277.376 304.555L277.513 303.832C277.552 303.578 277.552 303.34 277.513 303.119C277.382 302.416 276.917 302.055 276.116 302.035C275.621 302.022 275.185 302.149 274.808 302.416C274.436 302.676 274.209 303.028 274.124 303.471L271.81 303.49C271.855 302.839 272.086 302.27 272.503 301.781C272.92 301.286 273.473 300.902 274.163 300.629C274.853 300.355 275.582 300.225 276.351 300.238C277.503 300.264 278.401 300.613 279.046 301.283C279.69 301.947 279.957 302.81 279.847 303.871L279.036 308.822L278.958 309.701C278.938 310.085 278.987 310.46 279.104 310.824L279.095 311H276.8ZM274.417 309.301C274.905 309.314 275.358 309.203 275.774 308.969C276.191 308.728 276.546 308.419 276.839 308.041L277.2 306.039L276.097 306.029C275.224 306.029 274.528 306.195 274.007 306.527C273.486 306.853 273.19 307.302 273.118 307.875C273.066 308.311 273.16 308.656 273.401 308.91C273.649 309.158 273.987 309.288 274.417 309.301ZM283.587 311H281.272L283.88 296H286.194L283.587 311Z" fill="#0F1C26"/>
<circle cx="173.001" cy="527" r="7" fill="#D3DDE7"/>
<circle cx="195.001" cy="527" r="7" fill="#D3DDE7"/>
<circle cx="217.001" cy="527" r="7" fill="#0043EF"/>
<rect x="135.001" y="560" width="135" height="46" fill="#D3DDE7"/>
<path d="M190.858 585.27C190.858 584.716 190.663 584.293 190.272 584C189.882 583.701 189.179 583.388 188.163 583.062C187.147 582.73 186.343 582.405 185.751 582.086C184.136 581.214 183.329 580.038 183.329 578.561C183.329 577.792 183.544 577.109 183.974 576.51C184.41 575.904 185.032 575.432 185.839 575.094C186.653 574.755 187.564 574.586 188.573 574.586C189.589 574.586 190.494 574.771 191.288 575.143C192.082 575.507 192.698 576.025 193.134 576.695C193.576 577.366 193.798 578.128 193.798 578.98H190.868C190.868 578.329 190.663 577.825 190.253 577.467C189.843 577.102 189.267 576.92 188.524 576.92C187.808 576.92 187.252 577.073 186.854 577.379C186.457 577.678 186.259 578.076 186.259 578.57C186.259 579.033 186.49 579.42 186.952 579.732C187.421 580.045 188.108 580.338 189.013 580.611C190.679 581.113 191.893 581.734 192.655 582.477C193.417 583.219 193.798 584.143 193.798 585.25C193.798 586.48 193.332 587.447 192.401 588.15C191.47 588.847 190.217 589.195 188.642 589.195C187.548 589.195 186.552 588.997 185.653 588.6C184.755 588.196 184.068 587.646 183.593 586.949C183.124 586.253 182.89 585.445 182.89 584.527H185.829C185.829 586.096 186.767 586.881 188.642 586.881C189.338 586.881 189.882 586.741 190.272 586.461C190.663 586.174 190.858 585.777 190.858 585.27ZM199.442 584.762L198.427 585.777V589H195.604V574H198.427V582.311L198.974 581.607L201.679 578.434H205.067L201.249 582.838L205.399 589H202.157L199.442 584.762ZM209.267 589H206.435V578.434H209.267V589ZM206.268 575.699C206.268 575.276 206.408 574.928 206.688 574.654C206.975 574.381 207.362 574.244 207.851 574.244C208.332 574.244 208.716 574.381 209.003 574.654C209.289 574.928 209.433 575.276 209.433 575.699C209.433 576.129 209.286 576.48 208.993 576.754C208.707 577.027 208.326 577.164 207.851 577.164C207.375 577.164 206.991 577.027 206.698 576.754C206.412 576.48 206.268 576.129 206.268 575.699ZM221.112 583.814C221.112 585.442 220.741 586.747 219.999 587.73C219.263 588.707 218.267 589.195 217.011 589.195C215.943 589.195 215.08 588.824 214.423 588.082V593.062H211.601V578.434H214.218L214.315 579.469C214.999 578.648 215.891 578.238 216.991 578.238C218.293 578.238 219.306 578.72 220.028 579.684C220.751 580.647 221.112 581.975 221.112 583.668V583.814ZM218.29 583.609C218.29 582.626 218.114 581.868 217.763 581.334C217.418 580.8 216.913 580.533 216.249 580.533C215.364 580.533 214.755 580.872 214.423 581.549V585.875C214.768 586.572 215.383 586.92 216.268 586.92C217.616 586.92 218.29 585.816 218.29 583.609Z" fill="#0F1C26"/>
</g>
<rect opacity="0.4" x="165.215" y="34.0684" width="67.2161" height="6.25266" rx="1.73696" fill="#D3DDE7"/>
<rect opacity="0.5" x="243.373" y="30.1611" width="14.0685" height="14.0685" rx="4.77664" fill="#E7EDF3"/>
<rect opacity="0.5" x="246.499" y="33.2881" width="7.81582" height="7.81582" rx="3.90791" fill="white"/>
<rect opacity="0.5" x="127.699" y="34.0684" width="6.25266" height="6.25266" rx="1.73696" fill="#D3DDE7"/>
</g>
<defs>
<filter id="filter0_d" x="0" y="0" width="391" height="722.781" filterUnits="userSpaceOnUse" color-interpolation-filters="sRGB">
<feFlood flood-opacity="0" result="BackgroundImageFix"/>
<feColorMatrix in="SourceAlpha" type="matrix" values="0 0 0 0 0 0 0 0 0 0 0 0 0 0 0 0 0 0 127 0" result="hardAlpha"/>
<feOffset dy="10"/>
<feGaussianBlur stdDeviation="15"/>
<feColorMatrix type="matrix" values="0 0 0 0 0.0207639 0 0 0 0 0.0756167 0 0 0 0 0.216667 0 0 0 0.1 0"/>
<feBlend mode="normal" in2="BackgroundImageFix" result="effect1_dropShadow"/>
<feBlend mode="normal" in="SourceGraphic" in2="effect1_dropShadow" result="shape"/>
</filter>
</defs>
</svg>
