<svg width="391" height="723" viewBox="0 0 391 723" fill="none" xmlns="http://www.w3.org/2000/svg">
<g filter="url(#filter0_d)">
<path d="M33.9079 41.712C33.9079 29.7208 43.6287 20 55.6199 20L334.989 20C346.98 20 356.701 29.7208 356.701 41.712V166.547C359.075 166.547 361 168.471 361 170.845V223.993C361 226.367 359.075 228.292 356.701 228.292V661.069C356.701 673.061 346.98 682.781 334.989 682.781H55.6199C43.6287 682.781 33.9079 673.061 33.9079 661.07L33.9079 256.038H31.737C30.7777 256.038 30 255.26 30 254.301V205.409C30 204.449 30.7777 203.672 31.737 203.672H33.9079V193.902H31.737C30.7777 193.902 30 193.124 30 192.165L30 141.71C30 140.75 30.7777 139.973 31.737 139.973H33.9079V41.712Z" fill="white"/>
<path d="M109.725 34.0684H73.772C59.959 34.0684 48.7614 45.266 48.7614 59.079L48.7614 643.702C48.7614 657.515 59.959 668.713 73.772 668.713H316.844C330.657 668.713 341.855 657.515 341.855 643.702V59.079C341.855 45.266 330.657 34.0684 316.844 34.0684L281.673 34.0684V37.9763C281.673 46.6094 274.674 53.6079 266.041 53.6079H125.356C116.723 53.6079 109.725 46.6094 109.725 37.9763V34.0684Z" fill="#E7EDF3"/>
<mask id="mask0" mask-type="alpha" maskUnits="userSpaceOnUse" x="48" y="33" width="294" height="636">
<path d="M109.73 33.6494H73.7772C59.9642 33.6494 48.7665 44.8471 48.7665 58.66L48.7665 643.283C48.7665 657.096 59.9642 668.294 73.7772 668.294H316.849C330.662 668.294 341.86 657.096 341.86 643.283V58.66C341.86 44.8471 330.662 33.6494 316.849 33.6494L281.678 33.6494V37.5573C281.678 46.1904 274.679 53.189 266.046 53.189H125.362C116.728 53.189 109.73 46.1904 109.73 37.5573V33.6494Z" fill="#E7EDF3"/>
</mask>
<g mask="url(#mask0)">
<rect x="29.0009" y="33" width="332" height="445" fill="#D3DDE7"/>
<path d="M112.571 288L115.032 273.781L118.88 273.791C120.065 273.791 121.084 274.087 121.936 274.68C122.796 275.266 123.418 276.079 123.802 277.121C124.186 278.156 124.303 279.299 124.153 280.549L124.046 281.32C123.851 282.629 123.418 283.791 122.747 284.807C122.083 285.816 121.224 286.6 120.169 287.16C119.114 287.72 117.955 288 116.692 288H112.571ZM117.102 275.773L115.325 286.027L116.751 286.037C118.04 286.037 119.108 285.63 119.954 284.816C120.807 283.996 121.354 282.867 121.595 281.428C121.764 280.438 121.826 279.576 121.78 278.84C121.722 277.896 121.445 277.157 120.95 276.623C120.462 276.089 119.782 275.809 118.909 275.783L117.102 275.773ZM125.677 282.678C125.787 281.643 126.09 280.702 126.585 279.855C127.086 279.009 127.727 278.355 128.509 277.893C129.29 277.43 130.156 277.212 131.106 277.238C132.011 277.251 132.793 277.492 133.45 277.961C134.108 278.43 134.586 279.071 134.886 279.885C135.192 280.699 135.299 281.604 135.208 282.6C135.104 283.719 134.798 284.709 134.29 285.568C133.789 286.428 133.144 287.089 132.356 287.551C131.575 288.007 130.706 288.221 129.749 288.195C128.851 288.182 128.073 287.945 127.415 287.482C126.764 287.014 126.285 286.376 125.979 285.568C125.673 284.755 125.563 283.859 125.647 282.883L125.677 282.678ZM127.952 284.016C127.985 284.699 128.164 285.249 128.489 285.666C128.821 286.076 129.28 286.291 129.866 286.311C130.66 286.33 131.324 286.024 131.858 285.393C132.399 284.761 132.737 283.898 132.874 282.805L132.933 281.848C132.933 281.014 132.767 280.36 132.435 279.885C132.102 279.41 131.621 279.159 130.989 279.133C130 279.107 129.218 279.592 128.645 280.588C128.3 281.193 128.082 281.89 127.991 282.678C127.939 283.225 127.926 283.671 127.952 284.016ZM145.354 284.582L148.675 277.434H151.233L144.974 289.826C144.101 291.493 142.952 292.316 141.526 292.297C141.175 292.284 140.774 292.219 140.325 292.102L140.52 290.266L140.94 290.305C141.5 290.324 141.963 290.217 142.327 289.982C142.692 289.755 142.998 289.396 143.245 288.908L143.802 287.814L142.034 277.434H144.436L145.354 284.582ZM151.165 282.678C151.276 281.643 151.578 280.702 152.073 279.855C152.574 279.009 153.216 278.355 153.997 277.893C154.778 277.43 155.644 277.212 156.595 277.238C157.5 277.251 158.281 277.492 158.938 277.961C159.596 278.43 160.074 279.071 160.374 279.885C160.68 280.699 160.787 281.604 160.696 282.6C160.592 283.719 160.286 284.709 159.778 285.568C159.277 286.428 158.632 287.089 157.845 287.551C157.063 288.007 156.194 288.221 155.237 288.195C154.339 288.182 153.561 287.945 152.903 287.482C152.252 287.014 151.774 286.376 151.468 285.568C151.162 284.755 151.051 283.859 151.136 282.883L151.165 282.678ZM153.44 284.016C153.473 284.699 153.652 285.249 153.977 285.666C154.31 286.076 154.768 286.291 155.354 286.311C156.149 286.33 156.813 286.024 157.347 285.393C157.887 284.761 158.226 283.898 158.362 282.805L158.421 281.848C158.421 281.014 158.255 280.36 157.923 279.885C157.591 279.41 157.109 279.159 156.477 279.133C155.488 279.107 154.707 279.592 154.134 280.588C153.789 281.193 153.571 281.89 153.479 282.678C153.427 283.225 153.414 283.671 153.44 284.016ZM168.294 286.955C167.493 287.808 166.49 288.221 165.286 288.195C164.602 288.182 164.033 288.013 163.577 287.688C163.128 287.362 162.806 286.91 162.61 286.33C162.421 285.744 162.366 285.057 162.444 284.27L163.587 277.434H165.901L164.749 284.299C164.723 284.54 164.72 284.774 164.739 285.002C164.804 285.809 165.211 286.229 165.96 286.262C166.982 286.301 167.809 285.891 168.44 285.031L169.768 277.434H172.083L170.257 288H168.089L168.294 286.955ZM187.122 284.709L190.022 277.434H192.347L187.718 288H185.813L184.886 280.773L181.468 288H179.554L178.587 277.434H180.774L181.175 284.602L184.515 277.434H186.263L187.122 284.709ZM198.372 288C198.294 287.74 198.261 287.411 198.274 287.014C197.402 287.827 196.461 288.221 195.452 288.195C194.534 288.182 193.772 287.889 193.167 287.316C192.568 286.737 192.288 286.005 192.327 285.119C192.379 284.006 192.861 283.13 193.772 282.492C194.684 281.854 195.908 281.535 197.444 281.535L198.948 281.555L199.085 280.832C199.124 280.578 199.124 280.34 199.085 280.119C198.955 279.416 198.489 279.055 197.688 279.035C197.194 279.022 196.757 279.149 196.38 279.416C196.009 279.676 195.781 280.028 195.696 280.471L193.382 280.49C193.427 279.839 193.658 279.27 194.075 278.781C194.492 278.286 195.045 277.902 195.735 277.629C196.425 277.355 197.155 277.225 197.923 277.238C199.075 277.264 199.974 277.613 200.618 278.283C201.263 278.947 201.53 279.81 201.419 280.871L200.608 285.822L200.53 286.701C200.511 287.085 200.56 287.46 200.677 287.824L200.667 288H198.372ZM195.989 286.301C196.477 286.314 196.93 286.203 197.347 285.969C197.763 285.728 198.118 285.419 198.411 285.041L198.772 283.039L197.669 283.029C196.796 283.029 196.1 283.195 195.579 283.527C195.058 283.853 194.762 284.302 194.69 284.875C194.638 285.311 194.733 285.656 194.974 285.91C195.221 286.158 195.56 286.288 195.989 286.301ZM206.673 277.424L206.438 278.664C207.343 277.688 208.388 277.212 209.573 277.238C210.563 277.258 211.295 277.613 211.77 278.303C212.246 278.986 212.421 279.943 212.298 281.174L211.155 288H208.841L209.993 281.145C210.026 280.865 210.029 280.604 210.003 280.363C209.918 279.589 209.456 279.191 208.616 279.172C207.737 279.159 206.966 279.592 206.302 280.471L204.983 288H202.669L204.495 277.434L206.673 277.424ZM218.782 274.865L218.333 277.434H220.14L219.837 279.191H218.02L217.024 285.109C217.005 285.272 217.002 285.419 217.015 285.549C217.054 285.972 217.314 286.193 217.796 286.213C218.037 286.213 218.31 286.184 218.616 286.125L218.46 287.98C217.978 288.117 217.493 288.186 217.005 288.186C216.198 288.173 215.592 287.899 215.188 287.365C214.791 286.825 214.635 286.112 214.72 285.227L215.706 279.191H214.017L214.329 277.434H216.009L216.458 274.865H218.782ZM230.286 274.865L229.837 277.434H231.643L231.341 279.191H229.524L228.528 285.109C228.509 285.272 228.505 285.419 228.518 285.549C228.558 285.972 228.818 286.193 229.3 286.213C229.541 286.213 229.814 286.184 230.12 286.125L229.964 287.98C229.482 288.117 228.997 288.186 228.509 288.186C227.701 288.173 227.096 287.899 226.692 287.365C226.295 286.825 226.139 286.112 226.224 285.227L227.21 279.191H225.52L225.833 277.434H227.513L227.962 274.865H230.286ZM231.927 282.678C232.037 281.643 232.34 280.702 232.835 279.855C233.336 279.009 233.977 278.355 234.759 277.893C235.54 277.43 236.406 277.212 237.356 277.238C238.261 277.251 239.043 277.492 239.7 277.961C240.358 278.43 240.836 279.071 241.136 279.885C241.442 280.699 241.549 281.604 241.458 282.6C241.354 283.719 241.048 284.709 240.54 285.568C240.039 286.428 239.394 287.089 238.606 287.551C237.825 288.007 236.956 288.221 235.999 288.195C235.101 288.182 234.323 287.945 233.665 287.482C233.014 287.014 232.535 286.376 232.229 285.568C231.923 284.755 231.813 283.859 231.897 282.883L231.927 282.678ZM234.202 284.016C234.235 284.699 234.414 285.249 234.739 285.666C235.071 286.076 235.53 286.291 236.116 286.311C236.91 286.33 237.574 286.024 238.108 285.393C238.649 284.761 238.987 283.898 239.124 282.805L239.183 281.848C239.183 281.014 239.017 280.36 238.685 279.885C238.352 279.41 237.871 279.159 237.239 279.133C236.25 279.107 235.468 279.592 234.895 280.588C234.55 281.193 234.332 281.89 234.241 282.678C234.189 283.225 234.176 283.671 234.202 284.016ZM253.997 286.955C253.196 287.808 252.194 288.221 250.989 288.195C250.306 288.182 249.736 288.013 249.28 287.688C248.831 287.362 248.509 286.91 248.313 286.33C248.125 285.744 248.069 285.057 248.147 284.27L249.29 277.434H251.604L250.452 284.299C250.426 284.54 250.423 284.774 250.442 285.002C250.507 285.809 250.914 286.229 251.663 286.262C252.685 286.301 253.512 285.891 254.143 285.031L255.472 277.434H257.786L255.96 288H253.792L253.997 286.955ZM264.661 285.07C264.772 284.426 264.352 283.98 263.401 283.732C262.457 283.479 261.813 283.277 261.468 283.127C260.127 282.554 259.479 281.682 259.524 280.51C259.557 279.559 259.987 278.775 260.813 278.156C261.647 277.531 262.643 277.225 263.802 277.238C264.921 277.251 265.833 277.567 266.536 278.186C267.246 278.804 267.594 279.615 267.581 280.617L265.286 280.607C265.299 280.119 265.166 279.738 264.886 279.465C264.606 279.185 264.222 279.038 263.733 279.025C263.219 279.025 262.776 279.152 262.405 279.406C262.041 279.66 261.829 279.992 261.77 280.402C261.679 280.995 262.096 281.408 263.02 281.643C263.945 281.87 264.629 282.082 265.071 282.277C266.36 282.844 266.982 283.729 266.936 284.934C266.904 285.604 266.683 286.19 266.272 286.691C265.869 287.186 265.325 287.567 264.642 287.834C263.958 288.094 263.232 288.215 262.464 288.195C261.311 288.182 260.354 287.847 259.593 287.189C258.838 286.532 258.466 285.689 258.479 284.66L260.716 284.67C260.729 285.236 260.898 285.666 261.224 285.959C261.549 286.252 261.995 286.402 262.561 286.408C263.134 286.408 263.61 286.291 263.987 286.057C264.371 285.816 264.596 285.487 264.661 285.07ZM273.245 288.195C272.327 288.176 271.53 287.945 270.852 287.502C270.182 287.059 269.684 286.454 269.358 285.686C269.039 284.917 268.919 284.061 268.997 283.117L269.026 282.717C269.143 281.643 269.456 280.679 269.964 279.826C270.478 278.967 271.116 278.316 271.878 277.873C272.64 277.43 273.466 277.219 274.358 277.238C275.68 277.264 276.67 277.756 277.327 278.713C277.991 279.67 278.242 280.917 278.079 282.453L277.942 283.469H271.292C271.233 284.309 271.403 284.986 271.8 285.5C272.197 286.014 272.744 286.278 273.44 286.291C274.436 286.324 275.354 285.891 276.194 284.992L277.366 286.223C276.923 286.854 276.341 287.346 275.618 287.697C274.895 288.042 274.104 288.208 273.245 288.195ZM274.231 279.133C273.007 279.094 272.089 279.96 271.477 281.73L275.862 281.74L275.901 281.535C275.947 281.236 275.95 280.943 275.911 280.656C275.839 280.194 275.657 279.829 275.364 279.562C275.071 279.296 274.694 279.152 274.231 279.133ZM139.671 305.707C139.795 304.652 140.078 303.699 140.52 302.846C140.97 301.993 141.533 301.342 142.21 300.893C142.887 300.437 143.662 300.215 144.534 300.229C145.693 300.255 146.569 300.681 147.161 301.508L147.522 300.424L149.632 300.434L147.884 310.707C147.688 312.087 147.106 313.184 146.136 313.998C145.172 314.818 143.997 315.209 142.61 315.17C141.868 315.157 141.165 314.988 140.501 314.662C139.837 314.337 139.303 313.907 138.899 313.373L140.13 311.977C140.748 312.829 141.556 313.269 142.552 313.295C143.307 313.321 143.955 313.113 144.495 312.67C145.042 312.234 145.407 311.609 145.589 310.795L145.755 310.053C144.941 310.84 144.017 311.221 142.981 311.195C141.992 311.182 141.198 310.808 140.599 310.072C140.006 309.337 139.681 308.347 139.622 307.104C139.602 306.713 139.619 306.247 139.671 305.707ZM141.966 305.912C141.927 306.244 141.914 306.602 141.927 306.986C141.94 307.676 142.096 308.223 142.395 308.627C142.695 309.031 143.121 309.242 143.675 309.262C144.554 309.294 145.322 308.887 145.979 308.041L146.81 303.373C146.471 302.598 145.869 302.198 145.003 302.172C144.222 302.152 143.564 302.455 143.03 303.08C142.496 303.705 142.148 304.581 141.985 305.707L141.966 305.912ZM155.022 311.195C154.104 311.176 153.307 310.945 152.63 310.502C151.959 310.059 151.461 309.454 151.136 308.686C150.817 307.917 150.696 307.061 150.774 306.117L150.804 305.717C150.921 304.643 151.233 303.679 151.741 302.826C152.255 301.967 152.893 301.316 153.655 300.873C154.417 300.43 155.244 300.219 156.136 300.238C157.457 300.264 158.447 300.756 159.104 301.713C159.768 302.67 160.019 303.917 159.856 305.453L159.72 306.469H153.069C153.011 307.309 153.18 307.986 153.577 308.5C153.974 309.014 154.521 309.278 155.218 309.291C156.214 309.324 157.132 308.891 157.972 307.992L159.143 309.223C158.701 309.854 158.118 310.346 157.395 310.697C156.673 311.042 155.882 311.208 155.022 311.195ZM156.009 302.133C154.785 302.094 153.867 302.96 153.255 304.73L157.64 304.74L157.679 304.535C157.724 304.236 157.727 303.943 157.688 303.656C157.617 303.194 157.435 302.829 157.142 302.562C156.849 302.296 156.471 302.152 156.009 302.133ZM161.302 305.678C161.412 304.643 161.715 303.702 162.21 302.855C162.711 302.009 163.352 301.355 164.134 300.893C164.915 300.43 165.781 300.212 166.731 300.238C167.636 300.251 168.418 300.492 169.075 300.961C169.733 301.43 170.211 302.071 170.511 302.885C170.817 303.699 170.924 304.604 170.833 305.6C170.729 306.719 170.423 307.709 169.915 308.568C169.414 309.428 168.769 310.089 167.981 310.551C167.2 311.007 166.331 311.221 165.374 311.195C164.476 311.182 163.698 310.945 163.04 310.482C162.389 310.014 161.91 309.376 161.604 308.568C161.298 307.755 161.188 306.859 161.272 305.883L161.302 305.678ZM163.577 307.016C163.61 307.699 163.789 308.249 164.114 308.666C164.446 309.076 164.905 309.291 165.491 309.311C166.285 309.33 166.949 309.024 167.483 308.393C168.024 307.761 168.362 306.898 168.499 305.805L168.558 304.848C168.558 304.014 168.392 303.36 168.06 302.885C167.727 302.41 167.246 302.159 166.614 302.133C165.625 302.107 164.843 302.592 164.27 303.588C163.925 304.193 163.707 304.89 163.616 305.678C163.564 306.225 163.551 306.671 163.577 307.016ZM174.358 311H172.044L174.651 296H176.966L174.358 311ZM177.513 305.678C177.623 304.643 177.926 303.702 178.421 302.855C178.922 302.009 179.563 301.355 180.345 300.893C181.126 300.43 181.992 300.212 182.942 300.238C183.847 300.251 184.629 300.492 185.286 300.961C185.944 301.43 186.422 302.071 186.722 302.885C187.028 303.699 187.135 304.604 187.044 305.6C186.94 306.719 186.634 307.709 186.126 308.568C185.625 309.428 184.98 310.089 184.192 310.551C183.411 311.007 182.542 311.221 181.585 311.195C180.686 311.182 179.908 310.945 179.251 310.482C178.6 310.014 178.121 309.376 177.815 308.568C177.509 307.755 177.399 306.859 177.483 305.883L177.513 305.678ZM179.788 307.016C179.821 307.699 180 308.249 180.325 308.666C180.657 309.076 181.116 309.291 181.702 309.311C182.496 309.33 183.16 309.024 183.694 308.393C184.235 307.761 184.573 306.898 184.71 305.805L184.768 304.848C184.768 304.014 184.602 303.36 184.27 302.885C183.938 302.41 183.457 302.159 182.825 302.133C181.836 302.107 181.054 302.592 180.481 303.588C180.136 304.193 179.918 304.89 179.827 305.678C179.775 306.225 179.762 306.671 179.788 307.016ZM192.718 309.311C193.271 309.324 193.759 309.164 194.183 308.832C194.612 308.493 194.886 308.054 195.003 307.514L197.19 307.504C197.119 308.201 196.865 308.835 196.429 309.408C195.999 309.981 195.446 310.427 194.768 310.746C194.091 311.065 193.385 311.215 192.649 311.195C191.744 311.182 190.973 310.948 190.335 310.492C189.697 310.036 189.231 309.408 188.938 308.607C188.645 307.8 188.548 306.902 188.645 305.912L188.675 305.57C188.785 304.548 189.082 303.624 189.563 302.797C190.052 301.964 190.68 301.322 191.448 300.873C192.216 300.424 193.069 300.212 194.007 300.238C195.153 300.264 196.067 300.645 196.751 301.381C197.435 302.11 197.776 303.061 197.776 304.232H195.608C195.608 303.627 195.459 303.132 195.159 302.748C194.866 302.364 194.44 302.159 193.88 302.133C192.975 302.107 192.262 302.491 191.741 303.285C191.22 304.079 190.94 305.199 190.901 306.645C190.856 308.396 191.461 309.285 192.718 309.311ZM204.642 311C204.563 310.74 204.531 310.411 204.544 310.014C203.671 310.827 202.731 311.221 201.722 311.195C200.804 311.182 200.042 310.889 199.436 310.316C198.838 309.737 198.558 309.005 198.597 308.119C198.649 307.006 199.13 306.13 200.042 305.492C200.953 304.854 202.177 304.535 203.714 304.535L205.218 304.555L205.354 303.832C205.393 303.578 205.393 303.34 205.354 303.119C205.224 302.416 204.759 302.055 203.958 302.035C203.463 302.022 203.027 302.149 202.649 302.416C202.278 302.676 202.05 303.028 201.966 303.471L199.651 303.49C199.697 302.839 199.928 302.27 200.345 301.781C200.761 301.286 201.315 300.902 202.005 300.629C202.695 300.355 203.424 300.225 204.192 300.238C205.345 300.264 206.243 300.613 206.888 301.283C207.532 301.947 207.799 302.81 207.688 303.871L206.878 308.822L206.8 309.701C206.78 310.085 206.829 310.46 206.946 310.824L206.936 311H204.642ZM202.259 309.301C202.747 309.314 203.199 309.203 203.616 308.969C204.033 308.728 204.388 308.419 204.681 308.041L205.042 306.039L203.938 306.029C203.066 306.029 202.369 306.195 201.849 306.527C201.328 306.853 201.032 307.302 200.96 307.875C200.908 308.311 201.002 308.656 201.243 308.91C201.49 309.158 201.829 309.288 202.259 309.301ZM214.153 297.865L213.704 300.434H215.511L215.208 302.191H213.392L212.395 308.109C212.376 308.272 212.373 308.419 212.386 308.549C212.425 308.972 212.685 309.193 213.167 309.213C213.408 309.213 213.681 309.184 213.987 309.125L213.831 310.98C213.349 311.117 212.864 311.186 212.376 311.186C211.569 311.173 210.963 310.899 210.56 310.365C210.162 309.825 210.006 309.112 210.091 308.227L211.077 302.191H209.388L209.7 300.434H211.38L211.829 297.865H214.153ZM217.991 311H215.677L217.513 300.434H219.827L217.991 311ZM217.845 297.729C217.845 297.37 217.962 297.064 218.196 296.811C218.431 296.557 218.746 296.423 219.143 296.41C219.521 296.397 219.834 296.514 220.081 296.762C220.335 297.003 220.462 297.299 220.462 297.65C220.462 298.021 220.338 298.327 220.091 298.568C219.85 298.809 219.541 298.936 219.163 298.949C218.792 298.962 218.479 298.852 218.226 298.617C217.972 298.376 217.845 298.08 217.845 297.729ZM221.145 305.678C221.256 304.643 221.559 303.702 222.054 302.855C222.555 302.009 223.196 301.355 223.977 300.893C224.759 300.43 225.625 300.212 226.575 300.238C227.48 300.251 228.261 300.492 228.919 300.961C229.576 301.43 230.055 302.071 230.354 302.885C230.66 303.699 230.768 304.604 230.677 305.6C230.573 306.719 230.267 307.709 229.759 308.568C229.257 309.428 228.613 310.089 227.825 310.551C227.044 311.007 226.175 311.221 225.218 311.195C224.319 311.182 223.541 310.945 222.884 310.482C222.233 310.014 221.754 309.376 221.448 308.568C221.142 307.755 221.032 306.859 221.116 305.883L221.145 305.678ZM223.421 307.016C223.453 307.699 223.632 308.249 223.958 308.666C224.29 309.076 224.749 309.291 225.335 309.311C226.129 309.33 226.793 309.024 227.327 308.393C227.867 307.761 228.206 306.898 228.343 305.805L228.401 304.848C228.401 304.014 228.235 303.36 227.903 302.885C227.571 302.41 227.089 302.159 226.458 302.133C225.468 302.107 224.687 302.592 224.114 303.588C223.769 304.193 223.551 304.89 223.46 305.678C223.408 306.225 223.395 306.671 223.421 307.016ZM235.716 300.424L235.481 301.664C236.386 300.688 237.431 300.212 238.616 300.238C239.606 300.258 240.338 300.613 240.813 301.303C241.289 301.986 241.464 302.943 241.341 304.174L240.198 311H237.884L239.036 304.145C239.069 303.865 239.072 303.604 239.046 303.363C238.961 302.589 238.499 302.191 237.659 302.172C236.78 302.159 236.009 302.592 235.345 303.471L234.026 311H231.712L233.538 300.434L235.716 300.424ZM245.599 306.83C245.677 306.016 245.865 305.323 246.165 304.75C246.471 304.177 246.953 303.611 247.61 303.051C248.274 302.491 248.707 302.094 248.909 301.859C249.521 301.156 249.768 300.421 249.651 299.652C249.599 299.314 249.456 299.047 249.222 298.852C248.987 298.65 248.685 298.546 248.313 298.539C247.78 298.526 247.327 298.682 246.956 299.008C246.591 299.327 246.354 299.763 246.243 300.316L243.938 300.326C244.049 299.167 244.521 298.246 245.354 297.562C246.188 296.879 247.223 296.55 248.46 296.576C249.612 296.602 250.517 296.951 251.175 297.621C251.832 298.292 252.115 299.18 252.024 300.287C251.927 301.439 251.263 302.546 250.032 303.607L248.841 304.604C248.229 305.163 247.858 305.902 247.727 306.82L245.599 306.83ZM244.817 309.896C244.817 309.512 244.938 309.197 245.179 308.949C245.426 308.702 245.739 308.572 246.116 308.559C246.481 308.546 246.79 308.66 247.044 308.9C247.298 309.141 247.425 309.447 247.425 309.818C247.425 310.215 247.295 310.535 247.034 310.775C246.78 311.01 246.477 311.127 246.126 311.127C245.761 311.14 245.452 311.033 245.198 310.805C244.944 310.57 244.817 310.268 244.817 309.896Z" fill="#0F1C26"/>
<rect x="119.001" y="520" width="167" height="46" fill="#D3DDE7"/>
<path d="M159.698 546.646H165.919V549H156.768V534.781H159.698V546.646ZM166.983 543.619C166.983 542.571 167.185 541.637 167.589 540.816C167.992 539.996 168.572 539.361 169.327 538.912C170.089 538.463 170.971 538.238 171.974 538.238C173.399 538.238 174.561 538.674 175.46 539.547C176.365 540.419 176.869 541.604 176.974 543.102L176.993 543.824C176.993 545.445 176.541 546.747 175.636 547.73C174.731 548.707 173.517 549.195 171.993 549.195C170.47 549.195 169.252 548.707 168.341 547.73C167.436 546.754 166.983 545.426 166.983 543.746V543.619ZM169.806 543.824C169.806 544.827 169.994 545.595 170.372 546.129C170.75 546.656 171.29 546.92 171.993 546.92C172.677 546.92 173.211 546.66 173.595 546.139C173.979 545.611 174.171 544.771 174.171 543.619C174.171 542.636 173.979 541.874 173.595 541.334C173.211 540.794 172.67 540.523 171.974 540.523C171.283 540.523 170.75 540.794 170.372 541.334C169.994 541.868 169.806 542.698 169.806 543.824ZM183.126 546.92C183.647 546.92 184.07 546.777 184.395 546.49C184.721 546.204 184.89 545.823 184.903 545.348H187.55C187.543 546.064 187.348 546.721 186.964 547.32C186.58 547.913 186.052 548.375 185.382 548.707C184.718 549.033 183.982 549.195 183.175 549.195C181.664 549.195 180.473 548.717 179.601 547.76C178.728 546.796 178.292 545.468 178.292 543.775V543.59C178.292 541.962 178.725 540.663 179.591 539.693C180.457 538.723 181.645 538.238 183.155 538.238C184.477 538.238 185.535 538.616 186.329 539.371C187.13 540.12 187.537 541.119 187.55 542.369H184.903C184.89 541.822 184.721 541.38 184.395 541.041C184.07 540.696 183.64 540.523 183.106 540.523C182.449 540.523 181.951 540.764 181.612 541.246C181.28 541.721 181.114 542.496 181.114 543.57V543.863C181.114 544.951 181.28 545.732 181.612 546.207C181.944 546.682 182.449 546.92 183.126 546.92ZM195.284 549C195.154 548.746 195.06 548.43 195.001 548.053C194.317 548.814 193.429 549.195 192.335 549.195C191.3 549.195 190.44 548.896 189.757 548.297C189.08 547.698 188.741 546.943 188.741 546.031C188.741 544.911 189.155 544.052 189.981 543.453C190.815 542.854 192.016 542.551 193.585 542.545H194.884V541.939C194.884 541.451 194.757 541.061 194.503 540.768C194.255 540.475 193.862 540.328 193.321 540.328C192.846 540.328 192.472 540.442 192.198 540.67C191.931 540.898 191.798 541.21 191.798 541.607H188.976C188.976 540.995 189.164 540.429 189.542 539.908C189.92 539.387 190.453 538.98 191.143 538.688C191.834 538.388 192.608 538.238 193.468 538.238C194.77 538.238 195.802 538.567 196.563 539.225C197.332 539.876 197.716 540.794 197.716 541.979V546.559C197.722 547.561 197.862 548.32 198.136 548.834V549H195.284ZM192.95 547.037C193.367 547.037 193.751 546.946 194.102 546.764C194.454 546.575 194.714 546.324 194.884 546.012V544.195H193.829C192.416 544.195 191.664 544.684 191.573 545.66L191.563 545.826C191.563 546.178 191.687 546.467 191.935 546.695C192.182 546.923 192.52 547.037 192.95 547.037ZM203.263 535.836V538.434H205.069V540.504H203.263V545.777C203.263 546.168 203.338 546.448 203.487 546.617C203.637 546.786 203.923 546.871 204.347 546.871C204.659 546.871 204.936 546.848 205.177 546.803V548.941C204.623 549.111 204.054 549.195 203.468 549.195C201.489 549.195 200.479 548.196 200.44 546.197V540.504H198.897V538.434H200.44V535.836H203.263ZM211.505 549.195C209.955 549.195 208.692 548.72 207.716 547.77C206.746 546.819 206.261 545.553 206.261 543.971V543.697C206.261 542.636 206.466 541.689 206.876 540.855C207.286 540.016 207.865 539.371 208.614 538.922C209.369 538.466 210.229 538.238 211.192 538.238C212.638 538.238 213.774 538.694 214.601 539.605C215.434 540.517 215.851 541.809 215.851 543.482V544.635H209.122C209.213 545.325 209.487 545.878 209.942 546.295C210.405 546.712 210.987 546.92 211.69 546.92C212.778 546.92 213.627 546.526 214.239 545.738L215.626 547.291C215.203 547.89 214.63 548.359 213.907 548.697C213.185 549.029 212.384 549.195 211.505 549.195ZM211.183 540.523C210.623 540.523 210.167 540.712 209.815 541.09C209.47 541.467 209.249 542.008 209.151 542.711H213.077V542.486C213.064 541.861 212.895 541.38 212.569 541.041C212.244 540.696 211.782 540.523 211.183 540.523ZM225.089 538.434L225.177 539.615C225.925 538.697 226.938 538.238 228.214 538.238C229.574 538.238 230.509 538.775 231.017 539.85C231.759 538.775 232.817 538.238 234.19 538.238C235.336 538.238 236.189 538.574 236.749 539.244C237.309 539.908 237.589 540.911 237.589 542.252V549H234.757V542.262C234.757 541.663 234.64 541.227 234.405 540.953C234.171 540.673 233.757 540.533 233.165 540.533C232.319 540.533 231.733 540.937 231.407 541.744L231.417 549H228.595V542.271C228.595 541.66 228.474 541.217 228.233 540.943C227.992 540.67 227.582 540.533 227.003 540.533C226.202 540.533 225.623 540.865 225.265 541.529V549H222.442V538.434H225.089ZM244.63 549.195C243.08 549.195 241.817 548.72 240.841 547.77C239.871 546.819 239.386 545.553 239.386 543.971V543.697C239.386 542.636 239.591 541.689 240.001 540.855C240.411 540.016 240.99 539.371 241.739 538.922C242.494 538.466 243.354 538.238 244.317 538.238C245.763 538.238 246.899 538.694 247.726 539.605C248.559 540.517 248.976 541.809 248.976 543.482V544.635H242.247C242.338 545.325 242.612 545.878 243.067 546.295C243.53 546.712 244.112 546.92 244.815 546.92C245.903 546.92 246.752 546.526 247.364 545.738L248.751 547.291C248.328 547.89 247.755 548.359 247.032 548.697C246.31 549.029 245.509 549.195 244.63 549.195ZM244.308 540.523C243.748 540.523 243.292 540.712 242.94 541.09C242.595 541.467 242.374 542.008 242.276 542.711H246.202V542.486C246.189 541.861 246.02 541.38 245.694 541.041C245.369 540.696 244.907 540.523 244.308 540.523Z" fill="#0F1C26"/>
<path d="M185.497 598H183.69V583H185.497V598ZM194.921 598C194.817 597.792 194.732 597.421 194.667 596.887C193.827 597.759 192.824 598.195 191.659 598.195C190.617 598.195 189.761 597.902 189.091 597.316C188.427 596.724 188.095 595.975 188.095 595.07C188.095 593.97 188.511 593.117 189.345 592.512C190.185 591.9 191.363 591.594 192.88 591.594H194.638V590.764C194.638 590.132 194.449 589.631 194.071 589.26C193.694 588.882 193.137 588.693 192.401 588.693C191.757 588.693 191.216 588.856 190.78 589.182C190.344 589.507 190.126 589.901 190.126 590.363H188.31C188.31 589.836 188.495 589.328 188.866 588.84C189.244 588.345 189.752 587.954 190.39 587.668C191.034 587.382 191.74 587.238 192.509 587.238C193.726 587.238 194.68 587.544 195.37 588.156C196.06 588.762 196.418 589.598 196.444 590.666V595.529C196.444 596.499 196.568 597.271 196.815 597.844V598H194.921ZM191.923 596.623C192.489 596.623 193.026 596.477 193.534 596.184C194.042 595.891 194.41 595.51 194.638 595.041V592.873H193.222C191.008 592.873 189.901 593.521 189.901 594.816C189.901 595.383 190.09 595.826 190.468 596.145C190.845 596.464 191.33 596.623 191.923 596.623ZM201.727 584.875V587.434H203.7V588.83H201.727V595.383C201.727 595.806 201.815 596.125 201.991 596.34C202.167 596.548 202.466 596.652 202.89 596.652C203.098 596.652 203.384 596.613 203.749 596.535V598C203.274 598.13 202.811 598.195 202.362 598.195C201.555 598.195 200.946 597.951 200.536 597.463C200.126 596.975 199.921 596.281 199.921 595.383V588.83H197.997V587.434H199.921V584.875H201.727ZM210.204 598.195C208.772 598.195 207.606 597.727 206.708 596.789C205.81 595.845 205.36 594.585 205.36 593.01V592.678C205.36 591.63 205.559 590.695 205.956 589.875C206.36 589.048 206.92 588.404 207.636 587.941C208.358 587.473 209.14 587.238 209.979 587.238C211.353 587.238 212.421 587.691 213.183 588.596C213.944 589.501 214.325 590.796 214.325 592.482V593.234H207.167C207.193 594.276 207.496 595.119 208.075 595.764C208.661 596.402 209.403 596.721 210.302 596.721C210.94 596.721 211.48 596.59 211.923 596.33C212.365 596.07 212.753 595.725 213.085 595.295L214.188 596.154C213.303 597.515 211.975 598.195 210.204 598.195ZM209.979 588.723C209.25 588.723 208.638 588.99 208.143 589.523C207.649 590.051 207.343 590.793 207.226 591.75H212.518V591.613C212.466 590.695 212.219 589.986 211.776 589.484C211.334 588.977 210.735 588.723 209.979 588.723ZM221.532 589.055C221.259 589.009 220.963 588.986 220.643 588.986C219.459 588.986 218.655 589.491 218.231 590.5V598H216.425V587.434H218.183L218.212 588.654C218.804 587.71 219.644 587.238 220.731 587.238C221.083 587.238 221.35 587.284 221.532 587.375V589.055Z" fill="#0F1C26"/>
</g>
<rect opacity="0.4" x="165.215" y="34.0684" width="67.2161" height="6.25266" rx="1.73696" fill="#D3DDE7"/>
<rect opacity="0.5" x="243.373" y="30.1611" width="14.0685" height="14.0685" rx="4.77664" fill="#E7EDF3"/>
<rect opacity="0.5" x="246.499" y="33.2881" width="7.81582" height="7.81582" rx="3.90791" fill="white"/>
<rect opacity="0.5" x="127.699" y="34.0684" width="6.25266" height="6.25266" rx="1.73696" fill="#D3DDE7"/>
</g>
<defs>
<filter id="filter0_d" x="0" y="0" width="391" height="722.781" filterUnits="userSpaceOnUse" color-interpolation-filters="sRGB">
<feFlood flood-opacity="0" result="BackgroundImageFix"/>
<feColorMatrix in="SourceAlpha" type="matrix" values="0 0 0 0 0 0 0 0 0 0 0 0 0 0 0 0 0 0 127 0" result="hardAlpha"/>
<feOffset dy="10"/>
<feGaussianBlur stdDeviation="15"/>
<feColorMatrix type="matrix" values="0 0 0 0 0.0207639 0 0 0 0 0.0756167 0 0 0 0 0.216667 0 0 0 0.1 0"/>
<feBlend mode="normal" in2="BackgroundImageFix" result="effect1_dropShadow"/>
<feBlend mode="normal" in="SourceGraphic" in2="effect1_dropShadow" result="shape"/>
</filter>
</defs>
</svg>
