<svg width="391" height="723" viewBox="0 0 391 723" fill="none" xmlns="http://www.w3.org/2000/svg">
<g filter="url(#filter0_d)">
<path d="M33.9079 41.712C33.9079 29.7208 43.6287 20 55.6199 20L334.989 20C346.98 20 356.701 29.7208 356.701 41.712V166.547C359.075 166.547 361 168.471 361 170.845V223.993C361 226.367 359.075 228.292 356.701 228.292V661.069C356.701 673.061 346.98 682.781 334.989 682.781H55.6199C43.6287 682.781 33.9079 673.061 33.9079 661.07L33.9079 256.038H31.737C30.7777 256.038 30 255.26 30 254.301V205.409C30 204.449 30.7777 203.672 31.737 203.672H33.9079V193.902H31.737C30.7777 193.902 30 193.124 30 192.165L30 141.71C30 140.75 30.7777 139.973 31.737 139.973H33.9079V41.712Z" fill="white"/>
<path d="M109.725 34.0684H73.772C59.959 34.0684 48.7614 45.266 48.7614 59.079L48.7614 643.702C48.7614 657.515 59.959 668.713 73.772 668.713H316.844C330.657 668.713 341.855 657.515 341.855 643.702V59.079C341.855 45.266 330.657 34.0684 316.844 34.0684L281.673 34.0684V37.9763C281.673 46.6094 274.674 53.6079 266.041 53.6079H125.356C116.723 53.6079 109.725 46.6094 109.725 37.9763V34.0684Z" fill="#E7EDF3"/>
<mask id="mask0" mask-type="alpha" maskUnits="userSpaceOnUse" x="48" y="33" width="294" height="636">
<path d="M109.73 33.6494H73.7772C59.9642 33.6494 48.7665 44.8471 48.7665 58.66L48.7665 643.283C48.7665 657.096 59.9642 668.294 73.7772 668.294H316.849C330.662 668.294 341.86 657.096 341.86 643.283V58.66C341.86 44.8471 330.662 33.6494 316.849 33.6494L281.678 33.6494V37.5573C281.678 46.1904 274.679 53.189 266.046 53.189H125.362C116.728 53.189 109.73 46.1904 109.73 37.5573V33.6494Z" fill="#E7EDF3"/>
</mask>
<g mask="url(#mask0)">
<path d="M62.4356 107H65.0705V100.821H71.1146V98.6122H65.0705V94.6634H71.7538V92.4545H62.4356V107ZM77.2322 107.22C78.9439 107.22 79.9666 106.418 80.4354 105.501H80.5206V107H82.9922V99.6989C82.9922 96.8153 80.6413 95.9489 78.5604 95.9489C76.2663 95.9489 74.505 96.9716 73.9368 98.9602L76.3373 99.3011C76.593 98.5554 77.3175 97.9162 78.5746 97.9162C79.7677 97.9162 80.4212 98.527 80.4212 99.5994V99.642C80.4212 100.381 79.647 100.416 77.7223 100.622C75.6058 100.849 73.5817 101.482 73.5817 103.939C73.5817 106.084 75.1513 107.22 77.2322 107.22ZM77.8999 105.331C76.8274 105.331 76.0604 104.841 76.0604 103.896C76.0604 102.909 76.9197 102.497 78.0703 102.334C78.745 102.241 80.0945 102.071 80.4283 101.801V103.087C80.4283 104.301 79.4481 105.331 77.8999 105.331ZM95.0811 96.0909H92.3467L89.8325 104.195H89.7189L87.2118 96.0909H84.4703L88.3552 107H91.1962L95.0811 96.0909ZM101.398 107.213C104.594 107.213 106.625 104.962 106.625 101.588C106.625 98.2074 104.594 95.9489 101.398 95.9489C98.2016 95.9489 96.1704 98.2074 96.1704 101.588C96.1704 104.962 98.2016 107.213 101.398 107.213ZM101.412 105.153C99.6434 105.153 98.7769 103.577 98.7769 101.581C98.7769 99.5852 99.6434 97.9872 101.412 97.9872C103.152 97.9872 104.018 99.5852 104.018 101.581C104.018 103.577 103.152 105.153 101.412 105.153ZM115.91 102.412C115.91 104.074 114.724 104.898 113.588 104.898C112.352 104.898 111.528 104.024 111.528 102.639V96.0909H108.957V103.037C108.957 105.658 110.449 107.142 112.593 107.142C114.227 107.142 115.378 106.283 115.875 105.061H115.988V107H118.481V96.0909H115.91V102.412ZM121.275 107H123.846V100.587C123.846 99.2017 124.89 98.2216 126.303 98.2216C126.737 98.2216 127.276 98.2997 127.497 98.3707V96.0057C127.262 95.9631 126.857 95.9347 126.573 95.9347C125.323 95.9347 124.279 96.6449 123.882 97.9091H123.768V96.0909H121.275V107ZM129.355 107H131.926V96.0909H129.355V107ZM130.647 94.5426C131.464 94.5426 132.132 93.9176 132.132 93.1506C132.132 92.3764 131.464 91.7514 130.647 91.7514C129.824 91.7514 129.156 92.3764 129.156 93.1506C129.156 93.9176 129.824 94.5426 130.647 94.5426ZM140.167 96.0909H138.015V93.4773H135.444V96.0909H133.896V98.0795H135.444V104.145C135.43 106.197 136.921 107.206 138.853 107.149C139.585 107.128 140.089 106.986 140.366 106.893L139.933 104.884C139.791 104.919 139.499 104.983 139.18 104.983C138.534 104.983 138.015 104.756 138.015 103.719V98.0795H140.167V96.0909ZM147.18 107.213C149.722 107.213 151.469 105.97 151.924 104.074L149.523 103.804C149.175 104.727 148.323 105.21 147.215 105.21C145.553 105.21 144.452 104.116 144.431 102.249H152.03V101.46C152.03 97.6321 149.729 95.9489 147.045 95.9489C143.92 95.9489 141.881 98.2429 141.881 101.609C141.881 105.033 143.891 107.213 147.18 107.213ZM144.438 100.516C144.516 99.1236 145.546 97.9517 147.08 97.9517C148.557 97.9517 149.552 99.0312 149.566 100.516H144.438ZM159.58 107H162.215V102.085H164.999C168.359 102.085 170.162 100.068 170.162 97.2699C170.162 94.4929 168.38 92.4545 165.035 92.4545H159.58V107ZM162.215 99.919V94.6562H164.63C166.604 94.6562 167.478 95.7216 167.478 97.2699C167.478 98.8182 166.604 99.919 164.644 99.919H162.215ZM175.059 92.4545H172.488V107H175.059V92.4545ZM180.992 107.22C182.703 107.22 183.726 106.418 184.195 105.501H184.28V107H186.752V99.6989C186.752 96.8153 184.401 95.9489 182.32 95.9489C180.026 95.9489 178.264 96.9716 177.696 98.9602L180.097 99.3011C180.352 98.5554 181.077 97.9162 182.334 97.9162C183.527 97.9162 184.181 98.527 184.181 99.5994V99.642C184.181 100.381 183.406 100.416 181.482 100.622C179.365 100.849 177.341 101.482 177.341 103.939C177.341 106.084 178.911 107.22 180.992 107.22ZM181.659 105.331C180.587 105.331 179.82 104.841 179.82 103.896C179.82 102.909 180.679 102.497 181.83 102.334C182.504 102.241 183.854 102.071 184.188 101.801V103.087C184.188 104.301 183.208 105.331 181.659 105.331ZM194.245 107.213C196.987 107.213 198.734 105.587 198.919 103.271H196.461C196.241 104.443 195.396 105.118 194.267 105.118C192.661 105.118 191.625 103.776 191.625 101.545C191.625 99.3438 192.683 98.0227 194.267 98.0227C195.502 98.0227 196.262 98.8182 196.461 99.8693H198.919C198.741 97.5043 196.894 95.9489 194.231 95.9489C191.035 95.9489 189.018 98.2571 189.018 101.588C189.018 104.891 190.985 107.213 194.245 107.213ZM206.009 107.213C208.552 107.213 210.299 105.97 210.754 104.074L208.353 103.804C208.005 104.727 207.153 105.21 206.045 105.21C204.383 105.21 203.282 104.116 203.261 102.249H210.86V101.46C210.86 97.6321 208.559 95.9489 205.874 95.9489C202.749 95.9489 200.711 98.2429 200.711 101.609C200.711 105.033 202.721 107.213 206.009 107.213ZM203.268 100.516C203.346 99.1236 204.376 97.9517 205.91 97.9517C207.387 97.9517 208.381 99.0312 208.396 100.516H203.268ZM221.807 98.9744C221.452 97.1278 219.975 95.9489 217.418 95.9489C214.79 95.9489 213.001 97.2415 213.008 99.2585C213.001 100.849 213.981 101.901 216.076 102.334L217.937 102.724C218.938 102.945 219.407 103.349 219.407 103.967C219.407 104.713 218.597 105.274 217.376 105.274C216.197 105.274 215.43 104.763 215.209 103.783L212.702 104.024C213.022 106.027 214.705 107.213 217.383 107.213C220.11 107.213 222.035 105.8 222.042 103.733C222.035 102.178 221.033 101.226 218.974 100.778L217.113 100.381C216.005 100.132 215.564 99.7486 215.572 99.1165C215.564 98.3778 216.381 97.8665 217.454 97.8665C218.64 97.8665 219.265 98.5128 219.464 99.2301L221.807 98.9744Z" fill="#0F1C26"/>
<rect x="62.0009" y="181" width="265" height="97" rx="5" fill="#D3DDE7"/>
<path d="M110.149 219H114.859C117.524 219 118.83 217.642 118.83 215.83C118.83 214.068 117.58 213.034 116.342 212.972V212.858C117.478 212.591 118.376 211.795 118.376 210.381C118.376 208.648 117.126 207.364 114.603 207.364H110.149V219ZM112.257 217.239V213.83H114.58C115.882 213.83 116.688 214.625 116.688 215.665C116.688 216.591 116.052 217.239 114.524 217.239H112.257ZM112.257 212.312V209.102H114.387C115.626 209.102 116.268 209.756 116.268 210.653C116.268 211.676 115.438 212.312 114.342 212.312H112.257ZM120.723 219H122.78V210.273H120.723V219ZM121.757 209.034C122.411 209.034 122.945 208.534 122.945 207.92C122.945 207.301 122.411 206.801 121.757 206.801C121.098 206.801 120.564 207.301 120.564 207.92C120.564 208.534 121.098 209.034 121.757 209.034ZM127.102 213.886C127.102 212.625 127.863 211.898 128.949 211.898C130.011 211.898 130.648 212.597 130.648 213.761V219H132.704V213.443C132.71 211.352 131.517 210.159 129.716 210.159C128.409 210.159 127.511 210.784 127.113 211.756H127.011V210.273H125.045V219H127.102V213.886ZM134.945 219H137.002V210.273H134.945V219ZM135.979 209.034C136.633 209.034 137.167 208.534 137.167 207.92C137.167 207.301 136.633 206.801 135.979 206.801C135.32 206.801 134.786 207.301 134.786 207.92C134.786 208.534 135.32 209.034 135.979 209.034ZM139.358 219H141.381V217.625H141.5C141.824 218.261 142.5 219.153 144 219.153C146.057 219.153 147.597 217.523 147.597 214.648C147.597 211.739 146.011 210.159 143.994 210.159C142.455 210.159 141.813 211.085 141.5 211.716H141.415V207.364H139.358V219ZM141.375 214.636C141.375 212.943 142.102 211.847 143.426 211.847C144.796 211.847 145.5 213.011 145.5 214.636C145.5 216.273 144.784 217.466 143.426 217.466C142.114 217.466 141.375 216.33 141.375 214.636ZM153.359 219.17C155.393 219.17 156.791 218.176 157.154 216.659L155.234 216.443C154.955 217.182 154.274 217.568 153.387 217.568C152.058 217.568 151.177 216.693 151.16 215.199H157.24V214.568C157.24 211.506 155.399 210.159 153.251 210.159C150.751 210.159 149.12 211.994 149.12 214.688C149.12 217.426 150.728 219.17 153.359 219.17ZM151.166 213.812C151.228 212.699 152.052 211.761 153.279 211.761C154.461 211.761 155.257 212.625 155.268 213.812H151.166ZM162.936 219.17C165.13 219.17 166.527 217.869 166.675 216.017H164.709C164.533 216.955 163.857 217.494 162.953 217.494C161.669 217.494 160.84 216.42 160.84 214.636C160.84 212.875 161.686 211.818 162.953 211.818C163.942 211.818 164.55 212.455 164.709 213.295H166.675C166.533 211.403 165.056 210.159 162.925 210.159C160.368 210.159 158.755 212.006 158.755 214.67C158.755 217.312 160.328 219.17 162.936 219.17ZM171.025 219.176C172.395 219.176 173.213 218.534 173.588 217.801H173.656V219H175.633V213.159C175.633 210.852 173.753 210.159 172.088 210.159C170.253 210.159 168.844 210.977 168.389 212.568L170.309 212.841C170.514 212.244 171.094 211.733 172.099 211.733C173.054 211.733 173.576 212.222 173.576 213.08V213.114C173.576 213.705 172.957 213.733 171.417 213.898C169.724 214.08 168.105 214.585 168.105 216.551C168.105 218.267 169.361 219.176 171.025 219.176ZM171.559 217.665C170.701 217.665 170.088 217.273 170.088 216.517C170.088 215.727 170.775 215.398 171.696 215.267C172.236 215.193 173.315 215.057 173.582 214.841V215.869C173.582 216.841 172.798 217.665 171.559 217.665ZM182.061 219H186.771C189.436 219 190.743 217.642 190.743 215.83C190.743 214.068 189.493 213.034 188.254 212.972V212.858C189.391 212.591 190.288 211.795 190.288 210.381C190.288 208.648 189.038 207.364 186.516 207.364H182.061V219ZM184.169 217.239V213.83H186.493C187.794 213.83 188.601 214.625 188.601 215.665C188.601 216.591 187.965 217.239 186.436 217.239H184.169ZM184.169 212.312V209.102H186.3C187.538 209.102 188.18 209.756 188.18 210.653C188.18 211.676 187.351 212.312 186.254 212.312H184.169ZM196.499 219.17C198.534 219.17 199.931 218.176 200.295 216.659L198.374 216.443C198.096 217.182 197.414 217.568 196.528 217.568C195.198 217.568 194.318 216.693 194.301 215.199H200.38V214.568C200.38 211.506 198.539 210.159 196.392 210.159C193.892 210.159 192.261 211.994 192.261 214.688C192.261 217.426 193.869 219.17 196.499 219.17ZM194.306 213.812C194.369 212.699 195.193 211.761 196.42 211.761C197.602 211.761 198.397 212.625 198.409 213.812H194.306ZM204.782 219.176C206.151 219.176 206.969 218.534 207.344 217.801H207.412V219H209.39V213.159C209.39 210.852 207.509 210.159 205.844 210.159C204.009 210.159 202.6 210.977 202.145 212.568L204.066 212.841C204.27 212.244 204.85 211.733 205.855 211.733C206.81 211.733 207.333 212.222 207.333 213.08V213.114C207.333 213.705 206.713 213.733 205.174 213.898C203.48 214.08 201.861 214.585 201.861 216.551C201.861 218.267 203.117 219.176 204.782 219.176ZM205.316 217.665C204.458 217.665 203.844 217.273 203.844 216.517C203.844 215.727 204.532 215.398 205.452 215.267C205.992 215.193 207.071 215.057 207.338 214.841V215.869C207.338 216.841 206.554 217.665 205.316 217.665ZM215.415 219.17C217.608 219.17 219.005 217.869 219.153 216.017H217.187C217.011 216.955 216.335 217.494 215.432 217.494C214.148 217.494 213.318 216.42 213.318 214.636C213.318 212.875 214.165 211.818 215.432 211.818C216.42 211.818 217.028 212.455 217.187 213.295H219.153C219.011 211.403 217.534 210.159 215.403 210.159C212.846 210.159 211.233 212.006 211.233 214.67C211.233 217.312 212.807 219.17 215.415 219.17ZM223.049 213.886C223.049 212.625 223.833 211.898 224.935 211.898C226.015 211.898 226.651 212.585 226.651 213.761V219H228.708V213.443C228.708 211.335 227.515 210.159 225.702 210.159C224.361 210.159 223.509 210.767 223.106 211.756H223.003V207.364H220.992V219H223.049V213.886Z" fill="#0F1C26"/>
<path fill-rule="evenodd" clip-rule="evenodd" d="M88.001 203C85.582 203 83.5643 204.718 83.101 207H87.2897C87.0423 207.17 86.8069 207.366 86.5868 207.586C84.8764 209.296 84.6642 211.938 85.9504 213.879L90.7463 209.083C90.6885 209.218 90.6305 209.359 90.5724 209.504C89.8528 211.303 89.1404 213.849 89.019 217.043C86.0033 217.31 83.3372 218.794 81.5151 221H98.4864C96.6719 218.803 94.0206 217.322 91.0204 217.047C91.1399 214.145 91.7882 211.849 92.4294 210.246C92.7845 209.359 93.1375 208.683 93.397 208.237C93.3984 208.234 93.3999 208.231 93.4013 208.229L99.0514 213.879C100.338 211.938 100.125 209.296 98.415 207.586C98.195 207.366 97.9595 207.17 97.7121 207H101.901C101.438 204.718 99.4198 203 97.0008 203C95.0218 203 93.3113 204.15 92.5009 205.818C91.6905 204.15 89.98 203 88.001 203Z" fill="#0F1C26"/>
<path d="M297.001 209C294.791 209 293.001 210.79 293.001 213C293.001 215.21 294.791 217 297.001 217C299.211 217 301.001 215.21 301.001 213C301.001 210.79 299.211 209 297.001 209ZM305.941 212C305.481 207.83 302.171 204.52 298.001 204.06V202H296.001V204.06C291.831 204.52 288.521 207.83 288.061 212H286.001V214H288.061C288.521 218.17 291.831 221.48 296.001 221.94V224H298.001V221.94C302.171 221.48 305.481 218.17 305.941 214H308.001V212H305.941ZM297.001 220C293.131 220 290.001 216.87 290.001 213C290.001 209.13 293.131 206 297.001 206C300.871 206 304.001 209.13 304.001 213C304.001 216.87 300.871 220 297.001 220Z" fill="#0F1C26"/>
<path d="M87.2097 236.455H84.7026L81.0876 238.777V241.192L84.4896 239.018H84.5748V251H87.2097V236.455ZM91.0529 251H101.024V248.798H94.6893V248.699L97.1964 246.149C100.023 243.436 100.804 242.115 100.804 240.474C100.804 238.038 98.8228 236.256 95.8967 236.256C93.0131 236.256 90.9677 238.045 90.9677 240.808H93.4748C93.4748 239.324 94.4123 238.393 95.8611 238.393C97.2461 238.393 98.2759 239.239 98.2759 240.609C98.2759 241.824 97.5373 242.69 96.1026 244.146L91.0529 249.097V251ZM103.611 240.801C103.611 242.818 104.939 244.253 107.091 244.253C109.207 244.253 110.507 242.818 110.507 240.801V240.048C110.507 238.017 109.193 236.568 107.062 236.568C104.953 236.568 103.611 238.017 103.611 240.048V240.801ZM105.351 240.048C105.351 238.912 105.926 238.017 107.062 238.017C108.22 238.017 108.767 238.912 108.767 240.048V240.801C108.767 241.966 108.22 242.818 107.091 242.818C105.926 242.818 105.351 241.966 105.351 240.801V240.048Z" fill="#0F1C26"/>
<path d="M118.293 238.211L116.952 236.871L115.901 237.927L117.235 239.266L118.293 238.211ZM116.236 242.448H114.001V243.945H116.236V242.448ZM122.942 235H121.452V237.208H122.942V235ZM128.493 237.927L127.442 236.871L126.109 238.211L127.159 239.266L128.493 237.927ZM126.101 248.181L127.435 249.528L128.486 248.473L127.144 247.133L126.101 248.181ZM128.158 242.448V243.945H130.393V242.448H128.158ZM122.197 238.705C119.731 238.705 117.726 240.719 117.726 243.196C117.726 245.674 119.731 247.687 122.197 247.687C124.663 247.687 126.668 245.674 126.668 243.196C126.668 240.719 124.663 238.705 122.197 238.705ZM121.452 251.392H122.942V249.184H121.452V251.392ZM115.901 248.466L116.952 249.521L118.285 248.174L117.235 247.118L115.901 248.466Z" fill="#0F1C26"/>
<rect x="62.0009" y="336" width="265" height="97" rx="5" fill="#D3DDE7"/>
<path d="M120.473 365.562H122.501C122.461 363.597 120.785 362.205 118.308 362.205C115.865 362.205 114.029 363.58 114.035 365.636C114.035 367.307 115.223 368.267 117.137 368.761L118.461 369.102C119.717 369.42 120.546 369.812 120.552 370.716C120.546 371.71 119.603 372.375 118.228 372.375C116.91 372.375 115.887 371.784 115.802 370.562H113.728C113.813 372.875 115.535 374.176 118.245 374.176C121.035 374.176 122.654 372.784 122.66 370.733C122.654 368.716 120.99 367.795 119.24 367.381L118.149 367.108C117.194 366.881 116.16 366.477 116.171 365.506C116.177 364.631 116.961 363.989 118.279 363.989C119.535 363.989 120.365 364.574 120.473 365.562ZM130.161 370.33C130.161 371.659 129.212 372.318 128.303 372.318C127.314 372.318 126.655 371.619 126.655 370.511V365.273H124.598V370.83C124.598 372.926 125.792 374.114 127.507 374.114C128.814 374.114 129.735 373.426 130.132 372.449H130.223V374H132.218V365.273H130.161V370.33ZM134.483 374H136.54V368.869C136.54 367.761 137.375 366.977 138.505 366.977C138.852 366.977 139.284 367.04 139.46 367.097V365.205C139.273 365.17 138.949 365.148 138.721 365.148C137.721 365.148 136.886 365.716 136.568 366.727H136.477V365.273H134.483V374ZM145.866 365.273H144.053V364.585C144.053 363.903 144.337 363.523 145.104 363.523C145.428 363.523 145.701 363.597 145.871 363.648L146.286 362.057C146.019 361.966 145.434 361.818 144.724 361.818C143.207 361.818 141.996 362.688 141.996 364.449V365.273H140.707V366.864H141.996V374H144.053V366.864H145.866V365.273ZM151.836 374H153.944V370.068H156.171C158.859 370.068 160.302 368.455 160.302 366.216C160.302 363.994 158.876 362.364 156.2 362.364H151.836V374ZM153.944 368.335V364.125H155.876C157.455 364.125 158.154 364.977 158.154 366.216C158.154 367.455 157.455 368.335 155.887 368.335H153.944ZM167.755 370.33C167.755 371.659 166.806 372.318 165.897 372.318C164.908 372.318 164.249 371.619 164.249 370.511V365.273H162.192V370.83C162.192 372.926 163.385 374.114 165.101 374.114C166.408 374.114 167.328 373.426 167.726 372.449H167.817V374H169.811V365.273H167.755V370.33ZM174.133 368.886C174.133 367.625 174.895 366.898 175.98 366.898C177.042 366.898 177.679 367.597 177.679 368.761V374H179.736V368.443C179.741 366.352 178.548 365.159 176.747 365.159C175.44 365.159 174.542 365.784 174.145 366.756H174.042V365.273H172.076V374H174.133V368.886ZM186.334 365.273H184.613V363.182H182.556V365.273H181.317V366.864H182.556V371.716C182.545 373.358 183.738 374.165 185.283 374.119C185.869 374.102 186.272 373.989 186.494 373.915L186.147 372.307C186.033 372.335 185.8 372.386 185.545 372.386C185.028 372.386 184.613 372.205 184.613 371.375V366.864H186.334V365.273ZM190.716 374.176C192.085 374.176 192.903 373.534 193.278 372.801H193.347V374H195.324V368.159C195.324 365.852 193.443 365.159 191.778 365.159C189.943 365.159 188.534 365.977 188.08 367.568L190 367.841C190.205 367.244 190.784 366.733 191.79 366.733C192.744 366.733 193.267 367.222 193.267 368.08V368.114C193.267 368.705 192.648 368.733 191.108 368.898C189.415 369.08 187.796 369.585 187.796 371.551C187.796 373.267 189.051 374.176 190.716 374.176ZM191.25 372.665C190.392 372.665 189.778 372.273 189.778 371.517C189.778 370.727 190.466 370.398 191.386 370.267C191.926 370.193 193.006 370.057 193.273 369.841V370.869C193.273 371.841 192.489 372.665 191.25 372.665ZM201.752 374H203.86V370.068H206.087C208.774 370.068 210.218 368.455 210.218 366.216C210.218 363.994 208.792 362.364 206.115 362.364H201.752V374ZM203.86 368.335V364.125H205.792C207.371 364.125 208.07 364.977 208.07 366.216C208.07 367.455 207.371 368.335 205.803 368.335H203.86ZM212.108 374H214.165V368.869C214.165 367.761 215 366.977 216.13 366.977C216.477 366.977 216.909 367.04 217.085 367.097V365.205C216.898 365.17 216.574 365.148 216.346 365.148C215.346 365.148 214.511 365.716 214.193 366.727H214.102V365.273H212.108V374ZM218.601 374H220.658V365.273H218.601V374ZM219.636 364.034C220.289 364.034 220.823 363.534 220.823 362.92C220.823 362.301 220.289 361.801 219.636 361.801C218.976 361.801 218.442 362.301 218.442 362.92C218.442 363.534 218.976 364.034 219.636 364.034ZM222.923 374H224.98V368.693C224.98 367.619 225.696 366.892 226.582 366.892C227.452 366.892 228.048 367.477 228.048 368.375V374H230.065V368.557C230.065 367.574 230.651 366.892 231.645 366.892C232.474 366.892 233.134 367.381 233.134 368.46V374H235.196V368.142C235.196 366.193 234.071 365.159 232.469 365.159C231.202 365.159 230.236 365.784 229.849 366.756H229.759C229.423 365.767 228.577 365.159 227.401 365.159C226.23 365.159 225.355 365.761 224.992 366.756H224.889V365.273H222.923V374ZM239.944 374.176C241.313 374.176 242.132 373.534 242.507 372.801H242.575V374H244.552V368.159C244.552 365.852 242.671 365.159 241.007 365.159C239.171 365.159 237.762 365.977 237.308 367.568L239.228 367.841C239.433 367.244 240.012 366.733 241.018 366.733C241.973 366.733 242.495 367.222 242.495 368.08V368.114C242.495 368.705 241.876 368.733 240.336 368.898C238.643 369.08 237.024 369.585 237.024 371.551C237.024 373.267 238.279 374.176 239.944 374.176ZM240.478 372.665C239.62 372.665 239.007 372.273 239.007 371.517C239.007 370.727 239.694 370.398 240.615 370.267C241.154 370.193 242.234 370.057 242.501 369.841V370.869C242.501 371.841 241.717 372.665 240.478 372.665Z" fill="#0F1C26"/>
<path fill-rule="evenodd" clip-rule="evenodd" d="M81.2938 375.293L80.0009 374C80.0009 374 90.0009 358 100.001 358C100.001 368 84.0009 378 84.0009 378L82.708 376.707L100.001 358L81.2938 375.293Z" fill="#0F1C26"/>
<path d="M87.2097 391.455H84.7026L81.0876 393.777V396.192L84.4896 394.018H84.5748V406H87.2097V391.455ZM96.9691 391.455H94.462L90.8469 393.777V396.192L94.2489 394.018H94.3342V406H96.9691V391.455ZM100.798 395.801C100.798 397.818 102.126 399.253 104.278 399.253C106.395 399.253 107.694 397.818 107.694 395.801V395.048C107.694 393.017 106.38 391.568 104.25 391.568C102.14 391.568 100.798 393.017 100.798 395.048V395.801ZM102.538 395.048C102.538 393.912 103.113 393.017 104.25 393.017C105.407 393.017 105.954 393.912 105.954 395.048V395.801C105.954 396.966 105.407 397.818 104.278 397.818C103.113 397.818 102.538 396.966 102.538 395.801V395.048Z" fill="#0F1C26"/>
<path d="M115.293 393.211L113.952 391.871L112.901 392.927L114.235 394.266L115.293 393.211ZM113.236 397.448H111.001V398.945H113.236V397.448ZM119.942 390H118.452V392.208H119.942V390ZM125.493 392.927L124.442 391.871L123.109 393.211L124.159 394.266L125.493 392.927ZM123.101 403.181L124.435 404.528L125.486 403.473L124.144 402.133L123.101 403.181ZM125.158 397.448V398.945H127.393V397.448H125.158ZM119.197 393.705C116.731 393.705 114.726 395.719 114.726 398.196C114.726 400.674 116.731 402.687 119.197 402.687C121.663 402.687 123.668 400.674 123.668 398.196C123.668 395.719 121.663 393.705 119.197 393.705ZM118.452 406.392H119.942V404.184H118.452V406.392ZM112.901 403.466L113.952 404.521L115.285 403.174L114.235 402.118L112.901 403.466Z" fill="#0F1C26"/>
<path d="M298.501 371.27L304.99 375L303.268 367.97L309.001 363.24L301.451 362.63L298.501 356L295.55 362.63L288.001 363.24L293.734 367.97L292.012 375L298.501 371.27Z" fill="#0F1C26"/>
<rect x="62.0009" y="451" width="265" height="97" rx="5" fill="#D3DDE7"/>
<path d="M118.092 489C121.637 489 123.74 486.807 123.74 483.17C123.74 479.545 121.637 477.364 118.171 477.364H114.149V489H118.092ZM116.257 487.176V479.188H118.052C120.416 479.188 121.649 480.506 121.649 483.17C121.649 485.847 120.416 487.176 117.99 487.176H116.257ZM125.801 489H127.858V480.273H125.801V489ZM126.836 479.034C127.489 479.034 128.023 478.534 128.023 477.92C128.023 477.301 127.489 476.801 126.836 476.801C126.176 476.801 125.642 477.301 125.642 477.92C125.642 478.534 126.176 479.034 126.836 479.034ZM137.919 480.273H135.731L133.72 486.756H133.629L131.623 480.273H129.43L132.538 489H134.811L137.919 480.273ZM139.492 489H141.549V480.273H139.492V489ZM140.526 479.034C141.18 479.034 141.714 478.534 141.714 477.92C141.714 477.301 141.18 476.801 140.526 476.801C139.867 476.801 139.333 477.301 139.333 477.92C139.333 478.534 139.867 479.034 140.526 479.034ZM145.871 483.886C145.871 482.625 146.632 481.898 147.717 481.898C148.78 481.898 149.416 482.597 149.416 483.761V489H151.473V483.443C151.479 481.352 150.286 480.159 148.484 480.159C147.178 480.159 146.28 480.784 145.882 481.756H145.78V480.273H143.814V489H145.871V483.886ZM157.509 492.455C159.867 492.455 161.606 491.375 161.606 489.142V480.273H159.578V481.716H159.464C159.151 481.085 158.498 480.159 156.958 480.159C154.941 480.159 153.356 481.739 153.356 484.608C153.356 487.455 154.941 488.875 156.953 488.875C158.447 488.875 159.146 488.074 159.464 487.432H159.566V489.085C159.566 490.369 158.714 490.898 157.544 490.898C156.305 490.898 155.759 490.312 155.509 489.801L153.657 490.25C154.032 491.472 155.288 492.455 157.509 492.455ZM157.526 487.261C156.169 487.261 155.453 486.205 155.453 484.597C155.453 483.011 156.157 481.847 157.526 481.847C158.85 481.847 159.578 482.943 159.578 484.597C159.578 486.261 158.839 487.261 157.526 487.261ZM168.074 489H170.182V485.068H172.409C175.096 485.068 176.54 483.455 176.54 481.216C176.54 478.994 175.113 477.364 172.437 477.364H168.074V489ZM170.182 483.335V479.125H172.113C173.693 479.125 174.392 479.977 174.392 481.216C174.392 482.455 173.693 483.335 172.125 483.335H170.182ZM183.992 485.33C183.992 486.659 183.043 487.318 182.134 487.318C181.146 487.318 180.486 486.619 180.486 485.511V480.273H178.43V485.83C178.43 487.926 179.623 489.114 181.339 489.114C182.646 489.114 183.566 488.426 183.964 487.449H184.055V489H186.049V480.273H183.992V485.33ZM190.371 483.886C190.371 482.625 191.132 481.898 192.217 481.898C193.28 481.898 193.916 482.597 193.916 483.761V489H195.973V483.443C195.979 481.352 194.786 480.159 192.984 480.159C191.678 480.159 190.78 480.784 190.382 481.756H190.28V480.273H188.314V489H190.371V483.886ZM202.572 480.273H200.85V478.182H198.794V480.273H197.555V481.864H198.794V486.716C198.782 488.358 199.975 489.165 201.521 489.119C202.106 489.102 202.509 488.989 202.731 488.915L202.384 487.307C202.271 487.335 202.038 487.386 201.782 487.386C201.265 487.386 200.85 487.205 200.85 486.375V481.864H202.572V480.273ZM206.953 489.176C208.323 489.176 209.141 488.534 209.516 487.801H209.584V489H211.561V483.159C211.561 480.852 209.681 480.159 208.016 480.159C206.181 480.159 204.772 480.977 204.317 482.568L206.238 482.841C206.442 482.244 207.022 481.733 208.027 481.733C208.982 481.733 209.505 482.222 209.505 483.08V483.114C209.505 483.705 208.885 483.733 207.346 483.898C205.652 484.08 204.033 484.585 204.033 486.551C204.033 488.267 205.289 489.176 206.953 489.176ZM207.488 487.665C206.63 487.665 206.016 487.273 206.016 486.517C206.016 485.727 206.703 485.398 207.624 485.267C208.164 485.193 209.243 485.057 209.51 484.841V485.869C209.51 486.841 208.726 487.665 207.488 487.665ZM227.552 477.364H225.455V485.295H225.353L219.876 477.364H217.989V489H220.097V481.074H220.194L225.677 489H227.552V477.364ZM232.419 489.176C233.788 489.176 234.607 488.534 234.982 487.801H235.05V489H237.027V483.159C237.027 480.852 235.146 480.159 233.482 480.159C231.646 480.159 230.237 480.977 229.783 482.568L231.703 482.841C231.908 482.244 232.487 481.733 233.493 481.733C234.448 481.733 234.97 482.222 234.97 483.08V483.114C234.97 483.705 234.351 483.733 232.811 483.898C231.118 484.08 229.499 484.585 229.499 486.551C229.499 488.267 230.754 489.176 232.419 489.176ZM232.953 487.665C232.095 487.665 231.482 487.273 231.482 486.517C231.482 485.727 232.169 485.398 233.09 485.267C233.629 485.193 234.709 485.057 234.976 484.841V485.869C234.976 486.841 234.192 487.665 232.953 487.665ZM243.603 480.273H241.882V478.182H239.825V480.273H238.586V481.864H239.825V486.716C239.813 488.358 241.007 489.165 242.552 489.119C243.137 489.102 243.541 488.989 243.762 488.915L243.416 487.307C243.302 487.335 243.069 487.386 242.813 487.386C242.296 487.386 241.882 487.205 241.882 486.375V481.864H243.603V480.273ZM245.473 489H247.53V480.273H245.473V489ZM246.507 479.034C247.161 479.034 247.695 478.534 247.695 477.92C247.695 477.301 247.161 476.801 246.507 476.801C245.848 476.801 245.314 477.301 245.314 477.92C245.314 478.534 245.848 479.034 246.507 479.034Z" fill="#0F1C26"/>
<path fill-rule="evenodd" clip-rule="evenodd" d="M96.0009 469H94.0009V473H96.0009V469ZM98.0009 477H96.0009C96.0009 475.895 95.1055 475 94.0009 475H82.0009C80.8963 475 80.0009 475.895 80.0009 477H78.0009V481H80.0009C80.0009 483.209 81.7918 485 84.0009 485H86.0009L86.5867 484.414L88.0009 483L89.4151 484.414L90.0009 485H92.0009C92.7295 485 93.4126 484.805 94.0009 484.465V487C94.0009 488.381 92.8816 489.5 91.5009 489.5C90.1202 489.5 89.0009 488.381 89.0009 487H87.0009C87.0009 489.485 89.0156 491.5 91.5009 491.5C93.9862 491.5 96.0009 489.485 96.0009 487V481H98.0009V477ZM94.0009 481V477H82.0009V481C82.0009 482.105 82.8963 483 84.0009 483H85.1725L86.5867 481.586L88.0009 480.172L89.4151 481.586L90.8293 483H92.0009C93.1055 483 94.0009 482.105 94.0009 481Z" fill="#0F1C26"/>
<path d="M86.3432 506.256C83.1898 506.234 81.0947 508.401 81.0947 511.241C81.1018 513.983 83.0549 515.964 85.6046 515.964C87.1742 515.964 88.5378 515.205 89.241 513.955H89.3404C89.3333 517.065 88.204 518.919 86.1941 518.919C84.937 518.919 84.0918 518.195 83.829 517.037H81.2367C81.535 519.445 83.4384 521.199 86.1941 521.199C89.6813 521.199 91.9043 518.287 91.8972 513.28C91.8901 507.982 89.1344 506.27 86.3432 506.256ZM86.3503 508.386C87.9057 508.386 89.0492 509.679 89.0492 511.163C89.0563 512.669 87.856 513.962 86.3219 513.962C84.7736 513.962 83.6586 512.74 83.6515 511.185C83.6515 509.622 84.8092 508.386 86.3503 508.386ZM94.3981 510.801C94.3981 512.818 95.7262 514.253 97.8782 514.253C99.9947 514.253 101.294 512.818 101.294 510.801V510.048C101.294 508.017 99.9805 506.568 97.8498 506.568C95.7404 506.568 94.3981 508.017 94.3981 510.048V510.801ZM96.1381 510.048C96.1381 508.912 96.7134 508.017 97.8498 508.017C99.0074 508.017 99.5543 508.912 99.5543 510.048V510.801C99.5543 511.966 99.0074 512.818 97.8782 512.818C96.7134 512.818 96.1381 511.966 96.1381 510.801V510.048Z" fill="#0F1C26"/>
<path d="M123.224 511.125C122.753 508.769 120.683 507 118.197 507C116.223 507 114.509 508.12 113.655 509.759C111.599 509.978 110.001 511.72 110.001 513.83C110.001 516.091 111.838 517.928 114.099 517.928H122.978C124.863 517.928 126.393 516.398 126.393 514.513C126.393 512.71 124.993 511.248 123.224 511.125Z" fill="#0F1C26"/>
<path d="M298.501 486.27L304.99 490L303.268 482.97L309.001 478.24L301.451 477.63L298.501 471L295.55 477.63L288.001 478.24L293.734 482.97L292.012 490L298.501 486.27Z" fill="#0F1C26"/>
<path d="M72.7736 155C72.3418 152.614 70.4327 151.205 68.0918 151.205C65.1146 151.205 62.9555 153.5 62.9555 157.182C62.9555 160.864 65.1146 163.159 68.0918 163.159C70.4327 163.159 72.3418 161.75 72.7736 159.364H71.3646C71.0236 160.977 69.6373 161.841 68.0918 161.841C65.9782 161.841 64.3191 160.205 64.3191 157.182C64.3191 154.159 65.9782 152.523 68.0918 152.523C69.6373 152.523 71.0236 153.386 71.3646 155H72.7736ZM80.5188 159.432C80.5188 161.068 79.2688 161.818 78.2688 161.818C77.1552 161.818 76.3597 161 76.3597 159.727V154.273H75.0188V159.818C75.0188 162.045 76.2006 163.114 77.837 163.114C79.1552 163.114 80.0188 162.409 80.4279 161.523H80.5188V163H81.8597V154.273H80.5188V159.432ZM84.4657 163H85.8066V157.477C85.8066 156.295 86.7384 155.432 88.0111 155.432C88.3691 155.432 88.7384 155.5 88.8293 155.523V154.159C88.6759 154.148 88.3236 154.136 88.1248 154.136C87.0793 154.136 86.1702 154.727 85.8521 155.591H85.7611V154.273H84.4657V163ZM90.5688 163H91.9097V157.477C91.9097 156.295 92.8415 155.432 94.1143 155.432C94.4722 155.432 94.8415 155.5 94.9325 155.523V154.159C94.779 154.148 94.4268 154.136 94.2279 154.136C93.1825 154.136 92.2734 154.727 91.9552 155.591H91.8643V154.273H90.5688V163ZM100.065 163.182C101.838 163.182 103.134 162.295 103.543 160.977L102.247 160.614C101.906 161.523 101.117 161.977 100.065 161.977C98.4915 161.977 97.4063 160.96 97.3438 159.091H103.679V158.523C103.679 155.273 101.747 154.159 99.929 154.159C97.5654 154.159 95.9972 156.023 95.9972 158.705C95.9972 161.386 97.5427 163.182 100.065 163.182ZM97.3438 157.932C97.4347 156.574 98.3949 155.364 99.929 155.364C101.384 155.364 102.315 156.455 102.315 157.932H97.3438ZM107.21 157.75C107.21 156.227 108.153 155.364 109.437 155.364C110.681 155.364 111.437 156.176 111.437 157.545V163H112.778V157.455C112.778 155.227 111.59 154.159 109.823 154.159C108.505 154.159 107.687 154.75 107.278 155.636H107.164V154.273H105.869V163H107.21V157.75ZM119.174 154.273H117.31V152.182H115.969V154.273H114.651V155.409H115.969V160.864C115.969 162.386 117.196 163.114 118.333 163.114C118.833 163.114 119.151 163.023 119.333 162.955L119.06 161.75C118.946 161.773 118.765 161.818 118.469 161.818C117.878 161.818 117.31 161.636 117.31 160.5V155.409H119.174V154.273Z" fill="#0F1C26"/>
<path d="M63.41 314H64.8191V308.795H69.8646V307.545H64.8191V303.614H70.3873V302.364H63.41V314ZM75.337 314.205C76.8597 314.205 77.6552 313.386 77.9279 312.818H77.9961V314H79.337V308.25C79.337 305.477 77.2234 305.159 76.1097 305.159C74.7915 305.159 73.2915 305.614 72.6097 307.205L73.8824 307.659C74.1779 307.023 74.8768 306.341 76.1552 306.341C77.3881 306.341 77.9961 306.994 77.9961 308.114V308.159C77.9961 308.807 77.337 308.75 75.7461 308.955C74.1268 309.165 72.3597 309.523 72.3597 311.523C72.3597 313.227 73.6779 314.205 75.337 314.205ZM75.5415 313C74.4734 313 73.7006 312.523 73.7006 311.591C73.7006 310.568 74.6324 310.25 75.6779 310.114C76.2461 310.045 77.7688 309.886 77.9961 309.614V310.841C77.9961 311.932 77.1324 313 75.5415 313ZM88.7583 305.273H87.3038L84.8947 312.227H84.8038L82.3947 305.273H80.9401L84.1674 314H85.531L88.7583 305.273ZM93.9111 314.182C96.2748 314.182 97.8657 312.386 97.8657 309.682C97.8657 306.955 96.2748 305.159 93.9111 305.159C91.5475 305.159 89.9566 306.955 89.9566 309.682C89.9566 312.386 91.5475 314.182 93.9111 314.182ZM93.9111 312.977C92.1157 312.977 91.2975 311.432 91.2975 309.682C91.2975 307.932 92.1157 306.364 93.9111 306.364C95.7066 306.364 96.5248 307.932 96.5248 309.682C96.5248 311.432 95.7066 312.977 93.9111 312.977ZM105.563 310.432C105.563 312.068 104.313 312.818 103.313 312.818C102.199 312.818 101.403 312 101.403 310.727V305.273H100.063V310.818C100.063 313.045 101.244 314.114 102.881 314.114C104.199 314.114 105.063 313.409 105.472 312.523H105.563V314H106.903V305.273H105.563V310.432ZM109.509 314H110.85V308.477C110.85 307.295 111.782 306.432 113.055 306.432C113.413 306.432 113.782 306.5 113.873 306.523V305.159C113.72 305.148 113.367 305.136 113.169 305.136C112.123 305.136 111.214 305.727 110.896 306.591H110.805V305.273H109.509V314ZM115.613 314H116.953V305.273H115.613V314ZM116.294 303.818C116.817 303.818 117.249 303.409 117.249 302.909C117.249 302.409 116.817 302 116.294 302C115.772 302 115.34 302.409 115.34 302.909C115.34 303.409 115.772 303.818 116.294 303.818ZM123.355 305.273H121.491V303.182H120.15V305.273H118.832V306.409H120.15V311.864C120.15 313.386 121.378 314.114 122.514 314.114C123.014 314.114 123.332 314.023 123.514 313.955L123.241 312.75C123.128 312.773 122.946 312.818 122.65 312.818C122.059 312.818 121.491 312.636 121.491 311.5V306.409H123.355V305.273ZM129.087 314.182C130.86 314.182 132.155 313.295 132.565 311.977L131.269 311.614C130.928 312.523 130.138 312.977 129.087 312.977C127.513 312.977 126.428 311.96 126.366 310.091H132.701V309.523C132.701 306.273 130.769 305.159 128.951 305.159C126.587 305.159 125.019 307.023 125.019 309.705C125.019 312.386 126.565 314.182 129.087 314.182ZM126.366 308.932C126.457 307.574 127.417 306.364 128.951 306.364C130.405 306.364 131.337 307.455 131.337 308.932H126.366Z" fill="#0F1C26"/>
<path d="M63.41 583H64.8191V578.455H67.3646C67.4668 578.455 67.5634 578.455 67.66 578.449L70.1146 583H71.7509L69.1202 578.193C70.6032 577.688 71.2964 576.477 71.2964 574.932C71.2964 572.875 70.0691 571.364 67.3418 571.364H63.41V583ZM64.8191 577.182V572.614H67.2964C69.1827 572.614 69.91 573.534 69.91 574.932C69.91 576.33 69.1827 577.182 67.3191 577.182H64.8191ZM77.1779 583.182C78.9506 583.182 80.2461 582.295 80.6552 580.977L79.3597 580.614C79.0188 581.523 78.229 581.977 77.1779 581.977C75.604 581.977 74.5188 580.96 74.4563 579.091H80.7915V578.523C80.7915 575.273 78.8597 574.159 77.0415 574.159C74.6779 574.159 73.1097 576.023 73.1097 578.705C73.1097 581.386 74.6552 583.182 77.1779 583.182ZM74.4563 577.932C74.5472 576.574 75.5074 575.364 77.0415 575.364C78.4961 575.364 79.4279 576.455 79.4279 577.932H74.4563ZM86.5268 583.182C88.4586 583.182 89.7313 582 89.9586 580.455H88.6177C88.3677 581.409 87.5722 581.977 86.5268 581.977C84.9359 581.977 83.9131 580.659 83.9131 578.636C83.9131 576.659 84.9586 575.364 86.5268 575.364C87.7086 575.364 88.4131 576.091 88.6177 576.886H89.9586C89.7313 575.25 88.3449 574.159 86.504 574.159C84.1404 574.159 82.5722 576.023 82.5722 578.682C82.5722 581.295 84.0722 583.182 86.5268 583.182ZM95.7279 583.182C97.5006 583.182 98.7961 582.295 99.2052 580.977L97.9097 580.614C97.5688 581.523 96.779 581.977 95.7279 581.977C94.154 581.977 93.0688 580.96 93.0063 579.091H99.3415V578.523C99.3415 575.273 97.4097 574.159 95.5915 574.159C93.2279 574.159 91.6597 576.023 91.6597 578.705C91.6597 581.386 93.2052 583.182 95.7279 583.182ZM93.0063 577.932C93.0972 576.574 94.0575 575.364 95.5915 575.364C97.0461 575.364 97.9779 576.455 97.9779 577.932H93.0063ZM102.872 577.75C102.872 576.227 103.815 575.364 105.099 575.364C106.344 575.364 107.099 576.176 107.099 577.545V583H108.44V577.455C108.44 575.227 107.253 574.159 105.486 574.159C104.168 574.159 103.349 574.75 102.94 575.636H102.827V574.273H101.531V583H102.872V577.75ZM114.836 574.273H112.973V572.182H111.632V574.273H110.313V575.409H111.632V580.864C111.632 582.386 112.859 583.114 113.995 583.114C114.495 583.114 114.813 583.023 114.995 582.955L114.723 581.75C114.609 581.773 114.427 581.818 114.132 581.818C113.541 581.818 112.973 581.636 112.973 580.5V575.409H114.836V574.273ZM127.835 576.227C127.415 574.989 126.471 574.159 124.744 574.159C122.903 574.159 121.54 575.205 121.54 576.682C121.54 577.886 122.255 578.693 123.858 579.068L125.312 579.409C126.193 579.614 126.608 580.034 126.608 580.636C126.608 581.386 125.812 582 124.562 582C123.466 582 122.778 581.528 122.54 580.591L121.267 580.909C121.579 582.392 122.801 583.182 124.585 583.182C126.613 583.182 127.994 582.074 127.994 580.568C127.994 579.352 127.233 578.585 125.676 578.205L124.38 577.886C123.346 577.631 122.88 577.284 122.88 576.614C122.88 575.864 123.676 575.318 124.744 575.318C125.915 575.318 126.398 575.966 126.63 576.568L127.835 576.227ZM133.822 583.182C135.594 583.182 136.89 582.295 137.299 580.977L136.003 580.614C135.663 581.523 134.873 581.977 133.822 581.977C132.248 581.977 131.163 580.96 131.1 579.091H137.435V578.523C137.435 575.273 135.503 574.159 133.685 574.159C131.322 574.159 129.753 576.023 129.753 578.705C129.753 581.386 131.299 583.182 133.822 583.182ZM131.1 577.932C131.191 576.574 132.151 575.364 133.685 575.364C135.14 575.364 136.072 576.455 136.072 577.932H131.1ZM142.193 583.205C143.716 583.205 144.511 582.386 144.784 581.818H144.852V583H146.193V577.25C146.193 574.477 144.08 574.159 142.966 574.159C141.648 574.159 140.148 574.614 139.466 576.205L140.739 576.659C141.034 576.023 141.733 575.341 143.011 575.341C144.244 575.341 144.852 575.994 144.852 577.114V577.159C144.852 577.807 144.193 577.75 142.602 577.955C140.983 578.165 139.216 578.523 139.216 580.523C139.216 582.227 140.534 583.205 142.193 583.205ZM142.398 582C141.33 582 140.557 581.523 140.557 580.591C140.557 579.568 141.489 579.25 142.534 579.114C143.102 579.045 144.625 578.886 144.852 578.614V579.841C144.852 580.932 143.989 582 142.398 582ZM148.791 583H150.132V577.477C150.132 576.295 151.063 575.432 152.336 575.432C152.694 575.432 153.063 575.5 153.154 575.523V574.159C153.001 574.148 152.649 574.136 152.45 574.136C151.404 574.136 150.495 574.727 150.177 575.591H150.086V574.273H148.791V583ZM158.174 583.182C160.105 583.182 161.378 582 161.605 580.455H160.265C160.015 581.409 159.219 581.977 158.174 581.977C156.583 581.977 155.56 580.659 155.56 578.636C155.56 576.659 156.605 575.364 158.174 575.364C159.355 575.364 160.06 576.091 160.265 576.886H161.605C161.378 575.25 159.992 574.159 158.151 574.159C155.787 574.159 154.219 576.023 154.219 578.682C154.219 581.295 155.719 583.182 158.174 583.182ZM165.057 577.75C165.057 576.227 166.028 575.364 167.352 575.364C168.613 575.364 169.375 576.159 169.375 577.545V583H170.716V577.455C170.716 575.21 169.523 574.159 167.738 574.159C166.363 574.159 165.579 574.733 165.17 575.636H165.057V571.364H163.716V583H165.057V577.75ZM176.978 583.182C178.751 583.182 180.046 582.295 180.455 580.977L179.16 580.614C178.819 581.523 178.029 581.977 176.978 581.977C175.404 581.977 174.319 580.96 174.256 579.091H180.592V578.523C180.592 575.273 178.66 574.159 176.842 574.159C174.478 574.159 172.91 576.023 172.91 578.705C172.91 581.386 174.455 583.182 176.978 583.182ZM174.256 577.932C174.347 576.574 175.307 575.364 176.842 575.364C178.296 575.364 179.228 576.455 179.228 577.932H174.256ZM188.963 576.227C188.543 574.989 187.599 574.159 185.872 574.159C184.031 574.159 182.668 575.205 182.668 576.682C182.668 577.886 183.384 578.693 184.986 579.068L186.44 579.409C187.321 579.614 187.736 580.034 187.736 580.636C187.736 581.386 186.94 582 185.69 582C184.594 582 183.906 581.528 183.668 580.591L182.395 580.909C182.707 582.392 183.929 583.182 185.713 583.182C187.742 583.182 189.122 582.074 189.122 580.568C189.122 579.352 188.361 578.585 186.804 578.205L185.509 577.886C184.474 577.631 184.009 577.284 184.009 576.614C184.009 575.864 184.804 575.318 185.872 575.318C187.043 575.318 187.526 575.966 187.759 576.568L188.963 576.227Z" fill="#0F1C26"/>
<rect x="62.0009" y="606" width="265" height="97" rx="5" fill="#D3DDE7"/>
<path d="M120.473 635.562H122.501C122.461 633.597 120.785 632.205 118.308 632.205C115.865 632.205 114.029 633.58 114.035 635.636C114.035 637.307 115.223 638.267 117.137 638.761L118.461 639.102C119.717 639.42 120.546 639.812 120.552 640.716C120.546 641.71 119.603 642.375 118.228 642.375C116.91 642.375 115.887 641.784 115.802 640.562H113.728C113.813 642.875 115.535 644.176 118.245 644.176C121.035 644.176 122.654 642.784 122.66 640.733C122.654 638.716 120.99 637.795 119.24 637.381L118.149 637.108C117.194 636.881 116.16 636.477 116.171 635.506C116.177 634.631 116.961 633.989 118.279 633.989C119.535 633.989 120.365 634.574 120.473 635.562ZM127.11 644.176C128.479 644.176 129.297 643.534 129.672 642.801H129.74V644H131.718V638.159C131.718 635.852 129.837 635.159 128.172 635.159C126.337 635.159 124.928 635.977 124.473 637.568L126.394 637.841C126.598 637.244 127.178 636.733 128.184 636.733C129.138 636.733 129.661 637.222 129.661 638.08V638.114C129.661 638.705 129.042 638.733 127.502 638.898C125.809 639.08 124.189 639.585 124.189 641.551C124.189 643.267 125.445 644.176 127.11 644.176ZM127.644 642.665C126.786 642.665 126.172 642.273 126.172 641.517C126.172 640.727 126.86 640.398 127.78 640.267C128.32 640.193 129.399 640.057 129.667 639.841V640.869C129.667 641.841 128.882 642.665 127.644 642.665ZM135.993 638.886C135.993 637.625 136.754 636.898 137.839 636.898C138.902 636.898 139.538 637.597 139.538 638.761V644H141.595V638.443C141.601 636.352 140.407 635.159 138.606 635.159C137.299 635.159 136.402 635.784 136.004 636.756H135.902V635.273H133.936V644H135.993V638.886ZM148.194 635.273H146.472V633.182H144.415V635.273H143.177V636.864H144.415V641.716C144.404 643.358 145.597 644.165 147.143 644.119C147.728 644.102 148.131 643.989 148.353 643.915L148.006 642.307C147.893 642.335 147.66 642.386 147.404 642.386C146.887 642.386 146.472 642.205 146.472 641.375V636.864H148.194V635.273ZM154.274 644H161.507V642.233H156.382V632.364H154.274V644ZM165.452 632.364H163.395V644H165.452V632.364ZM173.28 640.33C173.28 641.659 172.331 642.318 171.422 642.318C170.433 642.318 169.774 641.619 169.774 640.511V635.273H167.717V640.83C167.717 642.926 168.91 644.114 170.626 644.114C171.933 644.114 172.853 643.426 173.251 642.449H173.342V644H175.336V635.273H173.28V640.33ZM177.601 644H179.658V635.273H177.601V644ZM177.846 634.125H179.386L181.13 631.528H179.119L177.846 634.125ZM188.821 637.58C188.537 636.102 187.355 635.159 185.31 635.159C183.207 635.159 181.776 636.193 181.781 637.807C181.776 639.08 182.56 639.92 184.236 640.267L185.724 640.58C186.526 640.756 186.901 641.08 186.901 641.574C186.901 642.17 186.253 642.619 185.276 642.619C184.332 642.619 183.719 642.21 183.543 641.426L181.537 641.619C181.793 643.222 183.139 644.17 185.281 644.17C187.463 644.17 189.003 643.04 189.009 641.386C189.003 640.142 188.202 639.381 186.554 639.023L185.065 638.705C184.179 638.506 183.827 638.199 183.832 637.693C183.827 637.102 184.48 636.693 185.338 636.693C186.287 636.693 186.787 637.21 186.946 637.784L188.821 637.58Z" fill="#0F1C26"/>
<path d="M86.464 676.199C89.6103 676.199 91.8617 674.466 91.8688 672.101C91.8617 670.283 90.5194 668.763 88.829 668.479V668.379C90.2992 668.053 91.3219 666.732 91.329 665.155C91.3219 662.918 89.2623 661.256 86.464 661.256C83.6444 661.256 81.5847 662.911 81.5918 665.155C81.5847 666.732 82.5932 668.053 84.0918 668.379V668.479C82.3731 668.763 81.0449 670.283 81.0521 672.101C81.0449 674.466 83.2893 676.199 86.464 676.199ZM86.464 674.168C84.8163 674.168 83.7509 673.259 83.7651 671.916C83.7509 670.524 84.8944 669.537 86.464 669.537C88.0123 669.537 89.1486 670.531 89.1628 671.916C89.1486 673.259 88.0904 674.168 86.464 674.168ZM86.464 667.541C85.1146 667.541 84.1486 666.668 84.1628 665.403C84.1486 664.153 85.0861 663.315 86.464 663.315C87.8205 663.315 88.7509 664.153 88.7651 665.403C88.7509 666.675 87.7921 667.541 86.464 667.541ZM94.3395 665.801C94.3395 667.818 95.6676 669.253 97.8196 669.253C99.9361 669.253 101.236 667.818 101.236 665.801V665.048C101.236 663.017 99.9219 661.568 97.7912 661.568C95.6818 661.568 94.3395 663.017 94.3395 665.048V665.801ZM96.0795 665.048C96.0795 663.912 96.6548 663.017 97.7912 663.017C98.9489 663.017 99.4957 663.912 99.4957 665.048V665.801C99.4957 666.966 98.9489 667.818 97.8196 667.818C96.6548 667.818 96.0795 666.966 96.0795 665.801V665.048Z" fill="#0F1C26"/>
<path d="M298.75 640.837L298.501 640.693L298.252 640.837L292.775 643.984L294.22 638.089L294.294 637.784L294.052 637.584L289.27 633.639L295.591 633.128L295.887 633.104L296.007 632.833L298.501 627.23L300.995 632.833L301.115 633.104L301.411 633.128L307.732 633.639L302.95 637.584L302.708 637.784L302.782 638.089L304.226 643.984L298.75 640.837Z" stroke="#0F1C26"/>
<path fill-rule="evenodd" clip-rule="evenodd" d="M82.0009 626H92.0009V632H102.001V646H100.001V634H96.0009V646H92.0009H86.0009V632H90.0009V628H86.0009H84.0009V632V646H82.0009V626ZM92.0009 634H94.0009V636H92.0009V634ZM90.0009 634H88.0009V636H90.0009V634ZM92.0009 638H94.0009V640H92.0009V638ZM90.0009 638H88.0009V640H90.0009V638ZM92.0009 642H94.0009V644H92.0009V642ZM90.0009 642H88.0009V644H90.0009V642Z" fill="#0F1C26"/>
<path d="M124.224 663.125C123.753 660.769 121.683 659 119.197 659C117.223 659 115.509 660.12 114.655 661.759C112.599 661.978 111.001 663.72 111.001 665.83C111.001 668.091 112.838 669.928 115.099 669.928H123.978C125.863 669.928 127.393 668.398 127.393 666.513C127.393 664.71 125.993 663.248 124.224 663.125Z" fill="#0F1C26"/>
<path d="M309.001 108.252V112.003H312.751L323.811 100.942L320.061 97.1925L309.001 108.252ZM326.711 98.0425C327.101 97.6525 327.101 97.0225 326.711 96.6325L324.371 94.2925C323.981 93.9025 323.351 93.9025 322.961 94.2925L321.131 96.1225L324.881 99.8725L326.711 98.0425Z" fill="#0F1C26"/>
<path d="M245.501 93C247.225 93 248.878 93.6848 250.097 94.9038C251.316 96.1228 252.001 97.7761 252.001 99.5C252.001 101.11 251.411 102.59 250.441 103.73L250.711 104H251.501L256.501 109L255.001 110.5L250.001 105.5V104.71L249.731 104.44C248.591 105.41 247.111 106 245.501 106C243.777 106 242.124 105.315 240.905 104.096C239.686 102.877 239.001 101.224 239.001 99.5C239.001 97.7761 239.686 96.1228 240.905 94.9038C242.124 93.6848 243.777 93 245.501 93ZM245.501 95C243.001 95 241.001 97 241.001 99.5C241.001 102 243.001 104 245.501 104C248.001 104 250.001 102 250.001 99.5C250.001 97 248.001 95 245.501 95Z" fill="#979797"/>
</g>
<rect opacity="0.4" x="165.215" y="34.0684" width="67.2161" height="6.25266" rx="1.73696" fill="#D3DDE7"/>
<rect opacity="0.5" x="243.373" y="30.1611" width="14.0685" height="14.0685" rx="4.77664" fill="#E7EDF3"/>
<rect opacity="0.5" x="246.499" y="33.2881" width="7.81582" height="7.81582" rx="3.90791" fill="white"/>
<rect opacity="0.5" x="127.699" y="34.0684" width="6.25266" height="6.25266" rx="1.73696" fill="#D3DDE7"/>
</g>
<defs>
<filter id="filter0_d" x="0" y="0" width="391" height="722.781" filterUnits="userSpaceOnUse" color-interpolation-filters="sRGB">
<feFlood flood-opacity="0" result="BackgroundImageFix"/>
<feColorMatrix in="SourceAlpha" type="matrix" values="0 0 0 0 0 0 0 0 0 0 0 0 0 0 0 0 0 0 127 0" result="hardAlpha"/>
<feOffset dy="10"/>
<feGaussianBlur stdDeviation="15"/>
<feColorMatrix type="matrix" values="0 0 0 0 0.0207639 0 0 0 0 0.0756167 0 0 0 0 0.216667 0 0 0 0.1 0"/>
<feBlend mode="normal" in2="BackgroundImageFix" result="effect1_dropShadow"/>
<feBlend mode="normal" in="SourceGraphic" in2="effect1_dropShadow" result="shape"/>
</filter>
</defs>
</svg>
