<svg width="391" height="723" viewBox="0 0 391 723" fill="none" xmlns="http://www.w3.org/2000/svg">
<g filter="url(#filter0_d)">
<path d="M33.9079 41.712C33.9079 29.7208 43.6287 20 55.6199 20L334.989 20C346.98 20 356.701 29.7208 356.701 41.712V166.547C359.075 166.547 361 168.471 361 170.845V223.993C361 226.367 359.075 228.292 356.701 228.292V661.069C356.701 673.061 346.98 682.781 334.989 682.781H55.6199C43.6287 682.781 33.9079 673.061 33.9079 661.07L33.9079 256.038H31.737C30.7777 256.038 30 255.26 30 254.301V205.409C30 204.449 30.7777 203.672 31.737 203.672H33.9079V193.902H31.737C30.7777 193.902 30 193.124 30 192.165L30 141.71C30 140.75 30.7777 139.973 31.737 139.973H33.9079V41.712Z" fill="white"/>
<path d="M109.725 34.0684H73.772C59.959 34.0684 48.7614 45.266 48.7614 59.079L48.7614 643.702C48.7614 657.515 59.959 668.713 73.772 668.713H316.844C330.657 668.713 341.855 657.515 341.855 643.702V59.079C341.855 45.266 330.657 34.0684 316.844 34.0684L281.673 34.0684V37.9763C281.673 46.6094 274.674 53.6079 266.041 53.6079H125.356C116.723 53.6079 109.725 46.6094 109.725 37.9763V34.0684Z" fill="#E7EDF3"/>
<mask id="mask0" mask-type="alpha" maskUnits="userSpaceOnUse" x="48" y="33" width="294" height="636">
<path d="M109.73 33.6494H73.7772C59.9642 33.6494 48.7666 44.8471 48.7666 58.66L48.7666 643.283C48.7666 657.096 59.9642 668.294 73.7772 668.294H316.849C330.662 668.294 341.86 657.096 341.86 643.283V58.66C341.86 44.8471 330.662 33.6494 316.849 33.6494L281.678 33.6494V37.5573C281.678 46.1904 274.679 53.189 266.046 53.189H125.362C116.728 53.189 109.73 46.1904 109.73 37.5573V33.6494Z" fill="#E7EDF3"/>
</mask>
<g mask="url(#mask0)">
<path d="M62.4356 107H71.9526V104.791H65.0705V100.821H71.4058V98.6122H65.0705V94.6634H71.8958V92.4545H62.4356V107ZM78.6687 107.192C80.5437 107.192 81.3889 106.077 81.7937 105.281H81.9499V107H84.4783V92.4545H81.9002V97.8949H81.7937C81.4031 97.1065 80.6005 95.9489 78.6758 95.9489C76.1545 95.9489 74.1729 97.9233 74.1729 101.56C74.1729 105.153 76.0977 107.192 78.6687 107.192ZM79.386 105.082C77.6886 105.082 76.7937 103.591 76.7937 101.545C76.7937 99.5142 77.6744 98.0582 79.386 98.0582C81.0408 98.0582 81.9499 99.429 81.9499 101.545C81.9499 103.662 81.0266 105.082 79.386 105.082ZM87.368 107H89.9391V96.0909H87.368V107ZM88.6607 94.5426C89.4774 94.5426 90.145 93.9176 90.145 93.1506C90.145 92.3764 89.4774 91.7514 88.6607 91.7514C87.8368 91.7514 87.1692 92.3764 87.1692 93.1506C87.1692 93.9176 87.8368 94.5426 88.6607 94.5426ZM98.1803 96.0909H96.0283V93.4773H93.4573V96.0909H91.909V98.0795H93.4573V104.145C93.4431 106.197 94.9346 107.206 96.8664 107.149C97.5979 107.128 98.1022 106.986 98.3792 106.893L97.946 104.884C97.8039 104.919 97.5127 104.983 97.1931 104.983C96.5468 104.983 96.0283 104.756 96.0283 103.719V98.0795H98.1803V96.0909ZM105.705 107H108.34V102.085H111.124C114.484 102.085 116.288 100.068 116.288 97.2699C116.288 94.4929 114.505 92.4545 111.16 92.4545H105.705V107ZM108.34 99.919V94.6562H110.755C112.729 94.6562 113.603 95.7216 113.603 97.2699C113.603 98.8182 112.729 99.919 110.769 99.919H108.34ZM121.184 92.4545H118.613V107H121.184V92.4545ZM127.117 107.22C128.828 107.22 129.851 106.418 130.32 105.501H130.405V107H132.877V99.6989C132.877 96.8153 130.526 95.9489 128.445 95.9489C126.151 95.9489 124.389 96.9716 123.821 98.9602L126.222 99.3011C126.477 98.5554 127.202 97.9162 128.459 97.9162C129.652 97.9162 130.306 98.527 130.306 99.5994V99.642C130.306 100.381 129.531 100.416 127.607 100.622C125.49 100.849 123.466 101.482 123.466 103.939C123.466 106.084 125.036 107.22 127.117 107.22ZM127.784 105.331C126.712 105.331 125.945 104.841 125.945 103.896C125.945 102.909 126.804 102.497 127.955 102.334C128.629 102.241 129.979 102.071 130.313 101.801V103.087C130.313 104.301 129.333 105.331 127.784 105.331ZM140.37 107.213C143.112 107.213 144.859 105.587 145.044 103.271H142.586C142.366 104.443 141.521 105.118 140.392 105.118C138.787 105.118 137.75 103.776 137.75 101.545C137.75 99.3438 138.808 98.0227 140.392 98.0227C141.627 98.0227 142.387 98.8182 142.586 99.8693H145.044C144.866 97.5043 143.019 95.9489 140.356 95.9489C137.16 95.9489 135.143 98.2571 135.143 101.588C135.143 104.891 137.11 107.213 140.37 107.213ZM152.134 107.213C154.677 107.213 156.424 105.97 156.879 104.074L154.478 103.804C154.13 104.727 153.278 105.21 152.17 105.21C150.508 105.21 149.407 104.116 149.386 102.249H156.985V101.46C156.985 97.6321 154.684 95.9489 151.999 95.9489C148.874 95.9489 146.836 98.2429 146.836 101.609C146.836 105.033 148.846 107.213 152.134 107.213ZM149.393 100.516C149.471 99.1236 150.501 97.9517 152.035 97.9517C153.512 97.9517 154.506 99.0312 154.521 100.516H149.393ZM167.932 98.9744C167.577 97.1278 166.1 95.9489 163.543 95.9489C160.915 95.9489 159.126 97.2415 159.133 99.2585C159.126 100.849 160.106 101.901 162.201 102.334L164.062 102.724C165.063 102.945 165.532 103.349 165.532 103.967C165.532 104.713 164.722 105.274 163.501 105.274C162.322 105.274 161.555 104.763 161.334 103.783L158.827 104.024C159.147 106.027 160.83 107.213 163.508 107.213C166.235 107.213 168.16 105.8 168.167 103.733C168.16 102.178 167.158 101.226 165.099 100.778L163.238 100.381C162.13 100.132 161.689 99.7486 161.697 99.1165C161.689 98.3778 162.506 97.8665 163.579 97.8665C164.765 97.8665 165.39 98.5128 165.589 99.2301L167.932 98.9744Z" fill="#0F1C26"/>
</g>
<rect opacity="0.4" x="165.215" y="34.0684" width="67.2161" height="6.25266" rx="1.73696" fill="#D3DDE7"/>
<rect opacity="0.5" x="243.373" y="30.1611" width="14.0685" height="14.0685" rx="4.77664" fill="#E7EDF3"/>
<rect opacity="0.5" x="246.499" y="33.2881" width="7.81582" height="7.81582" rx="3.90791" fill="white"/>
<rect opacity="0.5" x="127.699" y="34.0684" width="6.25266" height="6.25266" rx="1.73696" fill="#D3DDE7"/>
</g>
<rect x="62" y="155" width="265" height="97" rx="5" fill="#D3DDE7"/>
<path d="M104.148 221H108.858C111.523 221 112.83 219.642 112.83 217.83C112.83 216.068 111.58 215.034 110.341 214.972V214.858C111.477 214.591 112.375 213.795 112.375 212.381C112.375 210.648 111.125 209.364 108.602 209.364H104.148V221ZM106.256 219.239V215.83H108.58C109.881 215.83 110.688 216.625 110.688 217.665C110.688 218.591 110.051 219.239 108.523 219.239H106.256ZM106.256 214.312V211.102H108.386C109.625 211.102 110.267 211.756 110.267 212.653C110.267 213.676 109.438 214.312 108.341 214.312H106.256ZM114.722 221H116.779V212.273H114.722V221ZM115.757 211.034C116.41 211.034 116.944 210.534 116.944 209.92C116.944 209.301 116.41 208.801 115.757 208.801C115.097 208.801 114.563 209.301 114.563 209.92C114.563 210.534 115.097 211.034 115.757 211.034ZM121.101 215.886C121.101 214.625 121.863 213.898 122.948 213.898C124.01 213.898 124.647 214.597 124.647 215.761V221H126.703V215.443C126.709 213.352 125.516 212.159 123.715 212.159C122.408 212.159 121.51 212.784 121.113 213.756H121.01V212.273H119.044V221H121.101V215.886ZM128.944 221H131.001V212.273H128.944V221ZM129.978 211.034C130.632 211.034 131.166 210.534 131.166 209.92C131.166 209.301 130.632 208.801 129.978 208.801C129.319 208.801 128.785 209.301 128.785 209.92C128.785 210.534 129.319 211.034 129.978 211.034ZM133.357 221H135.38V219.625H135.499C135.823 220.261 136.499 221.153 137.999 221.153C140.056 221.153 141.596 219.523 141.596 216.648C141.596 213.739 140.011 212.159 137.993 212.159C136.454 212.159 135.812 213.085 135.499 213.716H135.414V209.364H133.357V221ZM135.374 216.636C135.374 214.943 136.101 213.847 137.425 213.847C138.795 213.847 139.499 215.011 139.499 216.636C139.499 218.273 138.783 219.466 137.425 219.466C136.113 219.466 135.374 218.33 135.374 216.636ZM147.358 221.17C149.392 221.17 150.79 220.176 151.153 218.659L149.233 218.443C148.955 219.182 148.273 219.568 147.386 219.568C146.057 219.568 145.176 218.693 145.159 217.199H151.239V216.568C151.239 213.506 149.398 212.159 147.25 212.159C144.75 212.159 143.119 213.994 143.119 216.688C143.119 219.426 144.727 221.17 147.358 221.17ZM145.165 215.812C145.227 214.699 146.051 213.761 147.278 213.761C148.46 213.761 149.256 214.625 149.267 215.812H145.165ZM156.936 221.17C159.129 221.17 160.526 219.869 160.674 218.017H158.708C158.532 218.955 157.856 219.494 156.953 219.494C155.668 219.494 154.839 218.42 154.839 216.636C154.839 214.875 155.686 213.818 156.953 213.818C157.941 213.818 158.549 214.455 158.708 215.295H160.674C160.532 213.403 159.055 212.159 156.924 212.159C154.367 212.159 152.754 214.006 152.754 216.67C152.754 219.312 154.328 221.17 156.936 221.17ZM165.024 221.176C166.394 221.176 167.212 220.534 167.587 219.801H167.655V221H169.632V215.159C169.632 212.852 167.752 212.159 166.087 212.159C164.252 212.159 162.843 212.977 162.388 214.568L164.309 214.841C164.513 214.244 165.093 213.733 166.098 213.733C167.053 213.733 167.576 214.222 167.576 215.08V215.114C167.576 215.705 166.956 215.733 165.416 215.898C163.723 216.08 162.104 216.585 162.104 218.551C162.104 220.267 163.36 221.176 165.024 221.176ZM165.559 219.665C164.701 219.665 164.087 219.273 164.087 218.517C164.087 217.727 164.774 217.398 165.695 217.267C166.235 217.193 167.314 217.057 167.581 216.841V217.869C167.581 218.841 166.797 219.665 165.559 219.665ZM176.06 221H180.77C183.435 221 184.742 219.642 184.742 217.83C184.742 216.068 183.492 215.034 182.253 214.972V214.858C183.39 214.591 184.287 213.795 184.287 212.381C184.287 210.648 183.037 209.364 180.515 209.364H176.06V221ZM178.168 219.239V215.83H180.492C181.793 215.83 182.6 216.625 182.6 217.665C182.6 218.591 181.964 219.239 180.435 219.239H178.168ZM178.168 214.312V211.102H180.299C181.537 211.102 182.18 211.756 182.18 212.653C182.18 213.676 181.35 214.312 180.253 214.312H178.168ZM190.499 221.17C192.533 221.17 193.93 220.176 194.294 218.659L192.374 218.443C192.095 219.182 191.413 219.568 190.527 219.568C189.197 219.568 188.317 218.693 188.3 217.199H194.379V216.568C194.379 213.506 192.538 212.159 190.391 212.159C187.891 212.159 186.26 213.994 186.26 216.688C186.26 219.426 187.868 221.17 190.499 221.17ZM188.305 215.812C188.368 214.699 189.192 213.761 190.419 213.761C191.601 213.761 192.396 214.625 192.408 215.812H188.305ZM198.781 221.176C200.15 221.176 200.968 220.534 201.343 219.801H201.411V221H203.389V215.159C203.389 212.852 201.508 212.159 199.843 212.159C198.008 212.159 196.599 212.977 196.144 214.568L198.065 214.841C198.269 214.244 198.849 213.733 199.855 213.733C200.809 213.733 201.332 214.222 201.332 215.08V215.114C201.332 215.705 200.713 215.733 199.173 215.898C197.48 216.08 195.86 216.585 195.86 218.551C195.86 220.267 197.116 221.176 198.781 221.176ZM199.315 219.665C198.457 219.665 197.843 219.273 197.843 218.517C197.843 217.727 198.531 217.398 199.451 217.267C199.991 217.193 201.07 217.057 201.338 216.841V217.869C201.338 218.841 200.553 219.665 199.315 219.665ZM209.414 221.17C211.607 221.17 213.005 219.869 213.152 218.017H211.186C211.01 218.955 210.334 219.494 209.431 219.494C208.147 219.494 207.317 218.42 207.317 216.636C207.317 214.875 208.164 213.818 209.431 213.818C210.419 213.818 211.027 214.455 211.186 215.295H213.152C213.01 213.403 211.533 212.159 209.402 212.159C206.845 212.159 205.232 214.006 205.232 216.67C205.232 219.312 206.806 221.17 209.414 221.17ZM217.048 215.886C217.048 214.625 217.832 213.898 218.934 213.898C220.014 213.898 220.65 214.585 220.65 215.761V221H222.707V215.443C222.707 213.335 221.514 212.159 219.701 212.159C218.361 212.159 217.508 212.767 217.105 213.756H217.003V209.364H214.991V221H217.048V215.886Z" fill="#0F1C26"/>
<path d="M112.773 185C112.341 182.614 110.432 181.205 108.091 181.205C105.114 181.205 102.955 183.5 102.955 187.182C102.955 190.864 105.114 193.159 108.091 193.159C110.432 193.159 112.341 191.75 112.773 189.364H111.364C111.023 190.977 109.636 191.841 108.091 191.841C105.977 191.841 104.318 190.205 104.318 187.182C104.318 184.159 105.977 182.523 108.091 182.523C109.636 182.523 111.023 183.386 111.364 185H112.773ZM120.518 189.432C120.518 191.068 119.268 191.818 118.268 191.818C117.154 191.818 116.359 191 116.359 189.727V184.273H115.018V189.818C115.018 192.045 116.2 193.114 117.836 193.114C119.154 193.114 120.018 192.409 120.427 191.523H120.518V193H121.859V184.273H120.518V189.432ZM124.465 193H125.806V187.477C125.806 186.295 126.737 185.432 128.01 185.432C128.368 185.432 128.737 185.5 128.828 185.523V184.159C128.675 184.148 128.323 184.136 128.124 184.136C127.078 184.136 126.169 184.727 125.851 185.591H125.76V184.273H124.465V193ZM130.568 193H131.909V187.477C131.909 186.295 132.841 185.432 134.113 185.432C134.471 185.432 134.841 185.5 134.932 185.523V184.159C134.778 184.148 134.426 184.136 134.227 184.136C133.182 184.136 132.272 184.727 131.954 185.591H131.863V184.273H130.568V193ZM140.064 193.182C141.837 193.182 143.133 192.295 143.542 190.977L142.246 190.614C141.905 191.523 141.116 191.977 140.064 191.977C138.491 191.977 137.405 190.96 137.343 189.091H143.678V188.523C143.678 185.273 141.746 184.159 139.928 184.159C137.564 184.159 135.996 186.023 135.996 188.705C135.996 191.386 137.542 193.182 140.064 193.182ZM137.343 187.932C137.434 186.574 138.394 185.364 139.928 185.364C141.383 185.364 142.314 186.455 142.314 187.932H137.343ZM147.209 187.75C147.209 186.227 148.152 185.364 149.436 185.364C150.68 185.364 151.436 186.176 151.436 187.545V193H152.777V187.455C152.777 185.227 151.589 184.159 149.822 184.159C148.504 184.159 147.686 184.75 147.277 185.636H147.163V184.273H145.868V193H147.209V187.75ZM159.173 184.273H157.309V182.182H155.968V184.273H154.65V185.409H155.968V190.864C155.968 192.386 157.195 193.114 158.332 193.114C158.832 193.114 159.15 193.023 159.332 192.955L159.059 191.75C158.945 191.773 158.764 191.818 158.468 191.818C157.877 191.818 157.309 191.636 157.309 190.5V185.409H159.173V184.273Z" fill="#0F1C26"/>
<path d="M291 227C291 228.1 291.9 229 293 229H301C302.1 229 303 228.1 303 227V215H291V227ZM304 212H300.5L299.5 211H294.5L293.5 212H290V214H304V212Z" fill="#0F1C26"/>
<path d="M288 187.252V191.003H291.75L302.81 179.942L299.06 176.193L288 187.252ZM305.71 177.043C306.1 176.653 306.1 176.023 305.71 175.633L303.37 173.292C302.98 172.903 302.35 172.903 301.96 173.292L300.13 175.122L303.88 178.872L305.71 177.043Z" fill="#0F1C26"/>
<path d="M77 210C77 211.1 76.1 212 75 212C73.9 212 73 211.1 73 210C73 208.9 73.9 208 75 208C76.1 208 77 208.9 77 210ZM75 202C73.9 202 73 202.9 73 204C73 205.1 73.9 206 75 206C76.1 206 77 205.1 77 204C77 202.9 76.1 202 75 202ZM75 196C73.9 196 73 196.9 73 198C73 199.1 73.9 200 75 200C76.1 200 77 199.1 77 198C77 196.9 76.1 196 75 196ZM81 200C82.1 200 83 199.1 83 198C83 196.9 82.1 196 81 196C79.9 196 79 196.9 79 198C79 199.1 79.9 200 81 200ZM81 202C79.9 202 79 202.9 79 204C79 205.1 79.9 206 81 206C82.1 206 83 205.1 83 204C83 202.9 82.1 202 81 202ZM81 208C79.9 208 79 208.9 79 210C79 211.1 79.9 212 81 212C82.1 212 83 211.1 83 210C83 208.9 82.1 208 81 208Z" fill="#0F1C26"/>
<rect x="62" y="270" width="265" height="97" rx="5" fill="#D3DDE7"/>
<path d="M110.472 316.562H112.5C112.46 314.597 110.784 313.205 108.307 313.205C105.864 313.205 104.028 314.58 104.034 316.636C104.034 318.307 105.222 319.267 107.136 319.761L108.46 320.102C109.716 320.42 110.545 320.812 110.551 321.716C110.545 322.71 109.602 323.375 108.227 323.375C106.909 323.375 105.886 322.784 105.801 321.562H103.727C103.812 323.875 105.534 325.176 108.244 325.176C111.034 325.176 112.653 323.784 112.659 321.733C112.653 319.716 110.989 318.795 109.239 318.381L108.148 318.108C107.193 317.881 106.159 317.477 106.17 316.506C106.176 315.631 106.96 314.989 108.278 314.989C109.534 314.989 110.364 315.574 110.472 316.562ZM120.16 321.33C120.16 322.659 119.211 323.318 118.302 323.318C117.313 323.318 116.654 322.619 116.654 321.511V316.273H114.597V321.83C114.597 323.926 115.791 325.114 117.507 325.114C118.813 325.114 119.734 324.426 120.132 323.449H120.222V325H122.217V316.273H120.16V321.33ZM124.482 325H126.539V319.869C126.539 318.761 127.374 317.977 128.505 317.977C128.851 317.977 129.283 318.04 129.459 318.097V316.205C129.272 316.17 128.948 316.148 128.72 316.148C127.72 316.148 126.885 316.716 126.567 317.727H126.476V316.273H124.482V325ZM135.865 316.273H134.052V315.585C134.052 314.903 134.336 314.523 135.103 314.523C135.427 314.523 135.7 314.597 135.87 314.648L136.285 313.057C136.018 312.966 135.433 312.818 134.723 312.818C133.206 312.818 131.995 313.688 131.995 315.449V316.273H130.706V317.864H131.995V325H134.052V317.864H135.865V316.273ZM141.835 325H143.943V321.068H146.17C148.858 321.068 150.301 319.455 150.301 317.216C150.301 314.994 148.875 313.364 146.199 313.364H141.835V325ZM143.943 319.335V315.125H145.875C147.455 315.125 148.153 315.977 148.153 317.216C148.153 318.455 147.455 319.335 145.886 319.335H143.943ZM157.754 321.33C157.754 322.659 156.805 323.318 155.896 323.318C154.907 323.318 154.248 322.619 154.248 321.511V316.273H152.191V321.83C152.191 323.926 153.384 325.114 155.1 325.114C156.407 325.114 157.328 324.426 157.725 323.449H157.816V325H159.811V316.273H157.754V321.33ZM164.132 319.886C164.132 318.625 164.894 317.898 165.979 317.898C167.041 317.898 167.678 318.597 167.678 319.761V325H169.735V319.443C169.74 317.352 168.547 316.159 166.746 316.159C165.439 316.159 164.541 316.784 164.144 317.756H164.041V316.273H162.076V325H164.132V319.886ZM176.334 316.273H174.612V314.182H172.555V316.273H171.316V317.864H172.555V322.716C172.544 324.358 173.737 325.165 175.282 325.119C175.868 325.102 176.271 324.989 176.493 324.915L176.146 323.307C176.032 323.335 175.799 323.386 175.544 323.386C175.027 323.386 174.612 323.205 174.612 322.375V317.864H176.334V316.273ZM180.715 325.176C182.084 325.176 182.903 324.534 183.278 323.801H183.346V325H185.323V319.159C185.323 316.852 183.442 316.159 181.778 316.159C179.942 316.159 178.533 316.977 178.079 318.568L179.999 318.841C180.204 318.244 180.783 317.733 181.789 317.733C182.743 317.733 183.266 318.222 183.266 319.08V319.114C183.266 319.705 182.647 319.733 181.107 319.898C179.414 320.08 177.795 320.585 177.795 322.551C177.795 324.267 179.05 325.176 180.715 325.176ZM181.249 323.665C180.391 323.665 179.778 323.273 179.778 322.517C179.778 321.727 180.465 321.398 181.386 321.267C181.925 321.193 183.005 321.057 183.272 320.841V321.869C183.272 322.841 182.488 323.665 181.249 323.665ZM191.751 325H193.859V321.068H196.086C198.774 321.068 200.217 319.455 200.217 317.216C200.217 314.994 198.791 313.364 196.114 313.364H191.751V325ZM193.859 319.335V315.125H195.791C197.37 315.125 198.069 315.977 198.069 317.216C198.069 318.455 197.37 319.335 195.802 319.335H193.859ZM202.107 325H204.164V319.869C204.164 318.761 204.999 317.977 206.13 317.977C206.476 317.977 206.908 318.04 207.084 318.097V316.205C206.897 316.17 206.573 316.148 206.345 316.148C205.345 316.148 204.51 316.716 204.192 317.727H204.101V316.273H202.107V325ZM208.601 325H210.657V316.273H208.601V325ZM209.635 315.034C210.288 315.034 210.822 314.534 210.822 313.92C210.822 313.301 210.288 312.801 209.635 312.801C208.976 312.801 208.441 313.301 208.441 313.92C208.441 314.534 208.976 315.034 209.635 315.034ZM212.922 325H214.979V319.693C214.979 318.619 215.695 317.892 216.582 317.892C217.451 317.892 218.047 318.477 218.047 319.375V325H220.064V319.557C220.064 318.574 220.65 317.892 221.644 317.892C222.474 317.892 223.133 318.381 223.133 319.46V325H225.195V319.142C225.195 317.193 224.07 316.159 222.468 316.159C221.201 316.159 220.235 316.784 219.849 317.756H219.758C219.422 316.767 218.576 316.159 217.4 316.159C216.229 316.159 215.354 316.761 214.991 317.756H214.888V316.273H212.922V325ZM229.943 325.176C231.312 325.176 232.131 324.534 232.506 323.801H232.574V325H234.551V319.159C234.551 316.852 232.67 316.159 231.006 316.159C229.17 316.159 227.761 316.977 227.307 318.568L229.227 318.841C229.432 318.244 230.011 317.733 231.017 317.733C231.972 317.733 232.494 318.222 232.494 319.08V319.114C232.494 319.705 231.875 319.733 230.335 319.898C228.642 320.08 227.023 320.585 227.023 322.551C227.023 324.267 228.278 325.176 229.943 325.176ZM230.477 323.665C229.619 323.665 229.006 323.273 229.006 322.517C229.006 321.727 229.693 321.398 230.614 321.267C231.153 321.193 232.233 321.057 232.5 320.841V321.869C232.5 322.841 231.716 323.665 230.477 323.665Z" fill="#0F1C26"/>
<path d="M291 342C291 343.1 291.9 344 293 344H301C302.1 344 303 343.1 303 342V330H291V342ZM304 327H300.5L299.5 326H294.5L293.5 327H290V329H304V327Z" fill="#0F1C26"/>
<path d="M288 302.252V306.003H291.75L302.81 294.942L299.06 291.193L288 302.252ZM305.71 292.043C306.1 291.653 306.1 291.023 305.71 290.633L303.37 288.292C302.98 287.903 302.35 287.903 301.96 288.292L300.13 290.122L303.88 293.872L305.71 292.043Z" fill="#0F1C26"/>
<path d="M77 325C77 326.1 76.1 327 75 327C73.9 327 73 326.1 73 325C73 323.9 73.9 323 75 323C76.1 323 77 323.9 77 325ZM75 317C73.9 317 73 317.9 73 319C73 320.1 73.9 321 75 321C76.1 321 77 320.1 77 319C77 317.9 76.1 317 75 317ZM75 311C73.9 311 73 311.9 73 313C73 314.1 73.9 315 75 315C76.1 315 77 314.1 77 313C77 311.9 76.1 311 75 311ZM81 315C82.1 315 83 314.1 83 313C83 311.9 82.1 311 81 311C79.9 311 79 311.9 79 313C79 314.1 79.9 315 81 315ZM81 317C79.9 317 79 317.9 79 319C79 320.1 79.9 321 81 321C82.1 321 83 320.1 83 319C83 317.9 82.1 317 81 317ZM81 323C79.9 323 79 323.9 79 325C79 326.1 79.9 327 81 327C82.1 327 83 326.1 83 325C83 323.9 82.1 323 81 323Z" fill="#0F1C26"/>
<rect x="66" y="385" width="265" height="97" rx="5" fill="#D3DDE7"/>
<path d="M112.091 440C115.636 440 117.739 437.807 117.739 434.17C117.739 430.545 115.636 428.364 112.17 428.364H108.148V440H112.091ZM110.256 438.176V430.188H112.051C114.415 430.188 115.648 431.506 115.648 434.17C115.648 436.847 114.415 438.176 111.989 438.176H110.256ZM119.801 440H121.857V431.273H119.801V440ZM120.835 430.034C121.488 430.034 122.022 429.534 122.022 428.92C122.022 428.301 121.488 427.801 120.835 427.801C120.176 427.801 119.641 428.301 119.641 428.92C119.641 429.534 120.176 430.034 120.835 430.034ZM131.918 431.273H129.73L127.719 437.756H127.628L125.622 431.273H123.429L126.537 440H128.81L131.918 431.273ZM133.491 440H135.548V431.273H133.491V440ZM134.525 430.034C135.179 430.034 135.713 429.534 135.713 428.92C135.713 428.301 135.179 427.801 134.525 427.801C133.866 427.801 133.332 428.301 133.332 428.92C133.332 429.534 133.866 430.034 134.525 430.034ZM139.87 434.886C139.87 433.625 140.631 432.898 141.716 432.898C142.779 432.898 143.415 433.597 143.415 434.761V440H145.472V434.443C145.478 432.352 144.285 431.159 142.484 431.159C141.177 431.159 140.279 431.784 139.881 432.756H139.779V431.273H137.813V440H139.87V434.886ZM151.509 443.455C153.866 443.455 155.605 442.375 155.605 440.142V431.273H153.577V432.716H153.463C153.151 432.085 152.497 431.159 150.957 431.159C148.94 431.159 147.355 432.739 147.355 435.608C147.355 438.455 148.94 439.875 150.952 439.875C152.446 439.875 153.145 439.074 153.463 438.432H153.565V440.085C153.565 441.369 152.713 441.898 151.543 441.898C150.304 441.898 149.759 441.312 149.509 440.801L147.656 441.25C148.031 442.472 149.287 443.455 151.509 443.455ZM151.526 438.261C150.168 438.261 149.452 437.205 149.452 435.597C149.452 434.011 150.156 432.847 151.526 432.847C152.849 432.847 153.577 433.943 153.577 435.597C153.577 437.261 152.838 438.261 151.526 438.261ZM162.073 440H164.181V436.068H166.408C169.095 436.068 170.539 434.455 170.539 432.216C170.539 429.994 169.112 428.364 166.436 428.364H162.073V440ZM164.181 434.335V430.125H166.112C167.692 430.125 168.391 430.977 168.391 432.216C168.391 433.455 167.692 434.335 166.124 434.335H164.181ZM177.991 436.33C177.991 437.659 177.042 438.318 176.133 438.318C175.145 438.318 174.486 437.619 174.486 436.511V431.273H172.429V436.83C172.429 438.926 173.622 440.114 175.338 440.114C176.645 440.114 177.565 439.426 177.963 438.449H178.054V440H180.048V431.273H177.991V436.33ZM184.37 434.886C184.37 433.625 185.131 432.898 186.216 432.898C187.279 432.898 187.915 433.597 187.915 434.761V440H189.972V434.443C189.978 432.352 188.785 431.159 186.984 431.159C185.677 431.159 184.779 431.784 184.381 432.756H184.279V431.273H182.313V440H184.37V434.886ZM196.571 431.273H194.849V429.182H192.793V431.273H191.554V432.864H192.793V437.716C192.781 439.358 193.974 440.165 195.52 440.119C196.105 440.102 196.509 439.989 196.73 439.915L196.384 438.307C196.27 438.335 196.037 438.386 195.781 438.386C195.264 438.386 194.849 438.205 194.849 437.375V432.864H196.571V431.273ZM200.953 440.176C202.322 440.176 203.14 439.534 203.515 438.801H203.583V440H205.561V434.159C205.561 431.852 203.68 431.159 202.015 431.159C200.18 431.159 198.771 431.977 198.316 433.568L200.237 433.841C200.441 433.244 201.021 432.733 202.026 432.733C202.981 432.733 203.504 433.222 203.504 434.08V434.114C203.504 434.705 202.884 434.733 201.345 434.898C199.651 435.08 198.032 435.585 198.032 437.551C198.032 439.267 199.288 440.176 200.953 440.176ZM201.487 438.665C200.629 438.665 200.015 438.273 200.015 437.517C200.015 436.727 200.703 436.398 201.623 436.267C202.163 436.193 203.242 436.057 203.509 435.841V436.869C203.509 437.841 202.725 438.665 201.487 438.665ZM221.551 428.364H219.454V436.295H219.352L213.875 428.364H211.988V440H214.096V432.074H214.193L219.676 440H221.551V428.364ZM226.418 440.176C227.787 440.176 228.606 439.534 228.981 438.801H229.049V440H231.026V434.159C231.026 431.852 229.145 431.159 227.481 431.159C225.645 431.159 224.236 431.977 223.782 433.568L225.702 433.841C225.907 433.244 226.486 432.733 227.492 432.733C228.447 432.733 228.969 433.222 228.969 434.08V434.114C228.969 434.705 228.35 434.733 226.81 434.898C225.117 435.08 223.498 435.585 223.498 437.551C223.498 439.267 224.753 440.176 226.418 440.176ZM226.952 438.665C226.094 438.665 225.481 438.273 225.481 437.517C225.481 436.727 226.168 436.398 227.089 436.267C227.628 436.193 228.708 436.057 228.975 435.841V436.869C228.975 437.841 228.191 438.665 226.952 438.665ZM237.602 431.273H235.881V429.182H233.824V431.273H232.585V432.864H233.824V437.716C233.812 439.358 235.006 440.165 236.551 440.119C237.136 440.102 237.54 439.989 237.761 439.915L237.415 438.307C237.301 438.335 237.068 438.386 236.812 438.386C236.295 438.386 235.881 438.205 235.881 437.375V432.864H237.602V431.273ZM239.472 440H241.529V431.273H239.472V440ZM240.507 430.034C241.16 430.034 241.694 429.534 241.694 428.92C241.694 428.301 241.16 427.801 240.507 427.801C239.847 427.801 239.313 428.301 239.313 428.92C239.313 429.534 239.847 430.034 240.507 430.034Z" fill="#0F1C26"/>
<path d="M295 457C295 458.1 295.9 459 297 459H305C306.1 459 307 458.1 307 457V445H295V457ZM308 442H304.5L303.5 441H298.5L297.5 442H294V444H308V442Z" fill="#0F1C26"/>
<path d="M292 417.252V421.003H295.75L306.81 409.942L303.06 406.193L292 417.252ZM309.71 407.043C310.1 406.653 310.1 406.023 309.71 405.633L307.37 403.292C306.98 402.903 306.35 402.903 305.96 403.292L304.13 405.122L307.88 408.872L309.71 407.043Z" fill="#0F1C26"/>
<path d="M81 440C81 441.1 80.1 442 79 442C77.9 442 77 441.1 77 440C77 438.9 77.9 438 79 438C80.1 438 81 438.9 81 440ZM79 432C77.9 432 77 432.9 77 434C77 435.1 77.9 436 79 436C80.1 436 81 435.1 81 434C81 432.9 80.1 432 79 432ZM79 426C77.9 426 77 426.9 77 428C77 429.1 77.9 430 79 430C80.1 430 81 429.1 81 428C81 426.9 80.1 426 79 426ZM85 430C86.1 430 87 429.1 87 428C87 426.9 86.1 426 85 426C83.9 426 83 426.9 83 428C83 429.1 83.9 430 85 430ZM85 432C83.9 432 83 432.9 83 434C83 435.1 83.9 436 85 436C86.1 436 87 435.1 87 434C87 432.9 86.1 432 85 432ZM85 438C83.9 438 83 438.9 83 440C83 441.1 83.9 442 85 442C86.1 442 87 441.1 87 440C87 438.9 86.1 438 85 438Z" fill="#0F1C26"/>
<rect x="62" y="500" width="265" height="97" rx="5" fill="#D3DDE7"/>
<path d="M110.472 546.562H112.5C112.46 544.597 110.784 543.205 108.307 543.205C105.864 543.205 104.028 544.58 104.034 546.636C104.034 548.307 105.222 549.267 107.136 549.761L108.46 550.102C109.716 550.42 110.545 550.812 110.551 551.716C110.545 552.71 109.602 553.375 108.227 553.375C106.909 553.375 105.886 552.784 105.801 551.562H103.727C103.812 553.875 105.534 555.176 108.244 555.176C111.034 555.176 112.653 553.784 112.659 551.733C112.653 549.716 110.989 548.795 109.239 548.381L108.148 548.108C107.193 547.881 106.159 547.477 106.17 546.506C106.176 545.631 106.96 544.989 108.278 544.989C109.534 544.989 110.364 545.574 110.472 546.562ZM117.109 555.176C118.478 555.176 119.296 554.534 119.671 553.801H119.739V555H121.717V549.159C121.717 546.852 119.836 546.159 118.171 546.159C116.336 546.159 114.927 546.977 114.472 548.568L116.393 548.841C116.597 548.244 117.177 547.733 118.183 547.733C119.137 547.733 119.66 548.222 119.66 549.08V549.114C119.66 549.705 119.041 549.733 117.501 549.898C115.808 550.08 114.188 550.585 114.188 552.551C114.188 554.267 115.444 555.176 117.109 555.176ZM117.643 553.665C116.785 553.665 116.171 553.273 116.171 552.517C116.171 551.727 116.859 551.398 117.779 551.267C118.319 551.193 119.399 551.057 119.666 550.841V551.869C119.666 552.841 118.882 553.665 117.643 553.665ZM125.992 549.886C125.992 548.625 126.753 547.898 127.838 547.898C128.901 547.898 129.537 548.597 129.537 549.761V555H131.594V549.443C131.6 547.352 130.407 546.159 128.605 546.159C127.299 546.159 126.401 546.784 126.003 547.756H125.901V546.273H123.935V555H125.992V549.886ZM138.193 546.273H136.471V544.182H134.414V546.273H133.176V547.864H134.414V552.716C134.403 554.358 135.596 555.165 137.142 555.119C137.727 555.102 138.13 554.989 138.352 554.915L138.005 553.307C137.892 553.335 137.659 553.386 137.403 553.386C136.886 553.386 136.471 553.205 136.471 552.375V547.864H138.193V546.273ZM144.273 555H151.506V553.233H146.381V543.364H144.273V555ZM155.451 543.364H153.394V555H155.451V543.364ZM163.279 551.33C163.279 552.659 162.33 553.318 161.421 553.318C160.432 553.318 159.773 552.619 159.773 551.511V546.273H157.716V551.83C157.716 553.926 158.909 555.114 160.625 555.114C161.932 555.114 162.853 554.426 163.25 553.449H163.341V555H165.336V546.273H163.279V551.33ZM167.601 555H169.657V546.273H167.601V555ZM167.845 545.125H169.385L171.129 542.528H169.118L167.845 545.125ZM178.82 548.58C178.536 547.102 177.354 546.159 175.309 546.159C173.207 546.159 171.775 547.193 171.78 548.807C171.775 550.08 172.559 550.92 174.235 551.267L175.724 551.58C176.525 551.756 176.9 552.08 176.9 552.574C176.9 553.17 176.252 553.619 175.275 553.619C174.332 553.619 173.718 553.21 173.542 552.426L171.536 552.619C171.792 554.222 173.138 555.17 175.28 555.17C177.462 555.17 179.002 554.04 179.008 552.386C179.002 551.142 178.201 550.381 176.553 550.023L175.064 549.705C174.178 549.506 173.826 549.199 173.832 548.693C173.826 548.102 174.479 547.693 175.337 547.693C176.286 547.693 176.786 548.21 176.945 548.784L178.82 548.58Z" fill="#0F1C26"/>
<path d="M291 572C291 573.1 291.9 574 293 574H301C302.1 574 303 573.1 303 572V560H291V572ZM304 557H300.5L299.5 556H294.5L293.5 557H290V559H304V557Z" fill="#0F1C26"/>
<path d="M288 532.252V536.003H291.75L302.81 524.942L299.06 521.193L288 532.252ZM305.71 522.043C306.1 521.653 306.1 521.023 305.71 520.633L303.37 518.292C302.98 517.903 302.35 517.903 301.96 518.292L300.13 520.122L303.88 523.872L305.71 522.043Z" fill="#0F1C26"/>
<path d="M77 555C77 556.1 76.1 557 75 557C73.9 557 73 556.1 73 555C73 553.9 73.9 553 75 553C76.1 553 77 553.9 77 555ZM75 547C73.9 547 73 547.9 73 549C73 550.1 73.9 551 75 551C76.1 551 77 550.1 77 549C77 547.9 76.1 547 75 547ZM75 541C73.9 541 73 541.9 73 543C73 544.1 73.9 545 75 545C76.1 545 77 544.1 77 543C77 541.9 76.1 541 75 541ZM81 545C82.1 545 83 544.1 83 543C83 541.9 82.1 541 81 541C79.9 541 79 541.9 79 543C79 544.1 79.9 545 81 545ZM81 547C79.9 547 79 547.9 79 549C79 550.1 79.9 551 81 551C82.1 551 83 550.1 83 549C83 547.9 82.1 547 81 547ZM81 553C79.9 553 79 553.9 79 555C79 556.1 79.9 557 81 557C82.1 557 83 556.1 83 555C83 553.9 82.1 553 81 553Z" fill="#0F1C26"/>
<defs>
<filter id="filter0_d" x="0" y="0" width="391" height="722.781" filterUnits="userSpaceOnUse" color-interpolation-filters="sRGB">
<feFlood flood-opacity="0" result="BackgroundImageFix"/>
<feColorMatrix in="SourceAlpha" type="matrix" values="0 0 0 0 0 0 0 0 0 0 0 0 0 0 0 0 0 0 127 0" result="hardAlpha"/>
<feOffset dy="10"/>
<feGaussianBlur stdDeviation="15"/>
<feColorMatrix type="matrix" values="0 0 0 0 0.0207639 0 0 0 0 0.0756167 0 0 0 0 0.216667 0 0 0 0.1 0"/>
<feBlend mode="normal" in2="BackgroundImageFix" result="effect1_dropShadow"/>
<feBlend mode="normal" in="SourceGraphic" in2="effect1_dropShadow" result="shape"/>
</filter>
</defs>
</svg>
