<svg width="391" height="723" viewBox="0 0 391 723" fill="none" xmlns="http://www.w3.org/2000/svg">
<g filter="url(#filter0_d)">
<path d="M33.9079 41.712C33.9079 29.7208 43.6287 20 55.6199 20L334.989 20C346.98 20 356.701 29.7208 356.701 41.712V166.547C359.075 166.547 361 168.471 361 170.845V223.993C361 226.367 359.075 228.292 356.701 228.292V661.069C356.701 673.061 346.98 682.781 334.989 682.781H55.6199C43.6287 682.781 33.9079 673.061 33.9079 661.07L33.9079 256.038H31.737C30.7777 256.038 30 255.26 30 254.301V205.409C30 204.449 30.7777 203.672 31.737 203.672H33.9079V193.902H31.737C30.7777 193.902 30 193.124 30 192.165L30 141.71C30 140.75 30.7777 139.973 31.737 139.973H33.9079V41.712Z" fill="white"/>
<path d="M109.725 34.0684H73.772C59.959 34.0684 48.7614 45.266 48.7614 59.079L48.7614 643.702C48.7614 657.515 59.959 668.713 73.772 668.713H316.844C330.657 668.713 341.855 657.515 341.855 643.702V59.079C341.855 45.266 330.657 34.0684 316.844 34.0684L281.673 34.0684V37.9763C281.673 46.6094 274.674 53.6079 266.041 53.6079H125.356C116.723 53.6079 109.725 46.6094 109.725 37.9763V34.0684Z" fill="#E7EDF3"/>
<mask id="mask0" mask-type="alpha" maskUnits="userSpaceOnUse" x="48" y="33" width="294" height="636">
<path d="M109.73 33.6494H73.7772C59.9642 33.6494 48.7665 44.8471 48.7665 58.66L48.7665 643.283C48.7665 657.096 59.9642 668.294 73.7772 668.294H316.849C330.662 668.294 341.86 657.096 341.86 643.283V58.66C341.86 44.8471 330.662 33.6494 316.849 33.6494L281.678 33.6494V37.5573C281.678 46.1904 274.679 53.189 266.046 53.189H125.362C116.728 53.189 109.73 46.1904 109.73 37.5573V33.6494Z" fill="#E7EDF3"/>
</mask>
<g mask="url(#mask0)">
<path d="M96.4356 107H105.953V104.791H99.0705V100.821H105.406V98.6122H99.0705V94.6634H105.896V92.4545H96.4356V107ZM112.669 107.192C114.544 107.192 115.389 106.077 115.794 105.281H115.95V107H118.478V92.4545H115.9V97.8949H115.794C115.403 97.1065 114.6 95.9489 112.676 95.9489C110.154 95.9489 108.173 97.9233 108.173 101.56C108.173 105.153 110.098 107.192 112.669 107.192ZM113.386 105.082C111.689 105.082 110.794 103.591 110.794 101.545C110.794 99.5142 111.674 98.0582 113.386 98.0582C115.041 98.0582 115.95 99.429 115.95 101.545C115.95 103.662 115.027 105.082 113.386 105.082ZM121.368 107H123.939V96.0909H121.368V107ZM122.661 94.5426C123.477 94.5426 124.145 93.9176 124.145 93.1506C124.145 92.3764 123.477 91.7514 122.661 91.7514C121.837 91.7514 121.169 92.3764 121.169 93.1506C121.169 93.9176 121.837 94.5426 122.661 94.5426ZM132.18 96.0909H130.028V93.4773H127.457V96.0909H125.909V98.0795H127.457V104.145C127.443 106.197 128.935 107.206 130.866 107.149C131.598 107.128 132.102 106.986 132.379 106.893L131.946 104.884C131.804 104.919 131.513 104.983 131.193 104.983C130.547 104.983 130.028 104.756 130.028 103.719V98.0795H132.18V96.0909ZM139.705 107H145.593C148.924 107 150.557 105.303 150.557 103.037C150.557 100.835 148.995 99.5426 147.447 99.4645V99.3224C148.867 98.9886 149.989 97.9943 149.989 96.2259C149.989 94.0597 148.427 92.4545 145.273 92.4545H139.705V107ZM142.34 104.798V100.537H145.245C146.871 100.537 147.88 101.531 147.88 102.831C147.88 103.989 147.084 104.798 145.174 104.798H142.34ZM142.34 98.6406V94.6278H145.003C146.552 94.6278 147.354 95.4446 147.354 96.5668C147.354 97.8452 146.317 98.6406 144.947 98.6406H142.34ZM152.886 107H155.457V96.0909H152.886V107ZM154.179 94.5426C154.995 94.5426 155.663 93.9176 155.663 93.1506C155.663 92.3764 154.995 91.7514 154.179 91.7514C153.355 91.7514 152.687 92.3764 152.687 93.1506C152.687 93.9176 153.355 94.5426 154.179 94.5426ZM160.822 100.608C160.822 99.0312 161.774 98.1222 163.13 98.1222C164.458 98.1222 165.254 98.9957 165.254 100.452V107H167.825V100.054C167.832 97.4403 166.34 95.9489 164.089 95.9489C162.455 95.9489 161.333 96.7301 160.836 97.9446H160.708V96.0909H158.251V107H160.822V100.608ZM170.588 107H173.159V96.0909H170.588V107ZM171.881 94.5426C172.698 94.5426 173.365 93.9176 173.365 93.1506C173.365 92.3764 172.698 91.7514 171.881 91.7514C171.057 91.7514 170.389 92.3764 170.389 93.1506C170.389 93.9176 171.057 94.5426 171.881 94.5426ZM176.067 107H178.595V105.281H178.744C179.149 106.077 179.994 107.192 181.869 107.192C184.44 107.192 186.365 105.153 186.365 101.56C186.365 97.9233 184.384 95.9489 181.862 95.9489C179.938 95.9489 179.135 97.1065 178.744 97.8949H178.638V92.4545H176.067V107ZM178.588 101.545C178.588 99.429 179.497 98.0582 181.152 98.0582C182.864 98.0582 183.744 99.5142 183.744 101.545C183.744 103.591 182.849 105.082 181.152 105.082C179.511 105.082 178.588 103.662 178.588 101.545ZM193.53 107.213C196.073 107.213 197.82 105.97 198.275 104.074L195.874 103.804C195.526 104.727 194.674 105.21 193.566 105.21C191.904 105.21 190.803 104.116 190.782 102.249H198.381V101.46C198.381 97.6321 196.08 95.9489 193.395 95.9489C190.27 95.9489 188.232 98.2429 188.232 101.609C188.232 105.033 190.242 107.213 193.53 107.213ZM190.789 100.516C190.867 99.1236 191.897 97.9517 193.431 97.9517C194.908 97.9517 195.903 99.0312 195.917 100.516H190.789ZM205.465 107.213C208.206 107.213 209.953 105.587 210.138 103.271H207.681C207.461 104.443 206.615 105.118 205.486 105.118C203.881 105.118 202.844 103.776 202.844 101.545C202.844 99.3438 203.902 98.0227 205.486 98.0227C206.722 98.0227 207.482 98.8182 207.681 99.8693H210.138C209.961 97.5043 208.114 95.9489 205.451 95.9489C202.255 95.9489 200.238 98.2571 200.238 101.588C200.238 104.891 202.205 107.213 205.465 107.213ZM215.538 107.22C217.25 107.22 218.273 106.418 218.742 105.501H218.827V107H221.298V99.6989C221.298 96.8153 218.948 95.9489 216.867 95.9489C214.573 95.9489 212.811 96.9716 212.243 98.9602L214.644 99.3011C214.899 98.5554 215.624 97.9162 216.881 97.9162C218.074 97.9162 218.727 98.527 218.727 99.5994V99.642C218.727 100.381 217.953 100.416 216.029 100.622C213.912 100.849 211.888 101.482 211.888 103.939C211.888 106.084 213.458 107.22 215.538 107.22ZM216.206 105.331C215.134 105.331 214.367 104.841 214.367 103.896C214.367 102.909 215.226 102.497 216.377 102.334C217.051 102.241 218.401 102.071 218.735 101.801V103.087C218.735 104.301 217.754 105.331 216.206 105.331ZM229.258 107H235.146C238.477 107 240.111 105.303 240.111 103.037C240.111 100.835 238.548 99.5426 237 99.4645V99.3224C238.42 98.9886 239.542 97.9943 239.542 96.2259C239.542 94.0597 237.98 92.4545 234.826 92.4545H229.258V107ZM231.893 104.798V100.537H234.798C236.424 100.537 237.433 101.531 237.433 102.831C237.433 103.989 236.637 104.798 234.727 104.798H231.893ZM231.893 98.6406V94.6278H234.557C236.105 94.6278 236.907 95.4446 236.907 96.5668C236.907 97.8452 235.87 98.6406 234.5 98.6406H231.893ZM247.269 107.213C249.811 107.213 251.558 105.97 252.013 104.074L249.612 103.804C249.264 104.727 248.412 105.21 247.304 105.21C245.642 105.21 244.541 104.116 244.52 102.249H252.12V101.46C252.12 97.6321 249.818 95.9489 247.134 95.9489C244.009 95.9489 241.97 98.2429 241.97 101.609C241.97 105.033 243.98 107.213 247.269 107.213ZM244.527 100.516C244.605 99.1236 245.635 97.9517 247.169 97.9517C248.647 97.9517 249.641 99.0312 249.655 100.516H244.527ZM257.584 107.22C259.295 107.22 260.318 106.418 260.787 105.501H260.872V107H263.344V99.6989C263.344 96.8153 260.993 95.9489 258.912 95.9489C256.618 95.9489 254.857 96.9716 254.288 98.9602L256.689 99.3011C256.945 98.5554 257.669 97.9162 258.926 97.9162C260.119 97.9162 260.773 98.527 260.773 99.5994V99.642C260.773 100.381 259.999 100.416 258.074 100.622C255.957 100.849 253.933 101.482 253.933 103.939C253.933 106.084 255.503 107.22 257.584 107.22ZM258.251 105.331C257.179 105.331 256.412 104.841 256.412 103.896C256.412 102.909 257.271 102.497 258.422 102.334C259.097 102.241 260.446 102.071 260.78 101.801V103.087C260.78 104.301 259.8 105.331 258.251 105.331ZM270.837 107.213C273.579 107.213 275.326 105.587 275.511 103.271H273.053C272.833 104.443 271.988 105.118 270.859 105.118C269.254 105.118 268.217 103.776 268.217 101.545C268.217 99.3438 269.275 98.0227 270.859 98.0227C272.095 98.0227 272.855 98.8182 273.053 99.8693H275.511C275.333 97.5043 273.487 95.9489 270.823 95.9489C267.627 95.9489 265.61 98.2571 265.61 101.588C265.61 104.891 267.578 107.213 270.837 107.213ZM280.343 100.608C280.343 99.0312 281.323 98.1222 282.701 98.1222C284.05 98.1222 284.846 98.9815 284.846 100.452V107H287.417V100.054C287.417 97.419 285.925 95.9489 283.66 95.9489C281.984 95.9489 280.918 96.7088 280.414 97.9446H280.286V92.4545H277.772V107H280.343V100.608Z" fill="black"/>
<path d="M76.4109 105.339L71.8309 99.8682L76.4109 94.3974L75.0009 92.7168L69.0009 99.8682L75.0009 107.02L76.4109 105.339Z" fill="black"/>
<rect x="63.0009" y="124" width="264" height="83" rx="5" fill="white"/>
<path d="M90.3077 146.818H89.0947V154.832H88.9952L83.4271 146.818H82.2339V157H83.4668V149.006H83.5663L89.1146 157H90.3077V146.818ZM95.013 157.179C96.3453 157.179 97.0414 156.463 97.28 155.966H97.3397V157H98.513V151.969C98.513 149.543 96.6635 149.264 95.6891 149.264C94.5357 149.264 93.2232 149.662 92.6266 151.054L93.7402 151.452C93.9987 150.895 94.6103 150.298 95.7289 150.298C96.8077 150.298 97.3397 150.87 97.3397 151.849V151.889C97.3397 152.456 96.763 152.406 95.3709 152.585C93.954 152.769 92.4078 153.082 92.4078 154.832C92.4078 156.324 93.5612 157.179 95.013 157.179ZM95.1919 156.125C94.2573 156.125 93.5811 155.707 93.5811 154.892C93.5811 153.997 94.3965 153.719 95.3112 153.599C95.8084 153.54 97.1408 153.401 97.3397 153.162V154.236C97.3397 155.19 96.584 156.125 95.1919 156.125ZM100.804 157H101.978V152.227C101.978 151.109 102.793 150.318 103.708 150.318C104.598 150.318 105.219 150.9 105.219 151.77V157H106.412V152.028C106.412 151.044 107.029 150.318 108.103 150.318C108.938 150.318 109.654 150.761 109.654 151.889V157H110.827V151.889C110.827 150.094 109.863 149.264 108.5 149.264C107.407 149.264 106.606 149.766 106.214 150.557H106.134C105.756 149.741 105.09 149.264 104.086 149.264C103.091 149.264 102.356 149.741 102.037 150.557H101.938V149.364H100.804V157ZM116.324 157.159C117.875 157.159 119.009 156.384 119.367 155.23L118.233 154.912C117.935 155.707 117.244 156.105 116.324 156.105C114.947 156.105 113.997 155.215 113.943 153.58H119.486V153.082C119.486 150.239 117.796 149.264 116.205 149.264C114.137 149.264 112.764 150.895 112.764 153.241C112.764 155.588 114.117 157.159 116.324 157.159ZM113.943 152.565C114.022 151.377 114.862 150.318 116.205 150.318C117.478 150.318 118.293 151.273 118.293 152.565H113.943Z" fill="url(#paint0_linear)"/>
<path d="M84.5236 185H85.9782L88.5464 175.727H88.6373L91.2055 185H92.66L95.8418 173.364H94.41L91.9782 182.841H91.8646L89.3873 173.364H87.7964L85.3191 182.841H85.2055L82.7736 173.364H81.3418L84.5236 185ZM97.0188 185H98.3597V179.477C98.3597 178.295 99.2915 177.432 100.564 177.432C100.922 177.432 101.292 177.5 101.382 177.523V176.159C101.229 176.148 100.877 176.136 100.678 176.136C99.6324 176.136 98.7234 176.727 98.4052 177.591H98.3143V176.273H97.0188V185ZM103.122 185H104.463V176.273H103.122V185ZM103.804 174.818C104.326 174.818 104.758 174.409 104.758 173.909C104.758 173.409 104.326 173 103.804 173C103.281 173 102.849 173.409 102.849 173.909C102.849 174.409 103.281 174.818 103.804 174.818ZM110.864 176.273H109.001V174.182H107.66V176.273H106.342V177.409H107.66V182.864C107.66 184.386 108.887 185.114 110.023 185.114C110.523 185.114 110.842 185.023 111.023 184.955L110.751 183.75C110.637 183.773 110.455 183.818 110.16 183.818C109.569 183.818 109.001 183.636 109.001 182.5V177.409H110.864V176.273ZM116.597 185.182C118.369 185.182 119.665 184.295 120.074 182.977L118.778 182.614C118.438 183.523 117.648 183.977 116.597 183.977C115.023 183.977 113.938 182.96 113.875 181.091H120.21V180.523C120.21 177.273 118.278 176.159 116.46 176.159C114.097 176.159 112.528 178.023 112.528 180.705C112.528 183.386 114.074 185.182 116.597 185.182ZM113.875 179.932C113.966 178.574 114.926 177.364 116.46 177.364C117.915 177.364 118.847 178.455 118.847 179.932H113.875ZM129.618 185.205C131.141 185.205 131.936 184.386 132.209 183.818H132.277V185H133.618V179.25C133.618 176.477 131.505 176.159 130.391 176.159C129.073 176.159 127.573 176.614 126.891 178.205L128.164 178.659C128.459 178.023 129.158 177.341 130.436 177.341C131.669 177.341 132.277 177.994 132.277 179.114V179.159C132.277 179.807 131.618 179.75 130.027 179.955C128.408 180.165 126.641 180.523 126.641 182.523C126.641 184.227 127.959 185.205 129.618 185.205ZM129.823 184C128.755 184 127.982 183.523 127.982 182.591C127.982 181.568 128.914 181.25 129.959 181.114C130.527 181.045 132.05 180.886 132.277 180.614V181.841C132.277 182.932 131.414 184 129.823 184ZM140.866 185H142.207V179.477C142.207 178.295 143.138 177.432 144.411 177.432C144.769 177.432 145.138 177.5 145.229 177.523V176.159C145.076 176.148 144.724 176.136 144.525 176.136C143.479 176.136 142.57 176.727 142.252 177.591H142.161V176.273H140.866V185ZM150.362 185.182C152.135 185.182 153.43 184.295 153.84 182.977L152.544 182.614C152.203 183.523 151.413 183.977 150.362 183.977C148.788 183.977 147.703 182.96 147.641 181.091H153.976V180.523C153.976 177.273 152.044 176.159 150.226 176.159C147.862 176.159 146.294 178.023 146.294 180.705C146.294 183.386 147.84 185.182 150.362 185.182ZM147.641 179.932C147.732 178.574 148.692 177.364 150.226 177.364C151.68 177.364 152.612 178.455 152.612 179.932H147.641ZM159.711 185.182C161.643 185.182 162.916 184 163.143 182.455H161.802C161.552 183.409 160.757 183.977 159.711 183.977C158.12 183.977 157.098 182.659 157.098 180.636C157.098 178.659 158.143 177.364 159.711 177.364C160.893 177.364 161.598 178.091 161.802 178.886H163.143C162.916 177.25 161.529 176.159 159.688 176.159C157.325 176.159 155.757 178.023 155.757 180.682C155.757 183.295 157.257 185.182 159.711 185.182ZM168.799 185.182C171.162 185.182 172.753 183.386 172.753 180.682C172.753 177.955 171.162 176.159 168.799 176.159C166.435 176.159 164.844 177.955 164.844 180.682C164.844 183.386 166.435 185.182 168.799 185.182ZM168.799 183.977C167.003 183.977 166.185 182.432 166.185 180.682C166.185 178.932 167.003 177.364 168.799 177.364C170.594 177.364 171.412 178.932 171.412 180.682C171.412 182.432 170.594 183.977 168.799 183.977ZM178.473 188.455C180.564 188.455 182.246 187.5 182.246 185.25V176.273H180.95V177.659H180.814C180.518 177.205 179.973 176.159 178.268 176.159C176.064 176.159 174.541 177.909 174.541 180.591C174.541 183.318 176.132 184.864 178.246 184.864C179.95 184.864 180.496 183.864 180.791 183.386H180.905V185.159C180.905 186.614 179.882 187.273 178.473 187.273C176.888 187.273 176.331 186.438 175.973 185.955L174.905 186.705C175.45 187.619 176.524 188.455 178.473 188.455ZM178.427 183.659C176.746 183.659 175.882 182.386 175.882 180.568C175.882 178.795 176.723 177.364 178.427 177.364C180.064 177.364 180.927 178.682 180.927 180.568C180.927 182.5 180.041 183.659 178.427 183.659ZM186.191 179.75C186.191 178.227 187.134 177.364 188.418 177.364C189.663 177.364 190.418 178.176 190.418 179.545V185H191.759V179.455C191.759 177.227 190.572 176.159 188.805 176.159C187.486 176.159 186.668 176.75 186.259 177.636H186.146V176.273H184.85V185H186.191V179.75ZM194.359 185H195.7V176.273H194.359V185ZM195.041 174.818C195.564 174.818 195.996 174.409 195.996 173.909C195.996 173.409 195.564 173 195.041 173C194.519 173 194.087 173.409 194.087 173.909C194.087 174.409 194.519 174.818 195.041 174.818ZM198.056 185H204.897V183.75H199.92V183.659L204.738 177.341V176.273H198.215V177.523H203.011V177.614L198.056 183.977V185ZM209.681 185.205C211.203 185.205 211.999 184.386 212.272 183.818H212.34V185H213.681V179.25C213.681 176.477 211.567 176.159 210.453 176.159C209.135 176.159 207.635 176.614 206.953 178.205L208.226 178.659C208.522 178.023 209.221 177.341 210.499 177.341C211.732 177.341 212.34 177.994 212.34 179.114V179.159C212.34 179.807 211.681 179.75 210.09 179.955C208.471 180.165 206.703 180.523 206.703 182.523C206.703 184.227 208.022 185.205 209.681 185.205ZM209.885 184C208.817 184 208.044 183.523 208.044 182.591C208.044 181.568 208.976 181.25 210.022 181.114C210.59 181.045 212.113 180.886 212.34 180.614V181.841C212.34 182.932 211.476 184 209.885 184ZM216.46 185H217.755V183.659H217.915C218.21 184.136 218.778 185.182 220.46 185.182C222.642 185.182 224.165 183.432 224.165 180.659C224.165 177.909 222.642 176.159 220.437 176.159C218.733 176.159 218.21 177.205 217.915 177.659H217.801V173.364H216.46V185ZM217.778 180.636C217.778 178.682 218.642 177.364 220.278 177.364C221.983 177.364 222.824 178.795 222.824 180.636C222.824 182.5 221.96 183.977 220.278 183.977C218.665 183.977 217.778 182.614 217.778 180.636ZM227.707 173.364H226.366V185H227.707V173.364ZM233.972 185.182C235.744 185.182 237.04 184.295 237.449 182.977L236.153 182.614C235.813 183.523 235.023 183.977 233.972 183.977C232.398 183.977 231.313 182.96 231.25 181.091H237.585V180.523C237.585 177.273 235.653 176.159 233.835 176.159C231.472 176.159 229.903 178.023 229.903 180.705C229.903 183.386 231.449 185.182 233.972 185.182ZM231.25 179.932C231.341 178.574 232.301 177.364 233.835 177.364C235.29 177.364 236.222 178.455 236.222 179.932H231.25ZM245.766 179.75C245.766 178.227 246.709 177.364 247.993 177.364C249.238 177.364 249.993 178.176 249.993 179.545V185H251.334V179.455C251.334 177.227 250.147 176.159 248.38 176.159C247.061 176.159 246.243 176.75 245.834 177.636H245.721V176.273H244.425V185H245.766V179.75ZM256.503 185.205C258.025 185.205 258.821 184.386 259.094 183.818H259.162V185H260.503V179.25C260.503 176.477 258.389 176.159 257.275 176.159C255.957 176.159 254.457 176.614 253.775 178.205L255.048 178.659C255.344 178.023 256.042 177.341 257.321 177.341C258.554 177.341 259.162 177.994 259.162 179.114V179.159C259.162 179.807 258.503 179.75 256.912 179.955C255.292 180.165 253.525 180.523 253.525 182.523C253.525 184.227 254.844 185.205 256.503 185.205ZM256.707 184C255.639 184 254.866 183.523 254.866 182.591C254.866 181.568 255.798 181.25 256.844 181.114C257.412 181.045 258.934 180.886 259.162 180.614V181.841C259.162 182.932 258.298 184 256.707 184ZM263.1 185H264.441V179.545C264.441 178.267 265.373 177.364 266.418 177.364C267.435 177.364 268.146 178.028 268.146 179.023V185H269.509V179.318C269.509 178.193 270.214 177.364 271.441 177.364C272.396 177.364 273.214 177.869 273.214 179.159V185H274.555V179.159C274.555 177.108 273.452 176.159 271.896 176.159C270.646 176.159 269.731 176.733 269.282 177.636H269.191C268.759 176.705 267.998 176.159 266.85 176.159C265.714 176.159 264.873 176.705 264.509 177.636H264.396V176.273H263.1V185ZM280.815 185.182C282.588 185.182 283.884 184.295 284.293 182.977L282.997 182.614C282.656 183.523 281.867 183.977 280.815 183.977C279.242 183.977 278.156 182.96 278.094 181.091H284.429V180.523C284.429 177.273 282.497 176.159 280.679 176.159C278.315 176.159 276.747 178.023 276.747 180.705C276.747 183.386 278.293 185.182 280.815 185.182ZM278.094 179.932C278.185 178.574 279.145 177.364 280.679 177.364C282.134 177.364 283.065 178.455 283.065 179.932H278.094Z" fill="#2C2C2C"/>
<path d="M63.0009 199H327.001V202C327.001 204.761 324.762 207 322.001 207H68.0009C65.2395 207 63.0009 204.761 63.0009 202V199Z" fill="#D3DDE7"/>
<rect x="63.0009" y="225" width="264" height="275" rx="5" fill="white"/>
<path d="M90.4271 251C90.0492 248.912 88.3788 247.679 86.3305 247.679C83.7253 247.679 81.8361 249.688 81.8361 252.909C81.8361 256.131 83.7253 258.139 86.3305 258.139C88.3788 258.139 90.0492 256.906 90.4271 254.818H89.1941C88.8958 256.23 87.6827 256.986 86.3305 256.986C84.481 256.986 83.0293 255.554 83.0293 252.909C83.0293 250.264 84.481 248.832 86.3305 248.832C87.6827 248.832 88.8958 249.588 89.1941 251H90.4271ZM94.6575 258.179C95.9899 258.179 96.6859 257.463 96.9245 256.966H96.9842V258H98.1575V252.969C98.1575 250.543 96.3081 250.264 95.3336 250.264C94.1802 250.264 92.8677 250.662 92.2711 252.054L93.3848 252.452C93.6433 251.895 94.2548 251.298 95.3734 251.298C96.4522 251.298 96.9842 251.87 96.9842 252.849V252.889C96.9842 253.456 96.4075 253.406 95.0154 253.585C93.5985 253.769 92.0524 254.082 92.0524 255.832C92.0524 257.324 93.2058 258.179 94.6575 258.179ZM94.8365 257.125C93.9018 257.125 93.2257 256.707 93.2257 255.892C93.2257 254.997 94.041 254.719 94.9558 254.599C95.4529 254.54 96.7853 254.401 96.9842 254.162V255.236C96.9842 256.19 96.2285 257.125 94.8365 257.125ZM103.77 250.364H102.139V248.534H100.966V250.364H99.8126V251.358H100.966V256.131C100.966 257.463 102.04 258.099 103.034 258.099C103.472 258.099 103.75 258.02 103.909 257.96L103.671 256.906C103.571 256.926 103.412 256.966 103.154 256.966C102.636 256.966 102.139 256.807 102.139 255.812V251.358H103.77V250.364ZM108.805 258.159C110.356 258.159 111.489 257.384 111.847 256.23L110.714 255.912C110.415 256.707 109.724 257.105 108.805 257.105C107.427 257.105 106.478 256.215 106.423 254.58H111.967V254.082C111.967 251.239 110.276 250.264 108.685 250.264C106.617 250.264 105.245 251.895 105.245 254.241C105.245 256.588 106.597 258.159 108.805 258.159ZM106.423 253.565C106.503 252.377 107.343 251.318 108.685 251.318C109.958 251.318 110.773 252.273 110.773 253.565H106.423ZM116.984 261.023C118.813 261.023 120.285 260.188 120.285 258.219V250.364H119.151V251.577H119.032C118.774 251.179 118.296 250.264 116.805 250.264C114.876 250.264 113.543 251.795 113.543 254.142C113.543 256.528 114.935 257.881 116.785 257.881C118.276 257.881 118.754 257.006 119.012 256.588H119.112V258.139C119.112 259.412 118.217 259.989 116.984 259.989C115.597 259.989 115.109 259.258 114.796 258.835L113.862 259.491C114.339 260.292 115.278 261.023 116.984 261.023ZM116.944 256.827C115.472 256.827 114.717 255.713 114.717 254.122C114.717 252.571 115.452 251.318 116.944 251.318C118.376 251.318 119.131 252.472 119.131 254.122C119.131 255.812 118.356 256.827 116.944 256.827ZM125.685 258.159C127.753 258.159 129.145 256.588 129.145 254.222C129.145 251.835 127.753 250.264 125.685 250.264C123.617 250.264 122.225 251.835 122.225 254.222C122.225 256.588 123.617 258.159 125.685 258.159ZM125.685 257.105C124.114 257.105 123.398 255.753 123.398 254.222C123.398 252.69 124.114 251.318 125.685 251.318C127.256 251.318 127.972 252.69 127.972 254.222C127.972 255.753 127.256 257.105 125.685 257.105ZM131.086 258H132.259V253.168C132.259 252.134 133.075 251.378 134.188 251.378C134.502 251.378 134.825 251.438 134.904 251.457V250.264C134.77 250.254 134.462 250.244 134.288 250.244C133.373 250.244 132.578 250.761 132.299 251.517H132.22V250.364H131.086V258ZM137.433 260.864C138.492 260.864 139.238 260.302 139.68 259.114L142.932 250.384L141.649 250.364L139.541 256.449H139.462L137.354 250.364H136.081L138.905 258.04L138.686 258.636C138.258 259.8 137.731 259.909 136.876 259.69L136.578 260.724C136.697 260.784 137.035 260.864 137.433 260.864Z" fill="url(#paint1_linear)"/>
<path d="M88.7736 277.273H90.1373C90.0748 275.517 88.4555 274.205 86.2055 274.205C83.9782 274.205 82.2282 275.5 82.2282 277.455C82.2282 279.023 83.3646 279.955 85.1827 280.477L86.6146 280.886C87.8418 281.227 88.9327 281.659 88.9327 282.818C88.9327 284.091 87.7055 284.932 86.0918 284.932C84.7055 284.932 83.4782 284.318 83.3646 283H81.91C82.0464 284.909 83.5918 286.205 86.0918 286.205C88.7736 286.205 90.2964 284.727 90.2964 282.841C90.2964 280.659 88.2282 279.955 87.0236 279.636L85.8418 279.318C84.9782 279.091 83.5918 278.636 83.5918 277.386C83.5918 276.273 84.6146 275.455 86.16 275.455C87.5691 275.455 88.6373 276.125 88.7736 277.273ZM96.2404 286.182C98.0131 286.182 99.3086 285.295 99.7177 283.977L98.4222 283.614C98.0813 284.523 97.2915 284.977 96.2404 284.977C94.6665 284.977 93.5813 283.96 93.5188 282.091H99.854V281.523C99.854 278.273 97.9222 277.159 96.104 277.159C93.7404 277.159 92.1722 279.023 92.1722 281.705C92.1722 284.386 93.7177 286.182 96.2404 286.182ZM93.5188 280.932C93.6097 279.574 94.5699 278.364 96.104 278.364C97.5586 278.364 98.4904 279.455 98.4904 280.932H93.5188ZM103.385 274.364H102.044V286H103.385V274.364ZM109.65 286.182C111.423 286.182 112.718 285.295 113.127 283.977L111.832 283.614C111.491 284.523 110.701 284.977 109.65 284.977C108.076 284.977 106.991 283.96 106.928 282.091H113.263V281.523C113.263 278.273 111.332 277.159 109.513 277.159C107.15 277.159 105.582 279.023 105.582 281.705C105.582 284.386 107.127 286.182 109.65 286.182ZM106.928 280.932C107.019 279.574 107.979 278.364 109.513 278.364C110.968 278.364 111.9 279.455 111.9 280.932H106.928ZM118.999 286.182C120.93 286.182 122.203 285 122.43 283.455H121.09C120.84 284.409 120.044 284.977 118.999 284.977C117.408 284.977 116.385 283.659 116.385 281.636C116.385 279.659 117.43 278.364 118.999 278.364C120.18 278.364 120.885 279.091 121.09 279.886H122.43C122.203 278.25 120.817 277.159 118.976 277.159C116.612 277.159 115.044 279.023 115.044 281.682C115.044 284.295 116.544 286.182 118.999 286.182ZM128.336 277.273H126.473V275.182H125.132V277.273H123.813V278.409H125.132V283.864C125.132 285.386 126.359 286.114 127.495 286.114C127.995 286.114 128.313 286.023 128.495 285.955L128.223 284.75C128.109 284.773 127.927 284.818 127.632 284.818C127.041 284.818 126.473 284.636 126.473 283.5V278.409H128.336V277.273ZM137.721 286.205C139.244 286.205 140.04 285.386 140.312 284.818H140.38V286H141.721V280.25C141.721 277.477 139.608 277.159 138.494 277.159C137.176 277.159 135.676 277.614 134.994 279.205L136.267 279.659C136.562 279.023 137.261 278.341 138.54 278.341C139.773 278.341 140.38 278.994 140.38 280.114V280.159C140.38 280.807 139.721 280.75 138.13 280.955C136.511 281.165 134.744 281.523 134.744 283.523C134.744 285.227 136.062 286.205 137.721 286.205ZM137.926 285C136.858 285 136.085 284.523 136.085 283.591C136.085 282.568 137.017 282.25 138.062 282.114C138.63 282.045 140.153 281.886 140.38 281.614V282.841C140.38 283.932 139.517 285 137.926 285ZM152.514 286.182C154.446 286.182 155.719 285 155.946 283.455H154.605C154.355 284.409 153.56 284.977 152.514 284.977C150.923 284.977 149.901 283.659 149.901 281.636C149.901 279.659 150.946 278.364 152.514 278.364C153.696 278.364 154.401 279.091 154.605 279.886H155.946C155.719 278.25 154.332 277.159 152.492 277.159C150.128 277.159 148.56 279.023 148.56 281.682C148.56 284.295 150.06 286.182 152.514 286.182ZM160.624 286.205C162.147 286.205 162.943 285.386 163.215 284.818H163.284V286H164.624V280.25C164.624 277.477 162.511 277.159 161.397 277.159C160.079 277.159 158.579 277.614 157.897 279.205L159.17 279.659C159.465 279.023 160.164 278.341 161.443 278.341C162.676 278.341 163.284 278.994 163.284 280.114V280.159C163.284 280.807 162.624 280.75 161.034 280.955C159.414 281.165 157.647 281.523 157.647 283.523C157.647 285.227 158.965 286.205 160.624 286.205ZM160.829 285C159.761 285 158.988 284.523 158.988 283.591C158.988 282.568 159.92 282.25 160.965 282.114C161.534 282.045 163.056 281.886 163.284 281.614V282.841C163.284 283.932 162.42 285 160.829 285ZM171.017 277.273H169.154V275.182H167.813V277.273H166.495V278.409H167.813V283.864C167.813 285.386 169.04 286.114 170.176 286.114C170.676 286.114 170.995 286.023 171.176 285.955L170.904 284.75C170.79 284.773 170.608 284.818 170.313 284.818C169.722 284.818 169.154 284.636 169.154 283.5V278.409H171.017V277.273ZM176.75 286.182C178.523 286.182 179.818 285.295 180.227 283.977L178.932 283.614C178.591 284.523 177.801 284.977 176.75 284.977C175.176 284.977 174.091 283.96 174.028 282.091H180.363V281.523C180.363 278.273 178.432 277.159 176.613 277.159C174.25 277.159 172.682 279.023 172.682 281.705C172.682 284.386 174.227 286.182 176.75 286.182ZM174.028 280.932C174.119 279.574 175.079 278.364 176.613 278.364C178.068 278.364 179 279.455 179 280.932H174.028ZM186.076 289.455C188.167 289.455 189.849 288.5 189.849 286.25V277.273H188.553V278.659H188.417C188.121 278.205 187.576 277.159 185.871 277.159C183.667 277.159 182.144 278.909 182.144 281.591C182.144 284.318 183.735 285.864 185.849 285.864C187.553 285.864 188.099 284.864 188.394 284.386H188.508V286.159C188.508 287.614 187.485 288.273 186.076 288.273C184.491 288.273 183.934 287.438 183.576 286.955L182.508 287.705C183.053 288.619 184.127 289.455 186.076 289.455ZM186.03 284.659C184.349 284.659 183.485 283.386 183.485 281.568C183.485 279.795 184.326 278.364 186.03 278.364C187.667 278.364 188.53 279.682 188.53 281.568C188.53 283.5 187.644 284.659 186.03 284.659ZM195.999 286.182C198.362 286.182 199.953 284.386 199.953 281.682C199.953 278.955 198.362 277.159 195.999 277.159C193.635 277.159 192.044 278.955 192.044 281.682C192.044 284.386 193.635 286.182 195.999 286.182ZM195.999 284.977C194.203 284.977 193.385 283.432 193.385 281.682C193.385 279.932 194.203 278.364 195.999 278.364C197.794 278.364 198.612 279.932 198.612 281.682C198.612 283.432 197.794 284.977 195.999 284.977ZM202.15 286H203.491V280.477C203.491 279.295 204.423 278.432 205.696 278.432C206.053 278.432 206.423 278.5 206.514 278.523V277.159C206.36 277.148 206.008 277.136 205.809 277.136C204.764 277.136 203.855 277.727 203.536 278.591H203.446V277.273H202.15V286ZM209.382 289.273C210.593 289.273 211.445 288.631 211.951 287.273L215.667 277.295L214.201 277.273L211.792 284.227H211.701L209.292 277.273H207.837L211.064 286.045L210.814 286.727C210.326 288.057 209.723 288.182 208.746 287.932L208.405 289.114C208.542 289.182 208.928 289.273 209.382 289.273Z" fill="#2C2C2C"/>
<path d="M109.41 312.364V324H110.728V315.159H110.842L114.478 324H115.751L119.387 315.159H119.501V324H120.819V312.364H119.137L115.183 322.023H115.046L111.092 312.364H109.41ZM127.158 324.182C129.522 324.182 131.113 322.386 131.113 319.682C131.113 316.955 129.522 315.159 127.158 315.159C124.794 315.159 123.203 316.955 123.203 319.682C123.203 322.386 124.794 324.182 127.158 324.182ZM127.158 322.977C125.363 322.977 124.544 321.432 124.544 319.682C124.544 317.932 125.363 316.364 127.158 316.364C128.953 316.364 129.772 317.932 129.772 319.682C129.772 321.432 128.953 322.977 127.158 322.977ZM138.809 320.432C138.809 322.068 137.559 322.818 136.559 322.818C135.446 322.818 134.65 322 134.65 320.727V315.273H133.309V320.818C133.309 323.045 134.491 324.114 136.128 324.114C137.446 324.114 138.309 323.409 138.719 322.523H138.809V324H140.15V315.273H138.809V320.432ZM144.097 318.75C144.097 317.227 145.04 316.364 146.324 316.364C147.569 316.364 148.324 317.176 148.324 318.545V324H149.665V318.455C149.665 316.227 148.478 315.159 146.711 315.159C145.393 315.159 144.574 315.75 144.165 316.636H144.052V315.273H142.756V324H144.097V318.75ZM156.061 315.273H154.198V313.182H152.857V315.273H151.538V316.409H152.857V321.864C152.857 323.386 154.084 324.114 155.22 324.114C155.72 324.114 156.038 324.023 156.22 323.955L155.948 322.75C155.834 322.773 155.652 322.818 155.357 322.818C154.766 322.818 154.198 322.636 154.198 321.5V316.409H156.061V315.273ZM160.796 324.205C162.319 324.205 163.115 323.386 163.387 322.818H163.455V324H164.796V318.25C164.796 315.477 162.683 315.159 161.569 315.159C160.251 315.159 158.751 315.614 158.069 317.205L159.342 317.659C159.637 317.023 160.336 316.341 161.615 316.341C162.848 316.341 163.455 316.994 163.455 318.114V318.159C163.455 318.807 162.796 318.75 161.205 318.955C159.586 319.165 157.819 319.523 157.819 321.523C157.819 323.227 159.137 324.205 160.796 324.205ZM161.001 323C159.933 323 159.16 322.523 159.16 321.591C159.16 320.568 160.092 320.25 161.137 320.114C161.705 320.045 163.228 319.886 163.455 319.614V320.841C163.455 321.932 162.592 323 161.001 323ZM167.394 324H168.735V315.273H167.394V324ZM168.076 313.818C168.598 313.818 169.03 313.409 169.03 312.909C169.03 312.409 168.598 312 168.076 312C167.553 312 167.121 312.409 167.121 312.909C167.121 313.409 167.553 313.818 168.076 313.818ZM172.682 318.75C172.682 317.227 173.625 316.364 174.909 316.364C176.153 316.364 176.909 317.176 176.909 318.545V324H178.25V318.455C178.25 316.227 177.062 315.159 175.295 315.159C173.977 315.159 173.159 315.75 172.75 316.636H172.636V315.273H171.341V324H172.682V318.75ZM115.774 343.273H117.137C117.075 341.517 115.455 340.205 113.205 340.205C110.978 340.205 109.228 341.5 109.228 343.455C109.228 345.023 110.365 345.955 112.183 346.477L113.615 346.886C114.842 347.227 115.933 347.659 115.933 348.818C115.933 350.091 114.705 350.932 113.092 350.932C111.705 350.932 110.478 350.318 110.365 349H108.91C109.046 350.909 110.592 352.205 113.092 352.205C115.774 352.205 117.296 350.727 117.296 348.841C117.296 346.659 115.228 345.955 114.024 345.636L112.842 345.318C111.978 345.091 110.592 344.636 110.592 343.386C110.592 342.273 111.615 341.455 113.16 341.455C114.569 341.455 115.637 342.125 115.774 343.273ZM123.24 352.182C125.013 352.182 126.309 351.295 126.718 349.977L125.422 349.614C125.081 350.523 124.292 350.977 123.24 350.977C121.667 350.977 120.581 349.96 120.519 348.091H126.854V347.523C126.854 344.273 124.922 343.159 123.104 343.159C120.74 343.159 119.172 345.023 119.172 347.705C119.172 350.386 120.718 352.182 123.24 352.182ZM120.519 346.932C120.61 345.574 121.57 344.364 123.104 344.364C124.559 344.364 125.49 345.455 125.49 346.932H120.519ZM131.612 352.205C133.135 352.205 133.93 351.386 134.203 350.818H134.271V352H135.612V346.25C135.612 343.477 133.498 343.159 132.385 343.159C131.067 343.159 129.567 343.614 128.885 345.205L130.157 345.659C130.453 345.023 131.152 344.341 132.43 344.341C133.663 344.341 134.271 344.994 134.271 346.114V346.159C134.271 346.807 133.612 346.75 132.021 346.955C130.402 347.165 128.635 347.523 128.635 349.523C128.635 351.227 129.953 352.205 131.612 352.205ZM131.817 351C130.748 351 129.976 350.523 129.976 349.591C129.976 348.568 130.907 348.25 131.953 348.114C132.521 348.045 134.044 347.886 134.271 347.614V348.841C134.271 349.932 133.407 351 131.817 351ZM146.405 352.182C148.769 352.182 150.359 350.386 150.359 347.682C150.359 344.955 148.769 343.159 146.405 343.159C144.041 343.159 142.45 344.955 142.45 347.682C142.45 350.386 144.041 352.182 146.405 352.182ZM146.405 350.977C144.609 350.977 143.791 349.432 143.791 347.682C143.791 345.932 144.609 344.364 146.405 344.364C148.2 344.364 149.019 345.932 149.019 347.682C149.019 349.432 148.2 350.977 146.405 350.977ZM152.556 352H153.897V346.477C153.897 345.295 154.829 344.432 156.102 344.432C156.46 344.432 156.829 344.5 156.92 344.523V343.159C156.767 343.148 156.414 343.136 156.215 343.136C155.17 343.136 154.261 343.727 153.943 344.591H153.852V343.273H152.556V352ZM163.491 352H164.787V350.659H164.946C165.241 351.136 165.809 352.182 167.491 352.182C169.673 352.182 171.196 350.432 171.196 347.659C171.196 344.909 169.673 343.159 167.469 343.159C165.764 343.159 165.241 344.205 164.946 344.659H164.832V340.364H163.491V352ZM164.809 347.636C164.809 345.682 165.673 344.364 167.309 344.364C169.014 344.364 169.855 345.795 169.855 347.636C169.855 349.5 168.991 350.977 167.309 350.977C165.696 350.977 164.809 349.614 164.809 347.636ZM177.056 352.182C178.829 352.182 180.124 351.295 180.533 349.977L179.238 349.614C178.897 350.523 178.107 350.977 177.056 350.977C175.482 350.977 174.397 349.96 174.334 348.091H180.67V347.523C180.67 344.273 178.738 343.159 176.92 343.159C174.556 343.159 172.988 345.023 172.988 347.705C172.988 350.386 174.533 352.182 177.056 352.182ZM174.334 346.932C174.425 345.574 175.386 344.364 176.92 344.364C178.374 344.364 179.306 345.455 179.306 346.932H174.334ZM185.428 352.205C186.95 352.205 187.746 351.386 188.019 350.818H188.087V352H189.428V346.25C189.428 343.477 187.314 343.159 186.2 343.159C184.882 343.159 183.382 343.614 182.7 345.205L183.973 345.659C184.269 345.023 184.967 344.341 186.246 344.341C187.479 344.341 188.087 344.994 188.087 346.114V346.159C188.087 346.807 187.428 346.75 185.837 346.955C184.217 347.165 182.45 347.523 182.45 349.523C182.45 351.227 183.769 352.205 185.428 352.205ZM185.632 351C184.564 351 183.791 350.523 183.791 349.591C183.791 348.568 184.723 348.25 185.769 348.114C186.337 348.045 187.859 347.886 188.087 347.614V348.841C188.087 349.932 187.223 351 185.632 351ZM195.571 352.182C197.502 352.182 198.775 351 199.002 349.455H197.661C197.411 350.409 196.616 350.977 195.571 350.977C193.98 350.977 192.957 349.659 192.957 347.636C192.957 345.659 194.002 344.364 195.571 344.364C196.752 344.364 197.457 345.091 197.661 345.886H199.002C198.775 344.25 197.389 343.159 195.548 343.159C193.184 343.159 191.616 345.023 191.616 347.682C191.616 350.295 193.116 352.182 195.571 352.182ZM202.453 346.75C202.453 345.227 203.425 344.364 204.749 344.364C206.01 344.364 206.772 345.159 206.772 346.545V352H208.113V346.455C208.113 344.21 206.919 343.159 205.135 343.159C203.76 343.159 202.976 343.733 202.567 344.636H202.453V340.364H201.113V352H202.453V346.75ZM117.046 368.364V375.955C117.046 377.659 115.876 378.886 113.933 378.886C111.99 378.886 110.819 377.659 110.819 375.955V368.364H109.41V376.068C109.41 378.455 111.194 380.205 113.933 380.205C116.671 380.205 118.455 378.455 118.455 376.068V368.364H117.046ZM121.238 380H122.578V374.477C122.578 373.295 123.51 372.432 124.783 372.432C125.141 372.432 125.51 372.5 125.601 372.523V371.159C125.448 371.148 125.096 371.136 124.897 371.136C123.851 371.136 122.942 371.727 122.624 372.591H122.533V371.273H121.238V380ZM127.523 380H128.818V378.659H128.977C129.273 379.136 129.841 380.182 131.523 380.182C133.704 380.182 135.227 378.432 135.227 375.659C135.227 372.909 133.704 371.159 131.5 371.159C129.795 371.159 129.273 372.205 128.977 372.659H128.863V368.364H127.523V380ZM128.841 375.636C128.841 373.682 129.704 372.364 131.341 372.364C133.045 372.364 133.886 373.795 133.886 375.636C133.886 377.5 133.023 378.977 131.341 378.977C129.727 378.977 128.841 377.614 128.841 375.636ZM139.996 380.205C141.519 380.205 142.315 379.386 142.587 378.818H142.655V380H143.996V374.25C143.996 371.477 141.883 371.159 140.769 371.159C139.451 371.159 137.951 371.614 137.269 373.205L138.542 373.659C138.837 373.023 139.536 372.341 140.815 372.341C142.048 372.341 142.655 372.994 142.655 374.114V374.159C142.655 374.807 141.996 374.75 140.405 374.955C138.786 375.165 137.019 375.523 137.019 377.523C137.019 379.227 138.337 380.205 139.996 380.205ZM140.201 379C139.133 379 138.36 378.523 138.36 377.591C138.36 376.568 139.292 376.25 140.337 376.114C140.905 376.045 142.428 375.886 142.655 375.614V376.841C142.655 377.932 141.792 379 140.201 379ZM147.935 374.75C147.935 373.227 148.878 372.364 150.162 372.364C151.406 372.364 152.162 373.176 152.162 374.545V380H153.503V374.455C153.503 372.227 152.315 371.159 150.548 371.159C149.23 371.159 148.412 371.75 148.003 372.636H147.889V371.273H146.594V380H147.935V374.75ZM164.299 380.182C166.23 380.182 167.503 379 167.73 377.455H166.39C166.14 378.409 165.344 378.977 164.299 378.977C162.708 378.977 161.685 377.659 161.685 375.636C161.685 373.659 162.73 372.364 164.299 372.364C165.48 372.364 166.185 373.091 166.39 373.886H167.73C167.503 372.25 166.117 371.159 164.276 371.159C161.912 371.159 160.344 373.023 160.344 375.682C160.344 378.295 161.844 380.182 164.299 380.182ZM173.5 380.182C175.273 380.182 176.568 379.295 176.977 377.977L175.682 377.614C175.341 378.523 174.551 378.977 173.5 378.977C171.926 378.977 170.841 377.96 170.778 376.091H177.113V375.523C177.113 372.273 175.182 371.159 173.363 371.159C171 371.159 169.432 373.023 169.432 375.705C169.432 378.386 170.977 380.182 173.5 380.182ZM170.778 374.932C170.869 373.574 171.829 372.364 173.363 372.364C174.818 372.364 175.75 373.455 175.75 374.932H170.778ZM180.644 374.75C180.644 373.227 181.587 372.364 182.871 372.364C184.116 372.364 184.871 373.176 184.871 374.545V380H186.212V374.455C186.212 372.227 185.025 371.159 183.258 371.159C181.94 371.159 181.121 371.75 180.712 372.636H180.599V371.273H179.303V380H180.644V374.75ZM192.608 371.273H190.744V369.182H189.403V371.273H188.085V372.409H189.403V377.864C189.403 379.386 190.631 380.114 191.767 380.114C192.267 380.114 192.585 380.023 192.767 379.955L192.494 378.75C192.381 378.773 192.199 378.818 191.903 378.818C191.313 378.818 190.744 378.636 190.744 377.5V372.409H192.608V371.273ZM198.34 380.182C200.113 380.182 201.409 379.295 201.818 377.977L200.522 377.614C200.181 378.523 199.392 378.977 198.34 378.977C196.767 378.977 195.681 377.96 195.619 376.091H201.954V375.523C201.954 372.273 200.022 371.159 198.204 371.159C195.84 371.159 194.272 373.023 194.272 375.705C194.272 378.386 195.818 380.182 198.34 380.182ZM195.619 374.932C195.71 373.574 196.67 372.364 198.204 372.364C199.659 372.364 200.59 373.455 200.59 374.932H195.619ZM204.144 380H205.485V374.477C205.485 373.295 206.417 372.432 207.689 372.432C208.047 372.432 208.417 372.5 208.507 372.523V371.159C208.354 371.148 208.002 371.136 207.803 371.136C206.757 371.136 205.848 371.727 205.53 372.591H205.439V371.273H204.144V380ZM109.41 408H110.819V402.795H117.024V408H118.433V396.364H117.024V401.545H110.819V396.364H109.41V408ZM121.222 408H122.563V399.273H121.222V408ZM121.904 397.818C122.426 397.818 122.858 397.409 122.858 396.909C122.858 396.409 122.426 396 121.904 396C121.381 396 120.949 396.409 120.949 396.909C120.949 397.409 121.381 397.818 121.904 397.818ZM128.692 411.455C130.782 411.455 132.464 410.5 132.464 408.25V399.273H131.169V400.659H131.032C130.737 400.205 130.192 399.159 128.487 399.159C126.282 399.159 124.76 400.909 124.76 403.591C124.76 406.318 126.351 407.864 128.464 407.864C130.169 407.864 130.714 406.864 131.01 406.386H131.123V408.159C131.123 409.614 130.101 410.273 128.692 410.273C127.106 410.273 126.549 409.438 126.192 408.955L125.123 409.705C125.669 410.619 126.743 411.455 128.692 411.455ZM128.646 406.659C126.964 406.659 126.101 405.386 126.101 403.568C126.101 401.795 126.942 400.364 128.646 400.364C130.282 400.364 131.146 401.682 131.146 403.568C131.146 405.5 130.26 406.659 128.646 406.659ZM136.41 402.75C136.41 401.227 137.381 400.364 138.705 400.364C139.967 400.364 140.728 401.159 140.728 402.545V408H142.069V402.455C142.069 400.21 140.876 399.159 139.092 399.159C137.717 399.159 136.932 399.733 136.523 400.636H136.41V396.364H135.069V408H136.41V402.75ZM146.649 408H147.967L149.876 401.295H150.013L151.922 408H153.24L155.899 399.273H154.49L152.604 405.932H152.513L150.672 399.273H149.24L147.376 405.955H147.286L145.399 399.273H143.99L146.649 408ZM160.39 408.205C161.913 408.205 162.708 407.386 162.981 406.818H163.049V408H164.39V402.25C164.39 399.477 162.276 399.159 161.163 399.159C159.845 399.159 158.345 399.614 157.663 401.205L158.936 401.659C159.231 401.023 159.93 400.341 161.208 400.341C162.441 400.341 163.049 400.994 163.049 402.114V402.159C163.049 402.807 162.39 402.75 160.799 402.955C159.18 403.165 157.413 403.523 157.413 405.523C157.413 407.227 158.731 408.205 160.39 408.205ZM160.595 407C159.526 407 158.754 406.523 158.754 405.591C158.754 404.568 159.686 404.25 160.731 404.114C161.299 404.045 162.822 403.886 163.049 403.614V404.841C163.049 405.932 162.186 407 160.595 407ZM167.539 411.273C168.749 411.273 169.601 410.631 170.107 409.273L173.823 399.295L172.357 399.273L169.948 406.227H169.857L167.448 399.273H165.993L169.221 408.045L168.971 408.727C168.482 410.057 167.88 410.182 166.902 409.932L166.561 411.114C166.698 411.182 167.084 411.273 167.539 411.273ZM109.887 436L111.058 432.705H115.762L116.933 436H118.41L114.137 424.364H112.683L108.41 436H109.887ZM111.501 431.455L113.365 426.205H113.455L115.319 431.455H111.501ZM120.284 436H121.625V427.273H120.284V436ZM120.966 425.818C121.489 425.818 121.921 425.409 121.921 424.909C121.921 424.409 121.489 424 120.966 424C120.444 424 120.012 424.409 120.012 424.909C120.012 425.409 120.444 425.818 120.966 425.818ZM124.231 436H125.572V430.477C125.572 429.295 126.504 428.432 127.777 428.432C128.135 428.432 128.504 428.5 128.595 428.523V427.159C128.442 427.148 128.089 427.136 127.89 427.136C126.845 427.136 125.936 427.727 125.618 428.591H125.527V427.273H124.231V436ZM130.334 439.273H131.675V434.659H131.789C132.084 435.136 132.653 436.182 134.334 436.182C136.516 436.182 138.039 434.432 138.039 431.659C138.039 428.909 136.516 427.159 134.312 427.159C132.607 427.159 132.084 428.205 131.789 428.659H131.63V427.273H130.334V439.273ZM131.653 431.636C131.653 429.682 132.516 428.364 134.153 428.364C135.857 428.364 136.698 429.795 136.698 431.636C136.698 433.5 135.834 434.977 134.153 434.977C132.539 434.977 131.653 433.614 131.653 431.636ZM143.78 436.182C146.144 436.182 147.734 434.386 147.734 431.682C147.734 428.955 146.144 427.159 143.78 427.159C141.416 427.159 139.825 428.955 139.825 431.682C139.825 434.386 141.416 436.182 143.78 436.182ZM143.78 434.977C141.984 434.977 141.166 433.432 141.166 431.682C141.166 429.932 141.984 428.364 143.78 428.364C145.575 428.364 146.394 429.932 146.394 431.682C146.394 433.432 145.575 434.977 143.78 434.977ZM149.931 436H151.272V430.477C151.272 429.295 152.204 428.432 153.477 428.432C153.835 428.432 154.204 428.5 154.295 428.523V427.159C154.142 427.148 153.789 427.136 153.59 427.136C152.545 427.136 151.636 427.727 151.318 428.591H151.227V427.273H149.931V436ZM160.377 427.273H158.513V425.182H157.172V427.273H155.854V428.409H157.172V433.864C157.172 435.386 158.399 436.114 159.536 436.114C160.036 436.114 160.354 436.023 160.536 435.955L160.263 434.75C160.149 434.773 159.968 434.818 159.672 434.818C159.081 434.818 158.513 434.636 158.513 433.5V428.409H160.377V427.273ZM118.637 452.364H117.251V461.523H117.137L110.774 452.364H109.41V464H110.819V454.864H110.933L117.274 464H118.637V452.364ZM124.971 464.182C127.334 464.182 128.925 462.386 128.925 459.682C128.925 456.955 127.334 455.159 124.971 455.159C122.607 455.159 121.016 456.955 121.016 459.682C121.016 462.386 122.607 464.182 124.971 464.182ZM124.971 462.977C123.175 462.977 122.357 461.432 122.357 459.682C122.357 457.932 123.175 456.364 124.971 456.364C126.766 456.364 127.584 457.932 127.584 459.682C127.584 461.432 126.766 462.977 124.971 462.977ZM132.463 458.75C132.463 457.227 133.406 456.364 134.69 456.364C135.934 456.364 136.69 457.176 136.69 458.545V464H138.031V458.455C138.031 456.227 136.844 455.159 135.076 455.159C133.758 455.159 132.94 455.75 132.531 456.636H132.417V455.273H131.122V464H132.463V458.75ZM144.29 464.182C146.063 464.182 147.359 463.295 147.768 461.977L146.472 461.614C146.131 462.523 145.342 462.977 144.29 462.977C142.717 462.977 141.631 461.96 141.569 460.091H147.904V459.523C147.904 456.273 145.972 455.159 144.154 455.159C141.79 455.159 140.222 457.023 140.222 459.705C140.222 462.386 141.768 464.182 144.29 464.182ZM141.569 458.932C141.66 457.574 142.62 456.364 144.154 456.364C145.609 456.364 146.54 457.455 146.54 458.932H141.569ZM158.289 464.182C160.653 464.182 162.244 462.386 162.244 459.682C162.244 456.955 160.653 455.159 158.289 455.159C155.926 455.159 154.335 456.955 154.335 459.682C154.335 462.386 155.926 464.182 158.289 464.182ZM158.289 462.977C156.494 462.977 155.676 461.432 155.676 459.682C155.676 457.932 156.494 456.364 158.289 456.364C160.085 456.364 160.903 457.932 160.903 459.682C160.903 461.432 160.085 462.977 158.289 462.977ZM168.327 455.273H166.373V454.386C166.373 453.523 166.736 453.068 167.623 453.068C168.009 453.068 168.236 453.159 168.373 453.205L168.759 452.045C168.554 451.955 168.145 451.818 167.486 451.818C166.236 451.818 165.032 452.568 165.032 454.068V455.273H163.623V456.409H165.032V464H166.373V456.409H168.327V455.273ZM178.802 455.273H176.938V453.182H175.597V455.273H174.279V456.409H175.597V461.864C175.597 463.386 176.824 464.114 177.961 464.114C178.461 464.114 178.779 464.023 178.961 463.955L178.688 462.75C178.574 462.773 178.393 462.818 178.097 462.818C177.506 462.818 176.938 462.636 176.938 461.5V456.409H178.802V455.273ZM182.497 458.75C182.497 457.227 183.469 456.364 184.793 456.364C186.054 456.364 186.815 457.159 186.815 458.545V464H188.156V458.455C188.156 456.21 186.963 455.159 185.179 455.159C183.804 455.159 183.02 455.733 182.611 456.636H182.497V452.364H181.156V464H182.497V458.75ZM194.419 464.182C196.191 464.182 197.487 463.295 197.896 461.977L196.6 461.614C196.259 462.523 195.47 462.977 194.419 462.977C192.845 462.977 191.759 461.96 191.697 460.091H198.032V459.523C198.032 456.273 196.1 455.159 194.282 455.159C191.919 455.159 190.35 457.023 190.35 459.705C190.35 462.386 191.896 464.182 194.419 464.182ZM191.697 458.932C191.788 457.574 192.748 456.364 194.282 456.364C195.737 456.364 196.669 457.455 196.669 458.932H191.697ZM207.44 464.205C208.963 464.205 209.758 463.386 210.031 462.818H210.099V464H211.44V458.25C211.44 455.477 209.326 455.159 208.213 455.159C206.895 455.159 205.395 455.614 204.713 457.205L205.986 457.659C206.281 457.023 206.98 456.341 208.258 456.341C209.491 456.341 210.099 456.994 210.099 458.114V458.159C210.099 458.807 209.44 458.75 207.849 458.955C206.23 459.165 204.463 459.523 204.463 461.523C204.463 463.227 205.781 464.205 207.44 464.205ZM207.645 463C206.576 463 205.804 462.523 205.804 461.591C205.804 460.568 206.736 460.25 207.781 460.114C208.349 460.045 209.872 459.886 210.099 459.614V460.841C210.099 461.932 209.236 463 207.645 463ZM214.219 464H215.515V462.659H215.674C215.969 463.136 216.538 464.182 218.219 464.182C220.401 464.182 221.924 462.432 221.924 459.659C221.924 456.909 220.401 455.159 218.197 455.159C216.492 455.159 215.969 456.205 215.674 456.659H215.56V452.364H214.219V464ZM215.538 459.636C215.538 457.682 216.401 456.364 218.038 456.364C219.742 456.364 220.583 457.795 220.583 459.636C220.583 461.5 219.719 462.977 218.038 462.977C216.424 462.977 215.538 461.614 215.538 459.636ZM227.671 464.182C230.034 464.182 231.625 462.386 231.625 459.682C231.625 456.955 230.034 455.159 227.671 455.159C225.307 455.159 223.716 456.955 223.716 459.682C223.716 462.386 225.307 464.182 227.671 464.182ZM227.671 462.977C225.875 462.977 225.057 461.432 225.057 459.682C225.057 457.932 225.875 456.364 227.671 456.364C229.466 456.364 230.284 457.932 230.284 459.682C230.284 461.432 229.466 462.977 227.671 462.977ZM240.646 455.273H239.191L236.782 462.227H236.691L234.282 455.273H232.828L236.055 464H237.419L240.646 455.273ZM245.912 464.182C247.685 464.182 248.98 463.295 249.39 461.977L248.094 461.614C247.753 462.523 246.963 462.977 245.912 462.977C244.338 462.977 243.253 461.96 243.191 460.091H249.526V459.523C249.526 456.273 247.594 455.159 245.776 455.159C243.412 455.159 241.844 457.023 241.844 459.705C241.844 462.386 243.39 464.182 245.912 464.182ZM243.191 458.932C243.282 457.574 244.242 456.364 245.776 456.364C247.23 456.364 248.162 457.455 248.162 458.932H243.191Z" fill="#2C2C2C"/>
<path d="M63.0009 496H327.001V499C327.001 501.761 324.762 504 322.001 504H68.0009C65.2395 504 63.0009 501.761 63.0009 499V496Z" fill="#D3DDE7"/>
<rect x="63.0009" y="517" width="264" height="242" rx="5" fill="white"/>
<path d="M82.2339 550H88.4583V548.906H83.4668V545.446H88.0606V544.352H83.4668V540.912H88.3788V539.818H82.2339V550ZM91.467 542.364H90.1147L92.5408 546.182L90.1147 550H91.467L93.2965 547.037L95.1261 550H96.4783L94.0124 546.182L96.4783 542.364H95.1261L93.2965 545.486L91.467 542.364ZM98.3025 552.864H99.4758V548.827H99.5752C99.8338 549.244 100.331 550.159 101.803 550.159C103.712 550.159 105.044 548.628 105.044 546.202C105.044 543.795 103.712 542.264 101.783 542.264C100.291 542.264 99.8338 543.179 99.5752 543.577H99.436V542.364H98.3025V552.864ZM99.4559 546.182C99.4559 544.472 100.212 543.318 101.643 543.318C103.135 543.318 103.871 544.571 103.871 546.182C103.871 547.812 103.115 549.105 101.643 549.105C100.231 549.105 99.4559 547.912 99.4559 546.182ZM110.185 550.159C111.737 550.159 112.87 549.384 113.228 548.23L112.095 547.912C111.796 548.707 111.105 549.105 110.185 549.105C108.808 549.105 107.859 548.215 107.804 546.58H113.347V546.082C113.347 543.239 111.657 542.264 110.066 542.264C107.998 542.264 106.626 543.895 106.626 546.241C106.626 548.588 107.978 550.159 110.185 550.159ZM107.804 545.565C107.884 544.377 108.724 543.318 110.066 543.318C111.339 543.318 112.154 544.273 112.154 545.565H107.804ZM115.282 550H116.455V545.168C116.455 544.134 117.271 543.378 118.384 543.378C118.698 543.378 119.021 543.438 119.1 543.457V542.264C118.966 542.254 118.658 542.244 118.484 542.244C117.569 542.244 116.774 542.761 116.495 543.517H116.416V542.364H115.282V550ZM120.641 550H121.814V542.364H120.641V550ZM121.238 541.091C121.695 541.091 122.073 540.733 122.073 540.295C122.073 539.858 121.695 539.5 121.238 539.5C120.78 539.5 120.403 539.858 120.403 540.295C120.403 540.733 120.78 541.091 121.238 541.091ZM127.315 550.159C128.866 550.159 130 549.384 130.358 548.23L129.224 547.912C128.926 548.707 128.235 549.105 127.315 549.105C125.938 549.105 124.988 548.215 124.934 546.58H130.477V546.082C130.477 543.239 128.787 542.264 127.196 542.264C125.128 542.264 123.755 543.895 123.755 546.241C123.755 548.588 125.108 550.159 127.315 550.159ZM124.934 545.565C125.013 544.377 125.854 543.318 127.196 543.318C128.469 543.318 129.284 544.273 129.284 545.565H124.934ZM133.585 545.406C133.585 544.074 134.41 543.318 135.534 543.318C136.623 543.318 137.284 544.029 137.284 545.227V550H138.457V545.148C138.457 543.199 137.418 542.264 135.872 542.264C134.719 542.264 134.003 542.781 133.645 543.557H133.545V542.364H132.412V550H133.585V545.406ZM143.854 550.159C145.544 550.159 146.658 549.125 146.856 547.773H145.683C145.464 548.608 144.768 549.105 143.854 549.105C142.462 549.105 141.567 547.952 141.567 546.182C141.567 544.452 142.481 543.318 143.854 543.318C144.888 543.318 145.504 543.955 145.683 544.651H146.856C146.658 543.219 145.445 542.264 143.834 542.264C141.766 542.264 140.393 543.895 140.393 546.222C140.393 548.509 141.706 550.159 143.854 550.159ZM151.923 550.159C153.474 550.159 154.608 549.384 154.966 548.23L153.832 547.912C153.534 548.707 152.843 549.105 151.923 549.105C150.546 549.105 149.597 548.215 149.542 546.58H155.085V546.082C155.085 543.239 153.395 542.264 151.804 542.264C149.736 542.264 148.364 543.895 148.364 546.241C148.364 548.588 149.716 550.159 151.923 550.159ZM149.542 545.565C149.622 544.377 150.462 543.318 151.804 543.318C153.077 543.318 153.892 544.273 153.892 545.565H149.542Z" fill="url(#paint2_linear)"/>
<path d="M88.7736 569.273H90.1373C90.0748 567.517 88.4555 566.205 86.2055 566.205C83.9782 566.205 82.2282 567.5 82.2282 569.455C82.2282 571.023 83.3646 571.955 85.1827 572.477L86.6146 572.886C87.8418 573.227 88.9327 573.659 88.9327 574.818C88.9327 576.091 87.7055 576.932 86.0918 576.932C84.7055 576.932 83.4782 576.318 83.3646 575H81.91C82.0464 576.909 83.5918 578.205 86.0918 578.205C88.7736 578.205 90.2964 576.727 90.2964 574.841C90.2964 572.659 88.2282 571.955 87.0236 571.636L85.8418 571.318C84.9782 571.091 83.5918 570.636 83.5918 569.386C83.5918 568.273 84.6146 567.455 86.16 567.455C87.5691 567.455 88.6373 568.125 88.7736 569.273ZM96.2404 578.182C98.0131 578.182 99.3086 577.295 99.7177 575.977L98.4222 575.614C98.0813 576.523 97.2915 576.977 96.2404 576.977C94.6665 576.977 93.5813 575.96 93.5188 574.091H99.854V573.523C99.854 570.273 97.9222 569.159 96.104 569.159C93.7404 569.159 92.1722 571.023 92.1722 573.705C92.1722 576.386 93.7177 578.182 96.2404 578.182ZM93.5188 572.932C93.6097 571.574 94.5699 570.364 96.104 570.364C97.5586 570.364 98.4904 571.455 98.4904 572.932H93.5188ZM103.385 566.364H102.044V578H103.385V566.364ZM109.65 578.182C111.423 578.182 112.718 577.295 113.127 575.977L111.832 575.614C111.491 576.523 110.701 576.977 109.65 576.977C108.076 576.977 106.991 575.96 106.928 574.091H113.263V573.523C113.263 570.273 111.332 569.159 109.513 569.159C107.15 569.159 105.582 571.023 105.582 573.705C105.582 576.386 107.127 578.182 109.65 578.182ZM106.928 572.932C107.019 571.574 107.979 570.364 109.513 570.364C110.968 570.364 111.9 571.455 111.9 572.932H106.928ZM118.999 578.182C120.93 578.182 122.203 577 122.43 575.455H121.09C120.84 576.409 120.044 576.977 118.999 576.977C117.408 576.977 116.385 575.659 116.385 573.636C116.385 571.659 117.43 570.364 118.999 570.364C120.18 570.364 120.885 571.091 121.09 571.886H122.43C122.203 570.25 120.817 569.159 118.976 569.159C116.612 569.159 115.044 571.023 115.044 573.682C115.044 576.295 116.544 578.182 118.999 578.182ZM128.336 569.273H126.473V567.182H125.132V569.273H123.813V570.409H125.132V575.864C125.132 577.386 126.359 578.114 127.495 578.114C127.995 578.114 128.313 578.023 128.495 577.955L128.223 576.75C128.109 576.773 127.927 576.818 127.632 576.818C127.041 576.818 126.473 576.636 126.473 575.5V570.409H128.336V569.273ZM137.721 578.205C139.244 578.205 140.04 577.386 140.312 576.818H140.38V578H141.721V572.25C141.721 569.477 139.608 569.159 138.494 569.159C137.176 569.159 135.676 569.614 134.994 571.205L136.267 571.659C136.562 571.023 137.261 570.341 138.54 570.341C139.773 570.341 140.38 570.994 140.38 572.114V572.159C140.38 572.807 139.721 572.75 138.13 572.955C136.511 573.165 134.744 573.523 134.744 575.523C134.744 577.227 136.062 578.205 137.721 578.205ZM137.926 577C136.858 577 136.085 576.523 136.085 575.591C136.085 574.568 137.017 574.25 138.062 574.114C138.63 574.045 140.153 573.886 140.38 573.614V574.841C140.38 575.932 139.517 577 137.926 577ZM145.66 572.75C145.66 571.227 146.603 570.364 147.887 570.364C149.131 570.364 149.887 571.176 149.887 572.545V578H151.228V572.455C151.228 570.227 150.04 569.159 148.273 569.159C146.955 569.159 146.137 569.75 145.728 570.636H145.614V569.273H144.319V578H145.66V572.75ZM162.137 578.182C163.91 578.182 165.205 577.295 165.615 575.977L164.319 575.614C163.978 576.523 163.188 576.977 162.137 576.977C160.563 576.977 159.478 575.96 159.416 574.091H165.751V573.523C165.751 570.273 163.819 569.159 162.001 569.159C159.637 569.159 158.069 571.023 158.069 573.705C158.069 576.386 159.615 578.182 162.137 578.182ZM159.416 572.932C159.507 571.574 160.467 570.364 162.001 570.364C163.455 570.364 164.387 571.455 164.387 572.932H159.416ZM168.706 569.273H167.161L169.934 573.636L167.161 578H168.706L170.797 574.614L172.888 578H174.434L171.615 573.636L174.434 569.273H172.888L170.797 572.841L168.706 569.273ZM176.497 581.273H177.838V576.659H177.951C178.247 577.136 178.815 578.182 180.497 578.182C182.679 578.182 184.201 576.432 184.201 573.659C184.201 570.909 182.679 569.159 180.474 569.159C178.77 569.159 178.247 570.205 177.951 570.659H177.792V569.273H176.497V581.273ZM177.815 573.636C177.815 571.682 178.679 570.364 180.315 570.364C182.02 570.364 182.861 571.795 182.861 573.636C182.861 575.5 181.997 576.977 180.315 576.977C178.701 576.977 177.815 575.614 177.815 573.636ZM190.056 578.182C191.829 578.182 193.124 577.295 193.533 575.977L192.238 575.614C191.897 576.523 191.107 576.977 190.056 576.977C188.482 576.977 187.397 575.96 187.334 574.091H193.67V573.523C193.67 570.273 191.738 569.159 189.92 569.159C187.556 569.159 185.988 571.023 185.988 573.705C185.988 576.386 187.533 578.182 190.056 578.182ZM187.334 572.932C187.425 571.574 188.386 570.364 189.92 570.364C191.374 570.364 192.306 571.455 192.306 572.932H187.334ZM195.859 578H197.2V572.477C197.2 571.295 198.132 570.432 199.405 570.432C199.763 570.432 200.132 570.5 200.223 570.523V569.159C200.07 569.148 199.717 569.136 199.519 569.136C198.473 569.136 197.564 569.727 197.246 570.591H197.155V569.273H195.859V578ZM201.963 578H203.303V569.273H201.963V578ZM202.644 567.818C203.167 567.818 203.599 567.409 203.599 566.909C203.599 566.409 203.167 566 202.644 566C202.122 566 201.69 566.409 201.69 566.909C201.69 567.409 202.122 567.818 202.644 567.818ZM209.569 578.182C211.341 578.182 212.637 577.295 213.046 575.977L211.75 575.614C211.409 576.523 210.62 576.977 209.569 576.977C207.995 576.977 206.909 575.96 206.847 574.091H213.182V573.523C213.182 570.273 211.25 569.159 209.432 569.159C207.069 569.159 205.5 571.023 205.5 573.705C205.5 576.386 207.046 578.182 209.569 578.182ZM206.847 572.932C206.938 571.574 207.898 570.364 209.432 570.364C210.887 570.364 211.819 571.455 211.819 572.932H206.847ZM216.713 572.75C216.713 571.227 217.656 570.364 218.94 570.364C220.184 570.364 220.94 571.176 220.94 572.545V578H222.281V572.455C222.281 570.227 221.094 569.159 219.326 569.159C218.008 569.159 217.19 569.75 216.781 570.636H216.667V569.273H215.372V578H216.713V572.75ZM228.427 578.182C230.359 578.182 231.631 577 231.859 575.455H230.518C230.268 576.409 229.472 576.977 228.427 576.977C226.836 576.977 225.813 575.659 225.813 573.636C225.813 571.659 226.859 570.364 228.427 570.364C229.609 570.364 230.313 571.091 230.518 571.886H231.859C231.631 570.25 230.245 569.159 228.404 569.159C226.04 569.159 224.472 571.023 224.472 573.682C224.472 576.295 225.972 578.182 228.427 578.182ZM237.628 578.182C239.401 578.182 240.696 577.295 241.105 575.977L239.81 575.614C239.469 576.523 238.679 576.977 237.628 576.977C236.054 576.977 234.969 575.96 234.906 574.091H241.242V573.523C241.242 570.273 239.31 569.159 237.492 569.159C235.128 569.159 233.56 571.023 233.56 573.705C233.56 576.386 235.105 578.182 237.628 578.182ZM234.906 572.932C234.997 571.574 235.957 570.364 237.492 570.364C238.946 570.364 239.878 571.455 239.878 572.932H234.906Z" fill="#2C2C2C"/>
<path d="M109.41 616H113.615C116.365 616 117.501 614.659 117.501 612.909C117.501 611.068 116.228 610.068 115.16 610V609.886C116.16 609.614 117.046 608.955 117.046 607.455C117.046 605.75 115.91 604.364 113.478 604.364H109.41V616ZM110.819 614.75V610.705H113.683C115.205 610.705 116.16 611.727 116.16 612.909C116.16 613.932 115.455 614.75 113.615 614.75H110.819ZM110.819 609.477V605.614H113.478C115.024 605.614 115.705 606.432 115.705 607.455C115.705 608.682 114.705 609.477 113.433 609.477H110.819ZM123.444 616.182C125.216 616.182 126.512 615.295 126.921 613.977L125.625 613.614C125.284 614.523 124.495 614.977 123.444 614.977C121.87 614.977 120.784 613.96 120.722 612.091H127.057V611.523C127.057 608.273 125.125 607.159 123.307 607.159C120.944 607.159 119.375 609.023 119.375 611.705C119.375 614.386 120.921 616.182 123.444 616.182ZM120.722 610.932C120.813 609.574 121.773 608.364 123.307 608.364C124.762 608.364 125.694 609.455 125.694 610.932H120.722ZM131.815 616.205C133.338 616.205 134.133 615.386 134.406 614.818H134.474V616H135.815V610.25C135.815 607.477 133.701 607.159 132.588 607.159C131.27 607.159 129.77 607.614 129.088 609.205L130.361 609.659C130.656 609.023 131.355 608.341 132.633 608.341C133.866 608.341 134.474 608.994 134.474 610.114V610.159C134.474 610.807 133.815 610.75 132.224 610.955C130.605 611.165 128.838 611.523 128.838 613.523C128.838 615.227 130.156 616.205 131.815 616.205ZM132.02 615C130.951 615 130.179 614.523 130.179 613.591C130.179 612.568 131.111 612.25 132.156 612.114C132.724 612.045 134.247 611.886 134.474 611.614V612.841C134.474 613.932 133.611 615 132.02 615ZM141.958 616.182C143.89 616.182 145.163 615 145.39 613.455H144.049C143.799 614.409 143.003 614.977 141.958 614.977C140.367 614.977 139.344 613.659 139.344 611.636C139.344 609.659 140.39 608.364 141.958 608.364C143.14 608.364 143.844 609.091 144.049 609.886H145.39C145.163 608.25 143.776 607.159 141.935 607.159C139.572 607.159 138.003 609.023 138.003 611.682C138.003 614.295 139.503 616.182 141.958 616.182ZM148.841 610.75C148.841 609.227 149.813 608.364 151.136 608.364C152.398 608.364 153.159 609.159 153.159 610.545V616H154.5V610.455C154.5 608.21 153.307 607.159 151.523 607.159C150.148 607.159 149.364 607.733 148.955 608.636H148.841V604.364H147.5V616H148.841V610.75ZM158.262 604.364H157.012V608.364H158.262V604.364ZM166.982 609.227C166.561 607.989 165.618 607.159 163.891 607.159C162.05 607.159 160.686 608.205 160.686 609.682C160.686 610.886 161.402 611.693 163.005 612.068L164.459 612.409C165.34 612.614 165.755 613.034 165.755 613.636C165.755 614.386 164.959 615 163.709 615C162.613 615 161.925 614.528 161.686 613.591L160.414 613.909C160.726 615.392 161.948 616.182 163.732 616.182C165.76 616.182 167.141 615.074 167.141 613.568C167.141 612.352 166.38 611.585 164.823 611.205L163.527 610.886C162.493 610.631 162.027 610.284 162.027 609.614C162.027 608.864 162.823 608.318 163.891 608.318C165.061 608.318 165.544 608.966 165.777 609.568L166.982 609.227ZM177.255 616.182C178.937 616.182 179.505 615.136 179.8 614.659H179.959V616H181.255V604.364H179.914V608.659H179.8C179.505 608.205 178.982 607.159 177.278 607.159C175.073 607.159 173.55 608.909 173.55 611.659C173.55 614.432 175.073 616.182 177.255 616.182ZM177.437 614.977C175.755 614.977 174.891 613.5 174.891 611.636C174.891 609.795 175.732 608.364 177.437 608.364C179.073 608.364 179.937 609.682 179.937 611.636C179.937 613.614 179.05 614.977 177.437 614.977ZM186.615 616.205C188.138 616.205 188.933 615.386 189.206 614.818H189.274V616H190.615V610.25C190.615 607.477 188.501 607.159 187.388 607.159C186.07 607.159 184.57 607.614 183.888 609.205L185.161 609.659C185.456 609.023 186.155 608.341 187.433 608.341C188.666 608.341 189.274 608.994 189.274 610.114V610.159C189.274 610.807 188.615 610.75 187.024 610.955C185.405 611.165 183.638 611.523 183.638 613.523C183.638 615.227 184.956 616.205 186.615 616.205ZM186.82 615C185.751 615 184.979 614.523 184.979 613.591C184.979 612.568 185.911 612.25 186.956 612.114C187.524 612.045 189.047 611.886 189.274 611.614V612.841C189.274 613.932 188.411 615 186.82 615ZM193.764 619.273C194.974 619.273 195.826 618.631 196.332 617.273L200.048 607.295L198.582 607.273L196.173 614.227H196.082L193.673 607.273H192.218L195.446 616.045L195.196 616.727C194.707 618.057 194.105 618.182 193.127 617.932L192.786 619.114C192.923 619.182 193.309 619.273 193.764 619.273ZM115.774 635.273H117.137C117.075 633.517 115.455 632.205 113.205 632.205C110.978 632.205 109.228 633.5 109.228 635.455C109.228 637.023 110.365 637.955 112.183 638.477L113.615 638.886C114.842 639.227 115.933 639.659 115.933 640.818C115.933 642.091 114.705 642.932 113.092 642.932C111.705 642.932 110.478 642.318 110.365 641H108.91C109.046 642.909 110.592 644.205 113.092 644.205C115.774 644.205 117.296 642.727 117.296 640.841C117.296 638.659 115.228 637.955 114.024 637.636L112.842 637.318C111.978 637.091 110.592 636.636 110.592 635.386C110.592 634.273 111.615 633.455 113.16 633.455C114.569 633.455 115.637 634.125 115.774 635.273ZM125.081 640.432C125.081 642.068 123.831 642.818 122.831 642.818C121.718 642.818 120.922 642 120.922 640.727V635.273H119.581V640.818C119.581 643.045 120.763 644.114 122.399 644.114C123.718 644.114 124.581 643.409 124.99 642.523H125.081V644H126.422V635.273H125.081V640.432ZM129.028 644H130.369V638.477C130.369 637.295 131.301 636.432 132.574 636.432C132.932 636.432 133.301 636.5 133.392 636.523V635.159C133.238 635.148 132.886 635.136 132.687 635.136C131.642 635.136 130.733 635.727 130.415 636.591H130.324V635.273H129.028V644ZM139.565 635.273H137.61V634.386C137.61 633.523 137.974 633.068 138.86 633.068C139.246 633.068 139.474 633.159 139.61 633.205L139.996 632.045C139.792 631.955 139.383 631.818 138.724 631.818C137.474 631.818 136.269 632.568 136.269 634.068V635.273H134.86V636.409H136.269V644H137.61V636.409H139.565V635.273ZM148.812 644.205C150.335 644.205 151.13 643.386 151.403 642.818H151.471V644H152.812V638.25C152.812 635.477 150.698 635.159 149.585 635.159C148.267 635.159 146.767 635.614 146.085 637.205L147.357 637.659C147.653 637.023 148.352 636.341 149.63 636.341C150.863 636.341 151.471 636.994 151.471 638.114V638.159C151.471 638.807 150.812 638.75 149.221 638.955C147.602 639.165 145.835 639.523 145.835 641.523C145.835 643.227 147.153 644.205 148.812 644.205ZM149.017 643C147.948 643 147.176 642.523 147.176 641.591C147.176 640.568 148.107 640.25 149.153 640.114C149.721 640.045 151.244 639.886 151.471 639.614V640.841C151.471 641.932 150.607 643 149.017 643ZM156.75 638.75C156.75 637.227 157.694 636.364 158.978 636.364C160.222 636.364 160.978 637.176 160.978 638.545V644H162.319V638.455C162.319 636.227 161.131 635.159 159.364 635.159C158.046 635.159 157.228 635.75 156.819 636.636H156.705V635.273H155.409V644H156.75V638.75ZM168.214 644.182C169.896 644.182 170.464 643.136 170.76 642.659H170.919V644H172.214V632.364H170.873V636.659H170.76C170.464 636.205 169.942 635.159 168.237 635.159C166.032 635.159 164.51 636.909 164.51 639.659C164.51 642.432 166.032 644.182 168.214 644.182ZM168.396 642.977C166.714 642.977 165.851 641.5 165.851 639.636C165.851 637.795 166.692 636.364 168.396 636.364C170.032 636.364 170.896 637.682 170.896 639.636C170.896 641.614 170.01 642.977 168.396 642.977ZM181.634 644H182.952L184.861 637.295H184.997L186.906 644H188.224L190.884 635.273H189.474L187.588 641.932H187.497L185.656 635.273H184.224L182.361 641.955H182.27L180.384 635.273H178.974L181.634 644ZM195.374 644.205C196.897 644.205 197.693 643.386 197.965 642.818H198.034V644H199.374V638.25C199.374 635.477 197.261 635.159 196.147 635.159C194.829 635.159 193.329 635.614 192.647 637.205L193.92 637.659C194.215 637.023 194.914 636.341 196.193 636.341C197.426 636.341 198.034 636.994 198.034 638.114V638.159C198.034 638.807 197.374 638.75 195.784 638.955C194.164 639.165 192.397 639.523 192.397 641.523C192.397 643.227 193.715 644.205 195.374 644.205ZM195.579 643C194.511 643 193.738 642.523 193.738 641.591C193.738 640.568 194.67 640.25 195.715 640.114C196.284 640.045 197.806 639.886 198.034 639.614V640.841C198.034 641.932 197.17 643 195.579 643ZM208.796 635.273H207.341L204.932 642.227H204.841L202.432 635.273H200.978L204.205 644H205.569L208.796 635.273ZM214.062 644.182C215.835 644.182 217.13 643.295 217.54 641.977L216.244 641.614C215.903 642.523 215.113 642.977 214.062 642.977C212.488 642.977 211.403 641.96 211.341 640.091H217.676V639.523C217.676 636.273 215.744 635.159 213.926 635.159C211.562 635.159 209.994 637.023 209.994 639.705C209.994 642.386 211.54 644.182 214.062 644.182ZM211.341 638.932C211.432 637.574 212.392 636.364 213.926 636.364C215.38 636.364 216.312 637.455 216.312 638.932H211.341ZM226.048 637.227C225.627 635.989 224.684 635.159 222.957 635.159C221.116 635.159 219.752 636.205 219.752 637.682C219.752 638.886 220.468 639.693 222.07 640.068L223.525 640.409C224.405 640.614 224.82 641.034 224.82 641.636C224.82 642.386 224.025 643 222.775 643C221.678 643 220.991 642.528 220.752 641.591L219.479 641.909C219.792 643.392 221.013 644.182 222.798 644.182C224.826 644.182 226.207 643.074 226.207 641.568C226.207 640.352 225.445 639.585 223.888 639.205L222.593 638.886C221.559 638.631 221.093 638.284 221.093 637.614C221.093 636.864 221.888 636.318 222.957 636.318C224.127 636.318 224.61 636.966 224.843 637.568L226.048 637.227ZM115.774 663.273H117.137C117.075 661.517 115.455 660.205 113.205 660.205C110.978 660.205 109.228 661.5 109.228 663.455C109.228 665.023 110.365 665.955 112.183 666.477L113.615 666.886C114.842 667.227 115.933 667.659 115.933 668.818C115.933 670.091 114.705 670.932 113.092 670.932C111.705 670.932 110.478 670.318 110.365 669H108.91C109.046 670.909 110.592 672.205 113.092 672.205C115.774 672.205 117.296 670.727 117.296 668.841C117.296 666.659 115.228 665.955 114.024 665.636L112.842 665.318C111.978 665.091 110.592 664.636 110.592 663.386C110.592 662.273 111.615 661.455 113.16 661.455C114.569 661.455 115.637 662.125 115.774 663.273ZM122.149 672.205C123.672 672.205 124.468 671.386 124.74 670.818H124.809V672H126.149V666.25C126.149 663.477 124.036 663.159 122.922 663.159C121.604 663.159 120.104 663.614 119.422 665.205L120.695 665.659C120.99 665.023 121.689 664.341 122.968 664.341C124.201 664.341 124.809 664.994 124.809 666.114V666.159C124.809 666.807 124.149 666.75 122.559 666.955C120.939 667.165 119.172 667.523 119.172 669.523C119.172 671.227 120.49 672.205 122.149 672.205ZM122.354 671C121.286 671 120.513 670.523 120.513 669.591C120.513 668.568 121.445 668.25 122.49 668.114C123.059 668.045 124.581 667.886 124.809 667.614V668.841C124.809 669.932 123.945 671 122.354 671ZM128.747 672H130.088V663.273H128.747V672ZM129.429 661.818C129.951 661.818 130.383 661.409 130.383 660.909C130.383 660.409 129.951 660 129.429 660C128.906 660 128.474 660.409 128.474 660.909C128.474 661.409 128.906 661.818 129.429 661.818ZM134.035 660.364H132.694V672H134.035V660.364ZM136.641 672H137.982V663.273H136.641V672ZM137.323 661.818C137.845 661.818 138.277 661.409 138.277 660.909C138.277 660.409 137.845 660 137.323 660C136.8 660 136.368 660.409 136.368 660.909C136.368 661.409 136.8 661.818 137.323 661.818ZM141.928 666.75C141.928 665.227 142.872 664.364 144.156 664.364C145.4 664.364 146.156 665.176 146.156 666.545V672H147.497V666.455C147.497 664.227 146.309 663.159 144.542 663.159C143.224 663.159 142.406 663.75 141.997 664.636H141.883V663.273H140.588V672H141.928V666.75ZM153.62 675.455C155.711 675.455 157.392 674.5 157.392 672.25V663.273H156.097V664.659H155.961C155.665 664.205 155.12 663.159 153.415 663.159C151.211 663.159 149.688 664.909 149.688 667.591C149.688 670.318 151.279 671.864 153.392 671.864C155.097 671.864 155.642 670.864 155.938 670.386H156.051V672.159C156.051 673.614 155.029 674.273 153.62 674.273C152.034 674.273 151.478 673.438 151.12 672.955L150.051 673.705C150.597 674.619 151.671 675.455 153.62 675.455ZM153.574 670.659C151.892 670.659 151.029 669.386 151.029 667.568C151.029 665.795 151.87 664.364 153.574 664.364C155.211 664.364 156.074 665.682 156.074 667.568C156.074 669.5 155.188 670.659 153.574 670.659ZM170.829 665.227C170.408 663.989 169.465 663.159 167.738 663.159C165.897 663.159 164.533 664.205 164.533 665.682C164.533 666.886 165.249 667.693 166.851 668.068L168.306 668.409C169.187 668.614 169.601 669.034 169.601 669.636C169.601 670.386 168.806 671 167.556 671C166.459 671 165.772 670.528 165.533 669.591L164.261 669.909C164.573 671.392 165.795 672.182 167.579 672.182C169.607 672.182 170.988 671.074 170.988 669.568C170.988 668.352 170.226 667.585 168.67 667.205L167.374 666.886C166.34 666.631 165.874 666.284 165.874 665.614C165.874 664.864 166.67 664.318 167.738 664.318C168.908 664.318 169.391 664.966 169.624 665.568L170.829 665.227ZM173.156 675.273H174.497V670.659H174.611C174.906 671.136 175.474 672.182 177.156 672.182C179.338 672.182 180.861 670.432 180.861 667.659C180.861 664.909 179.338 663.159 177.134 663.159C175.429 663.159 174.906 664.205 174.611 664.659H174.452V663.273H173.156V675.273ZM174.474 667.636C174.474 665.682 175.338 664.364 176.974 664.364C178.679 664.364 179.52 665.795 179.52 667.636C179.52 669.5 178.656 670.977 176.974 670.977C175.361 670.977 174.474 669.614 174.474 667.636ZM186.602 672.182C188.965 672.182 190.556 670.386 190.556 667.682C190.556 664.955 188.965 663.159 186.602 663.159C184.238 663.159 182.647 664.955 182.647 667.682C182.647 670.386 184.238 672.182 186.602 672.182ZM186.602 670.977C184.806 670.977 183.988 669.432 183.988 667.682C183.988 665.932 184.806 664.364 186.602 664.364C188.397 664.364 189.215 665.932 189.215 667.682C189.215 669.432 188.397 670.977 186.602 670.977ZM192.753 672H194.094V666.477C194.094 665.295 195.026 664.432 196.299 664.432C196.657 664.432 197.026 664.5 197.117 664.523V663.159C196.963 663.148 196.611 663.136 196.412 663.136C195.367 663.136 194.458 663.727 194.14 664.591H194.049V663.273H192.753V672ZM203.199 663.273H201.335V661.182H199.994V663.273H198.676V664.409H199.994V669.864C199.994 671.386 201.221 672.114 202.358 672.114C202.858 672.114 203.176 672.023 203.358 671.955L203.085 670.75C202.971 670.773 202.79 670.818 202.494 670.818C201.903 670.818 201.335 670.636 201.335 669.5V664.409H203.199V663.273ZM211.391 665.227C210.971 663.989 210.028 663.159 208.3 663.159C206.459 663.159 205.096 664.205 205.096 665.682C205.096 666.886 205.812 667.693 207.414 668.068L208.869 668.409C209.749 668.614 210.164 669.034 210.164 669.636C210.164 670.386 209.369 671 208.119 671C207.022 671 206.334 670.528 206.096 669.591L204.823 669.909C205.136 671.392 206.357 672.182 208.141 672.182C210.17 672.182 211.55 671.074 211.55 669.568C211.55 668.352 210.789 667.585 209.232 667.205L207.937 666.886C206.903 666.631 206.437 666.284 206.437 665.614C206.437 664.864 207.232 664.318 208.3 664.318C209.471 664.318 209.954 664.966 210.187 665.568L211.391 665.227ZM109.41 700H110.819V694.795H115.865V693.545H110.819V689.614H116.387V688.364H109.41V700ZM118.769 700H120.11V691.273H118.769V700ZM119.451 689.818C119.973 689.818 120.405 689.409 120.405 688.909C120.405 688.409 119.973 688 119.451 688C118.928 688 118.496 688.409 118.496 688.909C118.496 689.409 118.928 689.818 119.451 689.818ZM128.898 693.227C128.477 691.989 127.534 691.159 125.807 691.159C123.966 691.159 122.602 692.205 122.602 693.682C122.602 694.886 123.318 695.693 124.92 696.068L126.375 696.409C127.255 696.614 127.67 697.034 127.67 697.636C127.67 698.386 126.875 699 125.625 699C124.528 699 123.841 698.528 123.602 697.591L122.329 697.909C122.642 699.392 123.863 700.182 125.648 700.182C127.676 700.182 129.057 699.074 129.057 697.568C129.057 696.352 128.295 695.585 126.738 695.205L125.443 694.886C124.409 694.631 123.943 694.284 123.943 693.614C123.943 692.864 124.738 692.318 125.807 692.318C126.977 692.318 127.46 692.966 127.693 693.568L128.898 693.227ZM132.566 694.75C132.566 693.227 133.538 692.364 134.861 692.364C136.123 692.364 136.884 693.159 136.884 694.545V700H138.225V694.455C138.225 692.21 137.032 691.159 135.248 691.159C133.873 691.159 133.089 691.733 132.68 692.636H132.566V688.364H131.225V700H132.566V694.75ZM140.828 700H142.169V691.273H140.828V700ZM141.51 689.818C142.033 689.818 142.465 689.409 142.465 688.909C142.465 688.409 142.033 688 141.51 688C140.987 688 140.555 688.409 140.555 688.909C140.555 689.409 140.987 689.818 141.51 689.818ZM146.116 694.75C146.116 693.227 147.059 692.364 148.343 692.364C149.588 692.364 150.343 693.176 150.343 694.545V700H151.684V694.455C151.684 692.227 150.497 691.159 148.73 691.159C147.411 691.159 146.593 691.75 146.184 692.636H146.071V691.273H144.775V700H146.116V694.75ZM157.807 703.455C159.898 703.455 161.58 702.5 161.58 700.25V691.273H160.284V692.659H160.148C159.853 692.205 159.307 691.159 157.603 691.159C155.398 691.159 153.875 692.909 153.875 695.591C153.875 698.318 155.466 699.864 157.58 699.864C159.284 699.864 159.83 698.864 160.125 698.386H160.239V700.159C160.239 701.614 159.216 702.273 157.807 702.273C156.222 702.273 155.665 701.438 155.307 700.955L154.239 701.705C154.784 702.619 155.858 703.455 157.807 703.455ZM157.762 698.659C156.08 698.659 155.216 697.386 155.216 695.568C155.216 693.795 156.057 692.364 157.762 692.364C159.398 692.364 160.262 693.682 160.262 695.568C160.262 697.5 159.375 698.659 157.762 698.659ZM115.774 719.273H117.137C117.075 717.517 115.455 716.205 113.205 716.205C110.978 716.205 109.228 717.5 109.228 719.455C109.228 721.023 110.365 721.955 112.183 722.477L113.615 722.886C114.842 723.227 115.933 723.659 115.933 724.818C115.933 726.091 114.705 726.932 113.092 726.932C111.705 726.932 110.478 726.318 110.365 725H108.91C109.046 726.909 110.592 728.205 113.092 728.205C115.774 728.205 117.296 726.727 117.296 724.841C117.296 722.659 115.228 721.955 114.024 721.636L112.842 721.318C111.978 721.091 110.592 720.636 110.592 719.386C110.592 718.273 111.615 717.455 113.16 717.455C114.569 717.455 115.637 718.125 115.774 719.273ZM123.127 728.182C125.059 728.182 126.331 727 126.559 725.455H125.218C124.968 726.409 124.172 726.977 123.127 726.977C121.536 726.977 120.513 725.659 120.513 723.636C120.513 721.659 121.559 720.364 123.127 720.364C124.309 720.364 125.013 721.091 125.218 721.886H126.559C126.331 720.25 124.945 719.159 123.104 719.159C120.74 719.159 119.172 721.023 119.172 723.682C119.172 726.295 120.672 728.182 123.127 728.182ZM134.169 724.432C134.169 726.068 132.919 726.818 131.919 726.818C130.805 726.818 130.01 726 130.01 724.727V719.273H128.669V724.818C128.669 727.045 129.851 728.114 131.487 728.114C132.805 728.114 133.669 727.409 134.078 726.523H134.169V728H135.51V719.273H134.169V724.432ZM138.298 728H139.593V726.659H139.752C140.048 727.136 140.616 728.182 142.298 728.182C144.479 728.182 146.002 726.432 146.002 723.659C146.002 720.909 144.479 719.159 142.275 719.159C140.57 719.159 140.048 720.205 139.752 720.659H139.638V716.364H138.298V728ZM139.616 723.636C139.616 721.682 140.479 720.364 142.116 720.364C143.82 720.364 144.661 721.795 144.661 723.636C144.661 725.5 143.798 726.977 142.116 726.977C140.502 726.977 139.616 725.614 139.616 723.636ZM150.771 728.205C152.294 728.205 153.09 727.386 153.362 726.818H153.43V728H154.771V722.25C154.771 719.477 152.658 719.159 151.544 719.159C150.226 719.159 148.726 719.614 148.044 721.205L149.317 721.659C149.612 721.023 150.311 720.341 151.59 720.341C152.823 720.341 153.43 720.994 153.43 722.114V722.159C153.43 722.807 152.771 722.75 151.18 722.955C149.561 723.165 147.794 723.523 147.794 725.523C147.794 727.227 149.112 728.205 150.771 728.205ZM150.976 727C149.908 727 149.135 726.523 149.135 725.591C149.135 724.568 150.067 724.25 151.112 724.114C151.68 724.045 153.203 723.886 153.43 723.614V724.841C153.43 725.932 152.567 727 150.976 727ZM165.314 728.182C166.996 728.182 167.564 727.136 167.86 726.659H168.019V728H169.314V716.364H167.973V720.659H167.86C167.564 720.205 167.042 719.159 165.337 719.159C163.132 719.159 161.61 720.909 161.61 723.659C161.61 726.432 163.132 728.182 165.314 728.182ZM165.496 726.977C163.814 726.977 162.951 725.5 162.951 723.636C162.951 721.795 163.792 720.364 165.496 720.364C167.132 720.364 167.996 721.682 167.996 723.636C167.996 725.614 167.11 726.977 165.496 726.977ZM172.106 728H173.447V719.273H172.106V728ZM172.788 717.818C173.311 717.818 173.743 717.409 173.743 716.909C173.743 716.409 173.311 716 172.788 716C172.265 716 171.834 716.409 171.834 716.909C171.834 717.409 172.265 717.818 172.788 717.818ZM183.19 719.273H181.735L179.326 726.227H179.235L176.826 719.273H175.371L178.599 728H179.962L183.19 719.273ZM185.109 728H186.45V719.273H185.109V728ZM185.791 717.818C186.314 717.818 186.746 717.409 186.746 716.909C186.746 716.409 186.314 716 185.791 716C185.269 716 184.837 716.409 184.837 716.909C184.837 717.409 185.269 717.818 185.791 717.818ZM190.397 722.75C190.397 721.227 191.34 720.364 192.624 720.364C193.869 720.364 194.624 721.176 194.624 722.545V728H195.965V722.455C195.965 720.227 194.778 719.159 193.011 719.159C191.693 719.159 190.874 719.75 190.465 720.636H190.352V719.273H189.056V728H190.397V722.75ZM202.088 731.455C204.179 731.455 205.861 730.5 205.861 728.25V719.273H204.566V720.659H204.429C204.134 720.205 203.588 719.159 201.884 719.159C199.679 719.159 198.157 720.909 198.157 723.591C198.157 726.318 199.748 727.864 201.861 727.864C203.566 727.864 204.111 726.864 204.407 726.386H204.52V728.159C204.52 729.614 203.498 730.273 202.088 730.273C200.503 730.273 199.946 729.438 199.588 728.955L198.52 729.705C199.066 730.619 200.14 731.455 202.088 731.455ZM202.043 726.659C200.361 726.659 199.498 725.386 199.498 723.568C199.498 721.795 200.338 720.364 202.043 720.364C203.679 720.364 204.543 721.682 204.543 723.568C204.543 725.5 203.657 726.659 202.043 726.659Z" fill="#2C2C2C"/>
<circle cx="91.0009" cy="318" r="6.5" stroke="url(#paint3_linear)"/>
<circle cx="91.0009" cy="610" r="6.5" fill="url(#paint4_linear)" stroke="url(#paint5_linear)"/>
<circle cx="91.0009" cy="640" r="6.5" stroke="url(#paint6_linear)"/>
<circle cx="91.0009" cy="667" r="6.5" stroke="url(#paint7_linear)"/>
<circle cx="91.0009" cy="348" r="6.5" fill="url(#paint8_linear)" stroke="url(#paint9_linear)"/>
<circle cx="91.0009" cy="374" r="6.5" stroke="url(#paint10_linear)"/>
<circle cx="91.0009" cy="401" r="6.5" stroke="url(#paint11_linear)"/>
<circle cx="91.0009" cy="431" r="6.5" stroke="url(#paint12_linear)"/>
<circle cx="91.0009" cy="458" r="6.5" stroke="url(#paint13_linear)"/>
</g>
<rect opacity="0.4" x="165.215" y="34.0684" width="67.2161" height="6.25266" rx="1.73696" fill="#D3DDE7"/>
<rect opacity="0.5" x="243.373" y="30.1611" width="14.0685" height="14.0685" rx="4.77664" fill="#E7EDF3"/>
<rect opacity="0.5" x="246.499" y="33.2881" width="7.81582" height="7.81582" rx="3.90791" fill="white"/>
<rect opacity="0.5" x="127.699" y="34.0684" width="6.25266" height="6.25266" rx="1.73696" fill="#D3DDE7"/>
</g>
<defs>
<filter id="filter0_d" x="0" y="0" width="391" height="722.781" filterUnits="userSpaceOnUse" color-interpolation-filters="sRGB">
<feFlood flood-opacity="0" result="BackgroundImageFix"/>
<feColorMatrix in="SourceAlpha" type="matrix" values="0 0 0 0 0 0 0 0 0 0 0 0 0 0 0 0 0 0 127 0" result="hardAlpha"/>
<feOffset dy="10"/>
<feGaussianBlur stdDeviation="15"/>
<feColorMatrix type="matrix" values="0 0 0 0 0.0207639 0 0 0 0 0.0756167 0 0 0 0 0.216667 0 0 0 0.1 0"/>
<feBlend mode="normal" in2="BackgroundImageFix" result="effect1_dropShadow"/>
<feBlend mode="normal" in="SourceGraphic" in2="effect1_dropShadow" result="shape"/>
</filter>
<linearGradient id="paint0_linear" x1="81.0009" y1="135.252" x2="122.902" y2="160.409" gradientUnits="userSpaceOnUse">
<stop stop-color="#0043EF"/>
<stop offset="1" stop-color="#033DD2"/>
</linearGradient>
<linearGradient id="paint1_linear" x1="81.0009" y1="236.252" x2="128.4" y2="281.074" gradientUnits="userSpaceOnUse">
<stop stop-color="#0043EF"/>
<stop offset="1" stop-color="#033DD2"/>
</linearGradient>
<linearGradient id="paint2_linear" x1="81.0009" y1="528.252" x2="128.144" y2="581.322" gradientUnits="userSpaceOnUse">
<stop stop-color="#0043EF"/>
<stop offset="1" stop-color="#033DD2"/>
</linearGradient>
<linearGradient id="paint3_linear" x1="84.0009" y1="309.626" x2="100.958" y2="316.752" gradientUnits="userSpaceOnUse">
<stop stop-color="#0043EF"/>
<stop offset="1" stop-color="#033DD2"/>
</linearGradient>
<linearGradient id="paint4_linear" x1="84.0009" y1="601.626" x2="100.958" y2="608.752" gradientUnits="userSpaceOnUse">
<stop stop-color="#0043EF"/>
<stop offset="1" stop-color="#033DD2"/>
</linearGradient>
<linearGradient id="paint5_linear" x1="84.0009" y1="601.626" x2="100.958" y2="608.752" gradientUnits="userSpaceOnUse">
<stop stop-color="#0043EF"/>
<stop offset="1" stop-color="#033DD2"/>
</linearGradient>
<linearGradient id="paint6_linear" x1="84.0009" y1="631.626" x2="100.958" y2="638.752" gradientUnits="userSpaceOnUse">
<stop stop-color="#0043EF"/>
<stop offset="1" stop-color="#033DD2"/>
</linearGradient>
<linearGradient id="paint7_linear" x1="84.0009" y1="658.626" x2="100.958" y2="665.752" gradientUnits="userSpaceOnUse">
<stop stop-color="#0043EF"/>
<stop offset="1" stop-color="#033DD2"/>
</linearGradient>
<linearGradient id="paint8_linear" x1="84.0009" y1="339.626" x2="100.958" y2="346.752" gradientUnits="userSpaceOnUse">
<stop stop-color="#0043EF"/>
<stop offset="1" stop-color="#033DD2"/>
</linearGradient>
<linearGradient id="paint9_linear" x1="84.0009" y1="339.626" x2="100.958" y2="346.752" gradientUnits="userSpaceOnUse">
<stop stop-color="#0043EF"/>
<stop offset="1" stop-color="#033DD2"/>
</linearGradient>
<linearGradient id="paint10_linear" x1="84.0009" y1="365.626" x2="100.958" y2="372.752" gradientUnits="userSpaceOnUse">
<stop stop-color="#0043EF"/>
<stop offset="1" stop-color="#033DD2"/>
</linearGradient>
<linearGradient id="paint11_linear" x1="84.0009" y1="392.626" x2="100.958" y2="399.752" gradientUnits="userSpaceOnUse">
<stop stop-color="#0043EF"/>
<stop offset="1" stop-color="#033DD2"/>
</linearGradient>
<linearGradient id="paint12_linear" x1="84.0009" y1="422.626" x2="100.958" y2="429.752" gradientUnits="userSpaceOnUse">
<stop stop-color="#0043EF"/>
<stop offset="1" stop-color="#033DD2"/>
</linearGradient>
<linearGradient id="paint13_linear" x1="84.0009" y1="449.626" x2="100.958" y2="456.752" gradientUnits="userSpaceOnUse">
<stop stop-color="#0043EF"/>
<stop offset="1" stop-color="#033DD2"/>
</linearGradient>
</defs>
</svg>
