<svg width="391" height="723" viewBox="0 0 391 723" fill="none" xmlns="http://www.w3.org/2000/svg">
<g filter="url(#filter0_d)">
<path d="M33.9079 41.712C33.9079 29.7208 43.6287 20 55.6199 20L334.989 20C346.98 20 356.701 29.7208 356.701 41.712V166.547C359.075 166.547 361 168.471 361 170.845V223.993C361 226.367 359.075 228.292 356.701 228.292V661.069C356.701 673.061 346.98 682.781 334.989 682.781H55.6199C43.6287 682.781 33.9079 673.061 33.9079 661.07L33.9079 256.038H31.737C30.7777 256.038 30 255.26 30 254.301V205.409C30 204.449 30.7777 203.672 31.737 203.672H33.9079V193.902H31.737C30.7777 193.902 30 193.124 30 192.165L30 141.71C30 140.75 30.7777 139.973 31.737 139.973H33.9079V41.712Z" fill="white"/>
<path d="M109.725 34.0684H73.772C59.959 34.0684 48.7614 45.266 48.7614 59.079L48.7614 643.702C48.7614 657.515 59.959 668.713 73.772 668.713H316.844C330.657 668.713 341.855 657.515 341.855 643.702V59.079C341.855 45.266 330.657 34.0684 316.844 34.0684L281.673 34.0684V37.9763C281.673 46.6094 274.674 53.6079 266.041 53.6079H125.356C116.723 53.6079 109.725 46.6094 109.725 37.9763V34.0684Z" fill="#E7EDF3"/>
<mask id="mask0" mask-type="alpha" maskUnits="userSpaceOnUse" x="48" y="33" width="294" height="636">
<path d="M109.73 33.6494H73.7772C59.9642 33.6494 48.7665 44.8471 48.7665 58.66L48.7665 643.283C48.7665 657.096 59.9642 668.294 73.7772 668.294H316.849C330.662 668.294 341.86 657.096 341.86 643.283V58.66C341.86 44.8471 330.662 33.6494 316.849 33.6494L281.678 33.6494V37.5573C281.678 46.1904 274.679 53.189 266.046 53.189H125.362C116.728 53.189 109.73 46.1904 109.73 37.5573V33.6494Z" fill="#E7EDF3"/>
</mask>
<g mask="url(#mask0)">
<rect x="63.0009" y="-26" width="264" height="83" rx="5" fill="white"/>
<path d="M82.41 35H89.5236V33.75H83.8191V29.7955H89.0691V28.5455H83.8191V24.6136H89.4327V23.3636H82.41V35ZM98.1225 28.2273C97.7021 26.9886 96.7589 26.1591 95.0316 26.1591C93.1907 26.1591 91.8271 27.2045 91.8271 28.6818C91.8271 29.8864 92.543 30.6932 94.1452 31.0682L95.5998 31.4091C96.4805 31.6136 96.8952 32.0341 96.8952 32.6364C96.8952 33.3864 96.0998 34 94.8498 34C93.7532 34 93.0657 33.5284 92.8271 32.5909L91.5543 32.9091C91.8668 34.392 93.0884 35.1818 94.8725 35.1818C96.9009 35.1818 98.2816 34.0739 98.2816 32.5682C98.2816 31.3523 97.5202 30.5852 95.9634 30.2045L94.668 29.8864C93.6339 29.6307 93.168 29.2841 93.168 28.6136C93.168 27.8636 93.9634 27.3182 95.0316 27.3182C96.2021 27.3182 96.685 27.9659 96.918 28.5682L98.1225 28.2273ZM103.996 35.1818C105.927 35.1818 107.2 34 107.427 32.4545H106.086C105.836 33.4091 105.041 33.9773 103.996 33.9773C102.405 33.9773 101.382 32.6591 101.382 30.6364C101.382 28.6591 102.427 27.3636 103.996 27.3636C105.177 27.3636 105.882 28.0909 106.086 28.8864H107.427C107.2 27.25 105.814 26.1591 103.973 26.1591C101.609 26.1591 100.041 28.0227 100.041 30.6818C100.041 33.2955 101.541 35.1818 103.996 35.1818ZM109.538 35H110.878V29.4773C110.878 28.2955 111.81 27.4318 113.083 27.4318C113.441 27.4318 113.81 27.5 113.901 27.5227V26.1591C113.748 26.1477 113.396 26.1364 113.197 26.1364C112.151 26.1364 111.242 26.7273 110.924 27.5909H110.833V26.2727H109.538V35ZM115.641 35H116.982V26.2727H115.641V35ZM116.323 24.8182C116.845 24.8182 117.277 24.4091 117.277 23.9091C117.277 23.4091 116.845 23 116.323 23C115.8 23 115.368 23.4091 115.368 23.9091C115.368 24.4091 115.8 24.8182 116.323 24.8182ZM119.769 35H121.065V33.6591H121.224C121.519 34.1364 122.088 35.1818 123.769 35.1818C125.951 35.1818 127.474 33.4318 127.474 30.6591C127.474 27.9091 125.951 26.1591 123.747 26.1591C122.042 26.1591 121.519 27.2045 121.224 27.6591H121.11V23.3636H119.769V35ZM121.088 30.6364C121.088 28.6818 121.951 27.3636 123.588 27.3636C125.292 27.3636 126.133 28.7955 126.133 30.6364C126.133 32.5 125.269 33.9773 123.588 33.9773C121.974 33.9773 121.088 32.6136 121.088 30.6364ZM133.334 35.1818C135.107 35.1818 136.402 34.2955 136.811 32.9773L135.516 32.6136C135.175 33.5227 134.385 33.9773 133.334 33.9773C131.76 33.9773 130.675 32.9602 130.613 31.0909H136.948V30.5227C136.948 27.2727 135.016 26.1591 133.198 26.1591C130.834 26.1591 129.266 28.0227 129.266 30.7045C129.266 33.3864 130.811 35.1818 133.334 35.1818ZM130.613 29.9318C130.703 28.5739 131.664 27.3636 133.198 27.3636C134.652 27.3636 135.584 28.4545 135.584 29.9318H130.613ZM149.288 31.4318C149.288 33.0682 148.038 33.8182 147.038 33.8182C145.924 33.8182 145.128 33 145.128 31.7273V26.2727H143.788V31.8182C143.788 34.0455 144.969 35.1136 146.606 35.1136C147.924 35.1136 148.788 34.4091 149.197 33.5227H149.288V35H150.628V26.2727H149.288V31.4318ZM154.575 29.75C154.575 28.2273 155.519 27.3636 156.803 27.3636C158.047 27.3636 158.803 28.1761 158.803 29.5455V35H160.144V29.4545C160.144 27.2273 158.956 26.1591 157.189 26.1591C155.871 26.1591 155.053 26.75 154.644 27.6364H154.53V26.2727H153.234V35H154.575V29.75ZM168.735 29.75C168.735 28.2273 169.678 27.3636 170.962 27.3636C172.206 27.3636 172.962 28.1761 172.962 29.5455V35H174.303V29.4545C174.303 27.2273 173.115 26.1591 171.348 26.1591C170.03 26.1591 169.212 26.75 168.803 27.6364H168.689V26.2727H167.394V35H168.735V29.75ZM180.449 35.1818C182.812 35.1818 184.403 33.3864 184.403 30.6818C184.403 27.9545 182.812 26.1591 180.449 26.1591C178.085 26.1591 176.494 27.9545 176.494 30.6818C176.494 33.3864 178.085 35.1818 180.449 35.1818ZM180.449 33.9773C178.653 33.9773 177.835 32.4318 177.835 30.6818C177.835 28.9318 178.653 27.3636 180.449 27.3636C182.244 27.3636 183.062 28.9318 183.062 30.6818C183.062 32.4318 182.244 33.9773 180.449 33.9773ZM186.6 35H187.941V29.5455C187.941 28.267 188.873 27.3636 189.918 27.3636C190.935 27.3636 191.646 28.0284 191.646 29.0227V35H193.009V29.3182C193.009 28.1932 193.714 27.3636 194.941 27.3636C195.896 27.3636 196.714 27.8693 196.714 29.1591V35H198.055V29.1591C198.055 27.108 196.952 26.1591 195.396 26.1591C194.146 26.1591 193.231 26.733 192.782 27.6364H192.691C192.259 26.7045 191.498 26.1591 190.35 26.1591C189.214 26.1591 188.373 26.7045 188.009 27.6364H187.896V26.2727H186.6V35ZM200.838 35H202.134V33.6591H202.293C202.588 34.1364 203.156 35.1818 204.838 35.1818C207.02 35.1818 208.543 33.4318 208.543 30.6591C208.543 27.9091 207.02 26.1591 204.815 26.1591C203.111 26.1591 202.588 27.2045 202.293 27.6591H202.179V23.3636H200.838V35ZM202.156 30.6364C202.156 28.6818 203.02 27.3636 204.656 27.3636C206.361 27.3636 207.202 28.7955 207.202 30.6364C207.202 32.5 206.338 33.9773 204.656 33.9773C203.043 33.9773 202.156 32.6136 202.156 30.6364ZM210.744 35H212.085V29.4773C212.085 28.2955 213.017 27.4318 214.289 27.4318C214.647 27.4318 215.017 27.5 215.107 27.5227V26.1591C214.954 26.1477 214.602 26.1364 214.403 26.1364C213.357 26.1364 212.448 26.7273 212.13 27.5909H212.039V26.2727H210.744V35ZM220.24 35.1818C222.013 35.1818 223.309 34.2955 223.718 32.9773L222.422 32.6136C222.081 33.5227 221.292 33.9773 220.24 33.9773C218.667 33.9773 217.581 32.9602 217.519 31.0909H223.854V30.5227C223.854 27.2727 221.922 26.1591 220.104 26.1591C217.74 26.1591 216.172 28.0227 216.172 30.7045C216.172 33.3864 217.718 35.1818 220.24 35.1818ZM217.519 29.9318C217.61 28.5739 218.57 27.3636 220.104 27.3636C221.559 27.3636 222.49 28.4545 222.49 29.9318H217.519ZM230.694 35H232.035V29.4773C232.035 28.2955 232.967 27.4318 234.239 27.4318C234.597 27.4318 234.967 27.5 235.057 27.5227V26.1591C234.904 26.1477 234.552 26.1364 234.353 26.1364C233.307 26.1364 232.398 26.7273 232.08 27.5909H231.989V26.2727H230.694V35ZM240.19 35.1818C241.963 35.1818 243.259 34.2955 243.668 32.9773L242.372 32.6136C242.031 33.5227 241.242 33.9773 240.19 33.9773C238.617 33.9773 237.531 32.9602 237.469 31.0909H243.804V30.5227C243.804 27.2727 241.872 26.1591 240.054 26.1591C237.69 26.1591 236.122 28.0227 236.122 30.7045C236.122 33.3864 237.668 35.1818 240.19 35.1818ZM237.469 29.9318C237.56 28.5739 238.52 27.3636 240.054 27.3636C241.509 27.3636 242.44 28.4545 242.44 29.9318H237.469ZM249.539 35.1818C251.471 35.1818 252.744 34 252.971 32.4545H251.63C251.38 33.4091 250.585 33.9773 249.539 33.9773C247.948 33.9773 246.926 32.6591 246.926 30.6364C246.926 28.6591 247.971 27.3636 249.539 27.3636C250.721 27.3636 251.426 28.0909 251.63 28.8864H252.971C252.744 27.25 251.357 26.1591 249.517 26.1591C247.153 26.1591 245.585 28.0227 245.585 30.6818C245.585 33.2955 247.085 35.1818 249.539 35.1818ZM258.627 35.1818C260.99 35.1818 262.581 33.3864 262.581 30.6818C262.581 27.9545 260.99 26.1591 258.627 26.1591C256.263 26.1591 254.672 27.9545 254.672 30.6818C254.672 33.3864 256.263 35.1818 258.627 35.1818ZM258.627 33.9773C256.831 33.9773 256.013 32.4318 256.013 30.6818C256.013 28.9318 256.831 27.3636 258.627 27.3636C260.422 27.3636 261.24 28.9318 261.24 30.6818C261.24 32.4318 260.422 33.9773 258.627 33.9773ZM266.119 29.75C266.119 28.2273 267.062 27.3636 268.346 27.3636C269.591 27.3636 270.346 28.1761 270.346 29.5455V35H271.687V29.4545C271.687 27.2273 270.5 26.1591 268.733 26.1591C267.415 26.1591 266.596 26.75 266.187 27.6364H266.074V26.2727H264.778V35H266.119V29.75ZM277.833 35.1818C280.197 35.1818 281.788 33.3864 281.788 30.6818C281.788 27.9545 280.197 26.1591 277.833 26.1591C275.469 26.1591 273.878 27.9545 273.878 30.6818C273.878 33.3864 275.469 35.1818 277.833 35.1818ZM277.833 33.9773C276.038 33.9773 275.219 32.4318 275.219 30.6818C275.219 28.9318 276.038 27.3636 277.833 27.3636C279.628 27.3636 280.447 28.9318 280.447 30.6818C280.447 32.4318 279.628 33.9773 277.833 33.9773ZM287.53 35.1818C289.462 35.1818 290.734 34 290.962 32.4545H289.621C289.371 33.4091 288.575 33.9773 287.53 33.9773C285.939 33.9773 284.916 32.6591 284.916 30.6364C284.916 28.6591 285.962 27.3636 287.53 27.3636C288.712 27.3636 289.416 28.0909 289.621 28.8864H290.962C290.734 27.25 289.348 26.1591 287.507 26.1591C285.144 26.1591 283.575 28.0227 283.575 30.6818C283.575 33.2955 285.075 35.1818 287.53 35.1818ZM293.072 35H294.413V26.2727H293.072V35ZM293.754 24.8182C294.276 24.8182 294.708 24.4091 294.708 23.9091C294.708 23.4091 294.276 23 293.754 23C293.231 23 292.799 23.4091 292.799 23.9091C292.799 24.4091 293.231 24.8182 293.754 24.8182ZM297.201 35H298.496V33.6591H298.655C298.951 34.1364 299.519 35.1818 301.201 35.1818C303.382 35.1818 304.905 33.4318 304.905 30.6591C304.905 27.9091 303.382 26.1591 301.178 26.1591C299.473 26.1591 298.951 27.2045 298.655 27.6591H298.542V23.3636H297.201V35ZM298.519 30.6364C298.519 28.6818 299.382 27.3636 301.019 27.3636C302.723 27.3636 303.564 28.7955 303.564 30.6364C303.564 32.5 302.701 33.9773 301.019 33.9773C299.405 33.9773 298.519 32.6136 298.519 30.6364ZM308.447 23.3636H307.106V35H308.447V23.3636ZM314.712 35.1818C316.485 35.1818 317.78 34.2955 318.19 32.9773L316.894 32.6136C316.553 33.5227 315.763 33.9773 314.712 33.9773C313.138 33.9773 312.053 32.9602 311.991 31.0909H318.326V30.5227C318.326 27.2727 316.394 26.1591 314.576 26.1591C312.212 26.1591 310.644 28.0227 310.644 30.7045C310.644 33.3864 312.19 35.1818 314.712 35.1818ZM311.991 29.9318C312.082 28.5739 313.042 27.3636 314.576 27.3636C316.03 27.3636 316.962 28.4545 316.962 29.9318H311.991Z" fill="#2C2C2C"/>
<path d="M63.0009 49H327.001V52C327.001 54.7614 324.762 57 322.001 57H68.0009C65.2395 57 63.0009 54.7614 63.0009 52V49Z" fill="#D3DDE7"/>
<rect x="63.0009" y="75" width="264" height="275" rx="5" fill="white"/>
<path d="M90.4271 101C90.0492 98.9119 88.3788 97.679 86.3305 97.679C83.7253 97.679 81.8361 99.6875 81.8361 102.909C81.8361 106.131 83.7253 108.139 86.3305 108.139C88.3788 108.139 90.0492 106.906 90.4271 104.818H89.1941C88.8958 106.23 87.6827 106.986 86.3305 106.986C84.481 106.986 83.0293 105.554 83.0293 102.909C83.0293 100.264 84.481 98.8324 86.3305 98.8324C87.6827 98.8324 88.8958 99.5881 89.1941 101H90.4271ZM94.6575 108.179C95.9899 108.179 96.6859 107.463 96.9245 106.966H96.9842V108H98.1575V102.969C98.1575 100.543 96.3081 100.264 95.3336 100.264C94.1802 100.264 92.8677 100.662 92.2711 102.054L93.3848 102.452C93.6433 101.895 94.2548 101.298 95.3734 101.298C96.4522 101.298 96.9842 101.87 96.9842 102.849V102.889C96.9842 103.456 96.4075 103.406 95.0154 103.585C93.5985 103.769 92.0524 104.082 92.0524 105.832C92.0524 107.324 93.2058 108.179 94.6575 108.179ZM94.8365 107.125C93.9018 107.125 93.2257 106.707 93.2257 105.892C93.2257 104.997 94.041 104.719 94.9558 104.599C95.4529 104.54 96.7853 104.401 96.9842 104.162V105.236C96.9842 106.19 96.2285 107.125 94.8365 107.125ZM103.77 100.364H102.139V98.5341H100.966V100.364H99.8126V101.358H100.966V106.131C100.966 107.463 102.04 108.099 103.034 108.099C103.472 108.099 103.75 108.02 103.909 107.96L103.671 106.906C103.571 106.926 103.412 106.966 103.154 106.966C102.636 106.966 102.139 106.807 102.139 105.812V101.358H103.77V100.364ZM108.805 108.159C110.356 108.159 111.489 107.384 111.847 106.23L110.714 105.912C110.415 106.707 109.724 107.105 108.805 107.105C107.427 107.105 106.478 106.215 106.423 104.58H111.967V104.082C111.967 101.239 110.276 100.264 108.685 100.264C106.617 100.264 105.245 101.895 105.245 104.241C105.245 106.588 106.597 108.159 108.805 108.159ZM106.423 103.565C106.503 102.377 107.343 101.318 108.685 101.318C109.958 101.318 110.773 102.273 110.773 103.565H106.423ZM116.984 111.023C118.813 111.023 120.285 110.188 120.285 108.219V100.364H119.151V101.577H119.032C118.774 101.179 118.296 100.264 116.805 100.264C114.876 100.264 113.543 101.795 113.543 104.142C113.543 106.528 114.935 107.881 116.785 107.881C118.276 107.881 118.754 107.006 119.012 106.588H119.112V108.139C119.112 109.412 118.217 109.989 116.984 109.989C115.597 109.989 115.109 109.258 114.796 108.835L113.862 109.491C114.339 110.292 115.278 111.023 116.984 111.023ZM116.944 106.827C115.472 106.827 114.717 105.713 114.717 104.122C114.717 102.571 115.452 101.318 116.944 101.318C118.376 101.318 119.131 102.472 119.131 104.122C119.131 105.812 118.356 106.827 116.944 106.827ZM125.685 108.159C127.753 108.159 129.145 106.588 129.145 104.222C129.145 101.835 127.753 100.264 125.685 100.264C123.617 100.264 122.225 101.835 122.225 104.222C122.225 106.588 123.617 108.159 125.685 108.159ZM125.685 107.105C124.114 107.105 123.398 105.753 123.398 104.222C123.398 102.69 124.114 101.318 125.685 101.318C127.256 101.318 127.972 102.69 127.972 104.222C127.972 105.753 127.256 107.105 125.685 107.105ZM131.086 108H132.259V103.168C132.259 102.134 133.075 101.378 134.188 101.378C134.502 101.378 134.825 101.438 134.904 101.457V100.264C134.77 100.254 134.462 100.244 134.288 100.244C133.373 100.244 132.578 100.761 132.299 101.517H132.22V100.364H131.086V108ZM137.433 110.864C138.492 110.864 139.238 110.302 139.68 109.114L142.932 100.384L141.649 100.364L139.541 106.449H139.462L137.354 100.364H136.081L138.905 108.04L138.686 108.636C138.258 109.8 137.731 109.909 136.876 109.69L136.578 110.724C136.697 110.784 137.035 110.864 137.433 110.864Z" fill="url(#paint0_linear)"/>
<path d="M88.7736 127.273H90.1373C90.0748 125.517 88.4555 124.205 86.2055 124.205C83.9782 124.205 82.2282 125.5 82.2282 127.455C82.2282 129.023 83.3646 129.955 85.1827 130.477L86.6146 130.886C87.8418 131.227 88.9327 131.659 88.9327 132.818C88.9327 134.091 87.7055 134.932 86.0918 134.932C84.7055 134.932 83.4782 134.318 83.3646 133H81.91C82.0464 134.909 83.5918 136.205 86.0918 136.205C88.7736 136.205 90.2964 134.727 90.2964 132.841C90.2964 130.659 88.2282 129.955 87.0236 129.636L85.8418 129.318C84.9782 129.091 83.5918 128.636 83.5918 127.386C83.5918 126.273 84.6146 125.455 86.16 125.455C87.5691 125.455 88.6373 126.125 88.7736 127.273ZM96.2404 136.182C98.0131 136.182 99.3086 135.295 99.7177 133.977L98.4222 133.614C98.0813 134.523 97.2915 134.977 96.2404 134.977C94.6665 134.977 93.5813 133.96 93.5188 132.091H99.854V131.523C99.854 128.273 97.9222 127.159 96.104 127.159C93.7404 127.159 92.1722 129.023 92.1722 131.705C92.1722 134.386 93.7177 136.182 96.2404 136.182ZM93.5188 130.932C93.6097 129.574 94.5699 128.364 96.104 128.364C97.5586 128.364 98.4904 129.455 98.4904 130.932H93.5188ZM103.385 124.364H102.044V136H103.385V124.364ZM109.65 136.182C111.423 136.182 112.718 135.295 113.127 133.977L111.832 133.614C111.491 134.523 110.701 134.977 109.65 134.977C108.076 134.977 106.991 133.96 106.928 132.091H113.263V131.523C113.263 128.273 111.332 127.159 109.513 127.159C107.15 127.159 105.582 129.023 105.582 131.705C105.582 134.386 107.127 136.182 109.65 136.182ZM106.928 130.932C107.019 129.574 107.979 128.364 109.513 128.364C110.968 128.364 111.9 129.455 111.9 130.932H106.928ZM118.999 136.182C120.93 136.182 122.203 135 122.43 133.455H121.09C120.84 134.409 120.044 134.977 118.999 134.977C117.408 134.977 116.385 133.659 116.385 131.636C116.385 129.659 117.43 128.364 118.999 128.364C120.18 128.364 120.885 129.091 121.09 129.886H122.43C122.203 128.25 120.817 127.159 118.976 127.159C116.612 127.159 115.044 129.023 115.044 131.682C115.044 134.295 116.544 136.182 118.999 136.182ZM128.336 127.273H126.473V125.182H125.132V127.273H123.813V128.409H125.132V133.864C125.132 135.386 126.359 136.114 127.495 136.114C127.995 136.114 128.313 136.023 128.495 135.955L128.223 134.75C128.109 134.773 127.927 134.818 127.632 134.818C127.041 134.818 126.473 134.636 126.473 133.5V128.409H128.336V127.273ZM137.721 136.205C139.244 136.205 140.04 135.386 140.312 134.818H140.38V136H141.721V130.25C141.721 127.477 139.608 127.159 138.494 127.159C137.176 127.159 135.676 127.614 134.994 129.205L136.267 129.659C136.562 129.023 137.261 128.341 138.54 128.341C139.773 128.341 140.38 128.994 140.38 130.114V130.159C140.38 130.807 139.721 130.75 138.13 130.955C136.511 131.165 134.744 131.523 134.744 133.523C134.744 135.227 136.062 136.205 137.721 136.205ZM137.926 135C136.858 135 136.085 134.523 136.085 133.591C136.085 132.568 137.017 132.25 138.062 132.114C138.63 132.045 140.153 131.886 140.38 131.614V132.841C140.38 133.932 139.517 135 137.926 135ZM152.514 136.182C154.446 136.182 155.719 135 155.946 133.455H154.605C154.355 134.409 153.56 134.977 152.514 134.977C150.923 134.977 149.901 133.659 149.901 131.636C149.901 129.659 150.946 128.364 152.514 128.364C153.696 128.364 154.401 129.091 154.605 129.886H155.946C155.719 128.25 154.332 127.159 152.492 127.159C150.128 127.159 148.56 129.023 148.56 131.682C148.56 134.295 150.06 136.182 152.514 136.182ZM160.624 136.205C162.147 136.205 162.943 135.386 163.215 134.818H163.284V136H164.624V130.25C164.624 127.477 162.511 127.159 161.397 127.159C160.079 127.159 158.579 127.614 157.897 129.205L159.17 129.659C159.465 129.023 160.164 128.341 161.443 128.341C162.676 128.341 163.284 128.994 163.284 130.114V130.159C163.284 130.807 162.624 130.75 161.034 130.955C159.414 131.165 157.647 131.523 157.647 133.523C157.647 135.227 158.965 136.205 160.624 136.205ZM160.829 135C159.761 135 158.988 134.523 158.988 133.591C158.988 132.568 159.92 132.25 160.965 132.114C161.534 132.045 163.056 131.886 163.284 131.614V132.841C163.284 133.932 162.42 135 160.829 135ZM171.017 127.273H169.154V125.182H167.813V127.273H166.495V128.409H167.813V133.864C167.813 135.386 169.04 136.114 170.176 136.114C170.676 136.114 170.995 136.023 171.176 135.955L170.904 134.75C170.79 134.773 170.608 134.818 170.313 134.818C169.722 134.818 169.154 134.636 169.154 133.5V128.409H171.017V127.273ZM176.75 136.182C178.523 136.182 179.818 135.295 180.227 133.977L178.932 133.614C178.591 134.523 177.801 134.977 176.75 134.977C175.176 134.977 174.091 133.96 174.028 132.091H180.363V131.523C180.363 128.273 178.432 127.159 176.613 127.159C174.25 127.159 172.682 129.023 172.682 131.705C172.682 134.386 174.227 136.182 176.75 136.182ZM174.028 130.932C174.119 129.574 175.079 128.364 176.613 128.364C178.068 128.364 179 129.455 179 130.932H174.028ZM186.076 139.455C188.167 139.455 189.849 138.5 189.849 136.25V127.273H188.553V128.659H188.417C188.121 128.205 187.576 127.159 185.871 127.159C183.667 127.159 182.144 128.909 182.144 131.591C182.144 134.318 183.735 135.864 185.849 135.864C187.553 135.864 188.099 134.864 188.394 134.386H188.508V136.159C188.508 137.614 187.485 138.273 186.076 138.273C184.491 138.273 183.934 137.438 183.576 136.955L182.508 137.705C183.053 138.619 184.127 139.455 186.076 139.455ZM186.03 134.659C184.349 134.659 183.485 133.386 183.485 131.568C183.485 129.795 184.326 128.364 186.03 128.364C187.667 128.364 188.53 129.682 188.53 131.568C188.53 133.5 187.644 134.659 186.03 134.659ZM195.999 136.182C198.362 136.182 199.953 134.386 199.953 131.682C199.953 128.955 198.362 127.159 195.999 127.159C193.635 127.159 192.044 128.955 192.044 131.682C192.044 134.386 193.635 136.182 195.999 136.182ZM195.999 134.977C194.203 134.977 193.385 133.432 193.385 131.682C193.385 129.932 194.203 128.364 195.999 128.364C197.794 128.364 198.612 129.932 198.612 131.682C198.612 133.432 197.794 134.977 195.999 134.977ZM202.15 136H203.491V130.477C203.491 129.295 204.423 128.432 205.696 128.432C206.053 128.432 206.423 128.5 206.514 128.523V127.159C206.36 127.148 206.008 127.136 205.809 127.136C204.764 127.136 203.855 127.727 203.536 128.591H203.446V127.273H202.15V136ZM209.382 139.273C210.593 139.273 211.445 138.631 211.951 137.273L215.667 127.295L214.201 127.273L211.792 134.227H211.701L209.292 127.273H207.837L211.064 136.045L210.814 136.727C210.326 138.057 209.723 138.182 208.746 137.932L208.405 139.114C208.542 139.182 208.928 139.273 209.382 139.273Z" fill="#2C2C2C"/>
<path d="M109.41 162.364V174H110.728V165.159H110.842L114.478 174H115.751L119.387 165.159H119.501V174H120.819V162.364H119.137L115.183 172.023H115.046L111.092 162.364H109.41ZM127.158 174.182C129.522 174.182 131.113 172.386 131.113 169.682C131.113 166.955 129.522 165.159 127.158 165.159C124.794 165.159 123.203 166.955 123.203 169.682C123.203 172.386 124.794 174.182 127.158 174.182ZM127.158 172.977C125.363 172.977 124.544 171.432 124.544 169.682C124.544 167.932 125.363 166.364 127.158 166.364C128.953 166.364 129.772 167.932 129.772 169.682C129.772 171.432 128.953 172.977 127.158 172.977ZM138.809 170.432C138.809 172.068 137.559 172.818 136.559 172.818C135.446 172.818 134.65 172 134.65 170.727V165.273H133.309V170.818C133.309 173.045 134.491 174.114 136.128 174.114C137.446 174.114 138.309 173.409 138.719 172.523H138.809V174H140.15V165.273H138.809V170.432ZM144.097 168.75C144.097 167.227 145.04 166.364 146.324 166.364C147.569 166.364 148.324 167.176 148.324 168.545V174H149.665V168.455C149.665 166.227 148.478 165.159 146.711 165.159C145.393 165.159 144.574 165.75 144.165 166.636H144.052V165.273H142.756V174H144.097V168.75ZM156.061 165.273H154.198V163.182H152.857V165.273H151.538V166.409H152.857V171.864C152.857 173.386 154.084 174.114 155.22 174.114C155.72 174.114 156.038 174.023 156.22 173.955L155.948 172.75C155.834 172.773 155.652 172.818 155.357 172.818C154.766 172.818 154.198 172.636 154.198 171.5V166.409H156.061V165.273ZM160.796 174.205C162.319 174.205 163.115 173.386 163.387 172.818H163.455V174H164.796V168.25C164.796 165.477 162.683 165.159 161.569 165.159C160.251 165.159 158.751 165.614 158.069 167.205L159.342 167.659C159.637 167.023 160.336 166.341 161.615 166.341C162.848 166.341 163.455 166.994 163.455 168.114V168.159C163.455 168.807 162.796 168.75 161.205 168.955C159.586 169.165 157.819 169.523 157.819 171.523C157.819 173.227 159.137 174.205 160.796 174.205ZM161.001 173C159.933 173 159.16 172.523 159.16 171.591C159.16 170.568 160.092 170.25 161.137 170.114C161.705 170.045 163.228 169.886 163.455 169.614V170.841C163.455 171.932 162.592 173 161.001 173ZM167.394 174H168.735V165.273H167.394V174ZM168.076 163.818C168.598 163.818 169.03 163.409 169.03 162.909C169.03 162.409 168.598 162 168.076 162C167.553 162 167.121 162.409 167.121 162.909C167.121 163.409 167.553 163.818 168.076 163.818ZM172.682 168.75C172.682 167.227 173.625 166.364 174.909 166.364C176.153 166.364 176.909 167.176 176.909 168.545V174H178.25V168.455C178.25 166.227 177.062 165.159 175.295 165.159C173.977 165.159 173.159 165.75 172.75 166.636H172.636V165.273H171.341V174H172.682V168.75ZM115.774 193.273H117.137C117.075 191.517 115.455 190.205 113.205 190.205C110.978 190.205 109.228 191.5 109.228 193.455C109.228 195.023 110.365 195.955 112.183 196.477L113.615 196.886C114.842 197.227 115.933 197.659 115.933 198.818C115.933 200.091 114.705 200.932 113.092 200.932C111.705 200.932 110.478 200.318 110.365 199H108.91C109.046 200.909 110.592 202.205 113.092 202.205C115.774 202.205 117.296 200.727 117.296 198.841C117.296 196.659 115.228 195.955 114.024 195.636L112.842 195.318C111.978 195.091 110.592 194.636 110.592 193.386C110.592 192.273 111.615 191.455 113.16 191.455C114.569 191.455 115.637 192.125 115.774 193.273ZM123.24 202.182C125.013 202.182 126.309 201.295 126.718 199.977L125.422 199.614C125.081 200.523 124.292 200.977 123.24 200.977C121.667 200.977 120.581 199.96 120.519 198.091H126.854V197.523C126.854 194.273 124.922 193.159 123.104 193.159C120.74 193.159 119.172 195.023 119.172 197.705C119.172 200.386 120.718 202.182 123.24 202.182ZM120.519 196.932C120.61 195.574 121.57 194.364 123.104 194.364C124.559 194.364 125.49 195.455 125.49 196.932H120.519ZM131.612 202.205C133.135 202.205 133.93 201.386 134.203 200.818H134.271V202H135.612V196.25C135.612 193.477 133.498 193.159 132.385 193.159C131.067 193.159 129.567 193.614 128.885 195.205L130.157 195.659C130.453 195.023 131.152 194.341 132.43 194.341C133.663 194.341 134.271 194.994 134.271 196.114V196.159C134.271 196.807 133.612 196.75 132.021 196.955C130.402 197.165 128.635 197.523 128.635 199.523C128.635 201.227 129.953 202.205 131.612 202.205ZM131.817 201C130.748 201 129.976 200.523 129.976 199.591C129.976 198.568 130.907 198.25 131.953 198.114C132.521 198.045 134.044 197.886 134.271 197.614V198.841C134.271 199.932 133.407 201 131.817 201ZM146.405 202.182C148.769 202.182 150.359 200.386 150.359 197.682C150.359 194.955 148.769 193.159 146.405 193.159C144.041 193.159 142.45 194.955 142.45 197.682C142.45 200.386 144.041 202.182 146.405 202.182ZM146.405 200.977C144.609 200.977 143.791 199.432 143.791 197.682C143.791 195.932 144.609 194.364 146.405 194.364C148.2 194.364 149.019 195.932 149.019 197.682C149.019 199.432 148.2 200.977 146.405 200.977ZM152.556 202H153.897V196.477C153.897 195.295 154.829 194.432 156.102 194.432C156.46 194.432 156.829 194.5 156.92 194.523V193.159C156.767 193.148 156.414 193.136 156.215 193.136C155.17 193.136 154.261 193.727 153.943 194.591H153.852V193.273H152.556V202ZM163.491 202H164.787V200.659H164.946C165.241 201.136 165.809 202.182 167.491 202.182C169.673 202.182 171.196 200.432 171.196 197.659C171.196 194.909 169.673 193.159 167.469 193.159C165.764 193.159 165.241 194.205 164.946 194.659H164.832V190.364H163.491V202ZM164.809 197.636C164.809 195.682 165.673 194.364 167.309 194.364C169.014 194.364 169.855 195.795 169.855 197.636C169.855 199.5 168.991 200.977 167.309 200.977C165.696 200.977 164.809 199.614 164.809 197.636ZM177.056 202.182C178.829 202.182 180.124 201.295 180.533 199.977L179.238 199.614C178.897 200.523 178.107 200.977 177.056 200.977C175.482 200.977 174.397 199.96 174.334 198.091H180.67V197.523C180.67 194.273 178.738 193.159 176.92 193.159C174.556 193.159 172.988 195.023 172.988 197.705C172.988 200.386 174.533 202.182 177.056 202.182ZM174.334 196.932C174.425 195.574 175.386 194.364 176.92 194.364C178.374 194.364 179.306 195.455 179.306 196.932H174.334ZM185.428 202.205C186.95 202.205 187.746 201.386 188.019 200.818H188.087V202H189.428V196.25C189.428 193.477 187.314 193.159 186.2 193.159C184.882 193.159 183.382 193.614 182.7 195.205L183.973 195.659C184.269 195.023 184.967 194.341 186.246 194.341C187.479 194.341 188.087 194.994 188.087 196.114V196.159C188.087 196.807 187.428 196.75 185.837 196.955C184.217 197.165 182.45 197.523 182.45 199.523C182.45 201.227 183.769 202.205 185.428 202.205ZM185.632 201C184.564 201 183.791 200.523 183.791 199.591C183.791 198.568 184.723 198.25 185.769 198.114C186.337 198.045 187.859 197.886 188.087 197.614V198.841C188.087 199.932 187.223 201 185.632 201ZM195.571 202.182C197.502 202.182 198.775 201 199.002 199.455H197.661C197.411 200.409 196.616 200.977 195.571 200.977C193.98 200.977 192.957 199.659 192.957 197.636C192.957 195.659 194.002 194.364 195.571 194.364C196.752 194.364 197.457 195.091 197.661 195.886H199.002C198.775 194.25 197.389 193.159 195.548 193.159C193.184 193.159 191.616 195.023 191.616 197.682C191.616 200.295 193.116 202.182 195.571 202.182ZM202.453 196.75C202.453 195.227 203.425 194.364 204.749 194.364C206.01 194.364 206.772 195.159 206.772 196.545V202H208.113V196.455C208.113 194.21 206.919 193.159 205.135 193.159C203.76 193.159 202.976 193.733 202.567 194.636H202.453V190.364H201.113V202H202.453V196.75ZM117.046 218.364V225.955C117.046 227.659 115.876 228.886 113.933 228.886C111.99 228.886 110.819 227.659 110.819 225.955V218.364H109.41V226.068C109.41 228.455 111.194 230.205 113.933 230.205C116.671 230.205 118.455 228.455 118.455 226.068V218.364H117.046ZM121.238 230H122.578V224.477C122.578 223.295 123.51 222.432 124.783 222.432C125.141 222.432 125.51 222.5 125.601 222.523V221.159C125.448 221.148 125.096 221.136 124.897 221.136C123.851 221.136 122.942 221.727 122.624 222.591H122.533V221.273H121.238V230ZM127.523 230H128.818V228.659H128.977C129.273 229.136 129.841 230.182 131.523 230.182C133.704 230.182 135.227 228.432 135.227 225.659C135.227 222.909 133.704 221.159 131.5 221.159C129.795 221.159 129.273 222.205 128.977 222.659H128.863V218.364H127.523V230ZM128.841 225.636C128.841 223.682 129.704 222.364 131.341 222.364C133.045 222.364 133.886 223.795 133.886 225.636C133.886 227.5 133.023 228.977 131.341 228.977C129.727 228.977 128.841 227.614 128.841 225.636ZM139.996 230.205C141.519 230.205 142.315 229.386 142.587 228.818H142.655V230H143.996V224.25C143.996 221.477 141.883 221.159 140.769 221.159C139.451 221.159 137.951 221.614 137.269 223.205L138.542 223.659C138.837 223.023 139.536 222.341 140.815 222.341C142.048 222.341 142.655 222.994 142.655 224.114V224.159C142.655 224.807 141.996 224.75 140.405 224.955C138.786 225.165 137.019 225.523 137.019 227.523C137.019 229.227 138.337 230.205 139.996 230.205ZM140.201 229C139.133 229 138.36 228.523 138.36 227.591C138.36 226.568 139.292 226.25 140.337 226.114C140.905 226.045 142.428 225.886 142.655 225.614V226.841C142.655 227.932 141.792 229 140.201 229ZM147.935 224.75C147.935 223.227 148.878 222.364 150.162 222.364C151.406 222.364 152.162 223.176 152.162 224.545V230H153.503V224.455C153.503 222.227 152.315 221.159 150.548 221.159C149.23 221.159 148.412 221.75 148.003 222.636H147.889V221.273H146.594V230H147.935V224.75ZM164.299 230.182C166.23 230.182 167.503 229 167.73 227.455H166.39C166.14 228.409 165.344 228.977 164.299 228.977C162.708 228.977 161.685 227.659 161.685 225.636C161.685 223.659 162.73 222.364 164.299 222.364C165.48 222.364 166.185 223.091 166.39 223.886H167.73C167.503 222.25 166.117 221.159 164.276 221.159C161.912 221.159 160.344 223.023 160.344 225.682C160.344 228.295 161.844 230.182 164.299 230.182ZM173.5 230.182C175.273 230.182 176.568 229.295 176.977 227.977L175.682 227.614C175.341 228.523 174.551 228.977 173.5 228.977C171.926 228.977 170.841 227.96 170.778 226.091H177.113V225.523C177.113 222.273 175.182 221.159 173.363 221.159C171 221.159 169.432 223.023 169.432 225.705C169.432 228.386 170.977 230.182 173.5 230.182ZM170.778 224.932C170.869 223.574 171.829 222.364 173.363 222.364C174.818 222.364 175.75 223.455 175.75 224.932H170.778ZM180.644 224.75C180.644 223.227 181.587 222.364 182.871 222.364C184.116 222.364 184.871 223.176 184.871 224.545V230H186.212V224.455C186.212 222.227 185.025 221.159 183.258 221.159C181.94 221.159 181.121 221.75 180.712 222.636H180.599V221.273H179.303V230H180.644V224.75ZM192.608 221.273H190.744V219.182H189.403V221.273H188.085V222.409H189.403V227.864C189.403 229.386 190.631 230.114 191.767 230.114C192.267 230.114 192.585 230.023 192.767 229.955L192.494 228.75C192.381 228.773 192.199 228.818 191.903 228.818C191.313 228.818 190.744 228.636 190.744 227.5V222.409H192.608V221.273ZM198.34 230.182C200.113 230.182 201.409 229.295 201.818 227.977L200.522 227.614C200.181 228.523 199.392 228.977 198.34 228.977C196.767 228.977 195.681 227.96 195.619 226.091H201.954V225.523C201.954 222.273 200.022 221.159 198.204 221.159C195.84 221.159 194.272 223.023 194.272 225.705C194.272 228.386 195.818 230.182 198.34 230.182ZM195.619 224.932C195.71 223.574 196.67 222.364 198.204 222.364C199.659 222.364 200.59 223.455 200.59 224.932H195.619ZM204.144 230H205.485V224.477C205.485 223.295 206.417 222.432 207.689 222.432C208.047 222.432 208.417 222.5 208.507 222.523V221.159C208.354 221.148 208.002 221.136 207.803 221.136C206.757 221.136 205.848 221.727 205.53 222.591H205.439V221.273H204.144V230ZM109.41 258H110.819V252.795H117.024V258H118.433V246.364H117.024V251.545H110.819V246.364H109.41V258ZM121.222 258H122.563V249.273H121.222V258ZM121.904 247.818C122.426 247.818 122.858 247.409 122.858 246.909C122.858 246.409 122.426 246 121.904 246C121.381 246 120.949 246.409 120.949 246.909C120.949 247.409 121.381 247.818 121.904 247.818ZM128.692 261.455C130.782 261.455 132.464 260.5 132.464 258.25V249.273H131.169V250.659H131.032C130.737 250.205 130.192 249.159 128.487 249.159C126.282 249.159 124.76 250.909 124.76 253.591C124.76 256.318 126.351 257.864 128.464 257.864C130.169 257.864 130.714 256.864 131.01 256.386H131.123V258.159C131.123 259.614 130.101 260.273 128.692 260.273C127.106 260.273 126.549 259.438 126.192 258.955L125.123 259.705C125.669 260.619 126.743 261.455 128.692 261.455ZM128.646 256.659C126.964 256.659 126.101 255.386 126.101 253.568C126.101 251.795 126.942 250.364 128.646 250.364C130.282 250.364 131.146 251.682 131.146 253.568C131.146 255.5 130.26 256.659 128.646 256.659ZM136.41 252.75C136.41 251.227 137.381 250.364 138.705 250.364C139.967 250.364 140.728 251.159 140.728 252.545V258H142.069V252.455C142.069 250.21 140.876 249.159 139.092 249.159C137.717 249.159 136.932 249.733 136.523 250.636H136.41V246.364H135.069V258H136.41V252.75ZM146.649 258H147.967L149.876 251.295H150.013L151.922 258H153.24L155.899 249.273H154.49L152.604 255.932H152.513L150.672 249.273H149.24L147.376 255.955H147.286L145.399 249.273H143.99L146.649 258ZM160.39 258.205C161.913 258.205 162.708 257.386 162.981 256.818H163.049V258H164.39V252.25C164.39 249.477 162.276 249.159 161.163 249.159C159.845 249.159 158.345 249.614 157.663 251.205L158.936 251.659C159.231 251.023 159.93 250.341 161.208 250.341C162.441 250.341 163.049 250.994 163.049 252.114V252.159C163.049 252.807 162.39 252.75 160.799 252.955C159.18 253.165 157.413 253.523 157.413 255.523C157.413 257.227 158.731 258.205 160.39 258.205ZM160.595 257C159.526 257 158.754 256.523 158.754 255.591C158.754 254.568 159.686 254.25 160.731 254.114C161.299 254.045 162.822 253.886 163.049 253.614V254.841C163.049 255.932 162.186 257 160.595 257ZM167.539 261.273C168.749 261.273 169.601 260.631 170.107 259.273L173.823 249.295L172.357 249.273L169.948 256.227H169.857L167.448 249.273H165.993L169.221 258.045L168.971 258.727C168.482 260.057 167.88 260.182 166.902 259.932L166.561 261.114C166.698 261.182 167.084 261.273 167.539 261.273ZM109.887 286L111.058 282.705H115.762L116.933 286H118.41L114.137 274.364H112.683L108.41 286H109.887ZM111.501 281.455L113.365 276.205H113.455L115.319 281.455H111.501ZM120.284 286H121.625V277.273H120.284V286ZM120.966 275.818C121.489 275.818 121.921 275.409 121.921 274.909C121.921 274.409 121.489 274 120.966 274C120.444 274 120.012 274.409 120.012 274.909C120.012 275.409 120.444 275.818 120.966 275.818ZM124.231 286H125.572V280.477C125.572 279.295 126.504 278.432 127.777 278.432C128.135 278.432 128.504 278.5 128.595 278.523V277.159C128.442 277.148 128.089 277.136 127.89 277.136C126.845 277.136 125.936 277.727 125.618 278.591H125.527V277.273H124.231V286ZM130.334 289.273H131.675V284.659H131.789C132.084 285.136 132.653 286.182 134.334 286.182C136.516 286.182 138.039 284.432 138.039 281.659C138.039 278.909 136.516 277.159 134.312 277.159C132.607 277.159 132.084 278.205 131.789 278.659H131.63V277.273H130.334V289.273ZM131.653 281.636C131.653 279.682 132.516 278.364 134.153 278.364C135.857 278.364 136.698 279.795 136.698 281.636C136.698 283.5 135.834 284.977 134.153 284.977C132.539 284.977 131.653 283.614 131.653 281.636ZM143.78 286.182C146.144 286.182 147.734 284.386 147.734 281.682C147.734 278.955 146.144 277.159 143.78 277.159C141.416 277.159 139.825 278.955 139.825 281.682C139.825 284.386 141.416 286.182 143.78 286.182ZM143.78 284.977C141.984 284.977 141.166 283.432 141.166 281.682C141.166 279.932 141.984 278.364 143.78 278.364C145.575 278.364 146.394 279.932 146.394 281.682C146.394 283.432 145.575 284.977 143.78 284.977ZM149.931 286H151.272V280.477C151.272 279.295 152.204 278.432 153.477 278.432C153.835 278.432 154.204 278.5 154.295 278.523V277.159C154.142 277.148 153.789 277.136 153.59 277.136C152.545 277.136 151.636 277.727 151.318 278.591H151.227V277.273H149.931V286ZM160.377 277.273H158.513V275.182H157.172V277.273H155.854V278.409H157.172V283.864C157.172 285.386 158.399 286.114 159.536 286.114C160.036 286.114 160.354 286.023 160.536 285.955L160.263 284.75C160.149 284.773 159.968 284.818 159.672 284.818C159.081 284.818 158.513 284.636 158.513 283.5V278.409H160.377V277.273ZM118.637 302.364H117.251V311.523H117.137L110.774 302.364H109.41V314H110.819V304.864H110.933L117.274 314H118.637V302.364ZM124.971 314.182C127.334 314.182 128.925 312.386 128.925 309.682C128.925 306.955 127.334 305.159 124.971 305.159C122.607 305.159 121.016 306.955 121.016 309.682C121.016 312.386 122.607 314.182 124.971 314.182ZM124.971 312.977C123.175 312.977 122.357 311.432 122.357 309.682C122.357 307.932 123.175 306.364 124.971 306.364C126.766 306.364 127.584 307.932 127.584 309.682C127.584 311.432 126.766 312.977 124.971 312.977ZM132.463 308.75C132.463 307.227 133.406 306.364 134.69 306.364C135.934 306.364 136.69 307.176 136.69 308.545V314H138.031V308.455C138.031 306.227 136.844 305.159 135.076 305.159C133.758 305.159 132.94 305.75 132.531 306.636H132.417V305.273H131.122V314H132.463V308.75ZM144.29 314.182C146.063 314.182 147.359 313.295 147.768 311.977L146.472 311.614C146.131 312.523 145.342 312.977 144.29 312.977C142.717 312.977 141.631 311.96 141.569 310.091H147.904V309.523C147.904 306.273 145.972 305.159 144.154 305.159C141.79 305.159 140.222 307.023 140.222 309.705C140.222 312.386 141.768 314.182 144.29 314.182ZM141.569 308.932C141.66 307.574 142.62 306.364 144.154 306.364C145.609 306.364 146.54 307.455 146.54 308.932H141.569ZM158.289 314.182C160.653 314.182 162.244 312.386 162.244 309.682C162.244 306.955 160.653 305.159 158.289 305.159C155.926 305.159 154.335 306.955 154.335 309.682C154.335 312.386 155.926 314.182 158.289 314.182ZM158.289 312.977C156.494 312.977 155.676 311.432 155.676 309.682C155.676 307.932 156.494 306.364 158.289 306.364C160.085 306.364 160.903 307.932 160.903 309.682C160.903 311.432 160.085 312.977 158.289 312.977ZM168.327 305.273H166.373V304.386C166.373 303.523 166.736 303.068 167.623 303.068C168.009 303.068 168.236 303.159 168.373 303.205L168.759 302.045C168.554 301.955 168.145 301.818 167.486 301.818C166.236 301.818 165.032 302.568 165.032 304.068V305.273H163.623V306.409H165.032V314H166.373V306.409H168.327V305.273ZM178.802 305.273H176.938V303.182H175.597V305.273H174.279V306.409H175.597V311.864C175.597 313.386 176.824 314.114 177.961 314.114C178.461 314.114 178.779 314.023 178.961 313.955L178.688 312.75C178.574 312.773 178.393 312.818 178.097 312.818C177.506 312.818 176.938 312.636 176.938 311.5V306.409H178.802V305.273ZM182.497 308.75C182.497 307.227 183.469 306.364 184.793 306.364C186.054 306.364 186.815 307.159 186.815 308.545V314H188.156V308.455C188.156 306.21 186.963 305.159 185.179 305.159C183.804 305.159 183.02 305.733 182.611 306.636H182.497V302.364H181.156V314H182.497V308.75ZM194.419 314.182C196.191 314.182 197.487 313.295 197.896 311.977L196.6 311.614C196.259 312.523 195.47 312.977 194.419 312.977C192.845 312.977 191.759 311.96 191.697 310.091H198.032V309.523C198.032 306.273 196.1 305.159 194.282 305.159C191.919 305.159 190.35 307.023 190.35 309.705C190.35 312.386 191.896 314.182 194.419 314.182ZM191.697 308.932C191.788 307.574 192.748 306.364 194.282 306.364C195.737 306.364 196.669 307.455 196.669 308.932H191.697ZM207.44 314.205C208.963 314.205 209.758 313.386 210.031 312.818H210.099V314H211.44V308.25C211.44 305.477 209.326 305.159 208.213 305.159C206.895 305.159 205.395 305.614 204.713 307.205L205.986 307.659C206.281 307.023 206.98 306.341 208.258 306.341C209.491 306.341 210.099 306.994 210.099 308.114V308.159C210.099 308.807 209.44 308.75 207.849 308.955C206.23 309.165 204.463 309.523 204.463 311.523C204.463 313.227 205.781 314.205 207.44 314.205ZM207.645 313C206.576 313 205.804 312.523 205.804 311.591C205.804 310.568 206.736 310.25 207.781 310.114C208.349 310.045 209.872 309.886 210.099 309.614V310.841C210.099 311.932 209.236 313 207.645 313ZM214.219 314H215.515V312.659H215.674C215.969 313.136 216.538 314.182 218.219 314.182C220.401 314.182 221.924 312.432 221.924 309.659C221.924 306.909 220.401 305.159 218.197 305.159C216.492 305.159 215.969 306.205 215.674 306.659H215.56V302.364H214.219V314ZM215.538 309.636C215.538 307.682 216.401 306.364 218.038 306.364C219.742 306.364 220.583 307.795 220.583 309.636C220.583 311.5 219.719 312.977 218.038 312.977C216.424 312.977 215.538 311.614 215.538 309.636ZM227.671 314.182C230.034 314.182 231.625 312.386 231.625 309.682C231.625 306.955 230.034 305.159 227.671 305.159C225.307 305.159 223.716 306.955 223.716 309.682C223.716 312.386 225.307 314.182 227.671 314.182ZM227.671 312.977C225.875 312.977 225.057 311.432 225.057 309.682C225.057 307.932 225.875 306.364 227.671 306.364C229.466 306.364 230.284 307.932 230.284 309.682C230.284 311.432 229.466 312.977 227.671 312.977ZM240.646 305.273H239.191L236.782 312.227H236.691L234.282 305.273H232.828L236.055 314H237.419L240.646 305.273ZM245.912 314.182C247.685 314.182 248.98 313.295 249.39 311.977L248.094 311.614C247.753 312.523 246.963 312.977 245.912 312.977C244.338 312.977 243.253 311.96 243.191 310.091H249.526V309.523C249.526 306.273 247.594 305.159 245.776 305.159C243.412 305.159 241.844 307.023 241.844 309.705C241.844 312.386 243.39 314.182 245.912 314.182ZM243.191 308.932C243.282 307.574 244.242 306.364 245.776 306.364C247.23 306.364 248.162 307.455 248.162 308.932H243.191Z" fill="#2C2C2C"/>
<path d="M63.0009 346H327.001V349C327.001 351.761 324.762 354 322.001 354H68.0009C65.2395 354 63.0009 351.761 63.0009 349V346Z" fill="#D3DDE7"/>
<circle cx="91.0009" cy="168" r="6.5" stroke="url(#paint1_linear)"/>
<circle cx="91.0009" cy="198" r="6.5" stroke="url(#paint2_linear)"/>
<circle cx="91.0009" cy="224" r="6.5" stroke="url(#paint3_linear)"/>
<circle cx="91.0009" cy="251" r="6.5" fill="#0043EF" stroke="url(#paint4_linear)"/>
<circle cx="91.0009" cy="281" r="6.5" stroke="url(#paint5_linear)"/>
<circle cx="91.0009" cy="308" r="6.5" stroke="url(#paint6_linear)"/>
<path d="M65.0009 604C65.0009 601.239 67.2395 599 70.0009 599H328.001V644C328.001 646.761 325.762 649 323.001 649H70.0009C67.2395 649 65.0009 646.761 65.0009 644V604Z" fill="#D3DDE7"/>
<path d="M153.96 622.562H155.988C155.949 620.597 154.273 619.205 151.795 619.205C149.352 619.205 147.517 620.58 147.523 622.636C147.523 624.307 148.71 625.267 150.625 625.761L151.949 626.102C153.204 626.42 154.034 626.812 154.04 627.716C154.034 628.71 153.091 629.375 151.716 629.375C150.398 629.375 149.375 628.784 149.29 627.562H147.216C147.301 629.875 149.023 631.176 151.733 631.176C154.523 631.176 156.142 629.784 156.148 627.733C156.142 625.716 154.477 624.795 152.727 624.381L151.636 624.108C150.682 623.881 149.648 623.477 149.659 622.506C149.665 621.631 150.449 620.989 151.767 620.989C153.023 620.989 153.852 621.574 153.96 622.562ZM160.597 631.176C161.967 631.176 162.785 630.534 163.16 629.801H163.228V631H165.205V625.159C165.205 622.852 163.324 622.159 161.66 622.159C159.824 622.159 158.415 622.977 157.961 624.568L159.881 624.841C160.086 624.244 160.665 623.733 161.671 623.733C162.626 623.733 163.148 624.222 163.148 625.08V625.114C163.148 625.705 162.529 625.733 160.989 625.898C159.296 626.08 157.677 626.585 157.677 628.551C157.677 630.267 158.932 631.176 160.597 631.176ZM161.131 629.665C160.273 629.665 159.66 629.273 159.66 628.517C159.66 627.727 160.347 627.398 161.268 627.267C161.807 627.193 162.887 627.057 163.154 626.841V627.869C163.154 628.841 162.37 629.665 161.131 629.665ZM174.906 622.273H172.719L170.707 628.756H170.617L168.611 622.273H166.418L169.526 631H171.798L174.906 622.273ZM180.046 631.17C182.08 631.17 183.478 630.176 183.842 628.659L181.921 628.443C181.643 629.182 180.961 629.568 180.075 629.568C178.745 629.568 177.865 628.693 177.848 627.199H183.927V626.568C183.927 623.506 182.086 622.159 179.938 622.159C177.438 622.159 175.808 623.994 175.808 626.688C175.808 629.426 177.416 631.17 180.046 631.17ZM177.853 625.812C177.916 624.699 178.74 623.761 179.967 623.761C181.149 623.761 181.944 624.625 181.955 625.812H177.853ZM193.799 631.17C195.834 631.17 197.231 630.176 197.595 628.659L195.674 628.443C195.396 629.182 194.714 629.568 193.828 629.568C192.498 629.568 191.618 628.693 191.601 627.199H197.68V626.568C197.68 623.506 195.839 622.159 193.692 622.159C191.192 622.159 189.561 623.994 189.561 626.688C189.561 629.426 191.169 631.17 193.799 631.17ZM191.606 625.812C191.669 624.699 192.493 623.761 193.72 623.761C194.902 623.761 195.697 624.625 195.709 625.812H191.606ZM202.809 631.153C204.309 631.153 204.985 630.261 205.309 629.625H205.434V631H207.457V619.364H205.394V623.716H205.309C204.996 623.085 204.354 622.159 202.815 622.159C200.798 622.159 199.212 623.739 199.212 626.648C199.212 629.523 200.752 631.153 202.809 631.153ZM203.383 629.466C202.025 629.466 201.309 628.273 201.309 626.636C201.309 625.011 202.013 623.847 203.383 623.847C204.707 623.847 205.434 624.943 205.434 626.636C205.434 628.33 204.695 629.466 203.383 629.466ZM209.798 631H211.855V622.273H209.798V631ZM210.832 621.034C211.486 621.034 212.02 620.534 212.02 619.92C212.02 619.301 211.486 618.801 210.832 618.801C210.173 618.801 209.639 619.301 209.639 619.92C209.639 620.534 210.173 621.034 210.832 621.034ZM218.478 622.273H216.757V620.182H214.7V622.273H213.461V623.864H214.7V628.716C214.688 630.358 215.882 631.165 217.427 631.119C218.012 631.102 218.416 630.989 218.637 630.915L218.291 629.307C218.177 629.335 217.944 629.386 217.688 629.386C217.171 629.386 216.757 629.205 216.757 628.375V623.864H218.478V622.273ZM220.348 631H222.405V622.273H220.348V631ZM221.382 621.034C222.036 621.034 222.57 620.534 222.57 619.92C222.57 619.301 222.036 618.801 221.382 618.801C220.723 618.801 220.189 619.301 220.189 619.92C220.189 620.534 220.723 621.034 221.382 621.034ZM226.727 625.886C226.727 624.625 227.488 623.898 228.574 623.898C229.636 623.898 230.273 624.597 230.273 625.761V631H232.329V625.443C232.335 623.352 231.142 622.159 229.341 622.159C228.034 622.159 227.136 622.784 226.738 623.756H226.636V622.273H224.67V631H226.727V625.886ZM238.366 634.455C240.724 634.455 242.462 633.375 242.462 631.142V622.273H240.434V623.716H240.32C240.008 623.085 239.354 622.159 237.815 622.159C235.798 622.159 234.212 623.739 234.212 626.608C234.212 629.455 235.798 630.875 237.809 630.875C239.303 630.875 240.002 630.074 240.32 629.432H240.423V631.085C240.423 632.369 239.57 632.898 238.4 632.898C237.161 632.898 236.616 632.312 236.366 631.801L234.513 632.25C234.888 633.472 236.144 634.455 238.366 634.455ZM238.383 629.261C237.025 629.261 236.309 628.205 236.309 626.597C236.309 625.011 237.013 623.847 238.383 623.847C239.707 623.847 240.434 624.943 240.434 626.597C240.434 628.261 239.695 629.261 238.383 629.261Z" fill="black"/>
<rect x="64.0009" y="361" width="263" height="226" rx="5" fill="white"/>
<path d="M89.7736 418.273H91.1373C91.0748 416.517 89.4555 415.205 87.2055 415.205C84.9782 415.205 83.2282 416.5 83.2282 418.455C83.2282 420.023 84.3646 420.955 86.1827 421.477L87.6146 421.886C88.8418 422.227 89.9327 422.659 89.9327 423.818C89.9327 425.091 88.7055 425.932 87.0918 425.932C85.7055 425.932 84.4782 425.318 84.3646 424H82.91C83.0464 425.909 84.5918 427.205 87.0918 427.205C89.7736 427.205 91.2964 425.727 91.2964 423.841C91.2964 421.659 89.2282 420.955 88.0236 420.636L86.8418 420.318C85.9782 420.091 84.5918 419.636 84.5918 418.386C84.5918 417.273 85.6146 416.455 87.16 416.455C88.5691 416.455 89.6373 417.125 89.7736 418.273ZM97.2404 427.182C99.0131 427.182 100.309 426.295 100.718 424.977L99.4222 424.614C99.0813 425.523 98.2915 425.977 97.2404 425.977C95.6665 425.977 94.5813 424.96 94.5188 423.091H100.854V422.523C100.854 419.273 98.9222 418.159 97.104 418.159C94.7404 418.159 93.1722 420.023 93.1722 422.705C93.1722 425.386 94.7177 427.182 97.2404 427.182ZM94.5188 421.932C94.6097 420.574 95.5699 419.364 97.104 419.364C98.5586 419.364 99.4904 420.455 99.4904 421.932H94.5188ZM104.385 415.364H103.044V427H104.385V415.364ZM110.65 427.182C112.423 427.182 113.718 426.295 114.127 424.977L112.832 424.614C112.491 425.523 111.701 425.977 110.65 425.977C109.076 425.977 107.991 424.96 107.928 423.091H114.263V422.523C114.263 419.273 112.332 418.159 110.513 418.159C108.15 418.159 106.582 420.023 106.582 422.705C106.582 425.386 108.127 427.182 110.65 427.182ZM107.928 421.932C108.019 420.574 108.979 419.364 110.513 419.364C111.968 419.364 112.9 420.455 112.9 421.932H107.928ZM119.999 427.182C121.93 427.182 123.203 426 123.43 424.455H122.09C121.84 425.409 121.044 425.977 119.999 425.977C118.408 425.977 117.385 424.659 117.385 422.636C117.385 420.659 118.43 419.364 119.999 419.364C121.18 419.364 121.885 420.091 122.09 420.886H123.43C123.203 419.25 121.817 418.159 119.976 418.159C117.612 418.159 116.044 420.023 116.044 422.682C116.044 425.295 117.544 427.182 119.999 427.182ZM129.336 418.273H127.473V416.182H126.132V418.273H124.813V419.409H126.132V424.864C126.132 426.386 127.359 427.114 128.495 427.114C128.995 427.114 129.313 427.023 129.495 426.955L129.223 425.75C129.109 425.773 128.927 425.818 128.632 425.818C128.041 425.818 127.473 425.636 127.473 424.5V419.409H129.336V418.273ZM138.721 427.205C140.244 427.205 141.04 426.386 141.312 425.818H141.38V427H142.721V421.25C142.721 418.477 140.608 418.159 139.494 418.159C138.176 418.159 136.676 418.614 135.994 420.205L137.267 420.659C137.562 420.023 138.261 419.341 139.54 419.341C140.773 419.341 141.38 419.994 141.38 421.114V421.159C141.38 421.807 140.721 421.75 139.13 421.955C137.511 422.165 135.744 422.523 135.744 424.523C135.744 426.227 137.062 427.205 138.721 427.205ZM138.926 426C137.858 426 137.085 425.523 137.085 424.591C137.085 423.568 138.017 423.25 139.062 423.114C139.63 423.045 141.153 422.886 141.38 422.614V423.841C141.38 424.932 140.517 426 138.926 426ZM153.264 427.182C154.946 427.182 155.514 426.136 155.81 425.659H155.969V427H157.264V415.364H155.923V419.659H155.81C155.514 419.205 154.992 418.159 153.287 418.159C151.082 418.159 149.56 419.909 149.56 422.659C149.56 425.432 151.082 427.182 153.264 427.182ZM153.446 425.977C151.764 425.977 150.901 424.5 150.901 422.636C150.901 420.795 151.742 419.364 153.446 419.364C155.082 419.364 155.946 420.682 155.946 422.636C155.946 424.614 155.06 425.977 153.446 425.977ZM163.715 427.182C165.488 427.182 166.784 426.295 167.193 424.977L165.897 424.614C165.556 425.523 164.767 425.977 163.715 425.977C162.142 425.977 161.056 424.96 160.994 423.091H167.329V422.523C167.329 419.273 165.397 418.159 163.579 418.159C161.215 418.159 159.647 420.023 159.647 422.705C159.647 425.386 161.193 427.182 163.715 427.182ZM160.994 421.932C161.085 420.574 162.045 419.364 163.579 419.364C165.034 419.364 165.965 420.455 165.965 421.932H160.994ZM169.519 430.273H170.86V425.659H170.973C171.269 426.136 171.837 427.182 173.519 427.182C175.701 427.182 177.223 425.432 177.223 422.659C177.223 419.909 175.701 418.159 173.496 418.159C171.792 418.159 171.269 419.205 170.973 419.659H170.814V418.273H169.519V430.273ZM170.837 422.636C170.837 420.682 171.701 419.364 173.337 419.364C175.042 419.364 175.882 420.795 175.882 422.636C175.882 424.5 175.019 425.977 173.337 425.977C171.723 425.977 170.837 424.614 170.837 422.636ZM181.987 427.205C183.51 427.205 184.305 426.386 184.578 425.818H184.646V427H185.987V421.25C185.987 418.477 183.873 418.159 182.76 418.159C181.442 418.159 179.942 418.614 179.26 420.205L180.532 420.659C180.828 420.023 181.527 419.341 182.805 419.341C184.038 419.341 184.646 419.994 184.646 421.114V421.159C184.646 421.807 183.987 421.75 182.396 421.955C180.777 422.165 179.01 422.523 179.01 424.523C179.01 426.227 180.328 427.205 181.987 427.205ZM182.192 426C181.123 426 180.351 425.523 180.351 424.591C180.351 423.568 181.282 423.25 182.328 423.114C182.896 423.045 184.419 422.886 184.646 422.614V423.841C184.646 424.932 183.782 426 182.192 426ZM188.584 427H189.925V421.477C189.925 420.295 190.857 419.432 192.13 419.432C192.488 419.432 192.857 419.5 192.948 419.523V418.159C192.795 418.148 192.442 418.136 192.244 418.136C191.198 418.136 190.289 418.727 189.971 419.591H189.88V418.273H188.584V427ZM199.03 418.273H197.166V416.182H195.825V418.273H194.507V419.409H195.825V424.864C195.825 426.386 197.053 427.114 198.189 427.114C198.689 427.114 199.007 427.023 199.189 426.955L198.916 425.75C198.803 425.773 198.621 425.818 198.325 425.818C197.734 425.818 197.166 425.636 197.166 424.5V419.409H199.03V418.273ZM206.697 423.432C206.697 425.068 205.447 425.818 204.447 425.818C203.333 425.818 202.538 425 202.538 423.727V418.273H201.197V423.818C201.197 426.045 202.379 427.114 204.015 427.114C205.333 427.114 206.197 426.409 206.606 425.523H206.697V427H208.038V418.273H206.697V423.432ZM210.644 427H211.985V421.477C211.985 420.295 212.917 419.432 214.189 419.432C214.547 419.432 214.917 419.5 215.007 419.523V418.159C214.854 418.148 214.502 418.136 214.303 418.136C213.257 418.136 212.348 418.727 212.03 419.591H211.939V418.273H210.644V427ZM220.14 427.182C221.913 427.182 223.209 426.295 223.618 424.977L222.322 424.614C221.981 425.523 221.192 425.977 220.14 425.977C218.567 425.977 217.481 424.96 217.419 423.091H223.754V422.523C223.754 419.273 221.822 418.159 220.004 418.159C217.64 418.159 216.072 420.023 216.072 422.705C216.072 425.386 217.618 427.182 220.14 427.182ZM217.419 421.932C217.51 420.574 218.47 419.364 220.004 419.364C221.459 419.364 222.39 420.455 222.39 421.932H217.419ZM230.594 430.273H231.935V425.659H232.048C232.344 426.136 232.912 427.182 234.594 427.182C236.776 427.182 238.298 425.432 238.298 422.659C238.298 419.909 236.776 418.159 234.571 418.159C232.867 418.159 232.344 419.205 232.048 419.659H231.889V418.273H230.594V430.273ZM231.912 422.636C231.912 420.682 232.776 419.364 234.412 419.364C236.117 419.364 236.957 420.795 236.957 422.636C236.957 424.5 236.094 425.977 234.412 425.977C232.798 425.977 231.912 424.614 231.912 422.636ZM244.039 427.182C246.403 427.182 247.994 425.386 247.994 422.682C247.994 419.955 246.403 418.159 244.039 418.159C241.676 418.159 240.085 419.955 240.085 422.682C240.085 425.386 241.676 427.182 244.039 427.182ZM244.039 425.977C242.244 425.977 241.426 424.432 241.426 422.682C241.426 420.932 242.244 419.364 244.039 419.364C245.835 419.364 246.653 420.932 246.653 422.682C246.653 424.432 245.835 425.977 244.039 425.977ZM250.191 427H251.532V418.273H250.191V427ZM250.873 416.818C251.395 416.818 251.827 416.409 251.827 415.909C251.827 415.409 251.395 415 250.873 415C250.35 415 249.918 415.409 249.918 415.909C249.918 416.409 250.35 416.818 250.873 416.818ZM255.478 421.75C255.478 420.227 256.422 419.364 257.706 419.364C258.95 419.364 259.706 420.176 259.706 421.545V427H261.047V421.455C261.047 419.227 259.859 418.159 258.092 418.159C256.774 418.159 255.956 418.75 255.547 419.636H255.433V418.273H254.138V427H255.478V421.75ZM267.442 418.273H265.579V416.182H264.238V418.273H262.92V419.409H264.238V424.864C264.238 426.386 265.465 427.114 266.601 427.114C267.101 427.114 267.42 427.023 267.601 426.955L267.329 425.75C267.215 425.773 267.033 425.818 266.738 425.818C266.147 425.818 265.579 425.636 265.579 424.5V419.409H267.442V418.273ZM276.828 427.205C278.35 427.205 279.146 426.386 279.419 425.818H279.487V427H280.828V421.25C280.828 418.477 278.714 418.159 277.6 418.159C276.282 418.159 274.782 418.614 274.1 420.205L275.373 420.659C275.669 420.023 276.367 419.341 277.646 419.341C278.879 419.341 279.487 419.994 279.487 421.114V421.159C279.487 421.807 278.828 421.75 277.237 421.955C275.617 422.165 273.85 422.523 273.85 424.523C273.85 426.227 275.169 427.205 276.828 427.205ZM277.032 426C275.964 426 275.191 425.523 275.191 424.591C275.191 423.568 276.123 423.25 277.169 423.114C277.737 423.045 279.259 422.886 279.487 422.614V423.841C279.487 424.932 278.623 426 277.032 426ZM284.766 421.75C284.766 420.227 285.709 419.364 286.993 419.364C288.238 419.364 288.993 420.176 288.993 421.545V427H290.334V421.455C290.334 419.227 289.147 418.159 287.38 418.159C286.061 418.159 285.243 418.75 284.834 419.636H284.721V418.273H283.425V427H284.766V421.75ZM296.23 427.182C297.912 427.182 298.48 426.136 298.775 425.659H298.934V427H300.23V415.364H298.889V419.659H298.775C298.48 419.205 297.957 418.159 296.253 418.159C294.048 418.159 292.525 419.909 292.525 422.659C292.525 425.432 294.048 427.182 296.23 427.182ZM296.412 425.977C294.73 425.977 293.866 424.5 293.866 422.636C293.866 420.795 294.707 419.364 296.412 419.364C298.048 419.364 298.912 420.682 298.912 422.636C298.912 424.614 298.025 425.977 296.412 425.977ZM85.7964 447.205C87.3191 447.205 88.1146 446.386 88.3873 445.818H88.4555V447H89.7964V441.25C89.7964 438.477 87.6827 438.159 86.5691 438.159C85.2509 438.159 83.7509 438.614 83.0691 440.205L84.3418 440.659C84.6373 440.023 85.3361 439.341 86.6146 439.341C87.8475 439.341 88.4555 439.994 88.4555 441.114V441.159C88.4555 441.807 87.7964 441.75 86.2055 441.955C84.5861 442.165 82.8191 442.523 82.8191 444.523C82.8191 446.227 84.1373 447.205 85.7964 447.205ZM86.0009 446C84.9327 446 84.16 445.523 84.16 444.591C84.16 443.568 85.0918 443.25 86.1373 443.114C86.7055 443.045 88.2282 442.886 88.4555 442.614V443.841C88.4555 444.932 87.5918 446 86.0009 446ZM93.7347 441.75C93.7347 440.227 94.6779 439.364 95.962 439.364C97.2063 439.364 97.962 440.176 97.962 441.545V447H99.3029V441.455C99.3029 439.227 98.1154 438.159 96.3484 438.159C95.0302 438.159 94.212 438.75 93.8029 439.636H93.6893V438.273H92.3938V447H93.7347V441.75ZM109.121 447.205C110.644 447.205 111.44 446.386 111.712 445.818H111.78V447H113.121V441.25C113.121 438.477 111.008 438.159 109.894 438.159C108.576 438.159 107.076 438.614 106.394 440.205L107.667 440.659C107.962 440.023 108.661 439.341 109.94 439.341C111.173 439.341 111.78 439.994 111.78 441.114V441.159C111.78 441.807 111.121 441.75 109.53 441.955C107.911 442.165 106.144 442.523 106.144 444.523C106.144 446.227 107.462 447.205 109.121 447.205ZM109.326 446C108.258 446 107.485 445.523 107.485 444.591C107.485 443.568 108.417 443.25 109.462 443.114C110.03 443.045 111.553 442.886 111.78 442.614V443.841C111.78 444.932 110.917 446 109.326 446ZM115.719 447H117.06V441.477C117.06 440.295 117.992 439.432 119.264 439.432C119.622 439.432 119.992 439.5 120.082 439.523V438.159C119.929 438.148 119.577 438.136 119.378 438.136C118.332 438.136 117.423 438.727 117.105 439.591H117.014V438.273H115.719V447ZM121.822 447H123.163V441.477C123.163 440.295 124.095 439.432 125.367 439.432C125.725 439.432 126.095 439.5 126.186 439.523V438.159C126.032 438.148 125.68 438.136 125.481 438.136C124.436 438.136 123.526 438.727 123.208 439.591H123.117V438.273H121.822V447ZM127.925 447H129.266V438.273H127.925V447ZM128.607 436.818C129.13 436.818 129.561 436.409 129.561 435.909C129.561 435.409 129.13 435 128.607 435C128.084 435 127.652 435.409 127.652 435.909C127.652 436.409 128.084 436.818 128.607 436.818ZM139.008 438.273H137.554L135.145 445.227H135.054L132.645 438.273H131.19L134.417 447H135.781L139.008 438.273ZM143.231 447.205C144.753 447.205 145.549 446.386 145.822 445.818H145.89V447H147.231V441.25C147.231 438.477 145.117 438.159 144.003 438.159C142.685 438.159 141.185 438.614 140.503 440.205L141.776 440.659C142.072 440.023 142.771 439.341 144.049 439.341C145.282 439.341 145.89 439.994 145.89 441.114V441.159C145.89 441.807 145.231 441.75 143.64 441.955C142.021 442.165 140.253 442.523 140.253 444.523C140.253 446.227 141.572 447.205 143.231 447.205ZM143.435 446C142.367 446 141.594 445.523 141.594 444.591C141.594 443.568 142.526 443.25 143.572 443.114C144.14 443.045 145.663 442.886 145.89 442.614V443.841C145.89 444.932 145.026 446 143.435 446ZM151.169 435.364H149.828V447H151.169V435.364ZM158.425 450.273H159.766V445.659H159.88C160.175 446.136 160.743 447.182 162.425 447.182C164.607 447.182 166.13 445.432 166.13 442.659C166.13 439.909 164.607 438.159 162.402 438.159C160.698 438.159 160.175 439.205 159.88 439.659H159.721V438.273H158.425V450.273ZM159.743 442.636C159.743 440.682 160.607 439.364 162.243 439.364C163.948 439.364 164.789 440.795 164.789 442.636C164.789 444.5 163.925 445.977 162.243 445.977C160.63 445.977 159.743 444.614 159.743 442.636ZM171.871 447.182C174.234 447.182 175.825 445.386 175.825 442.682C175.825 439.955 174.234 438.159 171.871 438.159C169.507 438.159 167.916 439.955 167.916 442.682C167.916 445.386 169.507 447.182 171.871 447.182ZM171.871 445.977C170.075 445.977 169.257 444.432 169.257 442.682C169.257 440.932 170.075 439.364 171.871 439.364C173.666 439.364 174.484 440.932 174.484 442.682C174.484 444.432 173.666 445.977 171.871 445.977ZM178.022 447H179.363V438.273H178.022V447ZM178.704 436.818C179.226 436.818 179.658 436.409 179.658 435.909C179.658 435.409 179.226 435 178.704 435C178.181 435 177.749 435.409 177.749 435.909C177.749 436.409 178.181 436.818 178.704 436.818ZM183.31 441.75C183.31 440.227 184.253 439.364 185.537 439.364C186.781 439.364 187.537 440.176 187.537 441.545V447H188.878V441.455C188.878 439.227 187.69 438.159 185.923 438.159C184.605 438.159 183.787 438.75 183.378 439.636H183.264V438.273H181.969V447H183.31V441.75ZM195.274 438.273H193.41V436.182H192.069V438.273H190.751V439.409H192.069V444.864C192.069 446.386 193.296 447.114 194.433 447.114C194.933 447.114 195.251 447.023 195.433 446.955L195.16 445.75C195.046 445.773 194.865 445.818 194.569 445.818C193.978 445.818 193.41 445.636 193.41 444.5V439.409H195.274V438.273Z" fill="#2C2C2C"/>
<path d="M112.234 394H113.467V389.446H117.882V388.352H113.467V384.912H118.339V383.818H112.234V394ZM122.983 394.159C125.051 394.159 126.444 392.588 126.444 390.222C126.444 387.835 125.051 386.264 122.983 386.264C120.915 386.264 119.523 387.835 119.523 390.222C119.523 392.588 120.915 394.159 122.983 394.159ZM122.983 393.105C121.412 393.105 120.696 391.753 120.696 390.222C120.696 388.69 121.412 387.318 122.983 387.318C124.554 387.318 125.27 388.69 125.27 390.222C125.27 391.753 124.554 393.105 122.983 393.105ZM128.385 394H129.558V389.168C129.558 388.134 130.373 387.378 131.487 387.378C131.8 387.378 132.123 387.438 132.203 387.457V386.264C132.068 386.254 131.76 386.244 131.586 386.244C130.671 386.244 129.876 386.761 129.598 387.517H129.518V386.364H128.385V394ZM136.713 394.159C138.264 394.159 139.397 393.384 139.755 392.23L138.622 391.912C138.324 392.707 137.633 393.105 136.713 393.105C135.336 393.105 134.386 392.215 134.331 390.58H139.875V390.082C139.875 387.239 138.184 386.264 136.593 386.264C134.525 386.264 133.153 387.895 133.153 390.241C133.153 392.588 134.505 394.159 136.713 394.159ZM134.331 389.565C134.411 388.377 135.251 387.318 136.593 387.318C137.866 387.318 138.682 388.273 138.682 389.565H134.331ZM144.912 394.159C146.602 394.159 147.716 393.125 147.915 391.773H146.741C146.523 392.608 145.827 393.105 144.912 393.105C143.52 393.105 142.625 391.952 142.625 390.182C142.625 388.452 143.54 387.318 144.912 387.318C145.946 387.318 146.562 387.955 146.741 388.651H147.915C147.716 387.219 146.503 386.264 144.892 386.264C142.824 386.264 141.452 387.895 141.452 390.222C141.452 392.509 142.764 394.159 144.912 394.159ZM152.027 394.179C153.359 394.179 154.055 393.463 154.294 392.966H154.354V394H155.527V388.969C155.527 386.543 153.678 386.264 152.703 386.264C151.55 386.264 150.237 386.662 149.641 388.054L150.754 388.452C151.013 387.895 151.624 387.298 152.743 387.298C153.822 387.298 154.354 387.87 154.354 388.849V388.889C154.354 389.456 153.777 389.406 152.385 389.585C150.968 389.769 149.422 390.082 149.422 391.832C149.422 393.324 150.575 394.179 152.027 394.179ZM152.206 393.125C151.271 393.125 150.595 392.707 150.595 391.892C150.595 390.997 151.411 390.719 152.325 390.599C152.822 390.54 154.155 390.401 154.354 390.162V391.236C154.354 392.19 153.598 393.125 152.206 393.125ZM163.228 388.074C162.86 386.99 162.034 386.264 160.523 386.264C158.912 386.264 157.719 387.179 157.719 388.472C157.719 389.526 158.346 390.232 159.748 390.56L161.02 390.858C161.791 391.037 162.154 391.405 162.154 391.932C162.154 392.588 161.458 393.125 160.364 393.125C159.404 393.125 158.803 392.712 158.594 391.892L157.48 392.17C157.754 393.468 158.823 394.159 160.384 394.159C162.159 394.159 163.367 393.19 163.367 391.872C163.367 390.808 162.701 390.137 161.338 389.804L160.205 389.526C159.3 389.302 158.892 388.999 158.892 388.412C158.892 387.756 159.588 387.278 160.523 387.278C161.547 387.278 161.97 387.845 162.174 388.372L163.228 388.074ZM168.604 386.364H166.973V384.534H165.8V386.364H164.647V387.358H165.8V392.131C165.8 393.463 166.874 394.099 167.868 394.099C168.306 394.099 168.584 394.02 168.743 393.96L168.505 392.906C168.405 392.926 168.246 392.966 167.988 392.966C167.47 392.966 166.973 392.807 166.973 391.812V387.358H168.604V386.364ZM178.007 386.364H176.297V385.588C176.297 384.832 176.615 384.435 177.391 384.435C177.729 384.435 177.927 384.514 178.047 384.554L178.385 383.54C178.206 383.46 177.848 383.341 177.271 383.341C176.177 383.341 175.123 383.997 175.123 385.31V386.364H173.891V387.358H175.123V394H176.297V387.358H178.007V386.364ZM182.589 394.159C184.657 394.159 186.049 392.588 186.049 390.222C186.049 387.835 184.657 386.264 182.589 386.264C180.521 386.264 179.129 387.835 179.129 390.222C179.129 392.588 180.521 394.159 182.589 394.159ZM182.589 393.105C181.018 393.105 180.302 391.753 180.302 390.222C180.302 388.69 181.018 387.318 182.589 387.318C184.16 387.318 184.876 388.69 184.876 390.222C184.876 391.753 184.16 393.105 182.589 393.105ZM187.99 394H189.164V389.168C189.164 388.134 189.979 387.378 191.093 387.378C191.406 387.378 191.729 387.438 191.809 387.457V386.264C191.674 386.254 191.366 386.244 191.192 386.244C190.277 386.244 189.482 386.761 189.203 387.517H189.124V386.364H187.99V394ZM200.758 386.364H199.127V384.534H197.954V386.364H196.801V387.358H197.954V392.131C197.954 393.463 199.028 394.099 200.022 394.099C200.46 394.099 200.738 394.02 200.897 393.96L200.658 392.906C200.559 392.926 200.4 392.966 200.141 392.966C199.624 392.966 199.127 392.807 199.127 391.812V387.358H200.758V386.364ZM202.673 394H203.846V389.168C203.846 388.134 204.661 387.378 205.775 387.378C206.088 387.378 206.411 387.438 206.491 387.457V386.264C206.357 386.254 206.049 386.244 205.875 386.244C204.96 386.244 204.164 386.761 203.886 387.517H203.806V386.364H202.673V394ZM208.032 394H209.205V386.364H208.032V394ZM208.628 385.091C209.086 385.091 209.464 384.733 209.464 384.295C209.464 383.858 209.086 383.5 208.628 383.5C208.171 383.5 207.793 383.858 207.793 384.295C207.793 384.733 208.171 385.091 208.628 385.091ZM211.504 396.864H212.677V392.827H212.777C213.035 393.244 213.532 394.159 215.004 394.159C216.913 394.159 218.246 392.628 218.246 390.202C218.246 387.795 216.913 386.264 214.984 386.264C213.493 386.264 213.035 387.179 212.777 387.577H212.638V386.364H211.504V396.864ZM212.657 390.182C212.657 388.472 213.413 387.318 214.845 387.318C216.336 387.318 217.072 388.571 217.072 390.182C217.072 391.812 216.317 393.105 214.845 393.105C213.433 393.105 212.657 391.912 212.657 390.182Z" fill="url(#paint7_linear)"/>
<path d="M64.0009 579H327.001V582C327.001 584.761 324.762 587 322.001 587H69.0009C66.2395 587 64.0009 584.761 64.0009 582V579Z" fill="#D3DDE7"/>
<rect x="85.5009" y="383.5" width="13" height="13" stroke="url(#paint8_linear)"/>
<path d="M92.6009 392.6L88.4009 388.4L87.0009 389.8L92.6009 395.4L104.601 383.4L103.201 382L92.6009 392.6Z" fill="url(#paint9_linear)"/>
<path d="M99.0009 519C95.1309 519 92.0009 522.13 92.0009 526C92.0009 531.25 99.0009 539 99.0009 539C99.0009 539 106.001 531.25 106.001 526C106.001 522.13 102.871 519 99.0009 519ZM99.0009 528.5C97.6209 528.5 96.5009 527.38 96.5009 526C96.5009 524.62 97.6209 523.5 99.0009 523.5C100.381 523.5 101.501 524.62 101.501 526C101.501 527.38 100.381 528.5 99.0009 528.5Z" fill="url(#paint10_linear)"/>
<rect x="119.501" y="472.5" width="165" height="30" rx="4.5" stroke="url(#paint11_linear)"/>
<rect x="119.501" y="513.5" width="165" height="30" rx="4.5" stroke="url(#paint12_linear)"/>
<path d="M300.001 502.99L296.001 499L292.001 502.99L295.001 502.99L295.001 510L297.001 510L297.001 502.99L300.001 502.99ZM302.001 517L306.001 513.01L303.001 513.01L303.001 506L301.001 506L301.001 513.01L298.001 513.01L302.001 517Z" fill="url(#paint13_linear)"/>
<circle cx="99.0009" cy="488" r="4" fill="#D3DDE7"/>
<circle cx="99.0009" cy="488" r="6.5" stroke="url(#paint14_linear)"/>
<path d="M101.001 514.5C101.001 513.47 100.381 512.6 99.5009 512.21L99.5009 509.29C100.381 508.9 101.001 508.03 101.001 507C101.001 505.97 100.381 505.1 99.5009 504.71L99.5009 501.79C100.381 501.4 101.001 500.53 101.001 499.5C101.001 498.12 99.8809 497 98.5009 497C97.1209 497 96.0009 498.12 96.0009 499.5C96.0009 500.53 96.6209 501.4 97.5009 501.79L97.5009 504.71C96.6209 505.1 96.0009 505.97 96.0009 507C96.0009 508.03 96.6209 508.9 97.5009 509.29L97.5009 512.21C96.6209 512.6 96.0009 513.47 96.0009 514.5C96.0009 515.88 97.1209 517 98.5009 517C99.8809 517 101.001 515.88 101.001 514.5Z" fill="url(#paint15_linear)"/>
<path d="M134.001 493C137.546 493 139.546 490.795 139.546 487.159C139.546 483.545 137.546 481.364 134.16 481.364H130.41V493H134.001ZM131.819 491.75V482.614H134.069C136.796 482.614 138.183 484.341 138.183 487.159C138.183 490 136.796 491.75 133.91 491.75H131.819ZM145.537 493.182C147.31 493.182 148.605 492.295 149.015 490.977L147.719 490.614C147.378 491.523 146.588 491.977 145.537 491.977C143.963 491.977 142.878 490.96 142.816 489.091H149.151V488.523C149.151 485.273 147.219 484.159 145.401 484.159C143.037 484.159 141.469 486.023 141.469 488.705C141.469 491.386 143.015 493.182 145.537 493.182ZM142.816 487.932C142.907 486.574 143.867 485.364 145.401 485.364C146.855 485.364 147.787 486.455 147.787 487.932H142.816ZM151.341 496.273H152.682V491.659H152.795C153.091 492.136 153.659 493.182 155.341 493.182C157.523 493.182 159.045 491.432 159.045 488.659C159.045 485.909 157.523 484.159 155.318 484.159C153.613 484.159 153.091 485.205 152.795 485.659H152.636V484.273H151.341V496.273ZM152.659 488.636C152.659 486.682 153.523 485.364 155.159 485.364C156.863 485.364 157.704 486.795 157.704 488.636C157.704 490.5 156.841 491.977 155.159 491.977C153.545 491.977 152.659 490.614 152.659 488.636ZM163.809 493.205C165.332 493.205 166.127 492.386 166.4 491.818H166.468V493H167.809V487.25C167.809 484.477 165.695 484.159 164.582 484.159C163.263 484.159 161.763 484.614 161.082 486.205L162.354 486.659C162.65 486.023 163.349 485.341 164.627 485.341C165.86 485.341 166.468 485.994 166.468 487.114V487.159C166.468 487.807 165.809 487.75 164.218 487.955C162.599 488.165 160.832 488.523 160.832 490.523C160.832 492.227 162.15 493.205 163.809 493.205ZM164.013 492C162.945 492 162.173 491.523 162.173 490.591C162.173 489.568 163.104 489.25 164.15 489.114C164.718 489.045 166.241 488.886 166.468 488.614V489.841C166.468 490.932 165.604 492 164.013 492ZM170.406 493H171.747V487.477C171.747 486.295 172.679 485.432 173.952 485.432C174.31 485.432 174.679 485.5 174.77 485.523V484.159C174.617 484.148 174.264 484.136 174.065 484.136C173.02 484.136 172.111 484.727 171.793 485.591H171.702V484.273H170.406V493ZM180.852 484.273H178.988V482.182H177.647V484.273H176.329V485.409H177.647V490.864C177.647 492.386 178.874 493.114 180.011 493.114C180.511 493.114 180.829 493.023 181.011 492.955L180.738 491.75C180.624 491.773 180.443 491.818 180.147 491.818C179.556 491.818 178.988 491.636 178.988 490.5V485.409H180.852V484.273ZM188.519 489.432C188.519 491.068 187.269 491.818 186.269 491.818C185.155 491.818 184.36 491 184.36 489.727V484.273H183.019V489.818C183.019 492.045 184.201 493.114 185.837 493.114C187.155 493.114 188.019 492.409 188.428 491.523H188.519V493H189.86V484.273H188.519V489.432ZM192.466 493H193.807V487.477C193.807 486.295 194.738 485.432 196.011 485.432C196.369 485.432 196.738 485.5 196.829 485.523V484.159C196.676 484.148 196.324 484.136 196.125 484.136C195.079 484.136 194.17 484.727 193.852 485.591H193.761V484.273H192.466V493ZM201.962 493.182C203.735 493.182 205.03 492.295 205.44 490.977L204.144 490.614C203.803 491.523 203.013 491.977 201.962 491.977C200.388 491.977 199.303 490.96 199.241 489.091H205.576V488.523C205.576 485.273 203.644 484.159 201.826 484.159C199.462 484.159 197.894 486.023 197.894 488.705C197.894 491.386 199.44 493.182 201.962 493.182ZM199.241 487.932C199.332 486.574 200.292 485.364 201.826 485.364C203.28 485.364 204.212 486.455 204.212 487.932H199.241ZM212.416 496.273H213.757V491.659H213.87C214.166 492.136 214.734 493.182 216.416 493.182C218.598 493.182 220.12 491.432 220.12 488.659C220.12 485.909 218.598 484.159 216.393 484.159C214.688 484.159 214.166 485.205 213.87 485.659H213.711V484.273H212.416V496.273ZM213.734 488.636C213.734 486.682 214.598 485.364 216.234 485.364C217.938 485.364 218.779 486.795 218.779 488.636C218.779 490.5 217.916 491.977 216.234 491.977C214.62 491.977 213.734 490.614 213.734 488.636ZM225.861 493.182C228.225 493.182 229.816 491.386 229.816 488.682C229.816 485.955 228.225 484.159 225.861 484.159C223.498 484.159 221.907 485.955 221.907 488.682C221.907 491.386 223.498 493.182 225.861 493.182ZM225.861 491.977C224.066 491.977 223.248 490.432 223.248 488.682C223.248 486.932 224.066 485.364 225.861 485.364C227.657 485.364 228.475 486.932 228.475 488.682C228.475 490.432 227.657 491.977 225.861 491.977ZM232.013 493H233.353V484.273H232.013V493ZM232.694 482.818C233.217 482.818 233.649 482.409 233.649 481.909C233.649 481.409 233.217 481 232.694 481C232.172 481 231.74 481.409 231.74 481.909C231.74 482.409 232.172 482.818 232.694 482.818ZM237.3 487.75C237.3 486.227 238.244 485.364 239.528 485.364C240.772 485.364 241.528 486.176 241.528 487.545V493H242.869V487.455C242.869 485.227 241.681 484.159 239.914 484.159C238.596 484.159 237.778 484.75 237.369 485.636H237.255V484.273H235.959V493H237.3V487.75ZM249.264 484.273H247.401V482.182H246.06V484.273H244.742V485.409H246.06V490.864C246.06 492.386 247.287 493.114 248.423 493.114C248.923 493.114 249.242 493.023 249.423 492.955L249.151 491.75C249.037 491.773 248.855 491.818 248.56 491.818C247.969 491.818 247.401 491.636 247.401 490.5V485.409H249.264V484.273Z" fill="url(#paint16_linear)"/>
<path d="M130.887 535L132.058 531.705H136.762L137.933 535H139.41L135.137 523.364H133.683L129.41 535H130.887ZM132.501 530.455L134.365 525.205H134.455L136.319 530.455H132.501ZM141.191 535H142.532V529.477C142.532 528.295 143.463 527.432 144.736 527.432C145.094 527.432 145.463 527.5 145.554 527.523V526.159C145.401 526.148 145.049 526.136 144.85 526.136C143.804 526.136 142.895 526.727 142.577 527.591H142.486V526.273H141.191V535ZM147.294 535H148.635V529.477C148.635 528.295 149.567 527.432 150.839 527.432C151.197 527.432 151.567 527.5 151.657 527.523V526.159C151.504 526.148 151.152 526.136 150.953 526.136C149.907 526.136 148.998 526.727 148.68 527.591H148.589V526.273H147.294V535ZM153.397 535H154.738V526.273H153.397V535ZM154.079 524.818C154.601 524.818 155.033 524.409 155.033 523.909C155.033 523.409 154.601 523 154.079 523C153.556 523 153.124 523.409 153.124 523.909C153.124 524.409 153.556 524.818 154.079 524.818ZM164.48 526.273H163.026L160.617 533.227H160.526L158.117 526.273H156.662L159.889 535H161.253L164.48 526.273ZM168.703 535.205C170.225 535.205 171.021 534.386 171.294 533.818H171.362V535H172.703V529.25C172.703 526.477 170.589 526.159 169.475 526.159C168.157 526.159 166.657 526.614 165.975 528.205L167.248 528.659C167.544 528.023 168.242 527.341 169.521 527.341C170.754 527.341 171.362 527.994 171.362 529.114V529.159C171.362 529.807 170.703 529.75 169.112 529.955C167.492 530.165 165.725 530.523 165.725 532.523C165.725 534.227 167.044 535.205 168.703 535.205ZM168.907 534C167.839 534 167.066 533.523 167.066 532.591C167.066 531.568 167.998 531.25 169.044 531.114C169.612 531.045 171.134 530.886 171.362 530.614V531.841C171.362 532.932 170.498 534 168.907 534ZM176.641 523.364H175.3V535H176.641V523.364ZM183.897 538.273H185.238V533.659H185.351C185.647 534.136 186.215 535.182 187.897 535.182C190.079 535.182 191.601 533.432 191.601 530.659C191.601 527.909 190.079 526.159 187.874 526.159C186.17 526.159 185.647 527.205 185.351 527.659H185.192V526.273H183.897V538.273ZM185.215 530.636C185.215 528.682 186.079 527.364 187.715 527.364C189.42 527.364 190.261 528.795 190.261 530.636C190.261 532.5 189.397 533.977 187.715 533.977C186.101 533.977 185.215 532.614 185.215 530.636ZM197.342 535.182C199.706 535.182 201.297 533.386 201.297 530.682C201.297 527.955 199.706 526.159 197.342 526.159C194.979 526.159 193.388 527.955 193.388 530.682C193.388 533.386 194.979 535.182 197.342 535.182ZM197.342 533.977C195.547 533.977 194.729 532.432 194.729 530.682C194.729 528.932 195.547 527.364 197.342 527.364C199.138 527.364 199.956 528.932 199.956 530.682C199.956 532.432 199.138 533.977 197.342 533.977ZM203.494 535H204.835V526.273H203.494V535ZM204.176 524.818C204.698 524.818 205.13 524.409 205.13 523.909C205.13 523.409 204.698 523 204.176 523C203.653 523 203.221 523.409 203.221 523.909C203.221 524.409 203.653 524.818 204.176 524.818ZM208.782 529.75C208.782 528.227 209.725 527.364 211.009 527.364C212.253 527.364 213.009 528.176 213.009 529.545V535H214.35V529.455C214.35 527.227 213.162 526.159 211.395 526.159C210.077 526.159 209.259 526.75 208.85 527.636H208.736V526.273H207.441V535H208.782V529.75ZM220.746 526.273H218.882V524.182H217.541V526.273H216.223V527.409H217.541V532.864C217.541 534.386 218.768 535.114 219.905 535.114C220.405 535.114 220.723 535.023 220.905 534.955L220.632 533.75C220.518 533.773 220.336 533.818 220.041 533.818C219.45 533.818 218.882 533.636 218.882 532.5V527.409H220.746V526.273Z" fill="url(#paint17_linear)"/>
</g>
<rect opacity="0.4" x="165.215" y="34.0684" width="67.2161" height="6.25266" rx="1.73696" fill="#D3DDE7"/>
<rect opacity="0.5" x="243.373" y="30.1611" width="14.0685" height="14.0685" rx="4.77664" fill="#E7EDF3"/>
<rect opacity="0.5" x="246.499" y="33.2881" width="7.81582" height="7.81582" rx="3.90791" fill="white"/>
<rect opacity="0.5" x="127.699" y="34.0684" width="6.25266" height="6.25266" rx="1.73696" fill="#D3DDE7"/>
</g>
<defs>
<filter id="filter0_d" x="0" y="0" width="391" height="722.781" filterUnits="userSpaceOnUse" color-interpolation-filters="sRGB">
<feFlood flood-opacity="0" result="BackgroundImageFix"/>
<feColorMatrix in="SourceAlpha" type="matrix" values="0 0 0 0 0 0 0 0 0 0 0 0 0 0 0 0 0 0 127 0" result="hardAlpha"/>
<feOffset dy="10"/>
<feGaussianBlur stdDeviation="15"/>
<feColorMatrix type="matrix" values="0 0 0 0 0.0207639 0 0 0 0 0.0756167 0 0 0 0 0.216667 0 0 0 0.1 0"/>
<feBlend mode="normal" in2="BackgroundImageFix" result="effect1_dropShadow"/>
<feBlend mode="normal" in="SourceGraphic" in2="effect1_dropShadow" result="shape"/>
</filter>
<linearGradient id="paint0_linear" x1="81.0009" y1="86.2518" x2="128.4" y2="131.074" gradientUnits="userSpaceOnUse">
<stop stop-color="#0043EF"/>
<stop offset="1" stop-color="#033DD2"/>
</linearGradient>
<linearGradient id="paint1_linear" x1="84.0009" y1="159.626" x2="100.958" y2="166.752" gradientUnits="userSpaceOnUse">
<stop stop-color="#0043EF"/>
<stop offset="1" stop-color="#033DD2"/>
</linearGradient>
<linearGradient id="paint2_linear" x1="84.0009" y1="189.626" x2="100.958" y2="196.752" gradientUnits="userSpaceOnUse">
<stop stop-color="#0043EF"/>
<stop offset="1" stop-color="#033DD2"/>
</linearGradient>
<linearGradient id="paint3_linear" x1="84.0009" y1="215.626" x2="100.958" y2="222.752" gradientUnits="userSpaceOnUse">
<stop stop-color="#0043EF"/>
<stop offset="1" stop-color="#033DD2"/>
</linearGradient>
<linearGradient id="paint4_linear" x1="84.0009" y1="242.626" x2="100.958" y2="249.752" gradientUnits="userSpaceOnUse">
<stop stop-color="#0043EF"/>
<stop offset="1" stop-color="#033DD2"/>
</linearGradient>
<linearGradient id="paint5_linear" x1="84.0009" y1="272.626" x2="100.958" y2="279.752" gradientUnits="userSpaceOnUse">
<stop stop-color="#0043EF"/>
<stop offset="1" stop-color="#033DD2"/>
</linearGradient>
<linearGradient id="paint6_linear" x1="84.0009" y1="299.626" x2="100.958" y2="306.752" gradientUnits="userSpaceOnUse">
<stop stop-color="#0043EF"/>
<stop offset="1" stop-color="#033DD2"/>
</linearGradient>
<linearGradient id="paint7_linear" x1="111.001" y1="372.252" x2="153.427" y2="441.027" gradientUnits="userSpaceOnUse">
<stop stop-color="#0043EF"/>
<stop offset="1" stop-color="#033DD2"/>
</linearGradient>
<linearGradient id="paint8_linear" x1="85.0009" y1="381.626" x2="101.958" y2="388.752" gradientUnits="userSpaceOnUse">
<stop stop-color="#0043EF"/>
<stop offset="1" stop-color="#033DD2"/>
</linearGradient>
<linearGradient id="paint9_linear" x1="87.0009" y1="380.685" x2="106.226" y2="391.297" gradientUnits="userSpaceOnUse">
<stop stop-color="#0043EF"/>
<stop offset="1" stop-color="#033DD2"/>
</linearGradient>
<linearGradient id="paint10_linear" x1="92.0009" y1="517.037" x2="110.364" y2="522.439" gradientUnits="userSpaceOnUse">
<stop stop-color="#0043EF"/>
<stop offset="1" stop-color="#033DD2"/>
</linearGradient>
<linearGradient id="paint11_linear" x1="119.001" y1="468.957" x2="158.009" y2="556.745" gradientUnits="userSpaceOnUse">
<stop stop-color="#0043EF"/>
<stop offset="1" stop-color="#033DD2"/>
</linearGradient>
<linearGradient id="paint12_linear" x1="119.001" y1="509.957" x2="158.009" y2="597.745" gradientUnits="userSpaceOnUse">
<stop stop-color="#0043EF"/>
<stop offset="1" stop-color="#033DD2"/>
</linearGradient>
<linearGradient id="paint13_linear" x1="307.375" y1="499" x2="296.646" y2="518.855" gradientUnits="userSpaceOnUse">
<stop stop-color="#0043EF"/>
<stop offset="1" stop-color="#033DD2"/>
</linearGradient>
<linearGradient id="paint14_linear" x1="92.0009" y1="479.626" x2="108.958" y2="486.752" gradientUnits="userSpaceOnUse">
<stop stop-color="#0043EF"/>
<stop offset="1" stop-color="#033DD2"/>
</linearGradient>
<linearGradient id="paint15_linear" x1="101.492" y1="497" x2="88.9682" y2="504.45" gradientUnits="userSpaceOnUse">
<stop stop-color="#0043EF"/>
<stop offset="1" stop-color="#033DD2"/>
</linearGradient>
<linearGradient id="paint16_linear" x1="129.001" y1="475.037" x2="151.962" y2="533.9" gradientUnits="userSpaceOnUse">
<stop stop-color="#0043EF"/>
<stop offset="1" stop-color="#033DD2"/>
</linearGradient>
<linearGradient id="paint17_linear" x1="129.001" y1="517.037" x2="156.503" y2="570.784" gradientUnits="userSpaceOnUse">
<stop stop-color="#0043EF"/>
<stop offset="1" stop-color="#033DD2"/>
</linearGradient>
</defs>
</svg>
