<svg xmlns="http://www.w3.org/2000/svg" viewBox="0 0 500 500"><defs><style>.cls-1{fill:#eef3f6;}.cls-2,.cls-4{fill:#008236;}.cls-3{fill:#fff;}.cls-3,.cls-4,.cls-5,.cls-6{stroke:#3d3d3d;stroke-miterlimit:10;}.cls-5{fill:none;}.cls-6{fill:#424242;}</style></defs><title>Artboard 1 copia</title><g id="Background_Simple" data-name="Background Simple"><path class="cls-1" d="M405,136.51S355,62.05,246,59.07c-56.52-1.54-111.92,21.74-151.85,61.17C50,163.85,34,225.24,30.25,285.52c-2.06,33.69.8,69.06,18.14,98.09,12.48,20.9,31.75,37.17,52.82,49.55C148,460.66,203.54,479.14,258,481c145,5,214-99.28,215-161.82S431,252.66,425,204,418,162.32,405,136.51Z"/></g><g id="Plants"><path class="cls-2" d="M405.58,399.3c2.18-.81,4.74-2.44,5.46-4.79a4.13,4.13,0,0,0-3-5.37c-3.42-.68-8,3.7-9.46,6.43-.13.23-1.75,4.16-1.69,4.16S403,400.24,405.58,399.3Z"/><path class="cls-2" d="M437.53,373.33c1.78,2.2,3.58,4.35,5.46,6.38.83.85,1.62,1.78,2.46,2.56l2.48,2.38,2.87,2.56c.46-.75.93-1.51,1.37-2.26l-2.51-2.15-2.52-2.32c-.87-.78-1.61-1.62-2.44-2.43-1.18-1.22-2.34-2.54-3.49-3.85,1.47-1.6,5.7-6.38,6.73-9.41s1.55-7.43-.41-10.33A5.89,5.89,0,0,0,438.9,353c-3.81,3.19-3,12.12-1.34,16.23.06.13.5,1,1,1.94-1.09-1.31-2.18-2.62-3.24-4-3-3.89-6-7.94-8.93-12l-1.87-2.52c1.24-1.34,5.87-6.47,7-9.65s1.55-7.43-.42-10.33a5.88,5.88,0,0,0-8.62-1.48c-3.81,3.19-3,12.11-1.34,16.22.06.15.59,1.14,1.19,2.25-1.64-2.18-3.31-4.33-5-6.41a104.47,104.47,0,0,0-9.48-10.15c.44-.46,6-6.37,7.19-9.9,1.07-3.14,1.56-7.43-.41-10.34a5.88,5.88,0,0,0-8.62-1.48c-3.81,3.19-3,12.11-1.34,16.23.12.29,2.06,3.86,2.8,5.12l-.12-.12a76.7,76.7,0,0,0-10.94-8.12,102.46,102.46,0,0,0-10.72-5.8c-3.39-1.64-6.6-2.93-9.45-4.05-1.55-.59-3-1.1-4.31-1.57L372,313c.08,0-4.33-4.17-4.64-4.39-3.56-2.65-12-5.65-16-2.76a5.88,5.88,0,0,0-.72,8.72c2.32,2.63,6.6,3.23,9.9,3s9.61-3.52,11.15-4.35c1.37.51,2.84,1.07,4.45,1.72,2.82,1.18,6,2.53,9.34,4.24.89.45,1.83,1,2.75,1.46-1.72-.5-4.1-1.16-4.34-1.2-4.38-.7-13.25.52-15.51,4.95a5.88,5.88,0,0,0,3.38,8.07c3.27,1.26,7.35-.17,10.16-1.92s7-7.74,7.92-9c2,1.12,4.08,2.31,6.15,3.68a76,76,0,0,1,10.63,8.25c.19.18.37.39.55.57-.81-.39-5.41-2.25-5.74-2.34-4.28-1.18-13.23-.94-16,3.21a5.89,5.89,0,0,0,2.47,8.4c3.11,1.61,7.32.63,10.31-.79,3.45-1.64,8.85-8.1,9.05-8.35a104.32,104.32,0,0,1,8.94,10c2.06,2.6,4,5.32,6,8.07-1.07-.49-5.34-2.21-5.67-2.3-4.27-1.18-13.23-.94-15.95,3.21A5.87,5.87,0,0,0,403,361.5c3.11,1.62,7.32.64,10.31-.78,3.36-1.6,8.56-7.77,9-8.29.89,1.25,1.78,2.49,2.66,3.75,2.88,4.1,5.75,8.23,8.7,12.22,1,1.38,2.08,2.71,3.14,4-1.62-.69-4.6-1.88-4.86-1.95-4.28-1.18-13.24-.94-16,3.21a5.88,5.88,0,0,0,2.47,8.39c3.11,1.62,7.32.64,10.31-.78S436.29,374.79,437.53,373.33Z"/><path class="cls-2" d="M342.72,392.51c0,.27.83,4.43.89,4.4s5.38-3,7-5.15c1.38-1.88,2.62-4.65,1.92-7a4.14,4.14,0,0,0-5.46-2.83C343.84,383.25,342.48,389.4,342.72,392.51Z"/><path class="cls-2" d="M455.22,365.24a5.88,5.88,0,0,0-3.81,7.87,8.55,8.55,0,0,0,.57,1.18,22.83,22.83,0,0,0,1.51,8.4,166.22,166.22,0,0,0,8.14-16.07C459.45,365.4,457.17,364.73,455.22,365.24Z"/><path class="cls-2" d="M374.55,453.72c.25-.78.58-1.49.87-2.26.46-1.1,1-2.22,1.5-3.33,1.44.5,5.71,1.88,8,1.69s5.22-1.09,6.53-3.18a4.13,4.13,0,0,0-1.47-6c-3.13-1.56-8.65,1.47-10.83,3.71-.07.07-.48.59-1,1.21.54-1.07,1.08-2.15,1.66-3.22,1.65-3,3.43-6.07,5.21-9.12.36-.64.72-1.28,1.09-1.92,1.21.43,5.82,2,8.18,1.76s5.22-1.09,6.53-3.17a4.13,4.13,0,0,0-1.47-6c-3.13-1.56-8.65,1.47-10.83,3.7l-1.11,1.4c.94-1.67,1.86-3.35,2.71-5a74.09,74.09,0,0,0,3.87-9c.42.15,5.79,2.06,8.4,1.84,2.33-.2,5.23-1.09,6.54-3.18a4.13,4.13,0,0,0-1.47-6c-3.13-1.55-8.65,1.48-10.83,3.71-.15.16-1.91,2.42-2.51,3.25,0,0,0-.08,0-.11a54.73,54.73,0,0,0,2.16-9.34,74.23,74.23,0,0,0,.71-8.53c.1-2.65,0-5.08-.06-7.23-.05-1.16-.12-2.23-.2-3.22l.06.05c.05,0,1.47-4,1.53-4.23.69-3,.26-9.32-2.74-11.11a4.14,4.14,0,0,0-5.82,2c-1,2.24-.23,5.16.86,7.22s5,5.2,5.95,5.95c.06,1,.11,2.14.14,3.36,0,2.14.06,4.57-.1,7.2,0,.7-.11,1.46-.16,2.19-.17-1.25-.41-3-.46-3.13-.78-3-4.06-8.39-7.55-8.6a4.14,4.14,0,0,0-4.25,4.45c.11,2.46,2.18,4.68,4.1,6s7,2.35,8.06,2.55c-.15,1.62-.34,3.28-.64,5a53.49,53.49,0,0,1-2.32,9.18c-.06.17-.15.34-.21.51,0-.63-.08-4.12-.11-4.36-.45-3.09-3.12-8.79-6.56-9.37a4.12,4.12,0,0,0-4.71,3.95c-.17,2.46,1.65,4.89,3.41,6.42,2,1.76,7.71,3.41,7.92,3.48a73.65,73.65,0,0,1-3.93,8.58c-1.1,2.06-2.29,4.1-3.51,6.13,0-.82-.08-4.06-.12-4.29-.44-3.09-3.12-8.79-6.56-9.38a4.14,4.14,0,0,0-4.71,4c-.16,2.46,1.65,4.89,3.41,6.42,2,1.71,7.42,3.32,7.88,3.46L384,432.62c-1.83,3-3.68,6-5.42,9-.6,1-1.16,2.11-1.72,3.16,0-1.24-.08-3.49-.11-3.68-.45-3.08-3.12-8.79-6.56-9.37a4.13,4.13,0,0,0-4.71,4c-.17,2.46,1.65,4.9,3.41,6.42s6.31,3,7.59,3.38c-.92,1.76-1.79,3.53-2.57,5.31-.31.78-.69,1.55-.95,2.31l-.84,2.26c-.38,1.14-.73,2.23-1.07,3.3l2.27-1.13.48-1.57Z"/><path class="cls-2" d="M370.41,458.62c0-3.12-1.75-9.16-5.07-10.26a4.13,4.13,0,0,0-5.25,3.2,4.62,4.62,0,0,0-.11.91,16,16,0,0,0-2.62,7.66c0,.2.17,2.56.29,3.77-.32-.95-.64-1.89-.95-2.88-.46-1.42-.91-2.94-1.34-4.42l-.6-2.33c-.23-.79-.34-1.57-.52-2.37-.23-1.17-.41-2.39-.59-3.6,1.48-.39,5.8-1.59,7.57-3s3.75-3.8,3.7-6.26a4.14,4.14,0,0,0-4.53-4.17c-3.46.43-6.39,6-7,9.07,0,.1-.07.76-.13,1.54-.15-1.19-.29-2.38-.39-3.6-.3-3.44-.49-7-.7-10.48,0-.74-.09-1.47-.14-2.2,1.25-.32,5.94-1.58,7.79-3s3.75-3.79,3.7-6.26a4.13,4.13,0,0,0-4.52-4.16c-3.47.42-6.4,6-7,9.06,0,.11-.08.9-.15,1.78-.14-1.91-.3-3.82-.52-5.7a73.53,73.53,0,0,0-1.73-9.61c.45-.11,6-1.47,8-3.1,1.82-1.45,3.75-3.79,3.7-6.26a4.14,4.14,0,0,0-4.53-4.16c-3.46.42-6.4,6-7,9.06,0,.22-.26,3.07-.3,4.09l0-.11a53.53,53.53,0,0,0-3.36-9,74.52,74.52,0,0,0-4.1-7.51c-1.38-2.26-2.79-4.25-4-6-.69-.94-1.33-1.78-1.95-2.57h.08c.06,0-1-4.12-1.06-4.37-1.09-2.92-4.93-7.92-8.41-7.75a4.13,4.13,0,0,0-3.76,4.87c.36,2.44,2.66,4.43,4.7,5.54s7,1.59,8.25,1.69c.61.82,1.27,1.71,2,2.72,1.22,1.77,2.57,3.78,3.9,6.06.35.61.71,1.27,1.07,1.92-.83-1-2-2.26-2.11-2.37-2.32-2.09-8-4.76-11-3a4.14,4.14,0,0,0-1.09,6.05c1.45,2,4.4,2.7,6.73,2.75s7.11-1.88,8.13-2.32c.77,1.43,1.53,2.92,2.23,4.52a53.29,53.29,0,0,1,3.12,8.93c0,.18.06.37.11.55-.33-.55-2.34-3.4-2.5-3.58-2.08-2.33-7.45-5.61-10.65-4.2a4.14,4.14,0,0,0-1.74,5.9c1.22,2.14,4.07,3.17,6.38,3.47,2.66.35,8.32-1.4,8.53-1.47a73.22,73.22,0,0,1,1.45,9.33c.23,2.32.35,4.68.46,7.05-.44-.7-2.31-3.34-2.46-3.52-2.08-2.33-7.45-5.61-10.65-4.2a4.13,4.13,0,0,0-1.74,5.9c1.21,2.14,4.07,3.17,6.38,3.47,2.6.34,8-1.31,8.48-1.45.05,1.07.1,2.15.14,3.23.13,3.52.24,7,.46,10.53.08,1.21.2,2.39.31,3.58-.69-1-2-2.86-2.12-3-2.07-2.33-7.45-5.61-10.64-4.2a4.12,4.12,0,0,0-1.75,5.89c1.22,2.15,4.08,3.17,6.38,3.48s6.92-1,8.2-1.37c.21,2,.45,3.93.79,5.84.16.82.28,1.67.48,2.45s.36,1.58.55,2.35c.43,1.59.83,3.07,1.27,4.54.21.74.44,1.44.66,2.16-.55-1.14-1.45-2.94-1.55-3.09-1.7-2.62-6.52-6.67-9.89-5.76a4.13,4.13,0,0,0-2.62,5.56c.88,2.3,3.55,3.75,5.79,4.4,2.47.72,7.9,0,8.56-.15.06.2.12.39.19.59.61-.24,1.22-.47,1.82-.72h0c.61-.25,5.32-2.24,7.22-4.06l.93.57q2.21-1,4.36-2.06A3.14,3.14,0,0,0,370.41,458.62Z"/><path class="cls-2" d="M468.86,287.51a23.16,23.16,0,0,0-4.79,9.46c-.06.3-.41,4.36-.49,5.82l0-.17a77.38,77.38,0,0,0-4.65-12.81,105,105,0,0,0-5.73-10.75c-1.94-3.24-3.9-6.09-5.66-8.59-1-1.35-1.87-2.56-2.73-3.69h.1c.09,0-1.31-5.86-1.44-6.22-1.51-4.17-6.89-11.34-11.86-11.15a5.88,5.88,0,0,0-5.41,6.87c.48,3.48,3.72,6.34,6.61,7.95s10,2.36,11.7,2.52c.87,1.18,1.78,2.46,2.76,3.9,1.71,2.53,3.6,5.41,5.46,8.68.49.87,1,1.82,1.49,2.74-1.16-1.37-2.78-3.23-3-3.39-3.27-3-11.34-6.89-15.67-4.44a5.88,5.88,0,0,0-1.63,8.6c2,2.86,6.22,3.91,9.53,4,3.46.1,10.14-2.58,11.6-3.18,1.07,2.05,2.13,4.17,3.1,6.46a76,76,0,0,1,4.32,12.75c0,.25.08.52.14.77-.46-.77-3.27-4.85-3.5-5.12-2.92-3.34-10.52-8.08-15.08-6.12a5.87,5.87,0,0,0-2.57,8.36c1.7,3.07,5.75,4.57,9,5,3.78.54,11.85-1.87,12.15-2a102.94,102.94,0,0,1,1.94,13.29c.28,3.31.43,6.67.54,10-.61-1-3.23-4.79-3.45-5-2.92-3.34-10.52-8.09-15.08-6.13a5.88,5.88,0,0,0-2.57,8.37c1.7,3.06,5.75,4.57,9,5,3.69.52,11.43-1.76,12.08-1.95.06,1.53.12,3.06.16,4.6.13,5,.24,10,.51,15,.09,1.72.24,3.41.39,5.1-1-1.47-2.8-4.1-3-4.31-2.92-3.34-10.52-8.09-15.08-6.12a5.87,5.87,0,0,0-2.57,8.36c1.7,3.06,5.75,4.57,9,5s9.85-1.31,11.68-1.83c0,.38.09.75.12,1.13.61-1.77,1.15-3.53,1.67-5.27-.07-.74-.14-1.48-.2-2.23-.36-4.9-.59-9.9-.83-14.92-.05-1-.12-2.09-.17-3.13.94-.23,3.27-.83,5.64-1.64.28-2.74.45-5.42.49-8s0-4.95-.1-7.29a22.42,22.42,0,0,0-6,10.7c0,.15-.14,1.28-.25,2.53-.17-2.72-.37-5.44-.66-8.12a104.81,104.81,0,0,0-2.31-13.69,60.37,60.37,0,0,0,8.18-2.55A86.17,86.17,0,0,0,468.86,287.51Z"/><path class="cls-2" d="M382.05,300c-2.84,4.09.3,12.48,3,16,.23.3,4.42,4.65,4.46,4.57s4.15-7.68,4.38-11.57c.2-3.31-.46-7.57-3.13-9.85A5.86,5.86,0,0,0,382.05,300Z"/><path class="cls-2" d="M434.91,389.42a5.88,5.88,0,0,0,1.17,8.67,9.74,9.74,0,0,0,6.37,1.5c2.76-3.74,5.32-7.53,7.7-11.33C445.78,386.71,438,386,434.91,389.42Z"/><path class="cls-2" d="M454.12,276.49c0,.39,1.13,6.32,1.21,6.28s6.21-3.33,9.16-6.26a95.54,95.54,0,0,0-7.17-12.28A22.16,22.16,0,0,0,454.12,276.49Z"/><path class="cls-2" d="M149.42,454.14c-.52-3.65-3.69-10.4-7.76-11.09a4.9,4.9,0,0,0-5.58,4.68,7.21,7.21,0,0,0,1,3.94c4.1,1.84,8.24,3.59,12.42,5.28C149.49,455.65,149.45,454.3,149.42,454.14Z"/><path class="cls-2" d="M169.87,423.26c.5.18,6.85,2.44,9.95,2.18,2.74-.23,6.18-1.29,7.74-3.76a4.9,4.9,0,0,0-1.75-7.07c-3.7-1.84-10.23,1.75-12.81,4.39-.18.19-2.26,2.86-3,3.84a.61.61,0,0,1,.05-.12,63.94,63.94,0,0,0,2.54-11.05,87.53,87.53,0,0,0,.86-10.1c.11-3.14,0-6-.08-8.56-.06-1.37-.14-2.63-.23-3.81l.06.06c.06,0,1.74-4.69,1.81-5,.83-3.6.31-11-3.24-13.15a4.9,4.9,0,0,0-6.89,2.36c-1.23,2.64-.27,6.1,1,8.54s5.88,6.15,7,7c.07,1.22.13,2.53.17,4,0,2.54.06,5.41-.12,8.53,0,.83-.13,1.72-.19,2.59-.2-1.48-.49-3.51-.54-3.71-.92-3.57-4.81-9.93-8.94-10.17a4.88,4.88,0,0,0-5,5.26c.12,2.92,2.58,5.54,4.84,7.11s8.25,2.78,9.54,3c-.17,1.91-.4,3.88-.75,5.91a63.14,63.14,0,0,1-2.75,10.86c-.07.2-.17.4-.25.6,0-.75-.09-4.87-.13-5.16-.53-3.65-3.69-10.4-7.77-11.09a4.89,4.89,0,0,0-5.57,4.68c-.2,2.91,1.95,5.79,4,7.6,2.39,2.08,9.12,4,9.37,4.11a86.71,86.71,0,0,1-4.65,10.16c-1.3,2.43-2.71,4.85-4.15,7.26,0-1-.1-4.81-.14-5.09-.53-3.65-3.69-10.4-7.77-11.09a4.89,4.89,0,0,0-5.57,4.68c-.19,2.91,1.95,5.79,4,7.6,2.34,2,8.77,3.94,9.32,4.1l-2,3.27c-2.18,3.57-4.37,7.13-6.42,10.71-.48.82-.92,1.65-1.36,2.48l1.65.66c.4-.77.79-1.54,1.21-2.31,2-3.59,4.07-7.18,6.16-10.79.44-.76.86-1.52,1.3-2.27,1.43.5,6.89,2.32,9.67,2.09s6.18-1.3,7.74-3.76a4.9,4.9,0,0,0-1.75-7.07c-3.7-1.84-10.23,1.75-12.81,4.39-.09.09-.67.83-1.31,1.65,1.11-2,2.19-4,3.21-6A87.78,87.78,0,0,0,169.87,423.26Z"/><path class="cls-2" d="M120.41,442.63c0-.87-.11-1.73-.17-2.6,1.48-.38,7-1.87,9.22-3.6s4.44-4.49,4.38-7.4a4.88,4.88,0,0,0-5.35-4.93c-4.11.5-7.58,7.1-8.27,10.72,0,.13-.1,1.06-.18,2.11-.17-2.27-.36-4.52-.62-6.75a86.19,86.19,0,0,0-2-11.37c.52-.13,7.07-1.74,9.51-3.67,2.16-1.71,4.44-4.49,4.38-7.4a4.89,4.89,0,0,0-5.36-4.93c-4.1.5-7.57,7.1-8.26,10.72-.05.26-.31,3.64-.36,4.85l0-.14a64.36,64.36,0,0,0-4-10.62,87,87,0,0,0-4.86-8.89c-1.64-2.68-3.3-5-4.78-7.1-.82-1.11-1.58-2.11-2.3-3h.08c.08,0-1.14-4.87-1.25-5.17-1.29-3.45-5.83-9.37-10-9.17A4.89,4.89,0,0,0,85.78,380c.43,2.88,3.15,5.24,5.57,6.56s8.3,1.88,9.75,2c.73,1,1.5,2,2.33,3.22,1.44,2.09,3,4.47,4.61,7.18.42.71.84,1.5,1.26,2.26-1-1.13-2.34-2.66-2.49-2.79-2.74-2.47-9.49-5.63-13.06-3.56A4.88,4.88,0,0,0,92.46,402c1.71,2.37,5.2,3.2,8,3.26s8.41-2.23,9.62-2.75c.91,1.7,1.81,3.46,2.64,5.35a63.49,63.49,0,0,1,3.69,10.57c0,.21.08.44.13.65-.39-.65-2.77-4-3-4.23-2.45-2.76-8.81-6.64-12.6-5a4.89,4.89,0,0,0-2.06,7c1.44,2.53,4.82,3.75,7.55,4.11,3.15.41,9.84-1.67,10.1-1.74a87.85,87.85,0,0,1,1.72,11c.26,2.75.41,5.54.54,8.35-.53-.83-2.74-4-2.92-4.17-2.46-2.75-8.82-6.64-12.6-5a4.57,4.57,0,0,0-2.63,3.31l.57.34q6.14,3.61,12.49,7c2.47-.49,4.78-1.19,5.1-1.29,0,1.27.11,2.54.16,3.82V443l1.5.76Z"/><path class="cls-2" d="M130.12,446.74a5.24,5.24,0,0,0-2,.75q3.61,1.74,7.29,3.4A4.83,4.83,0,0,0,130.12,446.74Z"/><path class="cls-2" d="M186.5,392.6c-4.05-.8-9.41,4.38-11.2,7.61-.15.28-2.07,4.92-2,4.92s7.23.6,10.27-.51c2.59-.95,5.62-2.88,6.47-5.67A4.89,4.89,0,0,0,186.5,392.6Z"/><path class="cls-2" d="M166.82,460.65a4.89,4.89,0,0,0-1.74-7.07c-3.7-1.84-10.23,1.75-12.81,4.39l-.06.06q6.18,2.45,12.47,4.65A6.51,6.51,0,0,0,166.82,460.65Z"/><path class="cls-2" d="M114.34,384.06c-3.82,1.57-5.43,8.85-5.14,12.53,0,.31,1,5.24,1,5.21s6.37-3.49,8.29-6.1c1.63-2.22,3.1-5.5,2.27-8.3A4.89,4.89,0,0,0,114.34,384.06Z"/></g><g id="Characters"><polygon class="cls-3" points="252.67 187.33 236 196.67 213.67 178 224.33 164.67 252.67 187.33"/><path class="cls-4" d="M129.49,393s-.84,4.19,8.8,5a166,166,0,0,1,17.61,2.51s-12.16-14.25-10.06-27.67-4.61-9.23-8.81,0A195.73,195.73,0,0,0,129.49,393Z"/><path class="cls-4" d="M226.35,229.09s-1.26,23.48.83,29.35,22.65,47.38,27.68,53.25a66.94,66.94,0,0,1,6.71,8.81s-8.81-1.68-15.94,2.51-8,15.52-7.54,21.39-7.13,33.12-19.71,41.51-34.38,13-46.12,5.45-27.68-7.55-34-5.45a15.83,15.83,0,0,0-8.8,7.13s-5.46-24.32,6.7-53.26S155.48,271,155.48,271s61.64-43.61,62.48-46.13S226.76,217.35,226.35,229.09Z"/><path class="cls-5" d="M216.87,278.36c.35,2.07.77,4.13,1.28,6.16"/><path class="cls-5" d="M216.58,239.45a143.46,143.46,0,0,0-.53,33.07"/><path class="cls-5" d="M156.51,337.47a88.18,88.18,0,0,0,1.36,13.09"/><path class="cls-5" d="M165.74,277.71s-8.51,26.17-9.24,52.4"/><path class="cls-3" d="M205,243l-3.33,22.67S221,321,222.33,325s41.34,26.67,44,27.33,33.34,14,33.34,14l-34,44.67-57.34-22H199c-4,0-12.67-9.33-12.67-11.33V356.33s-4-22-4-38,.67-44.66.67-44.66l-2.67-17.34Z"/><path class="cls-4" d="M235.33,190a116.16,116.16,0,0,1-20-13.67C205.67,168,198,166,193,168.33s-8.33,8.67-8.33,8.67-8.67,2.33-13,7-22,26.67-24.34,33.33-3,8.67-3,8.67,46.34-28.33,59.67-32.33,29,3,32,3S240,196,235.33,190Z"/><path class="cls-5" d="M184.67,177S202,175,221,186"/><path class="cls-3" d="M113.67,273s-39.34,7.33-45.34,7.33S49.67,281,44,279.67s-11.67-1-10,9.33,3.94,9.53,3.67,17c-.21,5.73,3.33,20.33,8,23.33s6.66.67,6-5.66,4-20.34,6.33-23a36.37,36.37,0,0,1,5.67-5s23,1.33,35.33,2.66S118.33,302,120,302s8-11.33,5.67-18C125.67,284,123.67,276.67,113.67,273Z"/><path class="cls-3" d="M62.06,296.89c-1.34-.54-7.21-2.89-8.39-2.89s-11.08-4.65-5.32-13.74a29.8,29.8,0,0,1-4.35-.59c-5.67-1.34-11.67-1-10,9.33s4.29,12.72,3.67,17c-.83,5.67,3.33,20.33,8,23.33s6.66.67,6-5.66,4-20.34,6.33-23A31.91,31.91,0,0,1,62.06,296.89Z"/><path class="cls-3" d="M42.19,307.73c0-7.43-3.54-9.91-4.61-20.88a23.83,23.83,0,0,1,.17-7.5c-2.91.74-4.77,3.31-3.75,9.65,1.67,10.33,4.29,12.72,3.67,17-.83,5.67,3.33,20.33,8,23.33a6.27,6.27,0,0,0,3.58,1.29C44.05,324.47,42.19,314.7,42.19,307.73Z"/><path class="cls-6" d="M106,297.12s2.6,3.07,13.23,4,20.31,3.3,26,4.25,10.63,1.89,12.05-.24-.24-1.65-12.76-8.5-29.76-4.49-32.83-4S106,297.12,106,297.12Z"/><path class="cls-3" d="M148.33,299.67s2.67,5-5.33,10-54.67,34.66-54.67,34.66,2.34,18.34,4,24,5.67,7.67,4.34,10S88,381.33,80,377s-22.67-22.67-23.67-26.33S69,338,69,338s6-3.33,11.33-7S95,311.33,101.67,306.33,113.33,300,113.33,300l.67-7.33S138.33,286.67,148.33,299.67Z"/><path class="cls-3" d="M80.33,345a20.81,20.81,0,0,0-5.66,5.33s-2.82-7.22-5-12.71L69,338s-13.67,9-12.67,12.67S72,372.67,80,377s15.33,3.67,16.67,1.33-2.67-4.33-4.34-10-4-24-4-24S84,342.67,80.33,345Z"/><path class="cls-3" d="M96.67,378.33a2,2,0,0,0,.09-1.8A27.37,27.37,0,0,1,78.29,369c-8.27-7.68-17-19-19.7-22.6C57,348,56,349.58,56.33,350.67c1,3.66,15.67,22,23.67,26.33S95.33,380.67,96.67,378.33Z"/><path class="cls-3" d="M126,238.45a23.58,23.58,0,0,0-7.13,8.86C115,255.84,111.5,268,111.5,273.5c0,7-5,20.5-5,20.5s-2.5,4.5,1,3.5,14.5-3,24-1.5c7.37,1.16,18.66,7.15,23.35,9.77a3.88,3.88,0,0,0,5.21-1.26,2.9,2.9,0,0,0,.44-1.51c0-2.5.5-14.5.5-14.5L184,265l-36.5-43Z"/><path class="cls-3" d="M124.18,265.19s-6.85,19.36-5.66,21.44,5.07.3,13.7,2.09,19.36,2.68,19.66.59S148.31,264,148.31,264Z"/><path class="cls-3" d="M124,261.5l-2.2,7.56S131,268,138.5,268s11,2,11,2v-7.5S132,258.5,124,261.5Z"/><path class="cls-5" d="M129.25,244.34s19.06,1.19,28.89,7.45"/><path class="cls-5" d="M140.56,234.51s12.81,10.43,19.66,19.36"/><line class="cls-5" x1="161" y1="288.5" x2="160.82" y2="259.23"/><path class="cls-6" d="M264.5,196l1.5,18.5-19.5,4L184,265l-36.5-43s25.5-22.5,41-28,22.83-12,38.17-5S253,196.5,253,196.5Z"/><path class="cls-3" d="M265.1,140.69c.55,3.48,1.58,6.88,2.12,10.36s-.57,5.85-.57,8.86c0,1.86,6.2,5,4.34,7.75a6,6,0,0,1-4.65,2.79c-2,1.49-3.1,9.44-3.91,11.81s-1.05,3.84-3.07,5.15c-2.57,1.66-6.82,2-9.76,2.26-7.44.62-13.95-5-16.43-6.51s-6.2-8.06-6.2-8.06-11.95-4.43-12.26-5.36,5.13-19.75,9.47-22.85,10.23-17.68,21.39-17.68S265.1,140.68,265.1,140.69Z"/><path class="cls-6" d="M239.68,149.68l-1.49,14.11-2.5-3.06s1,3.28-.28,3.9-3.53-5.79-4.46-6.41-6.72,1-4.76,9.9c2,9.19,2,9.45.16,8.68,0,0-.93,3.88-5.89,4.5s-17.41-12.08-19.73-17.54c-3.36-7.94-.25-24.44-.25-24.44l-5,.31s-.31-2.17,1.55-2.79,6.82-2.48,6.82-2.48a7.93,7.93,0,0,1,.93-7.75c2.8-4,4,2.48,4,2.48a37.6,37.6,0,0,1,15.94-11.35c10.23-3.72,27.59-.93,27.59-.93l-5.89,1.24s10.54.31,14.88,1.55,13.34,9.92,9.61,10.23a42.88,42.88,0,0,0-6.2.93s9.3,6.2,9.62,9-14.27,2.48-19.23,2.79l-9.61.62s4,6.83,2.48,7.14S239.68,149.68,239.68,149.68Z"/><path class="cls-3" d="M234.1,164.56s-3.43-10.3-8.36-8.27c-4.42,1.82-6.27,8.51-1.16,13.63s10.92,1.15,10.92,1.15"/><path class="cls-3" d="M264.67,209.67l24-7.34s6.66-2,13.33-3.33,30-9.33,30-9.33L330,181l-65.5,15Z"/><path class="cls-3" d="M340,175s6.25-1,7.75,0,5,9.5,5.25,11.5-9.25,3-9.25,3Z"/><path class="cls-5" d="M345.25,175.25S351,186,351,188.25"/><path class="cls-5" d="M340,175s6.75,10.5,7.5,13.75"/><path class="cls-3" d="M340.43,188.58s1.32,3.17,2.32,3.67,7.75,1.25,9,.5-4.5-4.75-6.75-6S341.37,185.91,340.43,188.58Z"/><polygon class="cls-4" points="227.5 205 246.5 218.5 239.5 201.5 227.5 205"/><path class="cls-4" d="M245.74,216.31s-4.71,10.44-8.37,18S242,259.65,242,259.65a53.47,53.47,0,0,0,8.05-12.92c2.92-7.06,3.29-19.48,3.29-19.48Z"/><path class="cls-4" d="M252.73,215.78s4.39-1.22,12.19,0,14.62,8.28,17.55,13.16,4.38,8,4.38,8-17.79,4.88-26.81-3.65S252.73,215.78,252.73,215.78Z"/><path class="cls-4" d="M243.5,211l4,10s5.84,7.75,5.84,6.25.16-13.25.16-13.25Z"/><polygon class="cls-4" points="253.5 214 260.77 199.69 252.24 199.2 249.07 212.12 253.5 214"/><path class="cls-5" d="M253.33,218.67a49,49,0,0,1,15.24,10.51"/><path class="cls-5" d="M249.32,224.06s-.49,19.51-6.34,24.87"/><path class="cls-3" d="M344.29,185.8s1.28,3.85.21,4.49-7.92,5.14-9,3,3.21-4.93,3.21-4.93Z"/><path class="cls-3" d="M224,189.33l28.67-2S269,183.67,283.33,182s31-3.67,31-3.67,23.34-4.33,25-4.33,6,9,6,11.33-4.66,3-7,4.67a10,10,0,0,1-6.33,2,16.11,16.11,0,0,1-5-1.33,75.84,75.84,0,0,1-8.33,2c-4,.66-10.56-1.74-10.56-1.74S251,208,239.33,208.33,213.67,210,213.67,210Z"/><path class="cls-5" d="M327,190.67s-3.05-1.88-.27-2.52,4.07,0,4.07,0"/><line class="cls-5" x1="334.01" y1="179.59" x2="336.15" y2="191.36"/><line class="cls-5" x1="338.94" y1="176.8" x2="340.43" y2="188.58"/><path class="cls-6" d="M182.67,200s9-11.33,22-13.67,22,2.67,22,2.67l-15.34,31.33-14-9.66"/><path class="cls-3" d="M347.51,235s-17.15,4.58-21.74,10.18c-8.43,10.28-13.41,10.17-13.41,10.17S298,254.84,298,258.54a109.23,109.23,0,0,0,1.39,12s-10.18,18-12,25.44,4.63,11.1,9.71,12a22.63,22.63,0,0,1,7.87,2.78l-.47,17.57s5.09,0,22.21,1.85a94,94,0,0,1,29.14,7.87s-5.55-11.1-.47-25.44,19.89-41.63,20.82-43.94,3.24-17.58-5.09-25.44S354.45,235,347.51,235Z"/><path class="cls-6" d="M352.14,217.84s-11.57,4.62-9.72,11.56S351.67,247,351.67,247s-7.86-1.85-9.71,5.55a138.67,138.67,0,0,0-2.78,16.19S329,277,327.16,278s3.24,6,3.24,6,12.49-6.47,20.35,1.39S342,302.94,342,302.94l-10.18,1.85a21.22,21.22,0,0,0,12.49,16.66c11.57,5.08,20.82,5.08,25,2.77s11.1-6.47,12.49-7.86,9.71,1.85,19-11.1,5.55-41.17,2.31-50.88a37.63,37.63,0,0,0-10.63-15.73s6.47-2.77.92-5.09a60,60,0,0,0-10.17-3.23s1.38-16.19-5.55-17.12-17.12,9.25-17.12,9.25S366.94,208.59,352.14,217.84Z"/><path class="cls-3" d="M208,329.33s-14.33-58-16.33-65.33.33-10.67,1.33-14,6.67-15.33,4.67-19-3-5.67-2.67-9-2.67-5-5.67-2-2.66,6.33-1.66,9.67,0,4.66,0,4.66-10-8.66-10.67-10-2.67-8.33-2.67-8.33-3.33-9.33-4.66-10-3.67-.33-3,4,1.33,9.67,1.33,9.67l.33,6L166.67,229,162,220.67s1-9-1-9.34-3.33,4.34-4,6.34-.67,6.66-.67,6.66-5.66,1-5.66,5.34,7.66,14.66,7.66,14.66l-.33,3L151.67,246s-.67-2-3.67-5.67-4.67,4-2.33,7,5.33,6.34,8.66,7,12.34,4.34,12.34,4.34l2.66,2.66s2,50.67,1.67,66,1,31,4,37.67,11.33,3.67,11.33,3.67,11-22.67,13.67-28.34S208,329.33,208,329.33Z"/><polyline class="cls-5" points="156.33 224.33 157.67 230 161 234.67"/><path class="cls-4" d="M349,440.5c0-2.5,16.5-45.5,16-61s-3-34.73-3-34.73-6.18-6.67-11-8.27-34.5-7.5-46.51-8.12S288,330.5,278,334.5s-26.5,33-30,41S240,408,235.5,419c-3.31,8.08-19.3,39.65-27.55,55.83A294.06,294.06,0,0,0,258,481c31.3,1.07,59.05-2.95,83.35-10.54C344.69,458.17,349,442,349,440.5Z"/><path class="cls-5" d="M290.65,401.67A190.39,190.39,0,0,0,309.33,408"/><path class="cls-5" d="M260.33,388s10.8,5.6,24.3,11.23"/><path class="cls-5" d="M295.11,422.57q2.28,1.49,4.56,2.76"/><path class="cls-5" d="M255.33,387S272,406,290,419.11"/><path class="cls-4" d="M363.27,342.9s2.5-9.37-.31-12.5S340.46,322,317,322s-36.87,9.68-36.87,9.68,28.74-1.25,51.87,4.69,30,8.43,30,8.43Z"/><path class="cls-4" d="M339,350s-10-11.5-28.5-17-98,2-98,2-7-2.5-12.5,6.5-11.5,26-8,30.5,5.5,10,7,10.5S305.5,397,305.5,397"/><path class="cls-5" d="M227.5,354.76c9,4.6,20.95,10.13,31.83,13.24"/><path class="cls-5" d="M213.33,347s2.48,1.49,6.53,3.71"/><path class="cls-5" d="M254.52,379.76a67.8,67.8,0,0,0,10.15,4.57"/><path class="cls-5" d="M207.67,347.33s20.56,16.6,39,27.9"/><path class="cls-4" d="M214,335.33S202.33,346,198.67,359.67s1.66,22,1.66,22L204,383s0,2-2.67,1.67-12.33,1.33-17-2.34-6-21-.66-37.66,19.66-19.34,24.33-18,14,4.33,14,6S214,335.33,214,335.33Z"/></g></svg>