<svg width="1552" height="1056" viewBox="0 0 1552 1056" fill="none" xmlns="http://www.w3.org/2000/svg">
<path d="M171 398H1V668H171V398Z" fill="white" stroke="#DDDDDD" stroke-width="2"/>
<path d="M103 654H70V659H103V654Z" fill="#DDDDDD"/>
<path fill-rule="evenodd" clip-rule="evenodd" d="M108.5 644C110.433 644 112 642.433 112 640.5C112 638.567 110.433 637 108.5 637C106.567 637 105 638.567 105 640.5C105 642.433 106.567 644 108.5 644Z" fill="#DDDDDD"/>
<path fill-rule="evenodd" clip-rule="evenodd" d="M86.5 644C88.433 644 90 642.433 90 640.5C90 638.567 88.433 637 86.5 637C84.567 637 83 638.567 83 640.5C83 642.433 84.567 644 86.5 644Z" fill="#DDDDDD"/>
<path fill-rule="evenodd" clip-rule="evenodd" d="M64.5 644C66.433 644 68 642.433 68 640.5C68 638.567 66.433 637 64.5 637C62.567 637 61 638.567 61 640.5C61 642.433 62.567 644 64.5 644Z" fill="#DDDDDD"/>
<path opacity="0.4" d="M150 445H23C17.4772 445 13 449.477 13 455V581C13 586.523 17.4772 591 23 591H150C155.523 591 160 586.523 160 581V455C160 449.477 155.523 445 150 445Z" fill="#DDDDDD"/>
<path opacity="0.6" d="M146 437H27C21.4772 437 17 441.477 17 447V589C17 594.523 21.4772 599 27 599H146C151.523 599 156 594.523 156 589V447C156 441.477 151.523 437 146 437Z" fill="#DDDDDD"/>
<path opacity="0.8" d="M142 430H31C25.4772 430 21 434.477 21 440V596C21 601.523 25.4772 606 31 606H142C147.523 606 152 601.523 152 596V440C152 434.477 147.523 430 142 430Z" fill="#DDDDDD"/>
<path d="M137 424H36C30.4772 424 26 428.477 26 434V602C26 607.523 30.4772 612 36 612H137C142.523 612 147 607.523 147 602V434C147 428.477 142.523 424 137 424Z" fill="#01D0FE" fill-opacity="0.99"/>
<path fill-rule="evenodd" clip-rule="evenodd" d="M115.979 498.092C115.979 496.937 115.057 496.001 113.918 496.001H58.2317C57.0933 496.001 56.1704 496.937 56.1704 498.092V538.705C56.1704 539.86 57.0933 540.797 58.2317 540.797H113.918C115.056 540.797 115.979 539.86 115.979 538.705V498.092Z" stroke="white" stroke-width="2"/>
<path fill-rule="evenodd" clip-rule="evenodd" d="M71.6785 517.357C74.6739 517.357 77.1021 514.896 77.1021 511.861C77.1021 508.825 74.6739 506.365 71.6785 506.365C68.6831 506.365 66.2549 508.825 66.2549 511.861C66.2549 514.896 68.6831 517.357 71.6785 517.357Z" stroke="white" stroke-width="2"/>
<path d="M69.1387 540.797L87.1042 515.151L94.5324 525.308L104.086 510.084L115.979 527.612" stroke="white" stroke-width="2"/>
<path d="M11.7334 348H7.5V331.682L2.44629 333.249V329.807L11.2793 326.643H11.7334V348ZM19.0723 345.92C19.0723 345.246 19.2969 344.699 19.7461 344.279C20.2051 343.859 20.7764 343.649 21.46 343.649C22.1533 343.649 22.7246 343.859 23.1738 344.279C23.6328 344.699 23.8623 345.246 23.8623 345.92C23.8623 346.584 23.6377 347.126 23.1885 347.546C22.7393 347.956 22.1631 348.161 21.46 348.161C20.7666 348.161 20.1953 347.956 19.7461 347.546C19.2969 347.126 19.0723 346.584 19.0723 345.92ZM35.332 348V326.672H42.8027C45.3906 326.672 47.3535 327.17 48.6914 328.166C50.0293 329.152 50.6982 330.603 50.6982 332.517C50.6982 333.562 50.4297 334.484 49.8926 335.285C49.3555 336.076 48.6084 336.657 47.6514 337.028C48.7451 337.302 49.6045 337.854 50.2295 338.684C50.8643 339.514 51.1816 340.529 51.1816 341.73C51.1816 343.781 50.5273 345.334 49.2188 346.389C47.9102 347.443 46.0449 347.98 43.623 348H35.332ZM39.7266 338.713V344.47H43.4912C44.5264 344.47 45.332 344.226 45.9082 343.737C46.4941 343.239 46.7871 342.556 46.7871 341.687C46.7871 339.733 45.7764 338.742 43.7549 338.713H39.7266ZM39.7266 335.607H42.9785C45.1953 335.568 46.3037 334.685 46.3037 332.956C46.3037 331.989 46.0205 331.296 45.4541 330.876C44.8975 330.446 44.0137 330.231 42.8027 330.231H39.7266V335.607ZM61.5088 348.293C59.1846 348.293 57.29 347.58 55.8252 346.154C54.3701 344.729 53.6426 342.829 53.6426 340.456V340.046C53.6426 338.454 53.9502 337.033 54.5654 335.783C55.1807 334.523 56.0498 333.557 57.1729 332.883C58.3057 332.199 59.5947 331.857 61.04 331.857C63.208 331.857 64.9121 332.541 66.1523 333.908C67.4023 335.275 68.0273 337.214 68.0273 339.724V341.452H57.9346C58.0713 342.487 58.4814 343.317 59.165 343.942C59.8584 344.567 60.7324 344.88 61.7871 344.88C63.418 344.88 64.6924 344.289 65.6104 343.107L67.6904 345.437C67.0557 346.335 66.1963 347.038 65.1123 347.546C64.0283 348.044 62.8271 348.293 61.5088 348.293ZM61.0254 335.285C60.1855 335.285 59.502 335.568 58.9746 336.135C58.457 336.701 58.125 337.512 57.9785 338.566H63.8672V338.229C63.8477 337.292 63.5938 336.569 63.1055 336.062C62.6172 335.544 61.9238 335.285 61.0254 335.285ZM69.8291 339.958C69.8291 337.526 70.4053 335.568 71.5576 334.084C72.7197 332.6 74.2822 331.857 76.2451 331.857C77.9834 331.857 79.3359 332.453 80.3027 333.645L80.4785 332.15H84.3164V347.473C84.3164 348.859 83.999 350.065 83.3643 351.091C82.7393 352.116 81.8555 352.897 80.7129 353.435C79.5703 353.972 78.2324 354.24 76.6992 354.24C75.5371 354.24 74.4043 354.006 73.3008 353.537C72.1973 353.078 71.3623 352.482 70.7959 351.75L72.6709 349.172C73.7256 350.354 75.0049 350.944 76.5088 350.944C77.6318 350.944 78.5059 350.642 79.1309 350.036C79.7559 349.44 80.0684 348.591 80.0684 347.487V346.638C79.0918 347.741 77.8076 348.293 76.2158 348.293C74.3115 348.293 72.7686 347.551 71.5869 346.066C70.415 344.572 69.8291 342.595 69.8291 340.134V339.958ZM74.0625 340.266C74.0625 341.701 74.3506 342.829 74.9268 343.649C75.5029 344.46 76.2939 344.865 77.2998 344.865C78.5889 344.865 79.5117 344.382 80.0684 343.415V336.75C79.502 335.783 78.5889 335.3 77.3291 335.3C76.3135 335.3 75.5127 335.715 74.9268 336.545C74.3506 337.375 74.0625 338.615 74.0625 340.266ZM92.0508 348H87.8027V332.15H92.0508V348ZM87.5537 328.049C87.5537 327.414 87.7637 326.892 88.1836 326.481C88.6133 326.071 89.1943 325.866 89.9268 325.866C90.6494 325.866 91.2256 326.071 91.6553 326.481C92.085 326.892 92.2998 327.414 92.2998 328.049C92.2998 328.693 92.0801 329.221 91.6406 329.631C91.2109 330.041 90.6396 330.246 89.9268 330.246C89.2139 330.246 88.6377 330.041 88.1982 329.631C87.7686 329.221 87.5537 328.693 87.5537 328.049ZM99.4482 332.15L99.5801 333.981C100.713 332.565 102.231 331.857 104.136 331.857C105.815 331.857 107.065 332.351 107.886 333.337C108.706 334.323 109.126 335.798 109.146 337.761V348H104.912V337.863C104.912 336.965 104.717 336.315 104.326 335.915C103.936 335.505 103.286 335.3 102.378 335.3C101.187 335.3 100.293 335.808 99.6973 336.823V348H95.4639V332.15H99.4482ZM116.265 332.15L116.396 333.981C117.529 332.565 119.048 331.857 120.952 331.857C122.632 331.857 123.882 332.351 124.702 333.337C125.522 334.323 125.942 335.798 125.962 337.761V348H121.729V337.863C121.729 336.965 121.533 336.315 121.143 335.915C120.752 335.505 120.103 335.3 119.194 335.3C118.003 335.3 117.109 335.808 116.514 336.823V348H112.28V332.15H116.265ZM133.652 348H129.404V332.15H133.652V348ZM129.155 328.049C129.155 327.414 129.365 326.892 129.785 326.481C130.215 326.071 130.796 325.866 131.528 325.866C132.251 325.866 132.827 326.071 133.257 326.481C133.687 326.892 133.901 327.414 133.901 328.049C133.901 328.693 133.682 329.221 133.242 329.631C132.812 330.041 132.241 330.246 131.528 330.246C130.815 330.246 130.239 330.041 129.8 329.631C129.37 329.221 129.155 328.693 129.155 328.049ZM141.05 332.15L141.182 333.981C142.314 332.565 143.833 331.857 145.737 331.857C147.417 331.857 148.667 332.351 149.487 333.337C150.308 334.323 150.728 335.798 150.747 337.761V348H146.514V337.863C146.514 336.965 146.318 336.315 145.928 335.915C145.537 335.505 144.888 335.3 143.979 335.3C142.788 335.3 141.895 335.808 141.299 336.823V348H137.065V332.15H141.05ZM153.354 339.958C153.354 337.526 153.931 335.568 155.083 334.084C156.245 332.6 157.808 331.857 159.771 331.857C161.509 331.857 162.861 332.453 163.828 333.645L164.004 332.15H167.842V347.473C167.842 348.859 167.524 350.065 166.89 351.091C166.265 352.116 165.381 352.897 164.238 353.435C163.096 353.972 161.758 354.24 160.225 354.24C159.062 354.24 157.93 354.006 156.826 353.537C155.723 353.078 154.888 352.482 154.321 351.75L156.196 349.172C157.251 350.354 158.53 350.944 160.034 350.944C161.157 350.944 162.031 350.642 162.656 350.036C163.281 349.44 163.594 348.591 163.594 347.487V346.638C162.617 347.741 161.333 348.293 159.741 348.293C157.837 348.293 156.294 347.551 155.112 346.066C153.94 344.572 153.354 342.595 153.354 340.134V339.958ZM157.588 340.266C157.588 341.701 157.876 342.829 158.452 343.649C159.028 344.46 159.819 344.865 160.825 344.865C162.114 344.865 163.037 344.382 163.594 343.415V336.75C163.027 335.783 162.114 335.3 160.854 335.3C159.839 335.3 159.038 335.715 158.452 336.545C157.876 337.375 157.588 338.615 157.588 340.266Z" fill="white"/>
<path d="M860 398H690V668H860V398Z" fill="white" stroke="#DDDDDD" stroke-width="2"/>
<rect x="698" y="596" width="65" height="53" rx="5" fill="#01D0FE" fill-opacity="0.99"/>
<rect x="768" y="596" width="65" height="53" rx="5" fill="#01D0FE" fill-opacity="0.99"/>
<rect x="838" y="596" width="16" height="53" rx="5" fill="#01D0FE" fill-opacity="0.99"/>
<path d="M846.25 409H706.75C702.47 409 699 412.873 699 417.65V573.35C699 578.127 702.47 582 706.75 582H846.25C850.53 582 854 578.127 854 573.35V417.65C854 412.873 850.53 409 846.25 409Z" fill="white"/>
<mask id="mask0" mask-type="alpha" maskUnits="userSpaceOnUse" x="698" y="408" width="157" height="175">
<path d="M846.25 409H706.75C702.47 409 699 412.873 699 417.65V573.35C699 578.127 702.47 582 706.75 582H846.25C850.53 582 854 578.127 854 573.35V417.65C854 412.873 850.53 409 846.25 409Z" fill="white" stroke="white" stroke-width="2"/>
</mask>
<g mask="url(#mask0)">
<path d="M811.792 398.188H792.47L793.301 398.963C799.194 404.483 801.449 412.752 799.333 421.088C797.335 428.957 791.936 434.898 785.904 435.852C784.895 436.007 783.887 436.095 782.918 436.095C779.358 436.095 775.798 435.054 772.377 432.992C769.746 431.418 767.175 429.556 764.683 427.782C762.666 426.341 760.59 424.834 758.473 423.482C753.747 420.445 748.328 418.848 742.77 418.848C734.899 418.848 727.087 421.952 720.798 427.583C714.252 433.435 709.98 441.593 708.754 450.527C707.31 461.057 709.407 470.324 714.984 478.038C719.592 484.423 726.435 489.721 735.888 494.221C742.395 497.324 753.49 504.152 754.478 514.926C755.349 524.303 749.949 533.237 741.663 536.208C740.1 536.763 738.459 537.05 736.778 537.05C730.568 537.05 724.615 533.326 718.84 529.713C717.931 529.136 717.06 528.604 716.19 528.072C710.495 524.614 704.126 522.774 697.758 522.774C687.632 522.774 678.238 527.274 671.929 535.144C665.957 542.614 663.326 552.281 664.335 563.098C664.434 564.162 665.541 571.233 667.104 575.512H687.059L686.465 574.892C680.809 568.884 676.656 558.952 682.035 549.065C685.2 543.28 690.717 540.086 697.56 540.086C700.784 540.086 704.126 540.819 707.192 542.216C710.257 543.611 713.065 545.452 715.775 547.249C719.552 549.731 723.448 552.302 728.175 553.743C731.557 554.785 734.978 555.317 738.36 555.317C743.997 555.317 749.317 553.898 754.202 551.083C759.205 548.2 763.457 544.011 766.859 538.625C771.427 531.375 773.089 522.065 771.506 512.443C769.825 502.113 764.703 493.046 757.445 487.593C753.47 484.6 748.209 480.809 742.79 478.105C738.538 475.976 732.467 472.607 728.788 467.752C725.11 462.919 724.259 457.355 726.158 450.704C728.333 443.145 735.413 437.869 743.384 437.869C744.254 437.869 745.104 437.935 745.954 438.069C750.998 438.844 755.329 442.014 759.897 445.384C763.971 448.377 768.184 451.458 773.029 452.788C775.956 453.586 778.863 453.985 781.691 453.985C789.108 453.985 796.109 451.192 801.943 445.938C807.065 441.305 811.159 434.854 813.414 427.782C816.044 419.558 815.372 411.732 814.324 406.612C813.513 402.555 812.385 399.584 811.792 398.188Z" fill="#B8C5D0"/>
<path d="M758.645 437.102H777.967L777.136 437.877C771.243 443.397 768.988 451.666 771.104 460.002C773.102 467.871 778.501 473.812 784.533 474.766C785.542 474.921 786.55 475.01 787.519 475.01C791.079 475.01 794.639 473.968 798.06 471.906C800.691 470.332 803.262 468.47 805.754 466.696C807.771 465.255 809.847 463.748 811.964 462.396C816.69 459.359 822.109 457.763 827.667 457.763C835.538 457.763 843.35 460.866 849.639 466.497C856.185 472.349 860.458 480.507 861.682 489.441C863.128 499.971 861.031 509.238 855.453 516.952C850.845 523.337 844.002 528.635 834.549 533.135C828.042 536.239 816.947 543.066 815.959 553.84C815.088 563.219 820.488 572.152 828.774 575.121C830.337 575.677 831.978 575.964 833.659 575.964C839.869 575.964 845.822 572.24 851.597 568.627C852.506 568.05 853.377 567.518 854.246 566.986C859.942 563.528 866.311 561.687 872.679 561.687C882.805 561.687 892.2 566.188 898.508 574.057C904.48 581.528 907.111 591.195 906.101 602.012C906.002 603.076 904.896 610.147 903.333 614.427H883.378L883.971 613.806C889.629 607.798 893.781 597.866 888.402 587.979C885.236 582.194 879.72 579 872.877 579C869.653 579 866.311 579.734 863.246 581.131C860.181 582.525 857.371 584.366 854.663 586.163C850.885 588.645 846.989 591.216 842.262 592.657C838.88 593.699 835.459 594.231 832.077 594.231C826.44 594.231 821.12 592.812 816.235 589.997C811.232 587.114 806.98 582.925 803.578 577.539C799.01 570.29 797.348 560.978 798.931 551.357C800.612 541.027 805.734 531.96 812.992 526.507C816.967 523.514 822.228 519.723 827.647 517.019C831.899 514.89 837.97 511.521 841.649 506.666C845.327 501.833 846.178 496.269 844.279 489.619C842.104 482.059 835.024 476.783 827.053 476.783C826.183 476.783 825.333 476.849 824.483 476.983C819.439 477.758 815.108 480.929 810.54 484.298C806.466 487.291 802.253 490.372 797.408 491.702C794.481 492.5 791.574 492.899 788.746 492.899C781.329 492.899 774.328 490.106 768.494 484.852C763.372 480.219 759.278 473.768 757.023 466.696C754.393 458.472 755.065 450.646 756.113 445.526C756.924 441.469 758.052 438.498 758.645 437.102Z" fill="#B8C5D0"/>
</g>
<path fill-rule="evenodd" clip-rule="evenodd" d="M780.014 522.225C783.477 522.259 786.786 523.828 789.212 526.586C791.638 529.344 792.982 533.065 792.949 536.93C792.949 545.039 782.44 561.733 780.014 561.733C777.589 561.733 767.082 545.039 767.082 536.93C767.048 533.065 768.392 529.344 770.818 526.586C773.243 523.828 776.552 522.259 780.014 522.225ZM780.014 530.485C782.355 530.436 784.49 531.972 785.418 534.371C786.345 536.771 785.88 539.558 784.241 541.424C782.603 543.29 780.116 543.866 777.948 542.88C775.779 541.894 774.36 539.543 774.357 536.93C774.329 533.408 776.86 530.526 780.014 530.485Z" fill="#89969F"/>
<path fill-rule="evenodd" clip-rule="evenodd" d="M721.581 496.413C725.043 496.447 728.352 498.016 730.778 500.774C733.204 503.532 734.549 507.253 734.515 511.118C734.515 519.227 724.006 535.9 721.581 535.9C719.155 535.9 708.648 519.227 708.648 511.118C708.614 507.253 709.958 503.532 712.384 500.774C714.81 498.016 718.118 496.447 721.581 496.413ZM721.581 504.674C723.922 504.625 726.056 506.16 726.984 508.56C727.911 510.959 727.446 513.746 725.808 515.612C724.169 517.479 721.682 518.054 719.514 517.068C717.346 516.082 715.927 513.731 715.923 511.118C715.907 509.426 716.494 507.796 717.555 506.587C718.616 505.378 720.065 504.69 721.581 504.674Z" fill="#89969F"/>
<path d="M553.757 486.461H556.013C557.087 486.461 557.883 486.192 558.4 485.655C558.918 485.118 559.177 484.405 559.177 483.517C559.177 482.657 558.918 481.988 558.4 481.51C557.893 481.031 557.189 480.792 556.291 480.792C555.48 480.792 554.802 481.017 554.255 481.466C553.708 481.905 553.435 482.481 553.435 483.194H549.201C549.201 482.081 549.499 481.085 550.095 480.206C550.7 479.317 551.54 478.624 552.614 478.126C553.698 477.628 554.89 477.379 556.188 477.379C558.444 477.379 560.212 477.921 561.491 479.005C562.771 480.079 563.41 481.563 563.41 483.458C563.41 484.435 563.112 485.333 562.517 486.153C561.921 486.974 561.14 487.604 560.173 488.043C561.374 488.473 562.268 489.117 562.854 489.977C563.449 490.836 563.747 491.852 563.747 493.023C563.747 494.918 563.054 496.437 561.667 497.579C560.29 498.722 558.464 499.293 556.188 499.293C554.06 499.293 552.316 498.731 550.959 497.608C549.611 496.485 548.938 495.001 548.938 493.155H553.171C553.171 493.956 553.469 494.61 554.064 495.118C554.67 495.626 555.412 495.88 556.291 495.88C557.297 495.88 558.083 495.616 558.649 495.089C559.226 494.552 559.514 493.844 559.514 492.965C559.514 490.836 558.342 489.771 555.998 489.771H553.757V486.461ZM567.072 496.92C567.072 496.246 567.297 495.699 567.746 495.279C568.205 494.859 568.776 494.649 569.46 494.649C570.153 494.649 570.725 494.859 571.174 495.279C571.633 495.699 571.862 496.246 571.862 496.92C571.862 497.584 571.638 498.126 571.188 498.546C570.739 498.956 570.163 499.161 569.46 499.161C568.767 499.161 568.195 498.956 567.746 498.546C567.297 498.126 567.072 497.584 567.072 496.92ZM589.074 477.672L594.553 493.141L600.002 477.672H605.773V499H601.364V493.17L601.804 483.106L596.047 499H593.029L587.287 483.121L587.727 493.17V499H583.332V477.672H589.074ZM618.518 499C618.322 498.619 618.181 498.146 618.093 497.579C617.067 498.722 615.734 499.293 614.094 499.293C612.541 499.293 611.252 498.844 610.227 497.945C609.211 497.047 608.703 495.914 608.703 494.547C608.703 492.867 609.323 491.578 610.563 490.68C611.813 489.781 613.615 489.327 615.969 489.317H617.917V488.409C617.917 487.677 617.727 487.091 617.346 486.651C616.975 486.212 616.384 485.992 615.573 485.992C614.86 485.992 614.299 486.163 613.889 486.505C613.488 486.847 613.288 487.315 613.288 487.911H609.055C609.055 486.993 609.338 486.144 609.904 485.362C610.471 484.581 611.271 483.971 612.307 483.531C613.342 483.082 614.504 482.857 615.793 482.857C617.746 482.857 619.294 483.351 620.437 484.337C621.589 485.313 622.165 486.69 622.165 488.468V495.338C622.175 496.842 622.385 497.979 622.795 498.751V499H618.518ZM615.017 496.056C615.642 496.056 616.218 495.919 616.745 495.646C617.272 495.362 617.663 494.986 617.917 494.518V491.793H616.335C614.216 491.793 613.088 492.525 612.951 493.99L612.937 494.239C612.937 494.767 613.122 495.201 613.493 495.543C613.864 495.885 614.372 496.056 615.017 496.056ZM639.685 491.222C639.685 493.663 639.128 495.621 638.015 497.096C636.911 498.561 635.417 499.293 633.532 499.293C631.931 499.293 630.637 498.736 629.65 497.623V505.094H625.417V483.15H629.343L629.489 484.703C630.515 483.473 631.853 482.857 633.503 482.857C635.456 482.857 636.975 483.58 638.059 485.025C639.143 486.471 639.685 488.463 639.685 491.002V491.222ZM635.451 490.914C635.451 489.439 635.188 488.302 634.66 487.501C634.143 486.7 633.386 486.3 632.39 486.3C631.062 486.3 630.148 486.808 629.65 487.823V494.312C630.168 495.357 631.091 495.88 632.419 495.88C634.44 495.88 635.451 494.225 635.451 490.914Z" fill="white"/>
<path d="M1168 1H998V271H1168V1Z" fill="white" stroke="#DDDDDD" stroke-width="2"/>
<rect x="1039" y="21" width="122" height="53" rx="5" fill="#01D0FE" fill-opacity="0.99"/>
<rect x="1006" y="21" width="24" height="41" rx="5" fill="#01D0FE" fill-opacity="0.99"/>
<rect x="1039" y="82" width="122" height="53" rx="5" fill="#01D0FE" fill-opacity="0.99"/>
<rect x="1006" y="82" width="24" height="41" rx="5" fill="#01D0FE" fill-opacity="0.99"/>
<rect x="1039" y="143" width="122" height="53" rx="5" fill="#01D0FE" fill-opacity="0.99"/>
<rect x="1039" y="205" width="122" height="53" rx="5" fill="#01D0FE" fill-opacity="0.99"/>
<rect x="1006" y="143" width="24" height="41" rx="5" fill="#01D0FE" fill-opacity="0.99"/>
<rect x="1006" y="205" width="24" height="41" rx="5" fill="#01D0FE" fill-opacity="0.99"/>
<path d="M1168 785H998V1055H1168V785Z" fill="white" stroke="#DDDDDD" stroke-width="2"/>
<rect x="1002" y="791" width="75" height="260" fill="#01D0FE" fill-opacity="0.99"/>
<circle cx="1039.5" cy="848.5" r="28.5" fill="white"/>
<circle cx="1039.5" cy="919.5" r="28.5" fill="white"/>
<circle cx="1039.5" cy="990.5" r="28.5" fill="white"/>
<path d="M1168 398H998V668H1168V398Z" fill="white" stroke="#DDDDDD" stroke-width="2"/>
<path d="M1126 629H1040C1034.48 629 1030 633.477 1030 639C1030 644.523 1034.48 649 1040 649H1126C1131.52 649 1136 644.523 1136 639C1136 633.477 1131.52 629 1126 629Z" fill="#01D0FE" fill-opacity="0.99"/>
<rect x="1006" y="407" width="155" height="177" fill="#01D0FE" fill-opacity="0.99"/>
<rect x="1016" y="536" width="49" height="74" rx="5" fill="white"/>
<rect x="1073" y="416" width="79" height="15" rx="5" fill="white"/>
<circle cx="1144.5" cy="523.5" r="9.5" fill="white"/>
<circle cx="1144.5" cy="545.5" r="9.5" fill="white"/>
<circle cx="1144.5" cy="567.5" r="9.5" fill="white"/>
<path d="M767.975 93.9727H770.392V97.3857H767.975V102H763.741V97.3857H754.996L754.806 94.7197L763.697 80.6719H767.975V93.9727ZM759.024 93.9727H763.741V86.4434L763.463 86.9268L759.024 93.9727ZM773.072 99.9199C773.072 99.2461 773.297 98.6992 773.746 98.2793C774.205 97.8594 774.776 97.6494 775.46 97.6494C776.153 97.6494 776.725 97.8594 777.174 98.2793C777.633 98.6992 777.862 99.2461 777.862 99.9199C777.862 100.584 777.638 101.126 777.188 101.546C776.739 101.956 776.163 102.161 775.46 102.161C774.767 102.161 774.195 101.956 773.746 101.546C773.297 101.126 773.072 100.584 773.072 99.9199ZM806.207 99.3047C805.416 100.252 804.298 100.989 802.853 101.517C801.407 102.034 799.806 102.293 798.048 102.293C796.202 102.293 794.581 101.893 793.185 101.092C791.798 100.281 790.724 99.1094 789.962 97.5762C789.21 96.043 788.824 94.2412 788.805 92.1709V90.7207C788.805 88.5918 789.161 86.751 789.874 85.1982C790.597 83.6357 791.632 82.4443 792.979 81.624C794.337 80.7939 795.924 80.3789 797.74 80.3789C800.27 80.3789 802.247 80.9844 803.673 82.1953C805.099 83.3965 805.943 85.1494 806.207 87.4541H801.93C801.734 86.2334 801.3 85.3398 800.626 84.7734C799.962 84.207 799.044 83.9238 797.872 83.9238C796.378 83.9238 795.24 84.4854 794.459 85.6084C793.678 86.7314 793.282 88.4014 793.272 90.6182V91.9805C793.272 94.2168 793.697 95.9062 794.547 97.0488C795.396 98.1914 796.642 98.7627 798.282 98.7627C799.933 98.7627 801.109 98.4111 801.812 97.708V94.0312H797.813V90.7939H806.207V99.3047ZM813.971 102H809.723V86.1504H813.971V102ZM809.474 82.0488C809.474 81.4141 809.684 80.8916 810.104 80.4814C810.533 80.0713 811.114 79.8662 811.847 79.8662C812.569 79.8662 813.146 80.0713 813.575 80.4814C814.005 80.8916 814.22 81.4141 814.22 82.0488C814.22 82.6934 814 83.2207 813.561 83.6309C813.131 84.041 812.56 84.2461 811.847 84.2461C811.134 84.2461 810.558 84.041 810.118 83.6309C809.688 83.2207 809.474 82.6934 809.474 82.0488ZM816.856 93.958C816.856 91.5264 817.433 89.5684 818.585 88.084C819.747 86.5996 821.31 85.8574 823.272 85.8574C825.011 85.8574 826.363 86.4531 827.33 87.6445L827.506 86.1504H831.344V101.473C831.344 102.859 831.026 104.065 830.392 105.091C829.767 106.116 828.883 106.897 827.74 107.435C826.598 107.972 825.26 108.24 823.727 108.24C822.564 108.24 821.432 108.006 820.328 107.537C819.225 107.078 818.39 106.482 817.823 105.75L819.698 103.172C820.753 104.354 822.032 104.944 823.536 104.944C824.659 104.944 825.533 104.642 826.158 104.036C826.783 103.44 827.096 102.591 827.096 101.487V100.638C826.119 101.741 824.835 102.293 823.243 102.293C821.339 102.293 819.796 101.551 818.614 100.066C817.442 98.5723 816.856 96.5947 816.856 94.1338V93.958ZM821.09 94.2656C821.09 95.7012 821.378 96.8291 821.954 97.6494C822.53 98.46 823.321 98.8652 824.327 98.8652C825.616 98.8652 826.539 98.3818 827.096 97.415V90.75C826.529 89.7832 825.616 89.2998 824.356 89.2998C823.341 89.2998 822.54 89.7148 821.954 90.5449C821.378 91.375 821.09 92.6152 821.09 94.2656ZM843.194 97.6201C843.194 97.1025 842.936 96.6973 842.418 96.4043C841.91 96.1016 841.09 95.833 839.957 95.5986C836.188 94.8076 834.303 93.2061 834.303 90.7939C834.303 89.3877 834.884 88.2158 836.046 87.2783C837.218 86.3311 838.746 85.8574 840.631 85.8574C842.643 85.8574 844.249 86.3311 845.45 87.2783C846.661 88.2256 847.267 89.4561 847.267 90.9697H843.033C843.033 90.3643 842.838 89.8662 842.447 89.4756C842.057 89.0752 841.446 88.875 840.616 88.875C839.903 88.875 839.352 89.0361 838.961 89.3584C838.57 89.6807 838.375 90.0908 838.375 90.5889C838.375 91.0576 838.595 91.4385 839.034 91.7314C839.483 92.0146 840.235 92.2637 841.29 92.4785C842.345 92.6836 843.233 92.918 843.956 93.1816C846.192 94.002 847.311 95.4229 847.311 97.4443C847.311 98.8896 846.69 100.062 845.45 100.96C844.21 101.849 842.608 102.293 840.646 102.293C839.317 102.293 838.136 102.059 837.101 101.59C836.075 101.111 835.27 100.462 834.684 99.6416C834.098 98.8115 833.805 97.918 833.805 96.9609H837.818C837.857 97.7129 838.136 98.2891 838.653 98.6895C839.171 99.0898 839.864 99.29 840.733 99.29C841.544 99.29 842.154 99.1387 842.564 98.8359C842.984 98.5234 843.194 98.1182 843.194 97.6201Z" fill="white"/>
<path d="M1011.97 339.973H1014.39V343.386H1011.97V348H1007.74V343.386H998.996L998.806 340.72L1007.7 326.672H1011.97V339.973ZM1003.02 339.973H1007.74V332.443L1007.46 332.927L1003.02 339.973ZM1017.07 345.92C1017.07 345.246 1017.3 344.699 1017.75 344.279C1018.21 343.859 1018.78 343.649 1019.46 343.649C1020.15 343.649 1020.72 343.859 1021.17 344.279C1021.63 344.699 1021.86 345.246 1021.86 345.92C1021.86 346.584 1021.64 347.126 1021.19 347.546C1020.74 347.956 1020.16 348.161 1019.46 348.161C1018.77 348.161 1018.2 347.956 1017.75 347.546C1017.3 347.126 1017.07 346.584 1017.07 345.92ZM1033.33 348V326.672H1039.89C1041.77 326.672 1043.44 327.097 1044.92 327.946C1046.4 328.786 1047.56 329.987 1048.39 331.55C1049.22 333.103 1049.64 334.87 1049.64 336.853V337.834C1049.64 339.816 1049.23 341.579 1048.41 343.122C1047.59 344.665 1046.45 345.861 1044.96 346.711C1043.48 347.561 1041.8 347.99 1039.94 348H1033.33ZM1037.73 330.231V344.47H1039.85C1041.57 344.47 1042.88 343.908 1043.79 342.785C1044.7 341.662 1045.16 340.056 1045.18 337.966V336.838C1045.18 334.67 1044.73 333.029 1043.83 331.916C1042.94 330.793 1041.62 330.231 1039.89 330.231H1037.73ZM1059.86 348.293C1057.54 348.293 1055.64 347.58 1054.18 346.154C1052.72 344.729 1051.99 342.829 1051.99 340.456V340.046C1051.99 338.454 1052.3 337.033 1052.92 335.783C1053.53 334.523 1054.4 333.557 1055.52 332.883C1056.66 332.199 1057.95 331.857 1059.39 331.857C1061.56 331.857 1063.26 332.541 1064.5 333.908C1065.75 335.275 1066.38 337.214 1066.38 339.724V341.452H1056.29C1056.42 342.487 1056.83 343.317 1057.52 343.942C1058.21 344.567 1059.08 344.88 1060.14 344.88C1061.77 344.88 1063.04 344.289 1063.96 343.107L1066.04 345.437C1065.41 346.335 1064.55 347.038 1063.46 347.546C1062.38 348.044 1061.18 348.293 1059.86 348.293ZM1059.38 335.285C1058.54 335.285 1057.85 335.568 1057.33 336.135C1056.81 336.701 1056.48 337.512 1056.33 338.566H1062.22V338.229C1062.2 337.292 1061.95 336.569 1061.46 336.062C1060.97 335.544 1060.28 335.285 1059.38 335.285ZM1073.86 328.254V332.15H1076.57V335.256H1073.86V343.166C1073.86 343.752 1073.98 344.172 1074.2 344.426C1074.43 344.68 1074.86 344.807 1075.49 344.807C1075.96 344.807 1076.37 344.772 1076.74 344.704V347.912C1075.91 348.166 1075.05 348.293 1074.17 348.293C1071.2 348.293 1069.69 346.794 1069.63 343.796V335.256H1067.32V332.15H1069.63V328.254H1073.86ZM1088.12 348C1087.92 347.619 1087.78 347.146 1087.69 346.579C1086.67 347.722 1085.33 348.293 1083.69 348.293C1082.14 348.293 1080.85 347.844 1079.83 346.945C1078.81 346.047 1078.3 344.914 1078.3 343.547C1078.3 341.867 1078.92 340.578 1080.16 339.68C1081.41 338.781 1083.21 338.327 1085.57 338.317H1087.52V337.409C1087.52 336.677 1087.33 336.091 1086.95 335.651C1086.57 335.212 1085.98 334.992 1085.17 334.992C1084.46 334.992 1083.9 335.163 1083.49 335.505C1083.09 335.847 1082.89 336.315 1082.89 336.911H1078.65C1078.65 335.993 1078.94 335.144 1079.5 334.362C1080.07 333.581 1080.87 332.971 1081.91 332.531C1082.94 332.082 1084.1 331.857 1085.39 331.857C1087.35 331.857 1088.89 332.351 1090.04 333.337C1091.19 334.313 1091.76 335.69 1091.76 337.468V344.338C1091.77 345.842 1091.98 346.979 1092.39 347.751V348H1088.12ZM1084.62 345.056C1085.24 345.056 1085.82 344.919 1086.34 344.646C1086.87 344.362 1087.26 343.986 1087.52 343.518V340.793H1085.93C1083.82 340.793 1082.69 341.525 1082.55 342.99L1082.54 343.239C1082.54 343.767 1082.72 344.201 1083.09 344.543C1083.46 344.885 1083.97 345.056 1084.62 345.056ZM1099.48 348H1095.24V332.15H1099.48V348ZM1094.99 328.049C1094.99 327.414 1095.2 326.892 1095.62 326.481C1096.05 326.071 1096.63 325.866 1097.36 325.866C1098.08 325.866 1098.66 326.071 1099.09 326.481C1099.52 326.892 1099.73 327.414 1099.73 328.049C1099.73 328.693 1099.51 329.221 1099.07 329.631C1098.64 330.041 1098.07 330.246 1097.36 330.246C1096.65 330.246 1096.07 330.041 1095.63 329.631C1095.2 329.221 1094.99 328.693 1094.99 328.049ZM1107.45 348H1103.21V325.5H1107.45V348Z" fill="white"/>
<path d="M767.975 792.973H770.392V796.386H767.975V801H763.741V796.386H754.996L754.806 793.72L763.697 779.672H767.975V792.973ZM759.024 792.973H763.741V785.443L763.463 785.927L759.024 792.973ZM773.072 798.92C773.072 798.246 773.297 797.699 773.746 797.279C774.205 796.859 774.776 796.649 775.46 796.649C776.153 796.649 776.725 796.859 777.174 797.279C777.633 797.699 777.862 798.246 777.862 798.92C777.862 799.584 777.638 800.126 777.188 800.546C776.739 800.956 776.163 801.161 775.46 801.161C774.767 801.161 774.195 800.956 773.746 800.546C773.297 800.126 773.072 799.584 773.072 798.92ZM797.213 795.712L802.047 779.672H806.939L799.513 801H794.928L787.53 779.672H792.408L797.213 795.712ZM815.333 801.293C813.009 801.293 811.114 800.58 809.649 799.154C808.194 797.729 807.467 795.829 807.467 793.456V793.046C807.467 791.454 807.774 790.033 808.39 788.783C809.005 787.523 809.874 786.557 810.997 785.883C812.13 785.199 813.419 784.857 814.864 784.857C817.032 784.857 818.736 785.541 819.977 786.908C821.227 788.275 821.852 790.214 821.852 792.724V794.452H811.759C811.896 795.487 812.306 796.317 812.989 796.942C813.683 797.567 814.557 797.88 815.611 797.88C817.242 797.88 818.517 797.289 819.435 796.107L821.515 798.437C820.88 799.335 820.021 800.038 818.937 800.546C817.853 801.044 816.651 801.293 815.333 801.293ZM814.85 788.285C814.01 788.285 813.326 788.568 812.799 789.135C812.281 789.701 811.949 790.512 811.803 791.566H817.691V791.229C817.672 790.292 817.418 789.569 816.93 789.062C816.441 788.544 815.748 788.285 814.85 788.285ZM828.165 785.15L828.297 786.981C829.43 785.565 830.948 784.857 832.853 784.857C834.532 784.857 835.782 785.351 836.603 786.337C837.423 787.323 837.843 788.798 837.862 790.761V801H833.629V790.863C833.629 789.965 833.434 789.315 833.043 788.915C832.652 788.505 832.003 788.3 831.095 788.3C829.903 788.3 829.01 788.808 828.414 789.823V801H824.181V785.15H828.165ZM850.577 799.389C849.532 800.658 848.087 801.293 846.241 801.293C844.542 801.293 843.243 800.805 842.345 799.828C841.456 798.852 841.002 797.421 840.982 795.536V785.15H845.216V795.39C845.216 797.04 845.968 797.865 847.472 797.865C848.907 797.865 849.894 797.367 850.431 796.371V785.15H854.679V801H850.694L850.577 799.389ZM865.167 801.293C862.843 801.293 860.948 800.58 859.483 799.154C858.028 797.729 857.301 795.829 857.301 793.456V793.046C857.301 791.454 857.608 790.033 858.224 788.783C858.839 787.523 859.708 786.557 860.831 785.883C861.964 785.199 863.253 784.857 864.698 784.857C866.866 784.857 868.57 785.541 869.811 786.908C871.061 788.275 871.686 790.214 871.686 792.724V794.452H861.593C861.729 795.487 862.14 796.317 862.823 796.942C863.517 797.567 864.391 797.88 865.445 797.88C867.076 797.88 868.351 797.289 869.269 796.107L871.349 798.437C870.714 799.335 869.854 800.038 868.771 800.546C867.687 801.044 866.485 801.293 865.167 801.293ZM864.684 788.285C863.844 788.285 863.16 788.568 862.633 789.135C862.115 789.701 861.783 790.512 861.637 791.566H867.525V791.229C867.506 790.292 867.252 789.569 866.764 789.062C866.275 788.544 865.582 788.285 864.684 788.285ZM882.687 796.62C882.687 796.103 882.428 795.697 881.91 795.404C881.402 795.102 880.582 794.833 879.449 794.599C875.68 793.808 873.795 792.206 873.795 789.794C873.795 788.388 874.376 787.216 875.538 786.278C876.71 785.331 878.238 784.857 880.123 784.857C882.135 784.857 883.741 785.331 884.942 786.278C886.153 787.226 886.759 788.456 886.759 789.97H882.525C882.525 789.364 882.33 788.866 881.939 788.476C881.549 788.075 880.938 787.875 880.108 787.875C879.396 787.875 878.844 788.036 878.453 788.358C878.062 788.681 877.867 789.091 877.867 789.589C877.867 790.058 878.087 790.438 878.526 790.731C878.976 791.015 879.728 791.264 880.782 791.479C881.837 791.684 882.726 791.918 883.448 792.182C885.685 793.002 886.803 794.423 886.803 796.444C886.803 797.89 886.183 799.062 884.942 799.96C883.702 800.849 882.101 801.293 880.138 801.293C878.81 801.293 877.628 801.059 876.593 800.59C875.567 800.111 874.762 799.462 874.176 798.642C873.59 797.812 873.297 796.918 873.297 795.961H877.311C877.35 796.713 877.628 797.289 878.146 797.689C878.663 798.09 879.356 798.29 880.226 798.29C881.036 798.29 881.646 798.139 882.057 797.836C882.477 797.523 882.687 797.118 882.687 796.62Z" fill="white"/>
<path d="M1550 1H1380V271H1550V1Z" fill="white" stroke="#DDDDDD" stroke-width="2"/>
<path fill-rule="evenodd" clip-rule="evenodd" d="M1397.68 28H1532.32C1533.25 28 1534 28.7534 1534 29.6829V204.707C1534 205.636 1533.25 206.39 1532.32 206.39H1522.22C1522.22 203.602 1519.96 201.342 1517.17 201.342C1514.38 201.342 1512.12 203.602 1512.12 206.39H1510.44C1510.44 203.602 1508.18 201.342 1505.39 201.342C1502.6 201.342 1500.34 203.602 1500.34 206.39H1498.66C1498.66 203.602 1496.4 201.342 1493.61 201.342C1490.82 201.342 1488.56 203.602 1488.56 206.39H1486.88C1486.88 203.602 1484.62 201.342 1481.83 201.342C1479.04 201.342 1476.78 203.602 1476.78 206.39H1475.1C1475.1 203.602 1472.84 201.342 1470.05 201.342C1467.26 201.342 1465 203.602 1465 206.39H1463.32C1463.32 203.602 1461.06 201.342 1458.27 201.342C1455.48 201.342 1453.22 203.602 1453.22 206.39H1451.54C1451.54 203.602 1449.28 201.342 1446.49 201.342C1443.7 201.342 1441.44 203.602 1441.44 206.39H1439.76C1439.76 203.602 1437.5 201.342 1434.71 201.342C1431.92 201.342 1429.66 203.602 1429.66 206.39H1427.98C1427.98 203.602 1425.72 201.342 1422.93 201.342C1420.14 201.342 1417.88 203.602 1417.88 206.39H1416.2C1416.2 203.602 1413.93 201.342 1411.15 201.342C1408.36 201.342 1406.1 203.602 1406.1 206.39H1397.68C1396.75 206.39 1396 205.636 1396 204.707V29.6829C1396 28.7534 1396.75 28 1397.68 28Z" fill="#DEE7EE"/>
<path d="M1503.71 86.8984H1426.29C1425.36 86.8984 1424.61 87.6519 1424.61 88.5814V90.2643C1424.61 91.1937 1425.36 91.9472 1426.29 91.9472H1503.71C1504.64 91.9472 1505.39 91.1937 1505.39 90.2643V88.5814C1505.39 87.6519 1504.64 86.8984 1503.71 86.8984Z" fill="#B8C5D0"/>
<path d="M1493.61 97H1436.39C1435.46 97 1434.71 97.7535 1434.71 98.6829V100.366C1434.71 101.295 1435.46 102.049 1436.39 102.049H1493.61C1494.54 102.049 1495.29 101.295 1495.29 100.366V98.6829C1495.29 97.7535 1494.54 97 1493.61 97Z" fill="#B8C5D0"/>
<path d="M1491.93 107.102H1439.76C1438.83 107.102 1438.07 107.855 1438.07 108.784V110.467C1438.07 111.397 1438.83 112.15 1439.76 112.15H1491.93C1492.86 112.15 1493.61 111.397 1493.61 110.467V108.784C1493.61 107.855 1492.86 107.102 1491.93 107.102Z" fill="#B8C5D0"/>
<path d="M1465 176.106C1478.94 176.106 1490.24 164.803 1490.24 150.862C1490.24 136.92 1478.94 125.618 1465 125.618C1451.06 125.618 1439.76 136.92 1439.76 150.862C1439.76 164.803 1451.06 176.106 1465 176.106Z" fill="#89969F"/>
<path fill-rule="evenodd" clip-rule="evenodd" d="M1462.61 160.127L1462.58 160.161L1454.9 152.049L1458.89 147.842L1463.22 152.402L1472.66 142.439L1475.22 145.149V145.553H1475.6L1476.78 146.798L1463.38 160.952L1462.61 160.127Z" fill="#B8C5D0"/>
<path d="M1451.57 72.3896C1451.57 71.5889 1451.35 70.9541 1450.9 70.4854C1450.46 70.0068 1449.71 69.5674 1448.64 69.167C1447.58 68.7666 1446.66 68.3711 1445.89 67.9805C1445.12 67.5801 1444.45 67.126 1443.9 66.6182C1443.35 66.1006 1442.92 65.4951 1442.61 64.8018C1442.3 64.1084 1442.15 63.2832 1442.15 62.3262C1442.15 60.6758 1442.68 59.3232 1443.74 58.2686C1444.79 57.2139 1446.19 56.5986 1447.94 56.4229V53.2881H1450.28V56.4668C1452.01 56.7109 1453.36 57.4336 1454.34 58.6348C1455.32 59.8262 1455.81 61.374 1455.81 63.2783H1451.57C1451.57 62.1064 1451.33 61.2324 1450.84 60.6562C1450.36 60.0703 1449.72 59.7773 1448.91 59.7773C1448.11 59.7773 1447.49 60.0068 1447.05 60.4658C1446.61 60.915 1446.39 61.54 1446.39 62.3408C1446.39 63.083 1446.6 63.6787 1447.03 64.1279C1447.46 64.5771 1448.26 65.0361 1449.42 65.5049C1450.59 65.9736 1451.55 66.418 1452.3 66.8379C1453.06 67.248 1453.69 67.7168 1454.21 68.2441C1454.73 68.7617 1455.12 69.3574 1455.4 70.0312C1455.67 70.6953 1455.81 71.4717 1455.81 72.3604C1455.81 74.0205 1455.29 75.3682 1454.25 76.4033C1453.22 77.4385 1451.79 78.0488 1449.98 78.2344V81.1494H1447.65V78.249C1445.64 78.0342 1444.09 77.3262 1442.99 76.125C1441.89 74.9141 1441.35 73.3076 1441.35 71.3057H1445.58C1445.58 72.4678 1445.85 73.3613 1446.4 73.9863C1446.96 74.6016 1447.75 74.9092 1448.79 74.9092C1449.65 74.9092 1450.33 74.6846 1450.83 74.2354C1451.32 73.7764 1451.57 73.1611 1451.57 72.3896ZM1471.2 69.9727H1473.62V73.3857H1471.2V78H1466.97V73.3857H1458.22L1458.03 70.7197L1466.92 56.6719H1471.2V69.9727ZM1462.25 69.9727H1466.97V62.4434L1466.69 62.9268L1462.25 69.9727ZM1490.26 69.1816C1490.26 72.1309 1489.65 74.3867 1488.43 75.9492C1487.21 77.5117 1485.42 78.293 1483.07 78.293C1480.74 78.293 1478.96 77.5264 1477.73 75.9932C1476.5 74.46 1475.87 72.2627 1475.84 69.4014V65.4756C1475.84 62.4971 1476.46 60.2363 1477.69 58.6934C1478.93 57.1504 1480.71 56.3789 1483.04 56.3789C1485.36 56.3789 1487.14 57.1455 1488.37 58.6787C1489.6 60.2021 1490.23 62.3945 1490.26 65.2559V69.1816ZM1486.03 64.875C1486.03 63.1074 1485.78 61.8232 1485.29 61.0225C1484.81 60.2119 1484.06 59.8066 1483.04 59.8066C1482.04 59.8066 1481.3 60.1924 1480.83 60.9639C1480.36 61.7256 1480.11 62.9219 1480.08 64.5527V69.7383C1480.08 71.4766 1480.31 72.7705 1480.78 73.6201C1481.26 74.46 1482.02 74.8799 1483.07 74.8799C1484.1 74.8799 1484.85 74.4746 1485.31 73.6641C1485.77 72.8535 1486.01 71.6133 1486.03 69.9434V64.875Z" fill="#89969F"/>
<path d="M1550 785H1380V1055H1550V785Z" fill="white" stroke="#DDDDDD" stroke-width="2"/>
<path d="M1520 1020H1410C1404.48 1020 1400 1024.48 1400 1030C1400 1035.52 1404.48 1040 1410 1040H1520C1525.52 1040 1530 1035.52 1530 1030C1530 1024.48 1525.52 1020 1520 1020Z" fill="#01D0FE" fill-opacity="0.99"/>
<path d="M1529 981H1401V999H1529V981Z" stroke="#DDDDDD" stroke-width="2"/>
<path d="M1529 951H1401V969H1529V951Z" stroke="#DDDDDD" stroke-width="2"/>
<path d="M1529 921H1401V939H1529V921Z" stroke="#DDDDDD" stroke-width="2"/>
<path d="M1529 891H1401V909H1529V891Z" stroke="#DDDDDD" stroke-width="2"/>
<path d="M1529 861H1401V879H1529V861Z" stroke="#DDDDDD" stroke-width="2"/>
<path d="M1529 831H1401V849H1529V831Z" stroke="#DDDDDD" stroke-width="2"/>
<path d="M1497 804H1434V812H1497V804Z" fill="#868686"/>
<path d="M1551 398H1381V668H1551V398Z" fill="white" stroke="#DDDDDD" stroke-width="2"/>
<path d="M1506 629H1426C1420.48 629 1416 633.477 1416 639C1416 644.523 1420.48 649 1426 649H1506C1511.52 649 1516 644.523 1516 639C1516 633.477 1511.52 629 1506 629Z" fill="#01D0FE" fill-opacity="0.99"/>
<path d="M1486 572H1447V577H1486V572Z" fill="#DDDDDD"/>
<path d="M1494 562H1439V567H1494V562Z" fill="#DDDDDD"/>
<path fill-rule="evenodd" clip-rule="evenodd" d="M1466 542C1483.12 542 1497 528.121 1497 511C1497 493.879 1483.12 480 1466 480C1448.88 480 1435 493.879 1435 511C1435 528.121 1448.88 542 1466 542Z" stroke="#01D0FE" stroke-opacity="0.99" stroke-width="2"/>
<path fill-rule="evenodd" clip-rule="evenodd" d="M1451.92 509.25L1468.15 497.474C1469.71 496.337 1472 497.375 1472 499.222L1472 522.778C1472 524.626 1469.71 525.663 1468.15 524.526L1451.92 512.747C1450.69 511.859 1450.69 510.138 1451.92 509.25Z" stroke="#01D0FE" stroke-opacity="0.99" stroke-width="2"/>
<path d="M1498 419H1435V427H1498V419Z" fill="#868686"/>
<path d="M1213.08 845.512L1214.31 834.672H1226.26V838.202H1217.78L1217.25 842.787C1218.26 842.25 1219.33 841.981 1220.46 841.981C1222.49 841.981 1224.09 842.611 1225.24 843.871C1226.39 845.131 1226.97 846.894 1226.97 849.159C1226.97 850.536 1226.67 851.771 1226.09 852.865C1225.51 853.949 1224.68 854.794 1223.6 855.399C1222.51 855.995 1221.23 856.293 1219.76 856.293C1218.47 856.293 1217.27 856.034 1216.17 855.517C1215.07 854.989 1214.19 854.252 1213.55 853.305C1212.91 852.357 1212.58 851.278 1212.54 850.067H1216.73C1216.82 850.956 1217.12 851.649 1217.65 852.147C1218.19 852.636 1218.89 852.88 1219.75 852.88C1220.7 852.88 1221.44 852.538 1221.96 851.854C1222.47 851.161 1222.73 850.185 1222.73 848.925C1222.73 847.714 1222.44 846.786 1221.84 846.142C1221.24 845.497 1220.4 845.175 1219.31 845.175C1218.3 845.175 1217.48 845.438 1216.86 845.966L1216.45 846.347L1213.08 845.512ZM1230.07 853.92C1230.07 853.246 1230.3 852.699 1230.75 852.279C1231.21 851.859 1231.78 851.649 1232.46 851.649C1233.15 851.649 1233.72 851.859 1234.17 852.279C1234.63 852.699 1234.86 853.246 1234.86 853.92C1234.86 854.584 1234.64 855.126 1234.19 855.546C1233.74 855.956 1233.16 856.161 1232.46 856.161C1231.77 856.161 1231.2 855.956 1230.75 855.546C1230.3 855.126 1230.07 854.584 1230.07 853.92ZM1263.08 848.896C1262.91 851.19 1262.06 852.997 1260.53 854.315C1259 855.634 1256.99 856.293 1254.49 856.293C1251.76 856.293 1249.6 855.375 1248.03 853.539C1246.47 851.693 1245.69 849.164 1245.69 845.951V844.647C1245.69 842.597 1246.05 840.79 1246.77 839.228C1247.49 837.665 1248.52 836.469 1249.86 835.639C1251.21 834.799 1252.77 834.379 1254.55 834.379C1257.01 834.379 1258.99 835.038 1260.5 836.356C1262 837.675 1262.87 839.525 1263.1 841.908H1258.71C1258.6 840.531 1258.22 839.535 1257.55 838.92C1256.9 838.295 1255.9 837.982 1254.55 837.982C1253.08 837.982 1251.99 838.51 1251.25 839.564C1250.53 840.609 1250.16 842.235 1250.14 844.442V846.054C1250.14 848.358 1250.49 850.043 1251.18 851.107C1251.88 852.172 1252.99 852.704 1254.49 852.704C1255.85 852.704 1256.86 852.396 1257.52 851.781C1258.2 851.156 1258.58 850.194 1258.68 848.896H1263.08ZM1274.59 844.12C1274.01 844.042 1273.5 844.003 1273.07 844.003C1271.46 844.003 1270.41 844.545 1269.92 845.629V856H1265.68V840.15H1269.68L1269.8 842.04C1270.65 840.585 1271.83 839.857 1273.33 839.857C1273.8 839.857 1274.24 839.921 1274.65 840.048L1274.59 844.12ZM1283.64 856.293C1281.32 856.293 1279.42 855.58 1277.96 854.154C1276.5 852.729 1275.78 850.829 1275.78 848.456V848.046C1275.78 846.454 1276.08 845.033 1276.7 843.783C1277.31 842.523 1278.18 841.557 1279.31 840.883C1280.44 840.199 1281.73 839.857 1283.17 839.857C1285.34 839.857 1287.04 840.541 1288.29 841.908C1289.54 843.275 1290.16 845.214 1290.16 847.724V849.452H1280.07C1280.2 850.487 1280.61 851.317 1281.3 851.942C1281.99 852.567 1282.87 852.88 1283.92 852.88C1285.55 852.88 1286.83 852.289 1287.74 851.107L1289.82 853.437C1289.19 854.335 1288.33 855.038 1287.25 855.546C1286.16 856.044 1284.96 856.293 1283.64 856.293ZM1283.16 843.285C1282.32 843.285 1281.63 843.568 1281.11 844.135C1280.59 844.701 1280.26 845.512 1280.11 846.566H1286V846.229C1285.98 845.292 1285.73 844.569 1285.24 844.062C1284.75 843.544 1284.06 843.285 1283.16 843.285ZM1301.76 856C1301.57 855.619 1301.42 855.146 1301.34 854.579C1300.31 855.722 1298.98 856.293 1297.34 856.293C1295.79 856.293 1294.5 855.844 1293.47 854.945C1292.46 854.047 1291.95 852.914 1291.95 851.547C1291.95 849.867 1292.57 848.578 1293.81 847.68C1295.06 846.781 1296.86 846.327 1299.21 846.317H1301.16V845.409C1301.16 844.677 1300.97 844.091 1300.59 843.651C1300.22 843.212 1299.63 842.992 1298.82 842.992C1298.1 842.992 1297.54 843.163 1297.13 843.505C1296.73 843.847 1296.53 844.315 1296.53 844.911H1292.3C1292.3 843.993 1292.58 843.144 1293.15 842.362C1293.71 841.581 1294.52 840.971 1295.55 840.531C1296.59 840.082 1297.75 839.857 1299.04 839.857C1300.99 839.857 1302.54 840.351 1303.68 841.337C1304.83 842.313 1305.41 843.69 1305.41 845.468V852.338C1305.42 853.842 1305.63 854.979 1306.04 855.751V856H1301.76ZM1298.26 853.056C1298.89 853.056 1299.46 852.919 1299.99 852.646C1300.52 852.362 1300.91 851.986 1301.16 851.518V848.793H1299.58C1297.46 848.793 1296.33 849.525 1296.2 850.99L1296.18 851.239C1296.18 851.767 1296.37 852.201 1296.74 852.543C1297.11 852.885 1297.62 853.056 1298.26 853.056ZM1313.73 836.254V840.15H1316.44V843.256H1313.73V851.166C1313.73 851.752 1313.84 852.172 1314.07 852.426C1314.29 852.68 1314.72 852.807 1315.36 852.807C1315.82 852.807 1316.24 852.772 1316.6 852.704V855.912C1315.77 856.166 1314.92 856.293 1314.04 856.293C1311.07 856.293 1309.55 854.794 1309.5 851.796V843.256H1307.18V840.15H1309.5V836.254H1313.73ZM1326.09 856.293C1323.77 856.293 1321.87 855.58 1320.41 854.154C1318.95 852.729 1318.23 850.829 1318.23 848.456V848.046C1318.23 846.454 1318.53 845.033 1319.15 843.783C1319.76 842.523 1320.63 841.557 1321.76 840.883C1322.89 840.199 1324.18 839.857 1325.62 839.857C1327.79 839.857 1329.5 840.541 1330.74 841.908C1331.99 843.275 1332.61 845.214 1332.61 847.724V849.452H1322.52C1322.66 850.487 1323.07 851.317 1323.75 851.942C1324.44 852.567 1325.32 852.88 1326.37 852.88C1328 852.88 1329.28 852.289 1330.19 851.107L1332.27 853.437C1331.64 854.335 1330.78 855.038 1329.7 855.546C1328.61 856.044 1327.41 856.293 1326.09 856.293ZM1325.61 843.285C1324.77 843.285 1324.09 843.568 1323.56 844.135C1323.04 844.701 1322.71 845.512 1322.56 846.566H1328.45V846.229C1328.43 845.292 1328.18 844.569 1327.69 844.062C1327.2 843.544 1326.51 843.285 1325.61 843.285ZM1225.74 881.757H1217.3V887.47H1227.2V891H1212.9V869.672H1227.17V873.231H1217.3V878.314H1225.74V881.757ZM1235.05 885.829L1238 875.15H1242.42L1237.07 891H1233.03L1227.68 875.15H1232.11L1235.05 885.829ZM1251.39 891.293C1249.06 891.293 1247.17 890.58 1245.7 889.154C1244.25 887.729 1243.52 885.829 1243.52 883.456V883.046C1243.52 881.454 1243.83 880.033 1244.44 878.783C1245.06 877.523 1245.93 876.557 1247.05 875.883C1248.18 875.199 1249.47 874.857 1250.92 874.857C1253.08 874.857 1254.79 875.541 1256.03 876.908C1257.28 878.275 1257.9 880.214 1257.9 882.724V884.452H1247.81C1247.95 885.487 1248.36 886.317 1249.04 886.942C1249.74 887.567 1250.61 887.88 1251.66 887.88C1253.29 887.88 1254.57 887.289 1255.49 886.107L1257.57 888.437C1256.93 889.335 1256.07 890.038 1254.99 890.546C1253.91 891.044 1252.7 891.293 1251.39 891.293ZM1250.9 878.285C1250.06 878.285 1249.38 878.568 1248.85 879.135C1248.33 879.701 1248 880.512 1247.86 881.566H1253.74V881.229C1253.72 880.292 1253.47 879.569 1252.98 879.062C1252.49 878.544 1251.8 878.285 1250.9 878.285ZM1264.22 875.15L1264.35 876.981C1265.48 875.565 1267 874.857 1268.91 874.857C1270.58 874.857 1271.83 875.351 1272.66 876.337C1273.48 877.323 1273.9 878.798 1273.92 880.761V891H1269.68V880.863C1269.68 879.965 1269.49 879.315 1269.1 878.915C1268.71 878.505 1268.06 878.3 1267.15 878.3C1265.96 878.3 1265.06 878.808 1264.47 879.823V891H1260.23V875.15H1264.22ZM1282.21 871.254V875.15H1284.92V878.256H1282.21V886.166C1282.21 886.752 1282.32 887.172 1282.54 887.426C1282.77 887.68 1283.2 887.807 1283.83 887.807C1284.3 887.807 1284.72 887.772 1285.08 887.704V890.912C1284.25 891.166 1283.39 891.293 1282.51 891.293C1279.54 891.293 1278.03 889.794 1277.97 886.796V878.256H1275.66V875.15H1277.97V871.254H1282.21Z" fill="white"/>
<path d="M1207.08 488.512L1208.31 477.672H1220.26V481.202H1211.78L1211.25 485.787C1212.26 485.25 1213.33 484.981 1214.46 484.981C1216.49 484.981 1218.09 485.611 1219.24 486.871C1220.39 488.131 1220.97 489.894 1220.97 492.159C1220.97 493.536 1220.67 494.771 1220.09 495.865C1219.51 496.949 1218.68 497.794 1217.6 498.399C1216.51 498.995 1215.23 499.293 1213.76 499.293C1212.47 499.293 1211.27 499.034 1210.17 498.517C1209.07 497.989 1208.19 497.252 1207.55 496.305C1206.91 495.357 1206.58 494.278 1206.54 493.067H1210.73C1210.82 493.956 1211.12 494.649 1211.65 495.147C1212.19 495.636 1212.89 495.88 1213.75 495.88C1214.7 495.88 1215.44 495.538 1215.96 494.854C1216.47 494.161 1216.73 493.185 1216.73 491.925C1216.73 490.714 1216.44 489.786 1215.84 489.142C1215.24 488.497 1214.4 488.175 1213.31 488.175C1212.3 488.175 1211.48 488.438 1210.86 488.966L1210.45 489.347L1207.08 488.512ZM1224.07 496.92C1224.07 496.246 1224.3 495.699 1224.75 495.279C1225.21 494.859 1225.78 494.649 1226.46 494.649C1227.15 494.649 1227.72 494.859 1228.17 495.279C1228.63 495.699 1228.86 496.246 1228.86 496.92C1228.86 497.584 1228.64 498.126 1228.19 498.546C1227.74 498.956 1227.16 499.161 1226.46 499.161C1225.77 499.161 1225.2 498.956 1224.75 498.546C1224.3 498.126 1224.07 497.584 1224.07 496.92ZM1248.21 493.712L1253.05 477.672H1257.94L1250.51 499H1245.93L1238.53 477.672H1243.41L1248.21 493.712ZM1264.15 499H1259.9V483.15H1264.15V499ZM1259.65 479.049C1259.65 478.414 1259.86 477.892 1260.28 477.481C1260.71 477.071 1261.29 476.866 1262.03 476.866C1262.75 476.866 1263.33 477.071 1263.75 477.481C1264.18 477.892 1264.4 478.414 1264.4 479.049C1264.4 479.693 1264.18 480.221 1263.74 480.631C1263.31 481.041 1262.74 481.246 1262.03 481.246C1261.31 481.246 1260.74 481.041 1260.3 480.631C1259.87 480.221 1259.65 479.693 1259.65 479.049ZM1266.99 490.958C1266.99 488.487 1267.54 486.52 1268.65 485.055C1269.76 483.59 1271.28 482.857 1273.2 482.857C1274.75 482.857 1276.02 483.434 1277.03 484.586V476.5H1281.27V499H1277.45L1277.25 497.315C1276.19 498.634 1274.83 499.293 1273.17 499.293C1271.31 499.293 1269.81 498.561 1268.68 497.096C1267.55 495.621 1266.99 493.575 1266.99 490.958ZM1271.23 491.266C1271.23 492.75 1271.48 493.888 1272 494.679C1272.52 495.47 1273.27 495.865 1274.26 495.865C1275.57 495.865 1276.49 495.313 1277.03 494.21V487.955C1276.5 486.852 1275.59 486.3 1274.29 486.3C1272.25 486.3 1271.23 487.955 1271.23 491.266ZM1291.85 499.293C1289.53 499.293 1287.63 498.58 1286.17 497.154C1284.71 495.729 1283.98 493.829 1283.98 491.456V491.046C1283.98 489.454 1284.29 488.033 1284.91 486.783C1285.52 485.523 1286.39 484.557 1287.51 483.883C1288.65 483.199 1289.94 482.857 1291.38 482.857C1293.55 482.857 1295.25 483.541 1296.49 484.908C1297.74 486.275 1298.37 488.214 1298.37 490.724V492.452H1288.28C1288.41 493.487 1288.82 494.317 1289.51 494.942C1290.2 495.567 1291.07 495.88 1292.13 495.88C1293.76 495.88 1295.03 495.289 1295.95 494.107L1298.03 496.437C1297.4 497.335 1296.54 498.038 1295.45 498.546C1294.37 499.044 1293.17 499.293 1291.85 499.293ZM1291.37 486.285C1290.53 486.285 1289.84 486.568 1289.32 487.135C1288.8 487.701 1288.47 488.512 1288.32 489.566H1294.21V489.229C1294.19 488.292 1293.94 487.569 1293.45 487.062C1292.96 486.544 1292.27 486.285 1291.37 486.285ZM1300.13 490.929C1300.13 489.356 1300.43 487.955 1301.04 486.725C1301.64 485.494 1302.51 484.542 1303.64 483.868C1304.79 483.194 1306.11 482.857 1307.61 482.857C1309.75 482.857 1311.49 483.512 1312.84 484.82C1314.2 486.129 1314.96 487.906 1315.11 490.152L1315.14 491.236C1315.14 493.668 1314.46 495.621 1313.11 497.096C1311.75 498.561 1309.93 499.293 1307.64 499.293C1305.36 499.293 1303.53 498.561 1302.16 497.096C1300.81 495.631 1300.13 493.639 1300.13 491.119V490.929ZM1304.36 491.236C1304.36 492.74 1304.64 493.893 1305.21 494.693C1305.78 495.484 1306.59 495.88 1307.64 495.88C1308.67 495.88 1309.47 495.489 1310.04 494.708C1310.62 493.917 1310.91 492.657 1310.91 490.929C1310.91 489.454 1310.62 488.312 1310.04 487.501C1309.47 486.69 1308.66 486.285 1307.61 486.285C1306.58 486.285 1305.78 486.69 1305.21 487.501C1304.64 488.302 1304.36 489.547 1304.36 491.236Z" fill="white"/>
<path d="M1199.08 94.5117L1200.31 83.6719H1212.26V87.2021H1203.78L1203.25 91.7871C1204.26 91.25 1205.33 90.9814 1206.46 90.9814C1208.49 90.9814 1210.09 91.6113 1211.24 92.8711C1212.39 94.1309 1212.97 95.8936 1212.97 98.1592C1212.97 99.5361 1212.67 100.771 1212.09 101.865C1211.51 102.949 1210.68 103.794 1209.6 104.399C1208.51 104.995 1207.23 105.293 1205.76 105.293C1204.47 105.293 1203.27 105.034 1202.17 104.517C1201.07 103.989 1200.19 103.252 1199.55 102.305C1198.91 101.357 1198.58 100.278 1198.54 99.0674H1202.73C1202.82 99.9561 1203.12 100.649 1203.65 101.147C1204.19 101.636 1204.89 101.88 1205.75 101.88C1206.7 101.88 1207.44 101.538 1207.96 100.854C1208.47 100.161 1208.73 99.1846 1208.73 97.9248C1208.73 96.7139 1208.44 95.7861 1207.84 95.1416C1207.24 94.4971 1206.4 94.1748 1205.31 94.1748C1204.3 94.1748 1203.48 94.4385 1202.86 94.9658L1202.45 95.3467L1199.08 94.5117ZM1216.07 102.92C1216.07 102.246 1216.3 101.699 1216.75 101.279C1217.21 100.859 1217.78 100.649 1218.46 100.649C1219.15 100.649 1219.72 100.859 1220.17 101.279C1220.63 101.699 1220.86 102.246 1220.86 102.92C1220.86 103.584 1220.64 104.126 1220.19 104.546C1219.74 104.956 1219.16 105.161 1218.46 105.161C1217.77 105.161 1217.2 104.956 1216.75 104.546C1216.3 104.126 1216.07 103.584 1216.07 102.92ZM1247.51 87.2314H1240.97V105H1236.58V87.2314H1230.13V83.6719H1247.51V87.2314ZM1254.22 105H1249.97V89.1504H1254.22V105ZM1249.72 85.0488C1249.72 84.4141 1249.93 83.8916 1250.35 83.4814C1250.78 83.0713 1251.36 82.8662 1252.09 82.8662C1252.82 82.8662 1253.39 83.0713 1253.82 83.4814C1254.25 83.8916 1254.47 84.4141 1254.47 85.0488C1254.47 85.6934 1254.25 86.2207 1253.81 86.6309C1253.38 87.041 1252.81 87.2461 1252.09 87.2461C1251.38 87.2461 1250.8 87.041 1250.36 86.6309C1249.93 86.2207 1249.72 85.6934 1249.72 85.0488ZM1264.31 101.88C1265.09 101.88 1265.73 101.665 1266.21 101.235C1266.7 100.806 1266.96 100.234 1266.98 99.5215H1270.95C1270.94 100.596 1270.64 101.582 1270.07 102.48C1269.49 103.369 1268.7 104.062 1267.69 104.561C1266.7 105.049 1265.59 105.293 1264.38 105.293C1262.12 105.293 1260.33 104.575 1259.02 103.14C1257.71 101.694 1257.06 99.7021 1257.06 97.1631V96.8848C1257.06 94.4434 1257.71 92.4951 1259.01 91.04C1260.31 89.585 1262.09 88.8574 1264.35 88.8574C1266.34 88.8574 1267.92 89.4238 1269.11 90.5566C1270.32 91.6797 1270.93 93.1787 1270.95 95.0537H1266.98C1266.96 94.2334 1266.7 93.5693 1266.21 93.0615C1265.73 92.5439 1265.08 92.2852 1264.28 92.2852C1263.29 92.2852 1262.55 92.6465 1262.04 93.3691C1261.54 94.082 1261.29 95.2441 1261.29 96.8555V97.2949C1261.29 98.9258 1261.54 100.098 1262.04 100.811C1262.54 101.523 1263.29 101.88 1264.31 101.88ZM1279.12 98.6426L1277.6 100.166V105H1273.36V82.5H1277.6V94.9658L1278.42 93.9111L1282.47 89.1504H1287.56L1281.83 95.7568L1288.05 105H1283.19L1279.12 98.6426ZM1296.39 105.293C1294.07 105.293 1292.17 104.58 1290.71 103.154C1289.25 101.729 1288.52 99.8291 1288.52 97.4561V97.0459C1288.52 95.4541 1288.83 94.0332 1289.45 92.7832C1290.06 91.5234 1290.93 90.5566 1292.05 89.8828C1293.19 89.1992 1294.48 88.8574 1295.92 88.8574C1298.09 88.8574 1299.79 89.541 1301.03 90.9082C1302.28 92.2754 1302.91 94.2139 1302.91 96.7236V98.4521H1292.82C1292.95 99.4873 1293.36 100.317 1294.05 100.942C1294.74 101.567 1295.61 101.88 1296.67 101.88C1298.3 101.88 1299.57 101.289 1300.49 100.107L1302.57 102.437C1301.94 103.335 1301.08 104.038 1299.99 104.546C1298.91 105.044 1297.71 105.293 1296.39 105.293ZM1295.91 92.2852C1295.07 92.2852 1294.38 92.5684 1293.86 93.1348C1293.34 93.7012 1293.01 94.5117 1292.86 95.5664H1298.75V95.2295C1298.73 94.292 1298.47 93.5693 1297.99 93.0615C1297.5 92.5439 1296.8 92.2852 1295.91 92.2852ZM1310.39 85.2539V89.1504H1313.1V92.2559H1310.39V100.166C1310.39 100.752 1310.51 101.172 1310.73 101.426C1310.96 101.68 1311.38 101.807 1312.02 101.807C1312.49 101.807 1312.9 101.772 1313.26 101.704V104.912C1312.43 105.166 1311.58 105.293 1310.7 105.293C1307.73 105.293 1306.22 103.794 1306.16 100.796V92.2559H1303.85V89.1504H1306.16V85.2539H1310.39Z" fill="white"/>
<path d="M520 398H350V668H520V398Z" fill="white" stroke="#DDDDDD" stroke-width="2"/>
<path d="M478 598H392C386.477 598 382 602.477 382 608C382 613.523 386.477 618 392 618H478C483.523 618 488 613.523 488 608C488 602.477 483.523 598 478 598Z" fill="#01D0FE" fill-opacity="0.99"/>
<path d="M499 559H371V577H499V559Z" stroke="#DDDDDD" stroke-width="2"/>
<path d="M499 529H371V547H499V529Z" stroke="#DDDDDD" stroke-width="2"/>
<path fill-rule="evenodd" clip-rule="evenodd" d="M464.979 455.091C464.979 453.936 464.056 453 462.918 453H407.232C406.093 453 405.17 453.936 405.17 455.091V495.705C405.17 496.86 406.093 497.796 407.232 497.796H462.918C464.056 497.796 464.979 496.86 464.979 495.705V455.091Z" stroke="#01D0FE" stroke-opacity="0.99" stroke-width="2"/>
<path fill-rule="evenodd" clip-rule="evenodd" d="M420.678 474.357C423.674 474.357 426.102 471.896 426.102 468.861C426.102 465.826 423.674 463.365 420.678 463.365C417.683 463.365 415.255 465.826 415.255 468.861C415.255 471.896 417.683 474.357 420.678 474.357Z" stroke="#01D0FE" stroke-opacity="0.99" stroke-width="2"/>
<path d="M418.139 497.796L436.104 472.151L443.532 482.308L453.086 467.084L464.979 484.611" stroke="#01D0FE" stroke-opacity="0.99" stroke-width="2"/>
<path d="M212.069 505H197.45V502.1L204.35 494.746C205.297 493.711 205.995 492.808 206.444 492.036C206.903 491.265 207.133 490.532 207.133 489.839C207.133 488.892 206.894 488.149 206.415 487.612C205.937 487.065 205.253 486.792 204.364 486.792C203.407 486.792 202.65 487.124 202.094 487.788C201.547 488.442 201.273 489.307 201.273 490.381H197.025C197.025 489.082 197.333 487.896 197.948 486.821C198.573 485.747 199.452 484.907 200.585 484.302C201.718 483.687 203.002 483.379 204.438 483.379C206.635 483.379 208.339 483.906 209.55 484.961C210.771 486.016 211.381 487.505 211.381 489.429C211.381 490.483 211.107 491.558 210.561 492.651C210.014 493.745 209.076 495.02 207.748 496.475L202.899 501.587H212.069V505ZM215.072 502.92C215.072 502.246 215.297 501.699 215.746 501.279C216.205 500.859 216.776 500.649 217.46 500.649C218.153 500.649 218.725 500.859 219.174 501.279C219.633 501.699 219.862 502.246 219.862 502.92C219.862 503.584 219.638 504.126 219.188 504.546C218.739 504.956 218.163 505.161 217.46 505.161C216.767 505.161 216.195 504.956 215.746 504.546C215.297 504.126 215.072 503.584 215.072 502.92ZM242.392 499.404C242.392 498.574 242.099 497.939 241.513 497.5C240.927 497.051 239.872 496.582 238.349 496.094C236.825 495.596 235.619 495.107 234.73 494.629C232.309 493.32 231.098 491.558 231.098 489.341C231.098 488.188 231.42 487.163 232.064 486.265C232.719 485.356 233.651 484.648 234.862 484.141C236.083 483.633 237.45 483.379 238.964 483.379C240.487 483.379 241.845 483.657 243.036 484.214C244.228 484.761 245.15 485.537 245.805 486.543C246.469 487.549 246.801 488.691 246.801 489.971H242.406C242.406 488.994 242.099 488.237 241.483 487.7C240.868 487.153 240.004 486.88 238.891 486.88C237.816 486.88 236.981 487.109 236.386 487.568C235.79 488.018 235.492 488.613 235.492 489.355C235.492 490.049 235.839 490.63 236.532 491.099C237.235 491.567 238.266 492.007 239.623 492.417C242.123 493.169 243.944 494.102 245.087 495.215C246.229 496.328 246.801 497.715 246.801 499.375C246.801 501.221 246.103 502.671 244.706 503.726C243.31 504.771 241.43 505.293 239.066 505.293C237.426 505.293 235.932 504.995 234.584 504.399C233.236 503.794 232.206 502.969 231.493 501.924C230.79 500.879 230.438 499.668 230.438 498.291H234.848C234.848 500.645 236.254 501.821 239.066 501.821C240.111 501.821 240.927 501.611 241.513 501.191C242.099 500.762 242.392 500.166 242.392 499.404ZM256.806 505.293C254.481 505.293 252.587 504.58 251.122 503.154C249.667 501.729 248.939 499.829 248.939 497.456V497.046C248.939 495.454 249.247 494.033 249.862 492.783C250.478 491.523 251.347 490.557 252.47 489.883C253.603 489.199 254.892 488.857 256.337 488.857C258.505 488.857 260.209 489.541 261.449 490.908C262.699 492.275 263.324 494.214 263.324 496.724V498.452H253.231C253.368 499.487 253.778 500.317 254.462 500.942C255.155 501.567 256.029 501.88 257.084 501.88C258.715 501.88 259.989 501.289 260.907 500.107L262.987 502.437C262.353 503.335 261.493 504.038 260.409 504.546C259.325 505.044 258.124 505.293 256.806 505.293ZM256.322 492.285C255.482 492.285 254.799 492.568 254.271 493.135C253.754 493.701 253.422 494.512 253.275 495.566H259.164V495.229C259.145 494.292 258.891 493.569 258.402 493.062C257.914 492.544 257.221 492.285 256.322 492.285ZM274.325 500.62C274.325 500.103 274.066 499.697 273.549 499.404C273.041 499.102 272.221 498.833 271.088 498.599C267.318 497.808 265.434 496.206 265.434 493.794C265.434 492.388 266.015 491.216 267.177 490.278C268.349 489.331 269.877 488.857 271.762 488.857C273.773 488.857 275.38 489.331 276.581 490.278C277.792 491.226 278.397 492.456 278.397 493.97H274.164C274.164 493.364 273.969 492.866 273.578 492.476C273.188 492.075 272.577 491.875 271.747 491.875C271.034 491.875 270.482 492.036 270.092 492.358C269.701 492.681 269.506 493.091 269.506 493.589C269.506 494.058 269.726 494.438 270.165 494.731C270.614 495.015 271.366 495.264 272.421 495.479C273.476 495.684 274.364 495.918 275.087 496.182C277.323 497.002 278.441 498.423 278.441 500.444C278.441 501.89 277.821 503.062 276.581 503.96C275.341 504.849 273.739 505.293 271.776 505.293C270.448 505.293 269.267 505.059 268.231 504.59C267.206 504.111 266.4 503.462 265.814 502.642C265.229 501.812 264.936 500.918 264.936 499.961H268.949C268.988 500.713 269.267 501.289 269.784 501.689C270.302 502.09 270.995 502.29 271.864 502.29C272.675 502.29 273.285 502.139 273.695 501.836C274.115 501.523 274.325 501.118 274.325 500.62ZM285.648 505H281.4V489.15H285.648V505ZM281.151 485.049C281.151 484.414 281.361 483.892 281.781 483.481C282.211 483.071 282.792 482.866 283.524 482.866C284.247 482.866 284.823 483.071 285.253 483.481C285.683 483.892 285.897 484.414 285.897 485.049C285.897 485.693 285.678 486.221 285.238 486.631C284.809 487.041 284.237 487.246 283.524 487.246C282.812 487.246 282.235 487.041 281.796 486.631C281.366 486.221 281.151 485.693 281.151 485.049ZM288.49 496.929C288.49 495.356 288.793 493.955 289.398 492.725C290.004 491.494 290.873 490.542 292.006 489.868C293.148 489.194 294.472 488.857 295.976 488.857C298.114 488.857 299.857 489.512 301.205 490.82C302.562 492.129 303.319 493.906 303.476 496.152L303.505 497.236C303.505 499.668 302.826 501.621 301.469 503.096C300.111 504.561 298.29 505.293 296.005 505.293C293.72 505.293 291.894 504.561 290.526 503.096C289.169 501.631 288.49 499.639 288.49 497.119V496.929ZM292.724 497.236C292.724 498.74 293.007 499.893 293.573 500.693C294.14 501.484 294.95 501.88 296.005 501.88C297.03 501.88 297.831 501.489 298.407 500.708C298.983 499.917 299.271 498.657 299.271 496.929C299.271 495.454 298.983 494.312 298.407 493.501C297.831 492.69 297.021 492.285 295.976 492.285C294.94 492.285 294.14 492.69 293.573 493.501C293.007 494.302 292.724 495.547 292.724 497.236ZM310.009 489.15L310.141 490.981C311.273 489.565 312.792 488.857 314.696 488.857C316.376 488.857 317.626 489.351 318.446 490.337C319.267 491.323 319.687 492.798 319.706 494.761V505H315.473V494.863C315.473 493.965 315.277 493.315 314.887 492.915C314.496 492.505 313.847 492.3 312.938 492.3C311.747 492.3 310.854 492.808 310.258 493.823V505H306.024V489.15H310.009Z" fill="white"/>
<path d="M1168 131.5C1165.5 131.5 1163.5 133.5 1163.5 136C1163.5 138.5 1165.5 140.5 1168 140.5C1170.5 140.5 1172.5 138.5 1172.5 136C1172.5 133.5 1170.5 131.5 1168 131.5Z" fill="white"/>
<path d="M1381.06 137.061C1381.65 136.475 1381.65 135.525 1381.06 134.939L1371.51 125.393C1370.93 124.808 1369.98 124.808 1369.39 125.393C1368.81 125.979 1368.81 126.929 1369.39 127.515L1377.88 136L1369.39 144.485C1368.81 145.071 1368.81 146.021 1369.39 146.607C1369.98 147.192 1370.93 147.192 1371.51 146.607L1381.06 137.061ZM1165 136C1165 134.328 1166.33 133 1168 133V130C1164.67 130 1162 132.672 1162 136H1165ZM1168 133C1169.67 133 1171 134.328 1171 136H1174C1174 132.672 1171.33 130 1168 130V133ZM1171 136C1171 137.672 1169.67 139 1168 139V142C1171.33 142 1174 139.328 1174 136H1171ZM1168 139C1166.33 139 1165 137.672 1165 136H1162C1162 139.328 1164.67 142 1168 142V139ZM1172.5 137.5H1380V134.5H1172.5V137.5Z" fill="white"/>
<path d="M1178 915.5C1175.5 915.5 1173.5 917.5 1173.5 920C1173.5 922.5 1175.5 924.5 1178 924.5C1180.5 924.5 1182.5 922.5 1182.5 920C1182.5 917.5 1180.5 915.5 1178 915.5Z" fill="white"/>
<path d="M1381.06 921.061C1381.65 920.475 1381.65 919.525 1381.06 918.939L1371.51 909.393C1370.93 908.808 1369.98 908.808 1369.39 909.393C1368.81 909.979 1368.81 910.929 1369.39 911.515L1377.88 920L1369.39 928.485C1368.81 929.071 1368.81 930.021 1369.39 930.607C1369.98 931.192 1370.93 931.192 1371.51 930.607L1381.06 921.061ZM1175 920C1175 918.328 1176.33 917 1178 917V914C1174.67 914 1172 916.672 1172 920H1175ZM1178 917C1179.67 917 1181 918.328 1181 920H1184C1184 916.672 1181.33 914 1178 914V917ZM1181 920C1181 921.672 1179.67 923 1178 923V926C1181.33 926 1184 923.328 1184 920H1181ZM1178 923C1176.33 923 1175 921.672 1175 920H1172C1172 923.328 1174.67 926 1178 926V923ZM1182.5 921.5H1380V918.5H1182.5V921.5Z" fill="white"/>
<path d="M1169 528.5C1166.5 528.5 1164.5 530.5 1164.5 533C1164.5 535.5 1166.5 537.5 1169 537.5C1171.5 537.5 1173.5 535.5 1173.5 533C1173.5 530.5 1171.5 528.5 1169 528.5Z" fill="white"/>
<path d="M1382.06 534.061C1382.65 533.475 1382.65 532.525 1382.06 531.939L1372.51 522.393C1371.93 521.808 1370.98 521.808 1370.39 522.393C1369.81 522.979 1369.81 523.929 1370.39 524.515L1378.88 533L1370.39 541.485C1369.81 542.071 1369.81 543.021 1370.39 543.607C1370.98 544.192 1371.93 544.192 1372.51 543.607L1382.06 534.061ZM1166 533C1166 531.328 1167.33 530 1169 530V527C1165.67 527 1163 529.672 1163 533H1166ZM1169 530C1170.67 530 1172 531.328 1172 533H1175C1175 529.672 1172.33 527 1169 527V530ZM1172 533C1172 534.672 1170.67 536 1169 536V539C1172.33 539 1175 536.328 1175 533H1172ZM1169 536C1167.33 536 1166 534.672 1166 533H1163C1163 536.328 1165.67 539 1169 539V536ZM1173.5 534.5H1381V531.5H1173.5V534.5Z" fill="white"/>
<path d="M860 528.5C857.5 528.5 855.5 530.5 855.5 533C855.5 535.5 857.5 537.5 860 537.5C862.5 537.5 864.5 535.5 864.5 533C864.5 530.5 862.5 528.5 860 528.5Z" fill="white"/>
<path d="M999.061 137.061C999.646 136.475 999.646 135.525 999.061 134.939L989.515 125.393C988.929 124.808 987.979 124.808 987.393 125.393C986.808 125.979 986.808 126.929 987.393 127.515L995.879 136L987.393 144.485C986.808 145.071 986.808 146.021 987.393 146.607C987.979 147.192 988.929 147.192 989.515 146.607L999.061 137.061ZM857 533C857 531.328 858.328 530 860 530V527C856.672 527 854 529.672 854 533H857ZM860 530C861.672 530 863 531.328 863 533H866C866 529.672 863.328 527 860 527V530ZM863 533C863 534.672 861.672 536 860 536V539C863.328 539 866 536.328 866 533H863ZM860 536C858.328 536 857 534.672 857 533H854C854 536.328 856.672 539 860 539V536ZM864.5 534.5H909V531.5H864.5V534.5ZM930.5 513V156H927.5V513H930.5ZM949 137.5H998V134.5H949V137.5ZM930.5 156C930.5 145.783 938.783 137.5 949 137.5V134.5C937.126 134.5 927.5 144.126 927.5 156H930.5ZM909 534.5C920.874 534.5 930.5 524.874 930.5 513H927.5C927.5 523.217 919.217 531.5 909 531.5V534.5Z" fill="white"/>
<path d="M860 528.5C857.5 528.5 855.5 530.5 855.5 533C855.5 535.5 857.5 537.5 860 537.5C862.5 537.5 864.5 535.5 864.5 533C864.5 530.5 862.5 528.5 860 528.5Z" fill="white"/>
<path d="M1000.06 534.061C1000.65 533.475 1000.65 532.525 1000.06 531.939L990.515 522.393C989.929 521.808 988.979 521.808 988.393 522.393C987.808 522.979 987.808 523.929 988.393 524.515L996.879 533L988.393 541.485C987.808 542.071 987.808 543.021 988.393 543.607C988.979 544.192 989.929 544.192 990.515 543.607L1000.06 534.061ZM857 533C857 531.328 858.328 530 860 530V527C856.672 527 854 529.672 854 533H857ZM860 530C861.672 530 863 531.328 863 533H866C866 529.672 863.328 527 860 527V530ZM863 533C863 534.672 861.672 536 860 536V539C863.328 539 866 536.328 866 533H863ZM860 536C858.328 536 857 534.672 857 533H854C854 536.328 856.672 539 860 539V536ZM864.5 534.5H999V531.5H864.5V534.5Z" fill="white"/>
<path d="M775 663.5C772.5 663.5 770.5 665.5 770.5 668C770.5 670.5 772.5 672.5 775 672.5C777.5 672.5 779.5 670.5 779.5 668C779.5 665.5 777.5 663.5 775 663.5Z" fill="white"/>
<path d="M1091.94 786.061C1092.53 786.646 1093.47 786.646 1094.06 786.061L1103.61 776.515C1104.19 775.929 1104.19 774.979 1103.61 774.393C1103.02 773.808 1102.07 773.808 1101.49 774.393L1093 782.879L1084.51 774.393C1083.93 773.808 1082.98 773.808 1082.39 774.393C1081.81 774.979 1081.81 775.929 1082.39 776.515L1091.94 786.061ZM772 668C772 666.328 773.328 665 775 665V662C771.672 662 769 664.672 769 668H772ZM775 665C776.672 665 778 666.328 778 668H781C781 664.672 778.328 662 775 662V665ZM778 668C778 669.672 776.672 671 775 671V674C778.328 674 781 671.328 781 668H778ZM775 671C773.328 671 772 669.672 772 668H769C769 671.328 771.672 674 775 674V671ZM773.5 672.5V706.5H776.5V672.5H773.5ZM795 728H1073V725H795V728ZM1091.5 746.5V785H1094.5V746.5H1091.5ZM1073 728C1083.22 728 1091.5 736.283 1091.5 746.5H1094.5C1094.5 734.626 1084.87 725 1073 725V728ZM773.5 706.5C773.5 718.374 783.126 728 795 728V725C784.783 725 776.5 716.717 776.5 706.5H773.5Z" fill="white"/>
<path d="M520 528.5C517.5 528.5 515.5 530.5 515.5 533C515.5 535.5 517.5 537.5 520 537.5C522.5 537.5 524.5 535.5 524.5 533C524.5 530.5 522.5 528.5 520 528.5Z" fill="white"/>
<path d="M691.061 534.061C691.646 533.475 691.646 532.525 691.061 531.939L681.515 522.393C680.929 521.808 679.979 521.808 679.393 522.393C678.808 522.979 678.808 523.929 679.393 524.515L687.879 533L679.393 541.485C678.808 542.071 678.808 543.021 679.393 543.607C679.979 544.192 680.929 544.192 681.515 543.607L691.061 534.061ZM517 533C517 531.328 518.328 530 520 530V527C516.672 527 514 529.672 514 533H517ZM520 530C521.672 530 523 531.328 523 533H526C526 529.672 523.328 527 520 527V530ZM523 533C523 534.672 521.672 536 520 536V539C523.328 539 526 536.328 526 533H523ZM520 536C518.328 536 517 534.672 517 533H514C514 536.328 516.672 539 520 539V536ZM524.5 534.5H690V531.5H524.5V534.5Z" fill="white"/>
<path d="M171 528.5C168.5 528.5 166.5 530.5 166.5 533C166.5 535.5 168.5 537.5 171 537.5C173.5 537.5 175.5 535.5 175.5 533C175.5 530.5 173.5 528.5 171 528.5Z" fill="white"/>
<path d="M351.061 534.061C351.646 533.475 351.646 532.525 351.061 531.939L341.515 522.393C340.929 521.808 339.979 521.808 339.393 522.393C338.808 522.979 338.808 523.929 339.393 524.515L347.879 533L339.393 541.485C338.808 542.071 338.808 543.021 339.393 543.607C339.979 544.192 340.929 544.192 341.515 543.607L351.061 534.061ZM168 533C168 531.328 169.328 530 171 530V527C167.672 527 165 529.672 165 533H168ZM171 530C172.672 530 174 531.328 174 533H177C177 529.672 174.328 527 171 527V530ZM174 533C174 534.672 172.672 536 171 536V539C174.328 539 177 536.328 177 533H174ZM171 536C169.328 536 168 534.672 168 533H165C165 536.328 167.672 539 171 539V536ZM175.5 534.5H350V531.5H175.5V534.5Z" fill="white"/>
</svg>
