<svg width="324" height="454" viewBox="0 0 324 454" fill="none" xmlns="http://www.w3.org/2000/svg">
<g filter="url(#filter0_d)">
<path d="M130.455 29.2273C130.455 51.1818 102.227 70 102.227 70C102.227 70 74 51.1818 74 29.2273C74 21.7409 76.9739 14.5612 82.2676 9.26758C87.5612 3.97394 94.7409 1 102.227 1C109.714 1 116.893 3.97394 122.187 9.26758C127.481 14.5612 130.455 21.7409 130.455 29.2273Z" fill="white" stroke="#FB2E56" stroke-width="2" stroke-linecap="round" stroke-linejoin="round"/>
<path fill-rule="evenodd" clip-rule="evenodd" d="M102.156 41.5767C99.7123 41.5767 97.7239 39.7422 97.7239 37.4871V28.1395C97.7239 27.8011 97.2163 27.408 96.5616 27.408C95.9069 27.408 95.3992 27.8011 95.3992 28.1395V32.8145C95.3992 35.0311 93.6582 36.8341 91.5179 36.8341H91.3598C89.2195 36.8341 87.4785 35.0311 87.4785 32.8145C87.4785 32.3712 87.1303 32.0105 86.7023 32.0105H84.3735C83.5162 32.0105 82.821 31.2906 82.821 30.4026C82.821 29.5148 83.5162 28.7947 84.3735 28.7947H86.7023C88.8425 28.7947 90.5835 30.5979 90.5835 32.8145C90.5835 33.2578 90.9317 33.6184 91.3598 33.6184H91.5179C91.946 33.6184 92.2941 33.2578 92.2941 32.8145V28.1395C92.2941 25.9629 94.2085 24.1922 96.5616 24.1922C98.9146 24.1922 100.829 25.9629 100.829 28.1395V37.4871C100.829 37.8995 101.397 38.361 102.156 38.361C102.917 38.361 103.484 37.8995 103.484 37.4871V24.5188C103.484 22.2513 105.485 20.4062 107.944 20.4062C110.403 20.4062 112.403 22.2513 112.403 24.5188V30.2993C112.403 33.7982 115.847 36.6447 120.081 36.6447C120.938 36.6447 121.634 37.3647 121.634 38.2526C121.634 39.1405 120.938 39.8604 120.081 39.8604C114.135 39.8604 109.298 35.5713 109.298 30.2993V24.5188C109.298 24.0955 108.719 23.6221 107.944 23.6221C107.168 23.6221 106.589 24.0955 106.589 24.5188V37.4871C106.589 39.7422 104.601 41.5767 102.156 41.5767Z" fill="#FB2E56"/>
</g>
<g filter="url(#filter1_d)">
<path d="M61.4546 29.2273C61.4546 51.1818 33.2273 70 33.2273 70C33.2273 70 5 51.1818 5 29.2273C5 21.7409 7.97394 14.5612 13.2676 9.26758C18.5612 3.97394 25.7409 1 33.2273 1C40.7136 1 47.8933 3.97394 53.187 9.26758C58.4806 14.5612 61.4546 21.7409 61.4546 29.2273Z" fill="#FB2E56" stroke="white" stroke-width="2" stroke-linecap="round" stroke-linejoin="round"/>
<path fill-rule="evenodd" clip-rule="evenodd" d="M33.1565 41.5767C30.7123 41.5767 28.7239 39.7422 28.7239 37.4871V28.1395C28.7239 27.8011 28.2163 27.408 27.5616 27.408C26.9069 27.408 26.3992 27.8011 26.3992 28.1395V32.8145C26.3992 35.0311 24.6582 36.8341 22.5179 36.8341H22.3598C20.2195 36.8341 18.4785 35.0311 18.4785 32.8145C18.4785 32.3712 18.1303 32.0105 17.7023 32.0105H15.3735C14.5162 32.0105 13.821 31.2906 13.821 30.4026C13.821 29.5148 14.5162 28.7947 15.3735 28.7947H17.7023C19.8425 28.7947 21.5835 30.5979 21.5835 32.8145C21.5835 33.2578 21.9317 33.6184 22.3598 33.6184H22.5179C22.946 33.6184 23.2941 33.2578 23.2941 32.8145V28.1395C23.2941 25.9629 25.2085 24.1922 27.5616 24.1922C29.9146 24.1922 31.8289 25.9629 31.8289 28.1395V37.4871C31.8289 37.8995 32.3967 38.361 33.1565 38.361C33.9166 38.361 34.4844 37.8995 34.4844 37.4871V24.5188C34.4844 22.2513 36.4849 20.4062 38.9438 20.4062C41.4026 20.4062 43.4031 22.2513 43.4031 24.5188V30.2993C43.4031 33.7982 46.8475 36.6447 51.081 36.6447C51.9384 36.6447 52.6335 37.3647 52.6335 38.2526C52.6335 39.1405 51.9384 39.8604 51.081 39.8604C45.1353 39.8604 40.2982 35.5713 40.2982 30.2993V24.5188C40.2982 24.0955 39.719 23.6221 38.9438 23.6221C38.1685 23.6221 37.5893 24.0955 37.5893 24.5188V37.4871C37.5893 39.7422 35.6007 41.5767 33.1565 41.5767Z" fill="white"/>
</g>
<path d="M279 14C274.024 14 270 18.069 270 23.1C270 29.925 279 40 279 40C279 40 288 29.925 288 23.1C288 18.069 283.976 14 279 14ZM279 26.35C277.226 26.35 275.786 24.894 275.786 23.1C275.786 21.306 277.226 19.85 279 19.85C280.774 19.85 282.214 21.306 282.214 23.1C282.214 24.894 280.774 26.35 279 26.35Z" fill="#0E1C21"/>
<path fill-rule="evenodd" clip-rule="evenodd" d="M166.019 19.9051C166.019 22.4271 163.978 24.4684 161.456 24.4684C158.934 24.4684 156.892 22.4271 156.892 19.9051C156.892 17.3831 158.934 15.3418 161.456 15.3418C163.978 15.3418 166.019 17.3831 166.019 19.9051ZM164.247 25.7722H164.585C167.176 25.7722 169.279 27.8745 169.279 30.4658V31.6393C169.279 32.719 168.403 33.595 167.323 33.595H155.589C154.509 33.595 153.633 32.719 153.633 31.6393V30.4658C153.633 27.8745 155.735 25.7722 158.327 25.7722H158.665C159.516 26.1796 160.453 26.4241 161.456 26.4241C162.458 26.4241 163.399 26.1796 164.247 25.7722ZM173.19 24.4684C175.349 24.4684 177.101 22.7164 177.101 20.557C177.101 18.3976 175.349 16.6456 173.19 16.6456C171.03 16.6456 169.279 18.3976 169.279 20.557C169.279 22.7164 171.03 24.4684 173.19 24.4684ZM174.991 25.7722H175.146C177.668 25.7722 179.709 27.8134 179.709 30.3355C179.709 31.4152 178.833 32.2912 177.753 32.2912H170.558C170.56 32.2537 170.565 32.2162 170.57 32.1784C170.576 32.1299 170.582 32.0808 170.582 32.0304V30.4658C170.582 28.8931 169.959 27.4712 168.965 26.3996C169.637 26.0126 170.403 25.7722 171.234 25.7722H171.389C171.955 25.9677 172.554 26.0981 173.19 26.0981C173.826 26.0981 174.424 25.9677 174.991 25.7722Z" fill="#0E1C21"/>
<rect width="26" height="17" transform="translate(212 18)" fill="white"/>
<path fill-rule="evenodd" clip-rule="evenodd" d="M234.1 18H212V23.5549C212.777 24.1427 213.3 25.2415 213.3 26.5C213.3 27.7585 212.777 28.8573 212 29.4451V35H234.1V18Z" fill="#0E1C21"/>
<rect x="235.4" y="18" width="2.6" height="17" fill="#0E1C21"/>
<rect x="12" y="100" width="101" height="101" rx="9" fill="url(#paint0_linear)"/>
<path d="M62.0036 171.988C56.9849 171.988 52.9211 168.329 52.9211 163.84V145.208C52.9211 144.529 51.8724 143.756 50.5428 143.756C49.2132 143.756 48.1645 144.548 48.1645 145.208V154.524C48.1645 158.937 44.5877 162.539 40.2056 162.539H39.8873C35.5052 162.539 31.9284 158.937 31.9284 154.524C31.9284 153.638 31.2168 152.921 30.3366 152.921H25.5425C23.7822 152.921 22.359 151.488 22.359 149.715C22.359 147.942 23.7822 146.509 25.5425 146.509H30.3179C34.6999 146.509 38.2768 150.111 38.2768 154.524C38.2768 155.411 38.9884 156.127 39.8686 156.127H40.1869C41.0671 156.127 41.7787 155.411 41.7787 154.524V145.208C41.7787 140.87 45.7113 137.344 50.5241 137.344C55.3369 137.344 59.2695 140.87 59.2695 145.208V163.84C59.2695 164.67 60.4306 165.575 61.9849 165.575C63.5392 165.575 64.7003 164.651 64.7003 163.84V137.985C64.7003 133.459 68.8015 129.781 73.839 129.781C78.8765 129.781 82.9777 133.459 82.9777 137.985V149.508C82.9777 156.485 90.0377 162.162 98.7269 162.162C100.487 162.162 101.91 163.595 101.91 165.368C101.91 167.141 100.487 168.574 98.7269 168.574C86.5358 168.574 76.6106 160.031 76.6106 149.508V137.985C76.6106 137.136 75.4308 136.193 73.839 136.193C72.2472 136.193 71.0674 137.136 71.0674 137.985V163.84C71.1049 168.329 67.0224 171.988 62.0036 171.988Z" fill="url(#paint1_linear)"/>
<path d="M40.1869 162.54H39.8685C35.4865 162.54 31.9097 158.938 31.9097 154.525C31.9097 153.638 31.198 152.922 30.3179 152.922H25.5425C23.7822 152.922 22.359 151.489 22.359 149.716C22.359 147.943 23.7822 146.51 25.5425 146.51H30.3179C34.6999 146.51 38.2768 150.112 38.2768 154.525C38.2768 155.411 38.9884 156.128 39.8685 156.128H40.1869C41.9472 156.128 43.3705 157.561 43.3705 159.334C43.3705 161.107 41.9472 162.54 40.1869 162.54Z" fill="url(#paint2_linear)"/>
<path d="M62.0036 171.988C56.9848 171.988 52.9211 168.329 52.9211 163.841V145.208C52.9211 144.529 51.8724 143.756 50.5428 143.756C49.2132 143.756 48.1645 144.548 48.1645 145.208V151.318C48.1645 153.091 46.7413 154.524 44.981 154.524C43.2206 154.524 41.7974 153.091 41.7974 151.318V145.208C41.7974 140.87 45.73 137.344 50.5428 137.344C55.3556 137.344 59.2882 140.87 59.2882 145.208V163.841C59.2882 164.67 60.4493 165.576 62.0036 165.576C63.7639 165.576 65.1872 167.009 65.1872 168.782C65.1872 170.554 63.7639 171.988 62.0036 171.988Z" fill="url(#paint3_linear)"/>
<path d="M98.7644 168.574C86.5732 168.574 76.648 160.031 76.648 149.508V137.985C76.648 137.136 75.4682 136.193 73.8764 136.193C72.2846 136.193 71.1048 137.136 71.1048 137.985V161.162C71.1048 162.935 69.6816 164.369 67.9213 164.369C66.161 164.369 64.7377 162.935 64.7377 161.162V137.985C64.7377 133.459 68.8389 129.781 73.8764 129.781C78.9139 129.781 83.0151 133.459 83.0151 137.985V149.508C83.0151 156.485 90.0751 162.162 98.7644 162.162C100.525 162.162 101.948 163.595 101.948 165.368C101.948 167.141 100.525 168.574 98.7644 168.574Z" fill="url(#paint4_linear)"/>
<path d="M283.667 453.406C275.72 452.416 269.561 446.967 268.269 442.905C266.978 438.843 265.488 439.537 263.898 436.961C262.309 434.385 264.196 424.379 264.196 424.379C264.196 424.379 255.554 394.163 252.474 385.247C249.395 376.43 247.805 356.121 247.805 356.121C247.805 356.121 246.911 351.96 238.666 333.533C230.52 315.107 227.241 298.661 227.241 298.661L222.771 290.042L213.93 345.917C213.93 345.917 213.433 371.477 213.036 383.662C212.539 395.748 210.254 424.181 210.95 427.153C211.049 427.45 211.148 427.847 211.248 428.144C212.142 431.116 214.029 435.079 214.228 437.555C214.426 440.329 210.95 441.716 207.969 443.797C204.89 445.877 203.797 449.146 198.134 451.029C192.571 452.911 186.909 452.218 183.929 450.831C180.849 449.444 183.432 444.292 184.823 442.014C186.213 439.735 194.161 435.475 196.942 432.008C199.724 428.54 200.419 424.577 200.419 424.577C200.419 424.577 194.558 396.244 191.975 384.356C189.392 372.467 194.558 355.031 193.565 351.762C192.671 348.493 187.306 331.75 185.816 310.549C184.425 289.349 191.677 265.374 191.677 265.374L194.459 260.223L259.329 275.875C259.329 275.875 263.104 288.655 264.495 299.355C265.885 310.054 265.885 352.158 265.885 352.158C265.885 352.158 266.581 353.743 269.362 361.471C272.144 369.198 271.25 384.257 271.746 387.526C272.243 390.795 274.131 420.417 274.131 420.417C274.131 420.417 275.422 424.776 277.508 427.054C279.594 429.333 286.548 437.555 288.336 441.914C290.125 446.472 291.615 454.496 283.667 453.406Z" fill="#1A1A1A"/>
<path d="M198.035 451.229C203.598 449.346 204.79 446.077 207.87 443.997C210.949 441.916 214.426 440.529 214.128 437.755C213.93 435.279 212.042 431.316 211.148 428.344C211.049 427.948 210.949 427.65 210.85 427.353C210.651 426.362 210.751 422.499 210.949 417.347C206.479 418.932 202.009 417.942 198.631 416.555C199.625 421.409 200.32 424.777 200.32 424.777C200.32 424.777 199.625 428.74 196.843 432.208C194.061 435.675 186.114 439.935 184.723 442.213C183.333 444.591 180.75 449.644 183.829 451.031C186.81 452.318 192.472 453.111 198.035 451.229Z" fill="white" stroke="#1A2E35" stroke-miterlimit="10" stroke-linecap="round" stroke-linejoin="round"/>
<path d="M264.097 424.38C264.097 424.38 262.309 434.386 263.799 436.962C265.389 439.538 266.879 438.745 268.17 442.906C269.462 446.968 275.621 452.417 283.568 453.408C291.515 454.398 290.025 446.473 288.237 442.114C286.449 437.755 279.495 429.532 277.409 427.253C275.323 424.975 274.031 420.616 274.031 420.616C274.031 420.616 273.833 418.04 273.634 414.275C269.064 415.86 264.594 415.662 261.316 415.068C263.004 420.517 264.097 424.38 264.097 424.38Z" fill="white" stroke="#1A2E35" stroke-miterlimit="10" stroke-linecap="round" stroke-linejoin="round"/>
<path d="M207.87 443.995C204.79 446.075 203.698 449.344 198.035 451.227C192.472 453.109 186.81 452.416 183.829 451.029C182.538 450.434 182.24 449.245 182.439 447.858C182.737 445.877 183.929 443.598 184.723 442.211C186.114 439.933 194.061 435.673 196.843 432.206C199.625 428.738 200.32 424.775 200.32 424.775C200.32 424.775 201.115 424.775 202.903 425.469C204.691 426.261 206.181 430.521 206.181 430.521C206.181 430.521 209.062 429.531 211.148 428.342C211.844 430.62 213.135 433.493 213.731 435.772C213.93 436.465 214.029 437.159 214.128 437.753C214.327 440.527 210.85 441.914 207.87 443.995Z" fill="white" stroke="#1A2E35" stroke-miterlimit="10" stroke-linecap="round" stroke-linejoin="round"/>
<path d="M289.727 448.651C289.628 451.623 288.237 454.001 283.667 453.406C275.72 452.416 269.561 446.967 268.269 442.905C266.978 438.843 265.488 439.537 263.898 436.961C263.6 436.466 263.402 435.772 263.302 434.88C262.905 431.017 264.097 424.478 264.097 424.478L267.276 427.054C267.276 427.054 267.276 425.37 269.263 422.596C271.25 419.822 274.23 420.615 274.23 420.615C274.23 420.615 275.521 424.974 277.608 427.252C279.694 429.531 286.648 437.753 288.436 442.112C289.032 443.995 289.827 446.471 289.727 448.651Z" fill="white" stroke="#1A2E35" stroke-miterlimit="10" stroke-linecap="round" stroke-linejoin="round"/>
<path d="M207.87 443.994C204.79 446.075 203.698 449.344 198.035 451.226C192.472 453.109 186.81 452.415 183.829 451.028C182.538 450.434 182.24 449.245 182.439 447.858C184.425 449.047 188.101 450.533 193.565 449.542C202.108 448.056 205.684 443.004 208.466 440.527C210.055 439.041 212.241 437.158 213.731 435.771C213.93 436.465 214.029 437.158 214.128 437.753C214.327 440.527 210.85 441.914 207.87 443.994Z" fill="white" stroke="#1A2E35" stroke-miterlimit="10" stroke-linecap="round" stroke-linejoin="round"/>
<path d="M289.727 448.651C289.628 451.623 288.237 454.001 283.667 453.407C275.72 452.416 269.561 446.967 268.269 442.905C266.978 438.844 265.488 439.537 263.898 436.961C263.6 436.466 263.402 435.772 263.302 434.881C265.19 435.971 268.468 438.15 269.462 440.231C270.852 443.302 273.336 448.85 279.992 450.236C284.462 451.128 287.641 449.84 289.727 448.651Z" fill="white" stroke="#1A2E35" stroke-miterlimit="10" stroke-linecap="round" stroke-linejoin="round"/>
<path d="M213.135 198.403C213.135 198.403 199.823 199.394 183.432 186.812C167.041 174.231 164.656 169.079 164.656 169.079L230.42 158.182L213.135 198.403Z" fill="white" stroke="#1A2E35" stroke-miterlimit="10" stroke-linecap="round" stroke-linejoin="round"/>
<path d="M199.923 181.958C198.929 180.571 198.134 179.283 197.638 178.49" stroke="#1A2E35" stroke-miterlimit="10" stroke-linecap="round" stroke-linejoin="round"/>
<path d="M191.28 183.346C200.32 191.667 213.036 198.404 213.036 198.404C213.036 198.404 206.578 190.776 201.909 184.733" stroke="#1A2E35" stroke-miterlimit="10" stroke-linecap="round" stroke-linejoin="round"/>
<path d="M187.704 179.68C188.2 180.274 188.796 180.869 189.392 181.463" stroke="#1A2E35" stroke-miterlimit="10" stroke-linecap="round" stroke-linejoin="round"/>
<path d="M221.38 179.482L192.869 268.743C192.869 268.743 198.333 276.768 218.797 281.721C239.262 286.675 250.885 286.179 250.885 286.179L263.898 175.619L224.957 170.17L221.38 179.482Z" fill="white" stroke="#1A2E35" stroke-miterlimit="10" stroke-linecap="round" stroke-linejoin="round"/>
<path d="M258.931 218.119L259.13 216.336C240.653 212.769 225.155 208.014 213.731 203.754L213.135 205.438C224.758 209.698 240.255 214.552 258.931 218.119Z" fill="#1A1A1A"/>
<path d="M257.839 227.134L258.037 225.35C238.765 221.685 222.672 216.632 210.95 212.273L210.353 214.057C222.274 218.416 238.368 223.468 257.839 227.134Z" fill="#1A1A1A"/>
<path d="M259.925 209.103L260.124 207.32C242.441 203.853 227.54 199.296 216.314 195.135L215.718 196.819C227.142 201.079 242.143 205.636 259.925 209.103Z" fill="#1A1A1A"/>
<path d="M256.746 236.149L256.945 234.365C236.778 230.601 220.188 225.35 208.168 220.793L207.572 222.477C219.791 227.034 236.48 232.384 256.746 236.149Z" fill="#1A1A1A"/>
<path d="M219.095 186.615L218.499 188.299C229.526 192.361 243.931 196.72 260.918 200.089L261.117 198.305C244.328 194.937 230.023 190.578 219.095 186.615Z" fill="#1A1A1A"/>
<path d="M255.752 245.066L255.951 243.283C234.99 239.419 217.804 233.971 205.585 229.314L204.989 230.999C217.307 235.754 234.593 241.203 255.752 245.066Z" fill="#1A1A1A"/>
<path d="M254.66 254.081L254.858 252.298C233.003 248.434 215.221 242.688 202.804 237.834L202.207 239.518C214.824 244.373 232.705 250.118 254.66 254.081Z" fill="#1A1A1A"/>
<path d="M252.474 272.012L252.673 270.229C229.129 266.167 210.155 259.926 197.24 254.873L196.644 256.656C209.757 261.709 228.831 267.95 252.474 272.012Z" fill="#1A1A1A"/>
<path d="M251.481 281.027L251.679 279.244C227.241 275.083 207.671 268.643 194.658 263.393L194.061 265.176C207.175 270.327 226.943 276.866 251.481 281.027Z" fill="#1A1A1A"/>
<path d="M253.567 263.097L253.766 261.313C231.116 257.351 212.638 251.307 200.022 246.453L199.426 248.137C212.241 253.091 230.818 259.035 253.567 263.097Z" fill="#1A1A1A"/>
<path d="M234.394 181.561C234.394 181.561 244.527 191.369 260.322 189.388C276.018 187.406 269.164 163.234 269.164 163.234L238.666 161.648L234.394 181.561Z" fill="#1A1A1A"/>
<path d="M238.964 156.3L237.076 174.33C237.076 174.33 237.076 186.416 259.428 186.119C281.78 185.822 260.124 153.922 260.124 153.922C260.124 153.922 244.229 156.696 238.964 156.3Z" fill="white" stroke="#1A2E35" stroke-miterlimit="10" stroke-linecap="round" stroke-linejoin="round"/>
<path d="M192.869 107.955L191.975 116.178L207.572 115.484C207.572 115.484 209.062 113.602 210.651 112.611C212.241 111.62 217.804 110.927 218.499 110.035C219.195 109.144 215.817 108.351 213.135 109.045C210.453 109.738 209.459 110.134 208.665 110.233C207.87 110.333 206.181 107.559 206.181 107.559L192.869 107.955Z" fill="white" stroke="#1A2E35" stroke-miterlimit="10" stroke-linecap="round" stroke-linejoin="round"/>
<path d="M220.188 115.78L215.619 106.666L214.327 108.548L218.797 117.365L220.188 115.78Z" fill="#1A1A1A"/>
<path d="M182.637 109.044L215.221 106.766L214.426 108.648L181.346 110.927L182.637 109.044Z" fill="#1A1A1A"/>
<path d="M187.306 118.157L182.637 109.043L181.346 110.925L185.816 119.742L187.306 118.157Z" fill="#1A1A1A"/>
<path d="M156.61 117.861L162.968 176.411L254.66 161.749L248.898 112.115L156.61 117.861Z" fill="#C9C9C9" stroke="#1A2E35" stroke-miterlimit="10" stroke-linecap="round" stroke-linejoin="round"/>
<path d="M195.452 171.16L232.507 165.216L224.758 113.602L188.995 115.88L195.452 171.16Z" fill="white" stroke="#1A2E35" stroke-miterlimit="10" stroke-linecap="round" stroke-linejoin="round"/>
<path d="M177.982 158.194C185.728 157.36 191.243 149.629 190.301 140.926C189.359 132.222 182.317 125.842 174.571 126.676C166.825 127.51 161.31 135.241 162.252 143.945C163.194 152.648 170.236 159.028 177.982 158.194Z" fill="#1A1A1A"/>
<path d="M180.75 141.934C181.048 144.708 179.26 147.185 176.776 147.383C174.293 147.68 172.107 145.6 171.809 142.826C171.511 140.052 173.299 137.575 175.783 137.377C178.266 137.179 180.452 139.16 180.75 141.934Z" fill="white" stroke="#1A2E35" stroke-miterlimit="10" stroke-linecap="round" stroke-linejoin="round"/>
<path d="M224.758 113.602L188.995 115.88L191.479 136.883L227.639 133.019L224.758 113.602Z" fill="url(#paint5_linear)"/>
<path d="M190.386 126.381L226.049 123.409L224.758 113.602L188.995 115.88L190.386 126.381Z" fill="#1A1A1A"/>
<path d="M199.227 136.288L202.406 162.442L223.467 159.371L219.791 134.01L199.227 136.288Z" fill="url(#paint6_linear)"/>
<path d="M201.512 154.616L222.473 151.941L219.791 134.01L199.227 136.288L201.512 154.616Z" fill="#1A1A1A"/>
<path d="M202.406 162.441L202.009 159.073L223.069 156.002L223.467 159.37L202.406 162.441Z" fill="#1A1A1A"/>
<path d="M204.194 143.42L204.393 146.293L217.705 144.807L217.307 141.934L204.194 143.42Z" fill="white" stroke="#1A2E35" stroke-miterlimit="10" stroke-linecap="round" stroke-linejoin="round"/>
<path d="M156.61 117.861L143 121.329L148.166 174.529L162.968 176.411L156.61 117.861Z" fill="#1A1A1A"/>
<path d="M196.545 132.226C197.478 132.226 198.234 131.472 198.234 130.542C198.234 129.611 197.478 128.857 196.545 128.857C195.612 128.857 194.856 129.611 194.856 130.542C194.856 131.472 195.612 132.226 196.545 132.226Z" fill="white" stroke="#1A2E35" stroke-miterlimit="10" stroke-linecap="round" stroke-linejoin="round"/>
<path d="M202.803 131.632C203.736 131.632 204.492 130.878 204.492 129.948C204.492 129.018 203.736 128.264 202.803 128.264C201.871 128.264 201.115 129.018 201.115 129.948C201.115 130.878 201.871 131.632 202.803 131.632Z" fill="white" stroke="#1A2E35" stroke-miterlimit="10" stroke-linecap="round" stroke-linejoin="round"/>
<path d="M209.161 131.036C210.094 131.036 210.85 130.282 210.85 129.352C210.85 128.422 210.094 127.668 209.161 127.668C208.229 127.668 207.473 128.422 207.473 129.352C207.473 130.282 208.229 131.036 209.161 131.036Z" fill="white" stroke="#1A2E35" stroke-miterlimit="10" stroke-linecap="round" stroke-linejoin="round"/>
<path d="M215.519 130.443C216.452 130.443 217.208 129.689 217.208 128.758C217.208 127.828 216.452 127.074 215.519 127.074C214.587 127.074 213.83 127.828 213.83 128.758C213.83 129.689 214.587 130.443 215.519 130.443Z" fill="white" stroke="#1A2E35" stroke-miterlimit="10" stroke-linecap="round" stroke-linejoin="round"/>
<path d="M192.869 107.953C192.869 107.953 192.77 104.981 194.956 104.882C197.141 104.684 198.532 107.755 199.128 108.944C199.724 110.133 199.426 112.411 198.83 112.709C198.234 113.006 197.538 113.6 197.141 113.006C196.744 112.411 195.651 109.241 195.552 108.746C195.353 108.052 192.869 107.953 192.869 107.953Z" fill="white" stroke="#1A2E35" stroke-miterlimit="10" stroke-linecap="round" stroke-linejoin="round"/>
<path d="M196.346 104.982C196.346 104.982 199.326 104.09 199.923 104.288C200.519 104.487 202.207 107.558 202.207 108.747C202.307 109.935 201.611 111.124 201.115 111.719C200.618 112.214 199.227 111.62 199.227 111.62C199.227 111.62 199.525 109.935 199.028 108.846C198.631 107.855 196.346 104.982 196.346 104.982Z" fill="white" stroke="#1A2E35" stroke-miterlimit="10" stroke-linecap="round" stroke-linejoin="round"/>
<path d="M199.923 104.288C199.923 104.288 202.704 103.297 203.499 103.991C204.393 104.783 205.784 108.35 205.486 109.34C205.188 110.331 204.592 111.223 203.598 111.421C202.605 111.619 202.207 110.925 202.207 110.925C202.207 110.925 202.505 108.449 202.307 107.854C202.009 107.26 199.923 104.288 199.923 104.288Z" fill="white" stroke="#1A2E35" stroke-miterlimit="10" stroke-linecap="round" stroke-linejoin="round"/>
<path d="M203.598 104.09C203.598 104.09 205.287 102.901 206.28 103.991C207.274 105.081 208.665 107.855 208.367 109.539C208.069 111.124 207.174 111.124 206.38 111.223C205.585 111.322 204.89 110.926 204.89 110.926C204.89 110.926 205.585 109.935 205.486 108.647C205.386 107.459 203.598 104.09 203.598 104.09Z" fill="white" stroke="#1A2E35" stroke-miterlimit="10" stroke-linecap="round" stroke-linejoin="round"/>
<path d="M179.856 262.6L178.167 268.048L186.015 285.286L187.207 283.206L179.856 262.6Z" fill="white" stroke="#1A2E35" stroke-miterlimit="10" stroke-linecap="round" stroke-linejoin="round"/>
<path d="M229.228 187.307C229.228 187.307 204.79 251.9 199.029 260.717C193.366 269.435 187.207 283.205 187.207 283.205C187.207 283.205 181.544 269.732 179.359 265.175C177.173 260.717 178.664 260.221 181.048 255.268C183.432 250.315 208.069 203.653 210.055 195.629C211.943 187.604 214.526 181.66 221.48 179.48C228.434 177.301 229.228 187.307 229.228 187.307Z" fill="url(#paint7_linear)"/>
<path d="M216.215 200.582L206.578 236.049C206.28 237.04 207.175 237.931 208.168 237.832C208.764 237.733 209.161 237.337 209.36 236.742L218.4 200.285L216.215 200.582Z" fill="white" stroke="#1A2E35" stroke-miterlimit="10" stroke-linecap="round" stroke-linejoin="round"/>
<path d="M237.871 295.192C237.871 295.192 236.977 299.452 238.07 300.146C239.262 300.839 267.276 305.099 273.634 304.802C279.992 304.604 281.184 301.731 281.681 299.155C282.177 296.579 286.648 299.155 269.462 296.778C252.276 294.4 240.951 292.518 240.951 292.518C240.951 292.518 238.666 293.31 237.871 295.192Z" fill="white" stroke="#1A2E35" stroke-miterlimit="10" stroke-linecap="round" stroke-linejoin="round"/>
<path d="M252.574 202.564C252.574 202.564 243.335 260.816 241.05 274.488C238.666 288.159 237.474 294.5 237.97 295.193C238.467 295.887 262.706 301.038 271.647 300.642C280.588 300.147 283.469 300.642 284.561 295.688C285.754 290.735 295.39 217.92 291.118 200.285C286.846 182.651 285.257 182.453 274.131 182.453C263.004 182.453 252.574 202.564 252.574 202.564Z" fill="url(#paint8_linear)"/>
<path d="M256.448 206.627L252.673 246.948C252.573 247.938 253.368 248.83 254.362 248.83C255.256 248.83 256.05 248.136 256.05 247.146L257.64 206.23L256.448 206.627Z" fill="white" stroke="#1A2E35" stroke-miterlimit="10" stroke-linecap="round" stroke-linejoin="round"/>
<path d="M279.197 186.614C279.197 186.614 282.475 186.416 285.058 188.001C287.641 189.685 289.727 196.422 290.919 196.025C292.111 195.53 294.198 185.425 290.423 179.58C286.648 173.735 282.376 171.556 280.29 173.933C278.204 176.311 276.515 185.128 279.197 186.614Z" fill="white" stroke="#1A2E35" stroke-miterlimit="10" stroke-linecap="round" stroke-linejoin="round"/>
<path d="M232.109 128.263C232.109 128.263 235.487 136.981 228.434 150.256C221.48 163.531 207.671 184.534 207.373 194.143C207.075 203.852 215.321 204.744 221.678 200.484C228.036 196.224 230.42 193.153 230.42 193.153C230.42 193.153 229.328 198.502 232.606 199.196C235.984 199.79 236.778 192.261 238.169 183.543C239.56 174.825 242.937 159.965 243.136 159.172C243.335 158.38 238.07 155.011 236.282 147.581C234.493 140.151 238.368 131.136 237.672 128.461C237.076 125.687 232.705 127.173 232.109 128.263Z" fill="#1A1A1A"/>
<path d="M230.52 129.253C230.52 129.253 231.315 135.593 231.712 139.259C232.01 142.924 230.718 147.977 234.394 152.732C238.07 157.488 241.348 162.54 244.03 164.125C246.812 165.71 248.302 166.107 250.388 164.918C252.474 163.729 258.435 159.865 260.024 157.388C261.614 154.912 264.296 139.952 263.898 134.999C263.6 130.046 260.124 125.885 260.124 125.885C260.124 125.885 249.295 119.544 242.341 121.03C235.487 122.516 230.52 129.253 230.52 129.253Z" fill="white" stroke="#1A2E35" stroke-miterlimit="10" stroke-linecap="round" stroke-linejoin="round"/>
<path d="M241.447 146.094C241.447 146.094 242.639 147.283 243.931 147.283" stroke="#1A2E35" stroke-miterlimit="10" stroke-linecap="round" stroke-linejoin="round"/>
<path d="M241.646 151.246C241.646 151.246 248.501 152.93 253.666 147.283" stroke="#1A2E35" stroke-miterlimit="10" stroke-linecap="round" stroke-linejoin="round"/>
<path d="M252.574 146.789L255.355 147.978" stroke="#1A2E35" stroke-miterlimit="10" stroke-linecap="round" stroke-linejoin="round"/>
<path d="M262.11 127.171C262.11 127.171 260.521 155.505 257.342 178.687C254.163 201.77 248.401 205.733 251.183 207.219C253.865 208.606 262.806 209.596 271.349 203.058C279.892 196.519 281.383 189.585 281.879 188.198C282.376 186.811 285.555 181.263 283.667 173.337C281.78 165.412 278.601 154.514 276.713 148.471C274.826 142.428 274.925 138.564 274.925 138.564C274.925 138.564 274.925 130.936 271.25 128.36C267.475 125.685 262.11 127.171 262.11 127.171Z" fill="#1A1A1A"/>
<path d="M230.52 129.253C230.52 129.253 238.666 123.011 250.289 125.488C261.912 127.965 274.826 138.466 274.826 138.466C274.826 138.466 275.124 129.748 274.528 127.668C274.031 125.587 272.74 123.309 272.74 123.309C272.74 123.309 279.098 124.894 279.396 123.011C279.694 121.228 276.813 118.058 274.826 116.572C272.839 114.987 265.985 107.854 263.402 107.458C260.819 107.061 246.514 106.764 241.348 109.835C236.083 112.807 228.334 120.238 230.52 129.253Z" fill="#8C8C8C" stroke="#1A2E35" stroke-miterlimit="10" stroke-linecap="round" stroke-linejoin="round"/>
<path d="M261.415 132.919C261.316 132.126 258.832 131.334 254.858 131.036C250.885 130.739 246.414 133.216 246.414 133.216C245.024 134.009 243.335 133.612 241.845 133.414C241.845 133.414 237.076 131.631 233.103 132.523C229.228 133.414 226.844 134.603 226.844 135.395C226.844 136.188 227.54 137.08 227.738 137.575C228.036 138.07 229.129 143.123 231.911 143.816C234.593 144.51 240.454 143.42 241.547 141.439C242.54 139.655 242.739 137.377 242.838 135.395C242.838 134.9 245.52 134.999 245.62 135.296C245.62 135.296 246.514 139.358 247.805 141.141C249.097 142.925 255.057 143.123 257.64 142.033C260.223 140.943 260.62 135.792 260.819 135.296C261.018 134.702 261.514 133.711 261.415 132.919Z" fill="#1A1A1A"/>
<path d="M273.237 254.277C272.74 255.862 272.342 257.448 272.044 258.835L273.237 254.277Z" fill="white"/>
<path d="M273.237 254.277C272.74 255.862 272.342 257.448 272.044 258.835" stroke="#1A2E35" stroke-miterlimit="10" stroke-linecap="round" stroke-linejoin="round"/>
<path d="M297.078 210.886C297.078 210.886 298.966 198.503 298.966 196.422C298.966 194.342 300.059 186.119 300.853 184.633C301.648 183.147 303.138 183.841 303.337 185.426C303.536 186.912 302.94 193.45 302.94 193.45C302.94 193.45 304.231 192.162 305.721 192.658C307.211 193.252 307.211 193.252 307.211 193.252C307.211 193.252 308.503 190.775 310.589 191.964C312.675 193.054 312.874 198.503 312.874 198.503C312.874 198.503 316.649 193.054 319.43 190.478C322.212 187.803 324.099 187.803 323.205 189.686C322.311 191.568 313.967 203.357 312.874 206.032C311.781 208.707 310.192 213.561 310.192 213.561L297.078 210.886Z" fill="white" stroke="#1A2E35" stroke-miterlimit="10" stroke-linecap="round" stroke-linejoin="round"/>
<path d="M307.211 193.252C307.211 193.252 307.509 197.908 307.112 199.097" stroke="#1A2E35" stroke-miterlimit="10" stroke-linecap="round" stroke-linejoin="round"/>
<path d="M302.94 193.451C302.94 193.451 301.946 197.315 302.046 197.909" stroke="#1A2E35" stroke-miterlimit="10" stroke-linecap="round" stroke-linejoin="round"/>
<path d="M294.794 217.722L297.078 208.707L312.178 212.274L310.589 225.351L294.794 217.722Z" fill="white" stroke="#1A2E35" stroke-miterlimit="10" stroke-linecap="round" stroke-linejoin="round"/>
<path d="M291.118 201.972C291.118 201.972 286.449 199.693 281.184 207.024C275.919 214.355 269.66 244.175 270.852 254.082C271.945 263.988 271.746 270.23 280.29 273.202C288.734 276.174 299.463 272.112 305.125 266.861C310.788 261.611 309.297 244.868 309.297 242.491C309.297 240.014 313.768 228.423 313.47 225.451C313.072 222.479 294.098 216.039 294.098 216.039C294.098 216.039 293.701 203.953 291.118 201.972Z" fill="white" stroke="#1A2E35" stroke-miterlimit="10" stroke-linecap="round" stroke-linejoin="round"/>
<path d="M293.9 216.037C293.9 216.037 287.144 215.244 285.654 217.721C284.164 220.198 281.283 239.714 277.608 245.262C276.316 247.243 275.124 249.621 274.131 251.999" fill="white"/>
<path d="M293.9 216.037C293.9 216.037 287.144 215.244 285.654 217.721C284.164 220.198 281.283 239.714 277.608 245.262C276.316 247.243 275.124 249.621 274.131 251.999" stroke="#1A2E35" stroke-miterlimit="10" stroke-linecap="round" stroke-linejoin="round"/>
<path d="M279.396 241.895C279.396 241.895 277.111 255.962 278.998 260.817" stroke="#1A2E35" stroke-miterlimit="10" stroke-linecap="round" stroke-linejoin="round"/>
<path d="M302.642 250.514C303.337 251.603 304.032 252.693 304.827 253.486" stroke="#1A2E35" stroke-miterlimit="10" stroke-linecap="round" stroke-linejoin="round"/>
<path d="M298.072 240.805C298.072 240.805 299.363 244.47 301.251 248.136" stroke="#1A2E35" stroke-miterlimit="10" stroke-linecap="round" stroke-linejoin="round"/>
<path d="M309.099 242.49C309.099 242.49 307.013 248.335 307.013 252.199" stroke="#1A2E35" stroke-miterlimit="10" stroke-linecap="round" stroke-linejoin="round"/>
<path d="M194.658 163.333L202.406 162.441" stroke="#1A2E35" stroke-miterlimit="10" stroke-linecap="round" stroke-linejoin="round"/>
<path d="M189.591 118.95L225.056 116.672L225.354 119.545L189.988 122.22L189.591 118.95Z" fill="url(#paint9_linear)"/>
<path d="M231.516 67.875H212V71.125H231.516V76L238 69.5L231.516 63V67.875Z" fill="#0E1C21"/>
<path d="M293 59.6186L290.381 57L280 67.3814L269.619 57L267 59.6186L277.381 70L267 80.3814L269.619 83L280 72.6186L290.381 83L293 80.3814L282.619 70L293 59.6186Z" fill="#0E1C21"/>
<path d="M170 52C162.824 52 157 57.824 157 65C157 72.176 162.824 78 170 78C177.176 78 183 72.176 183 65C183 57.824 177.176 52 170 52ZM170 55.9C172.158 55.9 173.9 57.642 173.9 59.8C173.9 61.958 172.158 63.7 170 63.7C167.842 63.7 166.1 61.958 166.1 59.8C166.1 57.642 167.842 55.9 170 55.9ZM170 74.36C166.75 74.36 163.877 72.696 162.2 70.174C162.239 67.587 167.4 66.17 170 66.17C172.587 66.17 177.761 67.587 177.8 70.174C176.123 72.696 173.25 74.36 170 74.36Z" fill="#0E1C21"/>
<path d="M49.1819 408.099C49.1819 408.398 50.0271 416.949 47.5412 420.031L45.1548 423.015L46.2983 424.257C46.2983 424.257 45.4531 436.19 46.2983 438.477C47.1435 440.764 48.5853 441.758 48.5853 441.758L54.1537 441.161C54.1537 441.161 54.3525 438.377 52.8113 438.079C51.2701 437.781 51.4689 436.836 51.4689 436.836C51.4689 436.836 51.8169 432.411 54.1537 428.583C56.4904 424.755 58.678 424.655 61.9593 421.175C65.2407 417.695 67.826 413.121 68.1243 412.126C68.4226 411.082 67.5277 404.917 67.5277 404.917L57.9322 397.311L49.1819 408.099Z" fill="black"/>
<path d="M73.9911 409.64C73.7923 410.038 72.5493 422.517 72.5493 422.517L79.8578 443.2C79.8578 443.2 82.5426 444.641 81.6974 446.928L78.2171 447.426L74.8363 444.244C74.8363 444.244 75.3335 442.603 73.6928 441.261C72.0522 439.918 63.0036 425.202 60.3188 424.357C57.6341 423.512 58.3798 422.617 58.3798 422.617L63.5504 403.873L74.1403 407.154L73.9911 409.64Z" fill="black"/>
<path d="M21.9372 377.374C22.0366 372.103 24.2739 368.176 25.2682 364.696C26.2626 361.116 26.6106 357.984 24.4728 355.1C22.0863 351.868 17.3134 350.824 13.684 353.609C12.9383 354.205 12.2422 354.951 12.0434 355.896C11.8445 356.84 12.3417 357.934 13.2863 358.183C14.5292 358.531 15.623 357.288 16.9157 357.138C18.5067 356.94 19.849 358.58 19.9485 360.171C20.0976 361.762 19.3519 363.303 18.7552 364.795C15.8219 371.855 13.9326 381.798 19.849 389.206L26.5112 386.472C24.075 383.787 21.8875 380.854 21.9372 377.374Z" fill="black"/>
<path d="M17.3628 394.674C17.3628 394.674 15.1255 396.563 15.3244 401.833C15.5232 407.103 17.0148 413.716 16.3684 416.748C15.7221 419.731 15.5232 428.382 15.3244 430.122C15.1752 431.863 19.6995 442.303 19.6995 442.303L25.417 442.651C25.417 442.651 25.8645 439.221 23.3289 438.475C20.7933 437.729 19.6995 429.476 20.9425 426.294C22.2351 423.112 24.4724 425.847 28.3007 417.743C32.1289 409.639 33.0238 407.948 33.0238 407.551C33.0238 407.203 17.3628 394.674 17.3628 394.674Z" fill="black"/>
<path d="M26.5611 418.638C26.5611 418.638 23.5283 421.82 24.1249 424.654C24.7215 427.487 30.2899 436.934 30.2899 436.934L36.4549 436.287C36.4549 436.287 37.7475 434.647 34.9136 433.404L33.0243 431.664C33.0243 431.664 31.0356 429.675 31.0356 427.189C31.0356 424.753 36.1068 423.411 37.4492 417.942C38.7916 412.473 39.5871 409.738 39.5871 409.738L27.804 412.274L26.5611 418.638Z" fill="black"/>
<path d="M30.9859 383.936C27.2074 383.986 23.5283 385.13 20.5452 387.466C18.9543 388.709 17.5125 390.3 16.8164 392.289C14.8774 397.907 15.9215 405.116 15.7724 406.707C15.5735 408.298 15.9712 410.187 16.4187 414.016C16.7667 416.8 34.0684 416.253 34.0684 416.253L38.9408 414.314C38.9408 414.314 41.4266 412.922 44.708 415.706C47.9894 418.54 50.6244 420.031 52.4639 419.783C54.3035 419.534 63.1532 408.895 63.1532 408.895L59.7227 390.002C59.7227 390.002 51.5193 386.124 45.6526 384.782C41.8741 383.986 35.2119 383.887 30.9859 383.936Z" fill="black"/>
<path d="M47.8398 405.215C47.8398 405.215 47.9889 405.414 48.2375 405.811C48.4861 406.209 48.7844 406.806 49.0827 407.601C49.729 409.143 50.2262 411.529 49.9279 414.114C49.6296 416.7 48.5855 418.887 47.6409 420.23C47.1437 420.926 46.6963 421.423 46.398 421.771C46.0499 422.119 45.8511 422.268 45.8511 422.268C45.8511 422.268 46.0002 422.069 46.2985 421.721C46.5968 421.373 47.0443 420.826 47.4918 420.13C48.3867 418.738 49.381 416.6 49.6793 414.065C49.9776 411.529 49.4805 409.242 48.9336 407.651C48.6353 406.856 48.3867 406.259 48.1381 405.861C47.9392 405.463 47.8398 405.215 47.8398 405.215Z" fill="#C7C7C7"/>
<path d="M54.1044 428.582C54.1044 428.582 54.1541 428.433 54.3032 428.185C54.4524 427.936 54.6513 427.588 54.9993 427.19C55.6456 426.395 56.6897 425.351 58.0321 424.207C59.4242 423.511 61.0151 422.517 62.4072 421.175C64.6942 419.037 66.136 416.551 66.8818 414.662C67.2795 413.717 67.4784 412.921 67.6276 412.375C67.7767 411.828 67.8264 411.529 67.8761 411.529C67.8761 411.529 67.8264 411.828 67.727 412.424C67.6276 412.971 67.379 413.767 67.0309 414.761C66.3349 416.7 64.8931 419.236 62.5564 421.373C61.1146 422.716 59.5236 423.76 58.0818 424.406C56.7394 425.5 55.6456 426.544 54.9993 427.339C54.6513 427.737 54.4027 428.036 54.2535 428.284C54.2038 428.483 54.1044 428.582 54.1044 428.582Z" fill="#C7C7C7"/>
<path d="M35.1122 400.641C35.1122 400.641 35.1122 400.74 35.0624 400.939C35.0127 401.138 34.963 401.436 34.9133 401.784C34.8139 402.48 34.6647 403.524 34.615 404.817C34.5156 406.11 34.5156 407.651 34.4161 409.391C34.267 411.081 34.0681 413.02 33.372 414.91C32.676 416.799 31.5325 418.39 30.3393 419.583C29.0963 420.826 27.8534 421.721 26.7596 422.417C25.6658 423.113 24.7212 423.56 24.0749 423.908C23.7268 424.058 23.4782 424.207 23.3291 424.256C23.1302 424.356 23.0805 424.356 23.0805 424.356C23.0805 424.356 23.1799 424.306 23.3291 424.207C23.528 424.107 23.7766 423.958 24.0749 423.809C24.7212 423.461 25.6161 422.964 26.7099 422.268C27.8037 421.572 29.0466 420.677 30.2398 419.434C31.4331 418.241 32.5766 416.699 33.2229 414.81C33.8692 412.971 34.1178 411.081 34.267 409.391C34.4161 407.701 34.4161 406.159 34.5653 404.867C34.6647 403.574 34.8139 402.53 34.963 401.834C35.0127 401.486 35.1122 401.188 35.1619 401.038C35.1122 400.74 35.1122 400.641 35.1122 400.641Z" fill="#263238"/>
<path d="M44.2606 415.408C44.2109 415.458 43.664 414.911 42.5205 414.513C41.9736 414.315 41.2279 414.215 40.4324 414.215C39.6369 414.265 38.7917 414.464 37.9465 414.861C36.2064 415.607 34.6651 416.254 33.5714 416.8C33.0742 417.049 32.6267 417.248 32.2787 417.397C31.9804 417.546 31.7815 417.646 31.7815 417.596C31.7815 417.596 31.9307 417.496 32.229 417.298C32.5273 417.099 32.9747 416.9 33.5216 416.602C34.6154 416.055 36.1567 415.359 37.8968 414.613C38.742 414.215 39.6369 413.967 40.4821 413.967C41.3273 413.917 42.0731 414.066 42.62 414.315C43.2166 414.563 43.6143 414.812 43.9126 415.011C44.1612 415.259 44.3104 415.408 44.2606 415.408Z" fill="#263238"/>
<path d="M76.0299 384.084C76.0796 384.233 81.2006 388.559 81.648 390C81.996 391.044 81.648 392.188 81.648 392.188L83.1893 395.37C83.1893 395.37 82.0955 398.353 80.3554 399.099C78.6152 399.844 76.8751 399.994 76.726 399.994C76.6265 399.994 75.2842 402.281 74.5384 405.612C73.7926 408.992 73.544 412.324 73.544 412.324L60.4186 401.833C60.4186 401.833 58.2807 393.829 58.4796 391.939C58.6288 390.1 61.9101 387.316 61.9598 387.166C62.0593 387.017 64.4457 384.929 64.4457 384.929L67.7768 382.891C67.7768 382.891 70.4616 378.764 73.7429 378.217C77.0243 377.621 76.0796 380.703 76.0796 380.703L76.0299 384.084Z" fill="black"/>
<path d="M75.1355 391.095C75.1355 391.045 75.2847 390.896 75.6824 390.796C76.0304 390.697 76.627 390.647 77.2236 390.896C77.7705 391.144 78.1683 391.592 78.3174 391.94C78.4666 392.288 78.4666 392.536 78.4666 392.536C78.4169 392.536 78.3671 392.338 78.1683 391.99C77.9694 391.691 77.6214 391.293 77.1242 391.095C76.627 390.896 76.0801 390.896 75.7321 390.945C75.3841 390.995 75.1852 391.144 75.1355 391.095Z" fill="#C7C7C7"/>
<path d="M74.5385 379.062C74.5385 379.112 73.743 379.361 72.6989 380.156C71.6051 380.902 70.3125 382.294 69.517 384.134C69.4175 384.382 69.3181 384.581 69.2684 384.83C69.2187 384.929 69.2187 385.078 69.1689 385.178C69.1192 385.277 69.1192 385.426 69.1192 385.426C69.1192 385.426 69.2187 385.426 69.3181 385.426C69.4175 385.426 69.5667 385.377 69.6661 385.377C69.9147 385.327 70.1136 385.277 70.3125 385.227C71.1577 385.029 71.9034 384.78 72.5497 384.531C73.7927 384.034 74.4887 383.587 74.4887 383.637C74.4887 383.637 74.3396 383.786 73.9916 383.985C73.6932 384.183 73.1961 384.432 72.5995 384.73C72.0029 385.029 71.2074 385.277 70.3622 385.526C70.1633 385.576 69.9147 385.625 69.7158 385.675C69.6164 385.675 69.4673 385.725 69.3678 385.725C69.3181 385.725 69.2684 385.774 69.1689 385.774C69.1192 385.774 68.9701 385.774 68.9204 385.675C68.8209 385.575 68.8706 385.476 68.8706 385.377C68.8706 385.327 68.9204 385.277 68.9204 385.178C68.9701 385.078 68.9701 384.929 69.0198 384.83C69.1192 384.581 69.1689 384.333 69.2684 384.134C70.0639 382.195 71.456 380.852 72.5995 380.107C73.1464 379.709 73.6435 379.51 73.9916 379.361C74.2899 379.112 74.4887 379.062 74.5385 379.062Z" fill="#263238"/>
<path d="M63.4515 395.719C63.4515 395.719 63.6503 395.669 63.9984 395.62C64.3464 395.57 64.8436 395.52 65.4899 395.471C66.7328 395.371 68.473 395.321 70.4119 395.371C72.3509 395.421 74.0413 395.57 75.2843 395.769C75.9306 395.868 76.4278 395.918 76.7758 396.017C77.1238 396.067 77.3227 396.117 77.3227 396.167C77.3227 396.167 77.1238 396.167 76.7758 396.117C76.3781 396.067 75.8809 396.017 75.2843 395.968C74.0413 395.868 72.3012 395.719 70.4119 395.669C68.5227 395.62 66.7826 395.669 65.5396 395.719C64.943 395.769 64.4458 395.769 64.0481 395.769C63.6503 395.719 63.4515 395.719 63.4515 395.719Z" fill="#C7C7C7"/>
<path d="M62.8549 399.496C62.8549 399.496 63.0041 399.397 63.3521 399.347C63.6504 399.248 64.1476 399.148 64.7442 398.999C65.8877 398.701 67.5284 398.353 69.3182 398.104C71.1081 397.806 72.7488 397.607 73.942 397.508C74.5386 397.458 75.0358 397.408 75.3341 397.408C75.6821 397.408 75.8312 397.408 75.8312 397.408C75.8312 397.408 75.6324 397.458 75.3341 397.508C74.9363 397.557 74.4889 397.607 73.942 397.707C72.7488 397.856 71.1081 398.055 69.3182 398.353C67.5284 398.651 65.9374 398.949 64.7442 399.198C64.1973 399.297 63.7499 399.397 63.3521 399.496C63.0538 399.496 62.8549 399.546 62.8549 399.496Z" fill="#C7C7C7"/>
<path d="M83.1897 395.272C82.7919 395.123 82.0462 394.924 81.6484 394.924C81.549 394.924 81.3998 394.924 81.3501 395.023C81.2507 395.123 81.3501 395.272 81.3999 395.421C81.5987 395.819 81.897 396.167 82.1953 396.515C82.2948 396.565 82.3445 396.664 82.4439 396.664C82.6428 396.664 82.7422 396.465 82.8417 396.316C82.9908 395.968 83.2394 395.62 83.2394 395.421L83.1897 395.272Z" fill="#FF725E"/>
<g opacity="0.2">
<g opacity="0.2">
<path opacity="0.2" d="M68.9203 385.278C68.9203 385.328 68.8706 385.427 68.9203 385.477C68.97 385.576 69.0695 385.527 69.1689 385.527C71.0085 385.228 72.7983 384.532 74.439 383.538L74.9361 380.555C75.0356 380.008 74.8367 379.411 74.4887 379.014C71.8039 380.107 69.6661 382.494 68.9203 385.278Z" fill="black"/>
</g>
</g>
<g opacity="0.2">
<path opacity="0.2" d="M24.5222 425.649C24.5222 425.649 33.6205 422.069 35.3109 419.534C37.0013 416.998 37.9957 414.711 37.9957 414.711L32.129 417.644C32.129 417.644 27.6544 422.367 23.8262 423.909L24.5222 425.649Z" fill="black"/>
</g>
<g opacity="0.2">
<g opacity="0.2">
<path opacity="0.2" d="M59.0264 423.958C60.9157 424.057 62.9541 424.107 64.5451 423.113C65.8875 422.268 66.6829 420.776 67.031 419.235C67.379 417.694 67.3293 416.103 67.2298 414.512C65.8377 417.942 63.3519 421.82 59.0264 423.958Z" fill="black"/>
</g>
</g>
<path d="M15.8214 397.261C15.8214 397.261 15.8214 397.161 15.8214 397.012C15.8214 396.863 15.8214 396.664 15.8711 396.366C15.9208 395.819 16.07 395.023 16.3683 394.029C16.9152 392.09 18.2079 389.455 20.5943 387.466C21.7875 386.472 23.0802 385.726 24.3231 385.229C25.5661 384.732 26.7096 384.384 27.7039 384.185C28.6983 383.986 29.4937 383.887 30.0904 383.887C30.3887 383.887 30.5875 383.887 30.7367 383.887C30.8858 383.887 30.9853 383.887 30.9853 383.887C30.9853 383.887 30.687 383.936 30.1401 383.986C29.5932 384.036 28.7977 384.135 27.8034 384.384C26.809 384.632 25.6655 384.931 24.4723 385.478C23.2791 385.975 21.9864 386.721 20.7932 387.665C18.4564 389.654 17.1638 392.19 16.5672 394.079C16.2689 395.023 16.07 395.819 15.9706 396.366C15.8711 396.962 15.8711 397.261 15.8214 397.261Z" fill="#263238"/>
<path d="M58.9272 406.11C58.9272 406.11 58.8278 405.911 58.7284 405.513C58.6289 405.115 58.5295 404.569 58.4798 403.823C58.3803 402.381 58.4798 400.343 59.325 398.254L59.5239 398.404C59.325 398.553 59.1261 398.702 58.8775 398.901C58.1815 399.448 57.6346 400.044 57.1374 400.641L56.9385 400.889V400.541C56.9385 398.702 57.4357 397.161 57.8832 396.166C58.1318 395.669 58.3306 395.271 58.4798 395.023C58.6289 394.774 58.7284 394.625 58.7284 394.625C58.7781 394.625 58.4301 395.172 57.9826 396.216C57.5849 397.21 57.1374 398.752 57.1871 400.541L56.9883 400.442C57.4854 399.845 58.082 399.199 58.7781 398.652C58.977 398.453 59.2255 398.304 59.4244 398.155L59.7724 397.906L59.6233 398.304C58.8278 400.343 58.6787 402.381 58.7284 403.773C58.7284 405.265 58.977 406.11 58.9272 406.11Z" fill="#C7C7C7"/>
<path d="M24.572 405.363C24.572 405.363 24.5222 405.164 24.5222 404.766C24.5222 404.368 24.5222 403.821 24.572 403.175C24.6714 401.833 25.0691 399.894 25.9641 397.905L26.1629 398.054C25.7155 398.402 25.268 398.75 24.8703 399.198C24.4725 399.645 24.0748 400.093 23.7765 400.54L23.5279 400.888V400.49C23.5279 398.303 24.1245 396.413 24.6714 395.22C24.9697 394.624 25.2183 394.126 25.4172 393.828C25.616 393.53 25.7652 393.331 25.7652 393.381C25.8149 393.381 25.3177 394.077 24.8205 395.32C24.3234 396.563 23.7765 398.402 23.7765 400.54L23.5279 400.49C23.8759 399.993 24.2239 399.546 24.6714 399.098C25.0691 398.651 25.5663 398.253 26.0138 397.955L26.4115 397.656L26.2126 398.104C25.3177 400.043 24.92 401.932 24.7708 403.274C24.6714 403.971 24.6714 404.468 24.6217 404.865C24.572 405.164 24.572 405.363 24.572 405.363Z" fill="#C7C7C7"/>
<defs>
<filter id="filter0_d" x="69" y="0" width="66.4546" height="79" filterUnits="userSpaceOnUse" color-interpolation-filters="sRGB">
<feFlood flood-opacity="0" result="BackgroundImageFix"/>
<feColorMatrix in="SourceAlpha" type="matrix" values="0 0 0 0 0 0 0 0 0 0 0 0 0 0 0 0 0 0 127 0" result="hardAlpha"/>
<feOffset dy="4"/>
<feGaussianBlur stdDeviation="2"/>
<feColorMatrix type="matrix" values="0 0 0 0 0 0 0 0 0 0 0 0 0 0 0 0 0 0 0.25 0"/>
<feBlend mode="normal" in2="BackgroundImageFix" result="effect1_dropShadow"/>
<feBlend mode="normal" in="SourceGraphic" in2="effect1_dropShadow" result="shape"/>
</filter>
<filter id="filter1_d" x="0" y="0" width="66.4546" height="79" filterUnits="userSpaceOnUse" color-interpolation-filters="sRGB">
<feFlood flood-opacity="0" result="BackgroundImageFix"/>
<feColorMatrix in="SourceAlpha" type="matrix" values="0 0 0 0 0 0 0 0 0 0 0 0 0 0 0 0 0 0 127 0" result="hardAlpha"/>
<feOffset dy="4"/>
<feGaussianBlur stdDeviation="2"/>
<feColorMatrix type="matrix" values="0 0 0 0 0 0 0 0 0 0 0 0 0 0 0 0 0 0 0.25 0"/>
<feBlend mode="normal" in2="BackgroundImageFix" result="effect1_dropShadow"/>
<feBlend mode="normal" in="SourceGraphic" in2="effect1_dropShadow" result="shape"/>
</filter>
<linearGradient id="paint0_linear" x1="-33.6246" y1="99.1767" x2="2.30238" y2="247.281" gradientUnits="userSpaceOnUse">
<stop stop-color="#21404B"/>
<stop offset="1" stop-color="#0E1C21"/>
</linearGradient>
<linearGradient id="paint1_linear" x1="22.359" y1="150.887" x2="101.947" y2="150.887" gradientUnits="userSpaceOnUse">
<stop offset="0.1486" stop-color="#32D3FF"/>
<stop offset="1" stop-color="#009999"/>
</linearGradient>
<linearGradient id="paint2_linear" x1="43.7629" y1="163.713" x2="24.6569" y2="146.006" gradientUnits="userSpaceOnUse">
<stop stop-color="#FB6E56"/>
<stop offset="0.537" stop-color="#FBAE56"/>
<stop offset="1" stop-color="#FDE459"/>
</linearGradient>
<linearGradient id="paint3_linear" x1="68.359" y1="174.588" x2="41.0993" y2="133.984" gradientUnits="userSpaceOnUse">
<stop offset="0.000733902" stop-color="#FB4A56"/>
<stop offset="0.2643" stop-color="#FC6F57"/>
<stop offset="0.5837" stop-color="#FC9558"/>
<stop offset="0.8403" stop-color="#FDAC59"/>
<stop offset="1" stop-color="#FDB559"/>
</linearGradient>
<linearGradient id="paint4_linear" x1="90.7139" y1="161.113" x2="65.7019" y2="142.591" gradientUnits="userSpaceOnUse">
<stop stop-color="#FB2E56"/>
<stop offset="1" stop-color="#FD6559"/>
</linearGradient>
<linearGradient id="paint5_linear" x1="189.02" y1="125.27" x2="227.661" y2="125.27" gradientUnits="userSpaceOnUse">
<stop stop-color="#FB2E56"/>
<stop offset="1" stop-color="#FD6559"/>
</linearGradient>
<linearGradient id="paint6_linear" x1="199.242" y1="148.201" x2="223.47" y2="148.201" gradientUnits="userSpaceOnUse">
<stop stop-color="#FB2E56"/>
<stop offset="1" stop-color="#FD6559"/>
</linearGradient>
<linearGradient id="paint7_linear" x1="178.33" y1="231.17" x2="229.236" y2="231.17" gradientUnits="userSpaceOnUse">
<stop stop-color="#FB2E56"/>
<stop offset="1" stop-color="#FD6559"/>
</linearGradient>
<linearGradient id="paint8_linear" x1="237.809" y1="241.527" x2="292.249" y2="241.527" gradientUnits="userSpaceOnUse">
<stop stop-color="#FB2E56"/>
<stop offset="1" stop-color="#FD6559"/>
</linearGradient>
<linearGradient id="paint9_linear" x1="189.607" y1="119.437" x2="225.382" y2="119.437" gradientUnits="userSpaceOnUse">
<stop stop-color="#FB2E56"/>
<stop offset="1" stop-color="#FD6559"/>
</linearGradient>
</defs>
</svg>
